<?xml version="1.0" encoding="UTF-8"?>
<svg xmlns="http://www.w3.org/2000/svg" width="1366" height="600" viewBox="0 0 1366 600">
  <rect x="0" y="0" width="1366" height="600" fill="#F6F6F6" />
  <text id="problem_no" x="38" y="78" font-family="Malgun Gothic" font-size="76" fill="#6F3FA2" font-weight="normal" text-anchor="start">4</text>
  <text id="instruction" x="145" y="70" font-family="Malgun Gothic" font-size="56" fill="#222222" font-weight="normal" text-anchor="start">수 모형으로 137 + 286을 구해 보세요.</text>
  <rect id="model_box" x="205" y="125" width="690" height="465" rx="0" stroke="#9C9CA1" stroke-width="3" fill="none" />
  <line id="divider" x1="205" y1="262" x2="895" y2="262" stroke="#9C9CA1" stroke-width="3" />
  <text id="equation" x="1048" y="562" font-family="Malgun Gothic" font-size="62" fill="#222222" font-weight="normal" text-anchor="middle">137+286=</text>
  <rect id="answer_blank" x="1170" y="523" width="140" height="68" rx="10" stroke="#69BEEA" stroke-width="4" fill="none" />
  <rect id="a_h_0_body" x="225" y="154" width="168" height="168" rx="0" stroke="#C9A521" stroke-width="2" fill="#F3D13C" />
  <line id="a_h_0_v_1" x1="241.8" y1="154" x2="241.8" y2="322" stroke="#DAB735" stroke-width="1" />
  <line id="a_h_0_h_1" x1="225" y1="170.8" x2="393" y2="170.8" stroke="#DAB735" stroke-width="1" />
  <line id="a_h_0_v_2" x1="258.6" y1="154" x2="258.6" y2="322" stroke="#DAB735" stroke-width="1" />
  <line id="a_h_0_h_2" x1="225" y1="187.6" x2="393" y2="187.6" stroke="#DAB735" stroke-width="1" />
  <line id="a_h_0_v_3" x1="275.4" y1="154" x2="275.4" y2="322" stroke="#DAB735" stroke-width="1" />
  <line id="a_h_0_h_3" x1="225" y1="204.4" x2="393" y2="204.4" stroke="#DAB735" stroke-width="1" />
  <line id="a_h_0_v_4" x1="292.2" y1="154" x2="292.2" y2="322" stroke="#DAB735" stroke-width="1" />
  <line id="a_h_0_h_4" x1="225" y1="221.2" x2="393" y2="221.2" stroke="#DAB735" stroke-width="1" />
  <line id="a_h_0_v_5" x1="309.0" y1="154" x2="309.0" y2="322" stroke="#DAB735" stroke-width="1" />
  <line id="a_h_0_h_5" x1="225" y1="238.0" x2="393" y2="238.0" stroke="#DAB735" stroke-width="1" />
  <line id="a_h_0_v_6" x1="325.8" y1="154" x2="325.8" y2="322" stroke="#DAB735" stroke-width="1" />
  <line id="a_h_0_h_6" x1="225" y1="254.8" x2="393" y2="254.8" stroke="#DAB735" stroke-width="1" />
  <line id="a_h_0_v_7" x1="342.6" y1="154" x2="342.6" y2="322" stroke="#DAB735" stroke-width="1" />
  <line id="a_h_0_h_7" x1="225" y1="271.6" x2="393" y2="271.6" stroke="#DAB735" stroke-width="1" />
  <line id="a_h_0_v_8" x1="359.4" y1="154" x2="359.4" y2="322" stroke="#DAB735" stroke-width="1" />
  <line id="a_h_0_h_8" x1="225" y1="288.4" x2="393" y2="288.4" stroke="#DAB735" stroke-width="1" />
  <line id="a_h_0_v_9" x1="376.20000000000005" y1="154" x2="376.20000000000005" y2="322" stroke="#DAB735" stroke-width="1" />
  <line id="a_h_0_h_9" x1="225" y1="305.20000000000005" x2="393" y2="305.20000000000005" stroke="#DAB735" stroke-width="1" />
  <rect id="a_t_0" x="503" y="152" width="170" height="24" rx="0" stroke="#C9A521" stroke-width="2" fill="#F3D13C" />
  <rect id="a_t_1" x="503" y="184" width="170" height="24" rx="0" stroke="#C9A521" stroke-width="2" fill="#F3D13C" />
  <rect id="a_t_2" x="503" y="216" width="170" height="24" rx="0" stroke="#C9A521" stroke-width="2" fill="#F3D13C" />
  <rect id="a_o_0" x="719" y="168" width="26" height="26" rx="0" stroke="#C9A521" stroke-width="2" fill="#F3D13C" />
  <rect id="a_o_1" x="751" y="168" width="26" height="26" rx="0" stroke="#C9A521" stroke-width="2" fill="#F3D13C" />
  <rect id="a_o_2" x="783" y="168" width="26" height="26" rx="0" stroke="#C9A521" stroke-width="2" fill="#F3D13C" />
  <rect id="a_o_3" x="815" y="168" width="26" height="26" rx="0" stroke="#C9A521" stroke-width="2" fill="#F3D13C" />
  <rect id="a_o_4" x="847" y="168" width="26" height="26" rx="0" stroke="#C9A521" stroke-width="2" fill="#F3D13C" />
  <rect id="a_o_5" x="719" y="204" width="26" height="26" rx="0" stroke="#C9A521" stroke-width="2" fill="#F3D13C" />
  <rect id="a_o_6" x="751" y="204" width="26" height="26" rx="0" stroke="#C9A521" stroke-width="2" fill="#F3D13C" />
  <rect id="b_h_0_body" x="225" y="364" width="168" height="168" rx="0" stroke="#C9A521" stroke-width="2" fill="#F3D13C" />
  <line id="b_h_0_v_1" x1="241.8" y1="364" x2="241.8" y2="532" stroke="#DAB735" stroke-width="1" />
  <line id="b_h_0_h_1" x1="225" y1="380.8" x2="393" y2="380.8" stroke="#DAB735" stroke-width="1" />
  <line id="b_h_0_v_2" x1="258.6" y1="364" x2="258.6" y2="532" stroke="#DAB735" stroke-width="1" />
  <line id="b_h_0_h_2" x1="225" y1="397.6" x2="393" y2="397.6" stroke="#DAB735" stroke-width="1" />
  <line id="b_h_0_v_3" x1="275.4" y1="364" x2="275.4" y2="532" stroke="#DAB735" stroke-width="1" />
  <line id="b_h_0_h_3" x1="225" y1="414.4" x2="393" y2="414.4" stroke="#DAB735" stroke-width="1" />
  <line id="b_h_0_v_4" x1="292.2" y1="364" x2="292.2" y2="532" stroke="#DAB735" stroke-width="1" />
  <line id="b_h_0_h_4" x1="225" y1="431.2" x2="393" y2="431.2" stroke="#DAB735" stroke-width="1" />
  <line id="b_h_0_v_5" x1="309.0" y1="364" x2="309.0" y2="532" stroke="#DAB735" stroke-width="1" />
  <line id="b_h_0_h_5" x1="225" y1="448.0" x2="393" y2="448.0" stroke="#DAB735" stroke-width="1" />
  <line id="b_h_0_v_6" x1="325.8" y1="364" x2="325.8" y2="532" stroke="#DAB735" stroke-width="1" />
  <line id="b_h_0_h_6" x1="225" y1="464.8" x2="393" y2="464.8" stroke="#DAB735" stroke-width="1" />
  <line id="b_h_0_v_7" x1="342.6" y1="364" x2="342.6" y2="532" stroke="#DAB735" stroke-width="1" />
  <line id="b_h_0_h_7" x1="225" y1="481.6" x2="393" y2="481.6" stroke="#DAB735" stroke-width="1" />
  <line id="b_h_0_v_8" x1="359.4" y1="364" x2="359.4" y2="532" stroke="#DAB735" stroke-width="1" />
  <line id="b_h_0_h_8" x1="225" y1="498.4" x2="393" y2="498.4" stroke="#DAB735" stroke-width="1" />
  <line id="b_h_0_v_9" x1="376.20000000000005" y1="364" x2="376.20000000000005" y2="532" stroke="#DAB735" stroke-width="1" />
  <line id="b_h_0_h_9" x1="225" y1="515.2" x2="393" y2="515.2" stroke="#DAB735" stroke-width="1" />
  <rect id="b_h_1_body" x="253" y="354" width="168" height="168" rx="0" stroke="#C9A521" stroke-width="2" fill="#F3D13C" />
  <line id="b_h_1_v_1" x1="269.8" y1="354" x2="269.8" y2="522" stroke="#DAB735" stroke-width="1" />
  <line id="b_h_1_h_1" x1="253" y1="370.8" x2="421" y2="370.8" stroke="#DAB735" stroke-width="1" />
  <line id="b_h_1_v_2" x1="286.6" y1="354" x2="286.6" y2="522" stroke="#DAB735" stroke-width="1" />
  <line id="b_h_1_h_2" x1="253" y1="387.6" x2="421" y2="387.6" stroke="#DAB735" stroke-width="1" />
  <line id="b_h_1_v_3" x1="303.4" y1="354" x2="303.4" y2="522" stroke="#DAB735" stroke-width="1" />
  <line id="b_h_1_h_3" x1="253" y1="404.4" x2="421" y2="404.4" stroke="#DAB735" stroke-width="1" />
  <line id="b_h_1_v_4" x1="320.2" y1="354" x2="320.2" y2="522" stroke="#DAB735" stroke-width="1" />
  <line id="b_h_1_h_4" x1="253" y1="421.2" x2="421" y2="421.2" stroke="#DAB735" stroke-width="1" />
  <line id="b_h_1_v_5" x1="337.0" y1="354" x2="337.0" y2="522" stroke="#DAB735" stroke-width="1" />
  <line id="b_h_1_h_5" x1="253" y1="438.0" x2="421" y2="438.0" stroke="#DAB735" stroke-width="1" />
  <line id="b_h_1_v_6" x1="353.8" y1="354" x2="353.8" y2="522" stroke="#DAB735" stroke-width="1" />
  <line id="b_h_1_h_6" x1="253" y1="454.8" x2="421" y2="454.8" stroke="#DAB735" stroke-width="1" />
  <line id="b_h_1_v_7" x1="370.6" y1="354" x2="370.6" y2="522" stroke="#DAB735" stroke-width="1" />
  <line id="b_h_1_h_7" x1="253" y1="471.6" x2="421" y2="471.6" stroke="#DAB735" stroke-width="1" />
  <line id="b_h_1_v_8" x1="387.4" y1="354" x2="387.4" y2="522" stroke="#DAB735" stroke-width="1" />
  <line id="b_h_1_h_8" x1="253" y1="488.4" x2="421" y2="488.4" stroke="#DAB735" stroke-width="1" />
  <line id="b_h_1_v_9" x1="404.20000000000005" y1="354" x2="404.20000000000005" y2="522" stroke="#DAB735" stroke-width="1" />
  <line id="b_h_1_h_9" x1="253" y1="505.20000000000005" x2="421" y2="505.20000000000005" stroke="#DAB735" stroke-width="1" />
  <rect id="b_t_0" x="503" y="292" width="170" height="24" rx="0" stroke="#C9A521" stroke-width="2" fill="#F3D13C" />
  <rect id="b_t_1" x="503" y="323" width="170" height="24" rx="0" stroke="#C9A521" stroke-width="2" fill="#F3D13C" />
  <rect id="b_t_2" x="503" y="354" width="170" height="24" rx="0" stroke="#C9A521" stroke-width="2" fill="#F3D13C" />
  <rect id="b_t_3" x="503" y="385" width="170" height="24" rx="0" stroke="#C9A521" stroke-width="2" fill="#F3D13C" />
  <rect id="b_t_4" x="503" y="416" width="170" height="24" rx="0" stroke="#C9A521" stroke-width="2" fill="#F3D13C" />
  <rect id="b_t_5" x="503" y="447" width="170" height="24" rx="0" stroke="#C9A521" stroke-width="2" fill="#F3D13C" />
  <rect id="b_t_6" x="503" y="478" width="170" height="24" rx="0" stroke="#C9A521" stroke-width="2" fill="#F3D13C" />
  <rect id="b_t_7" x="503" y="509" width="170" height="24" rx="0" stroke="#C9A521" stroke-width="2" fill="#F3D13C" />
  <rect id="b_o_0" x="719" y="385" width="26" height="26" rx="0" stroke="#C9A521" stroke-width="2" fill="#F3D13C" />
  <rect id="b_o_1" x="751" y="385" width="26" height="26" rx="0" stroke="#C9A521" stroke-width="2" fill="#F3D13C" />
  <rect id="b_o_2" x="783" y="385" width="26" height="26" rx="0" stroke="#C9A521" stroke-width="2" fill="#F3D13C" />
  <rect id="b_o_3" x="815" y="385" width="26" height="26" rx="0" stroke="#C9A521" stroke-width="2" fill="#F3D13C" />
  <rect id="b_o_4" x="847" y="385" width="26" height="26" rx="0" stroke="#C9A521" stroke-width="2" fill="#F3D13C" />
  <rect id="b_o_5" x="719" y="421" width="26" height="26" rx="0" stroke="#C9A521" stroke-width="2" fill="#F3D13C" />
</svg>