<?xml version="1.0" encoding="UTF-8"?>
<svg xmlns="http://www.w3.org/2000/svg" width="960" height="760" viewBox="0 0 960 760">
  <rect x="0" y="0" width="960" height="760" fill="#FFFFFF" />
  <text id="slot.problem.text" x="40" y="72" max_width="832" fill="#111111" font-family="Noto Sans KR, sans-serif" font-size="48">∠CAM의 크기를 구하시오.</text>
  <circle id="slot.circle.main.circle" cx="430" cy="390" r="250" stroke="#0B72D9" stroke-width="6" fill="none" />
  <circle id="slot.pt.c.circle" cx="189.7" cy="321.1" r="4" stroke="#111111" stroke-width="2" fill="#222222" />
  <circle id="slot.pt.a.circle" cx="621.5" cy="229.3" r="4" stroke="#111111" stroke-width="2" fill="#222222" />
  <circle id="slot.pt.n.circle" cx="670.3" cy="458.9" r="4" stroke="#111111" stroke-width="2" fill="#222222" />
  <circle id="slot.pt.t.circle" cx="238.5" cy="550.7" r="4" stroke="#111111" stroke-width="2" fill="#222222" />
  <circle id="slot.pt.m.circle" cx="430" cy="390" r="4" stroke="#111111" stroke-width="2" fill="#222222" />
  <line id="slot.seg.ca.line" x1="189.7" y1="321.1" x2="621.5" y2="229.3" stroke="#222222" stroke-width="5" />
  <line id="slot.seg.ta.line" x1="238.5" y1="550.7" x2="621.5" y2="229.3" stroke="#222222" stroke-width="5" />
  <line id="slot.seg.tn.line" x1="238.5" y1="550.7" x2="670.3" y2="458.9" stroke="#222222" stroke-width="5" />
  <line id="slot.seg.m_ca.line" x1="430" y1="390" x2="405.6" y2="275.2" stroke="#222222" stroke-width="5" />
  <line id="slot.seg.m_tn.line" x1="430" y1="390" x2="454.4" y2="504.8" stroke="#222222" stroke-width="5" />
  <line id="slot.ra.ca.a.line" x1="405.6" y1="275.2" x2="421.2" y2="271.9" stroke="#E91E63" stroke-width="3" />
  <line id="slot.ra.ca.b.line" x1="421.2" y1="271.9" x2="424.6" y2="287.5" stroke="#E91E63" stroke-width="3" />
  <line id="slot.ra.ca.c.line" x1="424.6" y1="287.5" x2="408.9" y2="290.8" stroke="#E91E63" stroke-width="3" />
  <line id="slot.ra.tn.a.line" x1="454.4" y1="504.8" x2="470.1" y2="501.5" stroke="#E91E63" stroke-width="3" />
  <line id="slot.ra.tn.b.line" x1="470.1" y1="501.5" x2="466.7" y2="485.8" stroke="#E91E63" stroke-width="3" />
  <line id="slot.ra.tn.c.line" x1="466.7" y1="485.8" x2="451.1" y2="489.2" stroke="#E91E63" stroke-width="3" />
  <line id="slot.eq.1.line" x1="410.8" y1="339.6" x2="424.8" y2="325.6" stroke="#E91E63" stroke-width="3" />
  <line id="slot.eq.2.line" x1="435.2" y1="454.4" x2="449.2" y2="440.4" stroke="#E91E63" stroke-width="3" />
  <text id="slot.lb.c.text" x="159.7" y="335.1" max_width="832" fill="#111111" font-family="Noto Sans KR, sans-serif" font-size="48">C</text>
  <text id="slot.lb.a.text" x="631.5" y="237.3" max_width="832" fill="#111111" font-family="Noto Sans KR, sans-serif" font-size="48">A</text>
  <text id="slot.lb.n.text" x="678.3" y="470.9" max_width="832" fill="#111111" font-family="Noto Sans KR, sans-serif" font-size="48">N</text>
  <text id="slot.lb.t.text" x="224.5" y="586.7" max_width="832" fill="#111111" font-family="Noto Sans KR, sans-serif" font-size="48">T</text>
  <text id="slot.lb.m.text" x="410" y="378" max_width="832" fill="#111111" font-family="Noto Sans KR, sans-serif" font-size="48">M</text>
  <text id="slot.angle.28.text" x="312.5" y="602.7" max_width="832" fill="#111111" font-family="Noto Sans KR, sans-serif" font-size="48">28°</text>
  <text id="slot.choice.1a.text" x="770" y="320" max_width="832" fill="#111111" font-family="Noto Sans KR, sans-serif" font-size="48">1. 14</text>
  <text id="slot.choice.2a.text" x="770" y="380" max_width="832" fill="#111111" font-family="Noto Sans KR, sans-serif" font-size="48">2. 28</text>
  <text id="slot.choice.3a.text" x="770" y="440" max_width="832" fill="#111111" font-family="Noto Sans KR, sans-serif" font-size="48">3. 36</text>
  <text id="slot.choice.4a.text" x="770" y="500" max_width="832" fill="#111111" font-family="Noto Sans KR, sans-serif" font-size="48">4. 90</text>
</svg>
