<?xml version="1.0" encoding="UTF-8"?>
<svg xmlns="http://www.w3.org/2000/svg" width="1000" height="600" viewBox="0 0 1000 600">
  <rect x="0" y="0" width="1000" height="600" fill="#F6F6F6" />
  <text id="t1" x="50" y="80" text-anchor="start" fill="#000000" stroke="none" stroke-width="1" font-family="sans-serif" font-size="24">㉠과 ㉡의 길이는 각각 몇 cm입니까?</text>
  <line id="main_line" fill="none" stroke="#000000" stroke-width="3" x1="100" y1="350" x2="800" y2="350" />
  <line id="tick_0" fill="none" stroke="#000000" stroke-width="2" x1="100" y1="340" x2="100" y2="360" />
  <line id="tick_1" fill="none" stroke="#000000" stroke-width="2" x1="450" y1="340" x2="450" y2="360" />
  <line id="tick_2" fill="none" stroke="#000000" stroke-width="2" x1="600" y1="340" x2="600" y2="360" />
  <line id="tick_3" fill="none" stroke="#000000" stroke-width="2" x1="800" y1="340" x2="800" y2="360" />
  <path id="arc_l" fill="none" stroke="#000000" stroke-width="1.5" stroke-dasharray="5,5" d="M 100 335 Q 275.0 270 450 335" />
  <text id="label_l" x="275" y="290" text-anchor="middle" fill="#000000" stroke="none" stroke-width="1" font-family="sans-serif" font-size="20">821 cm</text>
  <path id="arc_mr" fill="none" stroke="#000000" stroke-width="1.5" stroke-dasharray="5,5" d="M 450 335 Q 625.0 270 800 335" />
  <text id="label_mr" x="625" y="290" text-anchor="middle" fill="#000000" stroke="none" stroke-width="1" font-family="sans-serif" font-size="20">448 cm</text>
  <path id="arc_lm" fill="none" stroke="#000000" stroke-width="1.5" stroke-dasharray="5,5" d="M 100 365 Q 350.0 430 600 365" />
  <text id="label_lm" x="350" y="420" text-anchor="middle" fill="#000000" stroke="none" stroke-width="1" font-family="sans-serif" font-size="20">㉠</text>
  <path id="arc_m" fill="none" stroke="#000000" stroke-width="1.5" stroke-dasharray="5,5" d="M 450 365 Q 525.0 470 600 365" />
  <text id="label_m" x="525" y="460" text-anchor="middle" fill="#000000" stroke="none" stroke-width="1" font-family="sans-serif" font-size="20">㉡</text>
  <path id="arc_r" fill="none" stroke="#000000" stroke-width="1.5" stroke-dasharray="5,5" d="M 600 365 Q 700.0 430 800 365" />
  <text id="label_r" x="700" y="420" text-anchor="middle" fill="#000000" stroke="none" stroke-width="1" font-family="sans-serif" font-size="20">236 cm</text>
</svg>
