<?xml version="1.0" encoding="UTF-8"?>
<svg xmlns="http://www.w3.org/2000/svg" width="1400" height="939" viewBox="0 0 1400 939">
  <rect x="0" y="0" width="1400" height="939" fill="#FFFFFF" />
  <rect id="slot.diagram.frame.rect" x="40" y="200" width="752" height="699" fill="none" stroke="#D1D5DB" stroke-width="1" />
  <circle id="slot.pt.A.circle" cx="333.8" cy="875" r="3.8" stroke="#111111" stroke-width="1" fill="#111111" />
  <circle id="slot.pt.B.circle" cx="110.2" cy="224" r="3.8" stroke="#111111" stroke-width="1" fill="#111111" />
  <circle id="slot.pt.C.circle" cx="721.8" cy="750" r="3.8" stroke="#111111" stroke-width="1" fill="#111111" />
  <line id="slot.edge.1.line" x1="110.2" y1="224" x2="333.8" y2="875" stroke="#374151" stroke-width="2.2" />
  <line id="slot.edge.2.line" x1="333.8" y1="875" x2="721.8" y2="750" stroke="#374151" stroke-width="2.2" />
  <line id="slot.edge.3.line" x1="110.2" y1="224" x2="721.8" y2="750" stroke="#374151" stroke-width="2.2" />
  <line id="slot.arc.C.01.line" x1="705.1" y1="752.1" x2="704.5" y2="750.4" stroke="#7C3AED" stroke-width="2" />
  <line id="slot.arc.C.02.line" x1="704.5" y1="750.4" x2="704.1" y2="748.7" stroke="#7C3AED" stroke-width="2" />
  <line id="slot.arc.C.03.line" x1="704.1" y1="748.7" x2="704" y2="747" stroke="#7C3AED" stroke-width="2" />
  <line id="slot.arc.C.04.line" x1="704" y1="747" x2="704.1" y2="745.3" stroke="#7C3AED" stroke-width="2" />
  <line id="slot.arc.C.05.line" x1="704.1" y1="745.3" x2="704.5" y2="743.6" stroke="#7C3AED" stroke-width="2" />
  <line id="slot.arc.C.06.line" x1="704.5" y1="743.6" x2="705.1" y2="741.9" stroke="#7C3AED" stroke-width="2" />
  <line id="slot.arc.B.01.line" x1="129.4" y1="231.1" x2="127.9" y2="232.5" stroke="#7C3AED" stroke-width="2" />
  <line id="slot.arc.B.02.line" x1="127.9" y1="232.5" x2="126.2" y2="233.7" stroke="#7C3AED" stroke-width="2" />
  <line id="slot.arc.B.03.line" x1="126.2" y1="233.7" x2="124.3" y2="234.5" stroke="#7C3AED" stroke-width="2" />
  <line id="slot.arc.B.04.line" x1="124.3" y1="234.5" x2="122.3" y2="234.9" stroke="#7C3AED" stroke-width="2" />
  <line id="slot.arc.B.05.line" x1="122.3" y1="234.9" x2="120.2" y2="235" stroke="#7C3AED" stroke-width="2" />
  <line id="slot.arc.B.06.line" x1="120.2" y1="235" x2="118.2" y2="234.6" stroke="#7C3AED" stroke-width="2" />
  <text id="slot.q1.text" x="40" y="80" max_width="1272" fill="#111111" font-family="Noto Sans KR, sans-serif" font-size="48">Find y in triangle ABC.</text>
  <text id="slot.lb.A.text" x="339.8" y="869" max_width="1272" fill="#111111" font-family="Noto Sans KR, sans-serif" font-size="36">A</text>
  <text id="slot.lb.B.text" x="116.2" y="218" max_width="1272" fill="#111111" font-family="Noto Sans KR, sans-serif" font-size="36">B</text>
  <text id="slot.lb.C.text" x="727.8" y="744" max_width="1272" fill="#111111" font-family="Noto Sans KR, sans-serif" font-size="36">C</text>
  <text id="slot.len.AC.text" x="531.8" y="808.5" max_width="1272" fill="#111111" font-family="Noto Sans KR, sans-serif" font-size="36">21</text>
  <text id="slot.len.AB.text" x="226" y="545.5" max_width="1272" fill="#111111" font-family="Noto Sans KR, sans-serif" font-size="36">y</text>
  <text id="slot.len.BC.text" x="420" y="483" max_width="1272" fill="#111111" font-family="Noto Sans KR, sans-serif" font-size="36">x</text>
  <text id="slot.arc.C.lb.text" x="692.3" y="745.6" max_width="1272" fill="#111111" font-family="Noto Sans KR, sans-serif" font-size="36">60</text>
  <text id="slot.arc.B.lb.text" x="127.1" y="242.2" max_width="1272" fill="#111111" font-family="Noto Sans KR, sans-serif" font-size="36">30</text>
  <text id="slot.choice.1.text" x="860" y="320" max_width="1272" fill="#111111" font-family="Cambria Math" font-size="48">1. 21 / 2. 21 √2 /</text>
  <text id="slot.choice.2.text" x="860" y="384.8" max_width="1272" fill="#111111" font-family="Cambria Math" font-size="48">3. 21 √3 / 4.</text>
</svg>
