<?xml version="1.0" encoding="UTF-8"?>
<svg xmlns="http://www.w3.org/2000/svg" width="800" height="520" viewBox="0 0 800 520">
  <rect x="0" y="0" width="800" height="520" fill="#F6F6F6" />
  <text id="q1" data-semantic-role="instruction" fill="#222222" font-family="Malgun Gothic" font-size="30px" font-weight="normal" x="18.6" y="47.7" text-anchor="start">다음은 각기둥의 전개도입니다.</text>
  <text id="q2" data-semantic-role="instruction" fill="#222222" font-family="Malgun Gothic" font-size="30px" font-weight="normal" x="16.1" y="89.9" text-anchor="start">전개도를 접어서 만든 입체도형의 모서리는 모두 몇 개인가요?</text>
  <rect id="strip_rect" data-semantic-role="net" stroke="#333333" stroke-width="2" fill="#CFCFCF" font-family="Malgun Gothic" font-weight="normal" x="250" y="210" width="300" height="130" />
  <line id="fold_1" data-semantic-role="fold_line" stroke="#333333" stroke-width="1" font-family="Malgun Gothic" font-weight="normal" x1="300" y1="210" x2="300" y2="340" />
  <line id="fold_2" data-semantic-role="fold_line" stroke="#333333" stroke-width="1" font-family="Malgun Gothic" font-weight="normal" x1="350" y1="210" x2="350" y2="340" />
  <line id="fold_3" data-semantic-role="fold_line" stroke="#333333" stroke-width="1" font-family="Malgun Gothic" font-weight="normal" x1="400" y1="210" x2="400" y2="340" />
  <line id="fold_4" data-semantic-role="fold_line" stroke="#333333" stroke-width="1" font-family="Malgun Gothic" font-weight="normal" x1="450" y1="210" x2="450" y2="340" />
  <line id="fold_5" data-semantic-role="fold_line" stroke="#333333" stroke-width="1" font-family="Malgun Gothic" font-weight="normal" x1="500" y1="210" x2="500" y2="340" />
  <polygon id="top_hex" data-semantic-role="net" stroke="#333333" stroke-width="2" fill="#CFCFCF" font-family="Malgun Gothic" font-weight="normal" points="350.466,209.104 320.48,160.912 350.466,112.72 399.534,112.72 429.52,160.912 399.534,209.104" />
  <polygon id="bot_hex" data-semantic-role="net" stroke="#333333" stroke-width="2" fill="#CFCFCF" font-family="Malgun Gothic" font-weight="normal" points="350.788,437.28000000000003 320.802,389.088 350.788,340.896 399.856,340.896 429.842,389.088 399.856,437.28000000000003" />
  <text id="answer_label" x="24" y="500" text-anchor="start" dominant-baseline="auto" fill="#D32222" font-family="Malgun Gothic" font-size="42px" font-weight="700">정답: 18</text>
</svg>
