<?xml version="1.0" encoding="UTF-8"?>
<svg xmlns="http://www.w3.org/2000/svg" width="411" height="279" viewBox="0 0 411 279">
  <rect x="0" y="0" width="411" height="279" fill="#F6F6F6" />
  <rect id="bg" data-semantic-role="background" stroke="none" stroke-width="0" fill="#F4F4F4" font-family="Malgun Gothic" font-weight="normal" x="0" y="0" width="411" height="279" />
  <text id="instruction_1" data-semantic-role="instruction" fill="#222222" font-family="Malgun Gothic" font-size="17px" font-weight="normal" x="10" y="33" text-anchor="start">직각이 가장 많은 도형과 가장 적은 도형을</text>
  <text id="instruction_2" data-semantic-role="instruction" fill="#222222" font-family="Malgun Gothic" font-size="17px" font-weight="normal" x="10" y="65" text-anchor="start">찾아 차례로 기호를 쓰세요.</text>
  <rect id="problem_frame" data-semantic-role="guide" stroke="#7A7A7A" stroke-width="1.3" fill="none" font-family="Malgun Gothic" font-weight="normal" x="10" y="74" width="391" height="194" rx="10" ry="10" />
  <circle id="label_circle_ㄱ" data-semantic-role="label_marker" stroke="#666666" stroke-width="1.6" fill="none" font-family="Malgun Gothic" font-weight="normal" cx="35" cy="101" r="8" />
  <text id="label_text_ㄱ" data-semantic-role="label" fill="#555555" font-family="Malgun Gothic" font-size="14px" font-weight="normal" x="35" y="106" text-anchor="middle">ㄱ</text>
  <circle id="label_circle_ㄴ" data-semantic-role="label_marker" stroke="#666666" stroke-width="1.6" fill="none" font-family="Malgun Gothic" font-weight="normal" cx="214" cy="100" r="8" />
  <text id="label_text_ㄴ" data-semantic-role="label" fill="#555555" font-family="Malgun Gothic" font-size="14px" font-weight="normal" x="214" y="105" text-anchor="middle">ㄴ</text>
  <circle id="label_circle_ㄷ" data-semantic-role="label_marker" stroke="#666666" stroke-width="1.6" fill="none" font-family="Malgun Gothic" font-weight="normal" cx="35" cy="199" r="8" />
  <text id="label_text_ㄷ" data-semantic-role="label" fill="#555555" font-family="Malgun Gothic" font-size="14px" font-weight="normal" x="35" y="204" text-anchor="middle">ㄷ</text>
  <circle id="label_circle_ㄹ" data-semantic-role="label_marker" stroke="#666666" stroke-width="1.6" fill="none" font-family="Malgun Gothic" font-weight="normal" cx="214" cy="199" r="8" />
  <text id="label_text_ㄹ" data-semantic-role="label" fill="#555555" font-family="Malgun Gothic" font-size="14px" font-weight="normal" x="214" y="204" text-anchor="middle">ㄹ</text>
  <polygon id="shape_giyeok" data-semantic-role="shape" stroke="#2F2F2F" stroke-width="2.2" fill="none" font-family="Malgun Gothic" font-weight="normal" points="92,92 133,133 92,174 51,133" />
  <polygon id="shape_nieun" data-semantic-role="shape" stroke="#2F2F2F" stroke-width="2.2" fill="none" font-family="Malgun Gothic" font-weight="normal" points="230,90 230,90 235.1668472091813,90.16914506415033 240.3115691853841,90.67585595146898 245.41213543927415,91.51796284814479 250.44670456309913,92.6918597231636 255.39371775894975,94.19251976988664 260.23199115684207,96.01351693160835 264.9408065273011,98.14705341891762 269.5,100.58399310102935 273.8900484085486,103.31390062809892 278.09215289168895,106.32508611699242 282.0883193929054,109.6046552091608 285.86143571373725,113.13856428626275 289.3953447908392,116.91168060709455 292.67491388300755,120.90784710831107 295.6860993719011,125.10995159145142 298.41600689897064,129.5 300.8529465810824,134.0591934726989 302.98648306839164,138.7680088431579 304.80748023011336,143.60628224105022 306.3081402768364,148.55329543690087 307.4820371518552,153.58786456072588 308.324144048531,158.6884308146159 308.8308549358497,163.8331527908187 309,169 230,169" />
  <polygon id="shape_digeut" data-semantic-role="shape" stroke="#2F2F2F" stroke-width="2.2" fill="none" font-family="Malgun Gothic" font-weight="normal" points="52,251 88,191 148,191 149,250" />
  <polygon id="shape_rieul" data-semantic-role="shape" stroke="#2F2F2F" stroke-width="2.2" fill="none" font-family="Malgun Gothic" font-weight="normal" points="232,251 232,214 274,191 318,191 318,251" />
  <rect id="answer_most" data-semantic-role="answer_anchor" stroke="none" stroke-width="0" fill="none" font-family="Malgun Gothic" font-weight="normal" x="342" y="16" width="24" height="24" />
  <rect id="answer_least" data-semantic-role="answer_anchor" stroke="none" stroke-width="0" fill="none" font-family="Malgun Gothic" font-weight="normal" x="374" y="16" width="24" height="24" />
</svg>
