<?xml version="1.0" encoding="UTF-8"?>
<svg xmlns="http://www.w3.org/2000/svg" width="939" height="593" viewBox="0 0 939 593">
  <metadata><problem_id>S3_초등_3_008684</problem_id></metadata>
  <rect x="0" y="0" width="939" height="593" fill="#FFFFFF" />
  <text id="slot.stem.text" x="10" y="45" fill="#111111" font-family="Noto Sans KR, sans-serif" font-size="30">누름 못과 띠 종이를 이용하여 원을 그렸습니다. 그림을 보고 알맞은 말을 선택하세요.    </text>
  <rect id="slot.left.frame.rect" x="115" y="130" width="225" height="215" fill="#ffffff" stroke="#111111" stroke-width="1.5" />
  <circle id="slot.left.circle.circle" cx="230" cy="235" r="105" stroke="#111111" stroke-width="2" fill="none" />
  <path id="slot.left.arrow.1.path" d="M 170 285 C 90 220 45 240 25 335" stroke="#111111" stroke-width="2" fill="none" transform="rotate(-35 125 300.43)" />
  <circle id="slot.left.dot.1.circle" cx="264" cy="213" r="4" stroke="#111111" stroke-width="2" fill="#6BB7FF" />
  <circle id="slot.left.dot.2.circle" cx="297" cy="188" r="4" stroke="#111111" stroke-width="2" fill="#6BB7FF" />
  <circle id="slot.left.dot.3.circle" cx="328" cy="171" r="4" stroke="#111111" stroke-width="2" fill="#6BB7FF" />
  <circle id="slot.left.dot.4.circle" cx="357" cy="150" r="4" stroke="#111111" stroke-width="2" fill="#6BB7FF" />
  <text id="slot.left.text.text" x="45" y="420" fill="#111111" font-family="Noto Sans KR, sans-serif" font-size="30">① 한쪽 구멍에 누름 못을 꽂아 띠 종이를 고정해요.</text>
  <rect id="slot.right.frame.rect" x="626" y="121" width="227" height="214" fill="#ffffff" stroke="#111111" stroke-width="1.5" />
  <circle id="slot.right.circle.circle" cx="739" cy="229" r="108" stroke="#111111" stroke-width="2" fill="none" />
  <line id="slot.right.dash.v.line" x1="739" y1="121" x2="739" y2="335" stroke="#111111" stroke-width="2" stroke-dasharray="5 3" />
  <line id="slot.right.dash.h.line" x1="626" y1="229" x2="853" y2="229" stroke="#111111" stroke-width="2" stroke-dasharray="5 3" />
  <circle id="slot.right.center.circle" cx="739" cy="229" r="5" stroke="#111111" stroke-width="2" fill="#B0B0B0" />
  <circle id="slot.right.dot.top.circle" cx="739" cy="121" r="4" stroke="#111111" stroke-width="2" fill="#222222" />
  <circle id="slot.right.dot.bottom.circle" cx="739" cy="335" r="4" stroke="#111111" stroke-width="2" fill="#222222" />
  <circle id="slot.right.dot.left.circle" cx="626" cy="229" r="4" stroke="#111111" stroke-width="2" fill="#222222" />
  <circle id="slot.right.dot.right.circle" cx="853" cy="229" r="4" stroke="#111111" stroke-width="2" fill="#222222" />
  <circle id="slot.right.center.copy4.circle" cx="229" cy="234" r="8" stroke="#111111" stroke-width="2" fill="#B0B0B0" />
  <text id="slot.right.text.text" x="375" y="375" fill="#111111" font-family="Noto Sans KR, sans-serif" font-size="30">② 다른 구멍에 연필을 꽂고 한 바퀴 돌려    원을 그려요.  </text>
  <rect id="slot.choice.frame.rect" x="25" y="500" width="830" height="85" fill="#ffffff" stroke="#111111" stroke-width="1.5" />
  <text id="slot.choice.text.text" x="45" y="505" fill="#111111" font-family="Noto Sans KR, sans-serif" font-size="30" data-raw-text="
    
    누름 못이 꽂힌 점에서 원 위에 찍은 4개의 점까지의 길이는
    모두 ( 같습니다, 다릅니다 ).
  ">
    <tspan x="45" dy="0"></tspan>
    <tspan x="45" dy="1.2em">    </tspan>
    <tspan x="45" dy="1.2em">    누름 못이 꽂힌 점에서 원 위에 찍은 4개의 점까지의 길이는</tspan>
    <tspan x="45" dy="1.2em">    모두 ( 같습니다, 다릅니다 ).</tspan>
    <tspan x="45" dy="1.2em">  </tspan>
  </text>
  <rect id="slot.inserted.rect.2.rect" x="200" y="200" width="215" height="30" fill="#bfdbfe" stroke="#111827" stroke-width="1.5" transform="rotate(-35 260 215)" />
  <rect id="slot.inserted.rect.1.rect" x="445" y="65" width="15" height="90" fill="#ffffff" stroke="#111827" stroke-width="1.5" />
  <rect id="slot.inserted.rect.3.rect" x="410" y="255" width="20" height="15" fill="#ffffff" stroke="#111827" stroke-width="1.5" />
  <polygon id="slot.inserted.triangle.1.polygon" points="180,335 190,350 170,350" stroke="#111827" stroke-width="1.5" fill="#ffffff" transform="rotate(180 130 310)" />
</svg>
