<?xml version="1.0" encoding="UTF-8"?>
<svg xmlns="http://www.w3.org/2000/svg" width="840" height="648" viewBox="0 0 840 648">
  <metadata><problem_id>S3_초등_3_008728</problem_id></metadata>
  <rect x="0" y="0" width="840" height="648" fill="#FFFFFF" />
  <text id="slot.header.text.text" x="26" y="28" fill="#111111" font-family="Noto Sans KR, sans-serif" font-size="28">그림을 보고 바르게 말한 사람을 선택해 보세요.</text>
  <rect id="slot.cars.outer.rect" x="45" y="410" width="745" height="205" fill="#ffffff" stroke="#111111" stroke-width="1.5" rx="14" ry="14" />
  <rect id="slot.cars.group1.rect" x="625" y="65" width="170" height="45" fill="#ffffff" stroke="#dc2626" stroke-width="1.5" rx="6" ry="6" />
  <rect id="slot.cars.group2.rect" x="111" y="203" width="165" height="42" fill="#ffffff" stroke="#dc2626" stroke-width="1.5" rx="6" ry="6" />
  <rect id="slot.cars.group3.rect" x="558" y="193" width="165" height="42" fill="#ffffff" stroke="#dc2626" stroke-width="1.5" rx="6" ry="6" />
  <rect id="slot.cars.group4.rect" x="60" y="65" width="175" height="45" fill="#ffffff" stroke="#dc2626" stroke-width="1.5" rx="6" ry="6" />
  <rect id="slot.cars.group5.rect" x="67.33689880371094" y="271.1443786621094" width="163" height="42" fill="#ffffff" stroke="#dc2626" stroke-width="1.5" rx="6" ry="6" />
  <rect id="slot.cars.group6.rect" x="56" y="133" width="163" height="42" fill="#ffffff" stroke="#dc2626" stroke-width="1.5" rx="6" ry="6" />
  <rect id="slot.cars.group7.rect" x="343.71514892578125" y="205.5775146484375" width="163" height="42" fill="#ffffff" stroke="#dc2626" stroke-width="1.5" rx="6" ry="6" />
  <rect id="slot.speech.left.rect" x="90" y="460" width="330" height="155" fill="#ffffff" stroke="#111111" stroke-width="1.5" rx="72" ry="72" />
  <polygon id="slot.person.left.body.polygon" points="228,600 284,600 274,564 238,564" stroke="none" stroke-width="2" fill="#F06AA0" />
  <circle id="slot.person.left.head.circle" cx="256" cy="527" r="28" stroke="none" stroke-width="2" fill="#ffd9ad" />
  <path id="slot.person.left.hair.cap.path" d="M 228 526 C 230 497 281 492 285 526 C 266 510 244 517 228 526 Z" stroke="none" stroke-width="2" fill="#8A3F32" />
  <path id="slot.person.left.smile.path" d="M 249 543 Q 256 549 263 543" stroke="#b86e39" stroke-width="1.3" fill="none" />
  <polygon id="slot.person.left.bow.left.polygon" points="249,570 230,562 242,583" stroke="none" stroke-width="2" fill="#D487D8" />
  <polygon id="slot.person.left.bow.right.polygon" points="263,570 282,562 270,583" stroke="none" stroke-width="2" fill="#D487D8" />
  <circle id="slot.person.left.eye.left.circle" cx="246" cy="531" r="2.3" stroke="none" stroke-width="2" fill="#2b2118" />
  <circle id="slot.person.left.eye.right.circle" cx="266" cy="531" r="2.3" stroke="none" stroke-width="2" fill="#2b2118" />
  <text id="slot.speech.left.text1.text" x="204" y="377" fill="#111111" font-family="Noto Sans KR, sans-serif" font-size="28">색칠한 부분은</text>
  <text id="slot.speech.left.text2.text" x="43" y="424" fill="#111111" font-family="Noto Sans KR, sans-serif" font-size="28">7묶음 중에서 3묶음이므로</text>
  <text id="slot.speech.left.text3.text" x="96" y="471" fill="#111111" font-family="Noto Sans KR, sans-serif" font-size="28">전체의 3/7이야.</text>
  <rect id="slot.speech.right.rect" x="390" y="355" width="350" height="155" fill="#ffffff" stroke="#111111" stroke-width="1.5" rx="72" ry="72" />
  <polygon id="slot.person.right.body.polygon" points="588,600 644,600 634,564 598,564" stroke="none" stroke-width="2" fill="#F7B51E" />
  <circle id="slot.person.right.head.circle" cx="616" cy="527" r="28" stroke="none" stroke-width="2" fill="#ffd9ad" />
  <path id="slot.person.right.hair.cap.path" d="M 588 526 C 590 497 641 492 645 526 C 626 510 604 517 588 526 Z" stroke="none" stroke-width="2" fill="#C77A22" />
  <path id="slot.person.right.smile.path" d="M 609 543 Q 616 549 623 543" stroke="#b86e39" stroke-width="1.3" fill="none" />
  <path id="slot.person.right.tail.left.path" d="M 589 524 C 564 528 578 569 566 575" stroke="#C77A22" stroke-width="7" fill="none" />
  <path id="slot.person.right.tail.right.path" d="M 643 524 C 668 528 654 569 666 575" stroke="#C77A22" stroke-width="7" fill="none" />
  <polygon id="slot.person.right.bow.left.polygon" points="609,570 590,562 602,583" stroke="none" stroke-width="2" fill="#E7A2C2" />
  <polygon id="slot.person.right.bow.right.polygon" points="623,570 642,562 630,583" stroke="none" stroke-width="2" fill="#E7A2C2" />
  <circle id="slot.person.right.eye.left.circle" cx="606" cy="531" r="2.3" stroke="none" stroke-width="2" fill="#2b2118" />
  <circle id="slot.person.right.eye.right.circle" cx="626" cy="531" r="2.3" stroke="none" stroke-width="2" fill="#2b2118" />
  <text id="slot.speech.right.text1.text" x="496" y="392" fill="#111111" font-family="Noto Sans KR, sans-serif" font-size="28">색칠하지 않은 부분은</text>
  <text id="slot.speech.right.text2.text" x="479" y="429" fill="#111111" font-family="Noto Sans KR, sans-serif" font-size="28">7묶음 중에서 4묶음이므로</text>
  <text id="slot.speech.right.text3.text" x="547" y="471" fill="#111111" font-family="Noto Sans KR, sans-serif" font-size="28">전체의 4/7이야.</text>
  <path id="slot.inserted.car.1.body.path" d="M 70 90 Q 70 80 80 80 L 90 70 L 115 70 L 125 80 L 135 80 Q 140 85 145 95 L 140 100 L 70 100 Q 70 95 70 90 Z" stroke="#3E9B6D" stroke-width="2" fill="#69BD58" />
  <path id="slot.inserted.car.1.roof.path" d="M 85 80 L 95 70 L 110 70 L 120 80 Z" stroke="#2D9A7A" stroke-width="1.5" fill="#A7E3D3" />
  <polygon id="slot.inserted.car.1.window.left.polygon" points="90,80 95,75 100,75 100,80" stroke="#2D9A7A" stroke-width="1" fill="#E8FFF8" />
  <polygon id="slot.inserted.car.1.window.right.polygon" points="105,75 110,75 115,80 105,80" stroke="#2D9A7A" stroke-width="1" fill="#E8FFF8" />
  <path id="slot.inserted.car.1.body.copy1.path" d="M 155 90 Q 155 80 165 80 L 175 70 L 200 70 L 210 80 L 220 80 Q 225 85 230 95 L 225 100 L 155 100 Q 155 95 155 90 Z" stroke="#3E9B6D" stroke-width="2" fill="#69BD58" />
  <path id="slot.inserted.car.1.roof.copy1.path" d="M 170 80 L 180 70 L 195 70 L 205 80 Z" stroke="#2D9A7A" stroke-width="1.5" fill="#A7E3D3" />
  <polygon id="slot.inserted.car.1.window.left.copy1.polygon" points="175,80 180,75 185,75 185,80" stroke="#2D9A7A" stroke-width="1" fill="#E8FFF8" />
  <polygon id="slot.inserted.car.1.window.right.copy1.polygon" points="190,75 195,75 200,80 190,80" stroke="#2D9A7A" stroke-width="1" fill="#E8FFF8" />
  <path id="slot.inserted.car.1.body.copy2.path" d="M 245 90 Q 245 80 255 80 L 265 70 L 290 70 L 300 80 L 310 80 Q 315 85 320 95 L 315 100 L 245 100 Q 245 95 245 90 Z" stroke="#3E9B6D" stroke-width="2" fill="#69BD58" />
  <path id="slot.inserted.car.1.roof.copy2.path" d="M 260 80 L 270 70 L 285 70 L 295 80 Z" stroke="#2D9A7A" stroke-width="1.5" fill="#A7E3D3" />
  <polygon id="slot.inserted.car.1.window.left.copy2.polygon" points="265,80 270,75 275,75 275,80" stroke="#2D9A7A" stroke-width="1" fill="#E8FFF8" />
  <polygon id="slot.inserted.car.1.window.right.copy2.polygon" points="280,75 285,75 290,80 280,80" stroke="#2D9A7A" stroke-width="1" fill="#E8FFF8" />
  <path id="slot.inserted.car.1.body.copy4.path" d="M 350 89 Q 350 79 360 79 L 370 69 L 395 69 L 405 79 L 415 79 Q 420 84 425 94 L 420 99 L 350 99 Q 350 94 350 89 Z" stroke="#3E9B6D" stroke-width="2" fill="#69BD58" />
  <path id="slot.inserted.car.1.roof.copy4.path" d="M 365 79 L 375 69 L 390 69 L 400 79 Z" stroke="#2D9A7A" stroke-width="1.5" fill="#A7E3D3" />
  <polygon id="slot.inserted.car.1.window.left.copy4.polygon" points="370,79 375,74 380,74 380,79" stroke="#2D9A7A" stroke-width="1" fill="#E8FFF8" />
  <polygon id="slot.inserted.car.1.window.right.copy4.polygon" points="385,74 390,74 395,79 385,79" stroke="#2D9A7A" stroke-width="1" fill="#E8FFF8" />
  <path id="slot.inserted.car.1.body.copy1.copy4.path" d="M 435 89 Q 435 79 445 79 L 455 69 L 480 69 L 490 79 L 500 79 Q 505 84 510 94 L 505 99 L 435 99 Q 435 94 435 89 Z" stroke="#3E9B6D" stroke-width="2" fill="#69BD58" />
  <path id="slot.inserted.car.1.roof.copy1.copy4.path" d="M 450 79 L 460 69 L 475 69 L 485 79 Z" stroke="#2D9A7A" stroke-width="1.5" fill="#A7E3D3" />
  <polygon id="slot.inserted.car.1.window.left.copy1.copy4.polygon" points="455,79 460,74 465,74 465,79" stroke="#2D9A7A" stroke-width="1" fill="#E8FFF8" />
  <polygon id="slot.inserted.car.1.window.right.copy1.copy4.polygon" points="470,74 475,74 480,79 470,79" stroke="#2D9A7A" stroke-width="1" fill="#E8FFF8" />
  <path id="slot.inserted.car.1.body.copy2.copy4.path" d="M 525 89 Q 525 79 535 79 L 545 69 L 570 69 L 580 79 L 590 79 Q 595 84 600 94 L 595 99 L 525 99 Q 525 94 525 89 Z" stroke="#3E9B6D" stroke-width="2" fill="#69BD58" />
  <path id="slot.inserted.car.1.roof.copy2.copy4.path" d="M 540 79 L 550 69 L 565 69 L 575 79 Z" stroke="#2D9A7A" stroke-width="1.5" fill="#A7E3D3" />
  <polygon id="slot.inserted.car.1.window.left.copy2.copy4.polygon" points="545,79 550,74 555,74 555,79" stroke="#2D9A7A" stroke-width="1" fill="#E8FFF8" />
  <polygon id="slot.inserted.car.1.window.right.copy2.copy4.polygon" points="560,74 565,74 570,79 560,79" stroke="#2D9A7A" stroke-width="1" fill="#E8FFF8" />
  <path id="slot.inserted.car.1.body.copy2.copy4.copy5.path" d="M 148 170 Q 148 160 158 160 L 168 150 L 193 150 L 203 160 L 213 160 Q 218 165 223 175 L 218 180 L 148 180 Q 148 175 148 170 Z" stroke="#3E9B6D" stroke-width="2" fill="#ffffff" />
  <path id="slot.inserted.car.1.roof.copy2.copy4.copy5.path" d="M 163 160 L 173 150 L 188 150 L 198 160 Z" stroke="#2D9A7A" stroke-width="1.5" fill="#A7E3D3" />
  <polygon id="slot.inserted.car.1.window.left.copy2.copy4.copy5.polygon" points="168,160 173,155 178,155 178,160" stroke="#2D9A7A" stroke-width="1" fill="#E8FFF8" />
  <polygon id="slot.inserted.car.1.window.right.copy2.copy4.copy5.polygon" points="183,155 188,155 193,160 183,160" stroke="#2D9A7A" stroke-width="1" fill="#E8FFF8" />
  <path id="slot.inserted.car.1.body.copy2.copy4.copy5.copy7.path" d="M 238 170 Q 238 160 248 160 L 258 150 L 283 150 L 293 160 L 303 160 Q 308 165 313 175 L 308 180 L 238 180 Q 238 175 238 170 Z" stroke="#3E9B6D" stroke-width="2" fill="#ffffff" />
  <path id="slot.inserted.car.1.roof.copy2.copy4.copy5.copy7.path" d="M 253 160 L 263 150 L 278 150 L 288 160 Z" stroke="#2D9A7A" stroke-width="1.5" fill="#A7E3D3" />
  <polygon id="slot.inserted.car.1.window.left.copy2.copy4.copy5.copy7.polygon" points="258,160 263,155 268,155 268,160" stroke="#2D9A7A" stroke-width="1" fill="#E8FFF8" />
  <polygon id="slot.inserted.car.1.window.right.copy2.copy4.copy5.copy7.polygon" points="273,155 278,155 283,160 273,160" stroke="#2D9A7A" stroke-width="1" fill="#E8FFF8" />
  <path id="slot.inserted.car.1.body.copy2.copy4.copy5.copy8.path" d="M 350 170 Q 350 160 360 160 L 370 150 L 395 150 L 405 160 L 415 160 Q 420 165 425 175 L 420 180 L 350 180 Q 350 175 350 170 Z" stroke="#3E9B6D" stroke-width="2" fill="#ffffff" />
  <path id="slot.inserted.car.1.roof.copy2.copy4.copy5.copy8.path" d="M 365 160 L 375 150 L 390 150 L 400 160 Z" stroke="#2D9A7A" stroke-width="1.5" fill="#A7E3D3" />
  <polygon id="slot.inserted.car.1.window.left.copy2.copy4.copy5.copy8.polygon" points="370,160 375,155 380,155 380,160" stroke="#2D9A7A" stroke-width="1" fill="#E8FFF8" />
  <polygon id="slot.inserted.car.1.window.right.copy2.copy4.copy5.copy8.polygon" points="385,155 390,155 395,160 385,160" stroke="#2D9A7A" stroke-width="1" fill="#E8FFF8" />
  <path id="slot.inserted.car.1.body.copy2.copy4.copy5.copy7.copy8.path" d="M 440 170 Q 440 160 450 160 L 460 150 L 485 150 L 495 160 L 505 160 Q 510 165 515 175 L 510 180 L 440 180 Q 440 175 440 170 Z" stroke="#3E9B6D" stroke-width="2" fill="#ffffff" />
  <path id="slot.inserted.car.1.roof.copy2.copy4.copy5.copy7.copy8.path" d="M 455 160 L 465 150 L 480 150 L 490 160 Z" stroke="#2D9A7A" stroke-width="1.5" fill="#A7E3D3" />
  <polygon id="slot.inserted.car.1.window.left.copy2.copy4.copy5.copy7.copy8.polygon" points="460,160 465,155 470,155 470,160" stroke="#2D9A7A" stroke-width="1" fill="#E8FFF8" />
  <polygon id="slot.inserted.car.1.window.right.copy2.copy4.copy5.copy7.copy8.polygon" points="475,155 480,155 485,160 475,160" stroke="#2D9A7A" stroke-width="1" fill="#E8FFF8" />
  <path id="slot.inserted.car.1.body.copy2.copy4.copy5.copy9.path" d="M 300 305 Q 300 295 310 295 L 320 285 L 345 285 L 355 295 L 365 295 Q 370 300 375 310 L 370 315 L 300 315 Q 300 310 300 305 Z" stroke="#3E9B6D" stroke-width="2" fill="#ffffff" />
  <path id="slot.inserted.car.1.roof.copy2.copy4.copy5.copy9.path" d="M 315 295 L 325 285 L 340 285 L 350 295 Z" stroke="#2D9A7A" stroke-width="1.5" fill="#A7E3D3" />
  <polygon id="slot.inserted.car.1.window.left.copy2.copy4.copy5.copy9.polygon" points="320,295 325,290 330,290 330,295" stroke="#2D9A7A" stroke-width="1" fill="#E8FFF8" />
  <polygon id="slot.inserted.car.1.window.right.copy2.copy4.copy5.copy9.polygon" points="335,290 340,290 345,295 335,295" stroke="#2D9A7A" stroke-width="1" fill="#E8FFF8" />
  <path id="slot.inserted.car.1.body.copy2.copy4.copy5.copy7.copy9.path" d="M 390 305 Q 390 295 400 295 L 410 285 L 435 285 L 445 295 L 455 295 Q 460 300 465 310 L 460 315 L 390 315 Q 390 310 390 305 Z" stroke="#3E9B6D" stroke-width="2" fill="#ffffff" />
  <path id="slot.inserted.car.1.roof.copy2.copy4.copy5.copy7.copy9.path" d="M 405 295 L 415 285 L 430 285 L 440 295 Z" stroke="#2D9A7A" stroke-width="1.5" fill="#A7E3D3" />
  <polygon id="slot.inserted.car.1.window.left.copy2.copy4.copy5.copy7.copy9.polygon" points="410,295 415,290 420,290 420,295" stroke="#2D9A7A" stroke-width="1" fill="#E8FFF8" />
  <polygon id="slot.inserted.car.1.window.right.copy2.copy4.copy5.copy7.copy9.polygon" points="425,290 430,290 435,295 425,295" stroke="#2D9A7A" stroke-width="1" fill="#E8FFF8" />
  <path id="slot.inserted.car.1.body.copy2.copy4.copy5.copy8.copy9.path" d="M 485 305 Q 485 295 495 295 L 505 285 L 530 285 L 540 295 L 550 295 Q 555 300 560 310 L 555 315 L 485 315 Q 485 310 485 305 Z" stroke="#3E9B6D" stroke-width="2" fill="#ffffff" />
  <path id="slot.inserted.car.1.roof.copy2.copy4.copy5.copy8.copy9.path" d="M 500 295 L 510 285 L 525 285 L 535 295 Z" stroke="#2D9A7A" stroke-width="1.5" fill="#A7E3D3" />
  <polygon id="slot.inserted.car.1.window.left.copy2.copy4.copy5.copy8.copy9.polygon" points="505,295 510,290 515,290 515,295" stroke="#2D9A7A" stroke-width="1" fill="#E8FFF8" />
  <polygon id="slot.inserted.car.1.window.right.copy2.copy4.copy5.copy8.copy9.polygon" points="520,290 525,290 530,295 520,295" stroke="#2D9A7A" stroke-width="1" fill="#E8FFF8" />
  <path id="slot.inserted.car.1.body.copy2.copy4.copy5.copy7.copy8.copy9.path" d="M 575 305 Q 575 295 585 295 L 595 285 L 620 285 L 630 295 L 640 295 Q 645 300 650 310 L 645 315 L 575 315 Q 575 310 575 305 Z" stroke="#3E9B6D" stroke-width="2" fill="#ffffff" />
  <path id="slot.inserted.car.1.roof.copy2.copy4.copy5.copy7.copy8.copy9.path" d="M 590 295 L 600 285 L 615 285 L 625 295 Z" stroke="#2D9A7A" stroke-width="1.5" fill="#A7E3D3" />
  <polygon id="slot.inserted.car.1.window.left.copy2.copy4.copy5.copy7.copy8.copy9.polygon" points="595,295 600,290 605,290 605,295" stroke="#2D9A7A" stroke-width="1" fill="#E8FFF8" />
  <polygon id="slot.inserted.car.1.window.right.copy2.copy4.copy5.copy7.copy8.copy9.polygon" points="610,290 615,290 620,295 610,295" stroke="#2D9A7A" stroke-width="1" fill="#E8FFF8" />
  <circle id="slot.inserted.car.1.wheel.left.circle" cx="85" cy="100" r="5" stroke="#1F2937" stroke-width="1.5" fill="#4B5563" />
  <circle id="slot.inserted.car.1.wheel.right.circle" cx="125" cy="100" r="5" stroke="#1F2937" stroke-width="1.5" fill="#4B5563" />
  <circle id="slot.inserted.car.1.hub.left.circle" cx="85" cy="100" r="5" stroke="none" stroke-width="2" fill="#D1D5DB" />
  <circle id="slot.inserted.car.1.hub.right.circle" cx="125" cy="100" r="5" stroke="none" stroke-width="2" fill="#D1D5DB" />
  <circle id="slot.inserted.car.1.wheel.left.copy1.circle" cx="170" cy="100" r="5" stroke="#1F2937" stroke-width="1.5" fill="#4B5563" />
  <circle id="slot.inserted.car.1.wheel.right.copy1.circle" cx="210" cy="100" r="5" stroke="#1F2937" stroke-width="1.5" fill="#4B5563" />
  <circle id="slot.inserted.car.1.hub.left.copy1.circle" cx="170" cy="100" r="5" stroke="#111111" stroke-width="2" fill="#D1D5DB" />
  <circle id="slot.inserted.car.1.hub.right.copy1.circle" cx="210" cy="100" r="5" stroke="#111111" stroke-width="2" fill="#D1D5DB" />
  <circle id="slot.inserted.car.1.wheel.left.copy2.circle" cx="260" cy="100" r="5" stroke="#1F2937" stroke-width="1.5" fill="#4B5563" />
  <circle id="slot.inserted.car.1.wheel.right.copy2.circle" cx="300" cy="100" r="5" stroke="#1F2937" stroke-width="1.5" fill="#4B5563" />
  <circle id="slot.inserted.car.1.hub.left.copy2.circle" cx="260" cy="100" r="5" stroke="#111111" stroke-width="2" fill="#D1D5DB" />
  <circle id="slot.inserted.car.1.hub.right.copy2.circle" cx="300" cy="100" r="5" stroke="#111111" stroke-width="2" fill="#D1D5DB" />
  <circle id="slot.inserted.car.1.wheel.left.copy4.circle" cx="365" cy="99" r="5" stroke="#1F2937" stroke-width="1.5" fill="#4B5563" />
  <circle id="slot.inserted.car.1.wheel.right.copy4.circle" cx="405" cy="99" r="5" stroke="#1F2937" stroke-width="1.5" fill="#4B5563" />
  <circle id="slot.inserted.car.1.hub.left.copy4.circle" cx="365" cy="99" r="5" stroke="#111111" stroke-width="2" fill="#D1D5DB" />
  <circle id="slot.inserted.car.1.hub.right.copy4.circle" cx="405" cy="99" r="5" stroke="#111111" stroke-width="2" fill="#D1D5DB" />
  <circle id="slot.inserted.car.1.wheel.left.copy1.copy4.circle" cx="450" cy="99" r="5" stroke="#1F2937" stroke-width="1.5" fill="#4B5563" />
  <circle id="slot.inserted.car.1.wheel.right.copy1.copy4.circle" cx="490" cy="99" r="5" stroke="#1F2937" stroke-width="1.5" fill="#4B5563" />
  <circle id="slot.inserted.car.1.hub.left.copy1.copy4.circle" cx="450" cy="99" r="5" stroke="#111111" stroke-width="2" fill="#D1D5DB" />
  <circle id="slot.inserted.car.1.hub.right.copy1.copy4.circle" cx="490" cy="99" r="5" stroke="#111111" stroke-width="2" fill="#D1D5DB" />
  <circle id="slot.inserted.car.1.wheel.left.copy2.copy4.circle" cx="540" cy="99" r="5" stroke="#1F2937" stroke-width="1.5" fill="#4B5563" />
  <circle id="slot.inserted.car.1.wheel.right.copy2.copy4.circle" cx="580" cy="99" r="5" stroke="#1F2937" stroke-width="1.5" fill="#4B5563" />
  <circle id="slot.inserted.car.1.hub.left.copy2.copy4.circle" cx="540" cy="99" r="5" stroke="#111111" stroke-width="2" fill="#D1D5DB" />
  <circle id="slot.inserted.car.1.hub.right.copy2.copy4.circle" cx="580" cy="99" r="5" stroke="#111111" stroke-width="2" fill="#D1D5DB" />
  <circle id="slot.inserted.car.1.wheel.left.copy2.copy4.copy5.circle" cx="163" cy="180" r="5" stroke="#1F2937" stroke-width="1.5" fill="#4B5563" />
  <circle id="slot.inserted.car.1.wheel.right.copy2.copy4.copy5.circle" cx="203" cy="180" r="5" stroke="#1F2937" stroke-width="1.5" fill="#4B5563" />
  <circle id="slot.inserted.car.1.hub.left.copy2.copy4.copy5.circle" cx="163" cy="180" r="5" stroke="#111111" stroke-width="2" fill="#D1D5DB" />
  <circle id="slot.inserted.car.1.hub.right.copy2.copy4.copy5.circle" cx="203" cy="180" r="5" stroke="#111111" stroke-width="2" fill="#D1D5DB" />
  <circle id="slot.inserted.car.1.wheel.left.copy2.copy4.copy5.copy7.circle" cx="253" cy="180" r="5" stroke="#1F2937" stroke-width="1.5" fill="#4B5563" />
  <circle id="slot.inserted.car.1.wheel.right.copy2.copy4.copy5.copy7.circle" cx="293" cy="180" r="5" stroke="#1F2937" stroke-width="1.5" fill="#4B5563" />
  <circle id="slot.inserted.car.1.hub.left.copy2.copy4.copy5.copy7.circle" cx="253" cy="180" r="5" stroke="#111111" stroke-width="2" fill="#D1D5DB" />
  <circle id="slot.inserted.car.1.hub.right.copy2.copy4.copy5.copy7.circle" cx="293" cy="180" r="5" stroke="#111111" stroke-width="2" fill="#D1D5DB" />
  <circle id="slot.inserted.car.1.wheel.left.copy2.copy4.copy5.copy8.circle" cx="365" cy="180" r="5" stroke="#1F2937" stroke-width="1.5" fill="#4B5563" />
  <circle id="slot.inserted.car.1.wheel.right.copy2.copy4.copy5.copy8.circle" cx="405" cy="180" r="5" stroke="#1F2937" stroke-width="1.5" fill="#4B5563" />
  <circle id="slot.inserted.car.1.hub.left.copy2.copy4.copy5.copy8.circle" cx="365" cy="180" r="5" stroke="#111111" stroke-width="2" fill="#D1D5DB" />
  <circle id="slot.inserted.car.1.hub.right.copy2.copy4.copy5.copy8.circle" cx="405" cy="180" r="5" stroke="#111111" stroke-width="2" fill="#D1D5DB" />
  <circle id="slot.inserted.car.1.wheel.left.copy2.copy4.copy5.copy7.copy8.circle" cx="455" cy="180" r="5" stroke="#1F2937" stroke-width="1.5" fill="#4B5563" />
  <circle id="slot.inserted.car.1.wheel.right.copy2.copy4.copy5.copy7.copy8.circle" cx="495" cy="180" r="5" stroke="#1F2937" stroke-width="1.5" fill="#4B5563" />
  <circle id="slot.inserted.car.1.hub.left.copy2.copy4.copy5.copy7.copy8.circle" cx="455" cy="180" r="5" stroke="#111111" stroke-width="2" fill="#D1D5DB" />
  <circle id="slot.inserted.car.1.hub.right.copy2.copy4.copy5.copy7.copy8.circle" cx="495" cy="180" r="5" stroke="#111111" stroke-width="2" fill="#D1D5DB" />
  <circle id="slot.inserted.car.1.wheel.left.copy2.copy4.copy5.copy9.circle" cx="315" cy="315" r="5" stroke="#1F2937" stroke-width="1.5" fill="#4B5563" />
  <circle id="slot.inserted.car.1.wheel.right.copy2.copy4.copy5.copy9.circle" cx="355" cy="315" r="5" stroke="#1F2937" stroke-width="1.5" fill="#4B5563" />
  <circle id="slot.inserted.car.1.hub.left.copy2.copy4.copy5.copy9.circle" cx="315" cy="315" r="5" stroke="#111111" stroke-width="2" fill="#D1D5DB" />
  <circle id="slot.inserted.car.1.hub.right.copy2.copy4.copy5.copy9.circle" cx="355" cy="315" r="5" stroke="#111111" stroke-width="2" fill="#D1D5DB" />
  <circle id="slot.inserted.car.1.wheel.left.copy2.copy4.copy5.copy7.copy9.circle" cx="405" cy="315" r="5" stroke="#1F2937" stroke-width="1.5" fill="#4B5563" />
  <circle id="slot.inserted.car.1.wheel.right.copy2.copy4.copy5.copy7.copy9.circle" cx="445" cy="315" r="5" stroke="#1F2937" stroke-width="1.5" fill="#4B5563" />
  <circle id="slot.inserted.car.1.hub.left.copy2.copy4.copy5.copy7.copy9.circle" cx="405" cy="315" r="5" stroke="#111111" stroke-width="2" fill="#D1D5DB" />
  <circle id="slot.inserted.car.1.hub.right.copy2.copy4.copy5.copy7.copy9.circle" cx="445" cy="315" r="5" stroke="#111111" stroke-width="2" fill="#D1D5DB" />
  <circle id="slot.inserted.car.1.wheel.left.copy2.copy4.copy5.copy8.copy9.circle" cx="500" cy="315" r="5" stroke="#1F2937" stroke-width="1.5" fill="#4B5563" />
  <circle id="slot.inserted.car.1.wheel.right.copy2.copy4.copy5.copy8.copy9.circle" cx="540" cy="315" r="5" stroke="#1F2937" stroke-width="1.5" fill="#4B5563" />
  <circle id="slot.inserted.car.1.hub.left.copy2.copy4.copy5.copy8.copy9.circle" cx="500" cy="315" r="5" stroke="#111111" stroke-width="2" fill="#D1D5DB" />
  <circle id="slot.inserted.car.1.hub.right.copy2.copy4.copy5.copy8.copy9.circle" cx="540" cy="315" r="5" stroke="#111111" stroke-width="2" fill="#D1D5DB" />
  <circle id="slot.inserted.car.1.wheel.left.copy2.copy4.copy5.copy7.copy8.copy9.circle" cx="590" cy="315" r="5" stroke="#1F2937" stroke-width="1.5" fill="#4B5563" />
  <circle id="slot.inserted.car.1.wheel.right.copy2.copy4.copy5.copy7.copy8.copy9.circle" cx="630" cy="315" r="5" stroke="#1F2937" stroke-width="1.5" fill="#4B5563" />
  <circle id="slot.inserted.car.1.hub.left.copy2.copy4.copy5.copy7.copy8.copy9.circle" cx="590" cy="315" r="5" stroke="#111111" stroke-width="2" fill="#D1D5DB" />
  <circle id="slot.inserted.car.1.hub.right.copy2.copy4.copy5.copy7.copy8.copy9.circle" cx="630" cy="315" r="5" stroke="#111111" stroke-width="2" fill="#D1D5DB" />
</svg>
