<?xml version="1.0" encoding="UTF-8"?>
<svg xmlns="http://www.w3.org/2000/svg" width="960" height="580" viewBox="0 0 960 580">
  <metadata><problem_id>S3_초등_3_008682</problem_id></metadata>
  <rect x="0" y="0" width="960" height="580" fill="#FFFFFF" />
  <text id="slot.q_num.text" x="12" y="34" fill="#111111" font-family="Noto Sans KR, sans-serif" font-size="28">66.</text>
  <text id="slot.q1.text" x="74" y="34" fill="#111111" font-family="Noto Sans KR, sans-serif" font-size="28">
    <tspan x="74" dy="0">주어진 모양과 똑같은 그림을 그리는 방법을 설명한 것입니다. 알맞은</tspan>
    <tspan x="74" dy="1.2em">말을</tspan>
  </text>
  <text id="slot.q2.text" x="74" y="70" fill="#111111" font-family="Noto Sans KR, sans-serif" font-size="28">선택하세요.</text>
  <path id="slot.grid.left.frame.path" d="M 239.0 86.0 L 431.0 86.0 L 431.0 278.0 L 239.0 278.0 Z" stroke="#37C7FF" stroke-width="1.4" fill="#ffffff" stroke-dasharray="4 3" />
  <path id="slot.grid.left.v1.path" d="M 263.0 86.0 L 263.0 278.0" stroke="#37C7FF" stroke-width="1" fill="none" stroke-dasharray="4 3" />
  <path id="slot.grid.left.h1.path" d="M 239.0 110.0 L 431.0 110.0" stroke="#37C7FF" stroke-width="1" fill="none" stroke-dasharray="4 3" />
  <path id="slot.grid.left.v2.path" d="M 287.0 86.0 L 287.0 278.0" stroke="#37C7FF" stroke-width="1" fill="none" stroke-dasharray="4 3" />
  <path id="slot.grid.left.h2.path" d="M 239.0 134.0 L 431.0 134.0" stroke="#37C7FF" stroke-width="1" fill="none" stroke-dasharray="4 3" />
  <path id="slot.grid.left.v3.path" d="M 311.0 86.0 L 311.0 278.0" stroke="#37C7FF" stroke-width="1" fill="none" stroke-dasharray="4 3" />
  <path id="slot.grid.left.h3.path" d="M 239.0 158.0 L 431.0 158.0" stroke="#37C7FF" stroke-width="1" fill="none" stroke-dasharray="4 3" />
  <path id="slot.grid.left.v4.path" d="M 335.0 86.0 L 335.0 278.0" stroke="#37C7FF" stroke-width="1" fill="none" stroke-dasharray="4 3" />
  <path id="slot.grid.left.h4.path" d="M 239.0 182.0 L 431.0 182.0" stroke="#37C7FF" stroke-width="1" fill="none" stroke-dasharray="4 3" />
  <path id="slot.grid.left.v5.path" d="M 359.0 86.0 L 359.0 278.0" stroke="#37C7FF" stroke-width="1" fill="none" stroke-dasharray="4 3" />
  <path id="slot.grid.left.h5.path" d="M 239.0 206.0 L 431.0 206.0" stroke="#37C7FF" stroke-width="1" fill="none" stroke-dasharray="4 3" />
  <path id="slot.grid.left.v6.path" d="M 383.0 86.0 L 383.0 278.0" stroke="#37C7FF" stroke-width="1" fill="none" stroke-dasharray="4 3" />
  <path id="slot.grid.left.h6.path" d="M 239.0 230.0 L 431.0 230.0" stroke="#37C7FF" stroke-width="1" fill="none" stroke-dasharray="4 3" />
  <path id="slot.grid.left.v7.path" d="M 407.0 86.0 L 407.0 278.0" stroke="#37C7FF" stroke-width="1" fill="none" stroke-dasharray="4 3" />
  <path id="slot.grid.left.h7.path" d="M 239.0 254.0 L 431.0 254.0" stroke="#37C7FF" stroke-width="1" fill="none" stroke-dasharray="4 3" />
  <circle id="slot.left.outer_circle.circle" cx="335" cy="182" r="96" stroke="#444444" stroke-width="1.6" fill="none" />
  <circle id="slot.left.inner_circle_1.circle" cx="287" cy="182" r="48" stroke="#444444" stroke-width="1.6" fill="none" />
  <circle id="slot.left.inner_circle_2.circle" cx="383" cy="182" r="48" stroke="#444444" stroke-width="1.6" fill="none" />
  <path id="slot.arrow.path" d="M 454 182 L 496 182 M 482 170 L 496 182 L 482 194" stroke="#444444" stroke-width="2" fill="none" />
  <path id="slot.grid.right.frame.path" d="M 562.0 86.0 L 754.0 86.0 L 754.0 278.0 L 562.0 278.0 Z" stroke="#37C7FF" stroke-width="1.4" fill="#ffffff" stroke-dasharray="4 3" />
  <path id="slot.grid.right.v1.path" d="M 586.0 86.0 L 586.0 278.0" stroke="#37C7FF" stroke-width="1" fill="none" stroke-dasharray="4 3" />
  <path id="slot.grid.right.h1.path" d="M 562.0 110.0 L 754.0 110.0" stroke="#37C7FF" stroke-width="1" fill="none" stroke-dasharray="4 3" />
  <path id="slot.grid.right.v2.path" d="M 610.0 86.0 L 610.0 278.0" stroke="#37C7FF" stroke-width="1" fill="none" stroke-dasharray="4 3" />
  <path id="slot.grid.right.h2.path" d="M 562.0 134.0 L 754.0 134.0" stroke="#37C7FF" stroke-width="1" fill="none" stroke-dasharray="4 3" />
  <path id="slot.grid.right.v3.path" d="M 634.0 86.0 L 634.0 278.0" stroke="#37C7FF" stroke-width="1" fill="none" stroke-dasharray="4 3" />
  <path id="slot.grid.right.h3.path" d="M 562.0 158.0 L 754.0 158.0" stroke="#37C7FF" stroke-width="1" fill="none" stroke-dasharray="4 3" />
  <path id="slot.grid.right.v4.path" d="M 658.0 86.0 L 658.0 278.0" stroke="#37C7FF" stroke-width="1" fill="none" stroke-dasharray="4 3" />
  <path id="slot.grid.right.h4.path" d="M 562.0 182.0 L 754.0 182.0" stroke="#37C7FF" stroke-width="1" fill="none" stroke-dasharray="4 3" />
  <path id="slot.grid.right.v5.path" d="M 682.0 86.0 L 682.0 278.0" stroke="#37C7FF" stroke-width="1" fill="none" stroke-dasharray="4 3" />
  <path id="slot.grid.right.h5.path" d="M 562.0 206.0 L 754.0 206.0" stroke="#37C7FF" stroke-width="1" fill="none" stroke-dasharray="4 3" />
  <path id="slot.grid.right.v6.path" d="M 706.0 86.0 L 706.0 278.0" stroke="#37C7FF" stroke-width="1" fill="none" stroke-dasharray="4 3" />
  <path id="slot.grid.right.h6.path" d="M 562.0 230.0 L 754.0 230.0" stroke="#37C7FF" stroke-width="1" fill="none" stroke-dasharray="4 3" />
  <path id="slot.grid.right.v7.path" d="M 730.0 86.0 L 730.0 278.0" stroke="#37C7FF" stroke-width="1" fill="none" stroke-dasharray="4 3" />
  <path id="slot.grid.right.h7.path" d="M 562.0 254.0 L 754.0 254.0" stroke="#37C7FF" stroke-width="1" fill="none" stroke-dasharray="4 3" />
  <path id="slot.boy.bubble.path" d="M 69.0 354.0 C 69.0 322.32, 101.3 310.0, 154.0 310.0 C 206.7 310.0, 239.0 322.32, 239.0 354.0 C 239.0 385.68, 206.7 398.0, 154.0 398.0 C 101.3 398.0, 69.0 385.68, 69.0 354.0 Z" stroke="#222222" stroke-width="1.6" fill="#ffffff" />
  <polygon id="slot.boy.tail.polygon" points="144,392 164,392 154,350" stroke="#222222" stroke-width="1.4" fill="#ffffff" />
  <polygon id="slot.boy.person.body.polygon" points="126,468 182,468 172,432 136,432" stroke="none" stroke-width="2" fill="#58C7BC" />
  <circle id="slot.boy.person.head.circle" cx="154" cy="395" r="28" stroke="none" stroke-width="2" fill="#ffd9ad" />
  <path id="slot.boy.person.hair.cap.path" d="M 126.0 394.0 C 128.0 365.0, 179.0 360.0, 183.0 394.0 C 164.0 378.0, 142.0 385.0, 126.0 394.0 Z" stroke="none" stroke-width="2" fill="#3B2417" />
  <circle id="slot.boy.person.eye.left.circle" cx="144" cy="399" r="2.3" stroke="none" stroke-width="2" fill="#2b2118" />
  <circle id="slot.boy.person.eye.right.circle" cx="164" cy="399" r="2.3" stroke="none" stroke-width="2" fill="#2b2118" />
  <path id="slot.boy.person.smile.path" d="M 147.0 411.0 Q 154.0 417.0 161.0 411.0" stroke="#b86e39" stroke-width="1.3" fill="none" />
  <rect id="slot.name.boy.box.rect" x="118" y="468" width="72" height="36" fill="#e9f7dd" stroke="#6fcf83" stroke-width="2" rx="9" ry="9" />
  <path id="slot.girl.bubble.path" d="M 647.5 354.0 C 647.5 311.52, 701.65 295.0, 790.0 295.0 C 878.35 295.0, 932.5 311.52, 932.5 354.0 C 932.5 396.48, 878.35 413.0, 790.0 413.0 C 701.65 413.0, 647.5 396.48, 647.5 354.0 Z" stroke="#222222" stroke-width="1.6" fill="#ffffff" />
  <polygon id="slot.girl.tail.polygon" points="780,407 800,407 790,350" stroke="#222222" stroke-width="1.4" fill="#ffffff" />
  <polygon id="slot.girl.person.body.polygon" points="762,468 818,468 808,432 772,432" stroke="none" stroke-width="2" fill="#F16078" />
  <circle id="slot.girl.person.head.circle" cx="790" cy="395" r="28" stroke="none" stroke-width="2" fill="#ffd9ad" />
  <path id="slot.girl.person.hair.cap.path" d="M 762.0 394.0 C 764.0 365.0, 815.0 360.0, 819.0 394.0 C 800.0 378.0, 778.0 385.0, 762.0 394.0 Z" stroke="none" stroke-width="2" fill="#4B260B" />
  <circle id="slot.girl.person.eye.left.circle" cx="780" cy="399" r="2.3" stroke="none" stroke-width="2" fill="#2b2118" />
  <circle id="slot.girl.person.eye.right.circle" cx="800" cy="399" r="2.3" stroke="none" stroke-width="2" fill="#2b2118" />
  <path id="slot.girl.person.smile.path" d="M 783.0 411.0 Q 790.0 417.0 797.0 411.0" stroke="#b86e39" stroke-width="1.3" fill="none" />
  <path id="slot.girl.person.tail.left.path" d="M 763.0 392.0 C 738.0 396.0, 752.0 437.0, 740.0 443.0" stroke="#4B260B" stroke-width="7" fill="none" />
  <path id="slot.girl.person.tail.right.path" d="M 817.0 392.0 C 842.0 396.0, 828.0 437.0, 840.0 443.0" stroke="#4B260B" stroke-width="7" fill="none" />
  <polygon id="slot.girl.person.bow.left.polygon" points="783,438 764,430 776,451" stroke="none" stroke-width="2" fill="#E85BA6" />
  <polygon id="slot.girl.person.bow.right.polygon" points="797,438 816,430 804,451" stroke="none" stroke-width="2" fill="#E85BA6" />
  <rect id="slot.name.girl.box.rect" x="754" y="468" width="72" height="36" fill="#e9f7dd" stroke="#6fcf83" stroke-width="2" rx="9" ry="9" />
  <text id="slot.boy.text.text" x="154" y="344" fill="#111111" font-family="Noto Sans KR, sans-serif" font-size="23" text-anchor="middle">
    <tspan x="154" dy="0">큰 원을</tspan>
    <tspan x="154" dy="1.2em">먼저 그려.</tspan>
  </text>
  <text id="slot.name.boy.text.text" x="154" y="494" fill="#111111" font-family="Noto Sans KR, sans-serif" font-size="25" text-anchor="middle">민수</text>
  <text id="slot.girl.text.text" x="790" y="328" fill="#111111" font-family="Noto Sans KR, sans-serif" font-size="21" text-anchor="middle">
    <tspan x="790" dy="0">큰 원의 반지름을</tspan>
    <tspan x="790" dy="1.2em">( 지름, 반지름 )으로 하는</tspan>
    <tspan x="790" dy="1.2em">작은 원을 2개 그려.</tspan>
  </text>
  <text id="slot.name.girl.text.text" x="790" y="494" fill="#111111" font-family="Noto Sans KR, sans-serif" font-size="25" text-anchor="middle">지혜</text>
</svg>
