<?xml version="1.0" encoding="UTF-8"?>
<svg xmlns="http://www.w3.org/2000/svg" width="960" height="425" viewBox="0 0 960 425">
  <metadata><problem_id>S3_초등_3_008706</problem_id></metadata>
  <rect x="0" y="0" width="960" height="425" fill="#FFFFFF" />
  <text id="slot.q1.text" x="18" y="28" fill="#111111" font-family="Noto Sans KR, sans-serif" font-size="28">힘찬이가 야구공을 그림과 같은 모양을 그렸습니다. 이 모양을    그릴  </text>
  <text id="slot.q2.text" x="18" y="66" fill="#111111" font-family="Noto Sans KR, sans-serif" font-size="28">때 컴퍼스의 침을 꽂지 않은 곳을 찾아 기호를 선택하세요.</text>
  <rect id="slot.diagram.frame.rect" x="378" y="92" width="210" height="216" fill="#FFFFFF" stroke="#D5EFFF" stroke-width="1" />
  <circle id="slot.circle.main.circle" cx="483" cy="200" r="74" stroke="#333333" stroke-width="1.6" fill="none" />
  <path id="slot.arc.tl.path" d="M 428.0 150.0 C 468.0 146.0 492.0 120.0 492.0 92.0" stroke="#333333" stroke-width="1.6" fill="none" />
  <path id="slot.arc.br.path" d="M 528.0 245.0 C 486.0 248.0 471.0 276.0 471.0 308.0" stroke="#333333" stroke-width="1.6" fill="none" />
  <path id="slot.arc.left.path" d="M 410.0 196.0 C 434.0 196.0 459.0 173.0 462.0 150.0" stroke="#333333" stroke-width="1.6" fill="none" />
  <path id="slot.arc.bottom.path" d="M 551.0 200.0 C 522.0 201.0 497.0 225.0 493.0 252.0" stroke="#333333" stroke-width="1.6" fill="none" />
  <circle id="slot.pt.kg.circle" cx="398" cy="112" r="3.8" stroke="#111111" stroke-width="2" fill="#E91E63" />
  <circle id="slot.pt.ng.circle" cx="483" cy="193" r="3.8" stroke="#111111" stroke-width="2" fill="#E91E63" />
  <circle id="slot.pt.dg.circle" cx="398" cy="278" r="3.8" stroke="#111111" stroke-width="2" fill="#E91E63" />
  <circle id="slot.pt.rg.circle" cx="557" cy="278" r="3.8" stroke="#111111" stroke-width="2" fill="#E91E63" />
  <circle id="slot.lb.kg.circle" cx="391" cy="103" r="8.5" stroke="#808080" stroke-width="1" fill="none" />
  <circle id="slot.lb.ng.circle" cx="441" cy="191" r="8.5" stroke="#808080" stroke-width="1" fill="none" />
  <circle id="slot.lb.dg.circle" cx="387" cy="279" r="8.5" stroke="#808080" stroke-width="1" fill="none" />
  <circle id="slot.lb.rg.circle" cx="573" cy="279" r="8.5" stroke="#808080" stroke-width="1" fill="none" />
  <line id="slot.grid.v1.line" x1="378" y1="92" x2="378" y2="308" stroke="#9AA0A6" stroke-width="1.2" stroke-dasharray="5 3" />
  <line id="slot.grid.v2.line" x1="398" y1="92" x2="398" y2="308" stroke="#9AA0A6" stroke-width="1.2" stroke-dasharray="5 3" />
  <line id="slot.grid.v3.line" x1="418" y1="92" x2="418" y2="308" stroke="#9AA0A6" stroke-width="1.2" stroke-dasharray="5 3" />
  <line id="slot.grid.v4.line" x1="438" y1="92" x2="438" y2="308" stroke="#9AA0A6" stroke-width="1.2" stroke-dasharray="5 3" />
  <line id="slot.grid.v5.line" x1="458" y1="92" x2="458" y2="308" stroke="#9AA0A6" stroke-width="1.2" stroke-dasharray="5 3" />
  <line id="slot.grid.v6.line" x1="478" y1="92" x2="478" y2="308" stroke="#9AA0A6" stroke-width="1.2" stroke-dasharray="5 3" />
  <line id="slot.grid.v7.line" x1="498" y1="92" x2="498" y2="308" stroke="#9AA0A6" stroke-width="1.2" stroke-dasharray="5 3" />
  <line id="slot.grid.v8.line" x1="518" y1="92" x2="518" y2="308" stroke="#9AA0A6" stroke-width="1.2" stroke-dasharray="5 3" />
  <line id="slot.grid.v9.line" x1="538" y1="92" x2="538" y2="308" stroke="#9AA0A6" stroke-width="1.2" stroke-dasharray="5 3" />
  <line id="slot.grid.v10.line" x1="558" y1="92" x2="558" y2="308" stroke="#9AA0A6" stroke-width="1.2" stroke-dasharray="5 3" />
  <line id="slot.grid.v11.line" x1="578" y1="92" x2="578" y2="308" stroke="#9AA0A6" stroke-width="1.2" stroke-dasharray="5 3" />
  <line id="slot.grid.v12.line" x1="588" y1="92" x2="588" y2="308" stroke="#9AA0A6" stroke-width="1.2" stroke-dasharray="5 3" />
  <line id="slot.grid.h1.line" x1="378" y1="92" x2="588" y2="92" stroke="#9AA0A6" stroke-width="1.2" stroke-dasharray="5 3" />
  <line id="slot.grid.h2.line" x1="378" y1="112" x2="588" y2="112" stroke="#9AA0A6" stroke-width="1.2" stroke-dasharray="5 3" />
  <line id="slot.grid.h3.line" x1="378" y1="132" x2="588" y2="132" stroke="#9AA0A6" stroke-width="1.2" stroke-dasharray="5 3" />
  <line id="slot.grid.h4.line" x1="378" y1="152" x2="588" y2="152" stroke="#9AA0A6" stroke-width="1.2" stroke-dasharray="5 3" />
  <line id="slot.grid.h5.line" x1="378" y1="172" x2="588" y2="172" stroke="#9AA0A6" stroke-width="1.2" stroke-dasharray="5 3" />
  <line id="slot.grid.h6.line" x1="378" y1="192" x2="588" y2="192" stroke="#9AA0A6" stroke-width="1.2" stroke-dasharray="5 3" />
  <line id="slot.grid.h7.line" x1="378" y1="212" x2="588" y2="212" stroke="#9AA0A6" stroke-width="1.2" stroke-dasharray="5 3" />
  <line id="slot.grid.h8.line" x1="378" y1="232" x2="588" y2="232" stroke="#9AA0A6" stroke-width="1.2" stroke-dasharray="5 3" />
  <line id="slot.grid.h9.line" x1="378" y1="252" x2="588" y2="252" stroke="#9AA0A6" stroke-width="1.2" stroke-dasharray="5 3" />
  <line id="slot.grid.h10.line" x1="378" y1="272" x2="588" y2="272" stroke="#9AA0A6" stroke-width="1.2" stroke-dasharray="5 3" />
  <line id="slot.grid.h11.line" x1="378" y1="292" x2="588" y2="292" stroke="#9AA0A6" stroke-width="1.2" stroke-dasharray="5 3" />
  <line id="slot.grid.h12.line" x1="378" y1="308" x2="588" y2="308" stroke="#9AA0A6" stroke-width="1.2" stroke-dasharray="5 3" />
  <text id="slot.dot.k1.text" x="384" y="108" fill="#111111" font-family="Noto Sans KR, sans-serif" font-size="20">ㄱ</text>
  <text id="slot.dot.n1.text" x="434" y="196" fill="#111111" font-family="Noto Sans KR, sans-serif" font-size="20">ㄴ</text>
  <text id="slot.dot.d1.text" x="380" y="284" fill="#111111" font-family="Noto Sans KR, sans-serif" font-size="20">ㄷ</text>
  <text id="slot.dot.r1.text" x="566" y="284" fill="#111111" font-family="Noto Sans KR, sans-serif" font-size="20">ㄹ</text>
</svg>
