<?xml version="1.0" encoding="UTF-8"?>
<svg xmlns="http://www.w3.org/2000/svg" width="960" height="540" viewBox="0 0 960 540">
  <metadata><problem_id>S3_초등_3_008722</problem_id></metadata>
  <rect x="0" y="0" width="960" height="540" fill="#FFFFFF" />
  <rect id="slot.desc_box.rect" x="30" y="286" width="900" height="104" fill="#ffffff" stroke="#111111" stroke-width="1.5" />
  <rect id="slot.diagram.frame.rect" x="340" y="54" width="340" height="226" fill="#ffffff" stroke="#111111" stroke-width="1.5" />
  <circle id="slot.circle.l1.circle" cx="387" cy="160" r="34" stroke="#111111" stroke-width="2" fill="none" />
  <circle id="slot.circle.l2.circle" cx="441" cy="160" r="68" stroke="#111111" stroke-width="2" fill="none" />
  <circle id="slot.circle.c1.circle" cx="493" cy="160" r="34" stroke="#111111" stroke-width="2" fill="none" />
  <circle id="slot.circle.r2.circle" cx="547" cy="160" r="68" stroke="#111111" stroke-width="2" fill="none" />
  <circle id="slot.circle.r1.circle" cx="600" cy="160" r="34" stroke="#111111" stroke-width="2" fill="none" />
  <line id="slot.grid.v1.line" x1="340" y1="54" x2="340" y2="280" stroke="#111111" stroke-width="2" />
  <line id="slot.grid.v2.line" x1="361.3" y1="54" x2="361.3" y2="280" stroke="#111111" stroke-width="2" />
  <line id="slot.grid.v3.line" x1="382.6" y1="54" x2="382.6" y2="280" stroke="#111111" stroke-width="2" />
  <line id="slot.grid.v4.line" x1="403.9" y1="54" x2="403.9" y2="280" stroke="#111111" stroke-width="2" />
  <line id="slot.grid.v5.line" x1="425.2" y1="54" x2="425.2" y2="280" stroke="#111111" stroke-width="2" />
  <line id="slot.grid.v6.line" x1="446.5" y1="54" x2="446.5" y2="280" stroke="#111111" stroke-width="2" />
  <line id="slot.grid.v7.line" x1="467.8" y1="54" x2="467.8" y2="280" stroke="#111111" stroke-width="2" />
  <line id="slot.grid.v8.line" x1="489.1" y1="54" x2="489.1" y2="280" stroke="#111111" stroke-width="2" />
  <line id="slot.grid.v9.line" x1="510.4" y1="54" x2="510.4" y2="280" stroke="#111111" stroke-width="2" />
  <line id="slot.grid.v10.line" x1="531.7" y1="54" x2="531.7" y2="280" stroke="#111111" stroke-width="2" />
  <line id="slot.grid.v11.line" x1="553" y1="54" x2="553" y2="280" stroke="#111111" stroke-width="2" />
  <line id="slot.grid.v12.line" x1="574.3" y1="54" x2="574.3" y2="280" stroke="#111111" stroke-width="2" />
  <line id="slot.grid.v13.line" x1="595.6" y1="54" x2="595.6" y2="280" stroke="#111111" stroke-width="2" />
  <line id="slot.grid.v14.line" x1="616.9" y1="54" x2="616.9" y2="280" stroke="#111111" stroke-width="2" />
  <line id="slot.grid.v15.line" x1="638.2" y1="54" x2="638.2" y2="280" stroke="#111111" stroke-width="2" />
  <line id="slot.grid.v16.line" x1="659.5" y1="54" x2="659.5" y2="280" stroke="#111111" stroke-width="2" />
  <line id="slot.grid.h1.line" x1="340" y1="54" x2="680" y2="54" stroke="#111111" stroke-width="2" />
  <line id="slot.grid.h2.line" x1="340" y1="75.1" x2="680" y2="75.1" stroke="#111111" stroke-width="2" />
  <line id="slot.grid.h3.line" x1="340" y1="96.2" x2="680" y2="96.2" stroke="#111111" stroke-width="2" />
  <line id="slot.grid.h4.line" x1="340" y1="117.3" x2="680" y2="117.3" stroke="#111111" stroke-width="2" />
  <line id="slot.grid.h5.line" x1="340" y1="138.4" x2="680" y2="138.4" stroke="#111111" stroke-width="2" />
  <line id="slot.grid.h6.line" x1="340" y1="159.5" x2="680" y2="159.5" stroke="#111111" stroke-width="2" />
  <line id="slot.grid.h7.line" x1="340" y1="180.6" x2="680" y2="180.6" stroke="#111111" stroke-width="2" />
  <line id="slot.grid.h8.line" x1="340" y1="201.7" x2="680" y2="201.7" stroke="#111111" stroke-width="2" />
  <line id="slot.grid.h9.line" x1="340" y1="222.8" x2="680" y2="222.8" stroke="#111111" stroke-width="2" />
  <line id="slot.grid.h10.line" x1="340" y1="243.9" x2="680" y2="243.9" stroke="#111111" stroke-width="2" />
  <line id="slot.grid.h11.line" x1="340" y1="265" x2="680" y2="265" stroke="#111111" stroke-width="2" />
  <circle id="slot.pt.l.circle" cx="387" cy="160" r="4" stroke="#111111" stroke-width="2" fill="#d81b88" />
  <circle id="slot.pt.a.circle" cx="441" cy="160" r="4" stroke="#111111" stroke-width="2" fill="#d81b88" />
  <circle id="slot.pt.c.circle" cx="493" cy="160" r="4" stroke="#111111" stroke-width="2" fill="#d81b88" />
  <circle id="slot.pt.d.circle" cx="547" cy="160" r="4" stroke="#111111" stroke-width="2" fill="#d81b88" />
  <circle id="slot.pt.r.circle" cx="600" cy="160" r="4" stroke="#111111" stroke-width="2" fill="#d81b88" />
  <text id="slot.q1.text" x="8" y="26" fill="#111111" font-family="Noto Sans KR, sans-serif" font-size="28">25.</text>
  <text id="slot.q2.text" x="52" y="26" fill="#111111" font-family="Noto Sans KR, sans-serif" font-size="28">원을 그린 규칙을 바르게 설명한 친구의 이름을 선택하세요.</text>
  <text id="slot.choice.text" x="480" y="420" fill="#111111" font-family="Noto Sans KR, sans-serif" font-size="28">( 윤지 , 수진 )</text>
  <text id="slot.desc1.text" x="44" y="322" fill="#111111" font-family="Noto Sans KR, sans-serif" font-size="28">· 윤지: 원의 중심이 오른쪽으로 모눈 3칸씩 옮겨 갔어.</text>
  <text id="slot.desc2.text" x="44" y="358" fill="#111111" font-family="Noto Sans KR, sans-serif" font-size="28">· 수진: 원의 반지름이 모눈 1칸, 2칸인 원을 반복하여 겹치도록 그렸어.</text>
</svg>
