<?xml version="1.0" encoding="UTF-8"?>
<svg xmlns="http://www.w3.org/2000/svg" width="940" height="540" viewBox="0 0 940 540">
  <metadata><problem_id>S3_초등_3_008830</problem_id></metadata>
  <rect x="0" y="0" width="940" height="540" fill="#FFFFFF" />
  <rect id="slot.box.border.rect" x="100" y="48" width="760" height="226" fill="#ffffff" stroke="#111111" stroke-width="1.5" />
  <path id="slot.item1.img.path" d="M 200.0 155.0 C 215.0 148.0, 228.0 145.0, 236.0 144.0 C 245.0 143.0, 252.0 145.0, 259.0 150.0 L 244.0 159.0 C 235.0 164.0, 228.0 168.0, 219.0 171.0 L 208.0 175.0 C 204.0 176.0, 201.0 175.0, 198.0 173.0 L 192.0 169.0 L 184.0 173.0 L 177.0 165.0 L 184.0 160.0 L 177.0 155.0 L 192.0 150.0 Z" stroke="#111111" stroke-width="2" fill="none" />
  <path id="slot.item2.img.path" d="M 454.0 160.0 C 468.0 144.0, 487.0 141.0, 503.0 148.0 C 509.0 150.0, 515.0 156.0, 520.0 163.0 L 520.0 176.0 C 520.0 181.0, 516.0 185.0, 511.0 185.0 L 446.0 185.0 C 441.0 185.0, 437.0 181.0, 437.0 176.0 L 437.0 167.0 C 440.0 163.0, 445.0 161.0, 454.0 160.0 Z" stroke="#111111" stroke-width="2" fill="none" />
  <path id="slot.item3.img.path" d="M 681.0 145.0 C 689.0 132.0, 708.0 126.0, 725.0 129.0 C 742.0 132.0, 754.0 145.0, 759.0 163.0 C 763.0 177.0, 762.0 194.0, 754.0 208.0 C 749.0 218.0, 739.0 224.0, 727.0 226.0 C 707.0 228.0, 689.0 222.0, 679.0 210.0 C 670.0 199.0, 667.0 183.0, 670.0 168.0 C 672.0 159.0, 675.0 151.0, 681.0 145.0 Z" stroke="#111111" stroke-width="2" fill="none" />
  <path id="slot.item1.img2.path" d="M 208.0 159.0 C 208.0 153.0, 209.0 149.0, 214.0 146.0 C 219.0 143.0, 226.0 143.0, 231.0 146.0" stroke="#111111" stroke-width="2" fill="none" />
  <path id="slot.item2.img2.path" d="M 472.0 149.0 C 470.0 132.0, 482.0 120.0, 491.0 120.0 C 500.0 120.0, 504.0 128.0, 504.0 137.0" stroke="#111111" stroke-width="2" fill="none" />
  <path id="slot.item2.img3.path" d="M 520.0 164.0 C 541.0 157.0, 551.0 163.0, 551.0 174.0 C 551.0 185.0, 541.0 192.0, 528.0 187.0" stroke="#111111" stroke-width="2" fill="none" />
  <path id="slot.item3.img2.path" d="M 693.0 137.0 C 699.0 130.0, 709.0 127.0, 720.0 127.0 C 731.0 127.0, 741.0 131.0, 747.0 138.0" stroke="#111111" stroke-width="2" fill="none" />
  <path id="slot.item3.img3.path" d="M 679.0 153.0 C 694.0 148.0, 710.0 146.0, 728.0 146.0 C 744.0 146.0, 754.0 150.0, 761.0 157.0" stroke="#111111" stroke-width="2" fill="none" />
  <text id="slot.q.title.text" x="10" y="28" fill="#111111" font-family="Noto Sans KR, sans-serif" font-size="28">66. &lt;보기를 보고 알맞은 물건을 선택하여 문장을 완성해 보세요.</text>
  <text id="slot.box.title.text" x="120" y="82" fill="#111111" font-family="Noto Sans KR, sans-serif" font-size="28">&lt;보기&gt;</text>
  <text id="slot.item1.label.text" x="194" y="236" fill="#111111" font-family="Noto Sans KR, sans-serif" font-size="28">주사기</text>
  <text id="slot.item2.label.text" x="442" y="236" fill="#111111" font-family="Noto Sans KR, sans-serif" font-size="28">물뿌리개</text>
  <text id="slot.item3.label.text" x="683" y="236" fill="#111111" font-family="Noto Sans KR, sans-serif" font-size="28">항아리</text>
  <text id="slot.sentence.text" x="148" y="347" fill="#111111" font-family="Noto Sans KR, sans-serif" font-size="28">( 주사기 , 물뿌리개 , 항아리 )의 들이는 약 3 mL입니다.</text>
</svg>
