<?xml version="1.0" encoding="UTF-8"?>
<svg xmlns="http://www.w3.org/2000/svg" width="698" height="396" viewBox="0 0 698 396">
  <metadata><problem_id>S3_초등_3_009004</problem_id></metadata>
  <rect x="0" y="0" width="698" height="396" fill="#FFFFFF" />
  <rect id="slot.top_box.rect" x="194" y="40" width="484" height="67" fill="#ffffff" stroke="#111111" stroke-width="1.5" />
  <polygon id="slot.top_a.polygon" points="221,58 308,58 308,95 221,95" stroke="#111111" stroke-width="2" fill="none" />
  <polygon id="slot.top_b.polygon" points="338,86 378,58 420,86 378,115" stroke="#111111" stroke-width="2" fill="none" />
  <polygon id="slot.top_c.polygon" points="460,56 527,56 527,115 460,115" stroke="#111111" stroke-width="2" fill="none" />
  <polygon id="slot.top_d.polygon" points="583,57 651,57 651,115 583,115" stroke="#111111" stroke-width="2" fill="none" />
  <text id="slot.q_no.text" x="48" y="17" fill="#111111" font-family="Noto Sans KR, sans-serif" font-size="28">44.</text>
  <text id="slot.q_text.text" x="88" y="17" fill="#111111" font-family="Noto Sans KR, sans-serif" font-size="28">직사각형을 모두 찾아 기호를 선택하세요.</text>
  <text id="slot.top_label_a.text" x="257" y="80" fill="#111111" font-family="Noto Sans KR, sans-serif" font-size="28">가</text>
  <text id="slot.top_label_b.text" x="372" y="80" fill="#111111" font-family="Noto Sans KR, sans-serif" font-size="28">나</text>
  <text id="slot.top_label_c.text" x="491" y="79" fill="#111111" font-family="Noto Sans KR, sans-serif" font-size="28">다</text>
  <text id="slot.top_label_d.text" x="617" y="79" fill="#111111" font-family="Noto Sans KR, sans-serif" font-size="28">라</text>
  <text id="slot.choices.text" x="309" y="137" fill="#111111" font-family="Noto Sans KR, sans-serif" font-size="28">( 가, 나, 다, 라 )</text>
  <rect id="slot.bottom_box.rect" x="46" y="238" width="485" height="67" fill="#ffffff" stroke="#111111" stroke-width="1.5" />
  <polygon id="slot.bot_a.polygon" points="67,252 154,252 154,289 67,289" stroke="#111111" stroke-width="2" fill="none" />
  <polygon id="slot.bot_b.polygon" points="180,280 220,252 262,280 220,308" stroke="#111111" stroke-width="2" fill="none" />
  <polygon id="slot.bot_c.polygon" points="303,251 370,251 370,310 303,310" stroke="#111111" stroke-width="2" fill="none" />
  <polygon id="slot.bot_d.polygon" points="426,252 494,252 494,310 426,310" stroke="#111111" stroke-width="2" fill="none" />
  <text id="slot.bot_label_a.text" x="103" y="274" fill="#111111" font-family="Noto Sans KR, sans-serif" font-size="28">가</text>
  <text id="slot.bot_label_b.text" x="214" y="274" fill="#111111" font-family="Noto Sans KR, sans-serif" font-size="28">나</text>
  <text id="slot.bot_label_c.text" x="337" y="273" fill="#111111" font-family="Noto Sans KR, sans-serif" font-size="28">다</text>
  <text id="slot.bot_label_d.text" x="460" y="273" fill="#111111" font-family="Noto Sans KR, sans-serif" font-size="28">라</text>
</svg>
