<?xml version="1.0" encoding="UTF-8"?>
<svg xmlns="http://www.w3.org/2000/svg" width="940" height="390" viewBox="0 0 940 390">
  <metadata><problem_id>S3_초등_3_008800</problem_id></metadata>
  <rect x="0" y="0" width="940" height="390" fill="#FFFFFF" />
  <text id="slot.q1.text" x="12" y="28" fill="#111111" font-family="Noto Sans KR, sans-serif" font-size="28">□ 29. 저울을 이용하여 연필과 필통의 무게를 비교했습니다. 알맞은 말을 선택</text>
  <text id="slot.q2.text" x="12" y="66" fill="#111111" font-family="Noto Sans KR, sans-serif" font-size="28">하세요.</text>
  <text id="slot.q3.text" x="0" y="0" fill="#111111" font-family="Noto Sans KR, sans-serif" font-size="28"></text>
  <rect id="slot.scale.base.rect" x="402" y="218" width="188" height="40" fill="#ffffff" stroke="#111111" stroke-width="1.5" />
  <rect id="slot.scale.pillar.rect" x="494" y="164" width="18" height="76" fill="#ffffff" stroke="#111111" stroke-width="1.5" />
  <polygon id="slot.scale.left.pan.polygon" points="395,149 437,149 429,170 403,170" stroke="#111111" stroke-width="2" fill="none" />
  <polygon id="slot.scale.right.pan.polygon" points="550,170 592,170 584,149 558,149" stroke="#111111" stroke-width="2" fill="none" />
  <line id="slot.scale.beam.line" x1="456" y1="170" x2="560" y2="194" stroke="#111111" stroke-width="2" />
  <line id="slot.scale.left.string.line" x1="416" y1="170" x2="416" y2="149" stroke="#111111" stroke-width="2" />
  <line id="slot.scale.right.string.line" x1="574" y1="170" x2="574" y2="149" stroke="#111111" stroke-width="2" />
  <circle id="slot.pt.pencil.circle" cx="421" cy="146" r="3.8" stroke="#111111" stroke-width="2" fill="#222222" />
  <circle id="slot.pt.case.circle" cx="573" cy="146" r="3.8" stroke="#111111" stroke-width="2" fill="#222222" />
  <text id="slot.lb.pencil.text" x="394" y="140" fill="#111111" font-family="Noto Sans KR, sans-serif" font-size="28">연필</text>
  <text id="slot.lb.case.text" x="552" y="138" fill="#111111" font-family="Noto Sans KR, sans-serif" font-size="28">필통</text>
  <text id="slot.choice.text" x="295" y="274" fill="#111111" font-family="Noto Sans KR, sans-serif" font-size="28">( 연필 , 필통 )이 더 무겁습니다.</text>
</svg>
