<?xml version="1.0" encoding="UTF-8"?>
<svg xmlns="http://www.w3.org/2000/svg" xmlns:xlink="http://www.w3.org/1999/xlink" width="873" height="492" viewBox="0 0 873 492">
  <metadata><problem_id>S3_초등_3_008743</problem_id></metadata>
  <rect x="0" y="0" width="873" height="492" fill="#FFFFFF" />
  <rect id="slot.diagram.frame.rect" x="286" y="46" width="402" height="170" fill="none" stroke="#B8D0E8" stroke-width="1.5" />
  <polygon id="slot.dia.1.polygon" points="339,77 360,98 339,119 318,98" stroke="#333333" stroke-width="2" fill="#D46A12" />
  <polygon id="slot.dia.2.polygon" points="372,77 393,98 372,119 351,98" stroke="#333333" stroke-width="2" fill="#D46A12" />
  <polygon id="slot.dia.3.polygon" points="405,77 426,98 405,119 384,98" stroke="#333333" stroke-width="2" fill="none" />
  <polygon id="slot.dia.4.polygon" points="438,77 459,98 438,119 417,98" stroke="#333333" stroke-width="2" fill="none" />
  <polygon id="slot.dia.5.polygon" points="471,77 492,98 471,119 450,98" stroke="#333333" stroke-width="2" fill="none" />
  <polygon id="slot.dia.6.polygon" points="504,77 525,98 504,119 483,98" stroke="#333333" stroke-width="2" fill="none" />
  <polygon id="slot.dia.7.polygon" points="537,77 558,98 537,119 516,98" stroke="#333333" stroke-width="2" fill="none" />
  <polygon id="slot.dia.8.polygon" points="570,77 591,98 570,119 549,98" stroke="#333333" stroke-width="2" fill="none" />
  <polygon id="slot.dia.9.polygon" points="339,111 360,132 339,153 318,132" stroke="#333333" stroke-width="2" fill="#D46A12" />
  <polygon id="slot.dia.10.polygon" points="372,111 393,132 372,153 351,132" stroke="#333333" stroke-width="2" fill="#D46A12" />
  <polygon id="slot.dia.11.polygon" points="405,111 426,132 405,153 384,132" stroke="#333333" stroke-width="2" fill="none" />
  <polygon id="slot.dia.12.polygon" points="438,111 459,132 438,153 417,132" stroke="#333333" stroke-width="2" fill="none" />
  <polygon id="slot.dia.13.polygon" points="471,111 492,132 471,153 450,132" stroke="#333333" stroke-width="2" fill="none" />
  <polygon id="slot.dia.14.polygon" points="504,111 525,132 504,153 483,132" stroke="#333333" stroke-width="2" fill="none" />
  <polygon id="slot.dia.15.polygon" points="537,111 558,132 537,153 516,132" stroke="#333333" stroke-width="2" fill="none" />
  <polygon id="slot.dia.16.polygon" points="570,111 591,132 570,153 549,132" stroke="#333333" stroke-width="2" fill="none" />
  <polygon id="slot.dia.17.polygon" points="339,145 360,166 339,187 318,166" stroke="#333333" stroke-width="2" fill="#D46A12" />
  <polygon id="slot.dia.18.polygon" points="372,145 393,166 372,187 351,166" stroke="#333333" stroke-width="2" fill="#D46A12" />
  <polygon id="slot.dia.19.polygon" points="405,145 426,166 405,187 384,166" stroke="#333333" stroke-width="2" fill="none" />
  <polygon id="slot.dia.20.polygon" points="438,145 459,166 438,187 417,166" stroke="#333333" stroke-width="2" fill="none" />
  <polygon id="slot.dia.21.polygon" points="471,145 492,166 471,187 450,166" stroke="#333333" stroke-width="2" fill="none" />
  <polygon id="slot.dia.22.polygon" points="504,145 525,166 504,187 483,166" stroke="#333333" stroke-width="2" fill="none" />
  <polygon id="slot.dia.23.polygon" points="537,145 558,166 537,187 516,166" stroke="#333333" stroke-width="2" fill="none" />
  <polygon id="slot.dia.24.polygon" points="570,145 591,166 570,187 549,166" stroke="#333333" stroke-width="2" fill="none" />
  <text id="slot.q.num.text" x="8" y="28" fill="#111111" font-family="Noto Sans KR, sans-serif" font-size="28">36.</text>
  <text id="slot.q.text.text" x="48" y="28" fill="#111111" font-family="Noto Sans KR, sans-serif" font-size="28">그림을 보고 색칠한 부분을 분수로 바르게 나타낸 것을 고르세요.</text>
  <text id="slot.choice.1.num.text" x="30" y="274" fill="#111111" font-family="Noto Sans KR, sans-serif" font-size="28">①</text>
  <text id="slot.choice.1.frac.text" x="54" y="254" fill="#111111" font-family="Noto Sans KR, sans-serif" font-size="28">1</text>
  <text id="slot.choice.1.sep.text" x="56" y="277" fill="#111111" font-family="Noto Sans KR, sans-serif" font-size="28">―</text>
  <text id="slot.choice.1.den.text" x="49" y="307" fill="#111111" font-family="Noto Sans KR, sans-serif" font-size="28">24</text>
  <text id="slot.choice.2.num.text" x="282" y="274" fill="#111111" font-family="Noto Sans KR, sans-serif" font-size="28">②</text>
  <text id="slot.choice.2.frac.text" x="306" y="254" fill="#111111" font-family="Noto Sans KR, sans-serif" font-size="28">1</text>
  <text id="slot.choice.2.sep.text" x="308" y="277" fill="#111111" font-family="Noto Sans KR, sans-serif" font-size="28">―</text>
  <text id="slot.choice.2.den.text" x="301" y="307" fill="#111111" font-family="Noto Sans KR, sans-serif" font-size="28">12</text>
  <text id="slot.choice.3.num.text" x="522" y="274" fill="#111111" font-family="Noto Sans KR, sans-serif" font-size="28">③</text>
  <text id="slot.choice.3.frac.text" x="546" y="254" fill="#111111" font-family="Noto Sans KR, sans-serif" font-size="28">1</text>
  <text id="slot.choice.3.sep.text" x="548" y="277" fill="#111111" font-family="Noto Sans KR, sans-serif" font-size="28">―</text>
  <text id="slot.choice.3.den.text" x="543" y="307" fill="#111111" font-family="Noto Sans KR, sans-serif" font-size="28">6</text>
  <text id="slot.choice.4.num.text" x="30" y="374" fill="#111111" font-family="Noto Sans KR, sans-serif" font-size="28">④</text>
  <text id="slot.choice.4.frac.text" x="54" y="354" fill="#111111" font-family="Noto Sans KR, sans-serif" font-size="28">1</text>
  <text id="slot.choice.4.sep.text" x="56" y="377" fill="#111111" font-family="Noto Sans KR, sans-serif" font-size="28">―</text>
  <text id="slot.choice.4.den.text" x="53" y="407" fill="#111111" font-family="Noto Sans KR, sans-serif" font-size="28">4</text>
  <text id="slot.choice.5.num.text" x="282" y="374" fill="#111111" font-family="Noto Sans KR, sans-serif" font-size="28">⑤</text>
  <text id="slot.choice.5.frac.text" x="306" y="354" fill="#111111" font-family="Noto Sans KR, sans-serif" font-size="28">1</text>
  <text id="slot.choice.5.sep.text" x="308" y="377" fill="#111111" font-family="Noto Sans KR, sans-serif" font-size="28">―</text>
  <text id="slot.choice.5.den.text" x="303" y="407" fill="#111111" font-family="Noto Sans KR, sans-serif" font-size="28">3</text>
</svg>
