<?xml version="1.0" encoding="UTF-8"?>
<svg xmlns="http://www.w3.org/2000/svg" width="700" height="620" viewBox="0 0 700 620">
  <metadata><problem_id>S3_초등_3_008643</problem_id></metadata>
  <rect x="0" y="0" width="700" height="620" fill="#FFFFFF" />
  <text id="slot.qtext.text" x="72" y="30" max_width="572" fill="#111111" font-family="Noto Sans KR, sans-serif" font-size="28">원의 중심을 찾아 선택해 보세요.</text>
  <circle id="slot.circle.top.circle" cx="492" cy="146" r="73" stroke="#444444" stroke-width="2" fill="none" />
  <circle id="slot.pt.top.ga.circle" cx="492" cy="74" r="3.8" stroke="#111111" stroke-width="2" fill="#d94b8a" />
  <circle id="slot.pt.top.na.circle" cx="492" cy="146" r="3.8" stroke="#111111" stroke-width="2" fill="#d94b8a" />
  <circle id="slot.pt.top.da.circle" cx="540" cy="146" r="3.8" stroke="#111111" stroke-width="2" fill="#d94b8a" />
  <circle id="slot.pt.top.ra.circle" cx="444" cy="194" r="3.8" stroke="#111111" stroke-width="2" fill="#d94b8a" />
  <circle id="slot.pt.top.ma.circle" cx="540" cy="194" r="3.8" stroke="#111111" stroke-width="2" fill="#d94b8a" />
  <line id="slot.grid.top.v1.line" x1="396" y1="50" x2="396" y2="258" stroke="#43b7ff" stroke-width="1.2" stroke-dasharray="5 3" />
  <line id="slot.grid.top.v2.line" x1="420" y1="50" x2="420" y2="258" stroke="#43b7ff" stroke-width="1.2" stroke-dasharray="5 3" />
  <line id="slot.grid.top.v3.line" x1="444" y1="50" x2="444" y2="258" stroke="#43b7ff" stroke-width="1.2" stroke-dasharray="5 3" />
  <line id="slot.grid.top.v4.line" x1="468" y1="50" x2="468" y2="258" stroke="#43b7ff" stroke-width="1.2" stroke-dasharray="5 3" />
  <line id="slot.grid.top.v5.line" x1="492" y1="50" x2="492" y2="258" stroke="#43b7ff" stroke-width="1.2" stroke-dasharray="5 3" />
  <line id="slot.grid.top.v6.line" x1="516" y1="50" x2="516" y2="258" stroke="#43b7ff" stroke-width="1.2" stroke-dasharray="5 3" />
  <line id="slot.grid.top.v7.line" x1="540" y1="50" x2="540" y2="258" stroke="#43b7ff" stroke-width="1.2" stroke-dasharray="5 3" />
  <line id="slot.grid.top.v8.line" x1="564" y1="50" x2="564" y2="258" stroke="#43b7ff" stroke-width="1.2" stroke-dasharray="5 3" />
  <line id="slot.grid.top.v9.line" x1="588" y1="50" x2="588" y2="258" stroke="#43b7ff" stroke-width="1.2" stroke-dasharray="5 3" />
  <line id="slot.grid.top.h1.line" x1="396" y1="50" x2="588" y2="50" stroke="#43b7ff" stroke-width="1.2" stroke-dasharray="5 3" />
  <line id="slot.grid.top.h2.line" x1="396" y1="74" x2="588" y2="74" stroke="#43b7ff" stroke-width="1.2" stroke-dasharray="5 3" />
  <line id="slot.grid.top.h3.line" x1="396" y1="98" x2="588" y2="98" stroke="#43b7ff" stroke-width="1.2" stroke-dasharray="5 3" />
  <line id="slot.grid.top.h4.line" x1="396" y1="122" x2="588" y2="122" stroke="#43b7ff" stroke-width="1.2" stroke-dasharray="5 3" />
  <line id="slot.grid.top.h5.line" x1="396" y1="146" x2="588" y2="146" stroke="#43b7ff" stroke-width="1.2" stroke-dasharray="5 3" />
  <line id="slot.grid.top.h6.line" x1="396" y1="170" x2="588" y2="170" stroke="#43b7ff" stroke-width="1.2" stroke-dasharray="5 3" />
  <line id="slot.grid.top.h7.line" x1="396" y1="194" x2="588" y2="194" stroke="#43b7ff" stroke-width="1.2" stroke-dasharray="5 3" />
  <line id="slot.grid.top.h8.line" x1="396" y1="218" x2="588" y2="218" stroke="#43b7ff" stroke-width="1.2" stroke-dasharray="5 3" />
  <line id="slot.grid.top.h9.line" x1="396" y1="242" x2="588" y2="242" stroke="#43b7ff" stroke-width="1.2" stroke-dasharray="5 3" />
  <text id="slot.lb.top.ga.text" x="503" y="81" max_width="572" fill="#111111" font-family="Noto Sans KR, sans-serif" font-size="24">ㄱ</text>
  <text id="slot.lb.top.na.text" x="503" y="161" max_width="572" fill="#111111" font-family="Noto Sans KR, sans-serif" font-size="24">ㄴ</text>
  <text id="slot.lb.top.da.text" x="551" y="161" max_width="572" fill="#111111" font-family="Noto Sans KR, sans-serif" font-size="24">ㄷ</text>
  <text id="slot.lb.top.ra.text" x="455" y="209" max_width="572" fill="#111111" font-family="Noto Sans KR, sans-serif" font-size="24">ㄹ</text>
  <text id="slot.lb.top.ma.text" x="551" y="209" max_width="572" fill="#111111" font-family="Noto Sans KR, sans-serif" font-size="24">ㅁ</text>
</svg>
