<?xml version="1.0" encoding="UTF-8"?>
<svg xmlns="http://www.w3.org/2000/svg" width="960" height="420" viewBox="0 0 960 420">
  <metadata><problem_id>S3_초등_3_008730</problem_id></metadata>
  <rect x="0" y="0" width="960" height="420" fill="#FFFFFF" />
  <path id="slot.curve.left.path" d="M 264.0 104.0 C 286.0 142.0, 343.0 160.0, 404.0 138.0 C 428.0 129.0, 456.0 116.0, 489.0 104.0" stroke="#4DB6FF" stroke-width="1.4" fill="none" stroke-dasharray="4 4" />
  <path id="slot.curve.right.path" d="M 489.0 104.0 C 511.0 142.0, 564.0 160.0, 622.0 138.0 C 650.0 127.0, 676.0 114.0, 702.0 104.0" stroke="#4DB6FF" stroke-width="1.4" fill="none" stroke-dasharray="4 4" />
  <line id="slot.line.main.line" x1="264" y1="102" x2="702" y2="102" stroke="#C58B45" stroke-width="2" />
  <circle id="slot.pt.school.circle" cx="264" cy="102" r="4" stroke="#111111" stroke-width="2" fill="#222222" />
  <circle id="slot.pt.house.circle" cx="489" cy="102" r="4" stroke="#111111" stroke-width="2" fill="#222222" />
  <circle id="slot.pt.playground.circle" cx="702" cy="102" r="4" stroke="#111111" stroke-width="2" fill="#222222" />
  <text id="slot.qmark.text" x="12" y="20" fill="#111111" font-family="Noto Sans KR, sans-serif" font-size="28">□ 49.</text>
  <text id="slot.qtext.text" x="92" y="20" fill="#111111" font-family="Noto Sans KR, sans-serif" font-size="28">학교와 놀이터 중 상구네 집에서 더 가까운 곳을 선택해 보세요.</text>
  <text id="slot.lb.school.text" x="228" y="60" fill="#111111" font-family="Noto Sans KR, sans-serif" font-size="28">학교</text>
  <text id="slot.lb.house.text" x="456" y="60" fill="#111111" font-family="Noto Sans KR, sans-serif" font-size="28">상구네 집</text>
  <text id="slot.lb.playground.text" x="714" y="60" fill="#111111" font-family="Noto Sans KR, sans-serif" font-size="28">놀이터</text>
  <text id="slot.dist.left.text" x="333" y="168" fill="#111111" font-family="Noto Sans KR, sans-serif" font-size="28">13/11 km</text>
  <text id="slot.dist.right.text" x="539" y="168" fill="#111111" font-family="Noto Sans KR, sans-serif" font-size="28">1 3/11 km</text>
  <text id="slot.choice.text" x="748" y="214" fill="#111111" font-family="Noto Sans KR, sans-serif" font-size="28">( 학교 , 놀이터 )</text>
  <text id="slot.arrow.text" x="16" y="382" fill="#111111" font-family="Noto Sans KR, sans-serif" font-size="40">➜</text>
</svg>
