<?xml version="1.0" encoding="UTF-8"?>
<svg xmlns="http://www.w3.org/2000/svg" width="720" height="240" viewBox="0 0 720 240">
  <metadata><problem_id>S3_초등_3_008981</problem_id></metadata>
  <rect x="0" y="0" width="720" height="240" fill="#FFFFFF" />
  <text id="slot.num.text" x="16" y="28" fill="#111111" font-family="Noto Sans KR, sans-serif" font-size="28">16.</text>
  <text id="slot.title.text" x="60" y="28" fill="#111111" font-family="Noto Sans KR, sans-serif" font-size="28">같을 선택하세요.</text>
  <path id="slot.shape.1c.path" d="M 154 56 Q 170 50 186 88 Q 202 50 214 56" stroke="#111111" stroke-width="2" fill="none" />
  <path id="slot.shape.3a.path" d="M 576 44 Q 594 80 630 96" stroke="#111111" stroke-width="2" fill="none" />
  <path id="slot.shape.3c.path" d="M 630 96 Q 662 96 676 96" stroke="#111111" stroke-width="2" fill="none" />
  <line id="slot.shape.1a.line" x1="154" y1="56" x2="186" y2="88" stroke="#111111" stroke-width="2" />
  <line id="slot.shape.1b.line" x1="186" y1="88" x2="214" y2="56" stroke="#111111" stroke-width="2" />
  <line id="slot.shape.2a.line" x1="382" y1="48" x2="454" y2="72" stroke="#111111" stroke-width="2" />
  <line id="slot.shape.2b.line" x1="382" y1="96" x2="454" y2="72" stroke="#111111" stroke-width="2" />
  <line id="slot.shape.3b.line" x1="576" y1="44" x2="676" y2="44" stroke="#111111" stroke-width="2" />
  <line id="slot.shape.4a.line" x1="46" y1="124" x2="132" y2="146" stroke="#111111" stroke-width="2" />
  <line id="slot.shape.4b.line" x1="46" y1="160" x2="132" y2="146" stroke="#111111" stroke-width="2" />
</svg>
