<?xml version="1.0" encoding="UTF-8"?>
<svg xmlns="http://www.w3.org/2000/svg" width="850" height="420" viewBox="0 0 850 420">
  <metadata><problem_id>S3_초등_3_008860</problem_id></metadata>
  <rect x="0" y="0" width="850" height="420" fill="#FFFFFF" />
  <text id="slot.q1.text" x="6" y="18" fill="#111111" font-family="Noto Sans KR, sans-serif" font-size="28">□ 7. 세숫대야와 바가지에 물을 가득 채운 후 물양과 크기가 작은 컵에</text>
  <text id="slot.q2.text" x="6" y="56" fill="#111111" font-family="Noto Sans KR, sans-serif" font-size="28">옮겨 담았더니 다음과 같았습니다. 세숫대야와 바가지 중에서 어느 것이 들</text>
  <text id="slot.q3.text" x="6" y="94" fill="#111111" font-family="Noto Sans KR, sans-serif" font-size="28">이가 더 많을까요?</text>
  <rect id="slot.basin.rect" x="298" y="145" width="96" height="42" fill="#D97A2B" stroke="#B85F1B" stroke-width="2" rx="20" />
  <rect id="slot.bucket.rect" x="302" y="228" width="46" height="33" fill="#F3A1B7" stroke="#D37B95" stroke-width="2" rx="12" />
  <line id="slot.arrow1.line" x1="404" y1="169" x2="432" y2="169" stroke="#8B8B8B" stroke-width="3" />
  <line id="slot.arrow2.line" x1="404" y1="244" x2="432" y2="244" stroke="#8B8B8B" stroke-width="3" />
  <circle id="slot.cup1_1.circle" cx="444" cy="152" r="7" stroke="#6BA8D6" stroke-width="1.5" fill="#B9DDF7" />
  <circle id="slot.cup1_2.circle" cx="468" cy="152" r="7" stroke="#6BA8D6" stroke-width="1.5" fill="#B9DDF7" />
  <circle id="slot.cup1_3.circle" cx="492" cy="152" r="7" stroke="#6BA8D6" stroke-width="1.5" fill="#B9DDF7" />
  <circle id="slot.cup1_4.circle" cx="516" cy="152" r="7" stroke="#6BA8D6" stroke-width="1.5" fill="#B9DDF7" />
  <circle id="slot.cup1_5.circle" cx="540" cy="152" r="7" stroke="#6BA8D6" stroke-width="1.5" fill="#B9DDF7" />
  <circle id="slot.cup1_6.circle" cx="444" cy="176" r="7" stroke="#6BA8D6" stroke-width="1.5" fill="#B9DDF7" />
  <circle id="slot.cup1_7.circle" cx="468" cy="176" r="7" stroke="#6BA8D6" stroke-width="1.5" fill="#B9DDF7" />
  <circle id="slot.cup1_8.circle" cx="492" cy="176" r="7" stroke="#6BA8D6" stroke-width="1.5" fill="#B9DDF7" />
  <circle id="slot.cup1_9.circle" cx="516" cy="176" r="7" stroke="#6BA8D6" stroke-width="1.5" fill="#B9DDF7" />
  <circle id="slot.cup2_1.circle" cx="444" cy="245" r="7" stroke="#6BA8D6" stroke-width="1.5" fill="#B9DDF7" />
  <circle id="slot.cup2_2.circle" cx="468" cy="245" r="7" stroke="#6BA8D6" stroke-width="1.5" fill="#B9DDF7" />
  <circle id="slot.cup2_3.circle" cx="492" cy="245" r="7" stroke="#6BA8D6" stroke-width="1.5" fill="#B9DDF7" />
  <text id="slot.choice.text" x="610" y="300" fill="#111111" font-family="Noto Sans KR, sans-serif" font-size="28">( 세숫대야 , 바가지 )</text>
</svg>
