<?xml version="1.0" encoding="UTF-8"?>
<svg xmlns="http://www.w3.org/2000/svg" width="960" height="650" viewBox="0 0 960 650">
  <metadata><problem_id>S3_초등_3_008736</problem_id></metadata>
  <rect x="0" y="0" width="960" height="650" fill="#FFFFFF" />
  <text id="slot.q1.text" x="16" y="28" fill="#111111" font-family="Noto Sans KR, sans-serif" font-size="28">2 1/3 과 1 2/3 중에서 어느 분수가 더 큰지 알아보려고 합니다.</text>
  <text id="slot.q2.text" x="16" y="74" fill="#111111" font-family="Noto Sans KR, sans-serif" font-size="28">그림을 보고 알맞은 것을 선택하세요.</text>
  <text id="slot.q4.text" x="162" y="386" fill="#111111" font-family="Noto Sans KR, sans-serif" font-size="28">색칠한 부분의 길이가 ( 2 1/3 , 1 2/3 )이/가 더 길므로</text>
  <text id="slot.q5.text" x="312" y="448" fill="#111111" font-family="Noto Sans KR, sans-serif" font-size="28">2 1/3 ( &gt; , &lt; ) 1 2/3 입니다.</text>
  <rect id="slot.bar1a.rect" x="160" y="182" width="172" height="40" fill="#f3d7ea" stroke="#666666" stroke-width="1.5" />
  <rect id="slot.bar1b.rect" x="348" y="182" width="172" height="40" fill="#f3d7ea" stroke="#666666" stroke-width="1.5" />
  <rect id="slot.bar1c.rect" x="536" y="182" width="172" height="40" fill="#ffffff" stroke="#666666" stroke-width="1.5" />
  <rect id="slot.bar2a.rect" x="160" y="276" width="172" height="40" fill="#f3d7ea" stroke="#666666" stroke-width="1.5" />
  <rect id="slot.bar2b.rect" x="348" y="276" width="172" height="40" fill="#f3d7ea" stroke="#666666" stroke-width="1.5" />
  <rect id="slot.bar2c.rect" x="536" y="276" width="172" height="40" fill="#ffffff" stroke="#666666" stroke-width="1.5" />
  <line id="slot.grid1a1.line" x1="217.3" y1="182" x2="217.3" y2="222" stroke="#666666" stroke-width="2" stroke-dasharray="5 3" />
  <line id="slot.grid1a2.line" x1="274.7" y1="182" x2="274.7" y2="222" stroke="#666666" stroke-width="2" stroke-dasharray="5 3" />
  <line id="slot.grid1b1.line" x1="405.3" y1="182" x2="405.3" y2="222" stroke="#666666" stroke-width="2" stroke-dasharray="5 3" />
  <line id="slot.grid1b2.line" x1="462.7" y1="182" x2="462.7" y2="222" stroke="#666666" stroke-width="2" stroke-dasharray="5 3" />
  <line id="slot.grid1c1.line" x1="593.3" y1="182" x2="593.3" y2="222" stroke="#666666" stroke-width="2" stroke-dasharray="5 3" />
  <line id="slot.grid1c2.line" x1="650.7" y1="182" x2="650.7" y2="222" stroke="#666666" stroke-width="2" stroke-dasharray="5 3" />
  <line id="slot.grid2a1.line" x1="217.3" y1="276" x2="217.3" y2="316" stroke="#666666" stroke-width="2" stroke-dasharray="5 3" />
  <line id="slot.grid2a2.line" x1="274.7" y1="276" x2="274.7" y2="316" stroke="#666666" stroke-width="2" stroke-dasharray="5 3" />
  <line id="slot.grid2b1.line" x1="405.3" y1="276" x2="405.3" y2="316" stroke="#666666" stroke-width="2" stroke-dasharray="5 3" />
  <line id="slot.grid2b2.line" x1="462.7" y1="276" x2="462.7" y2="316" stroke="#666666" stroke-width="2" stroke-dasharray="5 3" />
  <line id="slot.grid2c1.line" x1="593.3" y1="276" x2="593.3" y2="316" stroke="#666666" stroke-width="2" stroke-dasharray="5 3" />
  <line id="slot.grid2c2.line" x1="650.7" y1="276" x2="650.7" y2="316" stroke="#666666" stroke-width="2" stroke-dasharray="5 3" />
  <text id="slot.frac1.text" x="90" y="212" fill="#111111" font-family="Noto Sans KR, sans-serif" font-size="28">2 1/3</text>
  <text id="slot.frac2.text" x="90" y="306" fill="#111111" font-family="Noto Sans KR, sans-serif" font-size="28">1 2/3</text>
</svg>
