<?xml version="1.0" encoding="UTF-8"?>
<svg xmlns="http://www.w3.org/2000/svg" width="840" height="560" viewBox="0 0 840 560">
  <metadata><problem_id>S3_초등_3_009002</problem_id></metadata>
  <rect x="0" y="0" width="840" height="560" fill="#FFFFFF" />
  <rect id="slot.header.box.rect" x="11" y="16" width="16" height="16" fill="#ffffff" stroke="#111111" stroke-width="1.5" />
  <text id="slot.header.num.text" x="37" y="30" fill="#111111" font-family="Noto Sans KR, sans-serif" font-size="28">40.</text>
  <text id="slot.header.text.text" x="84" y="30" fill="#111111" font-family="Noto Sans KR, sans-serif" font-size="28">정사각형을 모두 찾아 기호를 선택하세요.</text>
  <rect id="slot.shape.ga.rect" x="241" y="61" width="55" height="55" fill="#ffffff" stroke="#111111" stroke-width="1.5" />
  <polygon id="slot.shape.na.polygon" points="330,89 388,70 447,89 388,108" stroke="#111111" stroke-width="2" fill="none" />
  <rect id="slot.shape.da.rect" x="408" y="61" width="38" height="55" fill="#ffffff" stroke="#111111" stroke-width="1.5" />
  <polygon id="slot.shape.ra.polygon" points="468,70 502,104 468,138 434,104" stroke="#111111" stroke-width="2" fill="none" />
  <line id="slot.grid.v1.line" x1="228" y1="46" x2="228" y2="138" stroke="#9AA0A6" stroke-width="1.2" stroke-dasharray="5 3" />
  <line id="slot.grid.v2.line" x1="248" y1="46" x2="248" y2="138" stroke="#9AA0A6" stroke-width="1.2" stroke-dasharray="5 3" />
  <line id="slot.grid.v3.line" x1="268" y1="46" x2="268" y2="138" stroke="#9AA0A6" stroke-width="1.2" stroke-dasharray="5 3" />
  <line id="slot.grid.v4.line" x1="288" y1="46" x2="288" y2="138" stroke="#9AA0A6" stroke-width="1.2" stroke-dasharray="5 3" />
  <line id="slot.grid.v5.line" x1="308" y1="46" x2="308" y2="138" stroke="#9AA0A6" stroke-width="1.2" stroke-dasharray="5 3" />
  <line id="slot.grid.v6.line" x1="328" y1="46" x2="328" y2="138" stroke="#9AA0A6" stroke-width="1.2" stroke-dasharray="5 3" />
  <line id="slot.grid.v7.line" x1="348" y1="46" x2="348" y2="138" stroke="#9AA0A6" stroke-width="1.2" stroke-dasharray="5 3" />
  <line id="slot.grid.v8.line" x1="368" y1="46" x2="368" y2="138" stroke="#9AA0A6" stroke-width="1.2" stroke-dasharray="5 3" />
  <line id="slot.grid.v9.line" x1="388" y1="46" x2="388" y2="138" stroke="#9AA0A6" stroke-width="1.2" stroke-dasharray="5 3" />
  <line id="slot.grid.v10.line" x1="408" y1="46" x2="408" y2="138" stroke="#9AA0A6" stroke-width="1.2" stroke-dasharray="5 3" />
  <line id="slot.grid.v11.line" x1="428" y1="46" x2="428" y2="138" stroke="#9AA0A6" stroke-width="1.2" stroke-dasharray="5 3" />
  <line id="slot.grid.v12.line" x1="448" y1="46" x2="448" y2="138" stroke="#9AA0A6" stroke-width="1.2" stroke-dasharray="5 3" />
  <line id="slot.grid.v13.line" x1="468" y1="46" x2="468" y2="138" stroke="#9AA0A6" stroke-width="1.2" stroke-dasharray="5 3" />
  <line id="slot.grid.v14.line" x1="488" y1="46" x2="488" y2="138" stroke="#9AA0A6" stroke-width="1.2" stroke-dasharray="5 3" />
  <line id="slot.grid.h1.line" x1="228" y1="46" x2="488" y2="46" stroke="#9AA0A6" stroke-width="1.2" stroke-dasharray="5 3" />
  <line id="slot.grid.h2.line" x1="228" y1="56" x2="488" y2="56" stroke="#9AA0A6" stroke-width="1.2" stroke-dasharray="5 3" />
  <line id="slot.grid.h3.line" x1="228" y1="66" x2="488" y2="66" stroke="#9AA0A6" stroke-width="1.2" stroke-dasharray="5 3" />
  <line id="slot.grid.h4.line" x1="228" y1="76" x2="488" y2="76" stroke="#9AA0A6" stroke-width="1.2" stroke-dasharray="5 3" />
  <line id="slot.grid.h5.line" x1="228" y1="86" x2="488" y2="86" stroke="#9AA0A6" stroke-width="1.2" stroke-dasharray="5 3" />
  <line id="slot.grid.h6.line" x1="228" y1="96" x2="488" y2="96" stroke="#9AA0A6" stroke-width="1.2" stroke-dasharray="5 3" />
  <line id="slot.grid.h7.line" x1="228" y1="106" x2="488" y2="106" stroke="#9AA0A6" stroke-width="1.2" stroke-dasharray="5 3" />
  <line id="slot.grid.h8.line" x1="228" y1="116" x2="488" y2="116" stroke="#9AA0A6" stroke-width="1.2" stroke-dasharray="5 3" />
  <line id="slot.grid.h9.line" x1="228" y1="126" x2="488" y2="126" stroke="#9AA0A6" stroke-width="1.2" stroke-dasharray="5 3" />
  <line id="slot.grid.h10.line" x1="228" y1="136" x2="488" y2="136" stroke="#9AA0A6" stroke-width="1.2" stroke-dasharray="5 3" />
  <text id="slot.lb.ga.text" x="258" y="100" fill="#111111" font-family="Noto Sans KR, sans-serif" font-size="28">가</text>
  <text id="slot.lb.na.text" x="385" y="101" fill="#111111" font-family="Noto Sans KR, sans-serif" font-size="28">나</text>
  <text id="slot.lb.da.text" x="416" y="101" fill="#111111" font-family="Noto Sans KR, sans-serif" font-size="28">다</text>
  <text id="slot.lb.ra.text" x="468" y="100" fill="#111111" font-family="Noto Sans KR, sans-serif" font-size="28">라</text>
  <text id="slot.choice.text" x="300" y="181" fill="#111111" font-family="Noto Sans KR, sans-serif" font-size="28">( 가, 나, 다, 라 )</text>
</svg>
