<?xml version="1.0" encoding="UTF-8"?>
<svg xmlns="http://www.w3.org/2000/svg" width="960" height="940" viewBox="0 0 960 940">
  <metadata><problem_id>S3_초등_3_008740</problem_id></metadata>
  <rect x="0" y="0" width="960" height="940" fill="#FFFFFF" />
  <text id="slot.q1.text" x="14" y="28" fill="#111111" font-family="Noto Sans KR, sans-serif" font-size="28">26.</text>
  <text id="slot.q2.text" x="70" y="28" fill="#111111" font-family="Noto Sans KR, sans-serif" font-size="28">두 분수의 크기를 비교하여 더 큰 분수를 빈칸에 써 넣으려고 합니다. ①에 들어</text>
  <text id="slot.q3.text" x="32" y="62" fill="#111111" font-family="Noto Sans KR, sans-serif" font-size="28">갈 분수로 알맞은 것을 가장 아래 칸의 분수들 중에 선택해 보세요.</text>
  <rect id="slot.top.box.rect" x="440" y="105" width="76" height="76" fill="#FFFFFF" stroke="#D8C2E6" stroke-width="1.5" />
  <rect id="slot.mid.left.box.rect" x="350" y="211" width="76" height="76" fill="#FFFFFF" stroke="#D8C2E6" stroke-width="1.5" />
  <rect id="slot.mid.right.box.rect" x="540" y="211" width="76" height="76" fill="#FFFFFF" stroke="#D8C2E6" stroke-width="1.5" />
  <rect id="slot.leaf.1.rect" x="302" y="317" width="76" height="76" fill="#EBDFF3" stroke="#D8C2E6" stroke-width="1.5" />
  <rect id="slot.leaf.2.rect" x="404" y="317" width="76" height="76" fill="#EBDFF3" stroke="#D8C2E6" stroke-width="1.5" />
  <rect id="slot.leaf.3.rect" x="506" y="317" width="76" height="76" fill="#EBDFF3" stroke="#D8C2E6" stroke-width="1.5" />
  <rect id="slot.leaf.4.rect" x="608" y="317" width="76" height="76" fill="#EBDFF3" stroke="#D8C2E6" stroke-width="1.5" />
  <line id="slot.top.line.line" x1="478" y1="181" x2="478" y2="202" stroke="#666666" stroke-width="1.6" />
  <line id="slot.mid.connector.line" x1="388" y1="211" x2="578" y2="211" stroke="#666666" stroke-width="1.6" />
  <text id="slot.top.text.text" x="465" y="154" fill="#111111" font-family="Noto Sans KR, sans-serif" font-size="28">①</text>
  <rect id="slot.bot.top.box.rect" x="178" y="588" width="58" height="58" fill="#FFFFFF" stroke="#D8C2E6" stroke-width="1.5" />
  <rect id="slot.bot.mid.left.box.rect" x="112" y="666" width="58" height="58" fill="#EBDFF3" stroke="#D8C2E6" stroke-width="1.5" />
  <rect id="slot.bot.mid.right.box.rect" x="248" y="666" width="58" height="58" fill="#EBDFF3" stroke="#D8C2E6" stroke-width="1.5" />
  <rect id="slot.bot.leaf.1.rect" x="56" y="751" width="58" height="58" fill="#EBDFF3" stroke="#D8C2E6" stroke-width="1.5" />
  <rect id="slot.bot.leaf.2.rect" x="124" y="751" width="58" height="58" fill="#EBDFF3" stroke="#D8C2E6" stroke-width="1.5" />
  <rect id="slot.bot.leaf.3.rect" x="220" y="751" width="58" height="58" fill="#EBDFF3" stroke="#D8C2E6" stroke-width="1.5" />
  <rect id="slot.bot.leaf.4.rect" x="316" y="751" width="58" height="58" fill="#EBDFF3" stroke="#D8C2E6" stroke-width="1.5" />
  <line id="slot.bot.top.line.line" x1="207" y1="646" x2="207" y2="667" stroke="#666666" stroke-width="1.6" />
  <line id="slot.bot.mid.connector.line" x1="141" y1="666" x2="277" y2="666" stroke="#666666" stroke-width="1.6" />
  <text id="slot.bot.top.text.text" x="198" y="624" fill="#111111" font-family="Noto Sans KR, sans-serif" font-size="28">ㄱ</text>
</svg>
