<?xml version="1.0" encoding="UTF-8"?>
<svg xmlns="http://www.w3.org/2000/svg" width="720" height="292" viewBox="0 0 720 292">
  <metadata><problem_id>S3_초등_3_009051</problem_id></metadata>
  <rect x="0" y="0" width="720" height="292" fill="#FFFFFF" />
  <text id="slot.q1.text" x="10" y="28" fill="#111111" font-family="Noto Sans KR, sans-serif" font-size="28">□ 89. 반직선을 찾아 선택하세요.</text>
  <path id="slot.opt3.curve1.path" d="M 610.0 45.0 C 602.0 58.0, 606.0 86.0, 629.0 101.0 C 645.0 112.0, 664.0 118.0, 687.0 118.0" stroke="#111111" stroke-width="2" fill="none" />
  <line id="slot.opt1.line1.line" x1="120" y1="53" x2="145" y2="108" stroke="#111111" stroke-width="2" />
  <line id="slot.opt1.line2.line" x1="145" y1="108" x2="230" y2="114" stroke="#111111" stroke-width="2" />
  <line id="slot.opt2.line1.line" x1="358" y1="109" x2="499" y2="37" stroke="#111111" stroke-width="2" />
  <line id="slot.ans.line1.line" x1="55" y1="180" x2="176" y2="118" stroke="#111111" stroke-width="2" />
  <circle id="slot.opt1.pt1.circle" cx="123" cy="54" r="2.8" stroke="#111111" stroke-width="2" fill="#222222" />
  <circle id="slot.opt1.pt2.circle" cx="178" cy="110" r="2.8" stroke="#111111" stroke-width="2" fill="#222222" />
  <circle id="slot.opt1.pt3.circle" cx="227" cy="113" r="2.8" stroke="#111111" stroke-width="2" fill="#222222" />
  <circle id="slot.opt2.pt1.circle" cx="385" cy="95" r="2.8" stroke="#111111" stroke-width="2" fill="#222222" />
  <circle id="slot.opt2.pt2.circle" cx="490" cy="42" r="2.8" stroke="#111111" stroke-width="2" fill="#222222" />
  <circle id="slot.opt3.pt1.circle" cx="608" cy="60" r="2.8" stroke="#111111" stroke-width="2" fill="#222222" />
  <circle id="slot.opt3.pt2.circle" cx="682" cy="117" r="2.8" stroke="#111111" stroke-width="2" fill="#222222" />
  <circle id="slot.ans.pt1.circle" cx="78" cy="168" r="2.8" stroke="#111111" stroke-width="2" fill="#222222" />
  <circle id="slot.ans.pt2.circle" cx="171" cy="121" r="2.8" stroke="#111111" stroke-width="2" fill="#222222" />
</svg>
