<?xml version="1.0" encoding="UTF-8"?>
<svg xmlns="http://www.w3.org/2000/svg" width="960" height="624" viewBox="0 0 960 624">
  <metadata><problem_id>S3_초등_3_008704</problem_id></metadata>
  <rect x="0" y="0" width="960" height="624" fill="#FFFFFF" />
  <text id="slot.title.text" x="16" y="34" fill="#111111" font-family="Noto Sans KR, sans-serif" font-size="28">승아는 규칙에 따라 원을 그렸습니다. 승아가 원을 그린 규칙을 찾아 알맞은 것을 선택해보세요.  </text>
  <circle id="slot.circle.1.circle" cx="243" cy="211" r="25" stroke="#555555" stroke-width="2" fill="none" />
  <circle id="slot.circle.2.circle" cx="243" cy="211" r="48" stroke="#555555" stroke-width="2" fill="none" />
  <circle id="slot.circle.3.circle" cx="243" cy="211" r="71" stroke="#555555" stroke-width="2" fill="none" />
  <line id="slot.grid.v1.line" x1="128" y1="95" x2="128" y2="331" stroke="#9AA0A6" stroke-width="1.2" stroke-dasharray="5 3" />
  <line id="slot.grid.v2.line" x1="151" y1="95" x2="151" y2="331" stroke="#9AA0A6" stroke-width="1.2" stroke-dasharray="5 3" />
  <line id="slot.grid.v3.line" x1="174" y1="95" x2="174" y2="331" stroke="#9AA0A6" stroke-width="1.2" stroke-dasharray="5 3" />
  <line id="slot.grid.v4.line" x1="197" y1="95" x2="197" y2="331" stroke="#9AA0A6" stroke-width="1.2" stroke-dasharray="5 3" />
  <line id="slot.grid.v5.line" x1="220" y1="95" x2="220" y2="331" stroke="#9AA0A6" stroke-width="1.2" stroke-dasharray="5 3" />
  <line id="slot.grid.v6.line" x1="243" y1="95" x2="243" y2="331" stroke="#9AA0A6" stroke-width="1.2" stroke-dasharray="5 3" />
  <line id="slot.grid.v7.line" x1="266" y1="95" x2="266" y2="331" stroke="#9AA0A6" stroke-width="1.2" stroke-dasharray="5 3" />
  <line id="slot.grid.v8.line" x1="289" y1="95" x2="289" y2="331" stroke="#9AA0A6" stroke-width="1.2" stroke-dasharray="5 3" />
  <line id="slot.grid.v9.line" x1="312" y1="95" x2="312" y2="331" stroke="#9AA0A6" stroke-width="1.2" stroke-dasharray="5 3" />
  <line id="slot.grid.v10.line" x1="335" y1="95" x2="335" y2="331" stroke="#9AA0A6" stroke-width="1.2" stroke-dasharray="5 3" />
  <line id="slot.grid.h1.line" x1="128" y1="95" x2="358" y2="95" stroke="#9AA0A6" stroke-width="1.2" stroke-dasharray="5 3" />
  <line id="slot.grid.h2.line" x1="128" y1="118" x2="358" y2="118" stroke="#9AA0A6" stroke-width="1.2" stroke-dasharray="5 3" />
  <line id="slot.grid.h3.line" x1="128" y1="141" x2="358" y2="141" stroke="#9AA0A6" stroke-width="1.2" stroke-dasharray="5 3" />
  <line id="slot.grid.h4.line" x1="128" y1="164" x2="358" y2="164" stroke="#9AA0A6" stroke-width="1.2" stroke-dasharray="5 3" />
  <line id="slot.grid.h5.line" x1="128" y1="187" x2="358" y2="187" stroke="#9AA0A6" stroke-width="1.2" stroke-dasharray="5 3" />
  <line id="slot.grid.h6.line" x1="128" y1="210" x2="358" y2="210" stroke="#9AA0A6" stroke-width="1.2" stroke-dasharray="5 3" />
  <line id="slot.grid.h7.line" x1="128" y1="233" x2="358" y2="233" stroke="#9AA0A6" stroke-width="1.2" stroke-dasharray="5 3" />
  <line id="slot.grid.h8.line" x1="128" y1="256" x2="358" y2="256" stroke="#9AA0A6" stroke-width="1.2" stroke-dasharray="5 3" />
  <line id="slot.grid.h9.line" x1="128" y1="279" x2="358" y2="279" stroke="#9AA0A6" stroke-width="1.2" stroke-dasharray="5 3" />
  <line id="slot.grid.h10.line" x1="128" y1="302" x2="358" y2="302" stroke="#9AA0A6" stroke-width="1.2" stroke-dasharray="5 3" />
  <circle id="slot.center.circle" cx="243" cy="211" r="4" stroke="none" stroke-width="2" fill="#ff4da6" />
  <rect id="slot.bubble.rect" x="573" y="50" width="300" height="136" fill="#ffffff" stroke="#555555" stroke-width="2" rx="70" ry="55" />
  <text id="slot.nameplate.text.text" x="830" y="315" fill="#111111" font-family="Noto Sans KR, sans-serif" font-size="30">승아</text>
  <rect id="slot.choice.bg.rect" x="99" y="370" width="750" height="118" fill="#e6f1cf" stroke="none" stroke-width="1.5" />
  <text id="slot.choice.text1.text" x="251" y="414" fill="#111111" font-family="Noto Sans KR, sans-serif" font-size="28">원의 중심이 ( 같습니다, 다릅니다 ).</text>
  <text id="slot.choice.text2.text" x="188" y="451" fill="#111111" font-family="Noto Sans KR, sans-serif" font-size="28">원의 반지름이 모두 ( 1, 2, 3 )칸씩 늘어났습니다.</text>
</svg>
