<?xml version="1.0" encoding="UTF-8"?>
<svg xmlns="http://www.w3.org/2000/svg" width="940" height="470" viewBox="0 0 940 470">
  <metadata><problem_id>S3_초등_3_008681</problem_id></metadata>
  <rect x="0" y="0" width="940" height="470" fill="#FFFFFF" />
  <rect id="slot.choice.1.base.rect" x="225" y="209" width="110" height="37" fill="#D9F2FF" stroke="#7EC8F5" stroke-width="2" />
  <rect id="slot.choice.2.base.rect" x="452" y="209" width="110" height="37" fill="#D9F2FF" stroke="#7EC8F5" stroke-width="2" />
  <rect id="slot.choice.3.base.rect" x="685" y="209" width="110" height="37" fill="#D9F2FF" stroke="#7EC8F5" stroke-width="2" />
  <rect id="slot.answer.base.rect" x="57" y="367" width="110" height="37" fill="#D9F2FF" stroke="#7EC8F5" stroke-width="2" />
  <circle id="slot.choice.1.rule.mark.circle" cx="246" cy="206" r="1.2" stroke="#111111" stroke-width="2" fill="#444444" />
  <circle id="slot.choice.2.rule.mark.circle" cx="464" cy="206" r="1.2" stroke="#111111" stroke-width="2" fill="#444444" />
  <circle id="slot.choice.3.rule.mark.circle" cx="748" cy="206" r="1.2" stroke="#111111" stroke-width="2" fill="#444444" />
  <circle id="slot.answer.rule.mark.circle" cx="130" cy="366" r="1.2" stroke="#111111" stroke-width="2" fill="#444444" />
  <text id="slot.q_num.text" x="20" y="28" max_width="812" fill="#111111" font-family="Noto Sans KR, sans-serif" font-size="28">64.</text>
  <text id="slot.q_text.text" x="70" y="28" max_width="812" fill="#111111" font-family="Noto Sans KR, sans-serif" font-size="28">반지름이 3 cm인 원을 그리도록 컴퍼스를 벌린 것을 찾아 선택해 보세요.</text>
  <rect id="slot.choice.1.rule.base.rect" x="196" y="204" width="88" height="30" fill="#d9f2ff" stroke="#66bdf0" stroke-width="1.6" />
  <circle id="slot.choice.1.compass.joint.circle" cx="224" cy="122" r="3.2" stroke="#111111" stroke-width="2" fill="#8a8f98" />
  <rect id="slot.choice.1.compass.head.rect" x="220.8" y="102" width="6.4" height="16" fill="#a7acb3" stroke="#626871" stroke-width="1" rx="2" ry="2" />
  <path id="slot.choice.1.compass.left_outer.path" d="M 222.2 125.0 L 200.4 203.0" stroke="#7e8b97" stroke-width="3.2" fill="none" />
  <path id="slot.choice.1.compass.left_inner.path" d="M 223.4 125.0 L 201.6 203.0" stroke="#c8cfd6" stroke-width="1.2" fill="none" />
  <path id="slot.choice.1.compass.right_outer.path" d="M 225.8 125.0 L 247.6 203.0" stroke="#7e8b97" stroke-width="3.2" fill="none" />
  <path id="slot.choice.1.compass.right_inner.path" d="M 224.6 125.0 L 246.4 203.0" stroke="#c8cfd6" stroke-width="1.2" fill="none" />
  <circle id="slot.choice.1.compass.left_tip.circle" cx="202" cy="206" r="1.6" stroke="#111111" stroke-width="2" fill="#666666" />
  <circle id="slot.choice.1.compass.right_tip.circle" cx="246" cy="206" r="1.6" stroke="#111111" stroke-width="2" fill="#666666" />
  <rect id="slot.choice.2.rule.base.rect" x="436" y="204" width="88" height="30" fill="#d9f2ff" stroke="#66bdf0" stroke-width="1.6" />
  <circle id="slot.choice.2.compass.joint.circle" cx="464" cy="122" r="3.2" stroke="#111111" stroke-width="2" fill="#8a8f98" />
  <rect id="slot.choice.2.compass.head.rect" x="460.8" y="102" width="6.4" height="16" fill="#a7acb3" stroke="#626871" stroke-width="1" rx="2" ry="2" />
  <path id="slot.choice.2.compass.left_outer.path" d="M 462.2 125.0 L 440.4 203.0" stroke="#7e8b97" stroke-width="3.2" fill="none" />
  <path id="slot.choice.2.compass.left_inner.path" d="M 463.4 125.0 L 441.6 203.0" stroke="#c8cfd6" stroke-width="1.2" fill="none" />
  <path id="slot.choice.2.compass.right_outer.path" d="M 465.8 125.0 L 465.6 203.0" stroke="#7e8b97" stroke-width="3.2" fill="none" />
  <path id="slot.choice.2.compass.right_inner.path" d="M 464.6 125.0 L 464.4 203.0" stroke="#c8cfd6" stroke-width="1.2" fill="none" />
  <circle id="slot.choice.2.compass.left_tip.circle" cx="442" cy="206" r="1.6" stroke="#111111" stroke-width="2" fill="#666666" />
  <circle id="slot.choice.2.compass.right_tip.circle" cx="464" cy="206" r="1.6" stroke="#111111" stroke-width="2" fill="#666666" />
  <rect id="slot.choice.3.rule.base.rect" x="676" y="204" width="88" height="30" fill="#d9f2ff" stroke="#66bdf0" stroke-width="1.6" />
  <circle id="slot.choice.3.compass.joint.circle" cx="704" cy="122" r="3.2" stroke="#111111" stroke-width="2" fill="#8a8f98" />
  <rect id="slot.choice.3.compass.head.rect" x="700.8" y="102" width="6.4" height="16" fill="#a7acb3" stroke="#626871" stroke-width="1" rx="2" ry="2" />
  <path id="slot.choice.3.compass.left_outer.path" d="M 702.2 125.0 L 680.4 203.0" stroke="#7e8b97" stroke-width="3.2" fill="none" />
  <path id="slot.choice.3.compass.left_inner.path" d="M 703.4 125.0 L 681.6 203.0" stroke="#c8cfd6" stroke-width="1.2" fill="none" />
  <path id="slot.choice.3.compass.right_outer.path" d="M 705.8 125.0 L 749.6 203.0" stroke="#7e8b97" stroke-width="3.2" fill="none" />
  <path id="slot.choice.3.compass.right_inner.path" d="M 704.6 125.0 L 748.4 203.0" stroke="#c8cfd6" stroke-width="1.2" fill="none" />
  <circle id="slot.choice.3.compass.left_tip.circle" cx="682" cy="206" r="1.6" stroke="#111111" stroke-width="2" fill="#666666" />
  <circle id="slot.choice.3.compass.right_tip.circle" cx="748" cy="206" r="1.6" stroke="#111111" stroke-width="2" fill="#666666" />
  <line id="slot.choice.1.rule.top.line" x1="196" y1="206" x2="284" y2="206" stroke="#66bdf0" stroke-width="1.2" />
  <line id="slot.choice.1.rule.bottom.line" x1="196" y1="228" x2="284" y2="228" stroke="#66bdf0" stroke-width="1.2" />
  <line id="slot.choice.1.rule.major.0.line" x1="202" y1="206" x2="202" y2="216" stroke="#66bdf0" stroke-width="1.1" />
  <line id="slot.choice.1.rule.minor.0.1.line" x1="206.4" y1="206" x2="206.4" y2="211.5" stroke="#66bdf0" stroke-width="0.9" />
  <line id="slot.choice.1.rule.minor.0.2.line" x1="210.8" y1="206" x2="210.8" y2="213" stroke="#66bdf0" stroke-width="0.9" />
  <line id="slot.choice.1.rule.minor.0.3.line" x1="215.2" y1="206" x2="215.2" y2="211.5" stroke="#66bdf0" stroke-width="0.9" />
  <line id="slot.choice.1.rule.minor.0.4.line" x1="219.6" y1="206" x2="219.6" y2="211.5" stroke="#66bdf0" stroke-width="0.9" />
  <line id="slot.choice.1.rule.major.1.line" x1="224" y1="206" x2="224" y2="216" stroke="#66bdf0" stroke-width="1.1" />
  <line id="slot.choice.1.rule.minor.1.1.line" x1="228.4" y1="206" x2="228.4" y2="211.5" stroke="#66bdf0" stroke-width="0.9" />
  <line id="slot.choice.1.rule.minor.1.2.line" x1="232.8" y1="206" x2="232.8" y2="213" stroke="#66bdf0" stroke-width="0.9" />
  <line id="slot.choice.1.rule.minor.1.3.line" x1="237.2" y1="206" x2="237.2" y2="211.5" stroke="#66bdf0" stroke-width="0.9" />
  <line id="slot.choice.1.rule.minor.1.4.line" x1="241.6" y1="206" x2="241.6" y2="211.5" stroke="#66bdf0" stroke-width="0.9" />
  <line id="slot.choice.1.rule.major.2.line" x1="246" y1="206" x2="246" y2="216" stroke="#66bdf0" stroke-width="1.1" />
  <line id="slot.choice.1.rule.minor.2.1.line" x1="250.4" y1="206" x2="250.4" y2="211.5" stroke="#66bdf0" stroke-width="0.9" />
  <line id="slot.choice.1.rule.minor.2.2.line" x1="254.8" y1="206" x2="254.8" y2="213" stroke="#66bdf0" stroke-width="0.9" />
  <line id="slot.choice.1.rule.minor.2.3.line" x1="259.2" y1="206" x2="259.2" y2="211.5" stroke="#66bdf0" stroke-width="0.9" />
  <line id="slot.choice.1.rule.minor.2.4.line" x1="263.6" y1="206" x2="263.6" y2="211.5" stroke="#66bdf0" stroke-width="0.9" />
  <line id="slot.choice.1.rule.major.3.line" x1="268" y1="206" x2="268" y2="216" stroke="#66bdf0" stroke-width="1.1" />
  <line id="slot.choice.2.rule.top.line" x1="436" y1="206" x2="524" y2="206" stroke="#66bdf0" stroke-width="1.2" />
  <line id="slot.choice.2.rule.bottom.line" x1="436" y1="228" x2="524" y2="228" stroke="#66bdf0" stroke-width="1.2" />
  <line id="slot.choice.2.rule.major.0.line" x1="442" y1="206" x2="442" y2="216" stroke="#66bdf0" stroke-width="1.1" />
  <line id="slot.choice.2.rule.minor.0.1.line" x1="446.4" y1="206" x2="446.4" y2="211.5" stroke="#66bdf0" stroke-width="0.9" />
  <line id="slot.choice.2.rule.minor.0.2.line" x1="450.8" y1="206" x2="450.8" y2="213" stroke="#66bdf0" stroke-width="0.9" />
  <line id="slot.choice.2.rule.minor.0.3.line" x1="455.2" y1="206" x2="455.2" y2="211.5" stroke="#66bdf0" stroke-width="0.9" />
  <line id="slot.choice.2.rule.minor.0.4.line" x1="459.6" y1="206" x2="459.6" y2="211.5" stroke="#66bdf0" stroke-width="0.9" />
  <line id="slot.choice.2.rule.major.1.line" x1="464" y1="206" x2="464" y2="216" stroke="#66bdf0" stroke-width="1.1" />
  <line id="slot.choice.2.rule.minor.1.1.line" x1="468.4" y1="206" x2="468.4" y2="211.5" stroke="#66bdf0" stroke-width="0.9" />
  <line id="slot.choice.2.rule.minor.1.2.line" x1="472.8" y1="206" x2="472.8" y2="213" stroke="#66bdf0" stroke-width="0.9" />
  <line id="slot.choice.2.rule.minor.1.3.line" x1="477.2" y1="206" x2="477.2" y2="211.5" stroke="#66bdf0" stroke-width="0.9" />
  <line id="slot.choice.2.rule.minor.1.4.line" x1="481.6" y1="206" x2="481.6" y2="211.5" stroke="#66bdf0" stroke-width="0.9" />
  <line id="slot.choice.2.rule.major.2.line" x1="486" y1="206" x2="486" y2="216" stroke="#66bdf0" stroke-width="1.1" />
  <line id="slot.choice.2.rule.minor.2.1.line" x1="490.4" y1="206" x2="490.4" y2="211.5" stroke="#66bdf0" stroke-width="0.9" />
  <line id="slot.choice.2.rule.minor.2.2.line" x1="494.8" y1="206" x2="494.8" y2="213" stroke="#66bdf0" stroke-width="0.9" />
  <line id="slot.choice.2.rule.minor.2.3.line" x1="499.2" y1="206" x2="499.2" y2="211.5" stroke="#66bdf0" stroke-width="0.9" />
  <line id="slot.choice.2.rule.minor.2.4.line" x1="503.6" y1="206" x2="503.6" y2="211.5" stroke="#66bdf0" stroke-width="0.9" />
  <line id="slot.choice.2.rule.major.3.line" x1="508" y1="206" x2="508" y2="216" stroke="#66bdf0" stroke-width="1.1" />
  <line id="slot.choice.3.rule.top.line" x1="676" y1="206" x2="764" y2="206" stroke="#66bdf0" stroke-width="1.2" />
  <line id="slot.choice.3.rule.bottom.line" x1="676" y1="228" x2="764" y2="228" stroke="#66bdf0" stroke-width="1.2" />
  <line id="slot.choice.3.rule.major.0.line" x1="682" y1="206" x2="682" y2="216" stroke="#66bdf0" stroke-width="1.1" />
  <line id="slot.choice.3.rule.minor.0.1.line" x1="686.4" y1="206" x2="686.4" y2="211.5" stroke="#66bdf0" stroke-width="0.9" />
  <line id="slot.choice.3.rule.minor.0.2.line" x1="690.8" y1="206" x2="690.8" y2="213" stroke="#66bdf0" stroke-width="0.9" />
  <line id="slot.choice.3.rule.minor.0.3.line" x1="695.2" y1="206" x2="695.2" y2="211.5" stroke="#66bdf0" stroke-width="0.9" />
  <line id="slot.choice.3.rule.minor.0.4.line" x1="699.6" y1="206" x2="699.6" y2="211.5" stroke="#66bdf0" stroke-width="0.9" />
  <line id="slot.choice.3.rule.major.1.line" x1="704" y1="206" x2="704" y2="216" stroke="#66bdf0" stroke-width="1.1" />
  <line id="slot.choice.3.rule.minor.1.1.line" x1="708.4" y1="206" x2="708.4" y2="211.5" stroke="#66bdf0" stroke-width="0.9" />
  <line id="slot.choice.3.rule.minor.1.2.line" x1="712.8" y1="206" x2="712.8" y2="213" stroke="#66bdf0" stroke-width="0.9" />
  <line id="slot.choice.3.rule.minor.1.3.line" x1="717.2" y1="206" x2="717.2" y2="211.5" stroke="#66bdf0" stroke-width="0.9" />
  <line id="slot.choice.3.rule.minor.1.4.line" x1="721.6" y1="206" x2="721.6" y2="211.5" stroke="#66bdf0" stroke-width="0.9" />
  <line id="slot.choice.3.rule.major.2.line" x1="726" y1="206" x2="726" y2="216" stroke="#66bdf0" stroke-width="1.1" />
  <line id="slot.choice.3.rule.minor.2.1.line" x1="730.4" y1="206" x2="730.4" y2="211.5" stroke="#66bdf0" stroke-width="0.9" />
  <line id="slot.choice.3.rule.minor.2.2.line" x1="734.8" y1="206" x2="734.8" y2="213" stroke="#66bdf0" stroke-width="0.9" />
  <line id="slot.choice.3.rule.minor.2.3.line" x1="739.2" y1="206" x2="739.2" y2="211.5" stroke="#66bdf0" stroke-width="0.9" />
  <line id="slot.choice.3.rule.minor.2.4.line" x1="743.6" y1="206" x2="743.6" y2="211.5" stroke="#66bdf0" stroke-width="0.9" />
  <line id="slot.choice.3.rule.major.3.line" x1="748" y1="206" x2="748" y2="216" stroke="#66bdf0" stroke-width="1.1" />
  <text id="slot.choice.1.rule.num.0.text" x="199.5" y="227" max_width="812" fill="#111111" font-family="Noto Sans KR, sans-serif" font-size="20">0</text>
  <text id="slot.choice.1.rule.num.1.text" x="221.5" y="227" max_width="812" fill="#111111" font-family="Noto Sans KR, sans-serif" font-size="20">1</text>
  <text id="slot.choice.1.rule.num.2.text" x="243.5" y="227" max_width="812" fill="#111111" font-family="Noto Sans KR, sans-serif" font-size="20">2</text>
  <text id="slot.choice.1.rule.num.3.text" x="265.5" y="227" max_width="812" fill="#111111" font-family="Noto Sans KR, sans-serif" font-size="20">3</text>
  <text id="slot.choice.2.rule.num.0.text" x="439.5" y="227" max_width="812" fill="#111111" font-family="Noto Sans KR, sans-serif" font-size="20">0</text>
  <text id="slot.choice.2.rule.num.1.text" x="461.5" y="227" max_width="812" fill="#111111" font-family="Noto Sans KR, sans-serif" font-size="20">1</text>
  <text id="slot.choice.2.rule.num.2.text" x="483.5" y="227" max_width="812" fill="#111111" font-family="Noto Sans KR, sans-serif" font-size="20">2</text>
  <text id="slot.choice.2.rule.num.3.text" x="505.5" y="227" max_width="812" fill="#111111" font-family="Noto Sans KR, sans-serif" font-size="20">3</text>
  <text id="slot.choice.3.rule.num.0.text" x="679.5" y="227" max_width="812" fill="#111111" font-family="Noto Sans KR, sans-serif" font-size="20">0</text>
  <text id="slot.choice.3.rule.num.1.text" x="701.5" y="227" max_width="812" fill="#111111" font-family="Noto Sans KR, sans-serif" font-size="20">1</text>
  <text id="slot.choice.3.rule.num.2.text" x="723.5" y="227" max_width="812" fill="#111111" font-family="Noto Sans KR, sans-serif" font-size="20">2</text>
  <text id="slot.choice.3.rule.num.3.text" x="745.5" y="227" max_width="812" fill="#111111" font-family="Noto Sans KR, sans-serif" font-size="20">3</text>
  <rect id="slot.answer.rule.base.rect" x="58" y="364" width="88" height="30" fill="#d9f2ff" stroke="#66bdf0" stroke-width="1.6" />
  <circle id="slot.answer.compass.joint.circle" cx="86" cy="282" r="3.2" stroke="#111111" stroke-width="2" fill="#8a8f98" />
  <rect id="slot.answer.compass.head.rect" x="82.8" y="262" width="6.4" height="16" fill="#a7acb3" stroke="#626871" stroke-width="1" rx="2" ry="2" />
  <path id="slot.answer.compass.left_outer.path" d="M 84.2 285.0 L 62.4 363.0" stroke="#7e8b97" stroke-width="3.2" fill="none" />
  <path id="slot.answer.compass.left_inner.path" d="M 85.4 285.0 L 63.6 363.0" stroke="#c8cfd6" stroke-width="1.2" fill="none" />
  <path id="slot.answer.compass.right_outer.path" d="M 87.8 285.0 L 131.6 363.0" stroke="#7e8b97" stroke-width="3.2" fill="none" />
  <path id="slot.answer.compass.right_inner.path" d="M 86.6 285.0 L 130.4 363.0" stroke="#c8cfd6" stroke-width="1.2" fill="none" />
  <circle id="slot.answer.compass.left_tip.circle" cx="64" cy="366" r="1.6" stroke="#111111" stroke-width="2" fill="#666666" />
  <circle id="slot.answer.compass.right_tip.circle" cx="130" cy="366" r="1.6" stroke="#111111" stroke-width="2" fill="#666666" />
  <line id="slot.answer.rule.top.line" x1="58" y1="366" x2="146" y2="366" stroke="#66bdf0" stroke-width="1.2" />
  <line id="slot.answer.rule.bottom.line" x1="58" y1="388" x2="146" y2="388" stroke="#66bdf0" stroke-width="1.2" />
  <line id="slot.answer.rule.major.0.line" x1="64" y1="366" x2="64" y2="376" stroke="#66bdf0" stroke-width="1.1" />
  <line id="slot.answer.rule.minor.0.1.line" x1="68.4" y1="366" x2="68.4" y2="371.5" stroke="#66bdf0" stroke-width="0.9" />
  <line id="slot.answer.rule.minor.0.2.line" x1="72.8" y1="366" x2="72.8" y2="373" stroke="#66bdf0" stroke-width="0.9" />
  <line id="slot.answer.rule.minor.0.3.line" x1="77.2" y1="366" x2="77.2" y2="371.5" stroke="#66bdf0" stroke-width="0.9" />
  <line id="slot.answer.rule.minor.0.4.line" x1="81.6" y1="366" x2="81.6" y2="371.5" stroke="#66bdf0" stroke-width="0.9" />
  <line id="slot.answer.rule.major.1.line" x1="86" y1="366" x2="86" y2="376" stroke="#66bdf0" stroke-width="1.1" />
  <line id="slot.answer.rule.minor.1.1.line" x1="90.4" y1="366" x2="90.4" y2="371.5" stroke="#66bdf0" stroke-width="0.9" />
  <line id="slot.answer.rule.minor.1.2.line" x1="94.8" y1="366" x2="94.8" y2="373" stroke="#66bdf0" stroke-width="0.9" />
  <line id="slot.answer.rule.minor.1.3.line" x1="99.2" y1="366" x2="99.2" y2="371.5" stroke="#66bdf0" stroke-width="0.9" />
  <line id="slot.answer.rule.minor.1.4.line" x1="103.6" y1="366" x2="103.6" y2="371.5" stroke="#66bdf0" stroke-width="0.9" />
  <line id="slot.answer.rule.major.2.line" x1="108" y1="366" x2="108" y2="376" stroke="#66bdf0" stroke-width="1.1" />
  <line id="slot.answer.rule.minor.2.1.line" x1="112.4" y1="366" x2="112.4" y2="371.5" stroke="#66bdf0" stroke-width="0.9" />
  <line id="slot.answer.rule.minor.2.2.line" x1="116.8" y1="366" x2="116.8" y2="373" stroke="#66bdf0" stroke-width="0.9" />
  <line id="slot.answer.rule.minor.2.3.line" x1="121.2" y1="366" x2="121.2" y2="371.5" stroke="#66bdf0" stroke-width="0.9" />
  <line id="slot.answer.rule.minor.2.4.line" x1="125.6" y1="366" x2="125.6" y2="371.5" stroke="#66bdf0" stroke-width="0.9" />
  <line id="slot.answer.rule.major.3.line" x1="130" y1="366" x2="130" y2="376" stroke="#66bdf0" stroke-width="1.1" />
  <text id="slot.answer.label.text" x="10" y="328" max_width="812" fill="#111111" font-family="Noto Sans KR, sans-serif" font-size="28">(정답)</text>
  <text id="slot.answer.rule.num.0.text" x="61.5" y="387" max_width="812" fill="#111111" font-family="Noto Sans KR, sans-serif" font-size="20">0</text>
  <text id="slot.answer.rule.num.1.text" x="83.5" y="387" max_width="812" fill="#111111" font-family="Noto Sans KR, sans-serif" font-size="20">1</text>
  <text id="slot.answer.rule.num.2.text" x="105.5" y="387" max_width="812" fill="#111111" font-family="Noto Sans KR, sans-serif" font-size="20">2</text>
  <text id="slot.answer.rule.num.3.text" x="127.5" y="387" max_width="812" fill="#111111" font-family="Noto Sans KR, sans-serif" font-size="20">3</text>
  <text id="slot.explain.text.text" x="10" y="432" max_width="812" fill="#111111" font-family="Noto Sans KR, sans-serif" font-size="28">(해설) 오른쪽부터 차례로 2 cm, 1 cm, 3 cm만큼 벌렸습니다.</text>
</svg>
