<?xml version="1.0" encoding="UTF-8"?>
<svg xmlns="http://www.w3.org/2000/svg" width="952" height="378" viewBox="0 0 952 378">
  <metadata><problem_id>S3_초등_3_008851</problem_id></metadata>
  <rect x="0" y="0" width="952" height="378" fill="#FFFFFF" />
  <rect id="slot.lbl.orange.rect" x="410" y="100" width="64" height="26" fill="#ffffff" stroke="#111111" stroke-width="1.5" />
  <rect id="slot.lbl.banana.rect" x="520" y="100" width="64" height="26" fill="#ffffff" stroke="#111111" stroke-width="1.5" />
  <path id="slot.scale.pivot.path" d="M 465.0 124.0 L 470.0 124.0 L 470.0 168.0 L 465.0 168.0 Z" stroke="#111111" stroke-width="2" fill="none" />
  <circle id="slot.scale.orange.circle" cx="420" cy="132" r="22" stroke="#111111" stroke-width="2" fill="#F28C28" />
  <path id="slot.scale.banana.path" d="M 508.0 108.0 C 520.0 92.0, 544.0 92.0, 556.0 104.0 C 548.0 116.0, 530.0 123.0, 514.0 120.0 C 507.0 117.0, 504.0 111.0, 508.0 108.0 Z" stroke="#111111" stroke-width="2" fill="none" />
  <line id="slot.scale.arm.left.line" x1="469" y1="126" x2="430" y2="142" stroke="#111111" stroke-width="2" />
  <line id="slot.scale.arm.right.line" x1="471" y1="126" x2="515" y2="112" stroke="#111111" stroke-width="2" />
  <line id="slot.scale.pan.left.line" x1="417" y1="140" x2="442" y2="140" stroke="#111111" stroke-width="2" />
  <line id="slot.scale.pan.right.line" x1="506" y1="112" x2="532" y2="112" stroke="#111111" stroke-width="2" />
  <line id="slot.scale.string.left.line" x1="430" y1="142" x2="430" y2="170" stroke="#111111" stroke-width="2" />
  <line id="slot.scale.string.right.line" x1="520" y1="112" x2="520" y2="170" stroke="#111111" stroke-width="2" />
  <text id="slot.no.text" x="37" y="36" fill="#111111" font-family="Noto Sans KR, sans-serif" font-size="28">95.</text>
  <text id="slot.q1.text" x="82" y="36" fill="#111111" font-family="Noto Sans KR, sans-serif" font-size="28">저울을 사용하여 오렌지와 바나나의 무게를 비교했습니다.</text>
  <text id="slot.q2.text" x="82" y="70" fill="#111111" font-family="Noto Sans KR, sans-serif" font-size="28">오렌지와 바나나 중 더 무거운 것을 선택해 보세요.</text>
  <text id="slot.scale.base.text" x="0" y="0" fill="#111111" font-family="Noto Sans KR, sans-serif" font-size="28"></text>
</svg>
