<?xml version="1.0" encoding="UTF-8"?>
<svg xmlns="http://www.w3.org/2000/svg" width="920" height="860" viewBox="0 0 920 860">
  <metadata><problem_id>S3_초등_3_008732</problem_id></metadata>
  <rect x="0" y="0" width="920" height="860" fill="#FFFFFF" />
  <rect id="slot.q9.rect" x="326" y="52" width="66" height="82" fill="#ffffff" stroke="#111111" stroke-width="1.5" />
  <rect id="slot.q10.rect" x="476" y="52" width="66" height="82" fill="#ffffff" stroke="#111111" stroke-width="1.5" />
  <rect id="slot.q11.rect" x="626" y="52" width="66" height="82" fill="#ffffff" stroke="#111111" stroke-width="1.5" />
  <rect id="slot.q24.rect" x="304" y="252" width="92" height="44" fill="#ffffff" stroke="#111111" stroke-width="1.5" />
  <rect id="slot.q25.rect" x="454" y="252" width="92" height="44" fill="#ffffff" stroke="#111111" stroke-width="1.5" />
  <rect id="slot.q26.rect" x="604" y="252" width="92" height="44" fill="#ffffff" stroke="#111111" stroke-width="1.5" />
  <line id="slot.q18.line" x1="359" y1="134" x2="359" y2="230" stroke="#111111" stroke-width="2" />
  <line id="slot.q19.line" x1="509" y1="134" x2="509" y2="230" stroke="#111111" stroke-width="2" />
  <line id="slot.q20.line" x1="659" y1="134" x2="659" y2="230" stroke="#111111" stroke-width="2" />
  <line id="slot.q21.line" x1="359" y1="173" x2="509" y2="173" stroke="#111111" stroke-width="2" />
  <line id="slot.q22.line" x1="509" y1="202" x2="659" y2="202" stroke="#111111" stroke-width="2" />
  <line id="slot.q23.line" x1="359" y1="230" x2="509" y2="230" stroke="#111111" stroke-width="2" />
  <text id="slot.q1.text" x="14" y="26" fill="#111111" font-family="Noto Sans KR, sans-serif" font-size="28">71.</text>
  <text id="slot.q2.text" x="46" y="26" fill="#111111" font-family="Noto Sans KR, sans-serif" font-size="28">사다리를 타고 내려가 도착한 곳이 참이면</text>
  <text id="slot.q3.text" x="436" y="26" fill="#111111" font-family="Noto Sans KR, sans-serif" font-size="28">○</text>
  <text id="slot.q4.text" x="462" y="26" fill="#111111" font-family="Noto Sans KR, sans-serif" font-size="28">표,</text>
  <text id="slot.q5.text" x="528" y="26" fill="#111111" font-family="Noto Sans KR, sans-serif" font-size="28">거짓이면</text>
  <text id="slot.q6.text" x="642" y="26" fill="#111111" font-family="Noto Sans KR, sans-serif" font-size="28">×</text>
  <text id="slot.q7.text" x="668" y="26" fill="#111111" font-family="Noto Sans KR, sans-serif" font-size="28">표</text>
  <text id="slot.q8.text" x="708" y="26" fill="#111111" font-family="Noto Sans KR, sans-serif" font-size="28">하세요.</text>
  <text id="slot.q12.text" x="349" y="80" fill="#111111" font-family="Noto Sans KR, sans-serif" font-size="28">2</text>
  <text id="slot.q13.text" x="349" y="112" fill="#111111" font-family="Noto Sans KR, sans-serif" font-size="28">8</text>
  <text id="slot.q14.text" x="499" y="80" fill="#111111" font-family="Noto Sans KR, sans-serif" font-size="28">9</text>
  <text id="slot.q15.text" x="493" y="112" fill="#111111" font-family="Noto Sans KR, sans-serif" font-size="28">10</text>
  <text id="slot.q16.text" x="649" y="80" fill="#111111" font-family="Noto Sans KR, sans-serif" font-size="28">4</text>
  <text id="slot.q17.text" x="649" y="112" fill="#111111" font-family="Noto Sans KR, sans-serif" font-size="28">4</text>
  <text id="slot.q27.text" x="314" y="284" fill="#111111" font-family="Noto Sans KR, sans-serif" font-size="28">가분수</text>
  <text id="slot.q28.text" x="464" y="284" fill="#111111" font-family="Noto Sans KR, sans-serif" font-size="28">가분수</text>
  <text id="slot.q29.text" x="614" y="284" fill="#111111" font-family="Noto Sans KR, sans-serif" font-size="28">진분수</text>
  <text id="slot.q30.text" x="294" y="350" fill="#111111" font-family="Noto Sans KR, sans-serif" font-size="28">(○, ×)</text>
  <text id="slot.q31.text" x="444" y="350" fill="#111111" font-family="Noto Sans KR, sans-serif" font-size="28">(○, ×)</text>
  <text id="slot.q32.text" x="594" y="350" fill="#111111" font-family="Noto Sans KR, sans-serif" font-size="28">(○, ×)</text>
  <text id="slot.q34.text" x="76" y="396" fill="#111111" font-family="Noto Sans KR, sans-serif" font-size="28">○, ×, ○</text>
  <text id="slot.q36.text" x="66" y="448" fill="#111111" font-family="Noto Sans KR, sans-serif" font-size="28">2/8</text>
  <text id="slot.q37.text" x="142" y="448" fill="#111111" font-family="Noto Sans KR, sans-serif" font-size="28">진분수</text>
  <text id="slot.q38.text" x="274" y="448" fill="#111111" font-family="Noto Sans KR, sans-serif" font-size="28">9/10</text>
  <text id="slot.q39.text" x="360" y="448" fill="#111111" font-family="Noto Sans KR, sans-serif" font-size="28">진분수</text>
  <text id="slot.q40.text" x="476" y="448" fill="#111111" font-family="Noto Sans KR, sans-serif" font-size="28">4/4</text>
  <text id="slot.q41.text" x="552" y="448" fill="#111111" font-family="Noto Sans KR, sans-serif" font-size="28">가분수</text>
  <text id="slot.q42.text" x="106" y="440" fill="#111111" font-family="Noto Sans KR, sans-serif" font-size="28">→</text>
  <text id="slot.q43.text" x="298" y="440" fill="#111111" font-family="Noto Sans KR, sans-serif" font-size="28">→</text>
  <text id="slot.q44.text" x="434" y="440" fill="#111111" font-family="Noto Sans KR, sans-serif" font-size="28">→</text>
  <rect id="slot.b1.rect" x="326" y="486" width="66" height="82" fill="#ffffff" stroke="#111111" stroke-width="1.5" />
  <rect id="slot.b2.rect" x="476" y="486" width="66" height="82" fill="#ffffff" stroke="#111111" stroke-width="1.5" />
  <rect id="slot.b3.rect" x="626" y="486" width="66" height="82" fill="#ffffff" stroke="#111111" stroke-width="1.5" />
  <rect id="slot.b19.rect" x="304" y="690" width="92" height="44" fill="#ffffff" stroke="#111111" stroke-width="1.5" />
  <rect id="slot.b20.rect" x="454" y="690" width="92" height="44" fill="#ffffff" stroke="#111111" stroke-width="1.5" />
  <rect id="slot.b21.rect" x="604" y="690" width="92" height="44" fill="#ffffff" stroke="#111111" stroke-width="1.5" />
  <line id="slot.b10.line" x1="359" y1="568" x2="359" y2="688" stroke="#111111" stroke-width="2" />
  <line id="slot.b11.line" x1="509" y1="568" x2="509" y2="688" stroke="#111111" stroke-width="2" />
  <line id="slot.b12.line" x1="659" y1="568" x2="659" y2="688" stroke="#111111" stroke-width="2" />
  <line id="slot.b13.line" x1="359" y1="596" x2="509" y2="596" stroke="#111111" stroke-width="2" />
  <line id="slot.b14.line" x1="359" y1="624" x2="509" y2="624" stroke="#111111" stroke-width="2" />
  <line id="slot.b15.line" x1="509" y1="624" x2="659" y2="624" stroke="#111111" stroke-width="2" />
  <line id="slot.b16.line" x1="359" y1="596" x2="359" y2="688" stroke="#111111" stroke-width="2" />
  <line id="slot.b17.line" x1="509" y1="596" x2="509" y2="688" stroke="#111111" stroke-width="2" />
  <line id="slot.b18.line" x1="659" y1="596" x2="659" y2="688" stroke="#111111" stroke-width="2" />
  <line id="slot.b25.line" x1="334" y1="568" x2="334" y2="690" stroke="#111111" stroke-width="2" />
  <line id="slot.b26.line" x1="484" y1="568" x2="484" y2="690" stroke="#111111" stroke-width="2" />
  <line id="slot.b27.line" x1="634" y1="568" x2="634" y2="690" stroke="#111111" stroke-width="2" />
  <line id="slot.b28.line" x1="334" y1="598" x2="484" y2="598" stroke="#111111" stroke-width="2" />
  <line id="slot.b29.line" x1="484" y1="628" x2="634" y2="628" stroke="#111111" stroke-width="2" />
  <line id="slot.b30.line" x1="334" y1="598" x2="334" y2="690" stroke="#111111" stroke-width="2" />
  <line id="slot.b31.line" x1="484" y1="598" x2="484" y2="690" stroke="#111111" stroke-width="2" />
  <line id="slot.b32.line" x1="634" y1="598" x2="634" y2="690" stroke="#111111" stroke-width="2" />
  <line id="slot.b33.line" x1="334" y1="598" x2="484" y2="598" stroke="#111111" stroke-width="2" />
  <line id="slot.b34.line" x1="484" y1="598" x2="484" y2="624" stroke="#111111" stroke-width="2" />
  <line id="slot.b35.line" x1="484" y1="624" x2="634" y2="624" stroke="#111111" stroke-width="2" />
  <line id="slot.b36.line" x1="334" y1="612" x2="334" y2="690" stroke="#111111" stroke-width="2" />
  <line id="slot.b37.line" x1="484" y1="612" x2="484" y2="690" stroke="#111111" stroke-width="2" />
  <line id="slot.b38.line" x1="634" y1="612" x2="634" y2="690" stroke="#111111" stroke-width="2" />
  <text id="slot.b4.text" x="349" y="514" fill="#111111" font-family="Noto Sans KR, sans-serif" font-size="28">2</text>
  <text id="slot.b5.text" x="349" y="546" fill="#111111" font-family="Noto Sans KR, sans-serif" font-size="28">8</text>
  <text id="slot.b6.text" x="499" y="514" fill="#111111" font-family="Noto Sans KR, sans-serif" font-size="28">9</text>
  <text id="slot.b7.text" x="493" y="546" fill="#111111" font-family="Noto Sans KR, sans-serif" font-size="28">10</text>
  <text id="slot.b8.text" x="649" y="514" fill="#111111" font-family="Noto Sans KR, sans-serif" font-size="28">4</text>
  <text id="slot.b9.text" x="649" y="546" fill="#111111" font-family="Noto Sans KR, sans-serif" font-size="28">4</text>
  <text id="slot.b22.text" x="314" y="722" fill="#111111" font-family="Noto Sans KR, sans-serif" font-size="28">가분수</text>
  <text id="slot.b23.text" x="464" y="722" fill="#111111" font-family="Noto Sans KR, sans-serif" font-size="28">가분수</text>
  <text id="slot.b24.text" x="614" y="722" fill="#111111" font-family="Noto Sans KR, sans-serif" font-size="28">진분수</text>
  <text id="slot.b39.text" x="0" y="0" fill="#111111" font-family="Noto Sans KR, sans-serif" font-size="28"></text>
</svg>
