<?xml version="1.0" encoding="UTF-8"?>
<svg xmlns="http://www.w3.org/2000/svg" width="766" height="396" viewBox="0 0 766 396">
  <metadata><problem_id>S3_초등_3_008582</problem_id></metadata>
  <rect x="0" y="0" width="766" height="396" fill="#FFFFFF" />
  <text id="slot.q_text.text" x="60" y="37" max_width="638" fill="#111111" font-family="Noto Sans KR, sans-serif" font-size="28">계산 결과가 더 큰 사람의 이름을 선택해 보세요.</text>
  <polygon id="slot.person_left.body.polygon" points="332,192 402,192 391,139 343,139" stroke="none" stroke-width="2" fill="#d28bc8" />
  <circle id="slot.person_left.ear.left.circle" cx="336" cy="100" r="9" stroke="none" stroke-width="2" fill="#ffd8b3" />
  <circle id="slot.person_left.ear.right.circle" cx="398" cy="100" r="9" stroke="none" stroke-width="2" fill="#ffd8b3" />
  <circle id="slot.person_left.head.circle" cx="367" cy="97" r="29" stroke="none" stroke-width="2" fill="#ffd8b3" />
  <path id="slot.person_left.hair.cap.path" d="M 338 96 C 340 65, 395 62, 397 96 C 382 79, 370 89, 363 77 C 355 90, 345 79, 338 96 Z" stroke="none" stroke-width="2" fill="#4b1f16" />
  <circle id="slot.person_left.eye.left.circle" cx="357" cy="103" r="3.8" stroke="none" stroke-width="2" fill="#2b2118" />
  <circle id="slot.person_left.eye.right.circle" cx="377" cy="103" r="3.8" stroke="none" stroke-width="2" fill="#2b2118" />
  <path id="slot.person_left.smile.path" d="M 359 115 Q 367 122 375 115" stroke="#b76b3a" stroke-width="1.6" fill="none" />
  <rect id="slot.name_left_box.rect" x="207" y="116" width="70" height="38" fill="#ffffff" stroke="#b8c7dc" stroke-width="1.8" rx="8" ry="8" />
  <rect id="slot.card_left.rect" x="306" y="136" width="130" height="59" fill="#F6C344" stroke="#111111" stroke-width="1.5" />
  <circle id="slot.person_left.hand.left.circle" cx="301" cy="167" r="5" stroke="none" stroke-width="2" fill="#ffd8b3" />
  <circle id="slot.person_left.hand.right.circle" cx="441" cy="167" r="5" stroke="none" stroke-width="2" fill="#ffd8b3" />
  <text id="slot.name_left.text" x="222" y="143" max_width="638" fill="#111111" font-family="Noto Sans KR, sans-serif" font-size="25">진수</text>
  <text id="slot.card_left_text.text" x="330" y="171" max_width="638" fill="#111111" font-family="Noto Sans KR, sans-serif" font-size="25">63 × 12</text>
  <polygon id="slot.person_right.body.polygon" points="547,192 617,192 606,139 558,139" stroke="none" stroke-width="2" fill="#e85d50" />
  <circle id="slot.person_right.ear.left.circle" cx="551" cy="100" r="9" stroke="none" stroke-width="2" fill="#ffd8b3" />
  <circle id="slot.person_right.ear.right.circle" cx="613" cy="100" r="9" stroke="none" stroke-width="2" fill="#ffd8b3" />
  <circle id="slot.person_right.head.circle" cx="582" cy="97" r="29" stroke="none" stroke-width="2" fill="#ffd8b3" />
  <path id="slot.person_right.hair.cap.path" d="M 553 96 C 555 65, 610 62, 612 96 C 597 79, 585 89, 578 77 C 570 90, 560 79, 553 96 Z" stroke="none" stroke-width="2" fill="#1d1714" />
  <circle id="slot.person_right.eye.left.circle" cx="572" cy="103" r="3.8" stroke="none" stroke-width="2" fill="#2b2118" />
  <circle id="slot.person_right.eye.right.circle" cx="592" cy="103" r="3.8" stroke="none" stroke-width="2" fill="#2b2118" />
  <path id="slot.person_right.smile.path" d="M 574 115 Q 582 122 590 115" stroke="#b76b3a" stroke-width="1.6" fill="none" />
  <circle id="slot.person_right.glasses.left.circle" cx="571" cy="102" r="13" stroke="#27b7be" stroke-width="3" fill="none" />
  <circle id="slot.person_right.glasses.right.circle" cx="593" cy="102" r="13" stroke="#27b7be" stroke-width="3" fill="none" />
  <rect id="slot.name_right_box.rect" x="676" y="112" width="72" height="38" fill="#ffffff" stroke="#b8c7dc" stroke-width="1.8" rx="8" ry="8" />
  <rect id="slot.card_right.rect" x="522" y="136" width="130" height="59" fill="#F6C344" stroke="#111111" stroke-width="1.5" />
  <circle id="slot.person_right.hand.left.circle" cx="517" cy="167" r="5" stroke="none" stroke-width="2" fill="#ffd8b3" />
  <circle id="slot.person_right.hand.right.circle" cx="657" cy="167" r="5" stroke="none" stroke-width="2" fill="#ffd8b3" />
  <line id="slot.person_right.glasses.bridge.line" x1="581" y1="102" x2="583" y2="102" stroke="#27b7be" stroke-width="3" />
  <text id="slot.name_right.text" x="690" y="139" max_width="638" fill="#111111" font-family="Noto Sans KR, sans-serif" font-size="25">수호</text>
  <text id="slot.card_right_text.text" x="545" y="171" max_width="638" fill="#111111" font-family="Noto Sans KR, sans-serif" font-size="25">24 × 31</text>
</svg>
