<?xml version="1.0" encoding="UTF-8"?>
<svg xmlns="http://www.w3.org/2000/svg" width="702" height="574" viewBox="0 0 702 574">
  <metadata><problem_id>S3_초등_3_009055</problem_id></metadata>
  <rect x="0" y="0" width="702" height="574" fill="#FFFFFF" />
  <text id="slot.title.no.text" x="10" y="18" fill="#111111" font-family="Noto Sans KR, sans-serif" font-size="28">93.</text>
  <text id="slot.title.text.text" x="50" y="18" fill="#111111" font-family="Noto Sans KR, sans-serif" font-size="28">직각이 있는 삼각형을 모두 선택하세요.</text>
  <line id="slot.top.grid.v1.line" x1="168" y1="38" x2="168" y2="300" stroke="#111111" stroke-width="2" />
  <line id="slot.top.grid.v2.line" x1="192" y1="38" x2="192" y2="300" stroke="#111111" stroke-width="2" />
  <line id="slot.top.grid.v3.line" x1="216" y1="38" x2="216" y2="300" stroke="#111111" stroke-width="2" />
  <line id="slot.top.grid.v4.line" x1="240" y1="38" x2="240" y2="300" stroke="#111111" stroke-width="2" />
  <line id="slot.top.grid.v5.line" x1="264" y1="38" x2="264" y2="300" stroke="#111111" stroke-width="2" />
  <line id="slot.top.grid.v6.line" x1="288" y1="38" x2="288" y2="300" stroke="#111111" stroke-width="2" />
  <line id="slot.top.grid.v7.line" x1="312" y1="38" x2="312" y2="300" stroke="#111111" stroke-width="2" />
  <line id="slot.top.grid.v8.line" x1="336" y1="38" x2="336" y2="300" stroke="#111111" stroke-width="2" />
  <line id="slot.top.grid.v9.line" x1="360" y1="38" x2="360" y2="300" stroke="#111111" stroke-width="2" />
  <line id="slot.top.grid.v10.line" x1="384" y1="38" x2="384" y2="300" stroke="#111111" stroke-width="2" />
  <line id="slot.top.grid.v11.line" x1="408" y1="38" x2="408" y2="300" stroke="#111111" stroke-width="2" />
  <line id="slot.top.grid.v12.line" x1="432" y1="38" x2="432" y2="300" stroke="#111111" stroke-width="2" />
  <line id="slot.top.grid.v13.line" x1="456" y1="38" x2="456" y2="300" stroke="#111111" stroke-width="2" />
  <line id="slot.top.grid.v14.line" x1="480" y1="38" x2="480" y2="300" stroke="#111111" stroke-width="2" />
  <line id="slot.top.grid.v15.line" x1="504" y1="38" x2="504" y2="300" stroke="#111111" stroke-width="2" />
  <line id="slot.top.grid.v16.line" x1="528" y1="38" x2="528" y2="300" stroke="#111111" stroke-width="2" />
  <line id="slot.top.grid.h1.line" x1="168" y1="38" x2="528" y2="38" stroke="#111111" stroke-width="2" />
  <line id="slot.top.grid.h2.line" x1="168" y1="62" x2="528" y2="62" stroke="#111111" stroke-width="2" />
  <line id="slot.top.grid.h3.line" x1="168" y1="86" x2="528" y2="86" stroke="#111111" stroke-width="2" />
  <line id="slot.top.grid.h4.line" x1="168" y1="110" x2="528" y2="110" stroke="#111111" stroke-width="2" />
  <line id="slot.top.grid.h5.line" x1="168" y1="134" x2="528" y2="134" stroke="#111111" stroke-width="2" />
  <line id="slot.top.grid.h6.line" x1="168" y1="158" x2="528" y2="158" stroke="#111111" stroke-width="2" />
  <line id="slot.top.grid.h7.line" x1="168" y1="182" x2="528" y2="182" stroke="#111111" stroke-width="2" />
  <line id="slot.top.grid.h8.line" x1="168" y1="206" x2="528" y2="206" stroke="#111111" stroke-width="2" />
  <line id="slot.top.grid.h9.line" x1="168" y1="230" x2="528" y2="230" stroke="#111111" stroke-width="2" />
  <line id="slot.top.grid.h10.line" x1="168" y1="254" x2="528" y2="254" stroke="#111111" stroke-width="2" />
  <line id="slot.top.grid.h11.line" x1="168" y1="278" x2="528" y2="278" stroke="#111111" stroke-width="2" />
  <line id="slot.top.grid.h12.line" x1="168" y1="302" x2="528" y2="302" stroke="#111111" stroke-width="2" />
  <line id="slot.top.grid.h13.line" x1="168" y1="326" x2="528" y2="326" stroke="#111111" stroke-width="2" />
  <line id="slot.top.grid.h14.line" x1="168" y1="350" x2="528" y2="350" stroke="#111111" stroke-width="2" />
  <line id="slot.top.grid.h15.line" x1="168" y1="374" x2="528" y2="374" stroke="#111111" stroke-width="2" />
  <line id="slot.top.grid.h16.line" x1="168" y1="398" x2="528" y2="398" stroke="#111111" stroke-width="2" />
  <line id="slot.top.grid.h17.line" x1="168" y1="422" x2="528" y2="422" stroke="#111111" stroke-width="2" />
  <line id="slot.top.grid.h18.line" x1="168" y1="446" x2="528" y2="446" stroke="#111111" stroke-width="2" />
  <line id="slot.top.grid.h19.line" x1="168" y1="470" x2="528" y2="470" stroke="#111111" stroke-width="2" />
  <line id="slot.top.grid.h20.line" x1="168" y1="494" x2="528" y2="494" stroke="#111111" stroke-width="2" />
  <line id="slot.top.grid.h21.line" x1="168" y1="518" x2="528" y2="518" stroke="#111111" stroke-width="2" />
  <line id="slot.top.grid.h22.line" x1="168" y1="542" x2="528" y2="542" stroke="#111111" stroke-width="2" />
  <line id="slot.top.grid.h23.line" x1="168" y1="566" x2="528" y2="566" stroke="#111111" stroke-width="2" />
  <line id="slot.top.grid.h24.line" x1="168" y1="590" x2="528" y2="590" stroke="#111111" stroke-width="2" />
  <line id="slot.top.grid.h25.line" x1="168" y1="614" x2="528" y2="614" stroke="#111111" stroke-width="2" />
  <line id="slot.top.grid.h26.line" x1="168" y1="638" x2="528" y2="638" stroke="#111111" stroke-width="2" />
  <line id="slot.top.grid.h27.line" x1="168" y1="662" x2="528" y2="662" stroke="#111111" stroke-width="2" />
  <line id="slot.top.grid.h28.line" x1="168" y1="686" x2="528" y2="686" stroke="#111111" stroke-width="2" />
  <line id="slot.top.grid.h29.line" x1="168" y1="710" x2="528" y2="710" stroke="#111111" stroke-width="2" />
  <line id="slot.top.grid.h30.line" x1="168" y1="734" x2="528" y2="734" stroke="#111111" stroke-width="2" />
  <line id="slot.top.grid.h31.line" x1="168" y1="758" x2="528" y2="758" stroke="#111111" stroke-width="2" />
  <line id="slot.top.grid.h32.line" x1="168" y1="782" x2="528" y2="782" stroke="#111111" stroke-width="2" />
  <line id="slot.top.a1.line" x1="194" y1="109" x2="240" y2="63" stroke="#111111" stroke-width="2" />
  <line id="slot.top.a2.line" x1="240" y1="63" x2="278" y2="109" stroke="#111111" stroke-width="2" />
  <line id="slot.top.a3.line" x1="194" y1="109" x2="278" y2="109" stroke="#111111" stroke-width="2" />
  <line id="slot.top.b1.line" x1="313" y1="63" x2="313" y2="109" stroke="#111111" stroke-width="2" />
  <line id="slot.top.b2.line" x1="313" y1="63" x2="361" y2="63" stroke="#111111" stroke-width="2" />
  <line id="slot.top.b3.line" x1="313" y1="109" x2="361" y2="63" stroke="#111111" stroke-width="2" />
  <line id="slot.top.c1.line" x1="442" y1="109" x2="513" y2="63" stroke="#111111" stroke-width="2" />
  <line id="slot.top.c2.line" x1="513" y1="63" x2="489" y2="109" stroke="#111111" stroke-width="2" />
  <line id="slot.top.c3.line" x1="442" y1="109" x2="489" y2="109" stroke="#111111" stroke-width="2" />
  <line id="slot.top.d1.line" x1="194" y1="219" x2="241" y2="173" stroke="#111111" stroke-width="2" />
  <line id="slot.top.d2.line" x1="241" y1="173" x2="241" y2="265" stroke="#111111" stroke-width="2" />
  <line id="slot.top.d3.line" x1="194" y1="219" x2="241" y2="265" stroke="#111111" stroke-width="2" />
  <line id="slot.top.e1.line" x1="313" y1="265" x2="360" y2="265" stroke="#111111" stroke-width="2" />
  <line id="slot.top.e2.line" x1="360" y1="265" x2="336" y2="173" stroke="#111111" stroke-width="2" />
  <line id="slot.top.e3.line" x1="336" y1="173" x2="313" y2="265" stroke="#111111" stroke-width="2" />
  <line id="slot.top.f1.line" x1="441" y1="265" x2="513" y2="219" stroke="#111111" stroke-width="2" />
  <line id="slot.top.f2.line" x1="513" y1="219" x2="513" y2="265" stroke="#111111" stroke-width="2" />
  <line id="slot.top.f3.line" x1="441" y1="265" x2="513" y2="265" stroke="#111111" stroke-width="2" />
  <text id="slot.top.label.g.text" x="225" y="92" fill="#111111" font-family="Noto Sans KR, sans-serif" font-size="28">가</text>
  <text id="slot.top.label.n.text" x="338" y="92" fill="#111111" font-family="Noto Sans KR, sans-serif" font-size="28">나</text>
  <text id="slot.top.label.d.text" x="468" y="92" fill="#111111" font-family="Noto Sans KR, sans-serif" font-size="28">다</text>
  <text id="slot.top.label.r.text" x="224" y="223" fill="#111111" font-family="Noto Sans KR, sans-serif" font-size="28">라</text>
  <text id="slot.top.label.m.text" x="337" y="224" fill="#111111" font-family="Noto Sans KR, sans-serif" font-size="28">마</text>
  <text id="slot.top.label.b.text" x="469" y="251" fill="#111111" font-family="Noto Sans KR, sans-serif" font-size="28">바</text>
  <line id="slot.bottom.grid.v1.line" x1="52" y1="360" x2="52" y2="564" stroke="#111111" stroke-width="2" />
  <line id="slot.bottom.grid.v2.line" x1="76" y1="360" x2="76" y2="564" stroke="#111111" stroke-width="2" />
  <line id="slot.bottom.grid.v3.line" x1="100" y1="360" x2="100" y2="564" stroke="#111111" stroke-width="2" />
  <line id="slot.bottom.grid.v4.line" x1="124" y1="360" x2="124" y2="564" stroke="#111111" stroke-width="2" />
  <line id="slot.bottom.grid.v5.line" x1="148" y1="360" x2="148" y2="564" stroke="#111111" stroke-width="2" />
  <line id="slot.bottom.grid.v6.line" x1="172" y1="360" x2="172" y2="564" stroke="#111111" stroke-width="2" />
  <line id="slot.bottom.grid.v7.line" x1="196" y1="360" x2="196" y2="564" stroke="#111111" stroke-width="2" />
  <line id="slot.bottom.grid.v8.line" x1="220" y1="360" x2="220" y2="564" stroke="#111111" stroke-width="2" />
  <line id="slot.bottom.grid.v9.line" x1="244" y1="360" x2="244" y2="564" stroke="#111111" stroke-width="2" />
  <line id="slot.bottom.grid.v10.line" x1="268" y1="360" x2="268" y2="564" stroke="#111111" stroke-width="2" />
  <line id="slot.bottom.grid.v11.line" x1="292" y1="360" x2="292" y2="564" stroke="#111111" stroke-width="2" />
  <line id="slot.bottom.grid.v12.line" x1="316" y1="360" x2="316" y2="564" stroke="#111111" stroke-width="2" />
  <line id="slot.bottom.grid.v13.line" x1="340" y1="360" x2="340" y2="564" stroke="#111111" stroke-width="2" />
  <line id="slot.bottom.grid.v14.line" x1="364" y1="360" x2="364" y2="564" stroke="#111111" stroke-width="2" />
  <line id="slot.bottom.grid.v15.line" x1="388" y1="360" x2="388" y2="564" stroke="#111111" stroke-width="2" />
  <line id="slot.bottom.grid.v16.line" x1="412" y1="360" x2="412" y2="564" stroke="#111111" stroke-width="2" />
  <line id="slot.bottom.grid.h1.line" x1="52" y1="360" x2="412" y2="360" stroke="#111111" stroke-width="2" />
  <line id="slot.bottom.grid.h2.line" x1="52" y1="384" x2="412" y2="384" stroke="#111111" stroke-width="2" />
  <line id="slot.bottom.grid.h3.line" x1="52" y1="408" x2="412" y2="408" stroke="#111111" stroke-width="2" />
  <line id="slot.bottom.grid.h4.line" x1="52" y1="432" x2="412" y2="432" stroke="#111111" stroke-width="2" />
  <line id="slot.bottom.grid.h5.line" x1="52" y1="456" x2="412" y2="456" stroke="#111111" stroke-width="2" />
  <line id="slot.bottom.grid.h6.line" x1="52" y1="480" x2="412" y2="480" stroke="#111111" stroke-width="2" />
  <line id="slot.bottom.grid.h7.line" x1="52" y1="504" x2="412" y2="504" stroke="#111111" stroke-width="2" />
  <line id="slot.bottom.grid.h8.line" x1="52" y1="528" x2="412" y2="528" stroke="#111111" stroke-width="2" />
  <line id="slot.bottom.grid.h9.line" x1="52" y1="552" x2="412" y2="552" stroke="#111111" stroke-width="2" />
  <line id="slot.bottom.grid.h10.line" x1="52" y1="576" x2="412" y2="576" stroke="#111111" stroke-width="2" />
  <line id="slot.bottom.grid.h11.line" x1="52" y1="600" x2="412" y2="600" stroke="#111111" stroke-width="2" />
  <line id="slot.bottom.grid.h12.line" x1="52" y1="624" x2="412" y2="624" stroke="#111111" stroke-width="2" />
  <line id="slot.bottom.grid.h13.line" x1="52" y1="648" x2="412" y2="648" stroke="#111111" stroke-width="2" />
  <line id="slot.bottom.grid.h14.line" x1="52" y1="672" x2="412" y2="672" stroke="#111111" stroke-width="2" />
  <line id="slot.bottom.grid.h15.line" x1="52" y1="696" x2="412" y2="696" stroke="#111111" stroke-width="2" />
  <line id="slot.bottom.grid.h16.line" x1="52" y1="720" x2="412" y2="720" stroke="#111111" stroke-width="2" />
  <line id="slot.bottom.grid.h17.line" x1="52" y1="744" x2="412" y2="744" stroke="#111111" stroke-width="2" />
  <line id="slot.bottom.grid.h18.line" x1="52" y1="768" x2="412" y2="768" stroke="#111111" stroke-width="2" />
  <line id="slot.bottom.grid.h19.line" x1="52" y1="792" x2="412" y2="792" stroke="#111111" stroke-width="2" />
  <line id="slot.bottom.grid.h20.line" x1="52" y1="816" x2="412" y2="816" stroke="#111111" stroke-width="2" />
  <line id="slot.bottom.grid.h21.line" x1="52" y1="840" x2="412" y2="840" stroke="#111111" stroke-width="2" />
  <line id="slot.bottom.grid.h22.line" x1="52" y1="864" x2="412" y2="864" stroke="#111111" stroke-width="2" />
  <line id="slot.bottom.grid.h23.line" x1="52" y1="888" x2="412" y2="888" stroke="#111111" stroke-width="2" />
  <line id="slot.bottom.grid.h24.line" x1="52" y1="912" x2="412" y2="912" stroke="#111111" stroke-width="2" />
  <line id="slot.bottom.grid.h25.line" x1="52" y1="936" x2="412" y2="936" stroke="#111111" stroke-width="2" />
  <line id="slot.bottom.grid.h26.line" x1="52" y1="960" x2="412" y2="960" stroke="#111111" stroke-width="2" />
  <line id="slot.bottom.grid.h27.line" x1="52" y1="984" x2="412" y2="984" stroke="#111111" stroke-width="2" />
  <line id="slot.bottom.grid.h28.line" x1="52" y1="1008" x2="412" y2="1008" stroke="#111111" stroke-width="2" />
  <line id="slot.bottom.grid.h29.line" x1="52" y1="1032" x2="412" y2="1032" stroke="#111111" stroke-width="2" />
  <line id="slot.bottom.grid.h30.line" x1="52" y1="1056" x2="412" y2="1056" stroke="#111111" stroke-width="2" />
  <line id="slot.bottom.grid.h31.line" x1="52" y1="1080" x2="412" y2="1080" stroke="#111111" stroke-width="2" />
  <line id="slot.bottom.grid.h32.line" x1="52" y1="1104" x2="412" y2="1104" stroke="#111111" stroke-width="2" />
  <line id="slot.bottom.a1.line" x1="83" y1="436" x2="127" y2="390" stroke="#111111" stroke-width="2" />
  <line id="slot.bottom.a2.line" x1="127" y1="390" x2="171" y2="436" stroke="#111111" stroke-width="2" />
  <line id="slot.bottom.a3.line" x1="83" y1="436" x2="171" y2="436" stroke="#111111" stroke-width="2" />
  <line id="slot.bottom.b1.line" x1="198" y1="390" x2="198" y2="436" stroke="#111111" stroke-width="2" />
  <line id="slot.bottom.b2.line" x1="198" y1="390" x2="285" y2="390" stroke="#111111" stroke-width="2" />
  <line id="slot.bottom.b3.line" x1="198" y1="436" x2="285" y2="390" stroke="#111111" stroke-width="2" />
  <line id="slot.bottom.c1.line" x1="319" y1="436" x2="385" y2="390" stroke="#111111" stroke-width="2" />
  <line id="slot.bottom.c2.line" x1="385" y1="390" x2="363" y2="436" stroke="#111111" stroke-width="2" />
  <line id="slot.bottom.c3.line" x1="319" y1="436" x2="363" y2="436" stroke="#111111" stroke-width="2" />
  <line id="slot.bottom.d1.line" x1="83" y1="546" x2="127" y2="500" stroke="#111111" stroke-width="2" />
  <line id="slot.bottom.d2.line" x1="127" y1="500" x2="127" y2="592" stroke="#111111" stroke-width="2" />
  <line id="slot.bottom.d3.line" x1="83" y1="546" x2="127" y2="592" stroke="#111111" stroke-width="2" />
  <line id="slot.bottom.e1.line" x1="198" y1="592" x2="240" y2="592" stroke="#111111" stroke-width="2" />
  <line id="slot.bottom.e2.line" x1="240" y1="592" x2="220" y2="500" stroke="#111111" stroke-width="2" />
  <line id="slot.bottom.e3.line" x1="220" y1="500" x2="198" y2="592" stroke="#111111" stroke-width="2" />
  <line id="slot.bottom.f1.line" x1="319" y1="592" x2="385" y2="546" stroke="#111111" stroke-width="2" />
  <line id="slot.bottom.f2.line" x1="385" y1="546" x2="385" y2="592" stroke="#111111" stroke-width="2" />
  <line id="slot.bottom.f3.line" x1="319" y1="592" x2="385" y2="592" stroke="#111111" stroke-width="2" />
  <text id="slot.bottom.label.g.text" x="118" y="418" fill="#111111" font-family="Noto Sans KR, sans-serif" font-size="28">가</text>
  <text id="slot.bottom.label.n.text" x="221" y="417" fill="#111111" font-family="Noto Sans KR, sans-serif" font-size="28">나</text>
  <text id="slot.bottom.label.d.text" x="344" y="417" fill="#111111" font-family="Noto Sans KR, sans-serif" font-size="28">다</text>
  <text id="slot.bottom.label.r.text" x="112" y="550" fill="#111111" font-family="Noto Sans KR, sans-serif" font-size="28">라</text>
  <text id="slot.bottom.label.m.text" x="222" y="551" fill="#111111" font-family="Noto Sans KR, sans-serif" font-size="28">마</text>
  <text id="slot.bottom.label.b.text" x="346" y="576" fill="#111111" font-family="Noto Sans KR, sans-serif" font-size="28">바</text>
</svg>
