<?xml version="1.0" encoding="UTF-8"?>
<svg xmlns="http://www.w3.org/2000/svg" width="960" height="540" viewBox="0 0 960 540">
  <metadata><problem_id>S3_초등_3_008722</problem_id></metadata>
  <rect x="0" y="0" width="960" height="540" fill="#FFFFFF" />
  <rect id="slot.desc_box.rect" x="20" y="355" width="900" height="105" fill="#ffffff" stroke="#111111" stroke-width="1.5" />
  <circle id="slot.circle.l1.circle" cx="276" cy="190" r="25" stroke="#111111" stroke-width="2" fill="none" />
  <circle id="slot.circle.l2.circle" cx="351" cy="190" r="75" stroke="#111111" stroke-width="2" fill="none" />
  <circle id="slot.circle.c1.circle" cx="426" cy="190" r="25" stroke="#111111" stroke-width="2" fill="none" />
  <circle id="slot.circle.r2.circle" cx="500" cy="190" r="75" stroke="#111111" stroke-width="2" fill="none" />
  <circle id="slot.circle.r1.circle" cx="574" cy="190" r="25" stroke="#111111" stroke-width="2" fill="none" />
  <line id="slot.graphpaper.v0.line" x1="225" y1="65" x2="225" y2="315" stroke="#2563eb" stroke-width="1" />
  <line id="slot.graphpaper.v1.line" x1="250" y1="65" x2="250" y2="315" stroke="#2563eb" stroke-width="1" />
  <line id="slot.graphpaper.v2.line" x1="275" y1="65" x2="275" y2="315" stroke="#2563eb" stroke-width="1" />
  <line id="slot.graphpaper.v3.line" x1="300" y1="65" x2="300" y2="315" stroke="#2563eb" stroke-width="1" />
  <line id="slot.graphpaper.v4.line" x1="325" y1="65" x2="325" y2="315" stroke="#2563eb" stroke-width="1" />
  <line id="slot.graphpaper.v5.line" x1="350" y1="65" x2="350" y2="315" stroke="#2563eb" stroke-width="1" />
  <line id="slot.graphpaper.v6.line" x1="375" y1="65" x2="375" y2="315" stroke="#2563eb" stroke-width="1" />
  <line id="slot.graphpaper.v7.line" x1="400" y1="65" x2="400" y2="315" stroke="#2563eb" stroke-width="1" />
  <line id="slot.graphpaper.v8.line" x1="425" y1="65" x2="425" y2="315" stroke="#2563eb" stroke-width="1" />
  <line id="slot.graphpaper.v9.line" x1="450" y1="65" x2="450" y2="315" stroke="#2563eb" stroke-width="1" />
  <line id="slot.graphpaper.v10.line" x1="475" y1="65" x2="475" y2="315" stroke="#2563eb" stroke-width="1" />
  <line id="slot.graphpaper.v11.line" x1="500" y1="65" x2="500" y2="315" stroke="#2563eb" stroke-width="1" />
  <line id="slot.graphpaper.v12.line" x1="525" y1="65" x2="525" y2="315" stroke="#2563eb" stroke-width="1" />
  <line id="slot.graphpaper.v13.line" x1="550" y1="65" x2="550" y2="315" stroke="#2563eb" stroke-width="1" />
  <line id="slot.graphpaper.v14.line" x1="575" y1="65" x2="575" y2="315" stroke="#2563eb" stroke-width="1" />
  <line id="slot.graphpaper.v15.line" x1="600" y1="65" x2="600" y2="315" stroke="#2563eb" stroke-width="1" />
  <line id="slot.graphpaper.v16.line" x1="625" y1="65" x2="625" y2="315" stroke="#2563eb" stroke-width="1" />
  <line id="slot.graphpaper.h0.line" x1="225" y1="65" x2="625" y2="65" stroke="#2563eb" stroke-width="1" />
  <line id="slot.graphpaper.h1.line" x1="225" y1="90" x2="625" y2="90" stroke="#2563eb" stroke-width="1" />
  <line id="slot.graphpaper.h2.line" x1="225" y1="115" x2="625" y2="115" stroke="#2563eb" stroke-width="1" />
  <line id="slot.graphpaper.h3.line" x1="225" y1="140" x2="625" y2="140" stroke="#2563eb" stroke-width="1" />
  <line id="slot.graphpaper.h4.line" x1="225" y1="165" x2="625" y2="165" stroke="#2563eb" stroke-width="1" />
  <line id="slot.graphpaper.h5.line" x1="225" y1="190" x2="625" y2="190" stroke="#2563eb" stroke-width="1" />
  <line id="slot.graphpaper.h6.line" x1="225" y1="215" x2="625" y2="215" stroke="#2563eb" stroke-width="1" />
  <line id="slot.graphpaper.h7.line" x1="225" y1="240" x2="625" y2="240" stroke="#2563eb" stroke-width="1" />
  <line id="slot.graphpaper.h8.line" x1="225" y1="265" x2="625" y2="265" stroke="#2563eb" stroke-width="1" />
  <line id="slot.graphpaper.h9.line" x1="225" y1="290" x2="625" y2="290" stroke="#2563eb" stroke-width="1" />
  <line id="slot.graphpaper.h10.line" x1="225" y1="315" x2="625" y2="315" stroke="#2563eb" stroke-width="1" />
  <circle id="slot.pt.l.circle" cx="276" cy="190" r="4" stroke="#111111" stroke-width="2" fill="#d81b88" />
  <circle id="slot.pt.a.circle" cx="351" cy="190" r="4" stroke="#111111" stroke-width="2" fill="#d81b88" />
  <circle id="slot.pt.c.circle" cx="426" cy="190" r="4" stroke="#111111" stroke-width="2" fill="#d81b88" />
  <circle id="slot.pt.d.circle" cx="502" cy="190" r="4" stroke="#111111" stroke-width="2" fill="#d81b88" />
  <circle id="slot.pt.r.circle" cx="576" cy="190" r="4" stroke="#111111" stroke-width="2" fill="#d81b88" />
  <text id="slot.q2.text" x="30" y="35" fill="#111111" font-family="Noto Sans KR, sans-serif" font-size="30">원을 그린 규칙을 바르게 설명한 친구의 이름을 선택하세요.</text>
  <text id="slot.choice.text" x="365" y="495" fill="#111111" font-family="Noto Sans KR, sans-serif" font-size="30">( 윤지 , 수진 )</text>
  <text id="slot.desc1.text" x="30" y="395" fill="#111111" font-family="Noto Sans KR, sans-serif" font-size="30">· 윤지: 원의 중심이 오른쪽으로 모눈 3칸씩 옮겨 갔어.</text>
  <text id="slot.desc2.text" x="30" y="440" fill="#111111" font-family="Noto Sans KR, sans-serif" font-size="30">· 수진: 원의 반지름이 모눈 1칸, 2칸인 원을 반복하여 겹치도록 그렸어.</text>
</svg>
