<?xml version="1.0" encoding="UTF-8"?>
<svg xmlns="http://www.w3.org/2000/svg" width="940" height="460" viewBox="0 0 940 460">
  <metadata><problem_id>S3_초등_3_008651</problem_id></metadata>
  <rect x="0" y="0" width="940" height="460" fill="#FFFFFF" />
  <text id="slot.q.prefix.text" x="14" y="31" fill="#111111" font-family="Noto Sans KR, sans-serif" font-size="24">□ 24.</text>
  <text id="slot.q.text.text" x="72" y="31" fill="#111111" font-family="Noto Sans KR, sans-serif" font-size="24">컴퍼스를 3 cm가 되도록 벌린 것을 찾아 선택해 보세요.</text>
  <rect id="slot.choice1.ruler.body.rect" x="198" y="181" width="93" height="32" fill="#DDF6FF" stroke="#19B5F2" stroke-width="1.2" />
  <circle id="slot.choice1.compass.hinge.circle" cx="232" cy="86" r="5.699999999999999" stroke="#42474B" stroke-width="1" fill="#AEB4B7" />
  <rect id="slot.choice1.compass.head.rect" x="227.25" y="69.85" width="9.5" height="17.099999999999998" fill="#8B9195" stroke="#42474B" stroke-width="1" rx="1.9" ry="1.9" />
  <rect id="slot.choice1.compass.knob.rect" x="230.1" y="57.5" width="3.8" height="11.399999999999999" fill="#7F8589" stroke="#42474B" stroke-width="0.8" />
  <rect id="slot.choice1.compass.clamp.rect" x="262.65000000000003" y="143" width="13.299999999999999" height="7.6" fill="#6D7378" stroke="#42474B" stroke-width="0.8" />
  <rect id="slot.choice1.compass.pencil.body.rect" x="266.45" y="99.30000000000001" width="5.699999999999999" height="71.25" fill="#A9B84B" stroke="#879036" stroke-width="0.9" />
  <polygon id="slot.choice1.compass.pencil.tip.polygon" points="264.55,169.6 274.05,169.6 269.3,181.95000000000002" stroke="#9E7130" stroke-width="0.8" fill="#E8B55D" />
  <rect id="slot.choice2.ruler.body.rect" x="438" y="181" width="93" height="32" fill="#DDF6FF" stroke="#19B5F2" stroke-width="1.2" />
  <circle id="slot.choice2.compass.hinge.circle" cx="460.7" cy="86" r="5.699999999999999" stroke="#42474B" stroke-width="1" fill="#AEB4B7" />
  <rect id="slot.choice2.compass.head.rect" x="455.95" y="69.85" width="9.5" height="17.099999999999998" fill="#8B9195" stroke="#42474B" stroke-width="1" rx="1.9" ry="1.9" />
  <rect id="slot.choice2.compass.knob.rect" x="458.8" y="57.5" width="3.8" height="11.399999999999999" fill="#7F8589" stroke="#42474B" stroke-width="0.8" />
  <rect id="slot.choice2.compass.clamp.rect" x="524.35" y="143" width="13.299999999999999" height="7.6" fill="#6D7378" stroke="#42474B" stroke-width="0.8" />
  <rect id="slot.choice2.compass.pencil.body.rect" x="528.15" y="99.30000000000001" width="5.699999999999999" height="71.25" fill="#A9B84B" stroke="#879036" stroke-width="0.9" />
  <polygon id="slot.choice2.compass.pencil.tip.polygon" points="526.25,169.6 535.75,169.6 531,181.95000000000002" stroke="#9E7130" stroke-width="0.8" fill="#E8B55D" />
  <rect id="slot.choice3.ruler.body.rect" x="678" y="181" width="93" height="32" fill="#DDF6FF" stroke="#19B5F2" stroke-width="1.2" />
  <circle id="slot.choice3.compass.hinge.circle" cx="721" cy="86" r="5.699999999999999" stroke="#42474B" stroke-width="1" fill="#AEB4B7" />
  <rect id="slot.choice3.compass.head.rect" x="716.25" y="69.85" width="9.5" height="17.099999999999998" fill="#8B9195" stroke="#42474B" stroke-width="1" rx="1.9" ry="1.9" />
  <rect id="slot.choice3.compass.knob.rect" x="719.1" y="57.5" width="3.8" height="11.399999999999999" fill="#7F8589" stroke="#42474B" stroke-width="0.8" />
  <rect id="slot.choice3.compass.clamp.rect" x="764.35" y="143" width="13.299999999999999" height="7.6" fill="#6D7378" stroke="#42474B" stroke-width="0.8" />
  <rect id="slot.choice3.compass.pencil.body.rect" x="768.15" y="99.30000000000001" width="5.699999999999999" height="71.25" fill="#A9B84B" stroke="#879036" stroke-width="0.9" />
  <polygon id="slot.choice3.compass.pencil.tip.polygon" points="766.25,169.6 775.75,169.6 771,181.95000000000002" stroke="#9E7130" stroke-width="0.8" fill="#E8B55D" />
  <line id="slot.choice1.ruler.top.line" x1="198" y1="189" x2="291" y2="189" stroke="#19B5F2" stroke-width="1.1" />
  <line id="slot.choice1.ruler.tick.00.line" x1="198" y1="189" x2="198" y2="201" stroke="#19B5F2" stroke-width="1" />
  <line id="slot.choice1.ruler.tick.01.line" x1="201.1" y1="189" x2="201.1" y2="195" stroke="#19B5F2" stroke-width="0.7" />
  <line id="slot.choice1.ruler.tick.02.line" x1="204.2" y1="189" x2="204.2" y2="195" stroke="#19B5F2" stroke-width="0.7" />
  <line id="slot.choice1.ruler.tick.03.line" x1="207.3" y1="189" x2="207.3" y2="195" stroke="#19B5F2" stroke-width="0.7" />
  <line id="slot.choice1.ruler.tick.04.line" x1="210.4" y1="189" x2="210.4" y2="195" stroke="#19B5F2" stroke-width="0.7" />
  <line id="slot.choice1.ruler.tick.05.line" x1="213.5" y1="189" x2="213.5" y2="198" stroke="#19B5F2" stroke-width="0.85" />
  <line id="slot.choice1.ruler.tick.06.line" x1="216.6" y1="189" x2="216.6" y2="195" stroke="#19B5F2" stroke-width="0.7" />
  <line id="slot.choice1.ruler.tick.07.line" x1="219.7" y1="189" x2="219.7" y2="195" stroke="#19B5F2" stroke-width="0.7" />
  <line id="slot.choice1.ruler.tick.08.line" x1="222.8" y1="189" x2="222.8" y2="195" stroke="#19B5F2" stroke-width="0.7" />
  <line id="slot.choice1.ruler.tick.09.line" x1="225.9" y1="189" x2="225.9" y2="195" stroke="#19B5F2" stroke-width="0.7" />
  <line id="slot.choice1.ruler.tick.10.line" x1="229" y1="189" x2="229" y2="201" stroke="#19B5F2" stroke-width="1" />
  <line id="slot.choice1.ruler.tick.11.line" x1="232.1" y1="189" x2="232.1" y2="195" stroke="#19B5F2" stroke-width="0.7" />
  <line id="slot.choice1.ruler.tick.12.line" x1="235.2" y1="189" x2="235.2" y2="195" stroke="#19B5F2" stroke-width="0.7" />
  <line id="slot.choice1.ruler.tick.13.line" x1="238.3" y1="189" x2="238.3" y2="195" stroke="#19B5F2" stroke-width="0.7" />
  <line id="slot.choice1.ruler.tick.14.line" x1="241.4" y1="189" x2="241.4" y2="195" stroke="#19B5F2" stroke-width="0.7" />
  <line id="slot.choice1.ruler.tick.15.line" x1="244.5" y1="189" x2="244.5" y2="198" stroke="#19B5F2" stroke-width="0.85" />
  <line id="slot.choice1.ruler.tick.16.line" x1="247.6" y1="189" x2="247.6" y2="195" stroke="#19B5F2" stroke-width="0.7" />
  <line id="slot.choice1.ruler.tick.17.line" x1="250.7" y1="189" x2="250.7" y2="195" stroke="#19B5F2" stroke-width="0.7" />
  <line id="slot.choice1.ruler.tick.18.line" x1="253.8" y1="189" x2="253.8" y2="195" stroke="#19B5F2" stroke-width="0.7" />
  <line id="slot.choice1.ruler.tick.19.line" x1="256.9" y1="189" x2="256.9" y2="195" stroke="#19B5F2" stroke-width="0.7" />
  <line id="slot.choice1.ruler.tick.20.line" x1="260" y1="189" x2="260" y2="201" stroke="#19B5F2" stroke-width="1" />
  <line id="slot.choice1.ruler.tick.21.line" x1="263.1" y1="189" x2="263.1" y2="195" stroke="#19B5F2" stroke-width="0.7" />
  <line id="slot.choice1.ruler.tick.22.line" x1="266.2" y1="189" x2="266.2" y2="195" stroke="#19B5F2" stroke-width="0.7" />
  <line id="slot.choice1.ruler.tick.23.line" x1="269.3" y1="189" x2="269.3" y2="195" stroke="#19B5F2" stroke-width="0.7" />
  <line id="slot.choice1.ruler.tick.24.line" x1="272.4" y1="189" x2="272.4" y2="195" stroke="#19B5F2" stroke-width="0.7" />
  <line id="slot.choice1.ruler.tick.25.line" x1="275.5" y1="189" x2="275.5" y2="198" stroke="#19B5F2" stroke-width="0.85" />
  <line id="slot.choice1.ruler.tick.26.line" x1="278.6" y1="189" x2="278.6" y2="195" stroke="#19B5F2" stroke-width="0.7" />
  <line id="slot.choice1.ruler.tick.27.line" x1="281.7" y1="189" x2="281.7" y2="195" stroke="#19B5F2" stroke-width="0.7" />
  <line id="slot.choice1.ruler.tick.28.line" x1="284.8" y1="189" x2="284.8" y2="195" stroke="#19B5F2" stroke-width="0.7" />
  <line id="slot.choice1.ruler.tick.29.line" x1="287.9" y1="189" x2="287.9" y2="195" stroke="#19B5F2" stroke-width="0.7" />
  <line id="slot.choice1.ruler.tick.30.line" x1="291" y1="189" x2="291" y2="201" stroke="#19B5F2" stroke-width="1" />
  <line id="slot.choice1.compass.leg.left.outer.line" x1="228.2" y1="93.6" x2="198" y2="173.4" stroke="#42474B" stroke-width="1.2" />
  <line id="slot.choice1.compass.leg.left.inner.line" x1="232.95" y1="93.6" x2="202.75" y2="173.4" stroke="#C7DCE3" stroke-width="3" />
  <line id="slot.choice1.compass.leg.right.outer.line" x1="235.8" y1="93.6" x2="269.3" y2="168.65" stroke="#42474B" stroke-width="1.2" />
  <line id="slot.choice1.compass.leg.right.inner.line" x1="231.05" y1="93.6" x2="263.6" y2="156.3" stroke="#C7DCE3" stroke-width="3" />
  <line id="slot.choice1.compass.bar.left.line" x1="210.24" y1="141.936" x2="256.991" y2="144.558" stroke="#6D7378" stroke-width="1.2" />
  <line id="slot.choice1.compass.needle.tip.line" x1="198" y1="165.8" x2="198" y2="181" stroke="#42474B" stroke-width="1.2" />
  <line id="slot.choice2.ruler.top.line" x1="438" y1="189" x2="531" y2="189" stroke="#19B5F2" stroke-width="1.1" />
  <line id="slot.choice2.ruler.tick.00.line" x1="438" y1="189" x2="438" y2="201" stroke="#19B5F2" stroke-width="1" />
  <line id="slot.choice2.ruler.tick.01.line" x1="441.1" y1="189" x2="441.1" y2="195" stroke="#19B5F2" stroke-width="0.7" />
  <line id="slot.choice2.ruler.tick.02.line" x1="444.2" y1="189" x2="444.2" y2="195" stroke="#19B5F2" stroke-width="0.7" />
  <line id="slot.choice2.ruler.tick.03.line" x1="447.3" y1="189" x2="447.3" y2="195" stroke="#19B5F2" stroke-width="0.7" />
  <line id="slot.choice2.ruler.tick.04.line" x1="450.4" y1="189" x2="450.4" y2="195" stroke="#19B5F2" stroke-width="0.7" />
  <line id="slot.choice2.ruler.tick.05.line" x1="453.5" y1="189" x2="453.5" y2="198" stroke="#19B5F2" stroke-width="0.85" />
  <line id="slot.choice2.ruler.tick.06.line" x1="456.6" y1="189" x2="456.6" y2="195" stroke="#19B5F2" stroke-width="0.7" />
  <line id="slot.choice2.ruler.tick.07.line" x1="459.7" y1="189" x2="459.7" y2="195" stroke="#19B5F2" stroke-width="0.7" />
  <line id="slot.choice2.ruler.tick.08.line" x1="462.8" y1="189" x2="462.8" y2="195" stroke="#19B5F2" stroke-width="0.7" />
  <line id="slot.choice2.ruler.tick.09.line" x1="465.9" y1="189" x2="465.9" y2="195" stroke="#19B5F2" stroke-width="0.7" />
  <line id="slot.choice2.ruler.tick.10.line" x1="469" y1="189" x2="469" y2="201" stroke="#19B5F2" stroke-width="1" />
  <line id="slot.choice2.ruler.tick.11.line" x1="472.1" y1="189" x2="472.1" y2="195" stroke="#19B5F2" stroke-width="0.7" />
  <line id="slot.choice2.ruler.tick.12.line" x1="475.2" y1="189" x2="475.2" y2="195" stroke="#19B5F2" stroke-width="0.7" />
  <line id="slot.choice2.ruler.tick.13.line" x1="478.3" y1="189" x2="478.3" y2="195" stroke="#19B5F2" stroke-width="0.7" />
  <line id="slot.choice2.ruler.tick.14.line" x1="481.4" y1="189" x2="481.4" y2="195" stroke="#19B5F2" stroke-width="0.7" />
  <line id="slot.choice2.ruler.tick.15.line" x1="484.5" y1="189" x2="484.5" y2="198" stroke="#19B5F2" stroke-width="0.85" />
  <line id="slot.choice2.ruler.tick.16.line" x1="487.6" y1="189" x2="487.6" y2="195" stroke="#19B5F2" stroke-width="0.7" />
  <line id="slot.choice2.ruler.tick.17.line" x1="490.7" y1="189" x2="490.7" y2="195" stroke="#19B5F2" stroke-width="0.7" />
  <line id="slot.choice2.ruler.tick.18.line" x1="493.8" y1="189" x2="493.8" y2="195" stroke="#19B5F2" stroke-width="0.7" />
  <line id="slot.choice2.ruler.tick.19.line" x1="496.9" y1="189" x2="496.9" y2="195" stroke="#19B5F2" stroke-width="0.7" />
  <line id="slot.choice2.ruler.tick.20.line" x1="500" y1="189" x2="500" y2="201" stroke="#19B5F2" stroke-width="1" />
  <line id="slot.choice2.ruler.tick.21.line" x1="503.1" y1="189" x2="503.1" y2="195" stroke="#19B5F2" stroke-width="0.7" />
  <line id="slot.choice2.ruler.tick.22.line" x1="506.2" y1="189" x2="506.2" y2="195" stroke="#19B5F2" stroke-width="0.7" />
  <line id="slot.choice2.ruler.tick.23.line" x1="509.3" y1="189" x2="509.3" y2="195" stroke="#19B5F2" stroke-width="0.7" />
  <line id="slot.choice2.ruler.tick.24.line" x1="512.4" y1="189" x2="512.4" y2="195" stroke="#19B5F2" stroke-width="0.7" />
  <line id="slot.choice2.ruler.tick.25.line" x1="515.5" y1="189" x2="515.5" y2="198" stroke="#19B5F2" stroke-width="0.85" />
  <line id="slot.choice2.ruler.tick.26.line" x1="518.6" y1="189" x2="518.6" y2="195" stroke="#19B5F2" stroke-width="0.7" />
  <line id="slot.choice2.ruler.tick.27.line" x1="521.7" y1="189" x2="521.7" y2="195" stroke="#19B5F2" stroke-width="0.7" />
  <line id="slot.choice2.ruler.tick.28.line" x1="524.8" y1="189" x2="524.8" y2="195" stroke="#19B5F2" stroke-width="0.7" />
  <line id="slot.choice2.ruler.tick.29.line" x1="527.9" y1="189" x2="527.9" y2="195" stroke="#19B5F2" stroke-width="0.7" />
  <line id="slot.choice2.ruler.tick.30.line" x1="531" y1="189" x2="531" y2="201" stroke="#19B5F2" stroke-width="1" />
  <line id="slot.choice2.compass.leg.left.outer.line" x1="456.9" y1="93.6" x2="428.7" y2="173.4" stroke="#42474B" stroke-width="1.2" />
  <line id="slot.choice2.compass.leg.left.inner.line" x1="461.65" y1="93.6" x2="433.45" y2="173.4" stroke="#C7DCE3" stroke-width="3" />
  <line id="slot.choice2.compass.leg.right.outer.line" x1="464.5" y1="93.6" x2="531" y2="168.65" stroke="#42474B" stroke-width="1.2" />
  <line id="slot.choice2.compass.leg.right.inner.line" x1="459.75" y1="93.6" x2="525.3" y2="156.3" stroke="#C7DCE3" stroke-width="3" />
  <line id="slot.choice2.compass.bar.left.line" x1="440.21999999999997" y1="141.936" x2="507.801" y2="144.558" stroke="#6D7378" stroke-width="1.2" />
  <line id="slot.choice2.compass.needle.tip.line" x1="428.7" y1="165.8" x2="428.7" y2="181" stroke="#42474B" stroke-width="1.2" />
  <line id="slot.choice3.ruler.top.line" x1="678" y1="189" x2="771" y2="189" stroke="#19B5F2" stroke-width="1.1" />
  <line id="slot.choice3.ruler.tick.00.line" x1="678" y1="189" x2="678" y2="201" stroke="#19B5F2" stroke-width="1" />
  <line id="slot.choice3.ruler.tick.01.line" x1="681.1" y1="189" x2="681.1" y2="195" stroke="#19B5F2" stroke-width="0.7" />
  <line id="slot.choice3.ruler.tick.02.line" x1="684.2" y1="189" x2="684.2" y2="195" stroke="#19B5F2" stroke-width="0.7" />
  <line id="slot.choice3.ruler.tick.03.line" x1="687.3" y1="189" x2="687.3" y2="195" stroke="#19B5F2" stroke-width="0.7" />
  <line id="slot.choice3.ruler.tick.04.line" x1="690.4" y1="189" x2="690.4" y2="195" stroke="#19B5F2" stroke-width="0.7" />
  <line id="slot.choice3.ruler.tick.05.line" x1="693.5" y1="189" x2="693.5" y2="198" stroke="#19B5F2" stroke-width="0.85" />
  <line id="slot.choice3.ruler.tick.06.line" x1="696.6" y1="189" x2="696.6" y2="195" stroke="#19B5F2" stroke-width="0.7" />
  <line id="slot.choice3.ruler.tick.07.line" x1="699.7" y1="189" x2="699.7" y2="195" stroke="#19B5F2" stroke-width="0.7" />
  <line id="slot.choice3.ruler.tick.08.line" x1="702.8" y1="189" x2="702.8" y2="195" stroke="#19B5F2" stroke-width="0.7" />
  <line id="slot.choice3.ruler.tick.09.line" x1="705.9" y1="189" x2="705.9" y2="195" stroke="#19B5F2" stroke-width="0.7" />
  <line id="slot.choice3.ruler.tick.10.line" x1="709" y1="189" x2="709" y2="201" stroke="#19B5F2" stroke-width="1" />
  <line id="slot.choice3.ruler.tick.11.line" x1="712.1" y1="189" x2="712.1" y2="195" stroke="#19B5F2" stroke-width="0.7" />
  <line id="slot.choice3.ruler.tick.12.line" x1="715.2" y1="189" x2="715.2" y2="195" stroke="#19B5F2" stroke-width="0.7" />
  <line id="slot.choice3.ruler.tick.13.line" x1="718.3" y1="189" x2="718.3" y2="195" stroke="#19B5F2" stroke-width="0.7" />
  <line id="slot.choice3.ruler.tick.14.line" x1="721.4" y1="189" x2="721.4" y2="195" stroke="#19B5F2" stroke-width="0.7" />
  <line id="slot.choice3.ruler.tick.15.line" x1="724.5" y1="189" x2="724.5" y2="198" stroke="#19B5F2" stroke-width="0.85" />
  <line id="slot.choice3.ruler.tick.16.line" x1="727.6" y1="189" x2="727.6" y2="195" stroke="#19B5F2" stroke-width="0.7" />
  <line id="slot.choice3.ruler.tick.17.line" x1="730.7" y1="189" x2="730.7" y2="195" stroke="#19B5F2" stroke-width="0.7" />
  <line id="slot.choice3.ruler.tick.18.line" x1="733.8" y1="189" x2="733.8" y2="195" stroke="#19B5F2" stroke-width="0.7" />
  <line id="slot.choice3.ruler.tick.19.line" x1="736.9" y1="189" x2="736.9" y2="195" stroke="#19B5F2" stroke-width="0.7" />
  <line id="slot.choice3.ruler.tick.20.line" x1="740" y1="189" x2="740" y2="201" stroke="#19B5F2" stroke-width="1" />
  <line id="slot.choice3.ruler.tick.21.line" x1="743.1" y1="189" x2="743.1" y2="195" stroke="#19B5F2" stroke-width="0.7" />
  <line id="slot.choice3.ruler.tick.22.line" x1="746.2" y1="189" x2="746.2" y2="195" stroke="#19B5F2" stroke-width="0.7" />
  <line id="slot.choice3.ruler.tick.23.line" x1="749.3" y1="189" x2="749.3" y2="195" stroke="#19B5F2" stroke-width="0.7" />
  <line id="slot.choice3.ruler.tick.24.line" x1="752.4" y1="189" x2="752.4" y2="195" stroke="#19B5F2" stroke-width="0.7" />
  <line id="slot.choice3.ruler.tick.25.line" x1="755.5" y1="189" x2="755.5" y2="198" stroke="#19B5F2" stroke-width="0.85" />
  <line id="slot.choice3.ruler.tick.26.line" x1="758.6" y1="189" x2="758.6" y2="195" stroke="#19B5F2" stroke-width="0.7" />
  <line id="slot.choice3.ruler.tick.27.line" x1="761.7" y1="189" x2="761.7" y2="195" stroke="#19B5F2" stroke-width="0.7" />
  <line id="slot.choice3.ruler.tick.28.line" x1="764.8" y1="189" x2="764.8" y2="195" stroke="#19B5F2" stroke-width="0.7" />
  <line id="slot.choice3.ruler.tick.29.line" x1="767.9" y1="189" x2="767.9" y2="195" stroke="#19B5F2" stroke-width="0.7" />
  <line id="slot.choice3.ruler.tick.30.line" x1="771" y1="189" x2="771" y2="201" stroke="#19B5F2" stroke-width="1" />
  <line id="slot.choice3.compass.leg.left.outer.line" x1="717.2" y1="93.6" x2="678" y2="173.4" stroke="#42474B" stroke-width="1.2" />
  <line id="slot.choice3.compass.leg.left.inner.line" x1="721.95" y1="93.6" x2="682.75" y2="173.4" stroke="#C7DCE3" stroke-width="3" />
  <line id="slot.choice3.compass.leg.right.outer.line" x1="724.8" y1="93.6" x2="771" y2="168.65" stroke="#42474B" stroke-width="1.2" />
  <line id="slot.choice3.compass.leg.right.inner.line" x1="720.05" y1="93.6" x2="765.3" y2="156.3" stroke="#C7DCE3" stroke-width="3" />
  <line id="slot.choice3.compass.bar.left.line" x1="693.48" y1="141.936" x2="754.5" y2="144.558" stroke="#6D7378" stroke-width="1.2" />
  <line id="slot.choice3.compass.needle.tip.line" x1="678" y1="165.8" x2="678" y2="181" stroke="#42474B" stroke-width="1.2" />
  <text id="slot.choice1.ruler.label.0.text" x="198" y="205" fill="#333333" font-family="Noto Sans KR, sans-serif" font-size="15" text-anchor="middle">0</text>
  <text id="slot.choice1.ruler.label.1.text" x="229" y="205" fill="#333333" font-family="Noto Sans KR, sans-serif" font-size="15" text-anchor="middle">1</text>
  <text id="slot.choice1.ruler.label.2.text" x="260" y="205" fill="#333333" font-family="Noto Sans KR, sans-serif" font-size="15" text-anchor="middle">2</text>
  <text id="slot.choice1.ruler.label.3.text" x="291" y="205" fill="#333333" font-family="Noto Sans KR, sans-serif" font-size="15" text-anchor="middle">3</text>
  <text id="slot.choice2.ruler.label.0.text" x="438" y="205" fill="#333333" font-family="Noto Sans KR, sans-serif" font-size="15" text-anchor="middle">0</text>
  <text id="slot.choice2.ruler.label.1.text" x="469" y="205" fill="#333333" font-family="Noto Sans KR, sans-serif" font-size="15" text-anchor="middle">1</text>
  <text id="slot.choice2.ruler.label.2.text" x="500" y="205" fill="#333333" font-family="Noto Sans KR, sans-serif" font-size="15" text-anchor="middle">2</text>
  <text id="slot.choice2.ruler.label.3.text" x="531" y="205" fill="#333333" font-family="Noto Sans KR, sans-serif" font-size="15" text-anchor="middle">3</text>
  <text id="slot.choice3.ruler.label.0.text" x="678" y="205" fill="#333333" font-family="Noto Sans KR, sans-serif" font-size="15" text-anchor="middle">0</text>
  <text id="slot.choice3.ruler.label.1.text" x="709" y="205" fill="#333333" font-family="Noto Sans KR, sans-serif" font-size="15" text-anchor="middle">1</text>
  <text id="slot.choice3.ruler.label.2.text" x="740" y="205" fill="#333333" font-family="Noto Sans KR, sans-serif" font-size="15" text-anchor="middle">2</text>
  <text id="slot.choice3.ruler.label.3.text" x="771" y="205" fill="#333333" font-family="Noto Sans KR, sans-serif" font-size="15" text-anchor="middle">3</text>
  <rect id="slot.answer.diagram.ruler.body.rect" x="61" y="355" width="93" height="32" fill="#DDF6FF" stroke="#19B5F2" stroke-width="1.2" />
  <circle id="slot.answer.diagram.compass.hinge.circle" cx="109" cy="260" r="5.699999999999999" stroke="#42474B" stroke-width="1" fill="#AEB4B7" />
  <rect id="slot.answer.diagram.compass.head.rect" x="104.25" y="243.85" width="9.5" height="17.099999999999998" fill="#8B9195" stroke="#42474B" stroke-width="1" rx="1.9" ry="1.9" />
  <rect id="slot.answer.diagram.compass.knob.rect" x="107.1" y="231.5" width="3.8" height="11.399999999999999" fill="#7F8589" stroke="#42474B" stroke-width="0.8" />
  <rect id="slot.answer.diagram.compass.clamp.rect" x="147.35" y="316.99999999999994" width="13.299999999999999" height="7.6" fill="#6D7378" stroke="#42474B" stroke-width="0.8" />
  <rect id="slot.answer.diagram.compass.pencil.body.rect" x="151.15" y="273.29999999999995" width="5.699999999999999" height="71.25" fill="#A9B84B" stroke="#879036" stroke-width="0.9" />
  <polygon id="slot.answer.diagram.compass.pencil.tip.polygon" points="149.25,343.59999999999997 158.75,343.59999999999997 154,355.95" stroke="#9E7130" stroke-width="0.8" fill="#E8B55D" />
  <line id="slot.answer.diagram.ruler.top.line" x1="61" y1="363" x2="154" y2="363" stroke="#19B5F2" stroke-width="1.1" />
  <line id="slot.answer.diagram.ruler.tick.00.line" x1="61" y1="363" x2="61" y2="375" stroke="#19B5F2" stroke-width="1" />
  <line id="slot.answer.diagram.ruler.tick.01.line" x1="64.1" y1="363" x2="64.1" y2="369" stroke="#19B5F2" stroke-width="0.7" />
  <line id="slot.answer.diagram.ruler.tick.02.line" x1="67.2" y1="363" x2="67.2" y2="369" stroke="#19B5F2" stroke-width="0.7" />
  <line id="slot.answer.diagram.ruler.tick.03.line" x1="70.3" y1="363" x2="70.3" y2="369" stroke="#19B5F2" stroke-width="0.7" />
  <line id="slot.answer.diagram.ruler.tick.04.line" x1="73.4" y1="363" x2="73.4" y2="369" stroke="#19B5F2" stroke-width="0.7" />
  <line id="slot.answer.diagram.ruler.tick.05.line" x1="76.5" y1="363" x2="76.5" y2="372" stroke="#19B5F2" stroke-width="0.85" />
  <line id="slot.answer.diagram.ruler.tick.06.line" x1="79.6" y1="363" x2="79.6" y2="369" stroke="#19B5F2" stroke-width="0.7" />
  <line id="slot.answer.diagram.ruler.tick.07.line" x1="82.7" y1="363" x2="82.7" y2="369" stroke="#19B5F2" stroke-width="0.7" />
  <line id="slot.answer.diagram.ruler.tick.08.line" x1="85.8" y1="363" x2="85.8" y2="369" stroke="#19B5F2" stroke-width="0.7" />
  <line id="slot.answer.diagram.ruler.tick.09.line" x1="88.9" y1="363" x2="88.9" y2="369" stroke="#19B5F2" stroke-width="0.7" />
  <line id="slot.answer.diagram.ruler.tick.10.line" x1="92" y1="363" x2="92" y2="375" stroke="#19B5F2" stroke-width="1" />
  <line id="slot.answer.diagram.ruler.tick.11.line" x1="95.1" y1="363" x2="95.1" y2="369" stroke="#19B5F2" stroke-width="0.7" />
  <line id="slot.answer.diagram.ruler.tick.12.line" x1="98.2" y1="363" x2="98.2" y2="369" stroke="#19B5F2" stroke-width="0.7" />
  <line id="slot.answer.diagram.ruler.tick.13.line" x1="101.3" y1="363" x2="101.3" y2="369" stroke="#19B5F2" stroke-width="0.7" />
  <line id="slot.answer.diagram.ruler.tick.14.line" x1="104.4" y1="363" x2="104.4" y2="369" stroke="#19B5F2" stroke-width="0.7" />
  <line id="slot.answer.diagram.ruler.tick.15.line" x1="107.5" y1="363" x2="107.5" y2="372" stroke="#19B5F2" stroke-width="0.85" />
  <line id="slot.answer.diagram.ruler.tick.16.line" x1="110.6" y1="363" x2="110.6" y2="369" stroke="#19B5F2" stroke-width="0.7" />
  <line id="slot.answer.diagram.ruler.tick.17.line" x1="113.7" y1="363" x2="113.7" y2="369" stroke="#19B5F2" stroke-width="0.7" />
  <line id="slot.answer.diagram.ruler.tick.18.line" x1="116.8" y1="363" x2="116.8" y2="369" stroke="#19B5F2" stroke-width="0.7" />
  <line id="slot.answer.diagram.ruler.tick.19.line" x1="119.9" y1="363" x2="119.9" y2="369" stroke="#19B5F2" stroke-width="0.7" />
  <line id="slot.answer.diagram.ruler.tick.20.line" x1="123" y1="363" x2="123" y2="375" stroke="#19B5F2" stroke-width="1" />
  <line id="slot.answer.diagram.ruler.tick.21.line" x1="126.1" y1="363" x2="126.1" y2="369" stroke="#19B5F2" stroke-width="0.7" />
  <line id="slot.answer.diagram.ruler.tick.22.line" x1="129.2" y1="363" x2="129.2" y2="369" stroke="#19B5F2" stroke-width="0.7" />
  <line id="slot.answer.diagram.ruler.tick.23.line" x1="132.3" y1="363" x2="132.3" y2="369" stroke="#19B5F2" stroke-width="0.7" />
  <line id="slot.answer.diagram.ruler.tick.24.line" x1="135.4" y1="363" x2="135.4" y2="369" stroke="#19B5F2" stroke-width="0.7" />
  <line id="slot.answer.diagram.ruler.tick.25.line" x1="138.5" y1="363" x2="138.5" y2="372" stroke="#19B5F2" stroke-width="0.85" />
  <line id="slot.answer.diagram.ruler.tick.26.line" x1="141.6" y1="363" x2="141.6" y2="369" stroke="#19B5F2" stroke-width="0.7" />
  <line id="slot.answer.diagram.ruler.tick.27.line" x1="144.7" y1="363" x2="144.7" y2="369" stroke="#19B5F2" stroke-width="0.7" />
  <line id="slot.answer.diagram.ruler.tick.28.line" x1="147.8" y1="363" x2="147.8" y2="369" stroke="#19B5F2" stroke-width="0.7" />
  <line id="slot.answer.diagram.ruler.tick.29.line" x1="150.9" y1="363" x2="150.9" y2="369" stroke="#19B5F2" stroke-width="0.7" />
  <line id="slot.answer.diagram.ruler.tick.30.line" x1="154" y1="363" x2="154" y2="375" stroke="#19B5F2" stroke-width="1" />
  <line id="slot.answer.diagram.compass.leg.left.outer.line" x1="105.2" y1="267.6" x2="61" y2="347.4" stroke="#42474B" stroke-width="1.2" />
  <line id="slot.answer.diagram.compass.leg.left.inner.line" x1="109.95" y1="267.6" x2="65.75" y2="347.4" stroke="#C7DCE3" stroke-width="3" />
  <line id="slot.answer.diagram.compass.leg.right.outer.line" x1="112.8" y1="267.6" x2="154" y2="342.65" stroke="#42474B" stroke-width="1.2" />
  <line id="slot.answer.diagram.compass.leg.right.inner.line" x1="108.05" y1="267.6" x2="148.3" y2="330.29999999999995" stroke="#C7DCE3" stroke-width="3" />
  <line id="slot.answer.diagram.compass.bar.left.line" x1="78.28" y1="315.936" x2="139.15" y2="318.558" stroke="#6D7378" stroke-width="1.2" />
  <line id="slot.answer.diagram.compass.needle.tip.line" x1="61" y1="339.79999999999995" x2="61" y2="355" stroke="#42474B" stroke-width="1.2" />
  <text id="slot.answer.label.text" x="14" y="314" fill="#111111" font-family="Noto Sans KR, sans-serif" font-size="17">(정답)</text>
  <text id="slot.answer.diagram.ruler.label.0.text" x="61" y="379" fill="#333333" font-family="Noto Sans KR, sans-serif" font-size="15" text-anchor="middle">0</text>
  <text id="slot.answer.diagram.ruler.label.1.text" x="92" y="379" fill="#333333" font-family="Noto Sans KR, sans-serif" font-size="15" text-anchor="middle">1</text>
  <text id="slot.answer.diagram.ruler.label.2.text" x="123" y="379" fill="#333333" font-family="Noto Sans KR, sans-serif" font-size="15" text-anchor="middle">2</text>
  <text id="slot.answer.diagram.ruler.label.3.text" x="154" y="379" fill="#333333" font-family="Noto Sans KR, sans-serif" font-size="15" text-anchor="middle">3</text>
  <text id="slot.explanation.label.text" x="14" y="421" fill="#111111" font-family="Noto Sans KR, sans-serif" font-size="17">(해설)</text>
  <text id="slot.explanation.text1.text" x="61" y="421" fill="#111111" font-family="Noto Sans KR, sans-serif" font-size="23">컴퍼스의 침을 자의 눈금 0에 맞추고 연필심을 자의 눈금 3에 오도록 컴퍼스를 벌</text>
  <text id="slot.explanation.text2.text" x="36" y="452" fill="#111111" font-family="Noto Sans KR, sans-serif" font-size="23">린 것을 찾습니다.</text>
</svg>
