<?xml version="1.0" encoding="UTF-8"?>
<svg xmlns="http://www.w3.org/2000/svg" width="944" height="695" viewBox="0 0 944 695">
  <metadata><problem_id>S3_초등_3_008710</problem_id></metadata>
  <rect x="0" y="0" width="944" height="695" fill="#FFFFFF" />
  <text id="slot.title.text" x="11" y="30" fill="#111111" font-family="Noto Sans KR, sans-serif" font-size="28">□ 7. 원을 그린 규칙을 찾아 알맞은 것을 선택하세요.</text>
  <circle id="slot.circle.top.circle" cx="454" cy="105" r="58" stroke="#222222" stroke-width="1.5" fill="none" />
  <circle id="slot.circle.mid.circle" cx="454" cy="180" r="58" stroke="#222222" stroke-width="1.5" fill="none" />
  <circle id="slot.circle.bot.circle" cx="454" cy="255" r="58" stroke="#222222" stroke-width="1.5" fill="none" />
  <circle id="slot.pt.top.circle" cx="454" cy="105" r="3.8" stroke="#111111" stroke-width="2" fill="#E91E63" />
  <circle id="slot.pt.mid.circle" cx="454" cy="180" r="3.8" stroke="#111111" stroke-width="2" fill="#E91E63" />
  <circle id="slot.pt.bot.circle" cx="454" cy="255" r="3.8" stroke="#111111" stroke-width="2" fill="#E91E63" />
  <line id="slot.grid.v1.line" x1="337" y1="47" x2="337" y2="480" stroke="#4DB6FF" stroke-width="1.2" stroke-dasharray="4 3" />
  <line id="slot.grid.v2.line" x1="355" y1="47" x2="355" y2="480" stroke="#4DB6FF" stroke-width="1.2" stroke-dasharray="4 3" />
  <line id="slot.grid.v3.line" x1="373" y1="47" x2="373" y2="480" stroke="#4DB6FF" stroke-width="1.2" stroke-dasharray="4 3" />
  <line id="slot.grid.v4.line" x1="391" y1="47" x2="391" y2="480" stroke="#4DB6FF" stroke-width="1.2" stroke-dasharray="4 3" />
  <line id="slot.grid.v5.line" x1="409" y1="47" x2="409" y2="480" stroke="#4DB6FF" stroke-width="1.2" stroke-dasharray="4 3" />
  <line id="slot.grid.v6.line" x1="427" y1="47" x2="427" y2="480" stroke="#4DB6FF" stroke-width="1.2" stroke-dasharray="4 3" />
  <line id="slot.grid.v7.line" x1="445" y1="47" x2="445" y2="480" stroke="#4DB6FF" stroke-width="1.2" stroke-dasharray="4 3" />
  <line id="slot.grid.v8.line" x1="463" y1="47" x2="463" y2="480" stroke="#4DB6FF" stroke-width="1.2" stroke-dasharray="4 3" />
  <line id="slot.grid.v9.line" x1="481" y1="47" x2="481" y2="480" stroke="#4DB6FF" stroke-width="1.2" stroke-dasharray="4 3" />
  <line id="slot.grid.v10.line" x1="499" y1="47" x2="499" y2="480" stroke="#4DB6FF" stroke-width="1.2" stroke-dasharray="4 3" />
  <line id="slot.grid.v11.line" x1="517" y1="47" x2="517" y2="480" stroke="#4DB6FF" stroke-width="1.2" stroke-dasharray="4 3" />
  <line id="slot.grid.v12.line" x1="535" y1="47" x2="535" y2="480" stroke="#4DB6FF" stroke-width="1.2" stroke-dasharray="4 3" />
  <line id="slot.grid.v13.line" x1="553" y1="47" x2="553" y2="480" stroke="#4DB6FF" stroke-width="1.2" stroke-dasharray="4 3" />
  <line id="slot.grid.v14.line" x1="571" y1="47" x2="571" y2="480" stroke="#4DB6FF" stroke-width="1.2" stroke-dasharray="4 3" />
  <line id="slot.grid.h1.line" x1="337" y1="47" x2="571" y2="47" stroke="#4DB6FF" stroke-width="1.2" stroke-dasharray="4 3" />
  <line id="slot.grid.h2.line" x1="337" y1="72" x2="571" y2="72" stroke="#4DB6FF" stroke-width="1.2" stroke-dasharray="4 3" />
  <line id="slot.grid.h3.line" x1="337" y1="97" x2="571" y2="97" stroke="#4DB6FF" stroke-width="1.2" stroke-dasharray="4 3" />
  <line id="slot.grid.h4.line" x1="337" y1="122" x2="571" y2="122" stroke="#4DB6FF" stroke-width="1.2" stroke-dasharray="4 3" />
  <line id="slot.grid.h5.line" x1="337" y1="147" x2="571" y2="147" stroke="#4DB6FF" stroke-width="1.2" stroke-dasharray="4 3" />
  <line id="slot.grid.h6.line" x1="337" y1="172" x2="571" y2="172" stroke="#4DB6FF" stroke-width="1.2" stroke-dasharray="4 3" />
  <line id="slot.grid.h7.line" x1="337" y1="197" x2="571" y2="197" stroke="#4DB6FF" stroke-width="1.2" stroke-dasharray="4 3" />
  <line id="slot.grid.h8.line" x1="337" y1="222" x2="571" y2="222" stroke="#4DB6FF" stroke-width="1.2" stroke-dasharray="4 3" />
  <line id="slot.grid.h9.line" x1="337" y1="247" x2="571" y2="247" stroke="#4DB6FF" stroke-width="1.2" stroke-dasharray="4 3" />
  <line id="slot.grid.h10.line" x1="337" y1="272" x2="571" y2="272" stroke="#4DB6FF" stroke-width="1.2" stroke-dasharray="4 3" />
  <line id="slot.grid.h11.line" x1="337" y1="297" x2="571" y2="297" stroke="#4DB6FF" stroke-width="1.2" stroke-dasharray="4 3" />
  <line id="slot.grid.h12.line" x1="337" y1="322" x2="571" y2="322" stroke="#4DB6FF" stroke-width="1.2" stroke-dasharray="4 3" />
  <line id="slot.grid.h13.line" x1="337" y1="347" x2="571" y2="347" stroke="#4DB6FF" stroke-width="1.2" stroke-dasharray="4 3" />
  <line id="slot.grid.h14.line" x1="337" y1="372" x2="571" y2="372" stroke="#4DB6FF" stroke-width="1.2" stroke-dasharray="4 3" />
  <line id="slot.grid.h15.line" x1="337" y1="397" x2="571" y2="397" stroke="#4DB6FF" stroke-width="1.2" stroke-dasharray="4 3" />
  <line id="slot.grid.h16.line" x1="337" y1="422" x2="571" y2="422" stroke="#4DB6FF" stroke-width="1.2" stroke-dasharray="4 3" />
  <line id="slot.grid.h17.line" x1="337" y1="447" x2="571" y2="447" stroke="#4DB6FF" stroke-width="1.2" stroke-dasharray="4 3" />
  <rect id="slot.rule_box.rect" x="65" y="455" width="832" height="118" fill="none" stroke="#FFA64D" stroke-width="1.5" />
  <text id="slot.rule_1.text" x="123" y="503" fill="#111111" font-family="Noto Sans KR, sans-serif" font-size="28">원의 중심이 ( 아래쪽 , 오른쪽 )으로 모든 3칸씩 옮겨 가고</text>
  <text id="slot.rule_2.text" x="125" y="545" fill="#111111" font-family="Noto Sans KR, sans-serif" font-size="28">원의 반지름이 모든 ( 2, 3, 6 )칸으로 같게 그린 규칙입니다.</text>
</svg>
