<?xml version="1.0" encoding="UTF-8"?>
<svg xmlns="http://www.w3.org/2000/svg" width="926" height="658" viewBox="0 0 926 658">
  <metadata><problem_id>S3_초등_3_008674</problem_id></metadata>
  <rect x="0" y="0" width="926" height="658" fill="#FFFFFF" />
  <text id="slot.header.text.text" x="50" y="55" fill="#111111" font-family="Noto Sans KR, sans-serif" font-size="30">원을 바르게 완성한 것을 선택하세요.</text>
  <rect id="slot.top.square.rect" x="445" y="30" width="160" height="160" fill="#ffffff" stroke="#111111" stroke-width="1.5" />
  <circle id="slot.top.center.circle" cx="490" cy="128" r="4" stroke="#111111" stroke-width="2" fill="#e91e63" />
  <rect id="slot.mid.left.square.rect" x="90" y="325" width="160" height="160" fill="#ffffff" stroke="#111111" stroke-width="1.5" />
  <path id="slot.mid.left.red.path" d="M 170.42327880859375 326.28009033203125 A 80 80 0 0 0 250.42327880859375 406.28009033203125" stroke="#111111" stroke-width="2" fill="none" />
  <circle id="slot.mid.left.center.circle" cx="220" cy="306" r="4" stroke="#111111" stroke-width="2" fill="#e91e63" />
  <rect id="slot.mid.mid.square.rect" x="320" y="325" width="160" height="160" fill="#ffffff" stroke="#111111" stroke-width="1.5" />
  <path id="slot.mid.mid.arc.path" d="M 283.2749328613281 412.4490661621094 A 80 80 0 1 1 363.2749328613281 332.4490661621094" stroke="#111111" stroke-width="2" fill="none" transform="rotate(255 410 226)" />
  <circle id="slot.mid.mid.center.circle" cx="490" cy="306" r="4" stroke="#111111" stroke-width="2" fill="#e91e63" />
  <rect id="slot.mid.right.square.rect" x="565" y="325" width="160" height="160" fill="#ffffff" stroke="#111111" stroke-width="1.5" />
  <path id="slot.mid.right.arc.path" d="M 631.5684204101562 365.5607604980469 A 80 80 0 1 1 711.5684204101562 285.5607604980469" stroke="#111111" stroke-width="2" fill="none" transform="rotate(260 700 226)" />
  <path id="slot.mid.right.red.path" d="M 644.4042358398438 326.1128234863281 A 80 80 0 0 1 724.4042358398438 406.1128234863281" stroke="#111111" stroke-width="2" fill="none" />
  <circle id="slot.mid.right.center.circle" cx="780" cy="306" r="4" stroke="#111111" stroke-width="2" fill="#e91e63" />
  <path id="slot.mid.mid.arc.copy4.path" d="M 470 366 A 140 140 60 61 61 550 286" stroke="#111111" stroke-width="2" fill="none" transform="rotate(255 410 226)" />
  <line id="slot.mid.mid.red.line" x1="400" y1="325" x2="480" y2="405" stroke="#111111" stroke-width="2" />
</svg>
