<?xml version="1.0" encoding="UTF-8"?>
<svg xmlns="http://www.w3.org/2000/svg" width="840" height="630" viewBox="0 0 840 630">
  <metadata><problem_id>S3_초등_3_008590</problem_id></metadata>
  <rect x="0" y="0" width="840" height="630" fill="#FFFFFF" />
  <rect id="slot.eq.bg.rect" x="275" y="47" width="390" height="78" fill="#ffffff" stroke="#111111" stroke-width="1.5" />
  <rect id="slot.eq.blank1.rect" x="490" y="74" width="28" height="28" fill="#ffffff" stroke="#111111" stroke-width="1.5" />
  <rect id="slot.eq.blank2.rect" x="568" y="74" width="28" height="28" fill="#ffffff" stroke="#111111" stroke-width="1.5" />
  <rect id="slot.opt1.bubble.rect" x="150" y="165" width="145" height="105" fill="#ffffff" stroke="#111111" stroke-width="1.5" />
  <circle id="slot.opt1.face.head.circle" cx="209" cy="325" r="24" stroke="#111111" stroke-width="2" fill="#F3C0AD" />
  <rect id="slot.opt1.face.body.rect" x="197" y="342" width="24" height="34" fill="#D7A0D7" stroke="#D7A0D7" stroke-width="1.5" rx="8" ry="8" />
  <circle id="slot.opt1.face.eye1.circle" cx="203" cy="321" r="2.5" stroke="#111111" stroke-width="2" fill="#222222" />
  <circle id="slot.opt1.face.eye2.circle" cx="215" cy="321" r="2.5" stroke="#111111" stroke-width="2" fill="#222222" />
  <rect id="slot.opt2.bubble.rect" x="405" y="165" width="145" height="105" fill="#ffffff" stroke="#111111" stroke-width="1.5" />
  <circle id="slot.opt2.face.head.circle" cx="464" cy="325" r="24" stroke="#111111" stroke-width="2" fill="#F3C0AD" />
  <rect id="slot.opt2.face.body.rect" x="452" y="342" width="24" height="34" fill="#8ED7E6" stroke="#8ED7E6" stroke-width="1.5" rx="8" ry="8" />
  <circle id="slot.opt2.face.eye1.circle" cx="458" cy="321" r="2.5" stroke="#111111" stroke-width="2" fill="#222222" />
  <circle id="slot.opt2.face.eye2.circle" cx="470" cy="321" r="2.5" stroke="#111111" stroke-width="2" fill="#222222" />
  <rect id="slot.opt3.bubble.rect" x="660" y="165" width="145" height="105" fill="#ffffff" stroke="#111111" stroke-width="1.5" />
  <circle id="slot.opt3.face.head.circle" cx="719" cy="325" r="24" stroke="#111111" stroke-width="2" fill="#F3C0AD" />
  <rect id="slot.opt3.face.body.rect" x="707" y="342" width="24" height="34" fill="#F2C66D" stroke="#F2C66D" stroke-width="1.5" rx="8" ry="8" />
  <circle id="slot.opt3.face.eye1.circle" cx="713" cy="321" r="2.5" stroke="#111111" stroke-width="2" fill="#222222" />
  <circle id="slot.opt3.face.eye2.circle" cx="725" cy="321" r="2.5" stroke="#111111" stroke-width="2" fill="#222222" />
  <line id="slot.opt1.face.mouth.line" x1="203" y1="331" x2="215" y2="331" stroke="#C36A6A" stroke-width="2" />
  <line id="slot.opt2.face.mouth.line" x1="458" y1="331" x2="470" y2="331" stroke="#C36A6A" stroke-width="2" />
  <line id="slot.opt3.face.mouth.line" x1="713" y1="331" x2="725" y2="331" stroke="#C36A6A" stroke-width="2" />
  <text id="slot.q1.text" x="16" y="34" max_width="712" fill="#111111" font-family="Noto Sans KR, sans-serif" font-size="28">57. 문제를 바르게 설명한 사람을 선택하세요.</text>
  <text id="slot.eq.text.text" x="350" y="95" max_width="712" fill="#111111" font-family="Noto Sans KR, sans-serif" font-size="28">68 ÷ 5 = □ ... □</text>
  <text id="slot.opt1.text.text" x="182" y="198" max_width="712" fill="#111111" font-family="Noto Sans KR, sans-serif" font-size="28">
    <tspan x="182" dy="0">몫은</tspan>
    <tspan x="182" dy="1.2em">13이야.</tspan>
  </text>
  <text id="slot.opt1.name.text" x="182" y="430" max_width="712" fill="#111111" font-family="Noto Sans KR, sans-serif" font-size="28">정우</text>
  <text id="slot.opt2.text.text" x="430" y="198" max_width="712" fill="#111111" font-family="Noto Sans KR, sans-serif" font-size="28">
    <tspan x="430" dy="0">나머지는</tspan>
    <tspan x="430" dy="1.2em">5보다 작아.</tspan>
  </text>
  <text id="slot.opt2.name.text" x="438" y="430" max_width="712" fill="#111111" font-family="Noto Sans KR, sans-serif" font-size="28">소영</text>
  <text id="slot.opt3.text.text" x="684" y="198" max_width="712" fill="#111111" font-family="Noto Sans KR, sans-serif" font-size="28">
    <tspan x="684" dy="0">나누어떨어지지</tspan>
    <tspan x="684" dy="1.2em">않아.</tspan>
  </text>
  <text id="slot.opt3.name.text" x="693" y="430" max_width="712" fill="#111111" font-family="Noto Sans KR, sans-serif" font-size="28">상태</text>
</svg>
