<?xml version="1.0" encoding="UTF-8"?>
<svg xmlns="http://www.w3.org/2000/svg" width="706" height="373" viewBox="0 0 706 373">
  <metadata><problem_id>S3_초등_3_009045</problem_id></metadata>
  <rect x="0" y="0" width="706" height="373" fill="#FFFFFF" />
  <text id="slot.symbol.text" x="7" y="22" fill="#111111" font-family="Noto Sans KR, sans-serif" font-size="28">□</text>
  <text id="slot.num.text" x="34" y="24" fill="#111111" font-family="Noto Sans KR, sans-serif" font-size="28">83.</text>
  <text id="slot.q.text" x="78" y="24" fill="#111111" font-family="Noto Sans KR, sans-serif" font-size="28">곧은 선을 모두 선택하세요.</text>
  <rect id="slot.box.rect" x="157" y="37" width="528" height="200" fill="none" stroke="#F5A7B8" stroke-width="1.5" />
  <path id="slot.line.na.path" d="M 345 93 C 372 56, 409 56, 436 93" stroke="#444444" stroke-width="1.5" fill="none" />
  <path id="slot.line.da.path" d="M 505 114 C 500 77, 513 47, 529 47 C 547 47, 551 79, 549 100 C 547 125, 560 150, 579 150 C 595 150, 600 132, 600 109" stroke="#444444" stroke-width="1.5" fill="none" />
  <path id="slot.line.ra.path" d="M 211 176 C 195 168, 188 149, 195 133 C 205 111, 229 105, 246 120 C 260 133, 264 153, 255 170 C 243 192, 215 201, 191 193 C 164 184, 150 156, 156 129 C 164 97, 195 77, 228 81" stroke="#444444" stroke-width="1.5" fill="none" />
  <line id="slot.line.ga.line" x1="221" y1="88" x2="255" y2="44" stroke="#444444" stroke-width="1.5" />
  <line id="slot.line.ma.line" x1="370" y1="179" x2="472" y2="179" stroke="#444444" stroke-width="1.5" />
  <line id="slot.line.ba.line" x1="535" y1="162" x2="627" y2="203" stroke="#444444" stroke-width="1.5" />
  <text id="slot.lb.ga.text" x="178" y="70" fill="#111111" font-family="Noto Sans KR, sans-serif" font-size="28">가</text>
  <text id="slot.lb.na.text" x="330" y="70" fill="#111111" font-family="Noto Sans KR, sans-serif" font-size="28">나</text>
  <text id="slot.lb.da.text" x="489" y="70" fill="#111111" font-family="Noto Sans KR, sans-serif" font-size="28">다</text>
  <text id="slot.lb.ra.text" x="179" y="164" fill="#111111" font-family="Noto Sans KR, sans-serif" font-size="28">라</text>
  <text id="slot.lb.ma.text" x="329" y="164" fill="#111111" font-family="Noto Sans KR, sans-serif" font-size="28">마</text>
  <text id="slot.lb.ba.text" x="489" y="164" fill="#111111" font-family="Noto Sans KR, sans-serif" font-size="28">바</text>
</svg>
