<?xml version="1.0" encoding="UTF-8"?>
<svg xmlns="http://www.w3.org/2000/svg" width="960" height="624" viewBox="0 0 960 624">
  <metadata><problem_id>S3_초등_3_008704</problem_id></metadata>
  <rect x="0" y="0" width="960" height="624" fill="#FFFFFF" />
  <line id="slot.graphpaper.v0.line" x1="50" y1="165" x2="50" y2="415" stroke="#2563eb" stroke-width="1" />
  <line id="slot.graphpaper.v1.line" x1="75" y1="165" x2="75" y2="415" stroke="#2563eb" stroke-width="1" />
  <line id="slot.graphpaper.v2.line" x1="100" y1="165" x2="100" y2="415" stroke="#2563eb" stroke-width="1" />
  <line id="slot.graphpaper.v3.line" x1="125" y1="165" x2="125" y2="415" stroke="#2563eb" stroke-width="1" />
  <line id="slot.graphpaper.v4.line" x1="150" y1="165" x2="150" y2="415" stroke="#2563eb" stroke-width="1" />
  <line id="slot.graphpaper.v5.line" x1="175" y1="165" x2="175" y2="415" stroke="#2563eb" stroke-width="1" />
  <line id="slot.graphpaper.v6.line" x1="200" y1="165" x2="200" y2="415" stroke="#2563eb" stroke-width="1" />
  <line id="slot.graphpaper.v7.line" x1="225" y1="165" x2="225" y2="415" stroke="#2563eb" stroke-width="1" />
  <line id="slot.graphpaper.v8.line" x1="250" y1="165" x2="250" y2="415" stroke="#2563eb" stroke-width="1" />
  <line id="slot.graphpaper.v9.line" x1="275" y1="165" x2="275" y2="415" stroke="#2563eb" stroke-width="1" />
  <line id="slot.graphpaper.v10.line" x1="300" y1="165" x2="300" y2="415" stroke="#2563eb" stroke-width="1" />
  <line id="slot.graphpaper.h0.line" x1="50" y1="165" x2="300" y2="165" stroke="#2563eb" stroke-width="1" />
  <line id="slot.graphpaper.h1.line" x1="50" y1="190" x2="300" y2="190" stroke="#2563eb" stroke-width="1" />
  <line id="slot.graphpaper.h2.line" x1="50" y1="215" x2="300" y2="215" stroke="#2563eb" stroke-width="1" />
  <line id="slot.graphpaper.h3.line" x1="50" y1="240" x2="300" y2="240" stroke="#2563eb" stroke-width="1" />
  <line id="slot.graphpaper.h4.line" x1="50" y1="265" x2="300" y2="265" stroke="#2563eb" stroke-width="1" />
  <line id="slot.graphpaper.h5.line" x1="50" y1="290" x2="300" y2="290" stroke="#2563eb" stroke-width="1" />
  <line id="slot.graphpaper.h6.line" x1="50" y1="315" x2="300" y2="315" stroke="#2563eb" stroke-width="1" />
  <line id="slot.graphpaper.h7.line" x1="50" y1="340" x2="300" y2="340" stroke="#2563eb" stroke-width="1" />
  <line id="slot.graphpaper.h8.line" x1="50" y1="365" x2="300" y2="365" stroke="#2563eb" stroke-width="1" />
  <line id="slot.graphpaper.h9.line" x1="50" y1="390" x2="300" y2="390" stroke="#2563eb" stroke-width="1" />
  <line id="slot.graphpaper.h10.line" x1="50" y1="415" x2="300" y2="415" stroke="#2563eb" stroke-width="1" />
  <text id="slot.title.text" x="45" y="50" fill="#111111" font-family="Noto Sans KR, sans-serif" font-size="30">승아는 규칙에 따라 원을 그렸습니다.  </text>
  <text id="slot.title.copy9.text" x="45" y="95" fill="#111111" font-family="Noto Sans KR, sans-serif" font-size="30">승아가 원을 그린 규칙을 찾아 알맞은 것을 선택해보세요.</text>
  <circle id="slot.circle.1.circle" cx="175" cy="295" r="25" stroke="#555555" stroke-width="2" fill="none" />
  <circle id="slot.circle.2.circle" cx="175" cy="295" r="50" stroke="#555555" stroke-width="2" fill="none" />
  <circle id="slot.circle.3.circle" cx="175" cy="295" r="70" stroke="#555555" stroke-width="2" fill="none" />
  <circle id="slot.center.circle" cx="175" cy="295" r="5" stroke="none" stroke-width="2" fill="#ff4da6" />
  <rect id="slot.bubble.rect" x="385" y="120" width="300" height="135" fill="#ffffff" stroke="#555555" stroke-width="2" rx="70" ry="55" />
  <text id="slot.title.copy9.copy10.text" x="365" y="205" fill="#111111" font-family="Noto Sans KR, sans-serif" font-size="25">원의 중심이 같고 원의 반지름은 다르게 하여 그린 거야.</text>
  <text id="slot.nameplate.text.text" x="605" y="355" fill="#111111" font-family="Noto Sans KR, sans-serif" font-size="30">승아</text>
  <rect id="slot.choice.bg.rect" x="45" y="450" width="750" height="120" fill="#e6f1cf" stroke="none" stroke-width="1.5" />
  <text id="slot.choice.text1.text" x="200" y="495" fill="#111111" font-family="Noto Sans KR, sans-serif" font-size="30">원의 중심이 ( 같습니다, 다릅니다 ).</text>
  <text id="slot.choice.text2.text" x="135" y="535" fill="#111111" font-family="Noto Sans KR, sans-serif" font-size="30">원의 반지름이 모두 ( 1, 2, 3 )칸씩 늘어났습니다.</text>
</svg>
