<?xml version="1.0" encoding="UTF-8"?>
<svg xmlns="http://www.w3.org/2000/svg" width="950" height="410" viewBox="0 0 950 410">
  <metadata><problem_id>S3_초등_3_008691</problem_id></metadata>
  <rect x="0" y="0" width="950" height="410" fill="#FFFFFF" />
  <rect id="slot.qbox.rect" x="18" y="20" width="12" height="12" fill="#ffffff" stroke="#111111" stroke-width="1.5" />
  <text id="slot.qnum.text" x="34" y="35" fill="#111111" font-family="Noto Sans KR, sans-serif" font-size="28">80.</text>
  <text id="slot.qtext1.text" x="78" y="35" fill="#111111" font-family="Noto Sans KR, sans-serif" font-size="28">원의 반지름과 지름을 나타내는 선분을 각각 찾아 보세</text>
  <text id="slot.qtext2.text" x="41" y="68" fill="#111111" font-family="Noto Sans KR, sans-serif" font-size="28">요.</text>
  <text id="slot.lb.ga_text.text" x="479" y="124" fill="#111111" font-family="Noto Sans KR, sans-serif" font-size="22">ㄱ</text>
  <text id="slot.lb.na_text.text" x="489" y="179" fill="#111111" font-family="Noto Sans KR, sans-serif" font-size="22">ㄴ</text>
  <text id="slot.lb.da_text.text" x="556" y="152" fill="#111111" font-family="Noto Sans KR, sans-serif" font-size="22">ㄷ</text>
  <circle id="slot.circle.circle" cx="521" cy="168" r="74" stroke="#111111" stroke-width="2" fill="none" />
  <circle id="slot.pt.center.circle" cx="521" cy="168" r="3.8" stroke="#111111" stroke-width="2" fill="#ff4da6" />
  <circle id="slot.pt.pink.circle" cx="521" cy="168" r="1.8" stroke="#111111" stroke-width="2" fill="#ff4da6" />
  <circle id="slot.lb.ga.circle" cx="484" cy="119" r="11" stroke="#111111" stroke-width="2" fill="none" />
  <circle id="slot.lb.na.circle" cx="494" cy="174" r="11" stroke="#111111" stroke-width="2" fill="none" />
  <circle id="slot.lb.da.circle" cx="561" cy="147" r="11" stroke="#111111" stroke-width="2" fill="none" />
  <line id="slot.line.a.line" x1="521" y1="94" x2="445" y2="168" stroke="#111111" stroke-width="2" />
  <line id="slot.line.b.line" x1="521" y1="94" x2="521" y2="242" stroke="#111111" stroke-width="2" />
  <line id="slot.line.c.line" x1="521" y1="168" x2="596" y2="168" stroke="#111111" stroke-width="2" />
  <line id="slot.line.d.line" x1="448" y1="166" x2="521" y2="94" stroke="#111111" stroke-width="2" />
  <line id="slot.line.e.line" x1="521" y1="168" x2="521" y2="94" stroke="#111111" stroke-width="2" />
  <line id="slot.line.f.line" x1="521" y1="168" x2="521" y2="242" stroke="#111111" stroke-width="2" />
  <line id="slot.line.g.line" x1="521" y1="168" x2="596" y2="168" stroke="#111111" stroke-width="2" />
  <line id="slot.line.h.line" x1="445" y1="168" x2="521" y2="94" stroke="#111111" stroke-width="2" />
  <line id="slot.line.i.line" x1="448" y1="168" x2="521" y2="242" stroke="#111111" stroke-width="2" />
  <line id="slot.line.j.line" x1="521" y1="94" x2="521" y2="242" stroke="#111111" stroke-width="2" />
  <line id="slot.line.k.line" x1="445" y1="168" x2="521" y2="94" stroke="#111111" stroke-width="2" />
  <line id="slot.line.l.line" x1="521" y1="168" x2="521" y2="242" stroke="#111111" stroke-width="2" />
  <line id="slot.lb.guide1.line" x1="487" y1="112" x2="504" y2="95" stroke="#111111" stroke-width="2" />
  <line id="slot.lb.guide2.line" x1="490" y1="180" x2="482" y2="198" stroke="#111111" stroke-width="2" />
  <line id="slot.lb.guide3.line" x1="565" y1="140" x2="582" y2="139" stroke="#111111" stroke-width="2" />
  <text id="slot.lb.o.text" x="528" y="185" fill="#111111" font-family="Noto Sans KR, sans-serif" font-size="24">O</text>
  <text id="slot.choice.text" x="180" y="294" fill="#111111" font-family="Noto Sans KR, sans-serif" font-size="28">원의 반지름 (ㄱ, ㄴ, ㄷ), 원의 지름 (ㄱ, ㄴ, ㄷ)</text>
</svg>
