<?xml version="1.0" encoding="UTF-8"?>
<svg xmlns="http://www.w3.org/2000/svg" width="940" height="367" viewBox="0 0 940 367">
  <metadata><problem_id>S3_초등_3_008784</problem_id></metadata>
  <rect x="0" y="0" width="940" height="367" fill="#FFFFFF" />
  <text id="slot.q1.text" x="10" y="28" fill="#111111" font-family="Noto Sans KR, sans-serif" font-size="28">□ 6.</text>
  <text id="slot.q2.text" x="72" y="28" fill="#111111" font-family="Noto Sans KR, sans-serif" font-size="28">물병과 유리컵에 물을 가득 채웠다가 모양과 크기가 같은 그릇에 각각 옮</text>
  <text id="slot.q3.text" x="72" y="59" fill="#111111" font-family="Noto Sans KR, sans-serif" font-size="28">겨 담았습니다. 물병과 유리컵 중에서 들이가 더 많은 것을 선택해 보세요.</text>
  <rect id="slot.bottle.body.rect" x="343" y="107" width="32" height="105" fill="#ffffff" stroke="#111111" stroke-width="1.5" />
  <rect id="slot.bottle.neck.rect" x="353" y="93" width="12" height="18" fill="#ffffff" stroke="#111111" stroke-width="1.5" />
  <rect id="slot.bottle.cap.rect" x="352" y="84" width="14" height="10" fill="#ffffff" stroke="#111111" stroke-width="1.5" />
  <path id="slot.leftarrow.path" d="M 394.0 99.0 C 409.0 86.0, 428.0 85.0, 441.0 98.0" stroke="#111111" stroke-width="2" fill="none" />
  <path id="slot.rightarrow.path" d="M 672.0 99.0 C 658.0 86.0, 639.0 85.0, 626.0 98.0" stroke="#111111" stroke-width="2" fill="none" />
  <rect id="slot.cup1.body.rect" x="432" y="110" width="36" height="97" fill="#ffffff" stroke="#111111" stroke-width="1.5" />
  <rect id="slot.cup1.water.rect" x="435" y="115" width="30" height="92" fill="#ffffff" stroke="#111111" stroke-width="1.5" />
  <rect id="slot.cup2.body.rect" x="488" y="110" width="36" height="97" fill="#ffffff" stroke="#111111" stroke-width="1.5" />
  <rect id="slot.cup2.water.rect" x="491" y="149" width="30" height="58" fill="#ffffff" stroke="#111111" stroke-width="1.5" />
  <rect id="slot.glass.body.rect" x="669" y="112" width="38" height="80" fill="#ffffff" stroke="#111111" stroke-width="1.5" />
  <rect id="slot.glass.base.rect" x="676" y="214" width="24" height="6" fill="#ffffff" stroke="#111111" stroke-width="1.5" />
  <line id="slot.glass.stem.line" x1="688" y1="192" x2="688" y2="215" stroke="#111111" stroke-width="2" />
  <text id="slot.bottle.label.text" x="332" y="236" fill="#111111" font-family="Noto Sans KR, sans-serif" font-size="28">물병</text>
  <text id="slot.glass.caption.text" x="664" y="236" fill="#111111" font-family="Noto Sans KR, sans-serif" font-size="28">유리컵</text>
  <text id="slot.choice.text" x="728" y="270" fill="#111111" font-family="Noto Sans KR, sans-serif" font-size="28">( 물병 , 유리컵 )</text>
</svg>
