<?xml version="1.0" encoding="UTF-8"?>
<svg xmlns="http://www.w3.org/2000/svg" width="940" height="720" viewBox="0 0 940 720">
  <metadata><problem_id>S3_초등_3_008637</problem_id></metadata>
  <rect x="0" y="0" width="940" height="720" fill="#FFFFFF" />
  <text id="slot.q1.text" x="10" y="32" max_width="812" fill="#111111" font-family="Noto Sans KR, sans-serif" font-size="28">□ 9. 원의 중심을 찾아 선택해 보세요.</text>
  <circle id="slot.top.circle.circle" cx="479" cy="154" r="52" stroke="#111111" stroke-width="2" fill="none" />
  <circle id="slot.top.pt.giyeok.circle" cx="427" cy="154" r="4" stroke="#111111" stroke-width="2" fill="#ff4da6" />
  <circle id="slot.top.pt.nieun.circle" cx="479" cy="154" r="4" stroke="#111111" stroke-width="2" fill="#ff4da6" />
  <circle id="slot.top.pt.digeut.circle" cx="531" cy="154" r="4" stroke="#111111" stroke-width="2" fill="#ff4da6" />
  <line id="slot.top.grid.v1.line" x1="375" y1="50" x2="375" y2="262" stroke="#9AA0A6" stroke-width="1.2" stroke-dasharray="5 3" />
  <line id="slot.top.grid.v2.line" x1="401" y1="50" x2="401" y2="262" stroke="#9AA0A6" stroke-width="1.2" stroke-dasharray="5 3" />
  <line id="slot.top.grid.v3.line" x1="427" y1="50" x2="427" y2="262" stroke="#9AA0A6" stroke-width="1.2" stroke-dasharray="5 3" />
  <line id="slot.top.grid.v4.line" x1="453" y1="50" x2="453" y2="262" stroke="#9AA0A6" stroke-width="1.2" stroke-dasharray="5 3" />
  <line id="slot.top.grid.v5.line" x1="479" y1="50" x2="479" y2="262" stroke="#9AA0A6" stroke-width="1.2" stroke-dasharray="5 3" />
  <line id="slot.top.grid.v6.line" x1="505" y1="50" x2="505" y2="262" stroke="#9AA0A6" stroke-width="1.2" stroke-dasharray="5 3" />
  <line id="slot.top.grid.v7.line" x1="531" y1="50" x2="531" y2="262" stroke="#9AA0A6" stroke-width="1.2" stroke-dasharray="5 3" />
  <line id="slot.top.grid.v8.line" x1="557" y1="50" x2="557" y2="262" stroke="#9AA0A6" stroke-width="1.2" stroke-dasharray="5 3" />
  <line id="slot.top.grid.v9.line" x1="583" y1="50" x2="583" y2="262" stroke="#9AA0A6" stroke-width="1.2" stroke-dasharray="5 3" />
  <line id="slot.top.grid.h1.line" x1="375" y1="50" x2="583" y2="50" stroke="#9AA0A6" stroke-width="1.2" stroke-dasharray="5 3" />
  <line id="slot.top.grid.h2.line" x1="375" y1="76" x2="583" y2="76" stroke="#9AA0A6" stroke-width="1.2" stroke-dasharray="5 3" />
  <line id="slot.top.grid.h3.line" x1="375" y1="102" x2="583" y2="102" stroke="#9AA0A6" stroke-width="1.2" stroke-dasharray="5 3" />
  <line id="slot.top.grid.h4.line" x1="375" y1="128" x2="583" y2="128" stroke="#9AA0A6" stroke-width="1.2" stroke-dasharray="5 3" />
  <line id="slot.top.grid.h5.line" x1="375" y1="154" x2="583" y2="154" stroke="#9AA0A6" stroke-width="1.2" stroke-dasharray="5 3" />
  <line id="slot.top.grid.h6.line" x1="375" y1="180" x2="583" y2="180" stroke="#9AA0A6" stroke-width="1.2" stroke-dasharray="5 3" />
  <line id="slot.top.grid.h7.line" x1="375" y1="206" x2="583" y2="206" stroke="#9AA0A6" stroke-width="1.2" stroke-dasharray="5 3" />
  <line id="slot.top.grid.h8.line" x1="375" y1="232" x2="583" y2="232" stroke="#9AA0A6" stroke-width="1.2" stroke-dasharray="5 3" />
  <text id="slot.top.lb.giyeok.text" x="404" y="147" max_width="812" fill="#111111" font-family="Noto Sans KR, sans-serif" font-size="28">ㄱ</text>
  <text id="slot.top.lb.nieun.text" x="470" y="147" max_width="812" fill="#111111" font-family="Noto Sans KR, sans-serif" font-size="28">ㄴ</text>
  <text id="slot.top.lb.digeut.text" x="544" y="147" max_width="812" fill="#111111" font-family="Noto Sans KR, sans-serif" font-size="28">ㄷ</text>
  <circle id="slot.bottom.circle.circle" cx="140" cy="506" r="39" stroke="#111111" stroke-width="2" fill="none" />
  <circle id="slot.bottom.pt.giyeok.circle" cx="88" cy="506" r="4" stroke="#111111" stroke-width="2" fill="#ff4da6" />
  <circle id="slot.bottom.pt.nieun.circle" cx="140" cy="506" r="4" stroke="#111111" stroke-width="2" fill="#ff4da6" />
  <circle id="slot.bottom.pt.digeut.circle" cx="192" cy="506" r="4" stroke="#111111" stroke-width="2" fill="#ff4da6" />
  <line id="slot.bottom.grid.v1.line" x1="36" y1="402" x2="36" y2="588" stroke="#9AA0A6" stroke-width="1.2" stroke-dasharray="5 3" />
  <line id="slot.bottom.grid.v2.line" x1="62" y1="402" x2="62" y2="588" stroke="#9AA0A6" stroke-width="1.2" stroke-dasharray="5 3" />
  <line id="slot.bottom.grid.v3.line" x1="88" y1="402" x2="88" y2="588" stroke="#9AA0A6" stroke-width="1.2" stroke-dasharray="5 3" />
  <line id="slot.bottom.grid.v4.line" x1="114" y1="402" x2="114" y2="588" stroke="#9AA0A6" stroke-width="1.2" stroke-dasharray="5 3" />
  <line id="slot.bottom.grid.v5.line" x1="140" y1="402" x2="140" y2="588" stroke="#9AA0A6" stroke-width="1.2" stroke-dasharray="5 3" />
  <line id="slot.bottom.grid.v6.line" x1="166" y1="402" x2="166" y2="588" stroke="#9AA0A6" stroke-width="1.2" stroke-dasharray="5 3" />
  <line id="slot.bottom.grid.v7.line" x1="192" y1="402" x2="192" y2="588" stroke="#9AA0A6" stroke-width="1.2" stroke-dasharray="5 3" />
  <line id="slot.bottom.grid.v8.line" x1="218" y1="402" x2="218" y2="588" stroke="#9AA0A6" stroke-width="1.2" stroke-dasharray="5 3" />
  <line id="slot.bottom.grid.v9.line" x1="244" y1="402" x2="244" y2="588" stroke="#9AA0A6" stroke-width="1.2" stroke-dasharray="5 3" />
  <line id="slot.bottom.grid.h1.line" x1="36" y1="402" x2="244" y2="402" stroke="#9AA0A6" stroke-width="1.2" stroke-dasharray="5 3" />
  <line id="slot.bottom.grid.h2.line" x1="36" y1="428" x2="244" y2="428" stroke="#9AA0A6" stroke-width="1.2" stroke-dasharray="5 3" />
  <line id="slot.bottom.grid.h3.line" x1="36" y1="454" x2="244" y2="454" stroke="#9AA0A6" stroke-width="1.2" stroke-dasharray="5 3" />
  <line id="slot.bottom.grid.h4.line" x1="36" y1="480" x2="244" y2="480" stroke="#9AA0A6" stroke-width="1.2" stroke-dasharray="5 3" />
  <line id="slot.bottom.grid.h5.line" x1="36" y1="506" x2="244" y2="506" stroke="#9AA0A6" stroke-width="1.2" stroke-dasharray="5 3" />
  <line id="slot.bottom.grid.h6.line" x1="36" y1="532" x2="244" y2="532" stroke="#9AA0A6" stroke-width="1.2" stroke-dasharray="5 3" />
  <line id="slot.bottom.grid.h7.line" x1="36" y1="558" x2="244" y2="558" stroke="#9AA0A6" stroke-width="1.2" stroke-dasharray="5 3" />
  <line id="slot.bottom.grid.h8.line" x1="36" y1="584" x2="244" y2="584" stroke="#9AA0A6" stroke-width="1.2" stroke-dasharray="5 3" />
  <text id="slot.bottom.lb.giyeok.text" x="65" y="499" max_width="812" fill="#111111" font-family="Noto Sans KR, sans-serif" font-size="28">ㄱ</text>
  <text id="slot.bottom.lb.nieun.text" x="131" y="499" max_width="812" fill="#111111" font-family="Noto Sans KR, sans-serif" font-size="28">ㄴ</text>
  <text id="slot.bottom.lb.digeut.text" x="205" y="499" max_width="812" fill="#111111" font-family="Noto Sans KR, sans-serif" font-size="28">ㄷ</text>
  <text id="slot.ans.text" x="36" y="612" max_width="812" fill="#111111" font-family="Noto Sans KR, sans-serif" font-size="22">(정답) ㄴ</text>
  <text id="slot.exp.text" x="36" y="655" max_width="812" fill="#111111" font-family="Noto Sans KR, sans-serif" font-size="20">(해설) 원의 중심은 원을 그릴 때 누름 못이 꽂혔던 점으로 한 원에는 원의 중심이 1개 있습니다.</text>
</svg>
