<?xml version="1.0" encoding="UTF-8"?>
<svg xmlns="http://www.w3.org/2000/svg" width="960" height="420" viewBox="0 0 960 420">
  <metadata><problem_id>S3_초등_3_009034</problem_id></metadata>
  <rect x="0" y="0" width="960" height="420" fill="#FFFFFF" />
  <text id="slot.qnum.text" x="20" y="28" fill="#111111" font-family="Noto Sans KR, sans-serif" font-size="28">72.</text>
  <text id="slot.qstem.text" x="58" y="28" fill="#111111" font-family="Noto Sans KR, sans-serif" font-size="28">직사각형 모양의 종이로 그림과 같은 모양을 만들었습니다. 다음을 읽고 O, X를 고르세요.</text>
  <rect id="slot.step1.rect.rect" x="38" y="84" width="120" height="84" fill="#ffffff" stroke="#111111" stroke-width="1.5" />
  <rect id="slot.step2.rect.rect" x="274" y="84" width="120" height="84" fill="#ffffff" stroke="#111111" stroke-width="1.5" />
  <rect id="slot.step3.rect.rect" x="510" y="84" width="120" height="84" fill="#ffffff" stroke="#111111" stroke-width="1.5" />
  <path id="slot.step3.scissors.path" d="M 578.0 164.0 C 582.0 174.0, 582.0 182.0, 578.0 190.0" stroke="#111111" stroke-width="2" fill="none" />
  <rect id="slot.step4.rect.rect" x="726" y="84" width="120" height="84" fill="#ffffff" stroke="#111111" stroke-width="1.5" />
  <path id="slot.step4.curve.path" d="M 790.0 110.0 C 812.0 112.0, 813.0 136.0, 790.0 142.0" stroke="#111111" stroke-width="2" fill="none" />
  <line id="slot.step1.diag.line" x1="44" y1="90" x2="128" y2="166" stroke="#111111" stroke-width="2" />
  <line id="slot.step2.fold.line" x1="274" y1="84" x2="350" y2="168" stroke="#111111" stroke-width="2" />
  <line id="slot.step3.fold.line" x1="510" y1="84" x2="586" y2="168" stroke="#111111" stroke-width="2" />
  <line id="slot.step4.diag.line" x1="738" y1="90" x2="820" y2="166" stroke="#111111" stroke-width="2" />
  <text id="slot.step1.note.text" x="114" y="190" fill="#111111" font-family="Noto Sans KR, sans-serif" font-size="24">접선을 따라 접어요.</text>
  <text id="slot.arrow1.text" x="178" y="132" fill="#111111" font-family="Noto Sans KR, sans-serif" font-size="34">→</text>
  <text id="slot.step2.note.text" x="0" y="0" fill="#111111" font-family="Noto Sans KR, sans-serif" font-size="28"></text>
  <text id="slot.arrow2.text" x="414" y="132" fill="#111111" font-family="Noto Sans KR, sans-serif" font-size="34">→</text>
  <text id="slot.step3.note.text" x="0" y="0" fill="#111111" font-family="Noto Sans KR, sans-serif" font-size="28"></text>
  <text id="slot.arrow3.text" x="650" y="132" fill="#111111" font-family="Noto Sans KR, sans-serif" font-size="34">→</text>
  <text id="slot.step4.note.text" x="790" y="190" fill="#111111" font-family="Noto Sans KR, sans-serif" font-size="24">잘라낸 모양을 펼쳐요.</text>
  <text id="slot.claim.text" x="230" y="252" fill="#111111" font-family="Noto Sans KR, sans-serif" font-size="30">만든 모양의 네 변의 길이는 모두 같습니다.</text>
  <circle id="slot.choice.o.circle" cx="22" cy="338" r="8" stroke="#111111" stroke-width="2" fill="#ffffff" />
  <circle id="slot.choice.x.circle" cx="476" cy="338" r="8" stroke="#111111" stroke-width="2" fill="#ffffff" />
</svg>
