<?xml version="1.0" encoding="UTF-8"?>
<svg xmlns="http://www.w3.org/2000/svg" width="786" height="301" viewBox="0 0 786 301">
  <metadata><problem_id>S3_초등_3_008563</problem_id></metadata>
  <rect x="0" y="0" width="786" height="301" fill="#FFFFFF" />
  <text id="slot.q_text.text" x="74" y="20" max_width="658" fill="#111111" font-family="Noto Sans KR, sans-serif" font-size="24">계산 결과가 더 큰 사람을 선택해 보세요.</text>
  <circle id="slot.left_head.circle" cx="340" cy="56" r="17" stroke="#111111" stroke-width="2" fill="#FFD9B3" />
  <rect id="slot.left_body.rect" x="323" y="73" width="34" height="36" fill="#9ED3FF" stroke="#111111" stroke-width="1.5" />
  <circle id="slot.right_head.circle" cx="600" cy="56" r="17" stroke="#111111" stroke-width="2" fill="#FFD9B3" />
  <rect id="slot.right_body.rect" x="583" y="73" width="34" height="36" fill="#B7E7A1" stroke="#111111" stroke-width="1.5" />
  <rect id="slot.left_card.rect" x="302" y="70" width="122" height="61" fill="#ffffff" stroke="#111111" stroke-width="1.5" />
  <rect id="slot.right_card.rect" x="562" y="70" width="121" height="61" fill="#ffffff" stroke="#111111" stroke-width="1.5" />
  <rect id="slot.left_name_box.rect" x="201" y="48" width="58" height="27" fill="#ffffff" stroke="#111111" stroke-width="1.5" />
  <rect id="slot.right_name_box.rect" x="724" y="48" width="52" height="27" fill="#ffffff" stroke="#111111" stroke-width="1.5" />
  <line id="slot.left_leg1.line" x1="332" y1="109" x2="326" y2="124" stroke="#111111" stroke-width="2" />
  <line id="slot.left_leg2.line" x1="348" y1="109" x2="354" y2="124" stroke="#111111" stroke-width="2" />
  <line id="slot.right_leg1.line" x1="592" y1="109" x2="586" y2="124" stroke="#111111" stroke-width="2" />
  <line id="slot.right_leg2.line" x1="608" y1="109" x2="614" y2="124" stroke="#111111" stroke-width="2" />
  <text id="slot.left_name.text" x="210" y="67" max_width="658" fill="#111111" font-family="Noto Sans KR, sans-serif" font-size="18">은우</text>
  <text id="slot.right_name.text" x="732" y="67" max_width="658" fill="#111111" font-family="Noto Sans KR, sans-serif" font-size="18">도윤</text>
  <text id="slot.left_expr.text" x="330" y="104" max_width="658" fill="#111111" font-family="Noto Sans KR, sans-serif" font-size="24">24 × 42</text>
  <text id="slot.right_expr.text" x="588" y="104" max_width="658" fill="#111111" font-family="Noto Sans KR, sans-serif" font-size="24">19 × 78</text>
</svg>
