<?xml version="1.0" encoding="UTF-8"?>
<svg xmlns="http://www.w3.org/2000/svg" width="940" height="560" viewBox="0 0 940 560">
  <metadata><problem_id>S3_초등_3_008811</problem_id></metadata>
  <rect x="0" y="0" width="940" height="560" fill="#FFFFFF" />
  <circle id="slot.girl.head.circle" cx="62" cy="124" r="24" stroke="#111111" stroke-width="2" fill="#f4c7b8" />
  <polygon id="slot.girl.hair.polygon" points="40,100 52,82 74,82 86,96 84,118 70,132 44,128" stroke="#111111" stroke-width="2" fill="#3d2b2a" />
  <rect id="slot.girl.body.rect" x="48" y="146" width="28" height="46" fill="#0e76bd" stroke="#111111" stroke-width="1.5" rx="5" ry="5" />
  <polygon id="slot.bubble.tail.polygon" points="176,144 150,132 176,120" stroke="#111111" stroke-width="2" fill="#d7d2ee" />
  <rect id="slot.juice.bottle.rect" x="670" y="80" width="82" height="48" fill="#f4d45a" stroke="#111111" stroke-width="1.5" rx="18" ry="18" />
  <circle id="slot.juice.cap.circle" cx="748" cy="124" r="11" stroke="#111111" stroke-width="2" fill="#ffffff" />
  <rect id="slot.juice.label_box.rect" x="640" y="64" width="20" height="20" fill="#ffffff" stroke="#111111" stroke-width="1.5" />
  <rect id="slot.water.bottle.rect" x="708" y="160" width="78" height="130" fill="#d7f0ff" stroke="#111111" stroke-width="1.5" rx="12" ry="12" />
  <line id="slot.water.edge1.line" x1="708" y1="160" x2="786" y2="160" stroke="#111111" stroke-width="2" />
  <line id="slot.water.edge2.line" x1="708" y1="290" x2="786" y2="290" stroke="#111111" stroke-width="2" />
  <text id="slot.qnum.text" x="18" y="34" fill="#111111" font-family="Noto Sans KR, sans-serif" font-size="28">□ 44.</text>
  <text id="slot.title.text" x="70" y="34" fill="#111111" font-family="Noto Sans KR, sans-serif" font-size="28">상아가 주스병과 물병의 들이를 비교하려고 합니다. 알맞은 말을 선택하세요.</text>
  <rect id="slot.bubble.rect" x="176" y="104" width="330" height="126" fill="#d7d2ee" stroke="#111111" stroke-width="1.5" rx="6" ry="6" />
  <text id="slot.nameplate.text" x="40" y="230" fill="#111111" font-family="Noto Sans KR, sans-serif" font-size="28">상아</text>
  <text id="slot.bubble.text1.text" x="235" y="145" fill="#111111" font-family="Noto Sans KR, sans-serif" font-size="28">주스병에 물을 가득 채운 후</text>
  <text id="slot.bubble.text2.text" x="226" y="183" fill="#111111" font-family="Noto Sans KR, sans-serif" font-size="28">물병에 옮겨 담아 비교해야지.</text>
  <line id="slot.note.arrow.line" x1="742" y1="310" x2="730" y2="292" stroke="#111111" stroke-width="2" />
  <text id="slot.juice.label.text" x="638" y="150" fill="#111111" font-family="Noto Sans KR, sans-serif" font-size="26">주스병</text>
  <text id="slot.water.label.text" x="725" y="324" fill="#111111" font-family="Noto Sans KR, sans-serif" font-size="26">물병</text>
  <text id="slot.note.text" x="742" y="362" fill="#111111" font-family="Noto Sans KR, sans-serif" font-size="24" data-raw-text="물이 가득 차지 않은 것의
들이가 더 많아요.">
    <tspan x="742" dy="0">물이 가득 차지 않은 것의</tspan>
    <tspan x="742" dy="1.2em">들이가 더 많아요.</tspan>
  </text>
  <text id="slot.statement.text" x="34" y="420" fill="#111111" font-family="Noto Sans KR, sans-serif" font-size="28">주스병의 물이 물병에 모두 들어가므로 ( 주스병 , 물병 )의 들이가 더 많습니다.</text>
</svg>
