<?xml version="1.0" encoding="UTF-8"?>
<svg xmlns="http://www.w3.org/2000/svg" width="940" height="325" viewBox="0 0 940 325">
  <metadata><problem_id>S3_초등_3_008678</problem_id></metadata>
  <rect x="0" y="0" width="940" height="325" fill="#FFFFFF" />
  <text id="slot.header.mark.text" x="12" y="30" fill="#111111" font-family="Noto Sans KR, sans-serif" font-size="22">□</text>
  <text id="slot.header.number.text" x="34" y="30" fill="#111111" font-family="Noto Sans KR, sans-serif" font-size="20">61.</text>
  <text id="slot.stem.1.text" x="77" y="30" fill="#111111" font-family="Noto Sans KR, sans-serif" font-size="25">원 모양 종이를 똑같이 둘로 나누어지도록 반을 접었다가 폈더니 선이</text>
  <text id="slot.stem.2.text" x="34" y="70" fill="#111111" font-family="Noto Sans KR, sans-serif" font-size="25">생겼습니다. 알맞은 말을 선택하세요.</text>
  <path id="slot.folded.paper.path" d="M 286 153 C 288.36 189.58, 316.68 207.28, 345 207.28 C 373.32 207.28, 401.64 189.58, 404 153 L 286 153 Z" stroke="#FF9AB2" stroke-width="1.7" fill="#FDE8EF" transform="rotate(180 345 153)" />
  <path id="slot.folded.edge.path" d="M 296.62 158.9 C 327.3 219.08, 371.55 214.36, 395.15 157.72" stroke="#FF9AB2" stroke-width="1.2" fill="none" transform="rotate(180 345 153)" />
  <polygon id="slot.arrow.head.polygon" points="496,153 481,139 481,167" stroke="#9AA0A6" stroke-width="0" fill="#9AA0A6" />
  <circle id="slot.opened.paper.circle" cx="612" cy="153" r="59" stroke="#FF9AB2" stroke-width="1.7" fill="#FDE8EF" />
  <line id="slot.arrow.body.line" x1="462" y1="153" x2="484" y2="153" stroke="#9AA0A6" stroke-width="8" />
  <line id="slot.opened.fold_line.line" x1="553" y1="153" x2="671" y2="153" stroke="#FF9AB2" stroke-width="1.2" stroke-dasharray="5 4" />
  <text id="slot.choice.1.text" x="30" y="263" fill="#111111" font-family="Noto Sans KR, sans-serif" font-size="26">(1) 반을 접어 생긴 선분은 원의 ( 지름 , 반지름 )입니다.</text>
</svg>
