<?xml version="1.0" encoding="UTF-8"?>
<svg xmlns="http://www.w3.org/2000/svg" width="926" height="396" viewBox="0 0 926 396">
  <metadata><problem_id>S3_초등_3_009033</problem_id></metadata>
  <rect x="0" y="0" width="926" height="396" fill="#FFFFFF" />
  <path id="slot.cut2.path" d="M 596.0 163.0 C 592.0 160.0, 589.0 157.0, 587.0 154.0" stroke="#f59a2a" stroke-width="3" fill="none" />
  <path id="slot.unfold.path" d="M 818.0 96.0 C 834.0 102.0, 840.0 116.0, 833.0 128.0" stroke="#ea6f8f" stroke-width="3" fill="none" />
  <line id="slot.fold2b.line" x1="287" y1="77" x2="358" y2="158" stroke="#e39b9b" stroke-width="2" />
  <line id="slot.fold4.line" x1="789" y1="83" x2="865" y2="153" stroke="#e39b9b" stroke-width="2" stroke-dasharray="6 4" />
  <text id="slot.q1.text" x="18" y="36" fill="#111111" font-family="Noto Sans KR, sans-serif" font-size="28">71.</text>
  <text id="slot.q2.text" x="52" y="38" fill="#111111" font-family="Noto Sans KR, sans-serif" font-size="28">직사각형 모양의 종이로 그림과 같은 모양을 만들었습니다. 다음을 읽고 ○, ×를 고르세요.</text>
  <text id="slot.choice_o_text.text" x="32" y="329" fill="#111111" font-family="Noto Sans KR, sans-serif" font-size="28">○</text>
  <text id="slot.choice_x_text.text" x="495" y="330" fill="#111111" font-family="Noto Sans KR, sans-serif" font-size="28">×</text>
  <rect id="slot.paper1.rect" x="37" y="77" width="114" height="81" fill="#f8dede" stroke="#ef8f8f" stroke-width="2" />
  <rect id="slot.paper2.rect" x="281" y="77" width="122" height="81" fill="#f8dede" stroke="#ef8f8f" stroke-width="2" />
  <rect id="slot.paper3.rect" x="525" y="77" width="113" height="81" fill="#f8dede" stroke="#ef8f8f" stroke-width="2" />
  <path id="slot.cut.path" d="M 585.0 151.0 C 590.0 156.0, 594.0 161.0, 598.0 167.0" stroke="#f59a2a" stroke-width="3" fill="none" />
  <rect id="slot.paper4.rect" x="782" y="77" width="92" height="81" fill="#f8dede" stroke="#ef8f8f" stroke-width="2" />
  <path id="slot.arrow1.path" d="M 188.0 118.0 L 205.0 118.0" stroke="#9a9a9a" stroke-width="4" fill="none" />
  <path id="slot.arrow2.path" d="M 437.0 118.0 L 454.0 118.0" stroke="#9a9a9a" stroke-width="4" fill="none" />
  <path id="slot.arrow3.path" d="M 705.0 118.0 L 722.0 118.0" stroke="#9a9a9a" stroke-width="4" fill="none" />
  <line id="slot.fold1.line" x1="44" y1="83" x2="145" y2="152" stroke="#e39b9b" stroke-width="2" stroke-dasharray="6 4" />
  <line id="slot.fold2.line" x1="287" y1="77" x2="287" y2="158" stroke="#e39b9b" stroke-width="2" stroke-dasharray="6 4" />
  <line id="slot.fold3.line" x1="531" y1="77" x2="619" y2="158" stroke="#e39b9b" stroke-width="2" />
  <circle id="slot.choice_o.circle" cx="40" cy="322" r="8" stroke="#2f80ed" stroke-width="2" fill="none" />
  <circle id="slot.choice_x.circle" cx="503" cy="323" r="8" stroke="#2f80ed" stroke-width="2" fill="none" />
  <text id="slot.caption1.text" x="120" y="181" fill="#111111" font-family="Noto Sans KR, sans-serif" font-size="24">접선을 따라 접어요.</text>
  <text id="slot.caption2.text" x="802" y="180" fill="#111111" font-family="Noto Sans KR, sans-serif" font-size="24">잘라낸 모양을</text>
  <text id="slot.caption3.text" x="828" y="205" fill="#111111" font-family="Noto Sans KR, sans-serif" font-size="24">펼쳐요.</text>
  <text id="slot.caption4.text" x="256" y="255" fill="#111111" font-family="Noto Sans KR, sans-serif" font-size="28">만든 모양의 네 각은 모두 직각입니다.</text>
</svg>
