<?xml version="1.0" encoding="UTF-8"?>
<svg xmlns="http://www.w3.org/2000/svg" width="952" height="344" viewBox="0 0 952 344">
  <metadata><problem_id>S3_초등_3_008720</problem_id></metadata>
  <rect x="0" y="0" width="952" height="344" fill="#FFFFFF" />
  <rect id="slot.pin_base.rect" x="324" y="133" width="8" height="5" fill="#A8B0B6" stroke="#7E8790" stroke-width="0.8" />
  <text id="slot.q1.text" x="16" y="34" fill="#111111" font-family="Noto Sans KR, sans-serif" font-size="28">
    <tspan x="16" dy="0">□ 23. 누름 못과 띠 종이를 사용하여 원을 그리려고 합니다. 원을</tspan>
    <tspan x="16" dy="1.2em">가장 작게 그</tspan>
  </text>
  <text id="slot.q2.text" x="16" y="72" fill="#111111" font-family="Noto Sans KR, sans-serif" font-size="28">리려고 할 때 연필을 꽂아야 하는 구멍의 기호를 선택해 보세요.</text>
  <text id="slot.lb1_text.text" x="365" y="201" fill="#111111" font-family="Noto Sans KR, sans-serif" font-size="28">ㄱ</text>
  <text id="slot.lb2_text.text" x="423" y="201" fill="#111111" font-family="Noto Sans KR, sans-serif" font-size="28">ㄴ</text>
  <text id="slot.lb3_text.text" x="483" y="201" fill="#111111" font-family="Noto Sans KR, sans-serif" font-size="28">ㄷ</text>
  <text id="slot.lb4_text.text" x="543" y="201" fill="#111111" font-family="Noto Sans KR, sans-serif" font-size="28">ㄹ</text>
  <text id="slot.lb5_text.text" x="603" y="201" fill="#111111" font-family="Noto Sans KR, sans-serif" font-size="28">ㅁ</text>
  <rect id="slot.bar.rect" x="270" y="118" width="426" height="42" fill="#CFEFEF" stroke="#7AD7D7" stroke-width="1.2" />
  <circle id="slot.pin.circle" cx="328" cy="129" r="9" stroke="#111111" stroke-width="2" fill="#A8B0B6" />
  <circle id="slot.hole1.circle" cx="372" cy="126" r="4" stroke="#6E6E6E" stroke-width="1" fill="#FFFFFF" />
  <circle id="slot.hole2.circle" cx="430" cy="126" r="4" stroke="#6E6E6E" stroke-width="1" fill="#FFFFFF" />
  <circle id="slot.hole3.circle" cx="490" cy="126" r="4" stroke="#6E6E6E" stroke-width="1" fill="#FFFFFF" />
  <circle id="slot.hole4.circle" cx="550" cy="126" r="4" stroke="#6E6E6E" stroke-width="1" fill="#FFFFFF" />
  <circle id="slot.hole5.circle" cx="610" cy="126" r="4" stroke="#6E6E6E" stroke-width="1" fill="#FFFFFF" />
  <circle id="slot.lb1.circle" cx="372" cy="194" r="12" stroke="#888888" stroke-width="1" fill="#FFFFFF" />
  <circle id="slot.lb2.circle" cx="430" cy="194" r="12" stroke="#888888" stroke-width="1" fill="#FFFFFF" />
  <circle id="slot.lb3.circle" cx="490" cy="194" r="12" stroke="#888888" stroke-width="1" fill="#FFFFFF" />
  <circle id="slot.lb4.circle" cx="550" cy="194" r="12" stroke="#888888" stroke-width="1" fill="#FFFFFF" />
  <circle id="slot.lb5.circle" cx="610" cy="194" r="12" stroke="#888888" stroke-width="1" fill="#FFFFFF" />
  <circle id="slot.answer_circle.circle" cx="74" cy="246" r="11" stroke="#3A3A3A" stroke-width="1" fill="#FFFFFF" />
  <line id="slot.arrow1.line" x1="372" y1="132" x2="372" y2="180" stroke="#FF4FA0" stroke-width="1.4" />
  <line id="slot.arrow2.line" x1="430" y1="132" x2="430" y2="180" stroke="#FF4FA0" stroke-width="1.4" />
  <line id="slot.arrow3.line" x1="490" y1="132" x2="490" y2="180" stroke="#FF4FA0" stroke-width="1.4" />
  <line id="slot.arrow4.line" x1="550" y1="132" x2="550" y2="180" stroke="#FF4FA0" stroke-width="1.4" />
  <line id="slot.arrow5.line" x1="610" y1="132" x2="610" y2="180" stroke="#FF4FA0" stroke-width="1.4" />
</svg>
