<?xml version="1.0" encoding="UTF-8"?>
<svg xmlns="http://www.w3.org/2000/svg" width="960" height="540" viewBox="0 0 960 540">
  <metadata><problem_id>S3_초등_3_008737</problem_id></metadata>
  <rect x="0" y="0" width="960" height="540" fill="#FFFFFF" />
  <text id="slot.q1.text" x="32" y="49" fill="#111111" font-family="Noto Sans KR, sans-serif" font-size="28">재영이는 노란색 털실을 9/7 m 가지고 있고 보라색 털실을 1 3/7 m 가지고</text>
  <text id="slot.q2.text" x="30" y="87" fill="#111111" font-family="Noto Sans KR, sans-serif" font-size="28">있습니다. 더 긴 털실은 무슨 색인지 알아보려고 합니다. 물음에 답하세요.</text>
  <text id="slot.q3.text" x="30" y="137" fill="#111111" font-family="Noto Sans KR, sans-serif" font-size="28">(1) 수직선을 보고, 더 큰 수를 선택해 보세요.</text>
  <text id="slot.q4.text" x="0" y="466" fill="#111111" font-family="Noto Sans KR, sans-serif" font-size="28">(1) 수직선에 나타난 부분을 비교하면 9/7 &lt; 1 3/7 입니다.</text>
  <line id="slot.len1.axis.line" x1="284" y1="211" x2="748" y2="211" stroke="#111111" stroke-width="2" />
  <line id="slot.len1.grid0.line" x1="284" y1="202" x2="284" y2="220" stroke="#111111" stroke-width="2" />
  <line id="slot.len1.grid1.line" x1="330.4" y1="204" x2="330.4" y2="218" stroke="#111111" stroke-width="2" />
  <line id="slot.len1.grid2.line" x1="376.8" y1="204" x2="376.8" y2="218" stroke="#111111" stroke-width="2" />
  <line id="slot.len1.grid3.line" x1="423.2" y1="204" x2="423.2" y2="218" stroke="#111111" stroke-width="2" />
  <line id="slot.len1.grid4.line" x1="469.6" y1="204" x2="469.6" y2="218" stroke="#111111" stroke-width="2" />
  <line id="slot.len1.grid5.line" x1="516" y1="202" x2="516" y2="220" stroke="#111111" stroke-width="2" />
  <line id="slot.len1.grid6.line" x1="562.4" y1="204" x2="562.4" y2="218" stroke="#111111" stroke-width="2" />
  <line id="slot.len1.grid7.line" x1="608.8" y1="204" x2="608.8" y2="218" stroke="#111111" stroke-width="2" />
  <line id="slot.len1.grid8.line" x1="655.2" y1="204" x2="655.2" y2="218" stroke="#111111" stroke-width="2" />
  <line id="slot.len1.grid9.line" x1="701.6" y1="204" x2="701.6" y2="218" stroke="#111111" stroke-width="2" />
  <line id="slot.len1.grid10.line" x1="748" y1="202" x2="748" y2="220" stroke="#111111" stroke-width="2" />
  <line id="slot.len1.blue.line" x1="284" y1="211" x2="586" y2="211" stroke="#111111" stroke-width="2" />
  <line id="slot.len2.axis.line" x1="284" y1="311" x2="748" y2="311" stroke="#111111" stroke-width="2" />
  <line id="slot.len2.grid0.line" x1="284" y1="302" x2="284" y2="320" stroke="#111111" stroke-width="2" />
  <line id="slot.len2.grid1.line" x1="330.4" y1="304" x2="330.4" y2="318" stroke="#111111" stroke-width="2" />
  <line id="slot.len2.grid2.line" x1="376.8" y1="304" x2="376.8" y2="318" stroke="#111111" stroke-width="2" />
  <line id="slot.len2.grid3.line" x1="423.2" y1="304" x2="423.2" y2="318" stroke="#111111" stroke-width="2" />
  <line id="slot.len2.grid4.line" x1="469.6" y1="304" x2="469.6" y2="318" stroke="#111111" stroke-width="2" />
  <line id="slot.len2.grid5.line" x1="516" y1="302" x2="516" y2="320" stroke="#111111" stroke-width="2" />
  <line id="slot.len2.grid6.line" x1="562.4" y1="304" x2="562.4" y2="318" stroke="#111111" stroke-width="2" />
  <line id="slot.len2.grid7.line" x1="608.8" y1="304" x2="608.8" y2="318" stroke="#111111" stroke-width="2" />
  <line id="slot.len2.grid8.line" x1="655.2" y1="304" x2="655.2" y2="318" stroke="#111111" stroke-width="2" />
  <line id="slot.len2.grid9.line" x1="701.6" y1="304" x2="701.6" y2="318" stroke="#111111" stroke-width="2" />
  <line id="slot.len2.grid10.line" x1="748" y1="302" x2="748" y2="320" stroke="#111111" stroke-width="2" />
  <line id="slot.len2.blue.line" x1="284" y1="311" x2="611" y2="311" stroke="#111111" stroke-width="2" />
  <text id="slot.len1.label.text" x="177.91995239257812" y="220.84005737304688" fill="#111111" font-family="Noto Sans KR, sans-serif" font-size="30">9/7 m</text>
  <text id="slot.len1.zero.text" x="278" y="245" fill="#111111" font-family="Noto Sans KR, sans-serif" font-size="28">0</text>
  <text id="slot.len1.one.text" x="510" y="245" fill="#111111" font-family="Noto Sans KR, sans-serif" font-size="28">1</text>
  <text id="slot.len1.two.text" x="734" y="245" fill="#111111" font-family="Noto Sans KR, sans-serif" font-size="28">2(m)</text>
  <text id="slot.len1.seven_over_seven.text" x="500" y="190" fill="#111111" font-family="Noto Sans KR, sans-serif" font-size="28">7/7</text>
  <text id="slot.len2.label.text" x="166" y="326" fill="#111111" font-family="Noto Sans KR, sans-serif" font-size="28">1 3/7 m</text>
  <text id="slot.len2.zero.text" x="278" y="345" fill="#111111" font-family="Noto Sans KR, sans-serif" font-size="28">0</text>
  <text id="slot.len2.one.text" x="510" y="345" fill="#111111" font-family="Noto Sans KR, sans-serif" font-size="28">1</text>
  <text id="slot.len2.two.text" x="734" y="345" fill="#111111" font-family="Noto Sans KR, sans-serif" font-size="28">2(m)</text>
  <text id="slot.len2.seven_over_seven.text" x="500" y="290" fill="#111111" font-family="Noto Sans KR, sans-serif" font-size="28">7/7</text>
  <text id="slot.compare.text" x="416" y="392" fill="#111111" font-family="Noto Sans KR, sans-serif" font-size="28">( 9/7 , 1 3/7 )</text>
  <text id="slot.bottom_partial.text" x="0" y="520" fill="#111111" font-family="Noto Sans KR, sans-serif" font-size="28">(1) 1 3/7</text>
</svg>
