<?xml version="1.0" encoding="UTF-8"?>
<svg xmlns="http://www.w3.org/2000/svg" width="940" height="460" viewBox="0 0 940 460">
  <metadata><problem_id>S3_초등_3_009035</problem_id></metadata>
  <rect x="0" y="0" width="940" height="460" fill="#FFFFFF" />
  <line id="slot.step2.fold_line.line" x1="256" y1="50" x2="320" y2="114" stroke="#cc6f6f" stroke-width="1.4" stroke-dasharray="5 4" />
  <text id="slot.id.text" x="16" y="34" fill="#111111" font-family="Noto Sans KR, sans-serif" font-size="24">□ 73.</text>
  <text id="slot.q.text" x="72" y="34" fill="#111111" font-family="Noto Sans KR, sans-serif" font-size="28">직사각형 모양의 종이로 그림과 같이 만들었습니다. 다음을 읽고 ○, ×를 알맞게 선택해 보세요.</text>
  <text id="slot.step1.note_text.text" x="152" y="147" fill="#111111" font-family="Noto Sans KR, sans-serif" font-size="22">점을 따라 접어요.</text>
  <text id="slot.step4.note_text.text" x="804" y="147" fill="#111111" font-family="Noto Sans KR, sans-serif" font-size="22" data-raw-text="잘라낸 모양을
펼쳐요.">
    <tspan x="804" dy="0">잘라낸 모양을</tspan>
    <tspan x="804" dy="1.2em">펼쳐요.</tspan>
  </text>
  <text id="slot.choice.o_text.text" x="29" y="300" fill="#111111" font-family="Noto Sans KR, sans-serif" font-size="22">○</text>
  <text id="slot.choice.x_text.text" x="470" y="300" fill="#111111" font-family="Noto Sans KR, sans-serif" font-size="22">×</text>
  <rect id="slot.step1.rect.rect" x="48" y="50" width="120" height="80" fill="#f7d9d9" stroke="#ff9aa2" stroke-width="1.5" />
  <path id="slot.step1.note.path" d="M 130 126 C 134 146, 148 150, 156 142" stroke="#2e9f58" stroke-width="1.4" fill="none" />
  <rect id="slot.step2.rect.rect" x="256" y="50" width="128" height="80" fill="#f7d9d9" stroke="#ff9aa2" stroke-width="1.5" />
  <polygon id="slot.step2.fold.polygon" points="256,50 320,114 256,130" stroke="#ff9aa2" stroke-width="1.2" fill="#efb3b3" />
  <polygon id="slot.step3.rect.polygon" points="468,50 596,50 596,130 532,130 532,114 468,50" stroke="#ff9aa2" stroke-width="1.5" fill="#f7d9d9" />
  <rect id="slot.step4.rect.rect" x="716" y="50" width="120" height="80" fill="#f7d9d9" stroke="#ff9aa2" stroke-width="1.5" />
  <path id="slot.step4.curve.path" d="M 770 70 C 782 56, 792 58, 786 76" stroke="#d43b8c" stroke-width="1.4" fill="none" />
  <path id="slot.step4.note.path" d="M 790 126 C 792 146, 808 150, 816 142" stroke="#2e9f58" stroke-width="1.4" fill="none" />
  <line id="slot.step1.diag.line" x1="54" y1="56" x2="162" y2="124" stroke="#e78b8b" stroke-width="1.4" stroke-dasharray="6 4" />
  <line id="slot.step4.diag.line" x1="730" y1="58" x2="784" y2="108" stroke="#e78b8b" stroke-width="1.4" stroke-dasharray="6 4" />
  <text id="slot.step1.arrow.text" x="188" y="102" fill="#111111" font-family="Noto Sans KR, sans-serif" font-size="34">→</text>
  <text id="slot.step2.arrow.text" x="410" y="102" fill="#111111" font-family="Noto Sans KR, sans-serif" font-size="34">→</text>
  <text id="slot.step3.scissor.text" x="534" y="160" fill="#111111" font-family="Noto Sans KR, sans-serif" font-size="30">✂</text>
  <text id="slot.step3.arrow.text" x="626" y="102" fill="#111111" font-family="Noto Sans KR, sans-serif" font-size="34">→</text>
  <rect id="slot.center.box.rect" x="262" y="220" width="418" height="62" fill="#ffffff" stroke="#9ad24f" stroke-width="1.6" />
  <circle id="slot.answer.circle.circle" cx="70" cy="338" r="10" stroke="#222222" stroke-width="1.2" fill="none" />
  <circle id="slot.choice.o.circle" cx="40" cy="294" r="7" stroke="#5aa2ff" stroke-width="1.4" fill="none" />
  <circle id="slot.choice.x.circle" cx="478" cy="294" r="7" stroke="#5aa2ff" stroke-width="1.4" fill="none" />
  <text id="slot.center.text.text" x="305" y="260" fill="#111111" font-family="Noto Sans KR, sans-serif" font-size="30">만든 모양은 정사각형입니다.</text>
</svg>
