<?xml version="1.0" encoding="UTF-8"?>
<svg xmlns="http://www.w3.org/2000/svg" width="939" height="593" viewBox="0 0 939 593">
  <metadata><problem_id>S3_초등_3_008684</problem_id></metadata>
  <rect x="0" y="0" width="939" height="593" fill="#FFFFFF" />
  <text id="slot.stem.text" x="12" y="12" fill="#111111" font-family="Noto Sans KR, sans-serif" font-size="28">
    <tspan x="12" dy="0">72. 누름 못과 띠 종이를 이용하여 원을 그렸습니다. 그림을 보고</tspan>
    <tspan x="12" dy="1.2em">알맞은 말을 선택하세요.</tspan>
  </text>
  <rect id="slot.left.frame.rect" x="235" y="122" width="225" height="215" fill="#ffffff" stroke="#111111" stroke-width="1.5" />
  <circle id="slot.left.circle.circle" cx="331" cy="230" r="104" stroke="#111111" stroke-width="2" fill="none" />
  <path id="slot.left.strip.path" d="M 262.0 205.0 L 381.0 110.0" stroke="#111111" stroke-width="2" fill="none" />
  <path id="slot.left.pencil.path" d="M 415.0 90.0 L 381.0 147.0" stroke="#111111" stroke-width="2" fill="none" />
  <path id="slot.left.hand.upper.path" d="M 389.0 117.0 C 402.0 105.0, 420.0 104.0, 438.0 111.0 C 421.0 120.0, 405.0 128.0, 387.0 133.0 C 378.0 128.0, 378.0 120.0, 389.0 117.0 Z" stroke="#111111" stroke-width="2" fill="none" />
  <path id="slot.left.hand.lower.path" d="M 338.0 315.0 C 323.0 297.0, 318.0 273.0, 320.0 251.0 C 332.0 251.0, 340.0 258.0, 349.0 267.0 C 350.0 286.0, 347.0 301.0, 338.0 315.0 Z" stroke="#111111" stroke-width="2" fill="none" />
  <path id="slot.left.arrow.1.path" d="M 274.0 208.0 C 236.0 191.0, 217.0 196.0, 207.0 224.0" stroke="#111111" stroke-width="2" fill="none" />
  <path id="slot.left.arrow.2.path" d="M 424.0 168.0 C 444.0 178.0, 458.0 196.0, 460.0 220.0" stroke="#111111" stroke-width="2" fill="none" />
  <circle id="slot.left.dot.1.circle" cx="304" cy="233" r="4" stroke="#111111" stroke-width="2" fill="#6BB7FF" />
  <circle id="slot.left.dot.2.circle" cx="342" cy="203" r="4" stroke="#111111" stroke-width="2" fill="#6BB7FF" />
  <circle id="slot.left.dot.3.circle" cx="368" cy="176" r="4" stroke="#111111" stroke-width="2" fill="#6BB7FF" />
  <circle id="slot.left.dot.4.circle" cx="397" cy="150" r="4" stroke="#111111" stroke-width="2" fill="#6BB7FF" />
  <text id="slot.left.text.text" x="101" y="209" fill="#111111" font-family="Noto Sans KR, sans-serif" font-size="28">
    <tspan x="101" dy="0">① 한쪽 구멍에</tspan>
    <tspan x="101" dy="1.2em">누름 못을 꽂아</tspan>
    <tspan x="101" dy="1.2em">띠 종이를 고정</tspan>
    <tspan x="101" dy="1.2em">해요.</tspan>
    <tspan x="101" dy="1.2em"></tspan>
    <tspan x="101" dy="1.2em">② 다른 구멍에</tspan>
    <tspan x="101" dy="1.2em">연필을 꽂고</tspan>
    <tspan x="101" dy="1.2em">한 바퀴 돌려</tspan>
    <tspan x="101" dy="1.2em">원을 그려요.</tspan>
  </text>
  <rect id="slot.right.frame.rect" x="626" y="121" width="227" height="214" fill="#ffffff" stroke="#111111" stroke-width="1.5" />
  <circle id="slot.right.circle.circle" cx="739" cy="229" r="108" stroke="#111111" stroke-width="2" fill="none" />
  <circle id="slot.right.center.circle" cx="739" cy="229" r="5" stroke="#111111" stroke-width="2" fill="#B0B0B0" />
  <circle id="slot.right.dot.top.circle" cx="739" cy="121" r="4" stroke="#111111" stroke-width="2" fill="#222222" />
  <circle id="slot.right.dot.bottom.circle" cx="739" cy="335" r="4" stroke="#111111" stroke-width="2" fill="#222222" />
  <circle id="slot.right.dot.left.circle" cx="626" cy="229" r="4" stroke="#111111" stroke-width="2" fill="#222222" />
  <circle id="slot.right.dot.right.circle" cx="853" cy="229" r="4" stroke="#111111" stroke-width="2" fill="#222222" />
  <line id="slot.right.dash.v.line" x1="739" y1="121" x2="739" y2="335" stroke="#111111" stroke-width="2" stroke-dasharray="5 3" />
  <line id="slot.right.dash.h.line" x1="626" y1="229" x2="853" y2="229" stroke="#111111" stroke-width="2" stroke-dasharray="5 3" />
  <text id="slot.right.text.text" x="491" y="209" fill="#111111" font-family="Noto Sans KR, sans-serif" font-size="28">
    <tspan x="491" dy="0">② 다른 구멍에</tspan>
    <tspan x="491" dy="1.2em">연필을 꽂고</tspan>
    <tspan x="491" dy="1.2em">한 바퀴 돌려</tspan>
    <tspan x="491" dy="1.2em">원을 그려요.</tspan>
  </text>
  <rect id="slot.choice.frame.rect" x="104" y="368" width="746" height="119" fill="#ffffff" stroke="#111111" stroke-width="1.5" />
  <text id="slot.choice.text.text" x="123" y="406" fill="#111111" font-family="Noto Sans KR, sans-serif" font-size="28">
    <tspan x="123" dy="0">누름 못이 꽂힌 점에서 원 위에 찍은 4개의 점까지의 길이는</tspan>
    <tspan x="123" dy="1.2em">모두 ( 같습니다, 다릅니다 ).</tspan>
  </text>
</svg>
