<?xml version="1.0" encoding="UTF-8"?>
<svg xmlns="http://www.w3.org/2000/svg" width="710" height="374" viewBox="0 0 710 374">
  <metadata><problem_id>S3_초등_3_008985</problem_id></metadata>
  <rect x="0" y="0" width="710" height="374" fill="#FFFFFF" />
  <text id="slot.qnum.text" x="29" y="18" fill="#111111" font-family="Noto Sans KR, sans-serif" font-size="28">22.</text>
  <text id="slot.qtext.text" x="87" y="18" fill="#111111" font-family="Noto Sans KR, sans-serif" font-size="28">각 ㄱ ㄴ ㄷ을 바르게 그린 것을 선택하세요.</text>
  <rect id="slot.choice1.frame.rect" x="207" y="50" width="181" height="115" fill="none" stroke="#111111" stroke-width="1.5" />
  <line id="slot.choice1.ring1.line" x1="216" y1="50" x2="216" y2="57" stroke="#111111" stroke-width="2" />
  <line id="slot.choice1.ring2.line" x1="221" y1="50" x2="221" y2="57" stroke="#111111" stroke-width="2" />
  <line id="slot.choice1.ring3.line" x1="226" y1="50" x2="226" y2="57" stroke="#111111" stroke-width="2" />
  <line id="slot.choice1.ring4.line" x1="231" y1="50" x2="231" y2="57" stroke="#111111" stroke-width="2" />
  <line id="slot.choice1.ring5.line" x1="236" y1="50" x2="236" y2="57" stroke="#111111" stroke-width="2" />
  <line id="slot.choice1.ring6.line" x1="241" y1="50" x2="241" y2="57" stroke="#111111" stroke-width="2" />
  <line id="slot.choice1.ring7.line" x1="246" y1="50" x2="246" y2="57" stroke="#111111" stroke-width="2" />
  <line id="slot.choice1.ring8.line" x1="251" y1="50" x2="251" y2="57" stroke="#111111" stroke-width="2" />
  <line id="slot.choice1.ring9.line" x1="256" y1="50" x2="256" y2="57" stroke="#111111" stroke-width="2" />
  <line id="slot.choice1.ring10.line" x1="261" y1="50" x2="261" y2="57" stroke="#111111" stroke-width="2" />
  <line id="slot.choice1.line1.line" x1="237" y1="82" x2="350" y2="123" stroke="#111111" stroke-width="2" />
  <line id="slot.choice1.line2.line" x1="237" y1="123" x2="350" y2="103" stroke="#111111" stroke-width="2" />
  <circle id="slot.choice1.pt1.circle" cx="237" cy="82" r="3.8" stroke="#111111" stroke-width="2" fill="#222222" />
  <circle id="slot.choice1.pt2.circle" cx="237" cy="123" r="3.8" stroke="#111111" stroke-width="2" fill="#222222" />
  <circle id="slot.choice1.pt3.circle" cx="350" cy="103" r="3.8" stroke="#111111" stroke-width="2" fill="#222222" />
  <text id="slot.choice1.lb1.text" x="223" y="76" fill="#111111" font-family="Noto Sans KR, sans-serif" font-size="20">ㄱ</text>
  <text id="slot.choice1.lb2.text" x="221" y="138" fill="#111111" font-family="Noto Sans KR, sans-serif" font-size="20">ㄴ</text>
  <text id="slot.choice1.lb3.text" x="354" y="125" fill="#111111" font-family="Noto Sans KR, sans-serif" font-size="20">ㄷ</text>
  <rect id="slot.choice2.frame.rect" x="536" y="50" width="181" height="115" fill="none" stroke="#111111" stroke-width="1.5" />
  <line id="slot.choice2.ring1.line" x1="545" y1="50" x2="545" y2="57" stroke="#111111" stroke-width="2" />
  <line id="slot.choice2.ring2.line" x1="550" y1="50" x2="550" y2="57" stroke="#111111" stroke-width="2" />
  <line id="slot.choice2.ring3.line" x1="555" y1="50" x2="555" y2="57" stroke="#111111" stroke-width="2" />
  <line id="slot.choice2.ring4.line" x1="560" y1="50" x2="560" y2="57" stroke="#111111" stroke-width="2" />
  <line id="slot.choice2.ring5.line" x1="565" y1="50" x2="565" y2="57" stroke="#111111" stroke-width="2" />
  <line id="slot.choice2.ring6.line" x1="570" y1="50" x2="570" y2="57" stroke="#111111" stroke-width="2" />
  <line id="slot.choice2.ring7.line" x1="575" y1="50" x2="575" y2="57" stroke="#111111" stroke-width="2" />
  <line id="slot.choice2.ring8.line" x1="580" y1="50" x2="580" y2="57" stroke="#111111" stroke-width="2" />
  <line id="slot.choice2.ring9.line" x1="585" y1="50" x2="585" y2="57" stroke="#111111" stroke-width="2" />
  <line id="slot.choice2.ring10.line" x1="590" y1="50" x2="590" y2="57" stroke="#111111" stroke-width="2" />
  <line id="slot.choice2.line1.line" x1="575" y1="81" x2="575" y2="138" stroke="#111111" stroke-width="2" />
  <line id="slot.choice2.line2.line" x1="575" y1="138" x2="651" y2="121" stroke="#111111" stroke-width="2" />
  <circle id="slot.choice2.pt1.circle" cx="575" cy="81" r="3.8" stroke="#111111" stroke-width="2" fill="#222222" />
  <circle id="slot.choice2.pt2.circle" cx="575" cy="138" r="3.8" stroke="#111111" stroke-width="2" fill="#222222" />
  <circle id="slot.choice2.pt3.circle" cx="651" cy="121" r="3.8" stroke="#111111" stroke-width="2" fill="#222222" />
  <text id="slot.choice2.lb1.text" x="561" y="75" fill="#111111" font-family="Noto Sans KR, sans-serif" font-size="20">ㄱ</text>
  <text id="slot.choice2.lb2.text" x="560" y="153" fill="#111111" font-family="Noto Sans KR, sans-serif" font-size="20">ㄴ</text>
  <text id="slot.choice2.lb3.text" x="655" y="132" fill="#111111" font-family="Noto Sans KR, sans-serif" font-size="20">ㄷ</text>
  <rect id="slot.answer.frame.rect" x="53" y="194" width="181" height="115" fill="none" stroke="#111111" stroke-width="1.5" />
  <line id="slot.answer.ring1.line" x1="62" y1="194" x2="62" y2="201" stroke="#111111" stroke-width="2" />
  <line id="slot.answer.ring2.line" x1="67" y1="194" x2="67" y2="201" stroke="#111111" stroke-width="2" />
  <line id="slot.answer.ring3.line" x1="72" y1="194" x2="72" y2="201" stroke="#111111" stroke-width="2" />
  <line id="slot.answer.ring4.line" x1="77" y1="194" x2="77" y2="201" stroke="#111111" stroke-width="2" />
  <line id="slot.answer.ring5.line" x1="82" y1="194" x2="82" y2="201" stroke="#111111" stroke-width="2" />
  <line id="slot.answer.ring6.line" x1="87" y1="194" x2="87" y2="201" stroke="#111111" stroke-width="2" />
  <line id="slot.answer.ring7.line" x1="92" y1="194" x2="92" y2="201" stroke="#111111" stroke-width="2" />
  <line id="slot.answer.ring8.line" x1="97" y1="194" x2="97" y2="201" stroke="#111111" stroke-width="2" />
  <line id="slot.answer.ring9.line" x1="102" y1="194" x2="102" y2="201" stroke="#111111" stroke-width="2" />
  <line id="slot.answer.ring10.line" x1="107" y1="194" x2="107" y2="201" stroke="#111111" stroke-width="2" />
  <line id="slot.answer.line1.line" x1="73" y1="227" x2="73" y2="281" stroke="#111111" stroke-width="2" />
  <line id="slot.answer.line2.line" x1="73" y1="281" x2="170" y2="259" stroke="#111111" stroke-width="2" />
  <circle id="slot.answer.pt1.circle" cx="73" cy="227" r="3.8" stroke="#111111" stroke-width="2" fill="#222222" />
  <circle id="slot.answer.pt2.circle" cx="73" cy="281" r="3.8" stroke="#111111" stroke-width="2" fill="#222222" />
  <circle id="slot.answer.pt3.circle" cx="170" cy="259" r="3.8" stroke="#111111" stroke-width="2" fill="#222222" />
</svg>
