<?xml version="1.0" encoding="UTF-8"?>
<svg xmlns="http://www.w3.org/2000/svg" width="840" height="648" viewBox="0 0 840 648">
  <metadata><problem_id>S3_초등_3_008728</problem_id></metadata>
  <rect x="0" y="0" width="840" height="648" fill="#FFFFFF" />
  <rect id="slot.header.num.rect" x="6" y="18" width="12" height="12" fill="#ffffff" stroke="#111111" stroke-width="1.5" rx="0" ry="0" />
  <text id="slot.header.text.text" x="26" y="28" fill="#111111" font-family="Noto Sans KR, sans-serif" font-size="28">34. 그림을 보고 바르게 말한 사람을 선택해 보세요.</text>
  <text id="slot.name.left.text.text" x="214" y="432" fill="#111111" font-family="Noto Sans KR, sans-serif" font-size="28">진경</text>
  <text id="slot.name.right.text.text" x="584" y="432" fill="#111111" font-family="Noto Sans KR, sans-serif" font-size="28">현진</text>
  <rect id="slot.cars.outer.rect" x="155" y="50" width="628" height="124" fill="#ffffff" stroke="#111111" stroke-width="1.5" rx="14" ry="14" />
  <rect id="slot.cars.group1.rect" x="164" y="63" width="165" height="42" fill="#ffffff" stroke="#111111" stroke-width="1.5" rx="6" ry="6" />
  <rect id="slot.cars.group2.rect" x="331" y="63" width="165" height="42" fill="#ffffff" stroke="#111111" stroke-width="1.5" rx="6" ry="6" />
  <rect id="slot.cars.group3.rect" x="498" y="63" width="165" height="42" fill="#ffffff" stroke="#111111" stroke-width="1.5" rx="6" ry="6" />
  <rect id="slot.cars.group4.rect" x="665" y="63" width="100" height="42" fill="#ffffff" stroke="#111111" stroke-width="1.5" rx="6" ry="6" />
  <rect id="slot.cars.group5.rect" x="250" y="113" width="163" height="42" fill="#ffffff" stroke="#111111" stroke-width="1.5" rx="6" ry="6" />
  <rect id="slot.cars.group6.rect" x="416" y="113" width="163" height="42" fill="#ffffff" stroke="#111111" stroke-width="1.5" rx="6" ry="6" />
  <rect id="slot.cars.group7.rect" x="582" y="113" width="163" height="42" fill="#ffffff" stroke="#111111" stroke-width="1.5" rx="6" ry="6" />
  <rect id="slot.speech.left.rect" x="160" y="204" width="250" height="154" fill="#ffffff" stroke="#111111" stroke-width="1.5" rx="72" ry="72" />
  <circle id="slot.name.left.circle" cx="236" cy="424" r="24" stroke="#111111" stroke-width="2" fill="#ffffff" />
  <text id="slot.speech.left.text1.text" x="214" y="242" fill="#111111" font-family="Noto Sans KR, sans-serif" font-size="28">색칠한 부분은</text>
  <text id="slot.speech.left.text2.text" x="173" y="279" fill="#111111" font-family="Noto Sans KR, sans-serif" font-size="28">7묶음 중에서 3묶음이므로</text>
  <text id="slot.speech.left.text3.text" x="221" y="316" fill="#111111" font-family="Noto Sans KR, sans-serif" font-size="28">전체의 3/7이야.</text>
  <rect id="slot.speech.right.rect" x="530" y="204" width="250" height="154" fill="#ffffff" stroke="#111111" stroke-width="1.5" rx="72" ry="72" />
  <circle id="slot.name.right.circle" cx="606" cy="424" r="24" stroke="#111111" stroke-width="2" fill="#ffffff" />
  <text id="slot.speech.right.text1.text" x="556" y="242" fill="#111111" font-family="Noto Sans KR, sans-serif" font-size="28">색칠하지 않은 부분은</text>
  <text id="slot.speech.right.text2.text" x="549" y="279" fill="#111111" font-family="Noto Sans KR, sans-serif" font-size="28">7묶음 중에서 4묶음이므로</text>
  <text id="slot.speech.right.text3.text" x="597" y="316" fill="#111111" font-family="Noto Sans KR, sans-serif" font-size="28">전체의 4/7이야.</text>
</svg>
