<?xml version="1.0" encoding="UTF-8"?>
<svg xmlns="http://www.w3.org/2000/svg" width="960" height="580" viewBox="0 0 960 580">
  <metadata><problem_id>S3_초등_3_008682</problem_id></metadata>
  <rect x="0" y="0" width="960" height="580" fill="#FFFFFF" />
  <text id="slot.q_num.text" x="12" y="34" max_width="832" fill="#111111" font-family="Noto Sans KR, sans-serif" font-size="28">66.</text>
  <text id="slot.q1.text" x="74" y="34" max_width="832" fill="#111111" font-family="Noto Sans KR, sans-serif" font-size="28">주어진 모양과 똑같이 그리는 방법을 설명한 것입니다. 알맞은 말을</text>
  <text id="slot.q2.text" x="74" y="70" max_width="832" fill="#111111" font-family="Noto Sans KR, sans-serif" font-size="28">선택하세요.</text>
  <rect id="slot.grid.left.box.rect" x="239" y="86" width="192" height="192" fill="#ffffff" stroke="#111111" stroke-width="1.5" />
  <circle id="slot.left.outer_circle.circle" cx="335" cy="182" r="94" stroke="#111111" stroke-width="2" fill="none" />
  <circle id="slot.left.inner_circle_1.circle" cx="286" cy="182" r="48" stroke="#111111" stroke-width="2" fill="none" />
  <circle id="slot.left.inner_circle_2.circle" cx="384" cy="182" r="48" stroke="#111111" stroke-width="2" fill="none" />
  <rect id="slot.grid.right.box.rect" x="562" y="86" width="192" height="192" fill="#ffffff" stroke="#111111" stroke-width="1.5" />
  <path id="slot.arrow.path" d="M 454.0 182.0 L 496.0 182.0 M 482.0 170.0 L 496.0 182.0 L 482.0 194.0" stroke="#111111" stroke-width="2" fill="none" />
  <line id="slot.grid.left.v1.line" x1="258.2" y1="86" x2="258.2" y2="278" stroke="#9AA0A6" stroke-width="1.2" stroke-dasharray="5 3" />
  <line id="slot.grid.left.v2.line" x1="277.4" y1="86" x2="277.4" y2="278" stroke="#9AA0A6" stroke-width="1.2" stroke-dasharray="5 3" />
  <line id="slot.grid.left.v3.line" x1="296.6" y1="86" x2="296.6" y2="278" stroke="#9AA0A6" stroke-width="1.2" stroke-dasharray="5 3" />
  <line id="slot.grid.left.v4.line" x1="315.8" y1="86" x2="315.8" y2="278" stroke="#9AA0A6" stroke-width="1.2" stroke-dasharray="5 3" />
  <line id="slot.grid.left.v5.line" x1="335" y1="86" x2="335" y2="278" stroke="#9AA0A6" stroke-width="1.2" stroke-dasharray="5 3" />
  <line id="slot.grid.left.v6.line" x1="354.2" y1="86" x2="354.2" y2="278" stroke="#9AA0A6" stroke-width="1.2" stroke-dasharray="5 3" />
  <line id="slot.grid.left.v7.line" x1="373.4" y1="86" x2="373.4" y2="278" stroke="#9AA0A6" stroke-width="1.2" stroke-dasharray="5 3" />
  <line id="slot.grid.left.v8.line" x1="392.6" y1="86" x2="392.6" y2="278" stroke="#9AA0A6" stroke-width="1.2" stroke-dasharray="5 3" />
  <line id="slot.grid.left.v9.line" x1="411.8" y1="86" x2="411.8" y2="278" stroke="#9AA0A6" stroke-width="1.2" stroke-dasharray="5 3" />
  <line id="slot.grid.left.v10.line" x1="431" y1="86" x2="431" y2="278" stroke="#9AA0A6" stroke-width="1.2" stroke-dasharray="5 3" />
  <line id="slot.grid.left.h1.line" x1="239" y1="105.2" x2="431" y2="105.2" stroke="#9AA0A6" stroke-width="1.2" stroke-dasharray="5 3" />
  <line id="slot.grid.left.h2.line" x1="239" y1="124.4" x2="431" y2="124.4" stroke="#9AA0A6" stroke-width="1.2" stroke-dasharray="5 3" />
  <line id="slot.grid.left.h3.line" x1="239" y1="143.6" x2="431" y2="143.6" stroke="#9AA0A6" stroke-width="1.2" stroke-dasharray="5 3" />
  <line id="slot.grid.left.h4.line" x1="239" y1="162.8" x2="431" y2="162.8" stroke="#9AA0A6" stroke-width="1.2" stroke-dasharray="5 3" />
  <line id="slot.grid.left.h5.line" x1="239" y1="182" x2="431" y2="182" stroke="#9AA0A6" stroke-width="1.2" stroke-dasharray="5 3" />
  <line id="slot.grid.left.h6.line" x1="239" y1="201.2" x2="431" y2="201.2" stroke="#9AA0A6" stroke-width="1.2" stroke-dasharray="5 3" />
  <line id="slot.grid.left.h7.line" x1="239" y1="220.4" x2="431" y2="220.4" stroke="#9AA0A6" stroke-width="1.2" stroke-dasharray="5 3" />
  <line id="slot.grid.left.h8.line" x1="239" y1="239.6" x2="431" y2="239.6" stroke="#9AA0A6" stroke-width="1.2" stroke-dasharray="5 3" />
  <line id="slot.grid.left.h9.line" x1="239" y1="258.8" x2="431" y2="258.8" stroke="#9AA0A6" stroke-width="1.2" stroke-dasharray="5 3" />
  <line id="slot.grid.left.h10.line" x1="239" y1="278" x2="431" y2="278" stroke="#9AA0A6" stroke-width="1.2" stroke-dasharray="5 3" />
  <line id="slot.grid.right.v1.line" x1="581.2" y1="86" x2="581.2" y2="278" stroke="#9AA0A6" stroke-width="1.2" stroke-dasharray="5 3" />
  <line id="slot.grid.right.v2.line" x1="600.4" y1="86" x2="600.4" y2="278" stroke="#9AA0A6" stroke-width="1.2" stroke-dasharray="5 3" />
  <line id="slot.grid.right.v3.line" x1="619.6" y1="86" x2="619.6" y2="278" stroke="#9AA0A6" stroke-width="1.2" stroke-dasharray="5 3" />
  <line id="slot.grid.right.v4.line" x1="638.8" y1="86" x2="638.8" y2="278" stroke="#9AA0A6" stroke-width="1.2" stroke-dasharray="5 3" />
  <line id="slot.grid.right.v5.line" x1="658" y1="86" x2="658" y2="278" stroke="#9AA0A6" stroke-width="1.2" stroke-dasharray="5 3" />
  <line id="slot.grid.right.v6.line" x1="677.2" y1="86" x2="677.2" y2="278" stroke="#9AA0A6" stroke-width="1.2" stroke-dasharray="5 3" />
  <line id="slot.grid.right.v7.line" x1="696.4" y1="86" x2="696.4" y2="278" stroke="#9AA0A6" stroke-width="1.2" stroke-dasharray="5 3" />
  <line id="slot.grid.right.v8.line" x1="715.6" y1="86" x2="715.6" y2="278" stroke="#9AA0A6" stroke-width="1.2" stroke-dasharray="5 3" />
  <line id="slot.grid.right.v9.line" x1="734.8" y1="86" x2="734.8" y2="278" stroke="#9AA0A6" stroke-width="1.2" stroke-dasharray="5 3" />
  <line id="slot.grid.right.v10.line" x1="754" y1="86" x2="754" y2="278" stroke="#9AA0A6" stroke-width="1.2" stroke-dasharray="5 3" />
  <line id="slot.grid.right.h1.line" x1="562" y1="105.2" x2="754" y2="105.2" stroke="#9AA0A6" stroke-width="1.2" stroke-dasharray="5 3" />
  <line id="slot.grid.right.h2.line" x1="562" y1="124.4" x2="754" y2="124.4" stroke="#9AA0A6" stroke-width="1.2" stroke-dasharray="5 3" />
  <line id="slot.grid.right.h3.line" x1="562" y1="143.6" x2="754" y2="143.6" stroke="#9AA0A6" stroke-width="1.2" stroke-dasharray="5 3" />
  <line id="slot.grid.right.h4.line" x1="562" y1="162.8" x2="754" y2="162.8" stroke="#9AA0A6" stroke-width="1.2" stroke-dasharray="5 3" />
  <line id="slot.grid.right.h5.line" x1="562" y1="182" x2="754" y2="182" stroke="#9AA0A6" stroke-width="1.2" stroke-dasharray="5 3" />
  <line id="slot.grid.right.h6.line" x1="562" y1="201.2" x2="754" y2="201.2" stroke="#9AA0A6" stroke-width="1.2" stroke-dasharray="5 3" />
  <line id="slot.grid.right.h7.line" x1="562" y1="220.4" x2="754" y2="220.4" stroke="#9AA0A6" stroke-width="1.2" stroke-dasharray="5 3" />
  <line id="slot.grid.right.h8.line" x1="562" y1="239.6" x2="754" y2="239.6" stroke="#9AA0A6" stroke-width="1.2" stroke-dasharray="5 3" />
  <line id="slot.grid.right.h9.line" x1="562" y1="258.8" x2="754" y2="258.8" stroke="#9AA0A6" stroke-width="1.2" stroke-dasharray="5 3" />
  <line id="slot.grid.right.h10.line" x1="562" y1="278" x2="754" y2="278" stroke="#9AA0A6" stroke-width="1.2" stroke-dasharray="5 3" />
  <circle id="slot.boy.head.circle" cx="154" cy="382" r="23" stroke="#111111" stroke-width="2" fill="none" />
  <rect id="slot.boy.body.rect" x="132" y="399" width="44" height="56" fill="#ffffff" stroke="#111111" stroke-width="1.5" />
  <circle id="slot.boy.hair.circle" cx="154" cy="366" r="18" stroke="#111111" stroke-width="2" fill="none" />
  <circle id="slot.boy.eye1.circle" cx="147" cy="381" r="1.8" stroke="#111111" stroke-width="2" fill="#222222" />
  <circle id="slot.boy.eye2.circle" cx="161" cy="381" r="1.8" stroke="#111111" stroke-width="2" fill="#222222" />
  <path id="slot.boy.mouth.path" d="M 149.0 390.0 Q 154.0 394.0 159.0 390.0" stroke="#111111" stroke-width="2" fill="none" />
  <path id="slot.boy.speech_tail.path" d="M 197.0 420.0 L 207.0 425.0 L 196.0 430.0" stroke="#111111" stroke-width="2" fill="none" />
  <path id="slot.bubble.left.path" d="M 205.0 346.0 C 205.0 320.0 225.0 306.0 255.0 306.0 C 293.0 306.0 319.0 323.0 319.0 348.0 C 319.0 373.0 292.0 390.0 255.0 390.0 C 236.0 390.0 224.0 386.0 213.0 379.0 L 202.0 384.0 L 207.0 372.0 C 205.5 364.0 205.0 355.0 205.0 346.0 Z" stroke="#111111" stroke-width="2" fill="none" />
  <circle id="slot.girl.head.circle" cx="780" cy="382" r="23" stroke="#111111" stroke-width="2" fill="none" />
  <rect id="slot.girl.body.rect" x="756" y="399" width="48" height="60" fill="#ffffff" stroke="#111111" stroke-width="1.5" />
  <circle id="slot.girl.hair.circle" cx="780" cy="368" r="20" stroke="#111111" stroke-width="2" fill="none" />
  <circle id="slot.girl.eye1.circle" cx="773" cy="382" r="1.8" stroke="#111111" stroke-width="2" fill="#222222" />
  <circle id="slot.girl.eye2.circle" cx="787" cy="382" r="1.8" stroke="#111111" stroke-width="2" fill="#222222" />
  <path id="slot.girl.mouth.path" d="M 775.0 391.0 Q 780.0 395.0 785.0 391.0" stroke="#111111" stroke-width="2" fill="none" />
  <path id="slot.girl.hand_left.path" d="M 756.0 407.0 L 744.0 399.0 L 750.0 414.0" stroke="#111111" stroke-width="2" fill="none" />
  <path id="slot.girl.hand_right.path" d="M 808.0 407.0 L 820.0 399.0 L 814.0 414.0" stroke="#111111" stroke-width="2" fill="none" />
  <path id="slot.girl.speech_tail.path" d="M 730.0 426.0 L 720.0 431.0 L 731.0 436.0" stroke="#111111" stroke-width="2" fill="none" />
  <path id="slot.bubble.right.path" d="M 517.0 336.0 C 517.0 308.0 559.0 288.0 617.0 288.0 C 678.0 288.0 721.0 312.0 721.0 343.0 C 721.0 374.0 678.0 396.0 618.0 396.0 C 588.0 396.0 565.0 392.0 545.0 382.0 L 532.0 388.0 L 536.0 373.0 C 521.0 360.0 517.0 348.0 517.0 336.0 Z" stroke="#111111" stroke-width="2" fill="none" />
  <text id="slot.bubble.left_text.text" x="235" y="336" max_width="832" fill="#111111" font-family="Noto Sans KR, sans-serif" font-size="28">
    <tspan x="235" dy="0">큰 원을</tspan>
    <tspan x="235" dy="1.2em">먼저 그려.</tspan>
  </text>
  <text id="slot.bubble.right_text.text" x="547" y="323" max_width="832" fill="#111111" font-family="Noto Sans KR, sans-serif" font-size="28">
    <tspan x="547" dy="0">큰 원의 반지름을</tspan>
    <tspan x="547" dy="1.2em">( 지름, 반지름 )으로 하는</tspan>
    <tspan x="547" dy="1.2em">작은 원을 2개 그려.</tspan>
  </text>
</svg>
