<?xml version="1.0" encoding="UTF-8"?>
<svg xmlns="http://www.w3.org/2000/svg" width="926" height="658" viewBox="0 0 926 658">
  <metadata><problem_id>S3_초등_3_008674</problem_id></metadata>
  <rect x="0" y="0" width="926" height="658" fill="#FFFFFF" />
  <text id="slot.header.mark.text" x="10" y="32" max_width="798" fill="#111111" font-family="Noto Sans KR, sans-serif" font-size="28">☐ 55.</text>
  <text id="slot.header.text.text" x="70" y="32" max_width="798" fill="#111111" font-family="Noto Sans KR, sans-serif" font-size="28">원을 바르게 완성한 것을 선택하세요.</text>
  <rect id="slot.top.square.rect" x="410" y="48" width="160" height="160" fill="#ffffff" stroke="#111111" stroke-width="1.5" />
  <path id="slot.top.arc.path" d="M 490.0 48.0 A 80.0 80.0 0 1 0 570.0 128.0" stroke="#111111" stroke-width="2" fill="none" />
  <circle id="slot.top.center.circle" cx="490" cy="128" r="4" stroke="#111111" stroke-width="2" fill="#e91e63" />
  <rect id="slot.mid.left.square.rect" x="140" y="226" width="160" height="160" fill="#ffffff" stroke="#111111" stroke-width="1.5" />
  <path id="slot.mid.left.arc.path" d="M 140.0 306.0 A 80.0 80.0 0 1 1 220.0 226.0" stroke="#111111" stroke-width="2" fill="none" />
  <path id="slot.mid.left.red.path" d="M 220.0 226.0 A 80.0 80.0 0 0 0 300.0 306.0" stroke="#111111" stroke-width="2" fill="none" />
  <circle id="slot.mid.left.center.circle" cx="220" cy="306" r="4" stroke="#111111" stroke-width="2" fill="#e91e63" />
  <rect id="slot.mid.mid.square.rect" x="410" y="226" width="160" height="160" fill="#ffffff" stroke="#111111" stroke-width="1.5" />
  <path id="slot.mid.mid.arc.path" d="M 410.0 306.0 A 80.0 80.0 0 1 1 490.0 226.0" stroke="#111111" stroke-width="2" fill="none" />
  <circle id="slot.mid.mid.center.circle" cx="490" cy="306" r="4" stroke="#111111" stroke-width="2" fill="#e91e63" />
  <rect id="slot.mid.right.square.rect" x="700" y="226" width="160" height="160" fill="#ffffff" stroke="#111111" stroke-width="1.5" />
  <path id="slot.mid.right.arc.path" d="M 700.0 306.0 A 80.0 80.0 0 1 1 780.0 226.0" stroke="#111111" stroke-width="2" fill="none" />
  <path id="slot.mid.right.red.path" d="M 780.0 226.0 A 80.0 80.0 0 0 1 860.0 306.0" stroke="#111111" stroke-width="2" fill="none" />
  <circle id="slot.mid.right.center.circle" cx="780" cy="306" r="4" stroke="#111111" stroke-width="2" fill="#e91e63" />
  <line id="slot.mid.mid.red.line" x1="490" y1="226" x2="570" y2="306" stroke="#111111" stroke-width="2" />
  <rect id="slot.answer.square.rect" x="60" y="412" width="160" height="160" fill="#ffffff" stroke="#111111" stroke-width="1.5" />
  <path id="slot.answer.arc.path" d="M 60.0 492.0 A 80.0 80.0 0 1 1 140.0 412.0" stroke="#111111" stroke-width="2" fill="none" />
  <circle id="slot.answer.center.circle" cx="140" cy="492" r="4" stroke="#111111" stroke-width="2" fill="#e91e63" />
</svg>
