<?xml version="1.0" encoding="UTF-8"?>
<svg xmlns="http://www.w3.org/2000/svg" width="720" height="268" viewBox="0 0 720 268">
  <metadata><problem_id>S3_초등_3_009016</problem_id></metadata>
  <rect x="0" y="0" width="720" height="268" fill="#FFFFFF" />
  <line id="slot.shape.left.line1.line" x1="107" y1="97" x2="210" y2="56" stroke="#111111" stroke-width="2" />
  <line id="slot.shape.left.line2.line" x1="210" y1="56" x2="283" y2="109" stroke="#111111" stroke-width="2" />
  <line id="slot.shape.middle.line.line" x1="371" y1="96" x2="516" y2="52" stroke="#111111" stroke-width="2" />
  <line id="slot.shape.right.curve1.line" x1="611" y1="58" x2="670" y2="48" stroke="#111111" stroke-width="2" />
  <line id="slot.shape.right.curve2.line" x1="670" y1="48" x2="696" y2="72" stroke="#111111" stroke-width="2" />
  <line id="slot.shape.right.curve3.line" x1="696" y1="72" x2="652" y2="92" stroke="#111111" stroke-width="2" />
  <line id="slot.shape.right.curve4.line" x1="652" y1="92" x2="611" y2="111" stroke="#111111" stroke-width="2" />
  <line id="slot.answer.shape.line.line" x1="45" y1="193" x2="145" y2="139" stroke="#111111" stroke-width="2" />
  <circle id="slot.shape.left.dot1.circle" cx="145" cy="82" r="3" stroke="#111111" stroke-width="2" fill="#222222" />
  <circle id="slot.shape.left.dot2.circle" cx="250" cy="94" r="3" stroke="#111111" stroke-width="2" fill="#222222" />
  <circle id="slot.shape.middle.dot1.circle" cx="396" cy="88" r="3" stroke="#111111" stroke-width="2" fill="#222222" />
  <circle id="slot.shape.middle.dot2.circle" cx="476" cy="63" r="3" stroke="#111111" stroke-width="2" fill="#222222" />
  <circle id="slot.shape.right.dot1.circle" cx="698" cy="49" r="3" stroke="#111111" stroke-width="2" fill="#222222" />
  <circle id="slot.shape.right.dot2.circle" cx="612" cy="114" r="3" stroke="#111111" stroke-width="2" fill="#222222" />
  <circle id="slot.answer.shape.dot1.circle" cx="63" cy="184" r="3" stroke="#111111" stroke-width="2" fill="#222222" />
  <circle id="slot.answer.shape.dot2.circle" cx="127" cy="149" r="3" stroke="#111111" stroke-width="2" fill="#222222" />
  <text id="slot.title.text" x="10" y="22" fill="#111111" font-family="Noto Sans KR, sans-serif" font-size="28">□ 54. 직선을 선택하세요.</text>
</svg>
