<?xml version="1.0" encoding="UTF-8"?>
<svg xmlns="http://www.w3.org/2000/svg" width="900" height="760" viewBox="0 0 900 760">
  <metadata><problem_id>S3_초등_3_008727</problem_id></metadata>
  <rect x="0" y="0" width="900" height="760" fill="#FFFFFF" />
  <circle id="slot.opt1.shape.2.circle" cx="170" cy="150" r="52" stroke="#111111" stroke-width="2" fill="none" />
  <circle id="slot.opt1.shape.3.circle" cx="220" cy="150" r="52" stroke="#111111" stroke-width="2" fill="none" />
  <path id="slot.opt2.shape.2.path" d="M 370.0 250.0 C 370.0 170.0, 450.0 90.0, 530.0 90.0" stroke="#111111" stroke-width="2" fill="none" />
  <path id="slot.opt2.shape.3.path" d="M 370.0 170.0 C 400.0 170.0, 430.0 200.0, 450.0 250.0" stroke="#111111" stroke-width="2" fill="none" />
  <path id="slot.opt2.shape.4.path" d="M 450.0 90.0 C 450.0 130.0, 490.0 170.0, 530.0 170.0" stroke="#111111" stroke-width="2" fill="none" />
  <circle id="slot.opt3.shape.2.circle" cx="700" cy="110" r="26" stroke="#111111" stroke-width="2" fill="none" />
  <circle id="slot.opt3.shape.3.circle" cx="700" cy="190" r="26" stroke="#111111" stroke-width="2" fill="none" />
  <circle id="slot.opt3.shape.4.circle" cx="660" cy="150" r="26" stroke="#111111" stroke-width="2" fill="none" />
  <circle id="slot.opt3.shape.5.circle" cx="740" cy="150" r="26" stroke="#111111" stroke-width="2" fill="none" />
  <circle id="slot.opt3.shape.6.circle" cx="700" cy="150" r="16" stroke="#111111" stroke-width="2" fill="none" />
  <circle id="slot.opt4.shape.2.circle" cx="140" cy="320" r="22" stroke="#111111" stroke-width="2" fill="none" />
  <path id="slot.opt4.shape.3.path" d="M 60.0 260.0 C 60.0 290.0, 90.0 320.0, 140.0 320.0" stroke="#111111" stroke-width="2" fill="none" />
  <path id="slot.opt4.shape.4.path" d="M 220.0 260.0 C 220.0 290.0, 190.0 320.0, 140.0 320.0" stroke="#111111" stroke-width="2" fill="none" />
  <path id="slot.opt5.shape.2.path" d="M 375.0 305.0 C 395.0 270.0, 425.0 270.0, 430.0 305.0 C 435.0 340.0, 465.0 360.0, 485.0 330.0" stroke="#111111" stroke-width="2" fill="none" />
  <circle id="slot.exp1.shape.1.circle" cx="160" cy="575" r="42" stroke="#111111" stroke-width="2" fill="none" />
  <circle id="slot.exp1.shape.2.circle" cx="210" cy="575" r="42" stroke="#111111" stroke-width="2" fill="none" />
  <circle id="slot.exp1.shape.3.circle" cx="260" cy="575" r="42" stroke="#111111" stroke-width="2" fill="none" />
  <rect id="slot.exp2.shape.1.rect" x="372" y="530" width="160" height="110" fill="none" stroke="#111111" stroke-width="1.5" />
  <path id="slot.exp2.shape.2.path" d="M 372.0 640.0 C 372.0 570.0, 452.0 530.0, 532.0 530.0" stroke="#111111" stroke-width="2" fill="none" />
  <path id="slot.exp2.shape.3.path" d="M 372.0 560.0 C 405.0 560.0, 430.0 585.0, 450.0 640.0" stroke="#111111" stroke-width="2" fill="none" />
  <path id="slot.exp2.shape.4.path" d="M 452.0 530.0 C 452.0 560.0, 490.0 600.0, 532.0 560.0" stroke="#111111" stroke-width="2" fill="none" />
  <circle id="slot.exp3.shape.1.circle" cx="710" cy="575" r="28" stroke="#111111" stroke-width="2" fill="none" />
  <circle id="slot.exp3.shape.2.circle" cx="710" cy="535" r="28" stroke="#111111" stroke-width="2" fill="none" />
  <circle id="slot.exp3.shape.3.circle" cx="710" cy="615" r="28" stroke="#111111" stroke-width="2" fill="none" />
  <circle id="slot.exp3.shape.4.circle" cx="670" cy="575" r="28" stroke="#111111" stroke-width="2" fill="none" />
  <circle id="slot.exp3.shape.5.circle" cx="750" cy="575" r="28" stroke="#111111" stroke-width="2" fill="none" />
  <circle id="slot.exp3.shape.6.circle" cx="710" cy="575" r="16" stroke="#111111" stroke-width="2" fill="none" />
  <rect id="slot.exp4.shape.1.rect" x="60" y="610" width="150" height="120" fill="none" stroke="#111111" stroke-width="1.5" />
  <circle id="slot.exp4.shape.2.circle" cx="135" cy="675" r="22" stroke="#111111" stroke-width="2" fill="none" />
  <path id="slot.exp4.shape.3.path" d="M 60.0 610.0 C 60.0 650.0, 95.0 675.0, 135.0 675.0" stroke="#111111" stroke-width="2" fill="none" />
  <path id="slot.exp4.shape.4.path" d="M 210.0 610.0 C 210.0 650.0, 175.0 675.0, 135.0 675.0" stroke="#111111" stroke-width="2" fill="none" />
  <circle id="slot.exp5.shape.1.circle" cx="430" cy="675" r="74" stroke="#111111" stroke-width="2" fill="none" />
  <path id="slot.exp5.shape.2.path" d="M 385.0 660.0 C 405.0 625.0, 435.0 625.0, 438.0 660.0 C 442.0 695.0, 470.0 710.0, 490.0 675.0" stroke="#111111" stroke-width="2" fill="none" />
  <circle id="slot.exp1.dot.1.circle" cx="160" cy="575" r="3.5" stroke="#111111" stroke-width="2" fill="#d81b60" />
  <circle id="slot.exp1.dot.2.circle" cx="210" cy="575" r="3.5" stroke="#111111" stroke-width="2" fill="#d81b60" />
  <circle id="slot.exp1.dot.3.circle" cx="260" cy="575" r="3.5" stroke="#111111" stroke-width="2" fill="#d81b60" />
  <circle id="slot.exp2.dot.1.circle" cx="372" cy="530" r="3.5" stroke="#111111" stroke-width="2" fill="#d81b60" />
  <circle id="slot.exp2.dot.2.circle" cx="532" cy="530" r="3.5" stroke="#111111" stroke-width="2" fill="#d81b60" />
  <circle id="slot.exp2.dot.3.circle" cx="372" cy="640" r="3.5" stroke="#111111" stroke-width="2" fill="#d81b60" />
  <circle id="slot.exp2.dot.4.circle" cx="532" cy="640" r="3.5" stroke="#111111" stroke-width="2" fill="#d81b60" />
  <circle id="slot.exp3.dot.1.circle" cx="710" cy="535" r="3.5" stroke="#111111" stroke-width="2" fill="#d81b60" />
  <circle id="slot.exp3.dot.2.circle" cx="670" cy="575" r="3.5" stroke="#111111" stroke-width="2" fill="#d81b60" />
  <circle id="slot.exp3.dot.3.circle" cx="710" cy="575" r="3.5" stroke="#111111" stroke-width="2" fill="#d81b60" />
  <circle id="slot.exp3.dot.4.circle" cx="750" cy="575" r="3.5" stroke="#111111" stroke-width="2" fill="#d81b60" />
  <circle id="slot.exp3.dot.5.circle" cx="710" cy="615" r="3.5" stroke="#111111" stroke-width="2" fill="#d81b60" />
  <circle id="slot.exp4.dot.1.circle" cx="135" cy="610" r="3.5" stroke="#111111" stroke-width="2" fill="#d81b60" />
  <circle id="slot.exp4.dot.2.circle" cx="135" cy="675" r="3.5" stroke="#111111" stroke-width="2" fill="#d81b60" />
  <circle id="slot.exp4.dot.3.circle" cx="135" cy="730" r="3.5" stroke="#111111" stroke-width="2" fill="#d81b60" />
  <circle id="slot.exp5.dot.1.circle" cx="395" cy="675" r="3.5" stroke="#111111" stroke-width="2" fill="#d81b60" />
  <circle id="slot.exp5.dot.2.circle" cx="430" cy="675" r="3.5" stroke="#111111" stroke-width="2" fill="#d81b60" />
  <circle id="slot.exp5.dot.3.circle" cx="465" cy="675" r="3.5" stroke="#111111" stroke-width="2" fill="#d81b60" />
  <text id="slot.qno.text" x="16" y="28" fill="#111111" font-family="Noto Sans KR, sans-serif" font-size="28">□ 33.</text>
  <text id="slot.qtext.text" x="70" y="28" fill="#111111" font-family="Noto Sans KR, sans-serif" font-size="28">원의 중심의 개수가 가장 많은 모양을 고르세요.</text>
  <circle id="slot.opt1.shape.1.circle" cx="120" cy="150" r="52" stroke="#111111" stroke-width="2" fill="none" />
  <rect id="slot.opt2.shape.1.rect" x="370" y="90" width="160" height="160" fill="none" stroke="#111111" stroke-width="1.5" />
  <circle id="slot.opt3.shape.1.circle" cx="700" cy="150" r="26" stroke="#111111" stroke-width="2" fill="none" />
  <rect id="slot.opt4.shape.1.rect" x="60" y="260" width="160" height="130" fill="none" stroke="#111111" stroke-width="1.5" />
  <circle id="slot.opt5.shape.1.circle" cx="430" cy="330" r="78" stroke="#111111" stroke-width="2" fill="none" />
  <text id="slot.opt1.label.text" x="34" y="76" fill="#111111" font-family="Noto Sans KR, sans-serif" font-size="28">①</text>
  <text id="slot.opt2.label.text" x="344" y="76" fill="#111111" font-family="Noto Sans KR, sans-serif" font-size="28">②</text>
  <text id="slot.opt3.label.text" x="654" y="76" fill="#111111" font-family="Noto Sans KR, sans-serif" font-size="28">③</text>
  <text id="slot.opt4.label.text" x="34" y="264" fill="#111111" font-family="Noto Sans KR, sans-serif" font-size="28">④</text>
  <text id="slot.opt5.label.text" x="344" y="264" fill="#111111" font-family="Noto Sans KR, sans-serif" font-size="28">⑤</text>
</svg>
