<?xml version="1.0" encoding="UTF-8"?>
<svg xmlns="http://www.w3.org/2000/svg" xmlns:xlink="http://www.w3.org/1999/xlink" width="960" height="431" viewBox="0 0 960 431">
  <metadata><problem_id>S3_초등_3_008834</problem_id></metadata>
  <rect x="0" y="0" width="960" height="431" fill="#FFFFFF" />
  <text id="slot.instruction.1.text" x="23.984" y="35" fill="#111111" font-family="Noto Sans KR, sans-serif" font-size="28">저울을 사용하여 감자와 고구마의 무게를 비교했습니다.</text>
  <text id="slot.instruction.2.text" x="12" y="70" fill="#111111" font-family="Noto Sans KR, sans-serif" font-size="28">바르게 비교하였으면 ○표,그렇지 않으면 ×표를 선택하세요.</text>
  <polygon id="slot.scale.left.pan.polygon" points="401,166 454,166 444,192 411,192" stroke="#111111" stroke-width="2" fill="none" />
  <polygon id="slot.scale.right.pan.polygon" points="526,170 579,170 571,196 536,196" stroke="#111111" stroke-width="2" fill="none" />
  <polygon id="slot.potato.polygon" points="414,149 438,141 455,149 457,162 447,172 424,171 412,160" stroke="#111111" stroke-width="2" fill="none" />
  <polygon id="slot.sweetpotato.polygon" points="537,153 566,143 586,149 593,158 586,168 566,171 545,166" stroke="#111111" stroke-width="2" fill="none" />
  <circle id="slot.scale.center.circle" cx="490" cy="164" r="5" stroke="#111111" stroke-width="2" fill="#222222" />
  <text id="slot.label.potato.text" x="361.982" y="326" fill="#111111" font-family="Noto Sans KR, sans-serif" font-size="28">감자</text>
  <text id="slot.label.sweetpotato.text" x="485.982" y="328" fill="#111111" font-family="Noto Sans KR, sans-serif" font-size="28">고구마</text>
  <text id="slot.statement.text" x="221" y="422" fill="#111111" font-family="Noto Sans KR, sans-serif" font-size="28">고구마가 감자보다 더 무겁습니다. ( ○, × )</text>
</svg>
