<?xml version="1.0" encoding="UTF-8"?>
<svg xmlns="http://www.w3.org/2000/svg" width="940" height="404" viewBox="0 0 940 404">
  <metadata><problem_id>S3_초등_3_008871</problem_id></metadata>
  <rect x="0" y="0" width="940" height="404" fill="#FFFFFF" />
  <circle id="slot.lb.ga.circle" cx="116" cy="103" r="12" stroke="#111111" stroke-width="2" fill="#FFFFFF" />
  <circle id="slot.lb.na.circle" cx="358" cy="103" r="12" stroke="#111111" stroke-width="2" fill="#FFFFFF" />
  <circle id="slot.lb.da.circle" cx="595" cy="103" r="12" stroke="#111111" stroke-width="2" fill="#FFFFFF" />
  <rect id="slot.b1.body.rect" x="130" y="166" width="40" height="40" fill="#E8D6C6" stroke="#111111" stroke-width="1.5" />
  <path id="slot.b1.outline.path" d="M 132.0 168.0 C 134.0 150.0, 166.0 150.0, 168.0 168.0 L 164.0 204.0 C 156.0 210.0, 144.0 210.0, 136.0 204.0 Z" stroke="#111111" stroke-width="2" fill="none" />
  <path id="slot.b1.rim.path" d="M 132.0 168.0 C 134.0 160.0, 166.0 160.0, 168.0 168.0" stroke="#111111" stroke-width="2" fill="none" />
  <rect id="slot.b1.water.rect" x="135" y="181" width="30" height="18" fill="#6EC5F3" stroke="#111111" stroke-width="1.5" />
  <rect id="slot.b1.dest.rect" x="243" y="154" width="47" height="58" fill="#F7FAFF" stroke="#111111" stroke-width="1.5" />
  <path id="slot.b1.dest_outline.path" d="M 245.0 158.0 C 247.0 141.0, 286.0 141.0, 288.0 158.0 L 288.0 204.0 C 284.0 212.0, 248.0 212.0, 245.0 204.0 Z" stroke="#111111" stroke-width="2" fill="none" />
  <path id="slot.b1.dest_rim.path" d="M 245.0 158.0 C 247.0 150.0, 286.0 150.0, 288.0 158.0" stroke="#111111" stroke-width="2" fill="none" />
  <rect id="slot.b1.dest_water.rect" x="247" y="173" width="39" height="31" fill="#63B9EA" stroke="#111111" stroke-width="1.5" />
  <path id="slot.b1.dest_water_top.path" d="M 247.0 173.0 C 257.0 165.0, 276.0 165.0, 286.0 173.0" stroke="#111111" stroke-width="2" fill="none" />
  <rect id="slot.b2.body.rect" x="360" y="176" width="48" height="26" fill="#DCE8C7" stroke="#111111" stroke-width="1.5" />
  <path id="slot.b2.outline.path" d="M 361.0 178.0 C 364.0 168.0, 403.0 168.0, 406.0 178.0 L 406.0 196.0 C 400.0 204.0, 368.0 204.0, 361.0 196.0 Z" stroke="#111111" stroke-width="2" fill="none" />
  <path id="slot.b2.rim.path" d="M 361.0 178.0 C 364.0 171.0, 403.0 171.0, 406.0 178.0" stroke="#111111" stroke-width="2" fill="none" />
  <rect id="slot.b2.dest.rect" x="480" y="153" width="49" height="58" fill="#F7FAFF" stroke="#111111" stroke-width="1.5" />
  <path id="slot.b2.dest_outline.path" d="M 482.0 157.0 C 484.0 140.0, 525.0 140.0, 527.0 157.0 L 527.0 203.0 C 523.0 212.0, 486.0 212.0, 482.0 203.0 Z" stroke="#111111" stroke-width="2" fill="none" />
  <path id="slot.b2.dest_rim.path" d="M 482.0 157.0 C 484.0 149.0, 525.0 149.0, 527.0 157.0" stroke="#111111" stroke-width="2" fill="none" />
  <rect id="slot.b2.dest_water.rect" x="485" y="175" width="39" height="29" fill="#63B9EA" stroke="#111111" stroke-width="1.5" />
  <path id="slot.b2.dest_water_top.path" d="M 485.0 175.0 C 495.0 167.0, 514.0 167.0, 524.0 175.0" stroke="#111111" stroke-width="2" fill="none" />
  <rect id="slot.b3.body.rect" x="602" y="174" width="52" height="32" fill="#BFD4F2" stroke="#111111" stroke-width="1.5" />
  <path id="slot.b3.outline.path" d="M 604.0 176.0 C 608.0 160.0, 648.0 160.0, 652.0 176.0 L 652.0 199.0 C 646.0 209.0, 610.0 209.0, 604.0 199.0 Z" stroke="#111111" stroke-width="2" fill="none" />
  <path id="slot.b3.rim.path" d="M 604.0 176.0 C 608.0 168.0, 648.0 168.0, 652.0 176.0" stroke="#111111" stroke-width="2" fill="none" />
  <rect id="slot.b3.dest.rect" x="731" y="155" width="48" height="58" fill="#F7FAFF" stroke="#111111" stroke-width="1.5" />
  <path id="slot.b3.dest_outline.path" d="M 733.0 159.0 C 735.0 142.0, 772.0 142.0, 776.0 159.0 L 776.0 205.0 C 772.0 213.0, 736.0 213.0, 733.0 205.0 Z" stroke="#111111" stroke-width="2" fill="none" />
  <path id="slot.b3.dest_rim.path" d="M 733.0 159.0 C 735.0 151.0, 772.0 151.0, 776.0 159.0" stroke="#111111" stroke-width="2" fill="none" />
  <rect id="slot.b3.dest_water.rect" x="736" y="162" width="39" height="42" fill="#63B9EA" stroke="#111111" stroke-width="1.5" />
  <path id="slot.b3.dest_water_top.path" d="M 736.0 162.0 C 746.0 154.0, 765.0 154.0, 775.0 162.0" stroke="#111111" stroke-width="2" fill="none" />
  <line id="slot.b1.arrow1.line" x1="188" y1="188" x2="223" y2="188" stroke="#A0A0A0" stroke-width="4" />
  <line id="slot.b1.arrow2.line" x1="214" y1="180" x2="223" y2="188" stroke="#A0A0A0" stroke-width="4" />
  <line id="slot.b1.arrow3.line" x1="214" y1="196" x2="223" y2="188" stroke="#A0A0A0" stroke-width="4" />
  <line id="slot.b2.arrow1.line" x1="423" y1="188" x2="458" y2="188" stroke="#A0A0A0" stroke-width="4" />
  <line id="slot.b2.arrow2.line" x1="449" y1="180" x2="458" y2="188" stroke="#A0A0A0" stroke-width="4" />
  <line id="slot.b2.arrow3.line" x1="449" y1="196" x2="458" y2="188" stroke="#A0A0A0" stroke-width="4" />
  <line id="slot.b3.arrow1.line" x1="674" y1="188" x2="710" y2="188" stroke="#A0A0A0" stroke-width="4" />
  <line id="slot.b3.arrow2.line" x1="701" y1="180" x2="710" y2="188" stroke="#A0A0A0" stroke-width="4" />
  <line id="slot.b3.arrow3.line" x1="701" y1="196" x2="710" y2="188" stroke="#A0A0A0" stroke-width="4" />
  <text id="slot.q1.text" x="10" y="31" fill="#111111" font-family="Noto Sans KR, sans-serif" font-size="28">24.</text>
  <text id="slot.q2.text" x="53" y="29" fill="#111111" font-family="Noto Sans KR, sans-serif" font-size="28">가</text>
  <text id="slot.q3.text" x="89" y="31" fill="#111111" font-family="Noto Sans KR, sans-serif" font-size="28">그릇,</text>
  <text id="slot.q4.text" x="160" y="29" fill="#111111" font-family="Noto Sans KR, sans-serif" font-size="28">나</text>
  <text id="slot.q5.text" x="195" y="31" fill="#111111" font-family="Noto Sans KR, sans-serif" font-size="28">그릇,</text>
  <text id="slot.q6.text" x="266" y="29" fill="#111111" font-family="Noto Sans KR, sans-serif" font-size="28">다</text>
  <text id="slot.q7.text" x="300" y="31" fill="#111111" font-family="Noto Sans KR, sans-serif" font-size="28">그릇에</text>
  <text id="slot.q8.text" x="390" y="31" fill="#111111" font-family="Noto Sans KR, sans-serif" font-size="28">물을</text>
  <text id="slot.q9.text" x="450" y="31" fill="#111111" font-family="Noto Sans KR, sans-serif" font-size="28">가득</text>
  <text id="slot.q10.text" x="510" y="31" fill="#111111" font-family="Noto Sans KR, sans-serif" font-size="28">채운</text>
  <text id="slot.q11.text" x="566" y="31" fill="#111111" font-family="Noto Sans KR, sans-serif" font-size="28">후</text>
  <text id="slot.q12.text" x="612" y="31" fill="#111111" font-family="Noto Sans KR, sans-serif" font-size="28">모양과</text>
  <text id="slot.q13.text" x="704" y="31" fill="#111111" font-family="Noto Sans KR, sans-serif" font-size="28">크기가</text>
  <text id="slot.q14.text" x="792" y="31" fill="#111111" font-family="Noto Sans KR, sans-serif" font-size="28">같은</text>
  <text id="slot.q15.text" x="850" y="31" fill="#111111" font-family="Noto Sans KR, sans-serif" font-size="28">그릇</text>
  <text id="slot.q16.text" x="10" y="66" fill="#111111" font-family="Noto Sans KR, sans-serif" font-size="28">에</text>
  <text id="slot.q17.text" x="32" y="66" fill="#111111" font-family="Noto Sans KR, sans-serif" font-size="28">옮겨</text>
  <text id="slot.q18.text" x="80" y="66" fill="#111111" font-family="Noto Sans KR, sans-serif" font-size="28">담았습니다. 그림과 같이 물을 채웠을 때에 가 그릇, 나 그릇, 다 그릇 중 들이가 가장 많은 것은 어느 것인지 선택하세요.</text>
  <text id="slot.lb.ga_t.text" x="108" y="112" fill="#111111" font-family="Noto Sans KR, sans-serif" font-size="22">가</text>
  <text id="slot.lb.na_t.text" x="350" y="112" fill="#111111" font-family="Noto Sans KR, sans-serif" font-size="22">나</text>
  <text id="slot.lb.da_t.text" x="587" y="112" fill="#111111" font-family="Noto Sans KR, sans-serif" font-size="22">다</text>
  <text id="slot.mid.text.text" x="295" y="242" fill="#111111" font-family="Noto Sans KR, sans-serif" font-size="28">( 가 그릇, 나 그릇, 다 그릇 )</text>
</svg>
