<?xml version="1.0" encoding="UTF-8"?>
<svg xmlns="http://www.w3.org/2000/svg" width="900" height="760" viewBox="0 0 900 760">
  <metadata><problem_id>S3_초등_3_008727</problem_id></metadata>
  <rect x="0" y="0" width="900" height="760" fill="#FFFFFF" />
  <circle id="slot.opt1.shape.2.circle" cx="170" cy="217" r="52" stroke="#111111" stroke-width="2" fill="none" />
  <circle id="slot.opt1.shape.3.circle" cx="220" cy="217" r="52" stroke="#111111" stroke-width="2" fill="none" />
  <path id="slot.opt2.shape.2.path" d="M 370 317 C 370 237 450 157 530 157" stroke="#111111" stroke-width="2" fill="none" />
  <path id="slot.opt2.shape.3.path" d="M 370 237 C 400 237 430 267 450 317" stroke="#111111" stroke-width="2" fill="none" />
  <path id="slot.opt2.shape.4.path" d="M 450 157 C 450 197 490 237 530 237" stroke="#111111" stroke-width="2" fill="none" />
  <circle id="slot.opt3.shape.2.circle" cx="700" cy="177" r="26" stroke="#111111" stroke-width="2" fill="none" />
  <circle id="slot.opt3.shape.3.circle" cx="700" cy="257" r="26" stroke="#111111" stroke-width="2" fill="none" />
  <circle id="slot.opt3.shape.4.circle" cx="660" cy="217" r="26" stroke="#111111" stroke-width="2" fill="none" />
  <circle id="slot.opt3.shape.5.circle" cx="740" cy="217" r="26" stroke="#111111" stroke-width="2" fill="none" />
  <circle id="slot.opt3.shape.6.circle" cx="700" cy="217" r="16" stroke="#111111" stroke-width="2" fill="none" />
  <circle id="slot.opt4.shape.2.circle" cx="140" cy="450" r="22" stroke="#111111" stroke-width="2" fill="none" />
  <path id="slot.opt4.shape.3.path" d="M 60 390 C 60 420 90 450 140 450" stroke="#111111" stroke-width="2" fill="none" />
  <path id="slot.opt4.shape.4.path" d="M 220 390 C 220 420 190 450 140 450" stroke="#111111" stroke-width="2" fill="none" />
  <path id="slot.opt5.shape.2.path" d="M 355 435 C 380 400 425 400 435 435 C 440 470 480 490 510 460" stroke="#111111" stroke-width="2" fill="none" />
  <text id="slot.qno.text" x="16" y="28" fill="#111111" font-family="Noto Sans KR, sans-serif" font-size="28">□ 33.</text>
  <text id="slot.qtext.text" x="30" y="60" fill="#111111" font-family="Noto Sans KR, sans-serif" font-size="30">원의 중심의 개수가 가장 많은 모양을 고르세요.</text>
  <circle id="slot.opt1.shape.1.circle" cx="120" cy="217" r="52" stroke="#111111" stroke-width="2" fill="none" />
  <rect id="slot.opt2.shape.1.rect" x="370" y="157" width="160" height="160" fill="none" stroke="#111111" stroke-width="1.5" />
  <circle id="slot.opt3.shape.1.circle" cx="700" cy="217" r="26" stroke="#111111" stroke-width="2" fill="none" />
  <rect id="slot.opt4.shape.1.rect" x="60" y="390" width="160" height="130" fill="none" stroke="#111111" stroke-width="1.5" />
  <circle id="slot.opt5.shape.1.circle" cx="430" cy="460" r="78" stroke="#111111" stroke-width="2" fill="none" />
  <text id="slot.opt1.label.text" x="34" y="143" fill="#111111" font-family="Noto Sans KR, sans-serif" font-size="28">①</text>
  <text id="slot.opt2.label.text" x="344" y="143" fill="#111111" font-family="Noto Sans KR, sans-serif" font-size="28">②</text>
  <text id="slot.opt3.label.text" x="654" y="143" fill="#111111" font-family="Noto Sans KR, sans-serif" font-size="28">③</text>
  <text id="slot.opt4.label.text" x="34" y="394" fill="#111111" font-family="Noto Sans KR, sans-serif" font-size="28">④</text>
  <text id="slot.opt5.label.text" x="344" y="394" fill="#111111" font-family="Noto Sans KR, sans-serif" font-size="28">⑤</text>
</svg>
