<?xml version="1.0" encoding="UTF-8"?>
<svg xmlns="http://www.w3.org/2000/svg" width="940" height="620" viewBox="0 0 940 620">
  <metadata><problem_id>S3_초등_3_008705</problem_id></metadata>
  <rect x="0" y="0" width="940" height="620" fill="#FFFFFF" />
  <text id="slot.chk.text" x="12" y="18" fill="#111111" font-family="Noto Sans KR, sans-serif" font-size="28">□</text>
  <text id="slot.qnum.text" x="40" y="18" fill="#111111" font-family="Noto Sans KR, sans-serif" font-size="28">100.</text>
  <text id="slot.qtext1.text" x="95" y="18" fill="#111111" font-family="Noto Sans KR, sans-serif" font-size="28">
    <tspan x="95" dy="0">규칙에 따라 원을 그린 그림입니다. 그린 규칙을 바르게 설명했으면</tspan>
    <tspan x="95" dy="1.2em">○표,</tspan>
  </text>
  <text id="slot.qtext2.text" x="18" y="56" fill="#111111" font-family="Noto Sans KR, sans-serif" font-size="28">그렇지 않으면 ×표를 선택하세요.</text>
  <rect id="slot.grid.box.rect" x="260" y="92" width="430" height="164" fill="none" stroke="#111111" stroke-width="1.5" />
  <circle id="slot.circle1.circle" cx="347" cy="174" r="70" stroke="#111111" stroke-width="2" fill="none" />
  <circle id="slot.circle2.circle" cx="407" cy="174" r="70" stroke="#111111" stroke-width="2" fill="none" />
  <circle id="slot.circle3.circle" cx="467" cy="174" r="70" stroke="#111111" stroke-width="2" fill="none" />
  <circle id="slot.circle4.circle" cx="527" cy="174" r="70" stroke="#111111" stroke-width="2" fill="none" />
  <circle id="slot.center1.circle" cx="347" cy="174" r="3.8" stroke="#111111" stroke-width="2" fill="#ff4aa2" />
  <circle id="slot.center2.circle" cx="407" cy="174" r="3.8" stroke="#111111" stroke-width="2" fill="#ff4aa2" />
  <circle id="slot.center3.circle" cx="467" cy="174" r="3.8" stroke="#111111" stroke-width="2" fill="#ff4aa2" />
  <circle id="slot.center4.circle" cx="527" cy="174" r="3.8" stroke="#111111" stroke-width="2" fill="#ff4aa2" />
  <line id="slot.grid.v1.line" x1="260" y1="92" x2="260" y2="256" stroke="#111111" stroke-width="2" />
  <line id="slot.grid.v2.line" x1="280" y1="92" x2="280" y2="256" stroke="#111111" stroke-width="2" />
  <line id="slot.grid.v3.line" x1="300" y1="92" x2="300" y2="256" stroke="#111111" stroke-width="2" />
  <line id="slot.grid.v4.line" x1="320" y1="92" x2="320" y2="256" stroke="#111111" stroke-width="2" />
  <line id="slot.grid.v5.line" x1="340" y1="92" x2="340" y2="256" stroke="#111111" stroke-width="2" />
  <line id="slot.grid.v6.line" x1="360" y1="92" x2="360" y2="256" stroke="#111111" stroke-width="2" />
  <line id="slot.grid.v7.line" x1="380" y1="92" x2="380" y2="256" stroke="#111111" stroke-width="2" />
  <line id="slot.grid.v8.line" x1="400" y1="92" x2="400" y2="256" stroke="#111111" stroke-width="2" />
  <line id="slot.grid.v9.line" x1="420" y1="92" x2="420" y2="256" stroke="#111111" stroke-width="2" />
  <line id="slot.grid.v10.line" x1="440" y1="92" x2="440" y2="256" stroke="#111111" stroke-width="2" />
  <line id="slot.grid.v11.line" x1="460" y1="92" x2="460" y2="256" stroke="#111111" stroke-width="2" />
  <line id="slot.grid.v12.line" x1="480" y1="92" x2="480" y2="256" stroke="#111111" stroke-width="2" />
  <line id="slot.grid.v13.line" x1="500" y1="92" x2="500" y2="256" stroke="#111111" stroke-width="2" />
  <line id="slot.grid.v14.line" x1="520" y1="92" x2="520" y2="256" stroke="#111111" stroke-width="2" />
  <line id="slot.grid.v15.line" x1="540" y1="92" x2="540" y2="256" stroke="#111111" stroke-width="2" />
  <line id="slot.grid.v16.line" x1="560" y1="92" x2="560" y2="256" stroke="#111111" stroke-width="2" />
  <line id="slot.grid.v17.line" x1="580" y1="92" x2="580" y2="256" stroke="#111111" stroke-width="2" />
  <line id="slot.grid.v18.line" x1="600" y1="92" x2="600" y2="256" stroke="#111111" stroke-width="2" />
  <line id="slot.grid.v19.line" x1="620" y1="92" x2="620" y2="256" stroke="#111111" stroke-width="2" />
  <line id="slot.grid.v20.line" x1="640" y1="92" x2="640" y2="256" stroke="#111111" stroke-width="2" />
  <line id="slot.grid.v21.line" x1="660" y1="92" x2="660" y2="256" stroke="#111111" stroke-width="2" />
  <line id="slot.grid.h1.line" x1="260" y1="92" x2="690" y2="92" stroke="#111111" stroke-width="2" />
  <line id="slot.grid.h2.line" x1="260" y1="112" x2="690" y2="112" stroke="#111111" stroke-width="2" />
  <line id="slot.grid.h3.line" x1="260" y1="132" x2="690" y2="132" stroke="#111111" stroke-width="2" />
  <line id="slot.grid.h4.line" x1="260" y1="152" x2="690" y2="152" stroke="#111111" stroke-width="2" />
  <line id="slot.grid.h5.line" x1="260" y1="172" x2="690" y2="172" stroke="#111111" stroke-width="2" />
  <line id="slot.grid.h6.line" x1="260" y1="192" x2="690" y2="192" stroke="#111111" stroke-width="2" />
  <line id="slot.grid.h7.line" x1="260" y1="212" x2="690" y2="212" stroke="#111111" stroke-width="2" />
  <line id="slot.grid.h8.line" x1="260" y1="232" x2="690" y2="232" stroke="#111111" stroke-width="2" />
  <line id="slot.grid.h9.line" x1="260" y1="252" x2="690" y2="252" stroke="#111111" stroke-width="2" />
  <rect id="slot.bubble.rect" x="190" y="315" width="470" height="105" fill="#d9effb" stroke="#111111" stroke-width="1.5" />
</svg>
