<?xml version="1.0" encoding="UTF-8"?>
<svg xmlns="http://www.w3.org/2000/svg" width="724" height="304" viewBox="0 0 724 304">
  <metadata><problem_id>S3_초등_3_009025</problem_id></metadata>
  <rect x="0" y="0" width="724" height="304" fill="#FFFFFF" />
  <text id="slot.qnum.text" x="22" y="28" fill="#111111" font-family="Noto Sans KR, sans-serif" font-size="28">64.</text>
  <text id="slot.instruction.text" x="92" y="28" fill="#111111" font-family="Noto Sans KR, sans-serif" font-size="28">삼각형을 보고 알맞은 기호를 모두 선택하세요.</text>
  <line id="slot.tri.ga.1.line" x1="170" y1="42" x2="150" y2="112" stroke="#111111" stroke-width="2" />
  <line id="slot.tri.ga.2.line" x1="170" y1="42" x2="205" y2="112" stroke="#111111" stroke-width="2" />
  <line id="slot.tri.ga.3.line" x1="150" y1="112" x2="205" y2="112" stroke="#111111" stroke-width="2" />
  <line id="slot.tri.na.1.line" x1="320" y1="48" x2="320" y2="112" stroke="#111111" stroke-width="2" />
  <line id="slot.tri.na.2.line" x1="320" y1="48" x2="388" y2="112" stroke="#111111" stroke-width="2" />
  <line id="slot.tri.na.3.line" x1="320" y1="112" x2="388" y2="112" stroke="#111111" stroke-width="2" />
  <line id="slot.tri.da.1.line" x1="492" y1="106" x2="583" y2="54" stroke="#111111" stroke-width="2" />
  <line id="slot.tri.da.2.line" x1="492" y1="106" x2="544" y2="106" stroke="#111111" stroke-width="2" />
  <line id="slot.tri.da.3.line" x1="544" y1="106" x2="583" y2="54" stroke="#111111" stroke-width="2" />
  <line id="slot.tri.ra.1.line" x1="648" y1="44" x2="690" y2="44" stroke="#111111" stroke-width="2" />
  <line id="slot.tri.ra.2.line" x1="690" y1="44" x2="690" y2="112" stroke="#111111" stroke-width="2" />
  <line id="slot.tri.ra.3.line" x1="648" y1="44" x2="690" y2="112" stroke="#111111" stroke-width="2" />
  <text id="slot.lb.ga.text" x="112" y="62" fill="#111111" font-family="Noto Sans KR, sans-serif" font-size="28">가</text>
  <text id="slot.lb.na.text" x="278" y="62" fill="#111111" font-family="Noto Sans KR, sans-serif" font-size="28">나</text>
  <text id="slot.lb.da.text" x="444" y="62" fill="#111111" font-family="Noto Sans KR, sans-serif" font-size="28">다</text>
  <text id="slot.lb.ra.text" x="605" y="62" fill="#111111" font-family="Noto Sans KR, sans-serif" font-size="28">라</text>
  <text id="slot.choice_main.text" x="18" y="164" fill="#111111" font-family="Noto Sans KR, sans-serif" font-size="28">(1) 직각이 있는 삼각형은 ( 가, 나, 다, 라 )입니다.</text>
  <text id="slot.choice_bottom_1.text" x="8" y="210" fill="#111111" font-family="Noto Sans KR, sans-serif" font-size="24">(1) 직각이 있는 삼각형은 나, 라입니다.</text>
  <text id="slot.choice_bottom_2.text" x="8" y="248" fill="#111111" font-family="Noto Sans KR, sans-serif" font-size="24">(1) 나, 라</text>
</svg>
