<?xml version="1.0" encoding="UTF-8"?>
<svg xmlns="http://www.w3.org/2000/svg" width="940" height="596" viewBox="0 0 940 596">
  <metadata><problem_id>S3_초등_3_008757</problem_id></metadata>
  <rect x="0" y="0" width="940" height="596" fill="#FFFFFF" />
  <text id="slot.top.qmark.text" x="9" y="26" fill="#111111" font-family="Noto Sans KR, sans-serif" font-size="28">□</text>
  <text id="slot.top.text.text" x="38" y="31" fill="#111111" font-family="Noto Sans KR, sans-serif" font-size="28">54. 500 mL 생수병을 보고 들이를 어림해 보려고 합니다. 알맞은 것을 선택하세요.</text>
  <rect id="slot.bottle.water.body.rect" x="352" y="122" width="56" height="103" fill="#ffffff" stroke="#3aa6df" stroke-width="2" rx="10" ry="10" />
  <rect id="slot.bottle.water.cap.rect" x="368" y="106" width="24" height="18" fill="#5fc0e8" stroke="#3aa6df" stroke-width="2" rx="4" ry="4" />
  <rect id="slot.bottle.soy.body.rect" x="580" y="104" width="64" height="127" fill="#7b4a26" stroke="#7b4a26" stroke-width="2" rx="18" ry="18" />
  <rect id="slot.bottle.soy.cap1.rect" x="598" y="74" width="28" height="18" fill="#f07b5c" stroke="#f07b5c" stroke-width="2" rx="4" ry="4" />
  <rect id="slot.bottle.soy.cap2.rect" x="600" y="60" width="24" height="16" fill="#f59a73" stroke="#f59a73" stroke-width="2" rx="4" ry="4" />
  <rect id="slot.bottle.soy.label.rect" x="584" y="165" width="56" height="44" fill="#f2efe7" stroke="#f2efe7" stroke-width="1" rx="4" ry="4" />
  <line id="slot.bottle.water.neck.line" x1="375" y1="124" x2="375" y2="146" stroke="#3aa6df" stroke-width="2" />
  <line id="slot.bottle.water.rings1.line" x1="353" y1="136" x2="407" y2="136" stroke="#3aa6df" stroke-width="1.4" />
  <line id="slot.bottle.water.rings2.line" x1="353" y1="145" x2="407" y2="145" stroke="#3aa6df" stroke-width="1.4" />
  <line id="slot.bottle.water.rings3.line" x1="353" y1="154" x2="407" y2="154" stroke="#3aa6df" stroke-width="1.4" />
  <line id="slot.bottle.water.rings4.line" x1="353" y1="163" x2="407" y2="163" stroke="#3aa6df" stroke-width="1.4" />
  <line id="slot.bottle.water.rings5.line" x1="353" y1="172" x2="407" y2="172" stroke="#3aa6df" stroke-width="1.4" />
  <line id="slot.bottle.soy.handle.line" x1="635" y1="85" x2="635" y2="142" stroke="#ce4c3a" stroke-width="6" />
  <line id="slot.bottle.soy.spout.line" x1="613" y1="92" x2="622" y2="92" stroke="#ce4c3a" stroke-width="4" />
  <line id="slot.bottle.soy.base.line" x1="591" y1="231" x2="633" y2="231" stroke="#7b4a26" stroke-width="2" />
  <text id="slot.bottle.water.label.text" x="0" y="0" fill="#111111" font-family="Noto Sans KR, sans-serif" font-size="28"></text>
  <text id="slot.diag.water_name.text" x="352" y="271" fill="#111111" font-family="Noto Sans KR, sans-serif" font-size="28">생수병</text>
  <text id="slot.diag.water_volume.text" x="339" y="313" fill="#111111" font-family="Noto Sans KR, sans-serif" font-size="28">500 mL</text>
  <text id="slot.diag.soy_name.text" x="584" y="271" fill="#111111" font-family="Noto Sans KR, sans-serif" font-size="28">간장병</text>
  <text id="slot.choice1.text.text" x="68" y="401" fill="#111111" font-family="Noto Sans KR, sans-serif" font-size="28">간장병의 들이는 500 mL 생수병의 들이보다 ( 많습니다 , 적습니다 ).</text>
  <text id="slot.choice2.arrow.text" x="214" y="445" fill="#111111" font-family="Noto Sans KR, sans-serif" font-size="28">→</text>
  <text id="slot.choice2.text.text" x="246" y="442" fill="#111111" font-family="Noto Sans KR, sans-serif" font-size="28">간장병의 들이는 약 ( 2 mL , 2 L )입니다.</text>
</svg>
