<?xml version="1.0" encoding="UTF-8"?>
<svg xmlns="http://www.w3.org/2000/svg" width="960" height="480" viewBox="0 0 960 480">
  <metadata><problem_id>S3_초등_3_008750</problem_id></metadata>
  <rect x="0" y="0" width="960" height="480" fill="#FFFFFF" />
  <text id="slot.q1.text" x="14" y="28" fill="#111111" font-family="Noto Sans KR, sans-serif" font-size="28">47. ㉠ 병과 ㉡ 병에 물을 가득 채운 후 높이와 크기가 같은 그릇에 옮겨 담았</text>
  <text id="slot.q2.text" x="14" y="66" fill="#111111" font-family="Noto Sans KR, sans-serif" font-size="28">습니다. 그림과 같이 물을 채웠을 때에 들이가 더 적은 병을 선택해 보세</text>
  <text id="slot.q3.text" x="14" y="104" fill="#111111" font-family="Noto Sans KR, sans-serif" font-size="28">요.</text>
  <rect id="slot.bottle.left.body.rect" x="240" y="161" width="42" height="89" fill="#F7C9D5" stroke="#E59AB0" stroke-width="2" />
  <rect id="slot.bottle.left.neck.rect" x="251.5" y="149" width="19" height="16" fill="#F7C9D5" stroke="#E59AB0" stroke-width="2" />
  <circle id="slot.bottle.left.cap.circle" cx="261" cy="148" r="9" stroke="#D79AAF" stroke-width="2" fill="#FFFFFF" />
  <rect id="slot.bottle.left.label.rect" x="248" y="188" width="26" height="34" fill="#FFF3D9" stroke="#C9B89A" stroke-width="1.2" />
  <rect id="slot.cup.left.body.rect" x="344" y="145" width="74" height="110" fill="#FFFFFF" stroke="#8A9CC9" stroke-width="2" />
  <rect id="slot.cup.left.water.rect" x="347.5" y="199" width="69" height="50" fill="#56B6E8" stroke="#56B6E8" stroke-width="1" />
  <rect id="slot.bottle.right.body.rect" x="541" y="151" width="43" height="99" fill="#DDF0A6" stroke="#9BC44D" stroke-width="2" />
  <rect id="slot.bottle.right.neck.rect" x="552.5" y="138" width="20" height="18" fill="#DDF0A6" stroke="#9BC44D" stroke-width="2" />
  <circle id="slot.bottle.right.cap.circle" cx="562.5" cy="137" r="9" stroke="#8BB44A" stroke-width="2" fill="#FFFFFF" />
  <rect id="slot.bottle.right.label.rect" x="549" y="181" width="27" height="35" fill="#FFF5D8" stroke="#C9B89A" stroke-width="1.2" />
  <rect id="slot.cup.right.body.rect" x="642" y="145" width="74" height="110" fill="#FFFFFF" stroke="#8A9CC9" stroke-width="2" />
  <rect id="slot.cup.right.water.rect" x="645.5" y="183" width="69" height="66" fill="#56B6E8" stroke="#56B6E8" stroke-width="1" />
  <line id="slot.arrow.left.line" x1="293" y1="204" x2="331" y2="204" stroke="#9AA0A6" stroke-width="4" />
  <line id="slot.cup.left.rim.line" x1="349" y1="157" x2="416" y2="157" stroke="#8A9CC9" stroke-width="2" />
  <line id="slot.arrow.right.line" x1="595" y1="204" x2="632" y2="204" stroke="#9AA0A6" stroke-width="4" />
  <line id="slot.cup.right.rim.line" x1="647" y1="157" x2="714" y2="157" stroke="#8A9CC9" stroke-width="2" />
  <text id="slot.label.ga.text" x="252.5" y="212" fill="#111111" font-family="Noto Sans KR, sans-serif" font-size="20">가</text>
  <text id="slot.label.na.text" x="553.5" y="205" fill="#111111" font-family="Noto Sans KR, sans-serif" font-size="20">나</text>
  <text id="slot.choice.text" x="752" y="330" fill="#111111" font-family="Noto Sans KR, sans-serif" font-size="28">( 가 병 , 나 병 )</text>
</svg>
