<?xml version="1.0" encoding="UTF-8"?>
<svg xmlns="http://www.w3.org/2000/svg" width="960" height="420" viewBox="0 0 960 420">
  <metadata><problem_id>S3_초등_3_008749</problem_id></metadata>
  <rect x="0" y="0" width="960" height="420" fill="#FFFFFF" />
  <text id="slot.qno.text" x="14" y="30" fill="#111111" font-family="Noto Sans KR, sans-serif" font-size="28">□ 46.</text>
  <text id="slot.question.1.text" x="88" y="30" fill="#111111" font-family="Noto Sans KR, sans-serif" font-size="28">주전자에 물을 가득 채운 후 그릇에 옮겨 담았습니다. 그림과 같이 물을</text>
  <text id="slot.question.2.text" x="88" y="67" fill="#111111" font-family="Noto Sans KR, sans-serif" font-size="28">채웠을 때에 주전자와 그릇 중 들이가 더 많은 것은 어느 것인가요?</text>
  <polygon id="slot.left.pot.polygon" points="285,95 340,125 325,175 270,145" stroke="#111111" stroke-width="2" fill="none" />
  <rect id="slot.left.cup.rect" x="355" y="110" width="44" height="70" fill="#ffffff" stroke="#111111" stroke-width="1.5" />
  <path id="slot.left.water.pot.path" d="M 290 110 C 300 100, 325 100, 338 115 L 331 150 C 314 160, 296 154, 281 144 Z" stroke="#111111" stroke-width="2" fill="none" />
  <path id="slot.left.water.cup.path" d="M 359 140 L 396 140 L 396 176 L 359 176 Z" stroke="#111111" stroke-width="2" fill="none" />
  <path id="slot.left.stream.path" d="M 336 117 C 350 120, 360 130, 368 143 C 374 153, 381 160, 387 166" stroke="#111111" stroke-width="2" fill="none" />
  <text id="slot.left.label.pot.text" x="272" y="220" fill="#111111" font-family="Noto Sans KR, sans-serif" font-size="28">주전자</text>
  <text id="slot.left.label.cup.text" x="349" y="248" fill="#111111" font-family="Noto Sans KR, sans-serif" font-size="28">그릇</text>
  <text id="slot.arrow.text" x="470" y="165" fill="#111111" font-family="Noto Sans KR, sans-serif" font-size="42">→</text>
  <polygon id="slot.right.pot.polygon" points="560,140 620,140 615,190 555,190" stroke="#111111" stroke-width="2" fill="none" />
  <rect id="slot.right.container.rect" x="650" y="145" width="40" height="95" fill="#ffffff" stroke="#111111" stroke-width="1.5" />
  <path id="slot.right.water.pot.path" d="M 560 173 C 565 160, 615 160, 618 175 L 616 191 L 558 191 Z" stroke="#111111" stroke-width="2" fill="none" />
  <text id="slot.right.label.pot.text" x="545" y="245" fill="#111111" font-family="Noto Sans KR, sans-serif" font-size="28">주전자</text>
  <text id="slot.right.label.container.text" x="648" y="245" fill="#111111" font-family="Noto Sans KR, sans-serif" font-size="28">그릇</text>
  <text id="slot.choice.text" x="738" y="304" fill="#111111" font-family="Noto Sans KR, sans-serif" font-size="28">( 주전자 , 그릇 )</text>
</svg>
