<?xml version="1.0" encoding="UTF-8"?>
<svg xmlns="http://www.w3.org/2000/svg" width="948" height="460" viewBox="0 0 948 460">
  <metadata><problem_id>S3_초등_3_008870</problem_id></metadata>
  <rect x="0" y="0" width="948" height="460" fill="#FFFFFF" />
  <text id="slot.q1.text" x="12" y="30" fill="#111111" font-family="Noto Sans KR, sans-serif" font-size="28">23. 물병에 물을 가득 채운 후 그릇에 모두 부었더니 다음 그림과 같았습니다. 물병과 그릇 중 들이가 더 적은 것을 선택하세요.</text>
  <text id="slot.q2.text" x="12" y="62" fill="#111111" font-family="Noto Sans KR, sans-serif" font-size="28"></text>
  <rect id="slot.pic.bottle_body.rect" x="406" y="92" width="112" height="34" fill="none" stroke="#8EC6E8" stroke-width="2" rx="10" ry="10" />
  <circle id="slot.pic.bottle_open.circle" cx="517.5" cy="116.5" r="14" stroke="#A7B0B8" stroke-width="2" fill="none" />
  <path id="slot.pic.bottle_water.path" d="M 418 94 C 421 101, 423 105, 430 110 L 506 110 C 506 110, 505 104, 503 96 Z" stroke="none" stroke-width="2" fill="#EAF6FF" />
  <rect id="slot.pic.bowl_outer.rect" x="476" y="180" width="148" height="74" fill="none" stroke="#8EC6E8" stroke-width="2" rx="10" ry="10" />
  <circle id="slot.pic.bowl_inner.circle" cx="550" cy="180" r="74" stroke="#8EC6E8" stroke-width="2" fill="none" />
  <path id="slot.pic.bowl_water.path" d="M 490 218 C 515 210, 590 210, 610 218 L 610 252 L 490 252 Z" stroke="none" stroke-width="2" fill="#4DA8E0" />
  <line id="slot.pic.bottle_top.line" x1="444" y1="90" x2="516" y2="116" stroke="#8EC6E8" stroke-width="2" />
  <line id="slot.pic.bottle_handle.line" x1="475" y1="92" x2="499" y2="102" stroke="#F36B6B" stroke-width="4" />
  <text id="slot.pic.bottle_label.text" x="406" y="144" fill="#111111" font-family="Noto Sans KR, sans-serif" font-size="20">물병</text>
  <text id="slot.pic.bowl_label.text" x="526" y="286" fill="#111111" font-family="Noto Sans KR, sans-serif" font-size="20">그릇</text>
  <text id="slot.pic.option.text" x="406" y="330" fill="#111111" font-family="Noto Sans KR, sans-serif" font-size="28">( 물병 , 그릇 )</text>
</svg>
