<?xml version="1.0" encoding="UTF-8"?>
<svg xmlns="http://www.w3.org/2000/svg" width="928" height="1049" viewBox="0 0 928 1049">
  <metadata><problem_id>S3_초등_3_008731</problem_id></metadata>
  <rect x="0" y="0" width="928" height="1049" fill="#FFFFFF" />
  <rect id="slot.diagram.top.box1.rect" x="453" y="96" width="79" height="100" fill="#ffffff" stroke="#111111" stroke-width="1.5" />
  <rect id="slot.diagram.top.box2.rect" x="340" y="260" width="78" height="100" fill="#ffffff" stroke="#111111" stroke-width="1.5" />
  <rect id="slot.diagram.top.box3.rect" x="561" y="260" width="80" height="100" fill="#ffffff" stroke="#111111" stroke-width="1.5" />
  <rect id="slot.diagram.top.box4.rect" x="282" y="388" width="79" height="97" fill="#ffffff" stroke="#111111" stroke-width="1.5" />
  <rect id="slot.diagram.top.box5.rect" x="378" y="388" width="79" height="97" fill="#ffffff" stroke="#111111" stroke-width="1.5" />
  <rect id="slot.diagram.bottom.box1.rect" x="181" y="650" width="67" height="73" fill="#ffffff" stroke="#111111" stroke-width="1.5" />
  <rect id="slot.diagram.bottom.box2.rect" x="80" y="746" width="69" height="71" fill="#ffffff" stroke="#111111" stroke-width="1.5" />
  <rect id="slot.diagram.bottom.box3.rect" x="254" y="746" width="69" height="71" fill="#ffffff" stroke="#111111" stroke-width="1.5" />
  <rect id="slot.diagram.bottom.box4.rect" x="28" y="844" width="69" height="70" fill="#ffffff" stroke="#111111" stroke-width="1.5" />
  <rect id="slot.diagram.bottom.box5.rect" x="123" y="844" width="69" height="70" fill="#ffffff" stroke="#111111" stroke-width="1.5" />
  <rect id="slot.diagram.bottom.box6.rect" x="255" y="844" width="69" height="70" fill="#ffffff" stroke="#111111" stroke-width="1.5" />
  <rect id="slot.diagram.bottom.box7.rect" x="349" y="844" width="69" height="70" fill="#ffffff" stroke="#111111" stroke-width="1.5" />
  <rect id="slot.diagram.top.box6.rect" x="509" y="388" width="79" height="97" fill="#ffffff" stroke="#111111" stroke-width="1.5" />
  <rect id="slot.diagram.top.box7.rect" x="604" y="388" width="79" height="97" fill="#ffffff" stroke="#111111" stroke-width="1.5" />
  <line id="slot.diagram.top.line1.line" x1="492.5" y1="196" x2="492.5" y2="236" stroke="#111111" stroke-width="2" />
  <line id="slot.diagram.top.line2.line" x1="359" y1="236" x2="626" y2="236" stroke="#111111" stroke-width="2" />
  <line id="slot.diagram.top.line3.line" x1="359" y1="236" x2="359" y2="260" stroke="#111111" stroke-width="2" />
  <line id="slot.diagram.top.line4.line" x1="626" y1="236" x2="626" y2="260" stroke="#111111" stroke-width="2" />
  <line id="slot.diagram.top.line5.line" x1="319" y1="360" x2="319" y2="388" stroke="#111111" stroke-width="2" />
  <line id="slot.diagram.top.line6.line" x1="414" y1="360" x2="414" y2="388" stroke="#111111" stroke-width="2" />
  <line id="slot.diagram.top.line7.line" x1="600" y1="360" x2="600" y2="388" stroke="#111111" stroke-width="2" />
  <line id="slot.diagram.top.line8.line" x1="665" y1="360" x2="665" y2="388" stroke="#111111" stroke-width="2" />
  <line id="slot.diagram.bottom.line1.line" x1="214.5" y1="723" x2="214.5" y2="746" stroke="#111111" stroke-width="2" />
  <line id="slot.diagram.bottom.line2.line" x1="114" y1="736" x2="294" y2="736" stroke="#111111" stroke-width="2" />
  <line id="slot.diagram.bottom.line3.line" x1="114" y1="736" x2="114" y2="746" stroke="#111111" stroke-width="2" />
  <line id="slot.diagram.bottom.line4.line" x1="294" y1="736" x2="294" y2="746" stroke="#111111" stroke-width="2" />
  <line id="slot.diagram.bottom.line5.line" x1="62.5" y1="816" x2="62.5" y2="844" stroke="#111111" stroke-width="2" />
  <line id="slot.diagram.bottom.line6.line" x1="158.5" y1="816" x2="158.5" y2="844" stroke="#111111" stroke-width="2" />
  <line id="slot.diagram.bottom.line7.line" x1="289.5" y1="816" x2="289.5" y2="844" stroke="#111111" stroke-width="2" />
  <line id="slot.diagram.bottom.line8.line" x1="383.5" y1="816" x2="383.5" y2="844" stroke="#111111" stroke-width="2" />
  <text id="slot.q1.text" x="16" y="40" fill="#111111" font-family="Noto Sans KR, sans-serif" font-size="28">50. 두 분수의 크기를 비교하여 더 큰 분수를 빈칸에 써넣으려고 합니다. ㉠에 들어갈 분수로 알맞은 것을 선택해 보세요.</text>
  <text id="slot.diagram.top.box1.text.text" x="480" y="150" fill="#111111" font-family="Noto Sans KR, sans-serif" font-size="28">㉠</text>
  <text id="slot.diagram.top.box4.text.text" x="302" y="440" fill="#111111" font-family="Noto Sans KR, sans-serif" font-size="28">15/7</text>
  <text id="slot.diagram.top.box5.text.text" x="398" y="440" fill="#111111" font-family="Noto Sans KR, sans-serif" font-size="28">22/7</text>
  <text id="slot.diagram.top.box6.text.text" x="520" y="440" fill="#111111" font-family="Noto Sans KR, sans-serif" font-size="28">2 3/7</text>
  <text id="slot.diagram.top.box7.text.text" x="615" y="440" fill="#111111" font-family="Noto Sans KR, sans-serif" font-size="28">2 6/7</text>
  <text id="slot.diagram.bottom.box1.text.text" x="204" y="692" fill="#111111" font-family="Noto Sans KR, sans-serif" font-size="28">㉠</text>
  <text id="slot.diagram.bottom.box2.text.text" x="92" y="786" fill="#111111" font-family="Noto Sans KR, sans-serif" font-size="28">22/7</text>
  <text id="slot.diagram.bottom.box3.text.text" x="263" y="786" fill="#111111" font-family="Noto Sans KR, sans-serif" font-size="28">2 6/7</text>
  <text id="slot.diagram.bottom.box4.text.text" x="40" y="883" fill="#111111" font-family="Noto Sans KR, sans-serif" font-size="28">15/7</text>
  <text id="slot.diagram.bottom.box5.text.text" x="135" y="883" fill="#111111" font-family="Noto Sans KR, sans-serif" font-size="28">22/7</text>
  <text id="slot.diagram.bottom.box6.text.text" x="263" y="883" fill="#111111" font-family="Noto Sans KR, sans-serif" font-size="28">2 3/7</text>
  <text id="slot.diagram.bottom.box7.text.text" x="357" y="883" fill="#111111" font-family="Noto Sans KR, sans-serif" font-size="28">2 6/7</text>
</svg>
