<?xml version="1.0" encoding="UTF-8"?>
<svg xmlns="http://www.w3.org/2000/svg" width="940" height="408" viewBox="0 0 940 408">
  <metadata><problem_id>S3_초등_3_008817</problem_id></metadata>
  <rect x="0" y="0" width="940" height="408" fill="#FFFFFF" />
  <text id="slot.q1.text" x="44" y="34" fill="#111111" font-family="Noto Sans KR, sans-serif" font-size="28">50.</text>
  <text id="slot.q2.text" x="86" y="34" fill="#111111" font-family="Noto Sans KR, sans-serif" font-size="28">가 그릇과 나 그릇에 물을 가득 채운 후 모양과 크기가 같은 그릇에 옮겨 담았더니 그림과 같이 물이 채워졌습니다. 들이가 더 많은 그릇을 선택해 보세요.</text>
  <text id="slot.q3.text" x="734" y="300" fill="#111111" font-family="Noto Sans KR, sans-serif" font-size="28">( 가, 나 ) 그릇</text>
  <text id="slot.q4.text" x="0" y="0" fill="#111111" font-family="Noto Sans KR, sans-serif" font-size="28"></text>
  <rect id="slot.bowl.left.outer.rect" x="294" y="120" width="134" height="122" fill="#ffffff" stroke="#111111" stroke-width="1.5" />
  <rect id="slot.bowl.left.water.rect" x="296" y="178" width="130" height="62" fill="#ffffff" stroke="#111111" stroke-width="1.5" />
  <rect id="slot.bowl.right.outer.rect" x="556" y="120" width="134" height="122" fill="#ffffff" stroke="#111111" stroke-width="1.5" />
  <rect id="slot.bowl.right.water.rect" x="558" y="162" width="130" height="78" fill="#ffffff" stroke="#111111" stroke-width="1.5" />
  <circle id="slot.label.ga.circle.circle" cx="262" cy="122" r="12" stroke="#111111" stroke-width="2" fill="#ffffff" />
  <circle id="slot.label.na.circle.circle" cx="523" cy="122" r="12" stroke="#111111" stroke-width="2" fill="#ffffff" />
  <line id="slot.bowl.left.line1.line" x1="294" y1="120" x2="321" y2="98" stroke="#111111" stroke-width="2" />
  <line id="slot.bowl.left.line2.line" x1="428" y1="120" x2="455" y2="98" stroke="#111111" stroke-width="2" />
  <line id="slot.bowl.left.line3.line" x1="428" y1="242" x2="455" y2="220" stroke="#111111" stroke-width="2" />
  <line id="slot.bowl.left.line4.line" x1="294" y1="120" x2="428" y2="120" stroke="#111111" stroke-width="2" />
  <line id="slot.bowl.left.line5.line" x1="294" y1="242" x2="428" y2="242" stroke="#111111" stroke-width="2" />
  <line id="slot.bowl.right.line1.line" x1="556" y1="120" x2="583" y2="98" stroke="#111111" stroke-width="2" />
  <line id="slot.bowl.right.line2.line" x1="690" y1="120" x2="717" y2="98" stroke="#111111" stroke-width="2" />
  <line id="slot.bowl.right.line3.line" x1="690" y1="242" x2="717" y2="220" stroke="#111111" stroke-width="2" />
  <line id="slot.bowl.right.line4.line" x1="556" y1="120" x2="690" y2="120" stroke="#111111" stroke-width="2" />
  <line id="slot.bowl.right.line5.line" x1="556" y1="242" x2="690" y2="242" stroke="#111111" stroke-width="2" />
  <text id="slot.label.ga.text.text" x="258" y="127" fill="#111111" font-family="Noto Sans KR, sans-serif" font-size="20">가</text>
  <text id="slot.label.na.text.text" x="519" y="127" fill="#111111" font-family="Noto Sans KR, sans-serif" font-size="20">나</text>
  <text id="slot.choice.text.text" x="0" y="0" fill="#111111" font-family="Noto Sans KR, sans-serif" font-size="28"></text>
</svg>
