<?xml version="1.0" encoding="UTF-8"?>
<svg xmlns="http://www.w3.org/2000/svg" width="670" height="420" viewBox="0 0 670 420">
  <metadata><problem_id>S3_초등_3_009058</problem_id></metadata>
  <rect x="0" y="0" width="670" height="420" fill="#FFFFFF" />
  <text id="slot.qnum.text" x="18" y="20" fill="#111111" font-family="Noto Sans KR, sans-serif" font-size="28">96.</text>
  <text id="slot.qtext.text" x="48" y="20" fill="#111111" font-family="Noto Sans KR, sans-serif" font-size="28">직각삼각형을 모두 선택하세요.</text>
  <rect id="slot.grid.top.bg.rect" x="200" y="36" width="448" height="96" fill="none" stroke="#BFE8FF" stroke-width="1.2" />
  <line id="slot.grid.top.v1.line" x1="220" y1="36" x2="220" y2="132" stroke="#9AA0A6" stroke-width="1.2" stroke-dasharray="5 3" />
  <line id="slot.grid.top.v2.line" x1="240" y1="36" x2="240" y2="132" stroke="#9AA0A6" stroke-width="1.2" stroke-dasharray="5 3" />
  <line id="slot.grid.top.v3.line" x1="260" y1="36" x2="260" y2="132" stroke="#9AA0A6" stroke-width="1.2" stroke-dasharray="5 3" />
  <line id="slot.grid.top.v4.line" x1="280" y1="36" x2="280" y2="132" stroke="#9AA0A6" stroke-width="1.2" stroke-dasharray="5 3" />
  <line id="slot.grid.top.v5.line" x1="300" y1="36" x2="300" y2="132" stroke="#9AA0A6" stroke-width="1.2" stroke-dasharray="5 3" />
  <line id="slot.grid.top.v6.line" x1="320" y1="36" x2="320" y2="132" stroke="#9AA0A6" stroke-width="1.2" stroke-dasharray="5 3" />
  <line id="slot.grid.top.v7.line" x1="340" y1="36" x2="340" y2="132" stroke="#9AA0A6" stroke-width="1.2" stroke-dasharray="5 3" />
  <line id="slot.grid.top.v8.line" x1="360" y1="36" x2="360" y2="132" stroke="#9AA0A6" stroke-width="1.2" stroke-dasharray="5 3" />
  <line id="slot.grid.top.v9.line" x1="380" y1="36" x2="380" y2="132" stroke="#9AA0A6" stroke-width="1.2" stroke-dasharray="5 3" />
  <line id="slot.grid.top.v10.line" x1="400" y1="36" x2="400" y2="132" stroke="#9AA0A6" stroke-width="1.2" stroke-dasharray="5 3" />
  <line id="slot.grid.top.v11.line" x1="420" y1="36" x2="420" y2="132" stroke="#9AA0A6" stroke-width="1.2" stroke-dasharray="5 3" />
  <line id="slot.grid.top.v12.line" x1="440" y1="36" x2="440" y2="132" stroke="#9AA0A6" stroke-width="1.2" stroke-dasharray="5 3" />
  <line id="slot.grid.top.v13.line" x1="460" y1="36" x2="460" y2="132" stroke="#9AA0A6" stroke-width="1.2" stroke-dasharray="5 3" />
  <line id="slot.grid.top.v14.line" x1="480" y1="36" x2="480" y2="132" stroke="#9AA0A6" stroke-width="1.2" stroke-dasharray="5 3" />
  <line id="slot.grid.top.v15.line" x1="500" y1="36" x2="500" y2="132" stroke="#9AA0A6" stroke-width="1.2" stroke-dasharray="5 3" />
  <line id="slot.grid.top.v16.line" x1="520" y1="36" x2="520" y2="132" stroke="#9AA0A6" stroke-width="1.2" stroke-dasharray="5 3" />
  <line id="slot.grid.top.v17.line" x1="540" y1="36" x2="540" y2="132" stroke="#9AA0A6" stroke-width="1.2" stroke-dasharray="5 3" />
  <line id="slot.grid.top.v18.line" x1="560" y1="36" x2="560" y2="132" stroke="#9AA0A6" stroke-width="1.2" stroke-dasharray="5 3" />
  <line id="slot.grid.top.v19.line" x1="580" y1="36" x2="580" y2="132" stroke="#9AA0A6" stroke-width="1.2" stroke-dasharray="5 3" />
  <line id="slot.grid.top.h1.line" x1="200" y1="48" x2="648" y2="48" stroke="#9AA0A6" stroke-width="1.2" stroke-dasharray="5 3" />
  <line id="slot.grid.top.h2.line" x1="200" y1="60" x2="648" y2="60" stroke="#9AA0A6" stroke-width="1.2" stroke-dasharray="5 3" />
  <line id="slot.grid.top.h3.line" x1="200" y1="72" x2="648" y2="72" stroke="#9AA0A6" stroke-width="1.2" stroke-dasharray="5 3" />
  <line id="slot.grid.top.h4.line" x1="200" y1="84" x2="648" y2="84" stroke="#9AA0A6" stroke-width="1.2" stroke-dasharray="5 3" />
  <line id="slot.grid.top.h5.line" x1="200" y1="96" x2="648" y2="96" stroke="#9AA0A6" stroke-width="1.2" stroke-dasharray="5 3" />
  <line id="slot.grid.top.h6.line" x1="200" y1="108" x2="648" y2="108" stroke="#9AA0A6" stroke-width="1.2" stroke-dasharray="5 3" />
  <line id="slot.grid.top.h7.line" x1="200" y1="120" x2="648" y2="120" stroke="#9AA0A6" stroke-width="1.2" stroke-dasharray="5 3" />
  <polygon id="slot.shape.가.polygon" points="225,60 213,104 237,104" stroke="#333333" stroke-width="1.5" fill="none" />
  <polygon id="slot.shape.나.polygon" points="280,104 330,60 330,104" stroke="#333333" stroke-width="1.5" fill="none" />
  <polygon id="slot.shape.다.polygon" points="355,104 395,60 375,104" stroke="#333333" stroke-width="1.5" fill="none" />
  <polygon id="slot.shape.라.polygon" points="420,104 420,60 480,60" stroke="#333333" stroke-width="1.5" fill="none" />
  <polygon id="slot.shape.마.polygon" points="535,104 535,60 590,82" stroke="#333333" stroke-width="1.5" fill="none" />
  <rect id="slot.right.나.rect" x="323" y="94" width="8" height="8" fill="none" stroke="#333333" stroke-width="1.2" />
  <rect id="slot.right.라.rect" x="427" y="64" width="8" height="8" fill="none" stroke="#333333" stroke-width="1.2" />
  <text id="slot.label.가.text" x="222" y="88" fill="#111111" font-family="Noto Sans KR, sans-serif" font-size="28">가</text>
  <text id="slot.label.나.text" x="312" y="90" fill="#111111" font-family="Noto Sans KR, sans-serif" font-size="28">나</text>
  <text id="slot.label.다.text" x="364" y="98" fill="#111111" font-family="Noto Sans KR, sans-serif" font-size="28">다</text>
  <text id="slot.label.라.text" x="432" y="74" fill="#111111" font-family="Noto Sans KR, sans-serif" font-size="28">라</text>
  <text id="slot.label.마.text" x="565" y="80" fill="#111111" font-family="Noto Sans KR, sans-serif" font-size="28">마</text>
  <text id="slot.choice.text" x="250" y="158" fill="#111111" font-family="Noto Sans KR, sans-serif" font-size="28">( 가 , 나 , 다 , 라 , 마 )</text>
  <rect id="slot.grid.bottom.bg.rect" x="200" y="282" width="448" height="96" fill="none" stroke="#BFE8FF" stroke-width="1.2" />
  <line id="slot.grid.bottom.v1.line" x1="220" y1="282" x2="220" y2="378" stroke="#9AA0A6" stroke-width="1.2" stroke-dasharray="5 3" />
  <line id="slot.grid.bottom.v2.line" x1="240" y1="282" x2="240" y2="378" stroke="#9AA0A6" stroke-width="1.2" stroke-dasharray="5 3" />
  <line id="slot.grid.bottom.v3.line" x1="260" y1="282" x2="260" y2="378" stroke="#9AA0A6" stroke-width="1.2" stroke-dasharray="5 3" />
  <line id="slot.grid.bottom.v4.line" x1="280" y1="282" x2="280" y2="378" stroke="#9AA0A6" stroke-width="1.2" stroke-dasharray="5 3" />
  <line id="slot.grid.bottom.v5.line" x1="300" y1="282" x2="300" y2="378" stroke="#9AA0A6" stroke-width="1.2" stroke-dasharray="5 3" />
  <line id="slot.grid.bottom.v6.line" x1="320" y1="282" x2="320" y2="378" stroke="#9AA0A6" stroke-width="1.2" stroke-dasharray="5 3" />
  <line id="slot.grid.bottom.v7.line" x1="340" y1="282" x2="340" y2="378" stroke="#9AA0A6" stroke-width="1.2" stroke-dasharray="5 3" />
  <line id="slot.grid.bottom.v8.line" x1="360" y1="282" x2="360" y2="378" stroke="#9AA0A6" stroke-width="1.2" stroke-dasharray="5 3" />
  <line id="slot.grid.bottom.v9.line" x1="380" y1="282" x2="380" y2="378" stroke="#9AA0A6" stroke-width="1.2" stroke-dasharray="5 3" />
  <line id="slot.grid.bottom.v10.line" x1="400" y1="282" x2="400" y2="378" stroke="#9AA0A6" stroke-width="1.2" stroke-dasharray="5 3" />
  <line id="slot.grid.bottom.v11.line" x1="420" y1="282" x2="420" y2="378" stroke="#9AA0A6" stroke-width="1.2" stroke-dasharray="5 3" />
  <line id="slot.grid.bottom.v12.line" x1="440" y1="282" x2="440" y2="378" stroke="#9AA0A6" stroke-width="1.2" stroke-dasharray="5 3" />
  <line id="slot.grid.bottom.v13.line" x1="460" y1="282" x2="460" y2="378" stroke="#9AA0A6" stroke-width="1.2" stroke-dasharray="5 3" />
  <line id="slot.grid.bottom.v14.line" x1="480" y1="282" x2="480" y2="378" stroke="#9AA0A6" stroke-width="1.2" stroke-dasharray="5 3" />
  <line id="slot.grid.bottom.v15.line" x1="500" y1="282" x2="500" y2="378" stroke="#9AA0A6" stroke-width="1.2" stroke-dasharray="5 3" />
  <line id="slot.grid.bottom.v16.line" x1="520" y1="282" x2="520" y2="378" stroke="#9AA0A6" stroke-width="1.2" stroke-dasharray="5 3" />
  <line id="slot.grid.bottom.v17.line" x1="540" y1="282" x2="540" y2="378" stroke="#9AA0A6" stroke-width="1.2" stroke-dasharray="5 3" />
  <line id="slot.grid.bottom.v18.line" x1="560" y1="282" x2="560" y2="378" stroke="#9AA0A6" stroke-width="1.2" stroke-dasharray="5 3" />
  <line id="slot.grid.bottom.v19.line" x1="580" y1="282" x2="580" y2="378" stroke="#9AA0A6" stroke-width="1.2" stroke-dasharray="5 3" />
  <line id="slot.grid.bottom.h1.line" x1="200" y1="294" x2="648" y2="294" stroke="#9AA0A6" stroke-width="1.2" stroke-dasharray="5 3" />
  <line id="slot.grid.bottom.h2.line" x1="200" y1="306" x2="648" y2="306" stroke="#9AA0A6" stroke-width="1.2" stroke-dasharray="5 3" />
  <line id="slot.grid.bottom.h3.line" x1="200" y1="318" x2="648" y2="318" stroke="#9AA0A6" stroke-width="1.2" stroke-dasharray="5 3" />
  <line id="slot.grid.bottom.h4.line" x1="200" y1="330" x2="648" y2="330" stroke="#9AA0A6" stroke-width="1.2" stroke-dasharray="5 3" />
  <line id="slot.grid.bottom.h5.line" x1="200" y1="342" x2="648" y2="342" stroke="#9AA0A6" stroke-width="1.2" stroke-dasharray="5 3" />
  <line id="slot.grid.bottom.h6.line" x1="200" y1="354" x2="648" y2="354" stroke="#9AA0A6" stroke-width="1.2" stroke-dasharray="5 3" />
  <line id="slot.grid.bottom.h7.line" x1="200" y1="366" x2="648" y2="366" stroke="#9AA0A6" stroke-width="1.2" stroke-dasharray="5 3" />
  <polygon id="slot.shape2.가.polygon" points="225,310 213,354 237,354" stroke="#333333" stroke-width="1.5" fill="none" />
  <polygon id="slot.shape2.나.polygon" points="280,354 330,310 330,354" stroke="#333333" stroke-width="1.5" fill="none" />
  <polygon id="slot.shape2.다.polygon" points="355,354 395,310 375,354" stroke="#333333" stroke-width="1.5" fill="none" />
  <polygon id="slot.shape2.라.polygon" points="420,354 420,310 480,310" stroke="#333333" stroke-width="1.5" fill="none" />
  <polygon id="slot.shape2.마.polygon" points="535,354 535,310 590,332" stroke="#333333" stroke-width="1.5" fill="none" />
  <rect id="slot.right2.나.rect" x="323" y="344" width="8" height="8" fill="none" stroke="#333333" stroke-width="1.2" />
  <rect id="slot.right2.라.rect" x="427" y="314" width="8" height="8" fill="none" stroke="#333333" stroke-width="1.2" />
  <text id="slot.label2.가.text" x="222" y="338" fill="#111111" font-family="Noto Sans KR, sans-serif" font-size="28">가</text>
  <text id="slot.label2.나.text" x="312" y="340" fill="#111111" font-family="Noto Sans KR, sans-serif" font-size="28">나</text>
  <text id="slot.label2.다.text" x="364" y="348" fill="#111111" font-family="Noto Sans KR, sans-serif" font-size="28">다</text>
  <text id="slot.label2.라.text" x="432" y="324" fill="#111111" font-family="Noto Sans KR, sans-serif" font-size="28">라</text>
  <text id="slot.label2.마.text" x="565" y="330" fill="#111111" font-family="Noto Sans KR, sans-serif" font-size="28">마</text>
</svg>
