<?xml version="1.0" encoding="UTF-8"?>
<svg xmlns="http://www.w3.org/2000/svg" width="960" height="456" viewBox="0 0 960 456">
  <metadata><problem_id>S3_초등_3_008803</problem_id></metadata>
  <rect x="0" y="0" width="960" height="456" fill="#FFFFFF" />
  <text id="slot.q1.text" x="22" y="34" fill="#111111" font-family="Noto Sans KR, sans-serif" font-size="28">□ 32. 저울로 오렌지, 딸기, 바나나의 무게를 비교했습니다. 가장 무거운 과일을</text>
  <text id="slot.q2.text" x="22" y="68" fill="#111111" font-family="Noto Sans KR, sans-serif" font-size="28">선택해 보세요.</text>
  <text id="slot.choice.text" x="642" y="296" fill="#111111" font-family="Noto Sans KR, sans-serif" font-size="28">( 오렌지 , 딸기 , 바나나 )</text>
  <rect id="slot.scale1.base.rect" x="198" y="170" width="132" height="32" fill="#ffffff" stroke="#111111" stroke-width="1.5" />
  <circle id="slot.scale1.left_fruit.circle" cx="226" cy="145" r="22" stroke="#111111" stroke-width="2" fill="#f4a62a" />
  <circle id="slot.scale1.right_fruit.circle" cx="294" cy="145" r="16" stroke="#111111" stroke-width="2" fill="#ef7b5b" />
  <line id="slot.scale1.beam.line" x1="212" y1="168" x2="316" y2="146" stroke="#111111" stroke-width="2" />
  <line id="slot.scale1.pivot.line" x1="264" y1="150" x2="264" y2="208" stroke="#111111" stroke-width="2" />
  <line id="slot.scale1.left_pan.line" x1="214" y1="166" x2="210" y2="192" stroke="#111111" stroke-width="2" />
  <line id="slot.scale1.right_pan.line" x1="308" y1="148" x2="312" y2="174" stroke="#111111" stroke-width="2" />
  <rect id="slot.scale2.base.rect" x="556" y="170" width="132" height="32" fill="#ffffff" stroke="#111111" stroke-width="1.5" />
  <circle id="slot.scale2.left_fruit.circle" cx="582" cy="145" r="16" stroke="#111111" stroke-width="2" fill="#f4c04a" />
  <circle id="slot.scale2.right_fruit.circle" cx="650" cy="145" r="22" stroke="#111111" stroke-width="2" fill="#f4a62a" />
  <line id="slot.scale2.beam.line" x1="570" y1="148" x2="674" y2="170" stroke="#111111" stroke-width="2" />
  <line id="slot.scale2.pivot.line" x1="622" y1="152" x2="622" y2="208" stroke="#111111" stroke-width="2" />
  <line id="slot.scale2.left_pan.line" x1="576" y1="150" x2="572" y2="176" stroke="#111111" stroke-width="2" />
  <line id="slot.scale2.right_pan.line" x1="668" y1="168" x2="672" y2="192" stroke="#111111" stroke-width="2" />
</svg>
