<?xml version="1.0" encoding="UTF-8"?>
<svg xmlns="http://www.w3.org/2000/svg" width="960" height="512" viewBox="0 0 960 512">
  <metadata><problem_id>S3_초등_3_008835</problem_id></metadata>
  <rect x="0" y="0" width="960" height="512" fill="#FFFFFF" />
  <polygon id="slot.table.wavy.polygon" points="398,173 690,173 690,233 398,233" stroke="#62BDE3" stroke-width="2" fill="none" />
  <line id="slot.table.legs.2.line" x1="466" y1="214" x2="466" y2="267" stroke="#B8894B" stroke-width="12" />
  <line id="slot.table.legs.3.line" x1="642" y1="214" x2="642" y2="285" stroke="#B8894B" stroke-width="12" />
  <line id="slot.table.legs.4.line" x1="692" y1="214" x2="692" y2="263" stroke="#B8894B" stroke-width="12" />
  <text id="slot.q_num.text" x="24" y="28" fill="#111111" font-family="Noto Sans KR, sans-serif" font-size="28">77.</text>
  <text id="slot.q_text.text" x="70" y="28" fill="#111111" font-family="Noto Sans KR, sans-serif" font-size="28">무게가 무거운 것부터 순서대로 바르게 나타낸 것을 고르세요.</text>
  <rect id="slot.table.top.rect" x="398" y="121" width="292" height="96" fill="#E8F6FF" stroke="#2EA6D6" stroke-width="2" />
  <rect id="slot.table.cloth.rect" x="398" y="121" width="292" height="96" fill="none" stroke="#2EA6D6" stroke-width="2" />
  <circle id="slot.fruit.pear.circle" cx="521" cy="144" r="22" stroke="#111111" stroke-width="2" fill="#F6B24B" />
  <circle id="slot.fruit.pineapple.circle" cx="611" cy="119" r="26" stroke="#111111" stroke-width="2" fill="#F3C623" />
  <line id="slot.table.legs.line" x1="406" y1="214" x2="406" y2="284" stroke="#B8894B" stroke-width="12" />
  <line id="slot.arrow.table.line" x1="369" y1="168" x2="398" y2="168" stroke="#FF4FA3" stroke-width="2" />
  <line id="slot.arrow.pear.line" x1="521" y1="288" x2="521" y2="166" stroke="#FF4FA3" stroke-width="2" />
  <line id="slot.arrow.pineapple.line" x1="611" y1="286" x2="611" y2="145" stroke="#FF4FA3" stroke-width="2" />
  <text id="slot.lb.table.text" x="326" y="171" fill="#111111" font-family="Noto Sans KR, sans-serif" font-size="28">식탁</text>
  <text id="slot.lb.pear.text" x="482" y="314" fill="#111111" font-family="Noto Sans KR, sans-serif" font-size="28">배</text>
  <text id="slot.lb.pineapple.text" x="556" y="314" fill="#111111" font-family="Noto Sans KR, sans-serif" font-size="28">파인애플</text>
  <text id="slot.choice.1.text" x="18" y="369" fill="#111111" font-family="Noto Sans KR, sans-serif" font-size="28">① 식탁, 배, 파인애플</text>
  <text id="slot.choice.2.text" x="487" y="369" fill="#111111" font-family="Noto Sans KR, sans-serif" font-size="28">② 식탁, 파인애플, 배</text>
  <text id="slot.choice.3.text" x="18" y="414" fill="#111111" font-family="Noto Sans KR, sans-serif" font-size="28">③ 배, 파인애플, 식탁</text>
  <text id="slot.choice.4.text" x="487" y="414" fill="#111111" font-family="Noto Sans KR, sans-serif" font-size="28">④ 파인애플, 배, 식탁</text>
</svg>
