<?xml version="1.0" encoding="UTF-8"?>
<svg xmlns="http://www.w3.org/2000/svg" width="945" height="945" viewBox="0 0 945 945">
  <metadata><problem_id>S3_초등_3_008741</problem_id></metadata>
  <rect x="0" y="0" width="945" height="945" fill="#FFFFFF" />
  <text id="slot.q1.text" x="20" y="35" fill="#111111" font-family="Noto Sans KR, sans-serif" font-size="28">□ 27. 두 분수의 크기를 비교하여 더 큰 분수만 비켜나 써보려고 합니다.</text>
  <text id="slot.q2.text" x="20" y="72" fill="#111111" font-family="Noto Sans KR, sans-serif" font-size="28">⑦에 들어갈 분수로 알맞은 것을 가장 아래 칸의 분수들 중에 선택해 보세요.</text>
  <rect id="slot.d1.root.rect" x="465" y="110" width="80" height="80" fill="#ffffff" stroke="#111111" stroke-width="1.5" />
  <rect id="slot.d1.mid.left.rect" x="360" y="215" width="80" height="80" fill="#ffffff" stroke="#111111" stroke-width="1.5" />
  <rect id="slot.d1.mid.right.rect" x="550" y="215" width="80" height="80" fill="#ffffff" stroke="#111111" stroke-width="1.5" />
  <rect id="slot.d1.leaf.l1.rect" x="310" y="350" width="70" height="80" fill="#ffffff" stroke="#111111" stroke-width="1.5" />
  <rect id="slot.d1.leaf.l2.rect" x="395" y="350" width="70" height="80" fill="#ffffff" stroke="#111111" stroke-width="1.5" />
  <rect id="slot.d1.leaf.r1.rect" x="500" y="350" width="70" height="80" fill="#ffffff" stroke="#111111" stroke-width="1.5" />
  <rect id="slot.d1.leaf.r2.rect" x="585" y="350" width="70" height="80" fill="#ffffff" stroke="#111111" stroke-width="1.5" />
  <rect id="slot.d2.root.rect" x="170" y="600" width="80" height="80" fill="#ffffff" stroke="#111111" stroke-width="1.5" />
  <rect id="slot.d2.mid.left.rect" x="80" y="695" width="80" height="80" fill="#ffffff" stroke="#111111" stroke-width="1.5" />
  <rect id="slot.d2.mid.right.rect" x="225" y="695" width="80" height="80" fill="#ffffff" stroke="#111111" stroke-width="1.5" />
  <rect id="slot.d2.leaf.l1.rect" x="50" y="805" width="70" height="80" fill="#ffffff" stroke="#111111" stroke-width="1.5" />
  <rect id="slot.d2.leaf.l2.rect" x="130" y="805" width="70" height="80" fill="#ffffff" stroke="#111111" stroke-width="1.5" />
  <rect id="slot.d2.leaf.r1.rect" x="215" y="805" width="70" height="80" fill="#ffffff" stroke="#111111" stroke-width="1.5" />
  <rect id="slot.d2.leaf.r2.rect" x="295" y="805" width="70" height="80" fill="#ffffff" stroke="#111111" stroke-width="1.5" />
</svg>
