<?xml version="1.0" encoding="UTF-8"?>
<svg xmlns="http://www.w3.org/2000/svg" width="680" height="480" viewBox="0 0 680 480">
  <metadata><problem_id>S3_초등_3_008692</problem_id></metadata>
  <rect x="0" y="0" width="680" height="480" fill="#FFFFFF" />
  <rect id="slot.q.box.rect" x="12" y="12" width="12" height="12" fill="#ffffff" stroke="#111111" stroke-width="1.5" />
  <text id="slot.q.num.text" x="34" y="28" fill="#111111" font-family="Noto Sans KR, sans-serif" font-size="28">81.</text>
  <text id="slot.q.text.text" x="80" y="30" fill="#111111" font-family="Noto Sans KR, sans-serif" font-size="30">원의 중심을 찾아 기호를 선택해 보세요.</text>
  <circle id="slot.circle.circle" cx="450" cy="235" r="100" stroke="#111111" stroke-width="2" fill="none" />
  <circle id="slot.pt.a.circle" cx="440" cy="180" r="5" stroke="#111111" stroke-width="2" fill="#e94f9a" />
  <circle id="slot.pt.b.circle" cx="440" cy="235" r="5" stroke="#111111" stroke-width="2" fill="#e94f9a" />
  <circle id="slot.pt.c.circle" cx="400" cy="260" r="5" stroke="#111111" stroke-width="2" fill="#e94f9a" />
  <circle id="slot.pt.d.circle" cx="520" cy="235" r="5" stroke="#111111" stroke-width="2" fill="#e94f9a" />
  <line id="slot.grid.v1.line" x1="360" y1="45" x2="360" y2="305" stroke="#111111" stroke-width="2" />
  <line id="slot.grid.v2.line" x1="385" y1="45" x2="385" y2="305" stroke="#111111" stroke-width="2" />
  <line id="slot.grid.v3.line" x1="410" y1="45" x2="410" y2="305" stroke="#111111" stroke-width="2" />
  <line id="slot.grid.v4.line" x1="435" y1="45" x2="435" y2="305" stroke="#111111" stroke-width="2" />
  <line id="slot.grid.v5.line" x1="460" y1="45" x2="460" y2="305" stroke="#111111" stroke-width="2" />
  <line id="slot.grid.v6.line" x1="485" y1="45" x2="485" y2="305" stroke="#111111" stroke-width="2" />
  <line id="slot.grid.v7.line" x1="510" y1="45" x2="510" y2="305" stroke="#111111" stroke-width="2" />
  <line id="slot.grid.v8.line" x1="535" y1="45" x2="535" y2="305" stroke="#111111" stroke-width="2" />
  <line id="slot.grid.v9.line" x1="560" y1="45" x2="560" y2="305" stroke="#111111" stroke-width="2" />
  <line id="slot.grid.v10.line" x1="585" y1="45" x2="585" y2="305" stroke="#111111" stroke-width="2" />
  <line id="slot.grid.h1.line" x1="360" y1="45" x2="585" y2="45" stroke="#111111" stroke-width="2" />
  <line id="slot.grid.h2.line" x1="360" y1="70" x2="585" y2="70" stroke="#111111" stroke-width="2" />
  <line id="slot.grid.h3.line" x1="360" y1="95" x2="585" y2="95" stroke="#111111" stroke-width="2" />
  <line id="slot.grid.h4.line" x1="360" y1="120" x2="585" y2="120" stroke="#111111" stroke-width="2" />
  <line id="slot.grid.h5.line" x1="360" y1="145" x2="585" y2="145" stroke="#111111" stroke-width="2" />
  <line id="slot.grid.h6.line" x1="360" y1="170" x2="585" y2="170" stroke="#111111" stroke-width="2" />
  <line id="slot.grid.h7.line" x1="360" y1="195" x2="585" y2="195" stroke="#111111" stroke-width="2" />
  <line id="slot.grid.h8.line" x1="360" y1="220" x2="585" y2="220" stroke="#111111" stroke-width="2" />
  <line id="slot.grid.h9.line" x1="360" y1="245" x2="585" y2="245" stroke="#111111" stroke-width="2" />
  <line id="slot.grid.h10.line" x1="360" y1="270" x2="585" y2="270" stroke="#111111" stroke-width="2" />
  <text id="slot.lb.a.text" x="415" y="175" fill="#111111" font-family="Noto Sans KR, sans-serif" font-size="30">ㄱ</text>
  <text id="slot.lb.b.text" x="415" y="225" fill="#111111" font-family="Noto Sans KR, sans-serif" font-size="30">ㄴ</text>
  <text id="slot.lb.c.text" x="375" y="260" fill="#111111" font-family="Noto Sans KR, sans-serif" font-size="30">ㄷ</text>
  <text id="slot.lb.d.text" x="495" y="225" fill="#111111" font-family="Noto Sans KR, sans-serif" font-size="30">ㄹ</text>
</svg>
