<?xml version="1.0" encoding="UTF-8"?>
<svg xmlns="http://www.w3.org/2000/svg" width="960" height="436" viewBox="0 0 960 436">
  <metadata><problem_id>S3_초등_3_008789</problem_id></metadata>
  <rect x="0" y="0" width="960" height="436" fill="#FFFFFF" />
  <text id="slot.q1.text" x="8" y="24" fill="#111111" font-family="Noto Sans KR, sans-serif" font-size="28">□</text>
  <text id="slot.q2.text" x="33" y="24" fill="#111111" font-family="Noto Sans KR, sans-serif" font-size="28">14.</text>
  <text id="slot.q3.text" x="64" y="24" fill="#111111" font-family="Noto Sans KR, sans-serif" font-size="28">보온병과 우유갑에 물을 가득 채운 후 물을 같은 그릇에 옮겨 담았습니다.</text>
  <text id="slot.q4.text" x="64" y="60" fill="#111111" font-family="Noto Sans KR, sans-serif" font-size="28">그림과 같이 물이 채워졌을 때 보온병과 우유갑 중 들이가 더</text>
  <text id="slot.q5.text" x="64" y="96" fill="#111111" font-family="Noto Sans KR, sans-serif" font-size="28">많은 것을 선택하세요.</text>
  <rect id="slot.tharmos.body.rect" x="205" y="104" width="36" height="108" fill="#F9D4DA" stroke="#F08CA0" stroke-width="2" />
  <rect id="slot.tharmos.lid.rect" x="210" y="88" width="26" height="24" fill="#F6B3C1" stroke="#F08CA0" stroke-width="2" />
  <path id="slot.tharmos.handle.path" d="M 198 114 C 176 138, 176 188, 194 210" stroke="#F4A62A" stroke-width="2" fill="none" />
  <rect id="slot.cup1.body.rect" x="385" y="114" width="56" height="100" fill="#FFFFFF" stroke="#90A3E6" stroke-width="2" />
  <circle id="slot.cup1.top_ellipse.circle" cx="413" cy="114" r="28" stroke="#90A3E6" stroke-width="2" fill="none" />
  <rect id="slot.cup1.water.rect" x="385" y="164" width="56" height="50" fill="#A6D9F5" stroke="none" stroke-width="1.5" />
  <path id="slot.cup1.surface.path" d="M 389 164 C 399 157, 428 157, 437 164" stroke="#6FBCEB" stroke-width="1.6" fill="none" />
  <path id="slot.cup1.bottom_curve.path" d="M 397 206 C 403 211, 423 211, 429 206" stroke="#7FA7D8" stroke-width="1.2" fill="none" />
  <path id="slot.cup1.reflection.path" d="M 394 132 C 394 146, 394 180, 394 200" stroke="#CBE9FB" stroke-width="1.2" fill="none" />
  <polygon id="slot.milk.carton_body.polygon" points="555,146 593,146 593,206 555,206" stroke="#909090" stroke-width="2" fill="#FFFFFF" />
  <polygon id="slot.milk.carton_top.polygon" points="555,146 569,130 607,130 593,146" stroke="#909090" stroke-width="2" fill="#EEF4FF" />
  <polygon id="slot.milk.carton_side.polygon" points="593,146 607,130 607,190 593,206" stroke="#909090" stroke-width="2" fill="#F5F5F5" />
  <rect id="slot.milk.carton_green.rect" x="555" y="186" width="38" height="20" fill="#4BAE5A" stroke="none" stroke-width="1.5" />
  <rect id="slot.cup2.body.rect" x="754" y="114" width="56" height="100" fill="#FFFFFF" stroke="#90A3E6" stroke-width="2" />
  <circle id="slot.cup2.top_ellipse.circle" cx="782" cy="114" r="28" stroke="#90A3E6" stroke-width="2" fill="none" />
  <rect id="slot.cup2.water.rect" x="754" y="164" width="56" height="50" fill="#A6D9F5" stroke="none" stroke-width="1.5" />
  <path id="slot.cup2.surface.path" d="M 758 164 C 768 157, 797 157, 806 164" stroke="#6FBCEB" stroke-width="1.6" fill="none" />
  <path id="slot.cup2.bottom_curve.path" d="M 766 206 C 772 211, 792 211, 798 206" stroke="#7FA7D8" stroke-width="1.2" fill="none" />
  <path id="slot.cup2.reflection.path" d="M 763 132 C 763 146, 763 180, 763 200" stroke="#CBE9FB" stroke-width="1.2" fill="none" />
  <line id="slot.tharmos.strap.line" x1="193" y1="210" x2="226" y2="106" stroke="#F4A62A" stroke-width="2" />
  <line id="slot.tharmos.shadow.line" x1="208" y1="214" x2="240" y2="214" stroke="#F0A0B2" stroke-width="1.4" />
  <line id="slot.milk.carton_shadow.line" x1="560" y1="206" x2="589" y2="206" stroke="#9FD4A4" stroke-width="1.2" />
  <circle id="slot.tharmos.axle_left.circle" cx="199" cy="115" r="4" stroke="#111111" stroke-width="2" fill="#6EC6E8" />
  <circle id="slot.tharmos.axle_right.circle" cx="237" cy="116" r="4" stroke="#111111" stroke-width="2" fill="#6EC6E8" />
  <text id="slot.arrow1.text" x="326" y="176" fill="#111111" font-family="Noto Sans KR, sans-serif" font-size="44">→</text>
  <text id="slot.milk.carton_logo.text" x="559" y="171" fill="#111111" font-family="Noto Sans KR, sans-serif" font-size="18">우유</text>
  <text id="slot.arrow2.text" x="694" y="176" fill="#111111" font-family="Noto Sans KR, sans-serif" font-size="44">→</text>
  <text id="slot.lb.tharmos.text" x="197" y="272" fill="#111111" font-family="Noto Sans KR, sans-serif" font-size="28">보온병</text>
  <text id="slot.lb.milk.text" x="544" y="272" fill="#111111" font-family="Noto Sans KR, sans-serif" font-size="28">우유갑</text>
  <text id="slot.choice.text" x="723" y="317" fill="#111111" font-family="Noto Sans KR, sans-serif" font-size="28">( 보온병 , 우유갑 )</text>
</svg>
