<?xml version="1.0" encoding="UTF-8"?>
<svg xmlns="http://www.w3.org/2000/svg" width="960" height="1080" viewBox="0 0 960 1080">
  <metadata><problem_id>S3_초등_3_008742</problem_id></metadata>
  <rect x="0" y="0" width="960" height="1080" fill="#FFFFFF" />
  <text id="slot.q1.text" x="16" y="48" fill="#111111" font-family="Noto Sans KR, sans-serif" font-size="28">28.</text>
  <text id="slot.q2.text" x="56" y="48" fill="#111111" font-family="Noto Sans KR, sans-serif" font-size="28">두 분수의 크기를 비교하여 빨간색 선을 만나면 큰 분수를, 파란색 선을 만나면</text>
  <text id="slot.q3.text" x="16" y="86" fill="#111111" font-family="Noto Sans KR, sans-serif" font-size="28">작은 분수를 빈칸에 써넣으려고 합니다. ㉠에 들어갈 분수로 알맞은 것을 가장 아래칸의 분수들 중에 선택해 보세요.</text>
  <rect id="slot.d1.top_box.rect" x="452" y="136" width="72" height="72" fill="#FFFFFF" stroke="#111111" stroke-width="1.5" />
  <rect id="slot.d1.left_mid_box.rect" x="344" y="242" width="72" height="72" fill="#FFFFFF" stroke="#111111" stroke-width="1.5" />
  <rect id="slot.d1.right_mid_box.rect" x="560" y="242" width="72" height="72" fill="#FFFFFF" stroke="#111111" stroke-width="1.5" />
  <rect id="slot.d1.card.1.rect" x="300" y="348" width="72" height="80" fill="#DDF1EA" stroke="#111111" stroke-width="1.5" />
  <rect id="slot.d1.card.2.rect" x="392" y="348" width="72" height="80" fill="#DDF1EA" stroke="#111111" stroke-width="1.5" />
  <rect id="slot.d1.card.3.rect" x="500" y="348" width="72" height="80" fill="#DDF1EA" stroke="#111111" stroke-width="1.5" />
  <rect id="slot.d1.card.4.rect" x="592" y="348" width="72" height="80" fill="#DDF1EA" stroke="#111111" stroke-width="1.5" />
  <line id="slot.d1.connect.top_left.line" x1="488" y1="208" x2="380" y2="208" stroke="#111111" stroke-width="2" />
  <line id="slot.d1.connect.top_right.line" x1="488" y1="208" x2="596" y2="208" stroke="#111111" stroke-width="2" />
  <line id="slot.d1.connect.left_down_left.line" x1="380" y1="314" x2="336" y2="314" stroke="#111111" stroke-width="2" />
  <line id="slot.d1.connect.left_down_right.line" x1="380" y1="314" x2="428" y2="314" stroke="#111111" stroke-width="2" />
  <line id="slot.d1.connect.right_down_left.line" x1="596" y1="314" x2="536" y2="314" stroke="#111111" stroke-width="2" />
  <line id="slot.d1.connect.right_down_right.line" x1="596" y1="314" x2="628" y2="314" stroke="#111111" stroke-width="2" />
  <text id="slot.d1.tag.text" x="470" y="184" fill="#111111" font-family="Noto Sans KR, sans-serif" font-size="28">㉠</text>
  <text id="slot.ex2.text" x="16" y="620" fill="#111111" font-family="Noto Sans KR, sans-serif" font-size="28">23/15 &lt; 26/15 이므로 파란색 선을 만나서 작은 분수인 23/15이 빈칸으로 올라갑니다.</text>
  <text id="slot.ex3.text" x="16" y="940" fill="#111111" font-family="Noto Sans KR, sans-serif" font-size="28">1 3/15과 23/15의 크기를 비교하면 23/15 = 1 8/15이므로 1 3/15 &lt; 23/15입니다.</text>
  <rect id="slot.d2.top_box.rect" x="164" y="684" width="72" height="72" fill="#FFFFFF" stroke="#111111" stroke-width="1.5" />
  <rect id="slot.d2.left_mid_box.rect" x="108" y="790" width="72" height="72" fill="#FFFFFF" stroke="#111111" stroke-width="1.5" />
  <rect id="slot.d2.right_mid_box.rect" x="248" y="790" width="72" height="72" fill="#FFFFFF" stroke="#111111" stroke-width="1.5" />
  <rect id="slot.d2.card.1.rect" x="48" y="848" width="72" height="80" fill="#DDF1EA" stroke="#111111" stroke-width="1.5" />
  <rect id="slot.d2.card.2.rect" x="140" y="848" width="72" height="80" fill="#DDF1EA" stroke="#111111" stroke-width="1.5" />
  <rect id="slot.d2.card.3.rect" x="220" y="848" width="72" height="80" fill="#DDF1EA" stroke="#111111" stroke-width="1.5" />
  <rect id="slot.d2.card.4.rect" x="312" y="848" width="72" height="80" fill="#DDF1EA" stroke="#111111" stroke-width="1.5" />
  <line id="slot.d2.connect.top_left.line" x1="200" y1="756" x2="144" y2="756" stroke="#111111" stroke-width="2" />
  <line id="slot.d2.connect.top_right.line" x1="200" y1="756" x2="284" y2="756" stroke="#111111" stroke-width="2" />
  <line id="slot.d2.connect.left_down_left.line" x1="144" y1="862" x2="84" y2="862" stroke="#111111" stroke-width="2" />
  <line id="slot.d2.connect.left_down_right.line" x1="144" y1="862" x2="176" y2="862" stroke="#111111" stroke-width="2" />
  <line id="slot.d2.connect.right_down_left.line" x1="284" y1="862" x2="244" y2="862" stroke="#111111" stroke-width="2" />
  <line id="slot.d2.connect.right_down_right.line" x1="284" y1="862" x2="324" y2="862" stroke="#111111" stroke-width="2" />
  <text id="slot.f1.text" x="16" y="1002" fill="#111111" font-family="Noto Sans KR, sans-serif" font-size="28">따라서 빨간색 선을 만나서 큰 분수가 빈칸으로 올라가므로 ㉠에 알맞은 수는 23/15입니다.</text>
  <text id="slot.f2.text" x="16" y="1044" fill="#111111" font-family="Noto Sans KR, sans-serif" font-size="28"></text>
  <text id="slot.f3.text" x="16" y="1068" fill="#111111" font-family="Noto Sans KR, sans-serif" font-size="28"></text>
</svg>
