<?xml version="1.0" encoding="UTF-8"?>
<svg xmlns="http://www.w3.org/2000/svg" width="640" height="420" viewBox="0 0 640 420">
  <metadata><problem_id>S3_초등_3_008659</problem_id></metadata>
  <rect x="0" y="0" width="640" height="420" fill="#FFFFFF" />
  <text id="slot.question.text" x="72" y="26" fill="#111111" font-family="Noto Sans KR, sans-serif" font-size="26">그림에서 원의 중심을 선택해 보세요.</text>
  <circle id="slot.circle.circle" cx="478" cy="164" r="81" stroke="#222222" stroke-width="1.5" fill="none" />
  <circle id="slot.pt.giyeok.point.circle" cx="397" cy="164" r="4" stroke="#E91E63" stroke-width="1" fill="#E91E63" />
  <circle id="slot.pt.nieun.point.circle" cx="424" cy="137" r="4" stroke="#E91E63" stroke-width="1" fill="#E91E63" />
  <circle id="slot.pt.digeut.point.circle" cx="478" cy="110" r="4" stroke="#E91E63" stroke-width="1" fill="#E91E63" />
  <circle id="slot.pt.rieul.point.circle" cx="478" cy="164" r="4" stroke="#E91E63" stroke-width="1" fill="#E91E63" />
  <line id="slot.grid.v0.line" x1="370" y1="56" x2="370" y2="272" stroke="#19BDF2" stroke-width="1.1" stroke-dasharray="4 3" />
  <line id="slot.grid.v1.line" x1="397" y1="56" x2="397" y2="272" stroke="#19BDF2" stroke-width="1.1" stroke-dasharray="4 3" />
  <line id="slot.grid.v2.line" x1="424" y1="56" x2="424" y2="272" stroke="#19BDF2" stroke-width="1.1" stroke-dasharray="4 3" />
  <line id="slot.grid.v3.line" x1="451" y1="56" x2="451" y2="272" stroke="#19BDF2" stroke-width="1.1" stroke-dasharray="4 3" />
  <line id="slot.grid.v4.line" x1="478" y1="56" x2="478" y2="272" stroke="#19BDF2" stroke-width="1.1" stroke-dasharray="4 3" />
  <line id="slot.grid.v5.line" x1="505" y1="56" x2="505" y2="272" stroke="#19BDF2" stroke-width="1.1" stroke-dasharray="4 3" />
  <line id="slot.grid.v6.line" x1="532" y1="56" x2="532" y2="272" stroke="#19BDF2" stroke-width="1.1" stroke-dasharray="4 3" />
  <line id="slot.grid.v7.line" x1="559" y1="56" x2="559" y2="272" stroke="#19BDF2" stroke-width="1.1" stroke-dasharray="4 3" />
  <line id="slot.grid.v8.line" x1="586" y1="56" x2="586" y2="272" stroke="#19BDF2" stroke-width="1.1" stroke-dasharray="4 3" />
  <line id="slot.grid.h0.line" x1="370" y1="56" x2="586" y2="56" stroke="#19BDF2" stroke-width="1.1" stroke-dasharray="4 3" />
  <line id="slot.grid.h1.line" x1="370" y1="83" x2="586" y2="83" stroke="#19BDF2" stroke-width="1.1" stroke-dasharray="4 3" />
  <line id="slot.grid.h2.line" x1="370" y1="110" x2="586" y2="110" stroke="#19BDF2" stroke-width="1.1" stroke-dasharray="4 3" />
  <line id="slot.grid.h3.line" x1="370" y1="137" x2="586" y2="137" stroke="#19BDF2" stroke-width="1.1" stroke-dasharray="4 3" />
  <line id="slot.grid.h4.line" x1="370" y1="164" x2="586" y2="164" stroke="#19BDF2" stroke-width="1.1" stroke-dasharray="4 3" />
  <line id="slot.grid.h5.line" x1="370" y1="191" x2="586" y2="191" stroke="#19BDF2" stroke-width="1.1" stroke-dasharray="4 3" />
  <line id="slot.grid.h6.line" x1="370" y1="218" x2="586" y2="218" stroke="#19BDF2" stroke-width="1.1" stroke-dasharray="4 3" />
  <line id="slot.grid.h7.line" x1="370" y1="245" x2="586" y2="245" stroke="#19BDF2" stroke-width="1.1" stroke-dasharray="4 3" />
  <line id="slot.grid.h8.line" x1="370" y1="272" x2="586" y2="272" stroke="#19BDF2" stroke-width="1.1" stroke-dasharray="4 3" />
  <text id="slot.pt.giyeok.label.text" x="379" y="182" fill="#111111" font-family="Noto Sans KR, sans-serif" font-size="24">ㄱ</text>
  <text id="slot.pt.nieun.label.text" x="432" y="155" fill="#111111" font-family="Noto Sans KR, sans-serif" font-size="24">ㄴ</text>
  <text id="slot.pt.digeut.label.text" x="486" y="126" fill="#111111" font-family="Noto Sans KR, sans-serif" font-size="24">ㄷ</text>
  <text id="slot.pt.rieul.label.text" x="486" y="182" fill="#111111" font-family="Noto Sans KR, sans-serif" font-size="24">ㄹ</text>
</svg>
