<?xml version="1.0" encoding="UTF-8"?>
<svg xmlns="http://www.w3.org/2000/svg" width="752" height="353" viewBox="0 0 752 353">
  <metadata><problem_id>S3_초등_3_009067</problem_id></metadata>
  <rect x="0" y="0" width="752" height="353" fill="#FFFFFF" />
  <text id="slot.qnum.text" x="10" y="20" fill="#111111" font-family="Noto Sans KR, sans-serif" font-size="28">8.</text>
  <text id="slot.qtext.text" x="38" y="20" fill="#111111" font-family="Noto Sans KR, sans-serif" font-size="28">도형을 보고 알맞은 기호를 모두 선택하세요.</text>
  <rect id="slot.bg.top.rect" x="62" y="35" width="624" height="92" fill="none" stroke="#111111" stroke-width="1.5" />
  <polygon id="slot.top.a.polygon" points="79,54 165,54 165,117 79,117" stroke="#111111" stroke-width="2" fill="none" />
  <polygon id="slot.top.b.polygon" points="208,54 277,54 253,117 208,117" stroke="#111111" stroke-width="2" fill="none" />
  <polygon id="slot.top.c.polygon" points="333,54 405,54 405,117 333,117" stroke="#111111" stroke-width="2" fill="none" />
  <polygon id="slot.top.d.polygon" points="476,54 596,54 572,117 500,117" stroke="#111111" stroke-width="2" fill="none" />
  <polygon id="slot.top.e.polygon" points="621,38 644,89 621,128 597,89" stroke="#111111" stroke-width="2" fill="none" />
  <text id="slot.top.la.text" x="127" y="97" fill="#111111" font-family="Noto Sans KR, sans-serif" font-size="28">가</text>
  <text id="slot.top.lb.text" x="237" y="97" fill="#111111" font-family="Noto Sans KR, sans-serif" font-size="28">나</text>
  <text id="slot.top.lc.text" x="368" y="97" fill="#111111" font-family="Noto Sans KR, sans-serif" font-size="28">다</text>
  <text id="slot.top.ld.text" x="538" y="97" fill="#111111" font-family="Noto Sans KR, sans-serif" font-size="28">라</text>
  <text id="slot.top.le.text" x="621" y="93" fill="#111111" font-family="Noto Sans KR, sans-serif" font-size="28">마</text>
  <text id="slot.statement.text" x="62" y="162" fill="#111111" font-family="Noto Sans KR, sans-serif" font-size="28">네 변의 길이가 모두 같은 사각형은 ( 가, 나, 다, 라, 마 )입니다.</text>
  <rect id="slot.bg.bottom.rect" x="62" y="211" width="494" height="92" fill="none" stroke="#111111" stroke-width="1.5" />
  <polygon id="slot.bottom.a.polygon" points="79,230 165,230 165,293 79,293" stroke="#111111" stroke-width="2" fill="none" />
  <polygon id="slot.bottom.b.polygon" points="208,230 277,230 253,293 208,293" stroke="#111111" stroke-width="2" fill="none" />
  <polygon id="slot.bottom.c.polygon" points="333,230 405,230 405,293 333,293" stroke="#111111" stroke-width="2" fill="none" />
  <polygon id="slot.bottom.d.polygon" points="476,230 596,230 572,293 500,293" stroke="#111111" stroke-width="2" fill="none" />
  <polygon id="slot.bottom.e.polygon" points="621,214 644,265 621,304 597,265" stroke="#111111" stroke-width="2" fill="none" />
  <text id="slot.bottom.la.text" x="127" y="279" fill="#111111" font-family="Noto Sans KR, sans-serif" font-size="28">가</text>
  <text id="slot.bottom.lb.text" x="237" y="279" fill="#111111" font-family="Noto Sans KR, sans-serif" font-size="28">나</text>
  <text id="slot.bottom.lc.text" x="368" y="279" fill="#111111" font-family="Noto Sans KR, sans-serif" font-size="28">다</text>
  <text id="slot.bottom.ld.text" x="538" y="279" fill="#111111" font-family="Noto Sans KR, sans-serif" font-size="28">라</text>
  <text id="slot.bottom.le.text" x="621" y="275" fill="#111111" font-family="Noto Sans KR, sans-serif" font-size="28">마</text>
</svg>
