<?xml version="1.0" encoding="UTF-8"?>
<svg xmlns="http://www.w3.org/2000/svg" width="940" height="520" viewBox="0 0 940 520">
  <metadata><problem_id>S3_초등_3_008723</problem_id></metadata>
  <rect x="0" y="0" width="940" height="520" fill="#FFFFFF" />
  <text id="slot.q1.text" x="10" y="34" fill="#111111" font-family="Noto Sans KR, sans-serif" font-size="28">□ 27. 세인이가 그림과 같은 모양을 그렸습니다. 이 모양을 그릴 때 컴퍼스의</text>
  <text id="slot.q2.text" x="10" y="68" fill="#111111" font-family="Noto Sans KR, sans-serif" font-size="28">    침을 꽂지 않은 곳을 찾아 기호를 선택하세요.</text>
  <circle id="slot.circle.outer.circle" cx="505" cy="244" r="140" stroke="#555555" stroke-width="2" fill="none" />
  <circle id="slot.circle.top.circle" cx="505" cy="164" r="110" stroke="#555555" stroke-width="2" fill="none" />
  <circle id="slot.circle.left.circle" cx="405" cy="244" r="78" stroke="#555555" stroke-width="2" fill="none" />
  <circle id="slot.circle.right.circle" cx="610" cy="244" r="78" stroke="#555555" stroke-width="2" fill="none" />
  <circle id="slot.circle.bottom.circle" cx="505" cy="332" r="78" stroke="#555555" stroke-width="2" fill="none" />
  <line id="slot.grid.v1.line" x1="340" y1="100" x2="340" y2="386" stroke="#9AA0A6" stroke-width="1.2" stroke-dasharray="5 3" />
  <line id="slot.grid.v2.line" x1="370" y1="100" x2="370" y2="386" stroke="#9AA0A6" stroke-width="1.2" stroke-dasharray="5 3" />
  <line id="slot.grid.v3.line" x1="400" y1="100" x2="400" y2="386" stroke="#9AA0A6" stroke-width="1.2" stroke-dasharray="5 3" />
  <line id="slot.grid.v4.line" x1="430" y1="100" x2="430" y2="386" stroke="#9AA0A6" stroke-width="1.2" stroke-dasharray="5 3" />
  <line id="slot.grid.v5.line" x1="460" y1="100" x2="460" y2="386" stroke="#9AA0A6" stroke-width="1.2" stroke-dasharray="5 3" />
  <line id="slot.grid.v6.line" x1="490" y1="100" x2="490" y2="386" stroke="#9AA0A6" stroke-width="1.2" stroke-dasharray="5 3" />
  <line id="slot.grid.v7.line" x1="520" y1="100" x2="520" y2="386" stroke="#9AA0A6" stroke-width="1.2" stroke-dasharray="5 3" />
  <line id="slot.grid.v8.line" x1="550" y1="100" x2="550" y2="386" stroke="#9AA0A6" stroke-width="1.2" stroke-dasharray="5 3" />
  <line id="slot.grid.v9.line" x1="580" y1="100" x2="580" y2="386" stroke="#9AA0A6" stroke-width="1.2" stroke-dasharray="5 3" />
  <line id="slot.grid.v10.line" x1="610" y1="100" x2="610" y2="386" stroke="#9AA0A6" stroke-width="1.2" stroke-dasharray="5 3" />
  <line id="slot.grid.v11.line" x1="640" y1="100" x2="640" y2="386" stroke="#9AA0A6" stroke-width="1.2" stroke-dasharray="5 3" />
  <line id="slot.grid.v12.line" x1="670" y1="100" x2="670" y2="386" stroke="#9AA0A6" stroke-width="1.2" stroke-dasharray="5 3" />
  <line id="slot.grid.h1.line" x1="340" y1="100" x2="670" y2="100" stroke="#9AA0A6" stroke-width="1.2" stroke-dasharray="5 3" />
  <line id="slot.grid.h2.line" x1="340" y1="130" x2="670" y2="130" stroke="#9AA0A6" stroke-width="1.2" stroke-dasharray="5 3" />
  <line id="slot.grid.h3.line" x1="340" y1="160" x2="670" y2="160" stroke="#9AA0A6" stroke-width="1.2" stroke-dasharray="5 3" />
  <line id="slot.grid.h4.line" x1="340" y1="190" x2="670" y2="190" stroke="#9AA0A6" stroke-width="1.2" stroke-dasharray="5 3" />
  <line id="slot.grid.h5.line" x1="340" y1="220" x2="670" y2="220" stroke="#9AA0A6" stroke-width="1.2" stroke-dasharray="5 3" />
  <line id="slot.grid.h6.line" x1="340" y1="250" x2="670" y2="250" stroke="#9AA0A6" stroke-width="1.2" stroke-dasharray="5 3" />
  <line id="slot.grid.h7.line" x1="340" y1="280" x2="670" y2="280" stroke="#9AA0A6" stroke-width="1.2" stroke-dasharray="5 3" />
  <line id="slot.grid.h8.line" x1="340" y1="310" x2="670" y2="310" stroke="#9AA0A6" stroke-width="1.2" stroke-dasharray="5 3" />
  <line id="slot.grid.h9.line" x1="340" y1="340" x2="670" y2="340" stroke="#9AA0A6" stroke-width="1.2" stroke-dasharray="5 3" />
  <line id="slot.grid.h10.line" x1="340" y1="370" x2="670" y2="370" stroke="#9AA0A6" stroke-width="1.2" stroke-dasharray="5 3" />
  <line id="slot.grid.h11.line" x1="340" y1="400" x2="670" y2="400" stroke="#9AA0A6" stroke-width="1.2" stroke-dasharray="5 3" />
  <line id="slot.grid.h12.line" x1="340" y1="430" x2="670" y2="430" stroke="#9AA0A6" stroke-width="1.2" stroke-dasharray="5 3" />
  <circle id="slot.circle.center.circle" cx="505" cy="244" r="4" stroke="#111111" stroke-width="2" fill="#d81b60" />
  <circle id="slot.pt.a.circle" cx="405" cy="164" r="4" stroke="#111111" stroke-width="2" fill="#d81b60" />
  <circle id="slot.pt.b.circle" cx="505" cy="164" r="4" stroke="#111111" stroke-width="2" fill="#d81b60" />
  <circle id="slot.pt.c.circle" cx="405" cy="244" r="4" stroke="#111111" stroke-width="2" fill="#d81b60" />
  <circle id="slot.pt.d.circle" cx="505" cy="244" r="4" stroke="#111111" stroke-width="2" fill="#d81b60" />
  <circle id="slot.pt.e.circle" cx="610" cy="244" r="4" stroke="#111111" stroke-width="2" fill="#d81b60" />
  <circle id="slot.pt.f.circle" cx="505" cy="332" r="4" stroke="#111111" stroke-width="2" fill="#d81b60" />
  <text id="slot.lb.a.text" x="393" y="160" fill="#111111" font-family="Noto Sans KR, sans-serif" font-size="28">ㄱ</text>
  <text id="slot.lb.b.text" x="493" y="160" fill="#111111" font-family="Noto Sans KR, sans-serif" font-size="28">ㄴ</text>
  <text id="slot.lb.c.text" x="393" y="240" fill="#111111" font-family="Noto Sans KR, sans-serif" font-size="28">ㄷ</text>
  <text id="slot.lb.d.text" x="493" y="240" fill="#111111" font-family="Noto Sans KR, sans-serif" font-size="28">ㄹ</text>
  <text id="slot.lb.e.text" x="598" y="240" fill="#111111" font-family="Noto Sans KR, sans-serif" font-size="28">ㅁ</text>
  <text id="slot.lb.f.text" x="493" y="328" fill="#111111" font-family="Noto Sans KR, sans-serif" font-size="28">ㅂ</text>
  <circle id="slot.a2.circle" cx="88" cy="420" r="12" stroke="#222222" stroke-width="1.5" fill="none" />
</svg>
