<?xml version="1.0" encoding="UTF-8"?>
<svg xmlns="http://www.w3.org/2000/svg" width="926" height="658" viewBox="0 0 926 658">
  <metadata><problem_id>S3_초등_3_008674</problem_id></metadata>
  <rect x="0" y="0" width="926" height="658" fill="#FFFFFF" />
  <text id="slot.header.text.text" x="50" y="55" fill="#111111" font-family="Noto Sans KR, sans-serif" font-size="30">원을 바르게 완성한 것을 선택하세요.</text>
  <rect id="slot.top.square.rect" x="330" y="120" width="160" height="160" fill="#ffffff" stroke="#111111" stroke-width="1.5" />
  <circle id="slot.top.center.circle" cx="410" cy="200" r="5" stroke="#111111" stroke-width="2" fill="#e91e63" />
  <rect id="slot.mid.left.square.rect" x="90" y="325" width="160" height="160" fill="#ffffff" stroke="#111111" stroke-width="1.5" />
  <path id="slot.mid.left.red.path" d="M 158.87208557128906 318.676513671875 A 80 80 0 0 0 238.87208557128906 398.676513671875" stroke="#111111" stroke-width="2" fill="none" transform="rotate(-15 198.87 358.67)" />
  <circle id="slot.mid.left.center.circle" cx="170" cy="410" r="5" stroke="#111111" stroke-width="2" fill="#e91e63" />
  <rect id="slot.mid.mid.square.rect" x="320" y="325" width="160" height="160" fill="#ffffff" stroke="#111111" stroke-width="1.5" />
  <path id="slot.mid.mid.arc.path" d="M 572.6286888122559 291.1735076904297 A 80 80 0 1 1 652.6286888122559 211.1735076904297" stroke="#111111" stroke-width="2" fill="none" transform="rotate(255 446.14 462.67)" />
  <circle id="slot.mid.mid.center.circle" cx="400" cy="410" r="5" stroke="#111111" stroke-width="2" fill="#e91e63" />
  <rect id="slot.mid.right.square.rect" x="565" y="325" width="160" height="160" fill="#ffffff" stroke="#111111" stroke-width="1.5" />
  <path id="slot.mid.right.arc.path" d="M 552.7106018066406 169.6031494140625 A 80 80 0 1 1 632.7106018066406 89.6031494140625" stroke="#111111" stroke-width="2" fill="none" transform="rotate(260 527.16 204.4)" />
  <path id="slot.mid.right.red.path" d="M 633.7328491210938 193.20587158203125 A 85 65 0 0 1 718.7328491210938 268.20587158203125" stroke="#111111" stroke-width="2" fill="none" />
  <circle id="slot.mid.right.center.circle" cx="645" cy="405" r="5" stroke="#111111" stroke-width="2" fill="#e91e63" />
  <path id="slot.mid.mid.arc.copy4.path" d="M 470 366 A 140 140 60 61 61 550 286" stroke="#111111" stroke-width="2" fill="none" transform="rotate(255 410 226)" />
  <path id="slot.mid.right.arc.copy1.path" d="M 593.1247253417969 530.2952117919922 A 80 80 0 1 1 673.1247253417969 450.2952117919922" stroke="#111111" stroke-width="2" fill="none" transform="rotate(260 477.77 509.56)" />
  <path id="slot.mid.right.arc.copy2.path" d="M 581.9780883789062 209.81005859375 A 80 80 0 1 1 661.9780883789062 129.81005859375" stroke="#111111" stroke-width="2" fill="none" transform="rotate(260 727.9 241.23)" />
  <line id="slot.mid.mid.red.line" x1="385" y1="325" x2="480" y2="395" stroke="#111111" stroke-width="2" />
</svg>
