<?xml version="1.0" encoding="UTF-8"?>
<svg xmlns="http://www.w3.org/2000/svg" width="920" height="560" viewBox="0 0 920 560">
  <metadata><problem_id>S3_초등_3_008658</problem_id></metadata>
  <rect x="0" y="0" width="920" height="560" fill="#FFFFFF" />
  <text id="slot.q1.text" x="20" y="30" max_width="792" fill="#111111" font-family="Noto Sans KR, sans-serif" font-size="28">33.  주어진 모양을 그리기 위하여 컴퍼스의 침을 꽂아야 할 곳을 모두 선택</text>
  <text id="slot.q2.text" x="20" y="64" max_width="792" fill="#111111" font-family="Noto Sans KR, sans-serif" font-size="28">해 보세요.</text>
  <text id="slot.q3.text" x="20" y="96" max_width="792" fill="#111111" font-family="Noto Sans KR, sans-serif" font-size="28"></text>
  <circle id="slot.circle1.circle" cx="352" cy="271" r="31" stroke="#111111" stroke-width="2" fill="none" />
  <circle id="slot.circle2.circle" cx="384" cy="271" r="63" stroke="#111111" stroke-width="2" fill="none" />
  <circle id="slot.circle3.circle" cx="416" cy="271" r="95" stroke="#111111" stroke-width="2" fill="none" />
  <circle id="slot.circle4.circle" cx="448" cy="271" r="127" stroke="#111111" stroke-width="2" fill="none" />
  <circle id="slot.pt1.circle" cx="352" cy="271" r="4" stroke="#111111" stroke-width="2" fill="#E91E63" />
  <circle id="slot.pt2.circle" cx="384" cy="271" r="4" stroke="#111111" stroke-width="2" fill="#E91E63" />
  <circle id="slot.pt3.circle" cx="416" cy="271" r="4" stroke="#111111" stroke-width="2" fill="#E91E63" />
  <circle id="slot.pt4.circle" cx="448" cy="271" r="4" stroke="#111111" stroke-width="2" fill="#E91E63" />
  <line id="slot.grid.v1.line" x1="320" y1="110" x2="320" y2="434" stroke="#9AA0A6" stroke-width="1.2" stroke-dasharray="5 3" />
  <line id="slot.grid.v2.line" x1="352" y1="110" x2="352" y2="434" stroke="#9AA0A6" stroke-width="1.2" stroke-dasharray="5 3" />
  <line id="slot.grid.v3.line" x1="384" y1="110" x2="384" y2="434" stroke="#9AA0A6" stroke-width="1.2" stroke-dasharray="5 3" />
  <line id="slot.grid.v4.line" x1="416" y1="110" x2="416" y2="434" stroke="#9AA0A6" stroke-width="1.2" stroke-dasharray="5 3" />
  <line id="slot.grid.v5.line" x1="448" y1="110" x2="448" y2="434" stroke="#9AA0A6" stroke-width="1.2" stroke-dasharray="5 3" />
  <line id="slot.grid.v6.line" x1="480" y1="110" x2="480" y2="434" stroke="#9AA0A6" stroke-width="1.2" stroke-dasharray="5 3" />
  <line id="slot.grid.v7.line" x1="512" y1="110" x2="512" y2="434" stroke="#9AA0A6" stroke-width="1.2" stroke-dasharray="5 3" />
  <line id="slot.grid.v8.line" x1="544" y1="110" x2="544" y2="434" stroke="#9AA0A6" stroke-width="1.2" stroke-dasharray="5 3" />
  <line id="slot.grid.v9.line" x1="576" y1="110" x2="576" y2="434" stroke="#9AA0A6" stroke-width="1.2" stroke-dasharray="5 3" />
  <line id="slot.grid.v10.line" x1="608" y1="110" x2="608" y2="434" stroke="#9AA0A6" stroke-width="1.2" stroke-dasharray="5 3" />
  <line id="slot.grid.v11.line" x1="640" y1="110" x2="640" y2="434" stroke="#9AA0A6" stroke-width="1.2" stroke-dasharray="5 3" />
  <line id="slot.grid.h1.line" x1="320" y1="110" x2="640" y2="110" stroke="#9AA0A6" stroke-width="1.2" stroke-dasharray="5 3" />
  <line id="slot.grid.h2.line" x1="320" y1="142" x2="640" y2="142" stroke="#9AA0A6" stroke-width="1.2" stroke-dasharray="5 3" />
  <line id="slot.grid.h3.line" x1="320" y1="174" x2="640" y2="174" stroke="#9AA0A6" stroke-width="1.2" stroke-dasharray="5 3" />
  <line id="slot.grid.h4.line" x1="320" y1="206" x2="640" y2="206" stroke="#9AA0A6" stroke-width="1.2" stroke-dasharray="5 3" />
  <line id="slot.grid.h5.line" x1="320" y1="238" x2="640" y2="238" stroke="#9AA0A6" stroke-width="1.2" stroke-dasharray="5 3" />
  <line id="slot.grid.h6.line" x1="320" y1="270" x2="640" y2="270" stroke="#9AA0A6" stroke-width="1.2" stroke-dasharray="5 3" />
  <line id="slot.grid.h7.line" x1="320" y1="302" x2="640" y2="302" stroke="#9AA0A6" stroke-width="1.2" stroke-dasharray="5 3" />
  <line id="slot.grid.h8.line" x1="320" y1="334" x2="640" y2="334" stroke="#9AA0A6" stroke-width="1.2" stroke-dasharray="5 3" />
  <line id="slot.grid.h9.line" x1="320" y1="366" x2="640" y2="366" stroke="#9AA0A6" stroke-width="1.2" stroke-dasharray="5 3" />
  <line id="slot.grid.h10.line" x1="320" y1="398" x2="640" y2="398" stroke="#9AA0A6" stroke-width="1.2" stroke-dasharray="5 3" />
  <line id="slot.grid.h11.line" x1="320" y1="430" x2="640" y2="430" stroke="#9AA0A6" stroke-width="1.2" stroke-dasharray="5 3" />
  <text id="slot.lb1.text" x="336" y="254" max_width="792" fill="#111111" font-family="Noto Sans KR, sans-serif" font-size="24">ㄱ</text>
  <text id="slot.lb2.text" x="368" y="254" max_width="792" fill="#111111" font-family="Noto Sans KR, sans-serif" font-size="24">ㄴ</text>
  <text id="slot.lb3.text" x="400" y="254" max_width="792" fill="#111111" font-family="Noto Sans KR, sans-serif" font-size="24">ㄷ</text>
  <text id="slot.lb4.text" x="432" y="254" max_width="792" fill="#111111" font-family="Noto Sans KR, sans-serif" font-size="24">ㄹ</text>
</svg>
