<?xml version="1.0" encoding="UTF-8"?>
<svg xmlns="http://www.w3.org/2000/svg" width="737" height="349" viewBox="0 0 737 349">
  <metadata><problem_id>S3_초등_3_009026</problem_id></metadata>
  <rect x="0" y="0" width="737" height="349" fill="#FFFFFF" />
  <line id="slot.top.tri.ga.a.line" x1="139" y1="40" x2="169" y2="108" stroke="#111111" stroke-width="2" />
  <line id="slot.top.tri.ga.b.line" x1="169" y1="108" x2="113" y2="108" stroke="#111111" stroke-width="2" />
  <line id="slot.top.tri.ga.c.line" x1="113" y1="108" x2="139" y2="40" stroke="#111111" stroke-width="2" />
  <line id="slot.top.tri.na.a.line" x1="284" y1="39" x2="284" y2="108" stroke="#111111" stroke-width="2" />
  <line id="slot.top.tri.na.b.line" x1="284" y1="39" x2="363" y2="108" stroke="#111111" stroke-width="2" />
  <line id="slot.top.tri.na.c.line" x1="284" y1="108" x2="363" y2="108" stroke="#111111" stroke-width="2" />
  <line id="slot.top.tri.da.a.line" x1="447" y1="50" x2="494" y2="108" stroke="#111111" stroke-width="2" />
  <line id="slot.top.tri.da.b.line" x1="494" y1="108" x2="428" y2="108" stroke="#111111" stroke-width="2" />
  <line id="slot.top.tri.da.c.line" x1="428" y1="108" x2="447" y2="50" stroke="#111111" stroke-width="2" />
  <line id="slot.top.tri.ra.a.line" x1="610" y1="40" x2="696" y2="40" stroke="#111111" stroke-width="2" />
  <line id="slot.top.tri.ra.b.line" x1="696" y1="40" x2="696" y2="109" stroke="#111111" stroke-width="2" />
  <line id="slot.top.tri.ra.c.line" x1="610" y1="40" x2="696" y2="109" stroke="#111111" stroke-width="2" />
  <text id="slot.top.title.text" x="8" y="22" fill="#111111" font-family="Noto Sans KR, sans-serif" font-size="28">□ 64. 삼각형을 보고 알맞은 기호를 모두 선택하세요.</text>
  <text id="slot.top.label.ga.text" x="100" y="49" fill="#111111" font-family="Noto Sans KR, sans-serif" font-size="28">가</text>
  <text id="slot.top.label.na.text" x="264" y="49" fill="#111111" font-family="Noto Sans KR, sans-serif" font-size="28">나</text>
  <text id="slot.top.label.da.text" x="426" y="49" fill="#111111" font-family="Noto Sans KR, sans-serif" font-size="28">다</text>
  <text id="slot.top.label.ra.text" x="587" y="49" fill="#111111" font-family="Noto Sans KR, sans-serif" font-size="28">라</text>
  <line id="slot.bottom.tri.ga.a.line" x1="137" y1="157" x2="167" y2="225" stroke="#111111" stroke-width="2" />
  <line id="slot.bottom.tri.ga.b.line" x1="167" y1="225" x2="109" y2="225" stroke="#111111" stroke-width="2" />
  <line id="slot.bottom.tri.ga.c.line" x1="109" y1="225" x2="137" y2="157" stroke="#111111" stroke-width="2" />
  <line id="slot.bottom.tri.na.a.line" x1="283" y1="157" x2="283" y2="225" stroke="#111111" stroke-width="2" />
  <line id="slot.bottom.tri.na.b.line" x1="283" y1="157" x2="359" y2="225" stroke="#111111" stroke-width="2" />
  <line id="slot.bottom.tri.na.c.line" x1="283" y1="225" x2="359" y2="225" stroke="#111111" stroke-width="2" />
  <line id="slot.bottom.tri.da.a.line" x1="444" y1="169" x2="494" y2="225" stroke="#111111" stroke-width="2" />
  <line id="slot.bottom.tri.da.b.line" x1="494" y1="225" x2="427" y2="225" stroke="#111111" stroke-width="2" />
  <line id="slot.bottom.tri.da.c.line" x1="427" y1="225" x2="444" y2="169" stroke="#111111" stroke-width="2" />
  <line id="slot.bottom.tri.ra.a.line" x1="611" y1="159" x2="697" y2="159" stroke="#111111" stroke-width="2" />
  <line id="slot.bottom.tri.ra.b.line" x1="697" y1="159" x2="697" y2="228" stroke="#111111" stroke-width="2" />
  <line id="slot.bottom.tri.ra.c.line" x1="611" y1="159" x2="697" y2="228" stroke="#111111" stroke-width="2" />
  <text id="slot.bottom.title.text" x="8" y="138" fill="#111111" font-family="Noto Sans KR, sans-serif" font-size="28">□ 64. 삼각형을 보고 알맞은 기호를 모두 선택하세요.</text>
  <text id="slot.bottom.label.ga.text" x="100" y="166" fill="#111111" font-family="Noto Sans KR, sans-serif" font-size="28">가</text>
  <text id="slot.bottom.label.na.text" x="263" y="166" fill="#111111" font-family="Noto Sans KR, sans-serif" font-size="28">나</text>
  <text id="slot.bottom.label.da.text" x="426" y="166" fill="#111111" font-family="Noto Sans KR, sans-serif" font-size="28">다</text>
  <text id="slot.bottom.label.ra.text" x="589" y="166" fill="#111111" font-family="Noto Sans KR, sans-serif" font-size="28">라</text>
</svg>
