<?xml version="1.0" encoding="UTF-8"?>
<svg xmlns="http://www.w3.org/2000/svg" width="840" height="648" viewBox="0 0 840 648">
  <metadata><problem_id>S3_초등_3_008728</problem_id></metadata>
  <rect x="0" y="0" width="840" height="648" fill="#FFFFFF" />
  <text id="slot.header.text.text" x="26" y="28" fill="#111111" font-family="Noto Sans KR, sans-serif" font-size="28">그림을 보고 바르게 말한 사람을 선택해 보세요.</text>
  <rect id="slot.cars.outer.rect" x="45" y="410" width="745" height="205" fill="#ffffff" stroke="#111111" stroke-width="1.5" rx="14" ry="14" />
  <rect id="slot.cars.group1.rect" x="625" y="65" width="170" height="45" fill="#ffffff" stroke="#dc2626" stroke-width="1.5" rx="6" ry="6" />
  <rect id="slot.cars.group2.rect" x="111" y="203" width="165" height="42" fill="#ffffff" stroke="#dc2626" stroke-width="1.5" rx="6" ry="6" />
  <rect id="slot.cars.group3.rect" x="433" y="68" width="165" height="42" fill="#ffffff" stroke="#dc2626" stroke-width="1.5" rx="6" ry="6" />
  <rect id="slot.cars.group4.rect" x="60" y="65" width="175" height="45" fill="#ffffff" stroke="#dc2626" stroke-width="1.5" rx="6" ry="6" />
  <rect id="slot.cars.group5.rect" x="337.33689880371094" y="146.14437866210938" width="163" height="42" fill="#ffffff" stroke="#dc2626" stroke-width="1.5" rx="6" ry="6" />
  <rect id="slot.cars.group7.rect" x="343.71514892578125" y="205.5775146484375" width="163" height="42" fill="#ffffff" stroke="#dc2626" stroke-width="1.5" rx="6" ry="6" />
  <rect id="slot.speech.left.rect" x="90" y="460" width="330" height="155" fill="#ffffff" stroke="#111111" stroke-width="1.5" rx="72" ry="72" />
  <polygon id="slot.person.left.body.polygon" points="228,600 284,600 274,564 238,564" stroke="none" stroke-width="2" fill="#F06AA0" />
  <circle id="slot.person.left.head.circle" cx="256" cy="527" r="28" stroke="none" stroke-width="2" fill="#ffd9ad" />
  <path id="slot.person.left.hair.cap.path" d="M 228 526 C 230 497 281 492 285 526 C 266 510 244 517 228 526 Z" stroke="none" stroke-width="2" fill="#8A3F32" />
  <path id="slot.person.left.smile.path" d="M 249 543 Q 256 549 263 543" stroke="#b86e39" stroke-width="1.3" fill="none" />
  <polygon id="slot.person.left.bow.left.polygon" points="249,570 230,562 242,583" stroke="none" stroke-width="2" fill="#D487D8" />
  <polygon id="slot.person.left.bow.right.polygon" points="263,570 282,562 270,583" stroke="none" stroke-width="2" fill="#D487D8" />
  <circle id="slot.person.left.eye.left.circle" cx="246" cy="531" r="2.3" stroke="none" stroke-width="2" fill="#2b2118" />
  <circle id="slot.person.left.eye.right.circle" cx="266" cy="531" r="2.3" stroke="none" stroke-width="2" fill="#2b2118" />
  <text id="slot.speech.left.text1.text" x="204" y="377" fill="#111111" font-family="Noto Sans KR, sans-serif" font-size="28">색칠한 부분은</text>
  <text id="slot.speech.left.text2.text" x="43" y="424" fill="#111111" font-family="Noto Sans KR, sans-serif" font-size="28">7묶음 중에서 3묶음이므로</text>
  <text id="slot.speech.left.text3.text" x="96" y="471" fill="#111111" font-family="Noto Sans KR, sans-serif" font-size="28">전체의 3/7이야.</text>
  <rect id="slot.speech.right.rect" x="390" y="355" width="350" height="155" fill="#ffffff" stroke="#111111" stroke-width="1.5" rx="72" ry="72" />
  <polygon id="slot.person.right.body.polygon" points="588,600 644,600 634,564 598,564" stroke="none" stroke-width="2" fill="#F7B51E" />
  <circle id="slot.person.right.head.circle" cx="616" cy="527" r="28" stroke="none" stroke-width="2" fill="#ffd9ad" />
  <path id="slot.person.right.hair.cap.path" d="M 588 526 C 590 497 641 492 645 526 C 626 510 604 517 588 526 Z" stroke="none" stroke-width="2" fill="#C77A22" />
  <path id="slot.person.right.smile.path" d="M 609 543 Q 616 549 623 543" stroke="#b86e39" stroke-width="1.3" fill="none" />
  <path id="slot.person.right.tail.left.path" d="M 589 524 C 564 528 578 569 566 575" stroke="#C77A22" stroke-width="7" fill="none" />
  <path id="slot.person.right.tail.right.path" d="M 643 524 C 668 528 654 569 666 575" stroke="#C77A22" stroke-width="7" fill="none" />
  <polygon id="slot.person.right.bow.left.polygon" points="609,570 590,562 602,583" stroke="none" stroke-width="2" fill="#E7A2C2" />
  <polygon id="slot.person.right.bow.right.polygon" points="623,570 642,562 630,583" stroke="none" stroke-width="2" fill="#E7A2C2" />
  <circle id="slot.person.right.eye.left.circle" cx="606" cy="531" r="2.3" stroke="none" stroke-width="2" fill="#2b2118" />
  <circle id="slot.person.right.eye.right.circle" cx="626" cy="531" r="2.3" stroke="none" stroke-width="2" fill="#2b2118" />
  <text id="slot.speech.right.text1.text" x="496" y="392" fill="#111111" font-family="Noto Sans KR, sans-serif" font-size="28">색칠하지 않은 부분은</text>
  <text id="slot.speech.right.text2.text" x="479" y="429" fill="#111111" font-family="Noto Sans KR, sans-serif" font-size="28">7묶음 중에서 4묶음이므로</text>
  <text id="slot.speech.right.text3.text" x="547" y="471" fill="#111111" font-family="Noto Sans KR, sans-serif" font-size="28">전체의 4/7이야.</text>
  <path id="slot.inserted.car.1.body.path" d="M 70 90 Q 70 80 80 80 L 90 70 L 115 70 L 125 80 L 135 80 Q 140 85 145 95 L 140 100 L 70 100 Q 70 95 70 90 Z" stroke="#3E9B6D" stroke-width="2" fill="#69BD58" />
  <path id="slot.inserted.car.1.roof.path" d="M 85 80 L 95 70 L 110 70 L 120 80 Z" stroke="#2D9A7A" stroke-width="1.5" fill="#A7E3D3" />
  <polygon id="slot.inserted.car.1.window.left.polygon" points="90,80 95,75 100,75 100,80" stroke="#2D9A7A" stroke-width="1" fill="#E8FFF8" />
  <polygon id="slot.inserted.car.1.window.right.polygon" points="105,75 110,75 115,80 105,80" stroke="#2D9A7A" stroke-width="1" fill="#E8FFF8" />
  <path id="slot.inserted.car.1.body.copy1.path" d="M 155 90 Q 155 80 165 80 L 175 70 L 200 70 L 210 80 L 220 80 Q 225 85 230 95 L 225 100 L 155 100 Q 155 95 155 90 Z" stroke="#3E9B6D" stroke-width="2" fill="#69BD58" />
  <path id="slot.inserted.car.1.roof.copy1.path" d="M 170 80 L 180 70 L 195 70 L 205 80 Z" stroke="#2D9A7A" stroke-width="1.5" fill="#A7E3D3" />
  <polygon id="slot.inserted.car.1.window.left.copy1.polygon" points="175,80 180,75 185,75 185,80" stroke="#2D9A7A" stroke-width="1" fill="#E8FFF8" />
  <polygon id="slot.inserted.car.1.window.right.copy1.polygon" points="190,75 195,75 200,80 190,80" stroke="#2D9A7A" stroke-width="1" fill="#E8FFF8" />
  <path id="slot.inserted.car.1.body.copy2.path" d="M 245 90 Q 245 80 255 80 L 265 70 L 290 70 L 300 80 L 310 80 Q 315 85 320 95 L 315 100 L 245 100 Q 245 95 245 90 Z" stroke="#3E9B6D" stroke-width="2" fill="#69BD58" />
  <path id="slot.inserted.car.1.roof.copy2.path" d="M 260 80 L 270 70 L 285 70 L 295 80 Z" stroke="#2D9A7A" stroke-width="1.5" fill="#A7E3D3" />
  <polygon id="slot.inserted.car.1.window.left.copy2.polygon" points="265,80 270,75 275,75 275,80" stroke="#2D9A7A" stroke-width="1" fill="#E8FFF8" />
  <polygon id="slot.inserted.car.1.window.right.copy2.polygon" points="280,75 285,75 290,80 280,80" stroke="#2D9A7A" stroke-width="1" fill="#E8FFF8" />
  <path id="slot.inserted.car.1.body.copy4.path" d="M 335 89 Q 335 79 345 79 L 355 69 L 380 69 L 390 79 L 400 79 Q 405 84 410 94 L 405 99 L 335 99 Q 335 94 335 89 Z" stroke="#3E9B6D" stroke-width="2" fill="#69BD58" />
  <path id="slot.inserted.car.1.roof.copy4.path" d="M 350 79 L 360 69 L 375 69 L 385 79 Z" stroke="#2D9A7A" stroke-width="1.5" fill="#A7E3D3" />
  <polygon id="slot.inserted.car.1.window.left.copy4.polygon" points="355,79 360,74 365,74 365,79" stroke="#2D9A7A" stroke-width="1" fill="#E8FFF8" />
  <polygon id="slot.inserted.car.1.window.right.copy4.polygon" points="370,74 375,74 380,79 370,79" stroke="#2D9A7A" stroke-width="1" fill="#E8FFF8" />
  <path id="slot.inserted.car.1.body.copy1.copy4.path" d="M 438 89 Q 438 79 448 79 L 458 69 L 483 69 L 493 79 L 503 79 Q 508 84 513 94 L 508 99 L 438 99 Q 438 94 438 89 Z" stroke="#3E9B6D" stroke-width="2" fill="#69BD58" />
  <path id="slot.inserted.car.1.roof.copy1.copy4.path" d="M 453 79 L 463 69 L 478 69 L 488 79 Z" stroke="#2D9A7A" stroke-width="1.5" fill="#A7E3D3" />
  <polygon id="slot.inserted.car.1.window.left.copy1.copy4.polygon" points="458,79 463,74 468,74 468,79" stroke="#2D9A7A" stroke-width="1" fill="#E8FFF8" />
  <polygon id="slot.inserted.car.1.window.right.copy1.copy4.polygon" points="473,74 478,74 483,79 473,79" stroke="#2D9A7A" stroke-width="1" fill="#E8FFF8" />
  <path id="slot.inserted.car.1.body.copy2.copy4.path" d="M 525 89 Q 525 79 535 79 L 545 69 L 570 69 L 580 79 L 590 79 Q 595 84 600 94 L 595 99 L 525 99 Q 525 94 525 89 Z" stroke="#3E9B6D" stroke-width="2" fill="#69BD58" />
  <path id="slot.inserted.car.1.roof.copy2.copy4.path" d="M 540 79 L 550 69 L 565 69 L 575 79 Z" stroke="#2D9A7A" stroke-width="1.5" fill="#A7E3D3" />
  <polygon id="slot.inserted.car.1.window.left.copy2.copy4.polygon" points="545,79 550,74 555,74 555,79" stroke="#2D9A7A" stroke-width="1" fill="#E8FFF8" />
  <polygon id="slot.inserted.car.1.window.right.copy2.copy4.polygon" points="560,74 565,74 570,79 560,79" stroke="#2D9A7A" stroke-width="1" fill="#E8FFF8" />
  <path id="slot.inserted.car.1.body.copy2.copy4.copy5.path" d="M 148 170 Q 148 160 158 160 L 168 150 L 193 150 L 203 160 L 213 160 Q 218 165 223 175 L 218 180 L 148 180 Q 148 175 148 170 Z" stroke="#3E9B6D" stroke-width="2" fill="#ffffff" />
  <path id="slot.inserted.car.1.roof.copy2.copy4.copy5.path" d="M 163 160 L 173 150 L 188 150 L 198 160 Z" stroke="#2D9A7A" stroke-width="1.5" fill="#A7E3D3" />
  <polygon id="slot.inserted.car.1.window.left.copy2.copy4.copy5.polygon" points="168,160 173,155 178,155 178,160" stroke="#2D9A7A" stroke-width="1" fill="#E8FFF8" />
  <polygon id="slot.inserted.car.1.window.right.copy2.copy4.copy5.polygon" points="183,155 188,155 193,160 183,160" stroke="#2D9A7A" stroke-width="1" fill="#E8FFF8" />
  <path id="slot.inserted.car.1.body.copy2.copy4.copy5.copy7.path" d="M 238 170 Q 238 160 248 160 L 258 150 L 283 150 L 293 160 L 303 160 Q 308 165 313 175 L 308 180 L 238 180 Q 238 175 238 170 Z" stroke="#3E9B6D" stroke-width="2" fill="#ffffff" />
  <path id="slot.inserted.car.1.roof.copy2.copy4.copy5.copy7.path" d="M 253 160 L 263 150 L 278 150 L 288 160 Z" stroke="#2D9A7A" stroke-width="1.5" fill="#A7E3D3" />
  <polygon id="slot.inserted.car.1.window.left.copy2.copy4.copy5.copy7.polygon" points="258,160 263,155 268,155 268,160" stroke="#2D9A7A" stroke-width="1" fill="#E8FFF8" />
  <polygon id="slot.inserted.car.1.window.right.copy2.copy4.copy5.copy7.polygon" points="273,155 278,155 283,160 273,160" stroke="#2D9A7A" stroke-width="1" fill="#E8FFF8" />
  <path id="slot.inserted.car.1.body.copy2.copy4.copy5.copy8.copy9.path" d="M 340 170 Q 340 160 350 160 L 360 150 L 385 150 L 395 160 L 405 160 Q 410 165 415 175 L 410 180 L 340 180 Q 340 175 340 170 Z" stroke="#3E9B6D" stroke-width="2" fill="#ffffff" />
  <path id="slot.inserted.car.1.roof.copy2.copy4.copy5.copy8.copy9.path" d="M 355 160 L 365 150 L 380 150 L 390 160 Z" stroke="#2D9A7A" stroke-width="1.5" fill="#A7E3D3" />
  <polygon id="slot.inserted.car.1.window.left.copy2.copy4.copy5.copy8.copy9.polygon" points="360,160 365,155 370,155 370,160" stroke="#2D9A7A" stroke-width="1" fill="#E8FFF8" />
  <polygon id="slot.inserted.car.1.window.right.copy2.copy4.copy5.copy8.copy9.polygon" points="375,155 380,155 385,160 375,160" stroke="#2D9A7A" stroke-width="1" fill="#E8FFF8" />
  <path id="slot.inserted.car.1.body.copy2.copy4.copy5.copy7.copy8.copy9.path" d="M 430 170 Q 430 160 440 160 L 450 150 L 475 150 L 485 160 L 495 160 Q 500 165 505 175 L 500 180 L 430 180 Q 430 175 430 170 Z" stroke="#3E9B6D" stroke-width="2" fill="#ffffff" />
  <path id="slot.inserted.car.1.roof.copy2.copy4.copy5.copy7.copy8.copy9.path" d="M 445 160 L 455 150 L 470 150 L 480 160 Z" stroke="#2D9A7A" stroke-width="1.5" fill="#A7E3D3" />
  <polygon id="slot.inserted.car.1.window.left.copy2.copy4.copy5.copy7.copy8.copy9.polygon" points="450,160 455,155 460,155 460,160" stroke="#2D9A7A" stroke-width="1" fill="#E8FFF8" />
  <polygon id="slot.inserted.car.1.window.right.copy2.copy4.copy5.copy7.copy8.copy9.polygon" points="465,155 470,155 475,160 465,160" stroke="#2D9A7A" stroke-width="1" fill="#E8FFF8" />
  <path id="slot.inserted.car.1.body.copy2.copy4.copy5.copy8.copy9.copy4.path" d="M 545 365 Q 545 355 555 355 L 565 345 L 590 345 L 600 355 L 610 355 Q 615 360 620 370 L 615 375 L 545 375 Q 545 370 545 365 Z" stroke="#3E9B6D" stroke-width="2" fill="#ffffff" />
  <path id="slot.inserted.car.1.roof.copy2.copy4.copy5.copy8.copy9.copy4.path" d="M 560 355 L 570 345 L 585 345 L 595 355 Z" stroke="#2D9A7A" stroke-width="1.5" fill="#A7E3D3" />
  <polygon id="slot.inserted.car.1.window.left.copy2.copy4.copy5.copy8.copy9.copy4.polygon" points="565,355 570,350 575,350 575,355" stroke="#2D9A7A" stroke-width="1" fill="#E8FFF8" />
  <polygon id="slot.inserted.car.1.window.right.copy2.copy4.copy5.copy8.copy9.copy4.polygon" points="580,350 585,350 590,355 580,355" stroke="#2D9A7A" stroke-width="1" fill="#E8FFF8" />
  <path id="slot.inserted.car.1.body.copy2.copy4.copy5.copy7.copy8.copy9.copy4.path" d="M 635 365 Q 635 355 645 355 L 655 345 L 680 345 L 690 355 L 700 355 Q 705 360 710 370 L 705 375 L 635 375 Q 635 370 635 365 Z" stroke="#3E9B6D" stroke-width="2" fill="#ffffff" />
  <path id="slot.inserted.car.1.roof.copy2.copy4.copy5.copy7.copy8.copy9.copy4.path" d="M 650 355 L 660 345 L 675 345 L 685 355 Z" stroke="#2D9A7A" stroke-width="1.5" fill="#A7E3D3" />
  <polygon id="slot.inserted.car.1.window.left.copy2.copy4.copy5.copy7.copy8.copy9.copy4.polygon" points="655,355 660,350 665,350 665,355" stroke="#2D9A7A" stroke-width="1" fill="#E8FFF8" />
  <polygon id="slot.inserted.car.1.window.right.copy2.copy4.copy5.copy7.copy8.copy9.copy4.polygon" points="670,350 675,350 680,355 670,355" stroke="#2D9A7A" stroke-width="1" fill="#E8FFF8" />
  <path id="slot.inserted.car.1.body.copy2.copy4.copy5.copy8.copy9.copy6.path" d="M 575 395 Q 575 385 585 385 L 595 375 L 620 375 L 630 385 L 640 385 Q 645 390 650 400 L 645 405 L 575 405 Q 575 400 575 395 Z" stroke="#3E9B6D" stroke-width="2" fill="#ffffff" />
  <path id="slot.inserted.car.1.roof.copy2.copy4.copy5.copy8.copy9.copy6.path" d="M 590 385 L 600 375 L 615 375 L 625 385 Z" stroke="#2D9A7A" stroke-width="1.5" fill="#A7E3D3" />
  <polygon id="slot.inserted.car.1.window.left.copy2.copy4.copy5.copy8.copy9.copy6.polygon" points="595,385 600,380 605,380 605,385" stroke="#2D9A7A" stroke-width="1" fill="#E8FFF8" />
  <polygon id="slot.inserted.car.1.window.right.copy2.copy4.copy5.copy8.copy9.copy6.polygon" points="610,380 615,380 620,385 610,385" stroke="#2D9A7A" stroke-width="1" fill="#E8FFF8" />
  <path id="slot.inserted.car.1.body.copy2.copy4.copy5.copy7.copy8.copy9.copy6.path" d="M 665 395 Q 665 385 675 385 L 685 375 L 710 375 L 720 385 L 730 385 Q 735 390 740 400 L 735 405 L 665 405 Q 665 400 665 395 Z" stroke="#3E9B6D" stroke-width="2" fill="#ffffff" />
  <path id="slot.inserted.car.1.roof.copy2.copy4.copy5.copy7.copy8.copy9.copy6.path" d="M 680 385 L 690 375 L 705 375 L 715 385 Z" stroke="#2D9A7A" stroke-width="1.5" fill="#A7E3D3" />
  <polygon id="slot.inserted.car.1.window.left.copy2.copy4.copy5.copy7.copy8.copy9.copy6.polygon" points="685,385 690,380 695,380 695,385" stroke="#2D9A7A" stroke-width="1" fill="#E8FFF8" />
  <polygon id="slot.inserted.car.1.window.right.copy2.copy4.copy5.copy7.copy8.copy9.copy6.polygon" points="700,380 705,380 710,385 700,385" stroke="#2D9A7A" stroke-width="1" fill="#E8FFF8" />
  <circle id="slot.inserted.car.1.wheel.left.circle" cx="85" cy="100" r="5" stroke="#1F2937" stroke-width="1.5" fill="#4B5563" />
  <circle id="slot.inserted.car.1.wheel.right.circle" cx="125" cy="100" r="5" stroke="#1F2937" stroke-width="1.5" fill="#4B5563" />
  <circle id="slot.inserted.car.1.hub.left.circle" cx="85" cy="100" r="5" stroke="none" stroke-width="2" fill="#D1D5DB" />
  <circle id="slot.inserted.car.1.hub.right.circle" cx="125" cy="100" r="5" stroke="none" stroke-width="2" fill="#D1D5DB" />
  <circle id="slot.inserted.car.1.wheel.left.copy1.circle" cx="170" cy="100" r="5" stroke="#1F2937" stroke-width="1.5" fill="#4B5563" />
  <circle id="slot.inserted.car.1.wheel.right.copy1.circle" cx="210" cy="100" r="5" stroke="#1F2937" stroke-width="1.5" fill="#4B5563" />
  <circle id="slot.inserted.car.1.hub.left.copy1.circle" cx="170" cy="100" r="5" stroke="#111111" stroke-width="2" fill="#D1D5DB" />
  <circle id="slot.inserted.car.1.hub.right.copy1.circle" cx="210" cy="100" r="5" stroke="#111111" stroke-width="2" fill="#D1D5DB" />
  <circle id="slot.inserted.car.1.wheel.left.copy2.circle" cx="260" cy="100" r="5" stroke="#1F2937" stroke-width="1.5" fill="#4B5563" />
  <circle id="slot.inserted.car.1.wheel.right.copy2.circle" cx="300" cy="100" r="5" stroke="#1F2937" stroke-width="1.5" fill="#4B5563" />
  <circle id="slot.inserted.car.1.hub.left.copy2.circle" cx="260" cy="100" r="5" stroke="#111111" stroke-width="2" fill="#D1D5DB" />
  <circle id="slot.inserted.car.1.hub.right.copy2.circle" cx="300" cy="100" r="5" stroke="#111111" stroke-width="2" fill="#D1D5DB" />
  <circle id="slot.inserted.car.1.wheel.left.copy4.circle" cx="350" cy="99" r="5" stroke="#1F2937" stroke-width="1.5" fill="#4B5563" />
  <circle id="slot.inserted.car.1.wheel.right.copy4.circle" cx="390" cy="99" r="5" stroke="#1F2937" stroke-width="1.5" fill="#4B5563" />
  <circle id="slot.inserted.car.1.hub.left.copy4.circle" cx="350" cy="99" r="5" stroke="#111111" stroke-width="2" fill="#D1D5DB" />
  <circle id="slot.inserted.car.1.hub.right.copy4.circle" cx="390" cy="99" r="5" stroke="#111111" stroke-width="2" fill="#D1D5DB" />
  <circle id="slot.inserted.car.1.wheel.left.copy1.copy4.circle" cx="453" cy="99" r="5" stroke="#1F2937" stroke-width="1.5" fill="#4B5563" />
  <circle id="slot.inserted.car.1.wheel.right.copy1.copy4.circle" cx="493" cy="99" r="5" stroke="#1F2937" stroke-width="1.5" fill="#4B5563" />
  <circle id="slot.inserted.car.1.hub.left.copy1.copy4.circle" cx="453" cy="99" r="5" stroke="#111111" stroke-width="2" fill="#D1D5DB" />
  <circle id="slot.inserted.car.1.hub.right.copy1.copy4.circle" cx="493" cy="99" r="5" stroke="#111111" stroke-width="2" fill="#D1D5DB" />
  <circle id="slot.inserted.car.1.wheel.left.copy2.copy4.circle" cx="540" cy="99" r="5" stroke="#1F2937" stroke-width="1.5" fill="#4B5563" />
  <circle id="slot.inserted.car.1.wheel.right.copy2.copy4.circle" cx="580" cy="99" r="5" stroke="#1F2937" stroke-width="1.5" fill="#4B5563" />
  <circle id="slot.inserted.car.1.hub.left.copy2.copy4.circle" cx="540" cy="99" r="5" stroke="#111111" stroke-width="2" fill="#D1D5DB" />
  <circle id="slot.inserted.car.1.hub.right.copy2.copy4.circle" cx="580" cy="99" r="5" stroke="#111111" stroke-width="2" fill="#D1D5DB" />
  <circle id="slot.inserted.car.1.wheel.left.copy2.copy4.copy5.circle" cx="163" cy="180" r="5" stroke="#1F2937" stroke-width="1.5" fill="#4B5563" />
  <circle id="slot.inserted.car.1.wheel.right.copy2.copy4.copy5.circle" cx="203" cy="180" r="5" stroke="#1F2937" stroke-width="1.5" fill="#4B5563" />
  <circle id="slot.inserted.car.1.hub.left.copy2.copy4.copy5.circle" cx="163" cy="180" r="5" stroke="#111111" stroke-width="2" fill="#D1D5DB" />
  <circle id="slot.inserted.car.1.hub.right.copy2.copy4.copy5.circle" cx="203" cy="180" r="5" stroke="#111111" stroke-width="2" fill="#D1D5DB" />
  <circle id="slot.inserted.car.1.wheel.left.copy2.copy4.copy5.copy7.circle" cx="253" cy="180" r="5" stroke="#1F2937" stroke-width="1.5" fill="#4B5563" />
  <circle id="slot.inserted.car.1.wheel.right.copy2.copy4.copy5.copy7.circle" cx="293" cy="180" r="5" stroke="#1F2937" stroke-width="1.5" fill="#4B5563" />
  <circle id="slot.inserted.car.1.hub.left.copy2.copy4.copy5.copy7.circle" cx="253" cy="180" r="5" stroke="#111111" stroke-width="2" fill="#D1D5DB" />
  <circle id="slot.inserted.car.1.hub.right.copy2.copy4.copy5.copy7.circle" cx="293" cy="180" r="5" stroke="#111111" stroke-width="2" fill="#D1D5DB" />
  <circle id="slot.inserted.car.1.wheel.left.copy2.copy4.copy5.copy8.copy9.circle" cx="355" cy="180" r="5" stroke="#1F2937" stroke-width="1.5" fill="#4B5563" />
  <circle id="slot.inserted.car.1.wheel.right.copy2.copy4.copy5.copy8.copy9.circle" cx="395" cy="180" r="5" stroke="#1F2937" stroke-width="1.5" fill="#4B5563" />
  <circle id="slot.inserted.car.1.hub.left.copy2.copy4.copy5.copy8.copy9.circle" cx="355" cy="180" r="5" stroke="#111111" stroke-width="2" fill="#D1D5DB" />
  <circle id="slot.inserted.car.1.hub.right.copy2.copy4.copy5.copy8.copy9.circle" cx="395" cy="180" r="5" stroke="#111111" stroke-width="2" fill="#D1D5DB" />
  <circle id="slot.inserted.car.1.wheel.left.copy2.copy4.copy5.copy7.copy8.copy9.circle" cx="445" cy="180" r="5" stroke="#1F2937" stroke-width="1.5" fill="#4B5563" />
  <circle id="slot.inserted.car.1.wheel.right.copy2.copy4.copy5.copy7.copy8.copy9.circle" cx="485" cy="180" r="5" stroke="#1F2937" stroke-width="1.5" fill="#4B5563" />
  <circle id="slot.inserted.car.1.hub.left.copy2.copy4.copy5.copy7.copy8.copy9.circle" cx="445" cy="180" r="5" stroke="#111111" stroke-width="2" fill="#D1D5DB" />
  <circle id="slot.inserted.car.1.hub.right.copy2.copy4.copy5.copy7.copy8.copy9.circle" cx="485" cy="180" r="5" stroke="#111111" stroke-width="2" fill="#D1D5DB" />
  <circle id="slot.inserted.car.1.wheel.left.copy2.copy4.copy5.copy8.copy9.copy4.circle" cx="560" cy="375" r="5" stroke="#1F2937" stroke-width="1.5" fill="#4B5563" />
  <circle id="slot.inserted.car.1.wheel.right.copy2.copy4.copy5.copy8.copy9.copy4.circle" cx="600" cy="375" r="5" stroke="#1F2937" stroke-width="1.5" fill="#4B5563" />
  <circle id="slot.inserted.car.1.hub.left.copy2.copy4.copy5.copy8.copy9.copy4.circle" cx="560" cy="375" r="5" stroke="#111111" stroke-width="2" fill="#D1D5DB" />
  <circle id="slot.inserted.car.1.hub.right.copy2.copy4.copy5.copy8.copy9.copy4.circle" cx="600" cy="375" r="5" stroke="#111111" stroke-width="2" fill="#D1D5DB" />
  <circle id="slot.inserted.car.1.wheel.left.copy2.copy4.copy5.copy7.copy8.copy9.copy4.circle" cx="650" cy="375" r="5" stroke="#1F2937" stroke-width="1.5" fill="#4B5563" />
  <circle id="slot.inserted.car.1.wheel.right.copy2.copy4.copy5.copy7.copy8.copy9.copy4.circle" cx="690" cy="375" r="5" stroke="#1F2937" stroke-width="1.5" fill="#4B5563" />
  <circle id="slot.inserted.car.1.hub.left.copy2.copy4.copy5.copy7.copy8.copy9.copy4.circle" cx="650" cy="375" r="5" stroke="#111111" stroke-width="2" fill="#D1D5DB" />
  <circle id="slot.inserted.car.1.hub.right.copy2.copy4.copy5.copy7.copy8.copy9.copy4.circle" cx="690" cy="375" r="5" stroke="#111111" stroke-width="2" fill="#D1D5DB" />
  <circle id="slot.inserted.car.1.wheel.left.copy2.copy4.copy5.copy8.copy9.copy6.circle" cx="590" cy="405" r="5" stroke="#1F2937" stroke-width="1.5" fill="#4B5563" />
  <circle id="slot.inserted.car.1.wheel.right.copy2.copy4.copy5.copy8.copy9.copy6.circle" cx="630" cy="405" r="5" stroke="#1F2937" stroke-width="1.5" fill="#4B5563" />
  <circle id="slot.inserted.car.1.hub.left.copy2.copy4.copy5.copy8.copy9.copy6.circle" cx="590" cy="405" r="5" stroke="#111111" stroke-width="2" fill="#D1D5DB" />
  <circle id="slot.inserted.car.1.hub.right.copy2.copy4.copy5.copy8.copy9.copy6.circle" cx="630" cy="405" r="5" stroke="#111111" stroke-width="2" fill="#D1D5DB" />
  <circle id="slot.inserted.car.1.wheel.left.copy2.copy4.copy5.copy7.copy8.copy9.copy6.circle" cx="680" cy="405" r="5" stroke="#1F2937" stroke-width="1.5" fill="#4B5563" />
  <circle id="slot.inserted.car.1.wheel.right.copy2.copy4.copy5.copy7.copy8.copy9.copy6.circle" cx="720" cy="405" r="5" stroke="#1F2937" stroke-width="1.5" fill="#4B5563" />
  <circle id="slot.inserted.car.1.hub.left.copy2.copy4.copy5.copy7.copy8.copy9.copy6.circle" cx="680" cy="405" r="5" stroke="#111111" stroke-width="2" fill="#D1D5DB" />
  <circle id="slot.inserted.car.1.hub.right.copy2.copy4.copy5.copy7.copy8.copy9.copy6.circle" cx="720" cy="405" r="5" stroke="#111111" stroke-width="2" fill="#D1D5DB" />
</svg>
