<?xml version="1.0" encoding="UTF-8"?>
<svg xmlns="http://www.w3.org/2000/svg" width="940" height="366" viewBox="0 0 940 366">
  <metadata><problem_id>S3_초등_3_008657</problem_id></metadata>
  <rect x="0" y="0" width="940" height="366" fill="#FFFFFF" />
  <text id="slot.title.mark.text" x="12" y="22" max_width="812" fill="#111111" font-family="Noto Sans KR, sans-serif" font-size="28">□</text>
  <text id="slot.title.no.text" x="36" y="22" max_width="812" fill="#111111" font-family="Noto Sans KR, sans-serif" font-size="28">32.</text>
  <text id="slot.title.text.text" x="82" y="22" max_width="812" fill="#111111" font-family="Noto Sans KR, sans-serif" font-size="28">원을 그릴 때 컴퍼스를 바르게 사용하는 것을 찾아 선택해보세요.</text>
  <rect id="slot.box.rect" x="203" y="52" width="596" height="191" fill="none" stroke="#18B7AF" stroke-width="2" />
  <circle id="slot.opt.a.circle.circle" cx="292" cy="162" r="40" stroke="#A9A9A9" stroke-width="1.5" fill="none" />
  <circle id="slot.opt.a.center.circle" cx="293" cy="154" r="3" stroke="#111111" stroke-width="2" fill="#E91E63" />
  <circle id="slot.opt.a.center2.circle" cx="292" cy="179" r="4" stroke="#666666" stroke-width="1.5" fill="none" />
  <circle id="slot.opt.b.circle.circle" cx="522" cy="162" r="40" stroke="#A9A9A9" stroke-width="1.5" fill="none" />
  <circle id="slot.opt.b.center.circle" cx="523" cy="154" r="3" stroke="#111111" stroke-width="2" fill="#E91E63" />
  <circle id="slot.opt.b.center2.circle" cx="522" cy="179" r="4" stroke="#666666" stroke-width="1.5" fill="none" />
  <circle id="slot.opt.c.circle.circle" cx="706" cy="162" r="40" stroke="#A9A9A9" stroke-width="1.5" fill="none" />
  <circle id="slot.opt.c.center.circle" cx="707" cy="154" r="3" stroke="#111111" stroke-width="2" fill="#E91E63" />
  <circle id="slot.opt.c.center2.circle" cx="706" cy="179" r="4" stroke="#666666" stroke-width="1.5" fill="none" />
  <line id="slot.opt.a.compass.left.line" x1="291" y1="102" x2="259" y2="152" stroke="#95A5A6" stroke-width="2" />
  <line id="slot.opt.a.compass.right.line" x1="291" y1="102" x2="327" y2="151" stroke="#95A5A6" stroke-width="2" />
  <line id="slot.opt.a.compass.tip.line" x1="338" y1="107" x2="338" y2="170" stroke="#B6B84B" stroke-width="4" />
  <line id="slot.opt.a.compass.lead.line" x1="338" y1="158" x2="338" y2="168" stroke="#E2AF4A" stroke-width="2.5" />
  <line id="slot.opt.b.compass.left.line" x1="521" y1="102" x2="507" y2="151" stroke="#95A5A6" stroke-width="2" />
  <line id="slot.opt.b.compass.right.line" x1="521" y1="102" x2="551" y2="152" stroke="#95A5A6" stroke-width="2" />
  <line id="slot.opt.b.compass.tip.line" x1="559" y1="107" x2="559" y2="170" stroke="#B6B84B" stroke-width="4" />
  <line id="slot.opt.b.compass.lead.line" x1="559" y1="158" x2="559" y2="168" stroke="#E2AF4A" stroke-width="2.5" />
  <line id="slot.opt.c.compass.left.line" x1="705" y1="102" x2="691" y2="151" stroke="#95A5A6" stroke-width="2" />
  <line id="slot.opt.c.compass.right.line" x1="705" y1="102" x2="734" y2="152" stroke="#95A5A6" stroke-width="2" />
  <line id="slot.opt.c.compass.tip.line" x1="675" y1="107" x2="675" y2="170" stroke="#B6B84B" stroke-width="4" />
  <line id="slot.opt.c.compass.lead.line" x1="675" y1="158" x2="675" y2="168" stroke="#E2AF4A" stroke-width="2.5" />
  <text id="slot.opt.a.label.text" x="242" y="90" max_width="812" fill="#111111" font-family="Noto Sans KR, sans-serif" font-size="28">가</text>
  <text id="slot.opt.b.label.text" x="471" y="90" max_width="812" fill="#111111" font-family="Noto Sans KR, sans-serif" font-size="28">나</text>
  <text id="slot.opt.c.label.text" x="650" y="90" max_width="812" fill="#111111" font-family="Noto Sans KR, sans-serif" font-size="28">다</text>
</svg>
