<?xml version="1.0" encoding="UTF-8"?>
<svg xmlns="http://www.w3.org/2000/svg" width="939" height="593" viewBox="0 0 939 593">
  <metadata><problem_id>S3_초등_3_008684</problem_id></metadata>
  <rect x="0" y="0" width="939" height="593" fill="#FFFFFF" />
  <text id="slot.stem.text" x="10" y="45" fill="#111111" font-family="Noto Sans KR, sans-serif" font-size="30">
    <tspan x="10" dy="0">누름 못과 띠 종이를 이용하여 원을 그렸습니다. 그림을 보고</tspan>
    <tspan x="10" dy="1.2em">알맞은 말을 선택하세요.    </tspan>
  </text>
  <rect id="slot.left.frame.rect" x="115" y="130" width="225" height="215" fill="#ffffff" stroke="#111111" stroke-width="1.5" />
  <circle id="slot.left.circle.circle" cx="230" cy="235" r="105" stroke="#111111" stroke-width="2" fill="none" />
  <path id="slot.left.arrow.1.path" d="M 250 280 C 145 215 90 235 65 330" stroke="#111111" stroke-width="2" fill="none" transform="rotate(-35 165 295.43)" />
  <circle id="slot.left.dot.1.circle" cx="304" cy="233" r="4" stroke="#111111" stroke-width="2" fill="#6BB7FF" />
  <circle id="slot.left.dot.2.circle" cx="342" cy="203" r="4" stroke="#111111" stroke-width="2" fill="#6BB7FF" />
  <circle id="slot.left.dot.3.circle" cx="368" cy="176" r="4" stroke="#111111" stroke-width="2" fill="#6BB7FF" />
  <circle id="slot.left.dot.4.circle" cx="397" cy="150" r="4" stroke="#111111" stroke-width="2" fill="#6BB7FF" />
  <text id="slot.left.text.text" x="45" y="425" fill="#111111" font-family="Noto Sans KR, sans-serif" font-size="30">① 한쪽 구멍에 누름 못을 꽂아 띠 종이를 고정해요.</text>
  <rect id="slot.right.frame.rect" x="626" y="121" width="227" height="214" fill="#ffffff" stroke="#111111" stroke-width="1.5" />
  <circle id="slot.right.circle.circle" cx="739" cy="229" r="108" stroke="#111111" stroke-width="2" fill="none" />
  <circle id="slot.right.center.circle" cx="739" cy="229" r="5" stroke="#111111" stroke-width="2" fill="#B0B0B0" />
  <circle id="slot.right.dot.top.circle" cx="739" cy="121" r="4" stroke="#111111" stroke-width="2" fill="#222222" />
  <circle id="slot.right.dot.bottom.circle" cx="739" cy="335" r="4" stroke="#111111" stroke-width="2" fill="#222222" />
  <circle id="slot.right.dot.left.circle" cx="626" cy="229" r="4" stroke="#111111" stroke-width="2" fill="#222222" />
  <circle id="slot.right.dot.right.circle" cx="853" cy="229" r="4" stroke="#111111" stroke-width="2" fill="#222222" />
  <line id="slot.right.dash.v.line" x1="739" y1="121" x2="739" y2="335" stroke="#111111" stroke-width="2" stroke-dasharray="5 3" />
  <line id="slot.right.dash.h.line" x1="626" y1="229" x2="853" y2="229" stroke="#111111" stroke-width="2" stroke-dasharray="5 3" />
  <text id="slot.right.text.text" x="365" y="90" fill="#111111" font-family="Noto Sans KR, sans-serif" font-size="30">② 다른 구멍에 연필을 꽂고 한 바퀴 돌려    원을 그려요.  </text>
  <rect id="slot.choice.frame.rect" x="25" y="500" width="830" height="85" fill="#ffffff" stroke="#111111" stroke-width="1.5" />
  <text id="slot.choice.text.text" x="45" y="505" fill="#111111" font-family="Noto Sans KR, sans-serif" font-size="30">
    <tspan x="45" dy="0"></tspan>
    <tspan x="45" dy="1.2em">누름 못이 꽂힌 점에서 원 위에 찍은 4개의 점까지의 길이는</tspan>
    <tspan x="45" dy="1.2em">모두 ( 같습니다, 다릅니다 ).</tspan>
  </text>
</svg>
