<?xml version="1.0" encoding="UTF-8"?>
<svg xmlns="http://www.w3.org/2000/svg" width="960" height="420" viewBox="0 0 960 420">
  <metadata><problem_id>S3_초등_3_008730</problem_id></metadata>
  <rect x="0" y="0" width="960" height="420" fill="#FFFFFF" />
  <rect id="slot.figure.school.yard.rect" x="137.88" y="170.88" width="61.919999999999995" height="5.76" fill="#b7e2b6" stroke="none" stroke-width="1.5" rx="2.88" ry="2.88" />
  <rect id="slot.figure.school.body.rect" x="147.96" y="149.28" width="43.199999999999996" height="28.799999999999997" fill="#ffd98a" stroke="#7f6b4d" stroke-width="1.008" />
  <polygon id="slot.figure.school.roof.polygon" points="143.64,150.72 169.56,137.76 195.48,150.72" stroke="#9b5738" stroke-width="1.008" fill="#e96f4a" />
  <rect id="slot.figure.school.tower.rect" x="163.07999999999998" y="142.08" width="12.959999999999999" height="36" fill="#f3c35b" stroke="#7f6b4d" stroke-width="0.9359999999999999" />
  <polygon id="slot.figure.school.tower.roof.polygon" points="160.2,142.08 169.56,134.88 178.92000000000002,142.08" stroke="#9b5738" stroke-width="0.864" fill="#e96f4a" />
  <polygon id="slot.figure.school.flag.polygon" points="169.56,124.8 181.07999999999998,128.4 169.56,132" stroke="#d14343" stroke-width="0.72" fill="#ff8a8a" />
  <rect id="slot.figure.school.door.rect" x="165.24" y="164.4" width="8.64" height="13.68" fill="#8fd3ff" stroke="#795548" stroke-width="0.792" />
  <rect id="slot.figure.school.window.left.top.rect" x="153" y="155.04" width="6.4799999999999995" height="5.76" fill="#dff6ff" stroke="#5082a9" stroke-width="0.72" />
  <rect id="slot.figure.school.window.left.bottom.rect" x="153" y="165.12" width="6.4799999999999995" height="5.76" fill="#dff6ff" stroke="#5082a9" stroke-width="0.72" />
  <rect id="slot.figure.school.window.right.top.rect" x="179.64" y="155.04" width="6.4799999999999995" height="5.76" fill="#dff6ff" stroke="#5082a9" stroke-width="0.72" />
  <rect id="slot.figure.school.window.right.bottom.rect" x="179.64" y="165.12" width="6.4799999999999995" height="5.76" fill="#dff6ff" stroke="#5082a9" stroke-width="0.72" />
  <rect id="slot.figure.house.yard.rect" x="366.6" y="167.56" width="53.28" height="5.76" fill="#b7e2b6" stroke="none" stroke-width="1.5" rx="2.88" ry="2.88" />
  <rect id="slot.figure.house.body.rect" x="374.52" y="149.56" width="37.44" height="24.48" fill="#ffe19a" stroke="#8a6240" stroke-width="1.008" />
  <polygon id="slot.figure.house.roof.polygon" points="369.48,151 393.24,135.16 417,151" stroke="#a64b43" stroke-width="1.008" fill="#ef6b55" />
  <rect id="slot.figure.house.chimney.rect" x="404.76" y="138.76" width="5.76" height="11.52" fill="#ef6b55" stroke="#a64b43" stroke-width="0.72" />
  <rect id="slot.figure.house.door.rect" x="389.64" y="158.2" width="8.64" height="15.84" fill="#7cc3ff" stroke="#795548" stroke-width="0.72" />
  <rect id="slot.figure.house.window.left.rect" x="379.56" y="155.32" width="7.199999999999999" height="7.199999999999999" fill="#dff6ff" stroke="#4f91b7" stroke-width="0.72" />
  <rect id="slot.figure.house.window.right.rect" x="401.15999999999997" y="155.32" width="7.199999999999999" height="7.199999999999999" fill="#dff6ff" stroke="#4f91b7" stroke-width="0.72" />
  <circle id="slot.figure.playground.ground.circle" cx="684.44" cy="147.12" r="25.2" stroke="none" stroke-width="2" fill="#c9eeb6" />
  <rect id="slot.figure.playground.trunk.rect" x="656.36" y="132" width="4.32" height="20.16" fill="#a96a3d" stroke="none" stroke-width="1.5" />
  <circle id="slot.figure.playground.tree.top.circle" cx="658.52" cy="126.96" r="9.36" stroke="none" stroke-width="2" fill="#7bcf6b" />
  <rect id="slot.figure.playground.seat.rect" x="683" y="141.36" width="12.959999999999999" height="2.88" fill="#f59e0b" stroke="none" stroke-width="1.5" rx="1.44" ry="1.44" />
  <path id="slot.figure.playground.slide.path" d="M 668.6 152.88 C 682.28 144.24, 690.92 138.48, 701.72 134.16" stroke="#f08bb4" stroke-width="2.88" fill="none" />
  <path id="slot.curve.left.path" d="M 164 189 C 194 230 262 244 323 223 C 350 214 366 201 389 189" stroke="#4DB6FF" stroke-width="1.4" fill="none" stroke-dasharray="4 4" />
  <path id="slot.curve.right.path" d="M 389 189 C 430 230 516 244 590 223 C 632 211 660 198 686 189" stroke="#4DB6FF" stroke-width="1.4" fill="none" stroke-dasharray="4 4" />
  <line id="slot.figure.school.flag.pole.line" x1="169.56" y1="134.88" x2="169.56" y2="124.8" stroke="#4b5563" stroke-width="0.864" />
  <line id="slot.figure.school.clock.h1.line" x1="169.56" y1="152.88" x2="169.56" y2="150" stroke="#5b7187" stroke-width="0.72" />
  <line id="slot.figure.school.clock.h2.line" x1="169.56" y1="152.88" x2="172.44" y2="152.88" stroke="#5b7187" stroke-width="0.72" />
  <line id="slot.figure.playground.swing.top.line" x1="677.24" y1="124.08" x2="701.72" y2="124.08" stroke="#61a66d" stroke-width="1.44" />
  <line id="slot.figure.playground.swing.left.line" x1="677.24" y1="124.08" x2="670.76" y2="154.32" stroke="#61a66d" stroke-width="1.44" />
  <line id="slot.figure.playground.swing.right.line" x1="701.72" y1="124.08" x2="708.2" y2="154.32" stroke="#61a66d" stroke-width="1.44" />
  <line id="slot.figure.playground.rope.left.line" x1="685.88" y1="124.08" x2="685.88" y2="141.36" stroke="#9ca3af" stroke-width="0.864" />
  <line id="slot.figure.playground.rope.right.line" x1="693.08" y1="124.08" x2="693.08" y2="141.36" stroke="#9ca3af" stroke-width="0.864" />
  <line id="slot.figure.playground.ladder.line" x1="667.16" y1="152.88" x2="674.36" y2="132.72" stroke="#60a5fa" stroke-width="1.44" />
  <line id="slot.line.main.line" x1="164" y1="187" x2="686" y2="187" stroke="#C58B45" stroke-width="2" />
  <line id="slot.dist.left.bar.line" x1="240" y1="271" x2="266" y2="271" stroke="#111111" stroke-width="1.4" />
  <line id="slot.dist.right.bar.line" x1="499" y1="271" x2="523" y2="271" stroke="#111111" stroke-width="1.4" />
  <circle id="slot.figure.school.clock.circle" cx="169.56" cy="152.88" r="5.04" stroke="#5b7187" stroke-width="0.864" fill="#f8fbff" />
  <circle id="slot.pt.school.circle" cx="164" cy="187" r="4" stroke="#111111" stroke-width="2" fill="#222222" />
  <circle id="slot.pt.house.circle" cx="389" cy="187" r="4" stroke="#111111" stroke-width="2" fill="#222222" />
  <circle id="slot.pt.playground.circle" cx="686" cy="187" r="4" stroke="#111111" stroke-width="2" fill="#222222" />
  <text id="slot.qtext.text" x="92" y="50" fill="#111111" font-family="Noto Sans KR, sans-serif" font-size="28">학교와 놀이터 중 상구네 집에서 더 가까운 곳을 선택해 보세요.</text>
  <text id="slot.lb.school.text" x="166" y="100" fill="#111111" font-family="Noto Sans KR, sans-serif" font-size="24" text-anchor="middle">학교</text>
  <text id="slot.lb.house.text" x="386" y="100" fill="#111111" font-family="Noto Sans KR, sans-serif" font-size="24" text-anchor="middle">상구네 집</text>
  <text id="slot.lb.playground.text" x="681" y="100" fill="#111111" font-family="Noto Sans KR, sans-serif" font-size="24" text-anchor="middle">놀이터</text>
  <text id="slot.dist.left.num.text" x="253" y="264" fill="#111111" font-family="Noto Sans KR, sans-serif" font-size="24" text-anchor="middle">13</text>
  <text id="slot.dist.left.den.text" x="253" y="295" fill="#111111" font-family="Noto Sans KR, sans-serif" font-size="24" text-anchor="middle">11</text>
  <text id="slot.dist.left.unit.text" x="279" y="278" fill="#111111" font-family="Noto Sans KR, sans-serif" font-size="24">km</text>
  <text id="slot.dist.right.whole.text" x="484" y="281" fill="#111111" font-family="Noto Sans KR, sans-serif" font-size="24" text-anchor="middle">1</text>
  <text id="slot.dist.right.num.text" x="511" y="264" fill="#111111" font-family="Noto Sans KR, sans-serif" font-size="24" text-anchor="middle">3</text>
  <text id="slot.dist.right.den.text" x="511" y="295" fill="#111111" font-family="Noto Sans KR, sans-serif" font-size="24" text-anchor="middle">11</text>
  <text id="slot.dist.right.unit.text" x="538" y="281" fill="#111111" font-family="Noto Sans KR, sans-serif" font-size="24">km</text>
  <text id="slot.choice.text" x="310" y="363" fill="#111111" font-family="Noto Sans KR, sans-serif" font-size="28">( 학교 , 놀이터 )</text>
</svg>
