<?xml version="1.0" encoding="UTF-8"?>
<svg xmlns="http://www.w3.org/2000/svg" width="900" height="760" viewBox="0 0 900 760">
  <metadata><problem_id>S3_초등_3_008727</problem_id></metadata>
  <rect x="0" y="0" width="900" height="760" fill="#FFFFFF" />
  <path id="slot.inserted.arc.2.path" d="M 910 480 A 85 175 0 0 1 1025 480" stroke="#111827" stroke-width="1.5" fill="none" transform="rotate(180 902.5 454.99)" />
  <path id="slot.inserted.arc.3.path" d="M 526 485 A 35 40 0 0 1 601 485" stroke="#111827" stroke-width="1.5" fill="none" transform="rotate(180 546.5 469.21)" />
  <path id="slot.inserted.arc.5.path" d="M 412 460 A 40 45 0 0 1 492 460" stroke="#111827" stroke-width="1.5" fill="none" />
  <path id="slot.inserted.arc.6.path" d="M 90 535 A 85 105 0 0 1 250 535" stroke="#111827" stroke-width="1.5" fill="none" transform="rotate(0 142.5 484.21)" />
  <path id="slot.inserted.arc.7.path" d="M 35 420 A 85 115 0 0 1 195 420" stroke="#111827" stroke-width="1.5" fill="none" transform="rotate(180 142.5 404.21)" />
  <path id="slot.inserted.arc.7.copy22.path" d="M 365 724.6215209960938 A 85 100 0 0 1 525 724.6215209960938" stroke="#111827" stroke-width="1.5" fill="none" transform="rotate(180 142.5 404.21)" />
  <circle id="slot.opt1.shape.2.circle" cx="175" cy="215" r="55" stroke="#111111" stroke-width="2" fill="none" />
  <circle id="slot.opt1.shape.3.circle" cx="229" cy="215" r="55" stroke="#111111" stroke-width="2" fill="none" />
  <circle id="slot.opt3.shape.2.circle" cx="745" cy="152" r="35" stroke="#111111" stroke-width="2" fill="none" />
  <circle id="slot.opt3.shape.3.circle" cx="745" cy="265" r="35" stroke="#111111" stroke-width="2" fill="none" />
  <circle id="slot.opt3.shape.4.circle" cx="690" cy="210" r="35" stroke="#111111" stroke-width="2" fill="none" />
  <circle id="slot.opt3.shape.5.circle" cx="800" cy="210" r="35" stroke="#111111" stroke-width="2" fill="none" />
  <circle id="slot.opt3.shape.6.circle" cx="745" cy="209" r="20" stroke="#111111" stroke-width="2" fill="none" />
  <circle id="slot.opt4.shape.2.circle" cx="175" cy="465" r="30" stroke="#111111" stroke-width="2" fill="none" />
  <text id="slot.qtext.text" x="30" y="60" fill="#111111" font-family="Noto Sans KR, sans-serif" font-size="30">원의 중심의 개수가 가장 많은 모양을 고르세요.</text>
  <circle id="slot.opt1.shape.1.circle" cx="120" cy="215" r="55" stroke="#111111" stroke-width="2" fill="none" />
  <rect id="slot.opt2.shape.1.rect" x="395" y="137" width="160" height="160" fill="none" stroke="#111111" stroke-width="1.5" />
  <circle id="slot.opt3.shape.1.circle" cx="745" cy="210" r="45" stroke="#111111" stroke-width="2" fill="none" />
  <rect id="slot.opt4.shape.1.rect" x="90" y="385" width="160" height="150" fill="none" stroke="#111111" stroke-width="1.5" />
  <circle id="slot.opt5.shape.1.circle" cx="490" cy="460" r="78" stroke="#111111" stroke-width="2" fill="none" />
  <text id="slot.opt1.label.text" x="34" y="143" fill="#111111" font-family="Noto Sans KR, sans-serif" font-size="28">①</text>
  <text id="slot.opt2.label.text" x="344" y="143" fill="#111111" font-family="Noto Sans KR, sans-serif" font-size="28">②</text>
  <text id="slot.opt3.label.text" x="654" y="143" fill="#111111" font-family="Noto Sans KR, sans-serif" font-size="28">③</text>
  <text id="slot.opt4.label.text" x="34" y="394" fill="#111111" font-family="Noto Sans KR, sans-serif" font-size="28">④</text>
  <text id="slot.opt5.label.text" x="344" y="394" fill="#111111" font-family="Noto Sans KR, sans-serif" font-size="28">⑤</text>
</svg>
