<?xml version="1.0" encoding="UTF-8"?>
<svg xmlns="http://www.w3.org/2000/svg" width="960" height="400" viewBox="0 0 960 400">
  <metadata><problem_id>S3_초등_3_008850</problem_id></metadata>
  <rect x="0" y="0" width="960" height="400" fill="#FFFFFF" />
  <text id="slot.q_num.text" x="45" y="34" fill="#111111" font-family="Noto Sans KR, sans-serif" font-size="28">94.</text>
  <text id="slot.q1.text" x="92" y="34" fill="#111111" font-family="Noto Sans KR, sans-serif" font-size="28">주스병에 물을 가득 채운 후 물병에 옮겨 담았습니다. 그림과 같이 물을</text>
  <text id="slot.q2.text" x="92" y="68" fill="#111111" font-family="Noto Sans KR, sans-serif" font-size="28">채웠을 때에 주스병과 물병 중 들어가 더 많은 것을 선택해 보세요.</text>
  <path id="slot.juice_bottle.body.path" d="M 470.0 112.0 C 462.0 111.0 455.0 118.0 455.0 128.0 L 455.0 145.0 C 455.0 153.0 460.0 158.0 468.0 158.0 L 486.0 158.0 C 494.0 158.0 500.0 152.0 500.0 144.0 L 500.0 127.0 C 500.0 117.0 493.0 110.0 484.0 111.0 Z" stroke="#111111" stroke-width="2" fill="none" />
  <path id="slot.juice_bottle.neck.path" d="M 478.0 108.0 C 478.0 100.0 485.0 96.0 492.0 100.0 L 503.0 106.0 C 510.0 110.0 511.0 119.0 505.0 123.0 L 496.0 129.0 C 490.0 133.0 482.0 130.0 480.0 123.0 Z" stroke="#111111" stroke-width="2" fill="none" />
  <path id="slot.juice_bottle.fluid.path" d="M 463.0 123.0 C 471.0 121.0 486.0 120.0 496.0 126.0 C 490.0 135.0 474.0 137.0 463.0 133.0 Z" stroke="#111111" stroke-width="2" fill="none" />
  <path id="slot.water_bottle.body.path" d="M 556.0 168.0 C 556.0 147.0 568.0 132.0 585.0 132.0 L 599.0 132.0 C 616.0 132.0 628.0 147.0 628.0 168.0 L 628.0 234.0 C 628.0 250.0 618.0 262.0 603.0 262.0 L 581.0 262.0 C 566.0 262.0 556.0 250.0 556.0 234.0 Z" stroke="#111111" stroke-width="2" fill="none" />
  <path id="slot.water_bottle.neck.path" d="M 582.0 120.0 C 582.0 111.0 586.0 106.0 592.0 106.0 L 596.0 106.0 C 602.0 106.0 606.0 111.0 606.0 120.0 L 606.0 134.0 C 606.0 140.0 602.0 145.0 596.0 145.0 L 582.0 145.0 C 577.0 145.0 572.0 140.0 572.0 134.0 Z" stroke="#111111" stroke-width="2" fill="none" />
  <path id="slot.water_bottle.fluid.path" d="M 566.0 193.0 C 566.0 181.0 578.0 175.0 595.0 175.0 C 612.0 175.0 624.0 181.0 624.0 193.0 L 624.0 226.0 C 624.0 240.0 616.0 249.0 603.0 249.0 L 581.0 249.0 C 568.0 249.0 560.0 240.0 560.0 226.0 Z" stroke="#111111" stroke-width="2" fill="none" />
  <text id="slot.lb.juice_bottle.text" x="420" y="174" fill="#111111" font-family="Noto Sans KR, sans-serif" font-size="28">주스병</text>
  <text id="slot.lb.water_bottle.text" x="629" y="256" fill="#111111" font-family="Noto Sans KR, sans-serif" font-size="28">물병</text>
  <text id="slot.choice.text" x="761" y="277" fill="#111111" font-family="Noto Sans KR, sans-serif" font-size="28">( 주스병 , 물병 )</text>
</svg>
