<?xml version="1.0" encoding="UTF-8"?>
<svg xmlns="http://www.w3.org/2000/svg" width="940" height="495" viewBox="0 0 940 495">
  <metadata><problem_id>S3_초등_3_008666</problem_id></metadata>
  <rect x="0" y="0" width="940" height="495" fill="#FFFFFF" />
  <text id="slot.qnum.text" x="17" y="28" max_width="812" fill="#111111" font-family="Noto Sans KR, sans-serif" font-size="28">42.</text>
  <text id="slot.qtext1.text" x="58" y="31" max_width="812" fill="#111111" font-family="Noto Sans KR, sans-serif" font-size="28">원의 반지름은 모두 같고 원의 중심을 옮겨 가며 그린 그림을 찾아 선택</text>
  <text id="slot.qtext2.text" x="44" y="66" max_width="812" fill="#111111" font-family="Noto Sans KR, sans-serif" font-size="28">하세요.</text>
  <rect id="slot.box.rect" x="201" y="86" width="569" height="131" fill="none" stroke="#9ACD32" stroke-width="2" />
  <circle id="slot.opt1.c1.circle" cx="286" cy="146" r="22" stroke="#222222" stroke-width="1.5" fill="none" />
  <circle id="slot.opt1.c2.circle" cx="302" cy="124" r="22" stroke="#222222" stroke-width="1.5" fill="none" />
  <circle id="slot.opt1.c3.circle" cx="318" cy="146" r="22" stroke="#222222" stroke-width="1.5" fill="none" />
  <circle id="slot.opt2.c1.circle" cx="486" cy="138" r="40" stroke="#222222" stroke-width="1.5" fill="none" />
  <circle id="slot.opt2.c2.circle" cx="459" cy="147" r="13" stroke="#222222" stroke-width="1.5" fill="none" />
  <circle id="slot.opt3.c1.circle" cx="649" cy="138" r="37" stroke="#222222" stroke-width="1.5" fill="none" />
  <circle id="slot.opt3.c2.circle" cx="649" cy="138" r="23" stroke="#222222" stroke-width="1.5" fill="none" />
  <circle id="slot.opt3.c3.circle" cx="649" cy="138" r="11" stroke="#222222" stroke-width="1.5" fill="none" />
  <circle id="slot.answer_diagram.c1.circle" cx="98" cy="246" r="18" stroke="#222222" stroke-width="1.5" fill="none" />
  <circle id="slot.answer_diagram.c2.circle" cx="114" cy="226" r="18" stroke="#222222" stroke-width="1.5" fill="none" />
  <circle id="slot.answer_diagram.c3.circle" cx="130" cy="246" r="18" stroke="#222222" stroke-width="1.5" fill="none" />
  <circle id="slot.bot1.c1.circle" cx="92" cy="427" r="22" stroke="#222222" stroke-width="1.5" fill="none" />
  <circle id="slot.bot1.c2.circle" cx="111" cy="406" r="22" stroke="#222222" stroke-width="1.5" fill="none" />
  <circle id="slot.bot1.c3.circle" cx="130" cy="427" r="22" stroke="#222222" stroke-width="1.5" fill="none" />
  <circle id="slot.bot1.p1.circle" cx="81" cy="436" r="3.5" stroke="none" stroke-width="2" fill="#1da1f2" />
  <circle id="slot.bot1.p2.circle" cx="97" cy="420" r="3.5" stroke="none" stroke-width="2" fill="#1da1f2" />
  <circle id="slot.bot1.p3.circle" cx="112" cy="410" r="3.5" stroke="none" stroke-width="2" fill="#1da1f2" />
  <circle id="slot.bot2.c1.circle" cx="216" cy="427" r="41" stroke="#222222" stroke-width="1.5" fill="none" />
  <circle id="slot.bot2.c2.circle" cx="192" cy="427" r="13" stroke="#222222" stroke-width="1.5" fill="none" />
  <circle id="slot.bot2.p1.circle" cx="171" cy="427" r="3.5" stroke="none" stroke-width="2" fill="#1da1f2" />
  <circle id="slot.bot2.p2.circle" cx="192" cy="427" r="3.5" stroke="none" stroke-width="2" fill="#1da1f2" />
  <circle id="slot.bot3.c1.circle" cx="348" cy="427" r="37" stroke="#222222" stroke-width="1.5" fill="none" />
  <circle id="slot.bot3.c2.circle" cx="348" cy="427" r="23" stroke="#222222" stroke-width="1.5" fill="none" />
  <circle id="slot.bot3.c3.circle" cx="348" cy="427" r="11" stroke="#222222" stroke-width="1.5" fill="none" />
  <circle id="slot.bot3.p1.circle" cx="348" cy="427" r="3.5" stroke="none" stroke-width="2" fill="#1da1f2" />
</svg>
