<?xml version="1.0" encoding="UTF-8"?>
<svg xmlns="http://www.w3.org/2000/svg" width="960" height="620" viewBox="0 0 960 620">
  <metadata><problem_id>S3_초등_3_008652</problem_id></metadata>
  <rect x="0" y="0" width="960" height="620" fill="#FFFFFF" />
  <text id="slot.qnum.text" x="20" y="42" fill="#111111" font-family="Noto Sans KR, sans-serif" font-size="28">27.</text>
  <text id="slot.qtext.text" x="64" y="42" fill="#111111" font-family="Noto Sans KR, sans-serif" font-size="28">
    <tspan x="64" dy="0">규칙에 따라 원을 그린 것입니다. 그린 규칙을 바르게 말한 사람을</tspan>
    <tspan x="64" dy="1.2em">선택해 보세요.</tspan>
  </text>
  <rect id="slot.grid.frame.rect" x="110" y="150" width="280" height="280" fill="#ffffff" stroke="#111111" stroke-width="1.5" />
  <circle id="slot.circle.outer.circle" cx="250" cy="290" r="116" stroke="#111111" stroke-width="2" fill="none" />
  <circle id="slot.circle.middle.circle" cx="250" cy="290" r="71" stroke="#111111" stroke-width="2" fill="none" />
  <circle id="slot.circle.inner.circle" cx="250" cy="290" r="23" stroke="#111111" stroke-width="2" fill="none" />
  <circle id="slot.center.circle" cx="250" cy="290" r="4" stroke="#111111" stroke-width="2" fill="#ff4da6" />
  <line id="slot.grid.v1.line" x1="110" y1="150" x2="110" y2="430" stroke="#111111" stroke-width="2" />
  <line id="slot.grid.v2.line" x1="133.3" y1="150" x2="133.3" y2="430" stroke="#111111" stroke-width="2" />
  <line id="slot.grid.v3.line" x1="156.7" y1="150" x2="156.7" y2="430" stroke="#111111" stroke-width="2" />
  <line id="slot.grid.v4.line" x1="180" y1="150" x2="180" y2="430" stroke="#111111" stroke-width="2" />
  <line id="slot.grid.v5.line" x1="203.3" y1="150" x2="203.3" y2="430" stroke="#111111" stroke-width="2" />
  <line id="slot.grid.v6.line" x1="226.7" y1="150" x2="226.7" y2="430" stroke="#111111" stroke-width="2" />
  <line id="slot.grid.v7.line" x1="250" y1="150" x2="250" y2="430" stroke="#111111" stroke-width="2" />
  <line id="slot.grid.v8.line" x1="273.3" y1="150" x2="273.3" y2="430" stroke="#111111" stroke-width="2" />
  <line id="slot.grid.v9.line" x1="296.7" y1="150" x2="296.7" y2="430" stroke="#111111" stroke-width="2" />
  <line id="slot.grid.v10.line" x1="320" y1="150" x2="320" y2="430" stroke="#111111" stroke-width="2" />
  <line id="slot.grid.v11.line" x1="343.3" y1="150" x2="343.3" y2="430" stroke="#111111" stroke-width="2" />
  <line id="slot.grid.v12.line" x1="366.7" y1="150" x2="366.7" y2="430" stroke="#111111" stroke-width="2" />
  <line id="slot.grid.h1.line" x1="110" y1="150" x2="390" y2="150" stroke="#111111" stroke-width="2" />
  <line id="slot.grid.h2.line" x1="110" y1="173.3" x2="390" y2="173.3" stroke="#111111" stroke-width="2" />
  <line id="slot.grid.h3.line" x1="110" y1="196.7" x2="390" y2="196.7" stroke="#111111" stroke-width="2" />
  <line id="slot.grid.h4.line" x1="110" y1="220" x2="390" y2="220" stroke="#111111" stroke-width="2" />
  <line id="slot.grid.h5.line" x1="110" y1="243.3" x2="390" y2="243.3" stroke="#111111" stroke-width="2" />
  <line id="slot.grid.h6.line" x1="110" y1="266.7" x2="390" y2="266.7" stroke="#111111" stroke-width="2" />
  <line id="slot.grid.h7.line" x1="110" y1="290" x2="390" y2="290" stroke="#111111" stroke-width="2" />
  <line id="slot.grid.h8.line" x1="110" y1="313.3" x2="390" y2="313.3" stroke="#111111" stroke-width="2" />
  <line id="slot.grid.h9.line" x1="110" y1="336.7" x2="390" y2="336.7" stroke="#111111" stroke-width="2" />
  <line id="slot.grid.h10.line" x1="110" y1="360" x2="390" y2="360" stroke="#111111" stroke-width="2" />
  <line id="slot.grid.h11.line" x1="110" y1="383.3" x2="390" y2="383.3" stroke="#111111" stroke-width="2" />
  <line id="slot.grid.h12.line" x1="110" y1="406.7" x2="390" y2="406.7" stroke="#111111" stroke-width="2" />
  <circle id="slot.sunga.face.circle" cx="565" cy="145" r="28" stroke="#111111" stroke-width="2" fill="#f6d3b0" />
  <rect id="slot.sunga.body.rect" x="538" y="168" width="54" height="50" fill="#ffffff" stroke="#111111" stroke-width="1.5" />
  <rect id="slot.sunga.namebox.rect" x="535" y="236" width="60" height="36" fill="#ffffff" stroke="#111111" stroke-width="1.5" />
  <rect id="slot.sunga.bubble.rect" x="610" y="74" width="250" height="175" fill="#ffffff" stroke="#111111" stroke-width="1.5" />
  <circle id="slot.jaewon.face.circle" cx="565" cy="360" r="28" stroke="#111111" stroke-width="2" fill="#f6d3b0" />
  <rect id="slot.jaewon.body.rect" x="538" y="383" width="54" height="50" fill="#ffffff" stroke="#111111" stroke-width="1.5" />
  <rect id="slot.jaewon.namebox.rect" x="535" y="451" width="60" height="36" fill="#ffffff" stroke="#111111" stroke-width="1.5" />
  <rect id="slot.jaewon.bubble.rect" x="610" y="289" width="250" height="175" fill="#ffffff" stroke="#111111" stroke-width="1.5" />
  <text id="slot.sunga.name.text" x="553" y="262" fill="#111111" font-family="Noto Sans KR, sans-serif" font-size="28">승아</text>
  <text id="slot.sunga.b1.text" x="667" y="114" fill="#111111" font-family="Noto Sans KR, sans-serif" font-size="28">원의 중심이 모두</text>
  <text id="slot.sunga.b2.text" x="640" y="148" fill="#111111" font-family="Noto Sans KR, sans-serif" font-size="28">다르고 원의 반지름이</text>
  <text id="slot.sunga.b3.text" x="633" y="182" fill="#111111" font-family="Noto Sans KR, sans-serif" font-size="28">모눈 1칸씩 늘어나게</text>
  <text id="slot.sunga.b4.text" x="695" y="216" fill="#111111" font-family="Noto Sans KR, sans-serif" font-size="28">그렸어요.</text>
  <text id="slot.jaewon.name.text" x="553" y="477" fill="#111111" font-family="Noto Sans KR, sans-serif" font-size="28">재원</text>
  <text id="slot.jaewon.b1.text" x="667" y="329" fill="#111111" font-family="Noto Sans KR, sans-serif" font-size="28">원의 중심이 모두</text>
  <text id="slot.jaewon.b2.text" x="640" y="363" fill="#111111" font-family="Noto Sans KR, sans-serif" font-size="28">같고 원의 반지름이</text>
  <text id="slot.jaewon.b3.text" x="633" y="397" fill="#111111" font-family="Noto Sans KR, sans-serif" font-size="28">모눈 2칸씩 늘어나게</text>
  <text id="slot.jaewon.b4.text" x="695" y="431" fill="#111111" font-family="Noto Sans KR, sans-serif" font-size="28">그렸어요.</text>
</svg>
