<?xml version="1.0" encoding="UTF-8"?>
<svg xmlns="http://www.w3.org/2000/svg" width="840" height="370" viewBox="0 0 840 370">
  <metadata><problem_id>S3_초등_3_008729</problem_id></metadata>
  <rect x="0" y="0" width="840" height="370" fill="#FFFFFF" />
  <rect id="slot.box.rect" x="14" y="12" width="16" height="16" fill="none" stroke="#000000" stroke-width="1.2" rx="0" ry="0" />
  <text id="slot.qnum.text" x="38" y="28" fill="#111111" font-family="Noto Sans KR, sans-serif" font-size="28">37.</text>
  <text id="slot.title.text" x="80" y="28" fill="#111111" font-family="Noto Sans KR, sans-serif" font-size="28">그림을 보고 알맞은 말을 선택하세요.</text>
  <rect id="slot.card.rect" x="120" y="42" width="716" height="80" fill="none" stroke="#ffa4c0" stroke-width="2" rx="12" ry="12" />
  <circle id="slot.bead.1.circle" cx="160" cy="82" r="18" stroke="#111111" stroke-width="2" fill="#43c16f" />
  <circle id="slot.bead.2.circle" cx="208" cy="82" r="18" stroke="#111111" stroke-width="2" fill="#43c16f" />
  <circle id="slot.bead.3.circle" cx="256" cy="82" r="18" stroke="#111111" stroke-width="2" fill="#43c16f" />
  <circle id="slot.bead.4.circle" cx="304" cy="82" r="18" stroke="#111111" stroke-width="2" fill="#43c16f" />
  <circle id="slot.bead.5.circle" cx="352" cy="82" r="18" stroke="#111111" stroke-width="2" fill="#f7a8b4" />
  <circle id="slot.bead.6.circle" cx="400" cy="82" r="18" stroke="#111111" stroke-width="2" fill="#f7a8b4" />
  <circle id="slot.bead.7.circle" cx="448" cy="82" r="18" stroke="#111111" stroke-width="2" fill="#f7a8b4" />
  <circle id="slot.bead.8.circle" cx="496" cy="82" r="18" stroke="#111111" stroke-width="2" fill="#f7a8b4" />
  <circle id="slot.bead.9.circle" cx="544" cy="82" r="18" stroke="#111111" stroke-width="2" fill="#f7a8b4" />
  <circle id="slot.bead.10.circle" cx="592" cy="82" r="18" stroke="#111111" stroke-width="2" fill="#f7a8b4" />
  <circle id="slot.bead.11.circle" cx="640" cy="82" r="18" stroke="#111111" stroke-width="2" fill="#f7a8b4" />
  <circle id="slot.bead.12.circle" cx="688" cy="82" r="18" stroke="#111111" stroke-width="2" fill="#f7a8b4" />
  <text id="slot.stem.text" x="220" y="205" fill="#111111" font-family="Noto Sans KR, sans-serif" font-size="28">12의 1/3은 ( 초록색 , 분홍색 ) 구슬입니다.</text>
</svg>
