<?xml version="1.0" encoding="UTF-8"?>
<svg xmlns="http://www.w3.org/2000/svg" width="720" height="620" viewBox="0 0 720 620">
  <metadata><problem_id>S3_초등_3_009056</problem_id></metadata>
  <rect x="0" y="0" width="720" height="620" fill="#FFFFFF" />
  <polygon id="slot.shape.ga.polygon" points="205,116 250,70 285,116" stroke="#333333" stroke-width="2" fill="none" />
  <polygon id="slot.shape.na.polygon" points="315,116 315,70 380,70" stroke="#333333" stroke-width="2" fill="none" />
  <polygon id="slot.shape.da.polygon" points="410,116 560,70 490,116" stroke="#333333" stroke-width="2" fill="none" />
  <polygon id="slot.shape.ra.polygon" points="205,220 285,171 285,269" stroke="#333333" stroke-width="2" fill="none" />
  <polygon id="slot.shape.ma.polygon" points="360,269 390,171 420,269" stroke="#333333" stroke-width="2" fill="none" />
  <polygon id="slot.shape.ba.polygon" points="480,269 565,220 565,269" stroke="#333333" stroke-width="2" fill="none" />
  <polygon id="slot.shape2.ga.polygon" points="245,506 290,460 325,506" stroke="#333333" stroke-width="2" fill="none" />
  <polygon id="slot.shape2.na.polygon" points="355,506 355,460 420,460" stroke="#333333" stroke-width="2" fill="none" />
  <polygon id="slot.shape2.da.polygon" points="450,506 560,460 520,506" stroke="#333333" stroke-width="2" fill="none" />
  <polygon id="slot.shape2.ra.polygon" points="245,558 325,510 325,590" stroke="#333333" stroke-width="2" fill="none" />
  <polygon id="slot.shape2.ma.polygon" points="385,590 415,490 445,590" stroke="#333333" stroke-width="2" fill="none" />
  <polygon id="slot.shape2.ba.polygon" points="500,590 565,542 565,590" stroke="#333333" stroke-width="2" fill="none" />
  <line id="slot.grid.top.v1.line" x1="170" y1="45" x2="170" y2="308" stroke="#9AA0A6" stroke-width="1.2" stroke-dasharray="5 3" />
  <line id="slot.grid.top.v2.line" x1="200" y1="45" x2="200" y2="308" stroke="#9AA0A6" stroke-width="1.2" stroke-dasharray="5 3" />
  <line id="slot.grid.top.v3.line" x1="230" y1="45" x2="230" y2="308" stroke="#9AA0A6" stroke-width="1.2" stroke-dasharray="5 3" />
  <line id="slot.grid.top.v4.line" x1="260" y1="45" x2="260" y2="308" stroke="#9AA0A6" stroke-width="1.2" stroke-dasharray="5 3" />
  <line id="slot.grid.top.v5.line" x1="290" y1="45" x2="290" y2="308" stroke="#9AA0A6" stroke-width="1.2" stroke-dasharray="5 3" />
  <line id="slot.grid.top.v6.line" x1="320" y1="45" x2="320" y2="308" stroke="#9AA0A6" stroke-width="1.2" stroke-dasharray="5 3" />
  <line id="slot.grid.top.v7.line" x1="350" y1="45" x2="350" y2="308" stroke="#9AA0A6" stroke-width="1.2" stroke-dasharray="5 3" />
  <line id="slot.grid.top.v8.line" x1="380" y1="45" x2="380" y2="308" stroke="#9AA0A6" stroke-width="1.2" stroke-dasharray="5 3" />
  <line id="slot.grid.top.v9.line" x1="410" y1="45" x2="410" y2="308" stroke="#9AA0A6" stroke-width="1.2" stroke-dasharray="5 3" />
  <line id="slot.grid.top.v10.line" x1="440" y1="45" x2="440" y2="308" stroke="#9AA0A6" stroke-width="1.2" stroke-dasharray="5 3" />
  <line id="slot.grid.top.v11.line" x1="470" y1="45" x2="470" y2="308" stroke="#9AA0A6" stroke-width="1.2" stroke-dasharray="5 3" />
  <line id="slot.grid.top.v12.line" x1="500" y1="45" x2="500" y2="308" stroke="#9AA0A6" stroke-width="1.2" stroke-dasharray="5 3" />
  <line id="slot.grid.top.v13.line" x1="530" y1="45" x2="530" y2="308" stroke="#9AA0A6" stroke-width="1.2" stroke-dasharray="5 3" />
  <line id="slot.grid.top.v14.line" x1="560" y1="45" x2="560" y2="308" stroke="#9AA0A6" stroke-width="1.2" stroke-dasharray="5 3" />
  <line id="slot.grid.top.v15.line" x1="590" y1="45" x2="590" y2="308" stroke="#9AA0A6" stroke-width="1.2" stroke-dasharray="5 3" />
  <line id="slot.grid.top.h1.line" x1="170" y1="45" x2="590" y2="45" stroke="#9AA0A6" stroke-width="1.2" stroke-dasharray="5 3" />
  <line id="slot.grid.top.h2.line" x1="170" y1="75" x2="590" y2="75" stroke="#9AA0A6" stroke-width="1.2" stroke-dasharray="5 3" />
  <line id="slot.grid.top.h3.line" x1="170" y1="105" x2="590" y2="105" stroke="#9AA0A6" stroke-width="1.2" stroke-dasharray="5 3" />
  <line id="slot.grid.top.h4.line" x1="170" y1="135" x2="590" y2="135" stroke="#9AA0A6" stroke-width="1.2" stroke-dasharray="5 3" />
  <line id="slot.grid.top.h5.line" x1="170" y1="165" x2="590" y2="165" stroke="#9AA0A6" stroke-width="1.2" stroke-dasharray="5 3" />
  <line id="slot.grid.top.h6.line" x1="170" y1="195" x2="590" y2="195" stroke="#9AA0A6" stroke-width="1.2" stroke-dasharray="5 3" />
  <line id="slot.grid.top.h7.line" x1="170" y1="225" x2="590" y2="225" stroke="#9AA0A6" stroke-width="1.2" stroke-dasharray="5 3" />
  <line id="slot.grid.top.h8.line" x1="170" y1="255" x2="590" y2="255" stroke="#9AA0A6" stroke-width="1.2" stroke-dasharray="5 3" />
  <line id="slot.grid.top.h9.line" x1="170" y1="285" x2="590" y2="285" stroke="#9AA0A6" stroke-width="1.2" stroke-dasharray="5 3" />
  <line id="slot.grid.top.h10.line" x1="170" y1="315" x2="590" y2="315" stroke="#9AA0A6" stroke-width="1.2" stroke-dasharray="5 3" />
  <line id="slot.grid.top.h11.line" x1="170" y1="345" x2="590" y2="345" stroke="#9AA0A6" stroke-width="1.2" stroke-dasharray="5 3" />
  <line id="slot.grid.top.h12.line" x1="170" y1="375" x2="590" y2="375" stroke="#9AA0A6" stroke-width="1.2" stroke-dasharray="5 3" />
  <line id="slot.grid.top.h13.line" x1="170" y1="405" x2="590" y2="405" stroke="#9AA0A6" stroke-width="1.2" stroke-dasharray="5 3" />
  <line id="slot.grid.top.h14.line" x1="170" y1="435" x2="590" y2="435" stroke="#9AA0A6" stroke-width="1.2" stroke-dasharray="5 3" />
  <line id="slot.grid.top.h15.line" x1="170" y1="465" x2="590" y2="465" stroke="#9AA0A6" stroke-width="1.2" stroke-dasharray="5 3" />
  <line id="slot.grid.top.h16.line" x1="170" y1="495" x2="590" y2="495" stroke="#9AA0A6" stroke-width="1.2" stroke-dasharray="5 3" />
  <line id="slot.grid.top.h17.line" x1="170" y1="525" x2="590" y2="525" stroke="#9AA0A6" stroke-width="1.2" stroke-dasharray="5 3" />
  <line id="slot.grid.top.h18.line" x1="170" y1="555" x2="590" y2="555" stroke="#9AA0A6" stroke-width="1.2" stroke-dasharray="5 3" />
  <line id="slot.grid.top.h19.line" x1="170" y1="585" x2="590" y2="585" stroke="#9AA0A6" stroke-width="1.2" stroke-dasharray="5 3" />
  <line id="slot.grid.top.h20.line" x1="170" y1="615" x2="590" y2="615" stroke="#9AA0A6" stroke-width="1.2" stroke-dasharray="5 3" />
  <line id="slot.grid.bottom.v1.line" x1="210" y1="432" x2="210" y2="592" stroke="#9AA0A6" stroke-width="1.2" stroke-dasharray="5 3" />
  <line id="slot.grid.bottom.v2.line" x1="240" y1="432" x2="240" y2="592" stroke="#9AA0A6" stroke-width="1.2" stroke-dasharray="5 3" />
  <line id="slot.grid.bottom.v3.line" x1="270" y1="432" x2="270" y2="592" stroke="#9AA0A6" stroke-width="1.2" stroke-dasharray="5 3" />
  <line id="slot.grid.bottom.v4.line" x1="300" y1="432" x2="300" y2="592" stroke="#9AA0A6" stroke-width="1.2" stroke-dasharray="5 3" />
  <line id="slot.grid.bottom.v5.line" x1="330" y1="432" x2="330" y2="592" stroke="#9AA0A6" stroke-width="1.2" stroke-dasharray="5 3" />
  <line id="slot.grid.bottom.v6.line" x1="360" y1="432" x2="360" y2="592" stroke="#9AA0A6" stroke-width="1.2" stroke-dasharray="5 3" />
  <line id="slot.grid.bottom.v7.line" x1="390" y1="432" x2="390" y2="592" stroke="#9AA0A6" stroke-width="1.2" stroke-dasharray="5 3" />
  <line id="slot.grid.bottom.v8.line" x1="420" y1="432" x2="420" y2="592" stroke="#9AA0A6" stroke-width="1.2" stroke-dasharray="5 3" />
  <line id="slot.grid.bottom.v9.line" x1="450" y1="432" x2="450" y2="592" stroke="#9AA0A6" stroke-width="1.2" stroke-dasharray="5 3" />
  <line id="slot.grid.bottom.v10.line" x1="480" y1="432" x2="480" y2="592" stroke="#9AA0A6" stroke-width="1.2" stroke-dasharray="5 3" />
  <line id="slot.grid.bottom.v11.line" x1="510" y1="432" x2="510" y2="592" stroke="#9AA0A6" stroke-width="1.2" stroke-dasharray="5 3" />
  <line id="slot.grid.bottom.v12.line" x1="540" y1="432" x2="540" y2="592" stroke="#9AA0A6" stroke-width="1.2" stroke-dasharray="5 3" />
  <line id="slot.grid.bottom.v13.line" x1="570" y1="432" x2="570" y2="592" stroke="#9AA0A6" stroke-width="1.2" stroke-dasharray="5 3" />
  <line id="slot.grid.bottom.h1.line" x1="210" y1="432" x2="570" y2="432" stroke="#9AA0A6" stroke-width="1.2" stroke-dasharray="5 3" />
  <line id="slot.grid.bottom.h2.line" x1="210" y1="462" x2="570" y2="462" stroke="#9AA0A6" stroke-width="1.2" stroke-dasharray="5 3" />
  <line id="slot.grid.bottom.h3.line" x1="210" y1="492" x2="570" y2="492" stroke="#9AA0A6" stroke-width="1.2" stroke-dasharray="5 3" />
  <line id="slot.grid.bottom.h4.line" x1="210" y1="522" x2="570" y2="522" stroke="#9AA0A6" stroke-width="1.2" stroke-dasharray="5 3" />
  <line id="slot.grid.bottom.h5.line" x1="210" y1="552" x2="570" y2="552" stroke="#9AA0A6" stroke-width="1.2" stroke-dasharray="5 3" />
  <line id="slot.grid.bottom.h6.line" x1="210" y1="582" x2="570" y2="582" stroke="#9AA0A6" stroke-width="1.2" stroke-dasharray="5 3" />
  <line id="slot.rightmark.ba.line" x1="542" y1="572" x2="542" y2="588" stroke="#333333" stroke-width="2" />
  <text id="slot.title.no.text" x="20" y="28" fill="#111111" font-family="Noto Sans KR, sans-serif" font-size="28">94.</text>
  <text id="slot.title.text.text" x="68" y="28" fill="#111111" font-family="Noto Sans KR, sans-serif" font-size="28">직각삼각형을 모두 선택하세요.</text>
  <text id="slot.lb.ga.text" x="237" y="104" fill="#111111" font-family="Noto Sans KR, sans-serif" font-size="28">가</text>
  <text id="slot.lb.na.text" x="335" y="92" fill="#111111" font-family="Noto Sans KR, sans-serif" font-size="28">나</text>
  <text id="slot.lb.da.text" x="475" y="103" fill="#111111" font-family="Noto Sans KR, sans-serif" font-size="28">다</text>
  <text id="slot.lb.ra.text" x="232" y="224" fill="#111111" font-family="Noto Sans KR, sans-serif" font-size="28">라</text>
  <text id="slot.lb.ma.text" x="378" y="235" fill="#111111" font-family="Noto Sans KR, sans-serif" font-size="28">마</text>
  <text id="slot.lb.ba.text" x="527" y="239" fill="#111111" font-family="Noto Sans KR, sans-serif" font-size="28">바</text>
  <text id="slot.lb2.ga.text" x="277" y="493" fill="#111111" font-family="Noto Sans KR, sans-serif" font-size="28">가</text>
  <text id="slot.lb2.na.text" x="375" y="483" fill="#111111" font-family="Noto Sans KR, sans-serif" font-size="28">나</text>
  <text id="slot.lb2.da.text" x="475" y="494" fill="#111111" font-family="Noto Sans KR, sans-serif" font-size="28">다</text>
  <text id="slot.lb2.ra.text" x="280" y="560" fill="#111111" font-family="Noto Sans KR, sans-serif" font-size="28">라</text>
  <text id="slot.lb2.ma.text" x="397" y="550" fill="#111111" font-family="Noto Sans KR, sans-serif" font-size="28">마</text>
  <text id="slot.lb2.ba.text" x="523" y="566" fill="#111111" font-family="Noto Sans KR, sans-serif" font-size="28">바</text>
</svg>
