<?xml version="1.0" encoding="UTF-8"?>
<svg xmlns="http://www.w3.org/2000/svg" width="960" height="560" viewBox="0 0 960 560">
  <metadata><problem_id>S3_초등_3_008724</problem_id></metadata>
  <rect x="0" y="0" width="960" height="560" fill="#FFFFFF" />
  <circle id="slot.diagram.circle.circle" cx="529" cy="260" r="105" stroke="#111111" stroke-width="2" fill="none" />
  <circle id="slot.diagram.circle.copy8.circle" cx="284" cy="260" r="140" stroke="#111111" stroke-width="2" fill="none" />
  <path id="slot.inserted.arc.1.path" d="M 165.68606567382812 319.90081787109375 A 70 45 0 0 1 300.6860656738281 319.90081787109375" stroke="#111827" stroke-width="1.5" fill="none" transform="rotate(-50 233.19 303.35)" stroke-dasharray="4 3" />
  <path id="slot.inserted.arc.1.copy12.path" d="M 530 260 A 55 30 0 0 1 635 260" stroke="#111827" stroke-width="1.5" fill="none" transform="rotate(0 598.67 243.89)" stroke-dasharray="4 3" />
  <line id="slot.diagram.line3.line" x1="285" y1="260" x2="200" y2="370" stroke="#111111" stroke-width="2" />
  <line id="slot.diagram.line1.copy7.line" x1="634" y1="260" x2="284" y2="260" stroke="#111111" stroke-width="2" />
  <circle id="slot.diagram.center.circle" cx="530" cy="260" r="5" stroke="#111111" stroke-width="2" fill="#ff2a8a" />
  <circle id="slot.diagram.center.copy9.circle" cx="285" cy="260" r="5" stroke="#111111" stroke-width="2" fill="#ff2a8a" />
  <text id="slot.q1.text" x="18" y="56" fill="#111111" font-family="Noto Sans KR, sans-serif" font-size="28">점ㄱ, 점ㄴ은 원의 중심입니다. 선분 ㄱㄷ의 길이는 몇 cm인지 구하세요.</text>
  <text id="slot.diagram.label.ga.text" x="270" y="245" fill="#111111" font-family="Noto Sans KR, sans-serif" font-size="30">ㄱ</text>
  <text id="slot.diagram.label.da.text" x="515" y="245" fill="#111111" font-family="Noto Sans KR, sans-serif" font-size="30">ㄴ</text>
  <text id="slot.diagram.label.ma.text" x="655" y="250" fill="#111111" font-family="Noto Sans KR, sans-serif" font-size="30">ㄷ</text>
  <text id="slot.diagram.label.ma.copy10.text" x="565" y="230" fill="#111111" font-family="Noto Sans KR, sans-serif" font-size="25">9cm</text>
  <text id="slot.diagram.label.ma.copy10.copy11.text" x="166" y="294" fill="#111111" font-family="Noto Sans KR, sans-serif" font-size="25" transform="rotate(-50 197.83 283.21)">12cm</text>
</svg>
