<?xml version="1.0" encoding="UTF-8"?>
<svg xmlns="http://www.w3.org/2000/svg" width="760" height="170" viewBox="0 0 760 170">
  <metadata><problem_id>S3_초등_3_009014</problem_id></metadata>
  <rect x="0" y="0" width="760" height="170" fill="#FFFFFF" />
  <circle id="slot.opt.left_curve.p1.circle" cx="148" cy="66" r="2.3" stroke="#111111" stroke-width="2" fill="#222222" />
  <circle id="slot.opt.left_curve.p2.circle" cx="262" cy="44" r="2.3" stroke="#111111" stroke-width="2" fill="#222222" />
  <circle id="slot.opt.middle_segment.p1.circle" cx="384" cy="56" r="2.3" stroke="#111111" stroke-width="2" fill="#222222" />
  <circle id="slot.opt.middle_segment.p2.circle" cx="498" cy="56" r="2.3" stroke="#111111" stroke-width="2" fill="#222222" />
  <circle id="slot.opt.right_polyline.p1.circle" cx="606" cy="46" r="2.3" stroke="#111111" stroke-width="2" fill="#222222" />
  <circle id="slot.opt.right_polyline.p2.circle" cx="700" cy="66" r="2.3" stroke="#111111" stroke-width="2" fill="#222222" />
  <text id="slot.qnum.text" x="12" y="22" fill="#111111" font-family="Noto Sans KR, sans-serif" font-size="28">□ 52.</text>
  <text id="slot.qtext.text" x="88" y="22" fill="#111111" font-family="Noto Sans KR, sans-serif" font-size="28">선분을 선택하세요.</text>
  <path id="slot.opt.left_curve.path" d="M 150.0 64.0 C 164.0 28.0, 196.0 28.0, 212.0 64.0 C 224.0 86.0, 242.0 86.0, 258.0 44.0" stroke="#111111" stroke-width="2" fill="none" />
  <path id="slot.opt.right_polyline.path" d="M 606.0 46.0 L 628.0 66.0 L 646.0 46.0 L 664.0 66.0 L 682.0 46.0 L 700.0 66.0" stroke="#111111" stroke-width="2" fill="none" />
  <line id="slot.opt.middle_segment.line" x1="384" y1="56" x2="498" y2="56" stroke="#111111" stroke-width="2" />
  <line id="slot.answer_blank.line" x1="61" y1="103" x2="178" y2="103" stroke="#111111" stroke-width="2" />
</svg>
