<?xml version="1.0" encoding="UTF-8"?>
<svg xmlns="http://www.w3.org/2000/svg" width="940" height="445" viewBox="0 0 940 445">
  <metadata><problem_id>S3_초등_3_008816</problem_id></metadata>
  <rect x="0" y="0" width="940" height="445" fill="#FFFFFF" />
  <text id="slot.q.no.text" x="10" y="28" fill="#111111" font-family="Noto Sans KR, sans-serif" font-size="28">49.</text>
  <text id="slot.q.text1.text" x="44" y="28" fill="#111111" font-family="Noto Sans KR, sans-serif" font-size="28">가 그릇과 나 그릇에 물을 가득 채운 후 모양과 크기가 같은 그릇에 옮겨</text>
  <text id="slot.q.text2.text" x="10" y="62" fill="#111111" font-family="Noto Sans KR, sans-serif" font-size="28">담았더니 그림과 같이 물이 채워졌습니다. 들이가 더 많은 그릇을</text>
  <text id="slot.q.text3.text" x="10" y="96" fill="#111111" font-family="Noto Sans KR, sans-serif" font-size="28">선택해 보세요.</text>
  <path id="slot.bottle.ga.outline.path" d="M 360 78 C 360 66 368 58 380 58 L 384 58 C 396 58 404 66 404 78 L 404 88 C 404 94 408 100 414 106 C 420 112 424 120 424 132 L 424 246 C 424 258 414 268 402 268 L 362 268 C 350 268 340 258 340 246 L 340 132 C 340 120 344 112 350 106 C 356 100 360 94 360 88 Z" stroke="#111111" stroke-width="2" fill="none" />
  <rect id="slot.bottle.ga.water.rect" x="344" y="115" width="76" height="150" fill="#ffffff" stroke="#111111" stroke-width="1.5" />
  <path id="slot.bottle.na.outline.path" d="M 604 78 C 604 66 612 58 624 58 L 628 58 C 640 58 648 66 648 78 L 648 88 C 648 94 652 100 658 106 C 664 112 668 120 668 132 L 668 246 C 668 258 658 268 646 268 L 606 268 C 594 268 584 258 584 246 L 584 132 C 584 120 588 112 594 106 C 600 100 604 94 604 88 Z" stroke="#111111" stroke-width="2" fill="none" />
  <rect id="slot.bottle.na.water.rect" x="588" y="166" width="76" height="99" fill="#ffffff" stroke="#111111" stroke-width="1.5" />
  <circle id="slot.label.ga.circle.circle" cx="328" cy="70" r="11" stroke="#111111" stroke-width="2" fill="#FFFFFF" />
  <circle id="slot.label.na.circle.circle" cx="572" cy="70" r="11" stroke="#111111" stroke-width="2" fill="#FFFFFF" />
  <text id="slot.label.ga.text.text" x="321" y="78" fill="#111111" font-family="Noto Sans KR, sans-serif" font-size="22">가</text>
  <text id="slot.label.na.text.text" x="565" y="78" fill="#111111" font-family="Noto Sans KR, sans-serif" font-size="22">나</text>
  <text id="slot.choice.text.text" x="742" y="314" fill="#111111" font-family="Noto Sans KR, sans-serif" font-size="28">（ 가, 나 ）그릇</text>
</svg>
