<?xml version="1.0" encoding="UTF-8"?>
<svg xmlns="http://www.w3.org/2000/svg" width="820" height="620" viewBox="0 0 820 620">
  <metadata><problem_id>S3_초등_3_008725</problem_id></metadata>
  <rect x="0" y="0" width="820" height="620" fill="#FFFFFF" />
  <rect id="slot.choice.1.shape.rect" x="105" y="140" width="185" height="180" fill="#ffffff" stroke="#111111" stroke-width="1.5" />
  <circle id="slot.choice.2.shape.circle" cx="464" cy="235" r="90" stroke="#111111" stroke-width="2" fill="none" />
  <circle id="slot.choice.3.shape.circle" cx="728" cy="198" r="45" stroke="#111111" stroke-width="2" fill="none" />
  <circle id="slot.choice.4.shape.circle" cx="170" cy="445" r="60" stroke="#111111" stroke-width="2" fill="none" />
  <circle id="slot.choice.5.shape.circle" cx="465" cy="410" r="50" stroke="#111111" stroke-width="2" fill="none" />
  <circle id="slot.choice.3.shape.copy13.circle" cx="930" cy="390" r="45" stroke="#111111" stroke-width="2" fill="none" />
  <circle id="slot.choice.3.shape.copy14.circle" cx="945" cy="405" r="45" stroke="#111111" stroke-width="2" fill="none" />
  <circle id="slot.choice.2.shape.copy15.circle" cx="200" cy="445" r="90" stroke="#111111" stroke-width="2" fill="none" />
  <circle id="slot.choice.2.shape.copy16.circle" cx="465" cy="235" r="45" stroke="#111111" stroke-width="2" fill="none" />
  <circle id="slot.choice.2.shape.copy17.circle" cx="755" cy="235" r="45" stroke="#111111" stroke-width="2" fill="none" />
  <circle id="slot.choice.2.shape.copy18.circle" cx="465" cy="235" r="65" stroke="#111111" stroke-width="2" fill="none" />
  <circle id="slot.choice.2.shape.copy19.circle" cx="465" cy="450" r="90" stroke="#111111" stroke-width="2" fill="none" />
  <circle id="slot.choice.2.shape.copy20.circle" cx="230" cy="445" r="60" stroke="#111111" stroke-width="2" fill="none" />
  <circle id="slot.choice.2.shape.copy21.circle" cx="700" cy="235" r="45" stroke="#111111" stroke-width="2" fill="none" />
  <circle id="slot.choice.4.shape.copy22.circle" cx="500" cy="775" r="60" stroke="#111111" stroke-width="2" fill="none" />
  <circle id="slot.choice.5.shape.copy23.circle" cx="930" cy="670" r="50" stroke="#111111" stroke-width="2" fill="none" />
  <circle id="slot.choice.2.shape.copy16.copy24.circle" cx="465" cy="408" r="30" stroke="#111111" stroke-width="2" fill="none" />
  <path id="slot.inserted.quarterArc.1.path" d="M 200 320 A 95 90 0 0 1 290 230" stroke="#111827" stroke-width="1.5" fill="none" />
  <path id="slot.inserted.quarterArc.1.copy1.path" d="M 100 230 A 105 90 0 0 1 195 140" stroke="#111827" stroke-width="1.5" fill="none" transform="rotate(180 150.88 184.08)" />
  <path id="slot.inserted.quarterArc.1.copy1.copy2.path" d="M 200 230 A 95 90 0 0 1 290 140" stroke="#111827" stroke-width="1.5" fill="none" transform="rotate(270 245 185)" />
  <path id="slot.inserted.quarterArc.1.copy1.copy3.path" d="M 105 320 A 105 95 0 0 1 200 225" stroke="#111827" stroke-width="1.5" fill="none" transform="rotate(450 152.5 275)" />
  <text id="slot.q_text.text" x="45" y="70" fill="#111111" font-family="Noto Sans KR, sans-serif" font-size="30">원의 중심의 개수가 가장 많은 모양을 고르세요.</text>
  <text id="slot.choice.1.label.text" x="45" y="165" fill="#111111" font-family="Noto Sans KR, sans-serif" font-size="30">①</text>
  <text id="slot.choice.2.label.text" x="319" y="165" fill="#111111" font-family="Noto Sans KR, sans-serif" font-size="30">②</text>
  <text id="slot.choice.3.label.text" x="572" y="165" fill="#111111" font-family="Noto Sans KR, sans-serif" font-size="30">③</text>
  <text id="slot.choice.4.label.text" x="50" y="410" fill="#111111" font-family="Noto Sans KR, sans-serif" font-size="30">④</text>
  <text id="slot.choice.5.label.text" x="318" y="410" fill="#111111" font-family="Noto Sans KR, sans-serif" font-size="30">⑤</text>
</svg>
