<?xml version="1.0" encoding="UTF-8"?>
<svg xmlns="http://www.w3.org/2000/svg" width="960" height="520" viewBox="0 0 960 520">
  <metadata><problem_id>S3_초등_3_008764</problem_id></metadata>
  <rect x="0" y="0" width="960" height="520" fill="#FFFFFF" />
  <text id="slot.qnum.text" x="14" y="40" fill="#111111" font-family="Noto Sans KR, sans-serif" font-size="28">□ 66.</text>
  <text id="slot.qtext1.text" x="72" y="40" fill="#111111" font-family="Noto Sans KR, sans-serif" font-size="28">저울을 사용하여 공책과 필통의 무게를 비교하려고 합니다. 알맞은 말을</text>
  <text id="slot.qtext2.text" x="72" y="76" fill="#111111" font-family="Noto Sans KR, sans-serif" font-size="28">선택하세요.</text>
  <rect id="slot.scale.base.rect" x="380" y="250" width="215" height="52" fill="#ffffff" stroke="#111111" stroke-width="1.5" rx="8" ry="8" />
  <rect id="slot.scale.pillar.rect" x="476" y="165" width="22" height="95" fill="#ffffff" stroke="#111111" stroke-width="1.5" rx="6" ry="6" />
  <rect id="slot.scale.left.book.rect" x="400" y="120" width="86" height="56" fill="#ffffff" stroke="#111111" stroke-width="1.5" rx="4" ry="4" />
  <rect id="slot.scale.right.pencilcase.rect" x="520" y="126" width="76" height="54" fill="#ffffff" stroke="#111111" stroke-width="1.5" rx="4" ry="4" />
  <line id="slot.scale.beam.line" x1="382" y1="150" x2="582" y2="182" stroke="#111111" stroke-width="2" />
  <line id="slot.scale.left.pan.line" x1="408" y1="158" x2="438" y2="222" stroke="#111111" stroke-width="2" />
  <line id="slot.scale.right.pan.line" x1="556" y1="178" x2="526" y2="232" stroke="#111111" stroke-width="2" />
  <line id="slot.scale.left.stand.line" x1="424" y1="220" x2="424" y2="268" stroke="#111111" stroke-width="2" />
  <line id="slot.scale.right.stand.line" x1="538" y1="230" x2="538" y2="268" stroke="#111111" stroke-width="2" />
  <circle id="slot.scale.center.knob.circle" cx="487" cy="208" r="5" stroke="#111111" stroke-width="2" fill="#222222" />
  <text id="slot.label.book.text" x="418" y="104" fill="#111111" font-family="Noto Sans KR, sans-serif" font-size="28">공책</text>
  <text id="slot.label.pencilcase.text" x="536" y="108" fill="#111111" font-family="Noto Sans KR, sans-serif" font-size="28">필통</text>
  <text id="slot.choice.text" x="200" y="392" fill="#111111" font-family="Noto Sans KR, sans-serif" font-size="28">공책이 필통보다 더 ( 무겁습니다, 가볍습니다 ).</text>
</svg>
