<?xml version="1.0" encoding="UTF-8"?>
<svg xmlns="http://www.w3.org/2000/svg" width="640" height="302" viewBox="0 0 640 302">
  <metadata><problem_id>S3_초등_3_008992</problem_id></metadata>
  <rect x="0" y="0" width="640" height="302" fill="#FFFFFF" />
  <text id="slot.qnum.text" x="26" y="24" fill="#111111" font-family="Noto Sans KR, sans-serif" font-size="24">30.</text>
  <text id="slot.qtext.text" x="62" y="24" fill="#111111" font-family="Noto Sans KR, sans-serif" font-size="28">직각삼각형을 찾아 기호를 선택하세요.</text>
  <rect id="slot.grid.bg.rect" x="252" y="43" width="366" height="76" fill="#F4FBFF" stroke="#9AA0A6" stroke-width="1" />
  <line id="slot.grid.v1.line" x1="252" y1="43" x2="252" y2="119" stroke="#9AA0A6" stroke-width="1.2" stroke-dasharray="5 3" />
  <line id="slot.grid.v2.line" x1="272" y1="43" x2="272" y2="119" stroke="#9AA0A6" stroke-width="1.2" stroke-dasharray="5 3" />
  <line id="slot.grid.v3.line" x1="292" y1="43" x2="292" y2="119" stroke="#9AA0A6" stroke-width="1.2" stroke-dasharray="5 3" />
  <line id="slot.grid.v4.line" x1="312" y1="43" x2="312" y2="119" stroke="#9AA0A6" stroke-width="1.2" stroke-dasharray="5 3" />
  <line id="slot.grid.v5.line" x1="332" y1="43" x2="332" y2="119" stroke="#9AA0A6" stroke-width="1.2" stroke-dasharray="5 3" />
  <line id="slot.grid.v6.line" x1="352" y1="43" x2="352" y2="119" stroke="#9AA0A6" stroke-width="1.2" stroke-dasharray="5 3" />
  <line id="slot.grid.v7.line" x1="372" y1="43" x2="372" y2="119" stroke="#9AA0A6" stroke-width="1.2" stroke-dasharray="5 3" />
  <line id="slot.grid.v8.line" x1="392" y1="43" x2="392" y2="119" stroke="#9AA0A6" stroke-width="1.2" stroke-dasharray="5 3" />
  <line id="slot.grid.v9.line" x1="412" y1="43" x2="412" y2="119" stroke="#9AA0A6" stroke-width="1.2" stroke-dasharray="5 3" />
  <line id="slot.grid.v10.line" x1="432" y1="43" x2="432" y2="119" stroke="#9AA0A6" stroke-width="1.2" stroke-dasharray="5 3" />
  <line id="slot.grid.v11.line" x1="452" y1="43" x2="452" y2="119" stroke="#9AA0A6" stroke-width="1.2" stroke-dasharray="5 3" />
  <line id="slot.grid.v12.line" x1="472" y1="43" x2="472" y2="119" stroke="#9AA0A6" stroke-width="1.2" stroke-dasharray="5 3" />
  <line id="slot.grid.v13.line" x1="492" y1="43" x2="492" y2="119" stroke="#9AA0A6" stroke-width="1.2" stroke-dasharray="5 3" />
  <line id="slot.grid.v14.line" x1="512" y1="43" x2="512" y2="119" stroke="#9AA0A6" stroke-width="1.2" stroke-dasharray="5 3" />
  <line id="slot.grid.v15.line" x1="532" y1="43" x2="532" y2="119" stroke="#9AA0A6" stroke-width="1.2" stroke-dasharray="5 3" />
  <line id="slot.grid.v16.line" x1="552" y1="43" x2="552" y2="119" stroke="#9AA0A6" stroke-width="1.2" stroke-dasharray="5 3" />
  <line id="slot.grid.v17.line" x1="572" y1="43" x2="572" y2="119" stroke="#9AA0A6" stroke-width="1.2" stroke-dasharray="5 3" />
  <line id="slot.grid.v18.line" x1="592" y1="43" x2="592" y2="119" stroke="#9AA0A6" stroke-width="1.2" stroke-dasharray="5 3" />
  <line id="slot.grid.h1.line" x1="252" y1="43" x2="618" y2="43" stroke="#9AA0A6" stroke-width="1.2" stroke-dasharray="5 3" />
  <line id="slot.grid.h2.line" x1="252" y1="56" x2="618" y2="56" stroke="#9AA0A6" stroke-width="1.2" stroke-dasharray="5 3" />
  <line id="slot.grid.h3.line" x1="252" y1="69" x2="618" y2="69" stroke="#9AA0A6" stroke-width="1.2" stroke-dasharray="5 3" />
  <line id="slot.grid.h4.line" x1="252" y1="82" x2="618" y2="82" stroke="#9AA0A6" stroke-width="1.2" stroke-dasharray="5 3" />
  <line id="slot.grid.h5.line" x1="252" y1="95" x2="618" y2="95" stroke="#9AA0A6" stroke-width="1.2" stroke-dasharray="5 3" />
  <line id="slot.grid.h6.line" x1="252" y1="108" x2="618" y2="108" stroke="#9AA0A6" stroke-width="1.2" stroke-dasharray="5 3" />
  <line id="slot.tri.a1.line" x1="284" y1="63" x2="284" y2="106" stroke="#666666" stroke-width="1.6" />
  <line id="slot.tri.a2.line" x1="284" y1="63" x2="354" y2="106" stroke="#666666" stroke-width="1.6" />
  <line id="slot.tri.a3.line" x1="284" y1="106" x2="354" y2="106" stroke="#666666" stroke-width="1.6" />
  <line id="slot.tri.b1.line" x1="376" y1="106" x2="417" y2="63" stroke="#666666" stroke-width="1.6" />
  <line id="slot.tri.b2.line" x1="376" y1="106" x2="441" y2="63" stroke="#666666" stroke-width="1.6" />
  <line id="slot.tri.b3.line" x1="417" y1="63" x2="441" y2="63" stroke="#666666" stroke-width="1.6" />
  <line id="slot.tri.c1.line" x1="494" y1="63" x2="462" y2="106" stroke="#666666" stroke-width="1.6" />
  <line id="slot.tri.c2.line" x1="494" y1="63" x2="566" y2="106" stroke="#666666" stroke-width="1.6" />
  <line id="slot.tri.c3.line" x1="462" y1="106" x2="566" y2="106" stroke="#666666" stroke-width="1.6" />
  <text id="slot.lb.a.text" x="307" y="87" fill="#111111" font-family="Noto Sans KR, sans-serif" font-size="28">가</text>
  <text id="slot.lb.b.text" x="415" y="77" fill="#111111" font-family="Noto Sans KR, sans-serif" font-size="28">나</text>
  <text id="slot.lb.c.text" x="523" y="87" fill="#111111" font-family="Noto Sans KR, sans-serif" font-size="28">다</text>
  <text id="slot.choice.text" x="368" y="155" fill="#111111" font-family="Noto Sans KR, sans-serif" font-size="28">( 가, 나, 다 )</text>
</svg>
