<?xml version="1.0" encoding="UTF-8"?>
<svg xmlns="http://www.w3.org/2000/svg" width="960" height="500" viewBox="0 0 960 500">
  <metadata><problem_id>S3_초등_3_008669</problem_id></metadata>
  <rect x="0" y="0" width="960" height="500" fill="#FFFFFF" />
  <rect id="slot.choice_box.rect" x="200" y="88" width="582" height="130" fill="none" stroke="#A89BEA" stroke-width="1.5" />
  <circle id="slot.choice.a.outer.circle" cx="295" cy="149" r="44" stroke="#333333" stroke-width="2" fill="none" />
  <circle id="slot.choice.a.left.circle" cx="280" cy="149" r="22" stroke="#333333" stroke-width="2" fill="none" />
  <circle id="slot.choice.a.right.circle" cx="310" cy="149" r="22" stroke="#333333" stroke-width="2" fill="none" />
  <circle id="slot.choice.b.outer.circle" cx="484" cy="149" r="44" stroke="#333333" stroke-width="2" fill="none" />
  <circle id="slot.choice.b.middle.circle" cx="484" cy="149" r="31" stroke="#333333" stroke-width="2" fill="none" />
  <circle id="slot.choice.b.inner.circle" cx="484" cy="149" r="16" stroke="#333333" stroke-width="2" fill="none" />
  <circle id="slot.choice.c.outer.circle" cx="683" cy="149" r="44" stroke="#333333" stroke-width="2" fill="none" />
  <circle id="slot.choice.c.inner.circle" cx="683" cy="173" r="24" stroke="#333333" stroke-width="2" fill="none" />
  <circle id="slot.ans.outer1.circle" cx="92" cy="267" r="35" stroke="#333333" stroke-width="2" fill="none" />
  <circle id="slot.ans.outer2.circle" cx="92" cy="267" r="22" stroke="#333333" stroke-width="2" fill="none" />
  <circle id="slot.ans.inner.circle" cx="92" cy="267" r="11" stroke="#333333" stroke-width="2" fill="none" />
  <circle id="slot.ex1.outer.circle" cx="93" cy="434" r="42" stroke="#333333" stroke-width="2" fill="none" />
  <circle id="slot.ex1.left.circle" cx="74" cy="434" r="22" stroke="#333333" stroke-width="2" fill="none" />
  <circle id="slot.ex1.right.circle" cx="112" cy="434" r="22" stroke="#333333" stroke-width="2" fill="none" />
  <circle id="slot.ex1.dot1.circle" cx="73" cy="436" r="3.8" stroke="none" stroke-width="2" fill="#1DA1F2" />
  <circle id="slot.ex1.dot2.circle" cx="113" cy="436" r="3.8" stroke="none" stroke-width="2" fill="#1DA1F2" />
  <circle id="slot.ex2.outer.circle" cx="239" cy="434" r="42" stroke="#333333" stroke-width="2" fill="none" />
  <circle id="slot.ex2.middle.circle" cx="239" cy="434" r="31" stroke="#333333" stroke-width="2" fill="none" />
  <circle id="slot.ex2.inner.circle" cx="239" cy="434" r="16" stroke="#333333" stroke-width="2" fill="none" />
  <circle id="slot.ex2.dot.circle" cx="239" cy="434" r="3.8" stroke="none" stroke-width="2" fill="#1DA1F2" />
  <circle id="slot.ex3.outer.circle" cx="372" cy="434" r="42" stroke="#333333" stroke-width="2" fill="none" />
  <circle id="slot.ex3.inner.circle" cx="372" cy="460" r="20" stroke="#333333" stroke-width="2" fill="none" />
  <circle id="slot.ex3.inner2.circle" cx="372" cy="446" r="13" stroke="#333333" stroke-width="2" fill="none" />
  <circle id="slot.ex3.dot1.circle" cx="372" cy="436" r="3.8" stroke="none" stroke-width="2" fill="#1DA1F2" />
  <circle id="slot.ex3.dot2.circle" cx="372" cy="459" r="3.8" stroke="none" stroke-width="2" fill="#1DA1F2" />
  <text id="slot.q1.text" x="16" y="22" max_width="832" fill="#111111" font-family="Noto Sans KR, sans-serif" font-size="28">□ 48.  원의 중심을 옮기지 않고 반지름만 다르게 하여 그린 것을 찾아 선택하</text>
  <text id="slot.q2.text" x="16" y="58" max_width="832" fill="#111111" font-family="Noto Sans KR, sans-serif" font-size="28">세요.</text>
</svg>
