<?xml version="1.0" encoding="UTF-8"?>
<svg xmlns="http://www.w3.org/2000/svg" width="939" height="700" viewBox="0 0 939 700">
  <metadata><problem_id>S3_초등_3_008638</problem_id></metadata>
  <rect x="0" y="0" width="939" height="700" fill="#FFFFFF" />
  <text id="slot.qnum.text" x="26" y="18" max_width="811" fill="#111111" font-family="Noto Sans KR, sans-serif" font-size="28">10.</text>
  <text id="slot.qtext.text" x="74" y="18" max_width="811" fill="#111111" font-family="Noto Sans KR, sans-serif" font-size="28">원의 중심을 찾아 선택해 보세요.</text>
  <rect id="slot.answer_blank.rect" x="72" y="269" width="22" height="22" fill="none" stroke="none" stroke-width="1.5" />
  <text id="slot.ans_label.text" x="26" y="620" max_width="811" fill="#111111" font-family="Noto Sans KR, sans-serif" font-size="22">(정답)</text>
  <text id="slot.exp.text" x="26" y="660" max_width="811" fill="#111111" font-family="Noto Sans KR, sans-serif" font-size="20">(해설) 원의 중심은 원을 그릴 때 누름 못이 꽂혔던 점으로 한 원에는 원의 중심이 1개 있습니다.</text>
  <circle id="slot.top.circle.circle" cx="466" cy="136" r="78" stroke="#333333" stroke-width="1.8" fill="none" />
  <circle id="slot.top.pt.ga.circle" cx="430" cy="138" r="3.5" stroke="#111111" stroke-width="2" fill="#ff3aa8" />
  <circle id="slot.top.pt.na.circle" cx="490" cy="138" r="3.5" stroke="#111111" stroke-width="2" fill="#ff3aa8" />
  <circle id="slot.top.pt.da.circle" cx="430" cy="196" r="3.5" stroke="#111111" stroke-width="2" fill="#ff3aa8" />
  <line id="slot.top.grid.v0.line" x1="370" y1="40" x2="370" y2="232" stroke="#5FCBFF" stroke-width="1.2" stroke-dasharray="5 3" />
  <line id="slot.top.grid.v1.line" x1="394" y1="40" x2="394" y2="232" stroke="#5FCBFF" stroke-width="1.2" stroke-dasharray="5 3" />
  <line id="slot.top.grid.v2.line" x1="418" y1="40" x2="418" y2="232" stroke="#5FCBFF" stroke-width="1.2" stroke-dasharray="5 3" />
  <line id="slot.top.grid.v3.line" x1="442" y1="40" x2="442" y2="232" stroke="#5FCBFF" stroke-width="1.2" stroke-dasharray="5 3" />
  <line id="slot.top.grid.v4.line" x1="466" y1="40" x2="466" y2="232" stroke="#5FCBFF" stroke-width="1.2" stroke-dasharray="5 3" />
  <line id="slot.top.grid.v5.line" x1="490" y1="40" x2="490" y2="232" stroke="#5FCBFF" stroke-width="1.2" stroke-dasharray="5 3" />
  <line id="slot.top.grid.v6.line" x1="514" y1="40" x2="514" y2="232" stroke="#5FCBFF" stroke-width="1.2" stroke-dasharray="5 3" />
  <line id="slot.top.grid.v7.line" x1="538" y1="40" x2="538" y2="232" stroke="#5FCBFF" stroke-width="1.2" stroke-dasharray="5 3" />
  <line id="slot.top.grid.v8.line" x1="562" y1="40" x2="562" y2="232" stroke="#5FCBFF" stroke-width="1.2" stroke-dasharray="5 3" />
  <line id="slot.top.grid.h0.line" x1="370" y1="40" x2="562" y2="40" stroke="#5FCBFF" stroke-width="1.2" stroke-dasharray="5 3" />
  <line id="slot.top.grid.h1.line" x1="370" y1="64" x2="562" y2="64" stroke="#5FCBFF" stroke-width="1.2" stroke-dasharray="5 3" />
  <line id="slot.top.grid.h2.line" x1="370" y1="88" x2="562" y2="88" stroke="#5FCBFF" stroke-width="1.2" stroke-dasharray="5 3" />
  <line id="slot.top.grid.h3.line" x1="370" y1="112" x2="562" y2="112" stroke="#5FCBFF" stroke-width="1.2" stroke-dasharray="5 3" />
  <line id="slot.top.grid.h4.line" x1="370" y1="136" x2="562" y2="136" stroke="#5FCBFF" stroke-width="1.2" stroke-dasharray="5 3" />
  <line id="slot.top.grid.h5.line" x1="370" y1="160" x2="562" y2="160" stroke="#5FCBFF" stroke-width="1.2" stroke-dasharray="5 3" />
  <line id="slot.top.grid.h6.line" x1="370" y1="184" x2="562" y2="184" stroke="#5FCBFF" stroke-width="1.2" stroke-dasharray="5 3" />
  <line id="slot.top.grid.h7.line" x1="370" y1="208" x2="562" y2="208" stroke="#5FCBFF" stroke-width="1.2" stroke-dasharray="5 3" />
  <line id="slot.top.grid.h8.line" x1="370" y1="232" x2="562" y2="232" stroke="#5FCBFF" stroke-width="1.2" stroke-dasharray="5 3" />
  <text id="slot.top.lb.ga.text" x="414" y="127" max_width="811" fill="#111111" font-family="Noto Sans KR, sans-serif" font-size="24">가</text>
  <text id="slot.top.lb.na.text" x="474" y="127" max_width="811" fill="#111111" font-family="Noto Sans KR, sans-serif" font-size="24">나</text>
  <text id="slot.top.lb.da.text" x="414" y="189" max_width="811" fill="#111111" font-family="Noto Sans KR, sans-serif" font-size="24">다</text>
  <circle id="slot.bottom.circle.circle" cx="132" cy="478" r="78" stroke="#333333" stroke-width="1.8" fill="none" />
  <circle id="slot.bottom.pt.ga.circle" cx="96" cy="480" r="3.5" stroke="#111111" stroke-width="2" fill="#ff3aa8" />
  <circle id="slot.bottom.pt.na.circle" cx="156" cy="480" r="3.5" stroke="#111111" stroke-width="2" fill="#ff3aa8" />
  <circle id="slot.bottom.pt.da.circle" cx="96" cy="538" r="3.5" stroke="#111111" stroke-width="2" fill="#ff3aa8" />
  <circle id="slot.bottom.center_hint.circle" cx="132" cy="480" r="16" stroke="#b9b9b9" stroke-width="1.2" fill="none" />
  <line id="slot.bottom.grid.v0.line" x1="36" y1="382" x2="36" y2="574" stroke="#5FCBFF" stroke-width="1.2" stroke-dasharray="5 3" />
  <line id="slot.bottom.grid.v1.line" x1="60" y1="382" x2="60" y2="574" stroke="#5FCBFF" stroke-width="1.2" stroke-dasharray="5 3" />
  <line id="slot.bottom.grid.v2.line" x1="84" y1="382" x2="84" y2="574" stroke="#5FCBFF" stroke-width="1.2" stroke-dasharray="5 3" />
  <line id="slot.bottom.grid.v3.line" x1="108" y1="382" x2="108" y2="574" stroke="#5FCBFF" stroke-width="1.2" stroke-dasharray="5 3" />
  <line id="slot.bottom.grid.v4.line" x1="132" y1="382" x2="132" y2="574" stroke="#5FCBFF" stroke-width="1.2" stroke-dasharray="5 3" />
  <line id="slot.bottom.grid.v5.line" x1="156" y1="382" x2="156" y2="574" stroke="#5FCBFF" stroke-width="1.2" stroke-dasharray="5 3" />
  <line id="slot.bottom.grid.v6.line" x1="180" y1="382" x2="180" y2="574" stroke="#5FCBFF" stroke-width="1.2" stroke-dasharray="5 3" />
  <line id="slot.bottom.grid.v7.line" x1="204" y1="382" x2="204" y2="574" stroke="#5FCBFF" stroke-width="1.2" stroke-dasharray="5 3" />
  <line id="slot.bottom.grid.v8.line" x1="228" y1="382" x2="228" y2="574" stroke="#5FCBFF" stroke-width="1.2" stroke-dasharray="5 3" />
  <line id="slot.bottom.grid.h0.line" x1="36" y1="382" x2="228" y2="382" stroke="#5FCBFF" stroke-width="1.2" stroke-dasharray="5 3" />
  <line id="slot.bottom.grid.h1.line" x1="36" y1="406" x2="228" y2="406" stroke="#5FCBFF" stroke-width="1.2" stroke-dasharray="5 3" />
  <line id="slot.bottom.grid.h2.line" x1="36" y1="430" x2="228" y2="430" stroke="#5FCBFF" stroke-width="1.2" stroke-dasharray="5 3" />
  <line id="slot.bottom.grid.h3.line" x1="36" y1="454" x2="228" y2="454" stroke="#5FCBFF" stroke-width="1.2" stroke-dasharray="5 3" />
  <line id="slot.bottom.grid.h4.line" x1="36" y1="478" x2="228" y2="478" stroke="#5FCBFF" stroke-width="1.2" stroke-dasharray="5 3" />
  <line id="slot.bottom.grid.h5.line" x1="36" y1="502" x2="228" y2="502" stroke="#5FCBFF" stroke-width="1.2" stroke-dasharray="5 3" />
  <line id="slot.bottom.grid.h6.line" x1="36" y1="526" x2="228" y2="526" stroke="#5FCBFF" stroke-width="1.2" stroke-dasharray="5 3" />
  <line id="slot.bottom.grid.h7.line" x1="36" y1="550" x2="228" y2="550" stroke="#5FCBFF" stroke-width="1.2" stroke-dasharray="5 3" />
  <line id="slot.bottom.grid.h8.line" x1="36" y1="574" x2="228" y2="574" stroke="#5FCBFF" stroke-width="1.2" stroke-dasharray="5 3" />
  <text id="slot.bottom.lb.ga.text" x="80" y="469" max_width="811" fill="#111111" font-family="Noto Sans KR, sans-serif" font-size="24">가</text>
  <text id="slot.bottom.lb.na.text" x="140" y="469" max_width="811" fill="#111111" font-family="Noto Sans KR, sans-serif" font-size="24">나</text>
  <text id="slot.bottom.lb.da.text" x="80" y="531" max_width="811" fill="#111111" font-family="Noto Sans KR, sans-serif" font-size="24">다</text>
</svg>
