<?xml version="1.0" encoding="UTF-8"?>
<svg xmlns="http://www.w3.org/2000/svg" width="856" height="481" viewBox="0 0 856 481">
  <metadata><problem_id>S3_초등_3_009005</problem_id></metadata>
  <rect x="0" y="0" width="856" height="481" fill="#FFFFFF" />
  <rect id="slot.balloon.left.rect" x="126" y="86" width="92" height="70" fill="#ffffff" stroke="#111111" stroke-width="1.5" rx="35" ry="35" />
  <rect id="slot.balloon.right.rect" x="640" y="86" width="94" height="70" fill="#ffffff" stroke="#111111" stroke-width="1.5" rx="35" ry="35" />
  <polygon id="slot.person.left.body.polygon" points="176,204 208,204 216,244 168,244" stroke="#111111" stroke-width="2" fill="none" />
  <circle id="slot.person.left.head.circle" cx="192" cy="188" r="16" stroke="#111111" stroke-width="2" fill="#F2C8A0" />
  <polygon id="slot.person.left.hair.polygon" points="178,177 186,167 201,168 209,179 205,191 190,183 181,188" stroke="#111111" stroke-width="2" fill="none" />
  <circle id="slot.person.left.face.circle" cx="192" cy="189" r="14" stroke="#111111" stroke-width="2" fill="none" />
  <polygon id="slot.person.right.body.polygon" points="676,204 708,204 716,244 668,244" stroke="#111111" stroke-width="2" fill="none" />
  <circle id="slot.person.right.head.circle" cx="692" cy="188" r="16" stroke="#111111" stroke-width="2" fill="#F2C8A0" />
  <polygon id="slot.person.right.hair.polygon" points="675,176 682,166 698,166 708,175 709,190 696,183 684,189" stroke="#111111" stroke-width="2" fill="none" />
  <circle id="slot.person.right.face.circle" cx="692" cy="189" r="14" stroke="#111111" stroke-width="2" fill="none" />
  <rect id="slot.shape.left.corner.1.rect" x="290" y="88" width="7" height="7" fill="#ffffff" stroke="#111111" stroke-width="1.5" />
  <rect id="slot.shape.left.corner.2.rect" x="394" y="88" width="7" height="7" fill="#ffffff" stroke="#111111" stroke-width="1.5" />
  <rect id="slot.shape.left.corner.3.rect" x="290" y="155" width="7" height="7" fill="#ffffff" stroke="#111111" stroke-width="1.5" />
  <rect id="slot.shape.left.corner.4.rect" x="394" y="155" width="7" height="7" fill="#ffffff" stroke="#111111" stroke-width="1.5" />
  <rect id="slot.shape.right.corner.1.rect" x="448" y="88" width="7" height="7" fill="#ffffff" stroke="#111111" stroke-width="1.5" />
  <rect id="slot.shape.right.corner.2.rect" x="523" y="88" width="7" height="7" fill="#ffffff" stroke="#111111" stroke-width="1.5" />
  <rect id="slot.shape.right.corner.3.rect" x="448" y="155" width="7" height="7" fill="#ffffff" stroke="#111111" stroke-width="1.5" />
  <rect id="slot.shape.right.corner.4.rect" x="523" y="155" width="7" height="7" fill="#ffffff" stroke="#111111" stroke-width="1.5" />
  <rect id="slot.name.left.bg.rect" x="141" y="224" width="38" height="22" fill="#ffffff" stroke="#111111" stroke-width="1.5" rx="6" ry="6" />
  <rect id="slot.name.right.bg.rect" x="676" y="224" width="40" height="22" fill="#ffffff" stroke="#111111" stroke-width="1.5" rx="6" ry="6" />
  <rect id="slot.shape.left.rect.rect" x="290" y="88" width="111" height="74" fill="#ffffff" stroke="#111111" stroke-width="1.5" />
  <rect id="slot.shape.right.rect.rect" x="448" y="88" width="82" height="74" fill="#ffffff" stroke="#111111" stroke-width="1.5" />
  <line id="slot.balloon.left.tail.line" x1="198" y1="152" x2="187" y2="167" stroke="#111111" stroke-width="2" />
  <line id="slot.balloon.right.tail.line" x1="652" y1="152" x2="661" y2="167" stroke="#111111" stroke-width="2" />
  <line id="slot.person.left.mouth.line" x1="188.5" y1="194.5" x2="195.5" y2="194.5" stroke="#111111" stroke-width="2" />
  <line id="slot.person.right.mouth.line" x1="688.5" y1="194.5" x2="695.5" y2="194.5" stroke="#111111" stroke-width="2" />
  <circle id="slot.person.left.eye.l.circle" cx="187" cy="187" r="1.2" stroke="#111111" stroke-width="2" fill="#222222" />
  <circle id="slot.person.left.eye.r.circle" cx="197" cy="187" r="1.2" stroke="#111111" stroke-width="2" fill="#222222" />
  <circle id="slot.person.right.eye.l.circle" cx="687" cy="187" r="1.2" stroke="#111111" stroke-width="2" fill="#222222" />
  <circle id="slot.person.right.eye.r.circle" cx="697" cy="187" r="1.2" stroke="#111111" stroke-width="2" fill="#222222" />
  <text id="slot.q_num.text" x="11" y="25" fill="#111111" font-family="Noto Sans KR, sans-serif" font-size="28">45.</text>
  <text id="slot.q1.text" x="60" y="25" fill="#111111" font-family="Noto Sans KR, sans-serif" font-size="28">직사각형과 정사각형을 보고 같은 점을 바르게 말한 사람을 선택</text>
  <text id="slot.q2.text" x="60" y="58" fill="#111111" font-family="Noto Sans KR, sans-serif" font-size="28">하세요.</text>
  <text id="slot.name.left.text" x="180" y="245" fill="#111111" font-family="Noto Sans KR, sans-serif" font-size="24">승규</text>
  <text id="slot.name.right.text" x="699" y="243" fill="#111111" font-family="Noto Sans KR, sans-serif" font-size="24">나래</text>
  <text id="slot.shape.left.text" x="278" y="88" fill="#111111" font-family="Noto Sans KR, sans-serif" font-size="28"></text>
  <text id="slot.shape.right.text" x="463" y="88" fill="#111111" font-family="Noto Sans KR, sans-serif" font-size="28"></text>
  <text id="slot.balloon.left.text.text" x="146" y="112" fill="#111111" font-family="Noto Sans KR, sans-serif" font-size="24" data-raw-text="꼭짓점의 수가
4개야.">
    <tspan x="146" dy="0">꼭짓점의 수가</tspan>
    <tspan x="146" dy="1.2em">4개야.</tspan>
  </text>
  <text id="slot.balloon.right.text.text" x="656" y="112" fill="#111111" font-family="Noto Sans KR, sans-serif" font-size="24" data-raw-text="변의 길이가
모두 같아.">
    <tspan x="656" dy="0">변의 길이가</tspan>
    <tspan x="656" dy="1.2em">모두 같아.</tspan>
  </text>
</svg>
