<?xml version="1.0" encoding="UTF-8"?>
<svg xmlns="http://www.w3.org/2000/svg" width="840" height="360" viewBox="0 0 840 360">
  <metadata><problem_id>S3_초등_3_008998</problem_id></metadata>
  <rect x="0" y="0" width="840" height="360" fill="#FFFFFF" />
  <rect id="slot.shape.rect.rect" x="286" y="42" width="136" height="88" fill="#ffffff" stroke="#111111" stroke-width="1.5" />
  <rect id="slot.shape.square.rect" x="486" y="42" width="76" height="76" fill="#ffffff" stroke="#111111" stroke-width="1.5" />
  <line id="slot.shape.rect.corner1.a.line" x1="286" y1="42" x2="296" y2="42" stroke="#111111" stroke-width="2" />
  <line id="slot.shape.rect.corner1.b.line" x1="286" y1="42" x2="286" y2="52" stroke="#111111" stroke-width="2" />
  <line id="slot.shape.rect.corner2.a.line" x1="412" y1="42" x2="402" y2="42" stroke="#111111" stroke-width="2" />
  <line id="slot.shape.rect.corner2.b.line" x1="412" y1="42" x2="412" y2="52" stroke="#111111" stroke-width="2" />
  <line id="slot.shape.rect.corner3.a.line" x1="286" y1="130" x2="296" y2="130" stroke="#111111" stroke-width="2" />
  <line id="slot.shape.rect.corner3.b.line" x1="286" y1="130" x2="286" y2="120" stroke="#111111" stroke-width="2" />
  <line id="slot.shape.rect.corner4.a.line" x1="412" y1="130" x2="402" y2="130" stroke="#111111" stroke-width="2" />
  <line id="slot.shape.rect.corner4.b.line" x1="412" y1="130" x2="412" y2="120" stroke="#111111" stroke-width="2" />
  <line id="slot.shape.square.corner1.a.line" x1="486" y1="42" x2="496" y2="42" stroke="#111111" stroke-width="2" />
  <line id="slot.shape.square.corner1.b.line" x1="486" y1="42" x2="486" y2="52" stroke="#111111" stroke-width="2" />
  <line id="slot.shape.square.corner2.a.line" x1="562" y1="42" x2="552" y2="42" stroke="#111111" stroke-width="2" />
  <line id="slot.shape.square.corner2.b.line" x1="562" y1="42" x2="562" y2="52" stroke="#111111" stroke-width="2" />
  <line id="slot.shape.square.corner3.a.line" x1="486" y1="118" x2="496" y2="118" stroke="#111111" stroke-width="2" />
  <line id="slot.shape.square.corner3.b.line" x1="486" y1="118" x2="486" y2="108" stroke="#111111" stroke-width="2" />
  <line id="slot.shape.square.corner4.a.line" x1="562" y1="118" x2="552" y2="118" stroke="#111111" stroke-width="2" />
  <line id="slot.shape.square.corner4.b.line" x1="562" y1="118" x2="562" y2="108" stroke="#111111" stroke-width="2" />
  <text id="slot.title.text" x="16" y="24" fill="#111111" font-family="Noto Sans KR, sans-serif" font-size="28">□ 36. 그림을 보고 알맞은 말을 선택하세요.</text>
  <text id="slot.label.rect.text" x="324" y="144" fill="#111111" font-family="Noto Sans KR, sans-serif" font-size="28">직사각형</text>
  <text id="slot.label.square.text" x="503" y="144" fill="#111111" font-family="Noto Sans KR, sans-serif" font-size="28">정사각형</text>
  <text id="slot.sentence.1.text" x="98" y="192" fill="#111111" font-family="Noto Sans KR, sans-serif" font-size="28">직사각형은 마주 보는 ( 두, 네 ) 변의 길이가 같습니다.</text>
  <text id="slot.sentence.2.text" x="118" y="230" fill="#111111" font-family="Noto Sans KR, sans-serif" font-size="28">정사각형은 ( 두, 네 ) 변의 길이가 모두 같습니다.</text>
</svg>
