<?xml version="1.0" encoding="UTF-8"?>
<svg xmlns="http://www.w3.org/2000/svg" width="920" height="420" viewBox="0 0 920 420">
  <metadata><problem_id>S3_초등_3_009032</problem_id></metadata>
  <rect x="0" y="0" width="920" height="420" fill="#FFFFFF" />
  <rect id="slot.no.rect" x="13" y="14" width="16" height="16" fill="#ffffff" stroke="#111111" stroke-width="1.5" />
  <text id="slot.title.text" x="38" y="28" fill="#111111" font-family="Noto Sans KR, sans-serif" font-size="28">70. 정사각형을 알아보고 합시다. 물음에 답하시오.</text>
  <polygon id="slot.shape.a.polygon" points="247,56 315,56 315,142 247,142" stroke="#111111" stroke-width="2" fill="none" />
  <polygon id="slot.shape.b.polygon" points="346,85 379,64 413,85 379,106" stroke="#111111" stroke-width="2" fill="none" />
  <polygon id="slot.shape.c.polygon" points="433,62 508,62 527,106 414,106" stroke="#111111" stroke-width="2" fill="none" />
  <polygon id="slot.shape.d.polygon" points="548,62 619,62 619,106 548,106" stroke="#111111" stroke-width="2" fill="none" />
  <polygon id="slot.shape.e.polygon" points="647,62 694,62 718,142 670,142" stroke="#111111" stroke-width="2" fill="none" />
  <line id="slot.grid.v1.line" x1="228" y1="44" x2="228" y2="152" stroke="#111111" stroke-width="2" />
  <line id="slot.grid.v2.line" x1="252" y1="44" x2="252" y2="152" stroke="#111111" stroke-width="2" />
  <line id="slot.grid.v3.line" x1="276" y1="44" x2="276" y2="152" stroke="#111111" stroke-width="2" />
  <line id="slot.grid.v4.line" x1="300" y1="44" x2="300" y2="152" stroke="#111111" stroke-width="2" />
  <line id="slot.grid.v5.line" x1="324" y1="44" x2="324" y2="152" stroke="#111111" stroke-width="2" />
  <line id="slot.grid.v6.line" x1="348" y1="44" x2="348" y2="152" stroke="#111111" stroke-width="2" />
  <line id="slot.grid.v7.line" x1="372" y1="44" x2="372" y2="152" stroke="#111111" stroke-width="2" />
  <line id="slot.grid.v8.line" x1="396" y1="44" x2="396" y2="152" stroke="#111111" stroke-width="2" />
  <line id="slot.grid.v9.line" x1="420" y1="44" x2="420" y2="152" stroke="#111111" stroke-width="2" />
  <line id="slot.grid.v10.line" x1="444" y1="44" x2="444" y2="152" stroke="#111111" stroke-width="2" />
  <line id="slot.grid.v11.line" x1="468" y1="44" x2="468" y2="152" stroke="#111111" stroke-width="2" />
  <line id="slot.grid.v12.line" x1="492" y1="44" x2="492" y2="152" stroke="#111111" stroke-width="2" />
  <line id="slot.grid.v13.line" x1="516" y1="44" x2="516" y2="152" stroke="#111111" stroke-width="2" />
  <line id="slot.grid.v14.line" x1="540" y1="44" x2="540" y2="152" stroke="#111111" stroke-width="2" />
  <line id="slot.grid.h1.line" x1="228" y1="44" x2="540" y2="44" stroke="#111111" stroke-width="2" />
  <line id="slot.grid.h2.line" x1="228" y1="68" x2="540" y2="68" stroke="#111111" stroke-width="2" />
  <line id="slot.grid.h3.line" x1="228" y1="92" x2="540" y2="92" stroke="#111111" stroke-width="2" />
  <line id="slot.grid.h4.line" x1="228" y1="116" x2="540" y2="116" stroke="#111111" stroke-width="2" />
  <line id="slot.grid.h5.line" x1="228" y1="140" x2="540" y2="140" stroke="#111111" stroke-width="2" />
  <line id="slot.grid.h6.line" x1="228" y1="152" x2="540" y2="152" stroke="#111111" stroke-width="2" />
  <text id="slot.lb.a.text" x="271" y="108" fill="#111111" font-family="Noto Sans KR, sans-serif" font-size="28">가</text>
  <text id="slot.lb.b.text" x="371" y="92" fill="#111111" font-family="Noto Sans KR, sans-serif" font-size="28">나</text>
  <text id="slot.lb.c.text" x="472" y="89" fill="#111111" font-family="Noto Sans KR, sans-serif" font-size="28">다</text>
  <text id="slot.lb.d.text" x="575" y="89" fill="#111111" font-family="Noto Sans KR, sans-serif" font-size="28">라</text>
  <text id="slot.lb.e.text" x="688" y="117" fill="#111111" font-family="Noto Sans KR, sans-serif" font-size="28">마</text>
  <text id="slot.q1.text" x="15" y="208" fill="#111111" font-family="Noto Sans KR, sans-serif" font-size="28">(4) 정사각형을 찾아 기호를 선택하세요.</text>
  <text id="slot.choice.text" x="661" y="258" fill="#111111" font-family="Noto Sans KR, sans-serif" font-size="28">( 가 , 나 , 다 , 라 , 마 )</text>
  <text id="slot.define.text" x="15" y="316" fill="#111111" font-family="Noto Sans KR, sans-serif" font-size="28">(4) 정사각형은 네 각이 모두 직각이고 네 변의 길이가 모두 같은 사각형입니다.</text>
  <text id="slot.final.text" x="15" y="386" fill="#111111" font-family="Noto Sans KR, sans-serif" font-size="28">(4) 라</text>
</svg>
