<?xml version="1.0" encoding="UTF-8"?>
<svg xmlns="http://www.w3.org/2000/svg" width="720" height="430" viewBox="0 0 720 430">
  <metadata><problem_id>S3_초등_3_009028</problem_id></metadata>
  <rect x="0" y="0" width="720" height="430" fill="#FFFFFF" />
  <rect id="slot.top_box.rect" x="174" y="39" width="486" height="80" fill="none" stroke="#ff9db0" stroke-width="2" rx="10" ry="10" />
  <line id="slot.tri1_a.line" x1="190" y1="53" x2="254" y2="116" stroke="#444444" stroke-width="2" />
  <line id="slot.tri1_b.line" x1="190" y1="53" x2="220" y2="116" stroke="#444444" stroke-width="2" />
  <line id="slot.tri1_c.line" x1="220" y1="116" x2="254" y2="116" stroke="#444444" stroke-width="2" />
  <line id="slot.tri2_a.line" x1="320" y1="53" x2="375" y2="53" stroke="#444444" stroke-width="2" />
  <line id="slot.tri2_b.line" x1="375" y1="53" x2="375" y2="115" stroke="#444444" stroke-width="2" />
  <line id="slot.tri2_c.line" x1="320" y1="53" x2="375" y2="115" stroke="#444444" stroke-width="2" />
  <line id="slot.tri3_a.line" x1="452" y1="53" x2="479" y2="115" stroke="#444444" stroke-width="2" />
  <line id="slot.tri3_b.line" x1="479" y1="115" x2="518" y2="115" stroke="#444444" stroke-width="2" />
  <line id="slot.tri3_c.line" x1="452" y1="53" x2="518" y2="115" stroke="#444444" stroke-width="2" />
  <line id="slot.tri4_a.line" x1="569" y1="68" x2="606" y2="98" stroke="#444444" stroke-width="2" />
  <line id="slot.tri4_b.line" x1="606" y1="98" x2="654" y2="98" stroke="#444444" stroke-width="2" />
  <line id="slot.tri4_c.line" x1="569" y1="68" x2="654" y2="98" stroke="#444444" stroke-width="2" />
  <text id="slot.q_no.text" x="17" y="24" fill="#111111" font-family="Noto Sans KR, sans-serif" font-size="28">67.</text>
  <text id="slot.q_text.text" x="64" y="24" fill="#111111" font-family="Noto Sans KR, sans-serif" font-size="28">직각삼각형을 모두 찾아 기호를 선택하세요.</text>
  <text id="slot.tri1_label.text" x="222" y="100" fill="#111111" font-family="Noto Sans KR, sans-serif" font-size="28">가</text>
  <text id="slot.tri2_label.text" x="357" y="82" fill="#111111" font-family="Noto Sans KR, sans-serif" font-size="28">나</text>
  <text id="slot.tri3_label.text" x="481" y="90" fill="#111111" font-family="Noto Sans KR, sans-serif" font-size="28">다</text>
  <text id="slot.tri4_label.text" x="609" y="89" fill="#111111" font-family="Noto Sans KR, sans-serif" font-size="28">라</text>
  <text id="slot.choice_text.text" x="231" y="153" fill="#111111" font-family="Noto Sans KR, sans-serif" font-size="28">( 가 , 나 , 다 , 라 )</text>
  <rect id="slot.bottom_box.rect" x="32" y="280" width="515" height="112" fill="none" stroke="#ff9db0" stroke-width="2" rx="10" ry="10" />
  <line id="slot.btri1_a.line" x1="48" y1="294" x2="111" y2="366" stroke="#444444" stroke-width="2" />
  <line id="slot.btri1_b.line" x1="48" y1="294" x2="82" y2="366" stroke="#444444" stroke-width="2" />
  <line id="slot.btri1_c.line" x1="82" y1="366" x2="111" y2="366" stroke="#444444" stroke-width="2" />
  <line id="slot.btri2_a.line" x1="193" y1="294" x2="246" y2="294" stroke="#444444" stroke-width="2" />
  <line id="slot.btri2_b.line" x1="246" y1="294" x2="246" y2="366" stroke="#444444" stroke-width="2" />
  <line id="slot.btri2_c.line" x1="193" y1="294" x2="246" y2="366" stroke="#444444" stroke-width="2" />
  <line id="slot.btri3_a.line" x1="316" y1="294" x2="343" y2="366" stroke="#444444" stroke-width="2" />
  <line id="slot.btri3_b.line" x1="343" y1="366" x2="383" y2="366" stroke="#444444" stroke-width="2" />
  <line id="slot.btri3_c.line" x1="316" y1="294" x2="383" y2="366" stroke="#444444" stroke-width="2" />
  <line id="slot.btri4_a.line" x1="446" y1="323" x2="483" y2="293" stroke="#444444" stroke-width="2" />
  <line id="slot.btri4_b.line" x1="483" y1="293" x2="534" y2="366" stroke="#444444" stroke-width="2" />
  <line id="slot.btri4_c.line" x1="446" y1="323" x2="534" y2="366" stroke="#444444" stroke-width="2" />
  <line id="slot.right_mark1.line" x1="247" y1="295" x2="247" y2="305" stroke="#4aa3ff" stroke-width="2" />
  <line id="slot.right_mark2.line" x1="247" y1="305" x2="237" y2="305" stroke="#4aa3ff" stroke-width="2" />
  <text id="slot.btri1_label.text" x="88" y="348" fill="#111111" font-family="Noto Sans KR, sans-serif" font-size="28">가</text>
  <text id="slot.btri2_label.text" x="226" y="322" fill="#111111" font-family="Noto Sans KR, sans-serif" font-size="28">나</text>
  <text id="slot.btri3_label.text" x="344" y="335" fill="#111111" font-family="Noto Sans KR, sans-serif" font-size="28">다</text>
  <text id="slot.btri4_label.text" x="481" y="340" fill="#111111" font-family="Noto Sans KR, sans-serif" font-size="28">라</text>
</svg>
