<?xml version="1.0" encoding="UTF-8"?>
<svg xmlns="http://www.w3.org/2000/svg" width="785" height="559" viewBox="0 0 785 559">
  <metadata><problem_id>S3_초등_3_008604</problem_id></metadata>
  <rect x="0" y="0" width="785" height="559" fill="#FFFFFF" />
  <rect id="slot.expr_box.rect" x="390" y="41" width="186" height="62" fill="none" stroke="#F4A340" stroke-width="2" />
  <path id="slot.bubble_left.path" d="M 238.0 189.0 C 214.0 180.0 194.0 170.0 187.0 154.0 C 182.0 141.0 187.0 125.0 202.0 114.0 C 219.0 101.0 244.0 98.0 269.0 103.0 C 294.0 108.0 312.0 120.0 317.0 136.0 C 322.0 151.0 315.0 166.0 300.0 175.0 C 289.0 182.0 275.0 186.0 261.0 187.0 L 249.0 225.0 Z" stroke="#888888" stroke-width="1.2" fill="white" />
  <path id="slot.bubble_right.path" d="M 641.0 240.0 C 620.0 234.0 603.0 223.0 595.0 208.0 C 588.0 193.0 592.0 176.0 606.0 164.0 C 620.0 151.0 642.0 145.0 666.0 147.0 C 692.0 149.0 712.0 159.0 720.0 175.0 C 728.0 190.0 724.0 207.0 709.0 219.0 C 696.0 229.0 680.0 235.0 663.0 237.0 L 653.0 277.0 Z" stroke="#888888" stroke-width="1.2" fill="white" />
  <circle id="slot.face_left.head.circle" cx="333" cy="292" r="32" stroke="#111111" stroke-width="2" fill="#F3C0AD" />
  <rect id="slot.face_left.body.rect" x="317" y="313" width="32" height="40" fill="#D7A0D7" stroke="#D7A0D7" stroke-width="1.5" rx="10" ry="10" />
  <circle id="slot.face_left.eye1.circle" cx="325" cy="288" r="3" stroke="#111111" stroke-width="2" fill="#222222" />
  <circle id="slot.face_left.eye2.circle" cx="341" cy="288" r="3" stroke="#111111" stroke-width="2" fill="#222222" />
  <circle id="slot.face_right.head.circle" cx="633" cy="304" r="32" stroke="#111111" stroke-width="2" fill="#F3C0AD" />
  <rect id="slot.face_right.body.rect" x="617" y="325" width="32" height="40" fill="#8ED7E6" stroke="#8ED7E6" stroke-width="1.5" rx="10" ry="10" />
  <circle id="slot.face_right.eye1.circle" cx="625" cy="300" r="3" stroke="#111111" stroke-width="2" fill="#222222" />
  <circle id="slot.face_right.eye2.circle" cx="641" cy="300" r="3" stroke="#111111" stroke-width="2" fill="#222222" />
  <line id="slot.face_left.mouth.line" x1="326" y1="300" x2="340" y2="300" stroke="#C36A6A" stroke-width="2" />
  <line id="slot.face_right.mouth.line" x1="626" y1="312" x2="640" y2="312" stroke="#C36A6A" stroke-width="2" />
  <text id="slot.q1.text" x="12" y="28" max_width="657" fill="#111111" font-family="Noto Sans KR, sans-serif" font-size="28">74. 문제를 바르게 설명한 사람의 이름을 선택하세요.</text>
  <text id="slot.expr_text.text" x="442" y="84" max_width="657" fill="#111111" font-family="Noto Sans KR, sans-serif" font-size="28">67 ÷ 5</text>
  <text id="slot.bubble_left_text.text" x="241" y="160" max_width="657" fill="#111111" font-family="Noto Sans KR, sans-serif" font-size="28">몫은 13이야.</text>
  <text id="slot.bubble_right_text.text" x="619" y="185" max_width="657" fill="#111111" font-family="Noto Sans KR, sans-serif" font-size="28">
    <tspan x="619" dy="0">나머지는 0으로</tspan>
    <tspan x="619" dy="1.2em">나누어떨어져.</tspan>
  </text>
  <text id="slot.name_left.text" x="313" y="389" max_width="657" fill="#111111" font-family="Noto Sans KR, sans-serif" font-size="28">현태</text>
  <text id="slot.name_right.text" x="618" y="389" max_width="657" fill="#111111" font-family="Noto Sans KR, sans-serif" font-size="28">은수</text>
  <text id="slot.choice.text" x="411" y="420" max_width="657" fill="#111111" font-family="Noto Sans KR, sans-serif" font-size="28">( 현태 , 은수 )</text>
</svg>
