<?xml version="1.0" encoding="UTF-8"?>
<svg xmlns="http://www.w3.org/2000/svg" width="960" height="620" viewBox="0 0 960 620">
  <metadata><problem_id>S3_초등_3_008906</problem_id></metadata>
  <rect x="0" y="0" width="960" height="620" fill="#FFFFFF" />
  <rect id="slot.table.outer.rect" x="260" y="116" width="462" height="270" fill="#ffffff" stroke="#111111" stroke-width="1.5" />
  <rect id="slot.head.kind.rect" x="260" y="116" width="111" height="36" fill="#ffffff" stroke="#111111" stroke-width="1.5" />
  <rect id="slot.head.count.rect" x="371" y="116" width="351" height="36" fill="#ffffff" stroke="#111111" stroke-width="1.5" />
  <line id="slot.table.v1.line" x1="371" y1="116" x2="371" y2="386" stroke="#111111" stroke-width="2" />
  <line id="slot.table.h1.line" x1="260" y1="152" x2="722" y2="152" stroke="#111111" stroke-width="2" />
  <line id="slot.table.h2.line" x1="260" y1="204" x2="722" y2="204" stroke="#111111" stroke-width="2" />
  <line id="slot.table.h3.line" x1="260" y1="256" x2="722" y2="256" stroke="#111111" stroke-width="2" />
  <line id="slot.table.h4.line" x1="260" y1="308" x2="722" y2="308" stroke="#111111" stroke-width="2" />
  <line id="slot.table.h5.line" x1="260" y1="360" x2="722" y2="360" stroke="#111111" stroke-width="2" />
  <circle id="slot.bread.1.circle" cx="408" cy="181" r="6" stroke="#111111" stroke-width="2" fill="#E4A64A" />
  <circle id="slot.bread.2.circle" cx="442" cy="181" r="4" stroke="#111111" stroke-width="2" fill="#E4A64A" />
  <circle id="slot.bread.3.circle" cx="470" cy="181" r="4" stroke="#111111" stroke-width="2" fill="#E4A64A" />
  <circle id="slot.bread.4.circle" cx="498" cy="181" r="4" stroke="#111111" stroke-width="2" fill="#E4A64A" />
  <circle id="slot.bread.5.circle" cx="526" cy="181" r="4" stroke="#111111" stroke-width="2" fill="#E4A64A" />
  <circle id="slot.bread.6.circle" cx="408" cy="233" r="6" stroke="#111111" stroke-width="2" fill="#E4A64A" />
  <circle id="slot.bread.7.circle" cx="448" cy="233" r="6" stroke="#111111" stroke-width="2" fill="#E4A64A" />
  <circle id="slot.bread.8.circle" cx="488" cy="233" r="6" stroke="#111111" stroke-width="2" fill="#E4A64A" />
  <circle id="slot.bread.9.circle" cx="528" cy="233" r="4" stroke="#111111" stroke-width="2" fill="#E4A64A" />
  <circle id="slot.bread.10.circle" cx="408" cy="285" r="6" stroke="#111111" stroke-width="2" fill="#E4A64A" />
  <circle id="slot.bread.11.circle" cx="448" cy="285" r="6" stroke="#111111" stroke-width="2" fill="#E4A64A" />
  <circle id="slot.bread.12.circle" cx="488" cy="285" r="4" stroke="#111111" stroke-width="2" fill="#E4A64A" />
  <circle id="slot.bread.13.circle" cx="516" cy="285" r="4" stroke="#111111" stroke-width="2" fill="#E4A64A" />
  <circle id="slot.bread.14.circle" cx="544" cy="285" r="4" stroke="#111111" stroke-width="2" fill="#E4A64A" />
  <circle id="slot.bread.15.circle" cx="572" cy="285" r="4" stroke="#111111" stroke-width="2" fill="#E4A64A" />
  <circle id="slot.bread.16.circle" cx="600" cy="285" r="4" stroke="#111111" stroke-width="2" fill="#E4A64A" />
  <circle id="slot.bread.17.circle" cx="628" cy="285" r="4" stroke="#111111" stroke-width="2" fill="#E4A64A" />
  <circle id="slot.bread.18.circle" cx="408" cy="337" r="6" stroke="#111111" stroke-width="2" fill="#E4A64A" />
  <circle id="slot.bread.19.circle" cx="448" cy="337" r="6" stroke="#111111" stroke-width="2" fill="#E4A64A" />
  <circle id="slot.bread.20.circle" cx="488" cy="337" r="6" stroke="#111111" stroke-width="2" fill="#E4A64A" />
  <circle id="slot.bread.21.circle" cx="528" cy="337" r="4" stroke="#111111" stroke-width="2" fill="#E4A64A" />
  <circle id="slot.bread.22.circle" cx="556" cy="337" r="4" stroke="#111111" stroke-width="2" fill="#E4A64A" />
  <circle id="slot.bread.23.circle" cx="584" cy="337" r="4" stroke="#111111" stroke-width="2" fill="#E4A64A" />
  <circle id="slot.bread.24.circle" cx="643" cy="406" r="6" stroke="#111111" stroke-width="2" fill="#E4A64A" />
  <circle id="slot.bread.25.circle" cx="688" cy="406" r="4" stroke="#111111" stroke-width="2" fill="#E4A64A" />
  <circle id="slot.bread.26.circle" cx="406" cy="406" r="6" stroke="#111111" stroke-width="2" fill="#E4A64A" />
  <circle id="slot.bread.27.circle" cx="450" cy="406" r="6" stroke="#111111" stroke-width="2" fill="#E4A64A" />
  <circle id="slot.bread.28.circle" cx="494" cy="406" r="6" stroke="#111111" stroke-width="2" fill="#E4A64A" />
  <circle id="slot.bread.29.circle" cx="538" cy="406" r="4" stroke="#111111" stroke-width="2" fill="#E4A64A" />
  <circle id="slot.bread.30.circle" cx="582" cy="406" r="4" stroke="#111111" stroke-width="2" fill="#E4A64A" />
  <text id="slot.q1.text" x="12" y="34" fill="#111111" font-family="Noto Sans KR, sans-serif" font-size="28">72.</text>
  <text id="slot.q2.text" x="48" y="34" fill="#111111" font-family="Noto Sans KR, sans-serif" font-size="28">어느 가게에서 하루에 팔린 빵의 수를 조사하여 그림그래프로 나타내었습니다. 소보로빵과 크림빵 중 더 많이 팔린 빵을 선택하세요.</text>
  <text id="slot.title.text" x="460" y="78" fill="#111111" font-family="Noto Sans KR, sans-serif" font-size="28">팔린 빵의 수</text>
  <text id="slot.row.1.kind.text" x="292" y="188" fill="#111111" font-family="Noto Sans KR, sans-serif" font-size="28">단팥빵</text>
  <text id="slot.row.2.kind.text" x="288" y="240" fill="#111111" font-family="Noto Sans KR, sans-serif" font-size="28">소보로빵</text>
  <text id="slot.row.3.kind.text" x="292" y="292" fill="#111111" font-family="Noto Sans KR, sans-serif" font-size="28">크림빵</text>
  <text id="slot.row.4.kind.text" x="302" y="344" fill="#111111" font-family="Noto Sans KR, sans-serif" font-size="28">식빵</text>
  <text id="slot.legend.big.text" x="670" y="416" fill="#111111" font-family="Noto Sans KR, sans-serif" font-size="28">10개</text>
  <text id="slot.legend.small.text" x="760" y="416" fill="#111111" font-family="Noto Sans KR, sans-serif" font-size="28">1개</text>
  <text id="slot.choice.text" x="700" y="465" fill="#111111" font-family="Noto Sans KR, sans-serif" font-size="28">( 소보로빵 , 크림빵 )</text>
</svg>
