<?xml version="1.0" encoding="UTF-8"?>
<svg xmlns="http://www.w3.org/2000/svg" width="940" height="530" viewBox="0 0 940 530">
  <metadata><problem_id>S3_초등_3_008717</problem_id></metadata>
  <rect x="0" y="0" width="940" height="530" fill="#FFFFFF" />
  <text id="slot.q1.text" x="14" y="28" fill="#111111" font-family="Noto Sans KR, sans-serif" font-size="28">
    <tspan x="14" dy="0">□ 20. 규칙에 따라 원을 그린 것입니다. 그린 규칙을 바르게 말한</tspan>
    <tspan x="14" dy="1.2em">사람을</tspan>
  </text>
  <text id="slot.q2.text" x="14" y="62" fill="#111111" font-family="Noto Sans KR, sans-serif" font-size="28">선택하세요.</text>
  <circle id="slot.pt.center.circle" cx="486" cy="174" r="2.5" stroke="#111111" stroke-width="2" fill="#ff4aa2" />
  <circle id="slot.circle1.circle" cx="486" cy="174" r="19" stroke="#111111" stroke-width="2" fill="none" />
  <circle id="slot.circle2.circle" cx="486" cy="174" r="38" stroke="#111111" stroke-width="2" fill="none" />
  <circle id="slot.circle3.circle" cx="486" cy="174" r="57" stroke="#111111" stroke-width="2" fill="none" />
  <line id="slot.grid.v1.line" x1="400" y1="89" x2="400" y2="261" stroke="#9AA0A6" stroke-width="1.2" stroke-dasharray="5 3" />
  <line id="slot.grid.v2.line" x1="414" y1="89" x2="414" y2="261" stroke="#9AA0A6" stroke-width="1.2" stroke-dasharray="5 3" />
  <line id="slot.grid.v3.line" x1="428" y1="89" x2="428" y2="261" stroke="#9AA0A6" stroke-width="1.2" stroke-dasharray="5 3" />
  <line id="slot.grid.v4.line" x1="442" y1="89" x2="442" y2="261" stroke="#9AA0A6" stroke-width="1.2" stroke-dasharray="5 3" />
  <line id="slot.grid.v5.line" x1="456" y1="89" x2="456" y2="261" stroke="#9AA0A6" stroke-width="1.2" stroke-dasharray="5 3" />
  <line id="slot.grid.v6.line" x1="470" y1="89" x2="470" y2="261" stroke="#9AA0A6" stroke-width="1.2" stroke-dasharray="5 3" />
  <line id="slot.grid.v7.line" x1="484" y1="89" x2="484" y2="261" stroke="#9AA0A6" stroke-width="1.2" stroke-dasharray="5 3" />
  <line id="slot.grid.v8.line" x1="498" y1="89" x2="498" y2="261" stroke="#9AA0A6" stroke-width="1.2" stroke-dasharray="5 3" />
  <line id="slot.grid.v9.line" x1="512" y1="89" x2="512" y2="261" stroke="#9AA0A6" stroke-width="1.2" stroke-dasharray="5 3" />
  <line id="slot.grid.v10.line" x1="526" y1="89" x2="526" y2="261" stroke="#9AA0A6" stroke-width="1.2" stroke-dasharray="5 3" />
  <line id="slot.grid.v11.line" x1="540" y1="89" x2="540" y2="261" stroke="#9AA0A6" stroke-width="1.2" stroke-dasharray="5 3" />
  <line id="slot.grid.v12.line" x1="554" y1="89" x2="554" y2="261" stroke="#9AA0A6" stroke-width="1.2" stroke-dasharray="5 3" />
  <line id="slot.grid.h1.line" x1="400" y1="89" x2="572" y2="89" stroke="#9AA0A6" stroke-width="1.2" stroke-dasharray="5 3" />
  <line id="slot.grid.h2.line" x1="400" y1="103" x2="572" y2="103" stroke="#9AA0A6" stroke-width="1.2" stroke-dasharray="5 3" />
  <line id="slot.grid.h3.line" x1="400" y1="117" x2="572" y2="117" stroke="#9AA0A6" stroke-width="1.2" stroke-dasharray="5 3" />
  <line id="slot.grid.h4.line" x1="400" y1="131" x2="572" y2="131" stroke="#9AA0A6" stroke-width="1.2" stroke-dasharray="5 3" />
  <line id="slot.grid.h5.line" x1="400" y1="145" x2="572" y2="145" stroke="#9AA0A6" stroke-width="1.2" stroke-dasharray="5 3" />
  <line id="slot.grid.h6.line" x1="400" y1="159" x2="572" y2="159" stroke="#9AA0A6" stroke-width="1.2" stroke-dasharray="5 3" />
  <line id="slot.grid.h7.line" x1="400" y1="173" x2="572" y2="173" stroke="#9AA0A6" stroke-width="1.2" stroke-dasharray="5 3" />
  <line id="slot.grid.h8.line" x1="400" y1="187" x2="572" y2="187" stroke="#9AA0A6" stroke-width="1.2" stroke-dasharray="5 3" />
  <line id="slot.grid.h9.line" x1="400" y1="201" x2="572" y2="201" stroke="#9AA0A6" stroke-width="1.2" stroke-dasharray="5 3" />
  <line id="slot.grid.h10.line" x1="400" y1="215" x2="572" y2="215" stroke="#9AA0A6" stroke-width="1.2" stroke-dasharray="5 3" />
  <line id="slot.grid.h11.line" x1="400" y1="229" x2="572" y2="229" stroke="#9AA0A6" stroke-width="1.2" stroke-dasharray="5 3" />
  <line id="slot.grid.h12.line" x1="400" y1="243" x2="572" y2="243" stroke="#9AA0A6" stroke-width="1.2" stroke-dasharray="5 3" />
  <rect id="slot.box.rect" x="44" y="269" width="859" height="89" fill="none" stroke="#7DAA00" stroke-width="1.4" />
  <text id="slot.s1.text" x="61" y="289" fill="#111111" font-family="Noto Sans KR, sans-serif" font-size="28">
    <tspan x="61" dy="0">정은: 원의 중심이 모두 다르고 반지름이 모두 1칸씩 늘어나게</tspan>
    <tspan x="61" dy="1.2em">그렸어.</tspan>
  </text>
  <text id="slot.s2.text" x="61" y="323" fill="#111111" font-family="Noto Sans KR, sans-serif" font-size="28">민수: 원의 중심이 모두 같고 반지름이 모두 2칸씩 늘어나게 그렸어.</text>
  <text id="slot.s3.text" x="737" y="383" fill="#111111" font-family="Noto Sans KR, sans-serif" font-size="28">( 정은 , 민수 )</text>
</svg>
