<?xml version="1.0" encoding="UTF-8"?>
<svg xmlns="http://www.w3.org/2000/svg" width="928" height="1049" viewBox="0 0 928 1049">
  <metadata><problem_id>S3_초등_3_008731</problem_id></metadata>
  <rect x="0" y="0" width="928" height="1049" fill="#FFFFFF" />
  <rect id="slot.diagram.top.box1.rect" x="425" y="220" width="80" height="100" fill="#ffffff" stroke="#111111" stroke-width="1.5" />
  <rect id="slot.diagram.top.box2.rect" x="310" y="385" width="80" height="100" fill="#ffffff" stroke="#111111" stroke-width="1.5" />
  <rect id="slot.diagram.top.box3.rect" x="535" y="385" width="80" height="100" fill="#ffffff" stroke="#111111" stroke-width="1.5" />
  <rect id="slot.diagram.top.box4.rect" x="255" y="510" width="80" height="95" fill="#ffffff" stroke="#111111" stroke-width="1.5" />
  <rect id="slot.diagram.top.box5.rect" x="350" y="510" width="80" height="95" fill="#ffffff" stroke="#111111" stroke-width="1.5" />
  <rect id="slot.diagram.top.box6.rect" x="480" y="510" width="80" height="95" fill="#ffffff" stroke="#111111" stroke-width="1.5" />
  <rect id="slot.diagram.top.box7.rect" x="575" y="510" width="80" height="95" fill="#ffffff" stroke="#111111" stroke-width="1.5" />
  <line id="slot.diagram.top.line1.line" x1="465" y1="320" x2="465" y2="360" stroke="#111111" stroke-width="2" />
  <line id="slot.diagram.top.line2.line" x1="330" y1="360" x2="600" y2="360" stroke="#111111" stroke-width="2" />
  <line id="slot.diagram.top.line3.line" x1="330" y1="360" x2="330" y2="385" stroke="#111111" stroke-width="2" />
  <line id="slot.diagram.top.line4.line" x1="600" y1="360" x2="600" y2="385" stroke="#111111" stroke-width="2" />
  <line id="slot.diagram.top.line5.line" x1="290" y1="485" x2="290" y2="510" stroke="#111111" stroke-width="2" />
  <line id="slot.diagram.top.line6.line" x1="385" y1="485" x2="385" y2="510" stroke="#111111" stroke-width="2" />
  <line id="slot.diagram.top.line7.line" x1="570" y1="485" x2="570" y2="510" stroke="#111111" stroke-width="2" />
  <line id="slot.diagram.top.line8.line" x1="635" y1="485" x2="635" y2="510" stroke="#111111" stroke-width="2" />
  <text id="slot.q1.text" x="16" y="40" fill="#111111" font-family="Noto Sans KR, sans-serif" font-size="28">두 분수의 크기를 비교하여 더 큰 분수를 빈칸에 써넣으려고 합니다.</text>
  <text id="slot.q1.copy27.text" x="25" y="95" fill="#111111" font-family="Noto Sans KR, sans-serif" font-size="30">㉠에 들어갈 분수로 알맞은 것을 선택해 보세요.</text>
  <text id="slot.diagram.top.box1.text.text" x="450" y="275" fill="#111111" font-family="Noto Sans KR, sans-serif" font-size="30">㉠</text>
  <text id="slot.diagram.top.box4.text.text" x="275" y="565" fill="#111111" font-family="Noto Sans KR, sans-serif" font-size="30">15/7</text>
  <text id="slot.diagram.top.box5.text.text" x="370" y="565" fill="#111111" font-family="Noto Sans KR, sans-serif" font-size="30">22/7</text>
  <text id="slot.diagram.top.box6.text.text" x="490" y="565" fill="#111111" font-family="Noto Sans KR, sans-serif" font-size="30">2 3/7</text>
  <text id="slot.diagram.top.box7.text.text" x="585" y="565" fill="#111111" font-family="Noto Sans KR, sans-serif" font-size="30">2 6/7</text>
</svg>
