<?xml version="1.0" encoding="UTF-8"?>
<svg xmlns="http://www.w3.org/2000/svg" width="944" height="436" viewBox="0 0 944 436">
  <metadata><problem_id>S3_초등_3_008746</problem_id></metadata>
  <rect x="0" y="0" width="944" height="436" fill="#FFFFFF" />
  <rect id="slot.q3.rect" x="119" y="90" width="27" height="112" fill="#ffffff" stroke="#111111" stroke-width="1.5" />
  <rect id="slot.q4.rect" x="119" y="90" width="27" height="112" fill="#ffffff" stroke="#111111" stroke-width="1.5" />
  <circle id="slot.q5.circle" cx="132.5" cy="90" r="13" stroke="#111111" stroke-width="2" fill="#FFFFFF" />
  <rect id="slot.q11.rect" x="214" y="108" width="22" height="30" fill="#ffffff" stroke="#111111" stroke-width="1.5" />
  <rect id="slot.q12.rect" x="242" y="108" width="22" height="30" fill="#ffffff" stroke="#111111" stroke-width="1.5" />
  <rect id="slot.q13.rect" x="270" y="108" width="22" height="30" fill="#ffffff" stroke="#111111" stroke-width="1.5" />
  <rect id="slot.q14.rect" x="298" y="108" width="22" height="30" fill="#ffffff" stroke="#111111" stroke-width="1.5" />
  <rect id="slot.q15.rect" x="326" y="108" width="22" height="30" fill="#ffffff" stroke="#111111" stroke-width="1.5" />
  <rect id="slot.q16.rect" x="514" y="88" width="27" height="112" fill="#ffffff" stroke="#111111" stroke-width="1.5" />
  <rect id="slot.q17.rect" x="514" y="88" width="27" height="112" fill="#ffffff" stroke="#111111" stroke-width="1.5" />
  <circle id="slot.q18.circle" cx="527.5" cy="88" r="13" stroke="#111111" stroke-width="2" fill="#FFFFFF" />
  <rect id="slot.q24.rect" x="507" y="85" width="44" height="6" fill="#ffffff" stroke="#111111" stroke-width="1.5" />
  <rect id="slot.q25.rect" x="519" y="84" width="19" height="10" fill="#ffffff" stroke="#111111" stroke-width="1.5" />
  <rect id="slot.q26.rect" x="543" y="86" width="10" height="39" fill="#ffffff" stroke="#111111" stroke-width="1.5" />
  <rect id="slot.q27.rect" x="619" y="108" width="22" height="30" fill="#ffffff" stroke="#111111" stroke-width="1.5" />
  <rect id="slot.q28.rect" x="647" y="108" width="22" height="30" fill="#ffffff" stroke="#111111" stroke-width="1.5" />
  <rect id="slot.q29.rect" x="675" y="108" width="22" height="30" fill="#ffffff" stroke="#111111" stroke-width="1.5" />
  <rect id="slot.q30.rect" x="703" y="108" width="22" height="30" fill="#ffffff" stroke="#111111" stroke-width="1.5" />
  <rect id="slot.q31.rect" x="731" y="108" width="22" height="30" fill="#ffffff" stroke="#111111" stroke-width="1.5" />
  <rect id="slot.q32.rect" x="759" y="108" width="22" height="30" fill="#ffffff" stroke="#111111" stroke-width="1.5" />
  <circle id="slot.q37.circle" cx="73" cy="332" r="10" stroke="#111111" stroke-width="2" fill="#FFFFFF" />
  <line id="slot.q6.line" x1="119" y1="90" x2="146" y2="90" stroke="#111111" stroke-width="2" />
  <line id="slot.q8.line" x1="159" y1="143" x2="191" y2="143" stroke="#111111" stroke-width="2" />
  <line id="slot.q9.line" x1="191" y1="143" x2="203" y2="143" stroke="#111111" stroke-width="2" />
  <line id="slot.q10.line" x1="159" y1="143" x2="203" y2="143" stroke="#111111" stroke-width="2" />
  <line id="slot.q19.line" x1="514" y1="88" x2="541" y2="88" stroke="#111111" stroke-width="2" />
  <line id="slot.q21.line" x1="555" y1="141" x2="587" y2="141" stroke="#111111" stroke-width="2" />
  <line id="slot.q22.line" x1="587" y1="141" x2="599" y2="141" stroke="#111111" stroke-width="2" />
  <line id="slot.q23.line" x1="555" y1="141" x2="599" y2="141" stroke="#111111" stroke-width="2" />
  <text id="slot.q1.text" x="14" y="25" fill="#111111" font-family="Noto Sans KR, sans-serif" font-size="28">□ 43.</text>
  <text id="slot.q2.text" x="63" y="28" fill="#111111" font-family="Noto Sans KR, sans-serif" font-size="28">두 물병에 물을 가득 채운 후 모양과 크기가 같은 컵에 각각 옮겨 담았습니다. 바르게 설명했으면 ○표, 그렇지 않으면 ×표를 선택하세요.</text>
  <text id="slot.q7.text" x="124" y="162" fill="#111111" font-family="Noto Sans KR, sans-serif" font-size="28">가</text>
  <text id="slot.q20.text" x="519" y="160" fill="#111111" font-family="Noto Sans KR, sans-serif" font-size="28">나</text>
  <text id="slot.q33.text" x="237" y="235" fill="#111111" font-family="Noto Sans KR, sans-serif" font-size="28">나 물병이 컵 1개만큼 물이 더 들어갑니다.</text>
  <text id="slot.q34.text" x="33" y="265" fill="#111111" font-family="Noto Sans KR, sans-serif" font-size="28">○</text>
  <text id="slot.q35.text" x="33" y="294" fill="#111111" font-family="Noto Sans KR, sans-serif" font-size="28">×</text>
  <text id="slot.q39.text" x="18" y="410" fill="#111111" font-family="Noto Sans KR, sans-serif" font-size="28">→</text>
  <text id="slot.q40.text" x="69" y="411" fill="#111111" font-family="Noto Sans KR, sans-serif" font-size="28">나 물병이 가 물병보다 컵 6 - 5 = 1(개)만큼 물이 더 들어갑니다.</text>
</svg>
