<?xml version="1.0" encoding="UTF-8"?>
<svg xmlns="http://www.w3.org/2000/svg" width="960" height="431" viewBox="0 0 960 431">
  <metadata><problem_id>S3_초등_3_008834</problem_id></metadata>
  <rect x="0" y="0" width="960" height="431" fill="#FFFFFF" />
  <text id="slot.qnum.text" x="42" y="28" fill="#111111" font-family="Noto Sans KR, sans-serif" font-size="28">72.</text>
  <text id="slot.instruction.1.text" x="72" y="34" fill="#111111" font-family="Noto Sans KR, sans-serif" font-size="28">저울을 사용하여 감자와 고구마의 무게를 비교했습니다. 바르게 비교하였으면 ○표,</text>
  <text id="slot.instruction.2.text" x="12" y="70" fill="#111111" font-family="Noto Sans KR, sans-serif" font-size="28">그렇지 않으면 ×표를 선택하세요.</text>
  <rect id="slot.scale.base.rect" x="384" y="210" width="204" height="56" fill="#ffffff" stroke="#111111" stroke-width="1.5" />
  <rect id="slot.scale.pole.rect" x="484" y="106" width="12" height="106" fill="#ffffff" stroke="#111111" stroke-width="1.5" />
  <polygon id="slot.scale.left.pan.polygon" points="401,166 454,166 444,192 411,192" stroke="#111111" stroke-width="2" fill="none" />
  <polygon id="slot.scale.right.pan.polygon" points="526,170 579,170 571,196 536,196" stroke="#111111" stroke-width="2" fill="none" />
  <polygon id="slot.potato.polygon" points="414,149 438,141 455,149 457,162 447,172 424,171 412,160" stroke="#111111" stroke-width="2" fill="none" />
  <polygon id="slot.sweetpotato.polygon" points="537,153 566,143 586,149 593,158 586,168 566,171 545,166" stroke="#111111" stroke-width="2" fill="none" />
  <line id="slot.scale.beam.line" x1="412" y1="164" x2="568" y2="164" stroke="#111111" stroke-width="2" />
  <circle id="slot.scale.center.circle" cx="490" cy="164" r="5" stroke="#111111" stroke-width="2" fill="#222222" />
  <text id="slot.label.potato.text" x="415" y="92" fill="#111111" font-family="Noto Sans KR, sans-serif" font-size="28">감자</text>
  <text id="slot.label.sweetpotato.text" x="539" y="94" fill="#111111" font-family="Noto Sans KR, sans-serif" font-size="28">고구마</text>
  <text id="slot.statement.text" x="220" y="282" fill="#111111" font-family="Noto Sans KR, sans-serif" font-size="28">고구마가 감자보다 더 무겁습니다. ( ○, × )</text>
</svg>
