<?xml version="1.0" encoding="UTF-8"?>
<svg xmlns="http://www.w3.org/2000/svg" width="656" height="261" viewBox="0 0 656 261">
  <metadata><problem_id>S3_초등_3_008993</problem_id></metadata>
  <rect x="0" y="0" width="656" height="261" fill="#FFFFFF" />
  <text id="slot.num.text" x="28" y="24" fill="#111111" font-family="Noto Sans KR, sans-serif" font-size="28">31.</text>
  <text id="slot.q.text" x="67" y="24" fill="#111111" font-family="Noto Sans KR, sans-serif" font-size="28">직사각형을 모두 찾아 기호를 선택하세요.</text>
  <polygon id="slot.shape.ga.polygon" points="252,61 305,61 288,107 235,107" stroke="#111111" stroke-width="2" fill="none" />
  <polygon id="slot.shape.na.polygon" points="324,61 384,61 384,107 324,107" stroke="#111111" stroke-width="2" fill="none" />
  <polygon id="slot.shape.da.polygon" points="404,61 447,61 432,107 419,107" stroke="#111111" stroke-width="2" fill="none" />
  <polygon id="slot.shape.ra.polygon" points="470,61 553,61 553,107 470,107" stroke="#111111" stroke-width="2" fill="none" />
  <line id="slot.grid.bg.line" x1="224" y1="40" x2="632" y2="40" stroke="#111111" stroke-width="2" />
  <line id="slot.grid.v1.line" x1="224" y1="40" x2="224" y2="116" stroke="#111111" stroke-width="2" />
  <line id="slot.grid.v2.line" x1="244" y1="40" x2="244" y2="116" stroke="#111111" stroke-width="2" />
  <line id="slot.grid.v3.line" x1="264" y1="40" x2="264" y2="116" stroke="#111111" stroke-width="2" />
  <line id="slot.grid.v4.line" x1="284" y1="40" x2="284" y2="116" stroke="#111111" stroke-width="2" />
  <line id="slot.grid.v5.line" x1="304" y1="40" x2="304" y2="116" stroke="#111111" stroke-width="2" />
  <line id="slot.grid.v6.line" x1="324" y1="40" x2="324" y2="116" stroke="#111111" stroke-width="2" />
  <line id="slot.grid.v7.line" x1="344" y1="40" x2="344" y2="116" stroke="#111111" stroke-width="2" />
  <line id="slot.grid.v8.line" x1="364" y1="40" x2="364" y2="116" stroke="#111111" stroke-width="2" />
  <line id="slot.grid.v9.line" x1="384" y1="40" x2="384" y2="116" stroke="#111111" stroke-width="2" />
  <line id="slot.grid.v10.line" x1="404" y1="40" x2="404" y2="116" stroke="#111111" stroke-width="2" />
  <line id="slot.grid.h1.line" x1="224" y1="40" x2="632" y2="40" stroke="#111111" stroke-width="2" />
  <line id="slot.grid.h2.line" x1="224" y1="52" x2="632" y2="52" stroke="#111111" stroke-width="2" />
  <line id="slot.grid.h3.line" x1="224" y1="64" x2="632" y2="64" stroke="#111111" stroke-width="2" />
  <line id="slot.grid.h4.line" x1="224" y1="76" x2="632" y2="76" stroke="#111111" stroke-width="2" />
  <line id="slot.grid.h5.line" x1="224" y1="88" x2="632" y2="88" stroke="#111111" stroke-width="2" />
  <line id="slot.grid.h6.line" x1="224" y1="100" x2="632" y2="100" stroke="#111111" stroke-width="2" />
  <line id="slot.grid.h7.line" x1="224" y1="112" x2="632" y2="112" stroke="#111111" stroke-width="2" />
  <line id="slot.grid.h8.line" x1="224" y1="116" x2="632" y2="116" stroke="#111111" stroke-width="2" />
  <text id="slot.lb.ga.text" x="263" y="86" fill="#111111" font-family="Noto Sans KR, sans-serif" font-size="28">가</text>
  <text id="slot.lb.na.text" x="350" y="86" fill="#111111" font-family="Noto Sans KR, sans-serif" font-size="28">나</text>
  <text id="slot.lb.da.text" x="414" y="86" fill="#111111" font-family="Noto Sans KR, sans-serif" font-size="28">다</text>
  <text id="slot.lb.ra.text" x="507" y="86" fill="#111111" font-family="Noto Sans KR, sans-serif" font-size="28">라</text>
  <text id="slot.choice.text" x="259" y="154" fill="#111111" font-family="Noto Sans KR, sans-serif" font-size="28">( 가, 나, 다, 라 )</text>
</svg>
