<?xml version="1.0" encoding="UTF-8"?>
<svg xmlns="http://www.w3.org/2000/svg" width="840" height="470" viewBox="0 0 840 470">
  <metadata><problem_id>S3_초등_3_009049</problem_id></metadata>
  <rect x="0" y="0" width="840" height="470" fill="#FFFFFF" />
  <text id="slot.num.text" x="41" y="26" fill="#111111" font-family="Noto Sans KR, sans-serif" font-size="28">87.</text>
  <text id="slot.stem.1.text" x="82" y="24" fill="#111111" font-family="Noto Sans KR, sans-serif" font-size="28">직선을 알아보고자 합니다. 점 ㄱ과 점 ㄴ을 지나 양쪽으로 길게 늘인 곧</text>
  <text id="slot.stem.2.text" x="82" y="58" fill="#111111" font-family="Noto Sans KR, sans-serif" font-size="28">은 선을 선택해 보세요.</text>
  <rect id="slot.box.demo.rect" x="91" y="86" width="411" height="94" fill="none" stroke="#EA8AC8" stroke-width="2" rx="10" ry="10" />
  <path id="slot.demo.left.arrow.path" d="M 109.0 138.0 L 121.0 126.0 L 121.0 132.0 L 184.0 132.0 L 184.0 144.0 L 121.0 144.0 L 121.0 150.0 Z" stroke="#FF9ACD" stroke-width="1.8" fill="none" />
  <path id="slot.demo.right.arrow.path" d="M 352.0 138.0 L 340.0 126.0 L 340.0 132.0 L 279.0 132.0 L 279.0 144.0 L 340.0 144.0 L 340.0 150.0 Z" stroke="#FF9ACD" stroke-width="1.8" fill="none" />
  <path id="slot.teacher.path" d="M 540.0 120.0 C 543.0 102.0, 561.0 93.0, 577.0 93.0 C 592.0 93.0, 608.0 101.0, 611.0 118.0 C 616.0 145.0, 599.0 168.0, 575.0 171.0 C 549.0 169.0, 533.0 145.0, 540.0 120.0 Z" stroke="none" stroke-width="2" fill="#5A3C2E" />
  <path id="slot.speech.bubble.path" d="M 615.0 95.0 C 652.0 82.0, 718.0 82.0, 748.0 95.0 C 770.0 106.0, 772.0 149.0, 748.0 163.0 C 716.0 182.0, 650.0 182.0, 618.0 164.0 C 609.0 159.0, 603.0 152.0, 602.0 143.0 C 600.0 136.0, 603.0 128.0, 609.0 122.0 C 602.0 112.0, 604.0 101.0, 615.0 95.0 Z" stroke="#666666" stroke-width="1.8" fill="none" />
  <circle id="slot.demo.left.p1.circle" cx="102" cy="139" r="2.8" stroke="#111111" stroke-width="2" fill="#222222" />
  <circle id="slot.demo.left.p2.circle" cx="251" cy="139" r="2.8" stroke="#111111" stroke-width="2" fill="#222222" />
  <circle id="slot.demo.right.p1.circle" cx="364" cy="139" r="2.8" stroke="#111111" stroke-width="2" fill="#222222" />
  <circle id="slot.demo.right.p2.circle" cx="219" cy="139" r="2.8" stroke="#111111" stroke-width="2" fill="#222222" />
  <text id="slot.demo.left.text.text" x="119" y="139" fill="#111111" font-family="Noto Sans KR, sans-serif" font-size="20">점 ㄱ을 지나 끝없이 늘어난다.</text>
  <text id="slot.demo.right.text.text" x="291" y="139" fill="#111111" font-family="Noto Sans KR, sans-serif" font-size="20">점 ㄴ을 지나 끝없이 늘어난다.</text>
  <text id="slot.speech.text.1.text" x="635" y="109" fill="#111111" font-family="Noto Sans KR, sans-serif" font-size="22">선분을 양쪽으로</text>
  <text id="slot.speech.text.2.text" x="624" y="135" fill="#111111" font-family="Noto Sans KR, sans-serif" font-size="22">끝없이 늘인 곧은 선을</text>
  <text id="slot.speech.text.3.text" x="631" y="161" fill="#111111" font-family="Noto Sans KR, sans-serif" font-size="22">직선이라고 한다닷.</text>
  <line id="slot.choice.left.line.line" x1="166" y1="228" x2="337" y2="228" stroke="#444444" stroke-width="2" />
  <line id="slot.choice.right.line.line" x1="505" y1="228" x2="679" y2="228" stroke="#444444" stroke-width="2" />
  <line id="slot.answer.line.line" x1="64" y1="325" x2="272" y2="325" stroke="#444444" stroke-width="2" />
  <circle id="slot.choice.left.p1.circle" cx="162" cy="228" r="2.8" stroke="#111111" stroke-width="2" fill="#222222" />
  <circle id="slot.choice.left.p2.circle" cx="339" cy="228" r="2.8" stroke="#111111" stroke-width="2" fill="#222222" />
  <circle id="slot.choice.right.p1.circle" cx="500" cy="228" r="2.8" stroke="#111111" stroke-width="2" fill="#222222" />
  <circle id="slot.choice.right.p2.circle" cx="681" cy="228" r="2.8" stroke="#111111" stroke-width="2" fill="#222222" />
  <text id="slot.choice.left.lb1.text" x="158" y="214" fill="#111111" font-family="Noto Sans KR, sans-serif" font-size="22">ㄱ</text>
  <text id="slot.choice.left.lb2.text" x="333" y="214" fill="#111111" font-family="Noto Sans KR, sans-serif" font-size="22">ㄴ</text>
  <text id="slot.choice.right.lb1.text" x="495" y="214" fill="#111111" font-family="Noto Sans KR, sans-serif" font-size="22">ㄱ</text>
  <text id="slot.choice.right.lb2.text" x="675" y="214" fill="#111111" font-family="Noto Sans KR, sans-serif" font-size="22">ㄴ</text>
</svg>
