<?xml version="1.0" encoding="UTF-8"?>
<svg xmlns="http://www.w3.org/2000/svg" width="944" height="440" viewBox="0 0 944 440">
  <metadata><problem_id>S3_초등_3_008813</problem_id></metadata>
  <rect x="0" y="0" width="944" height="440" fill="#FFFFFF" />
  <text id="slot.q1.text" x="14" y="22" fill="#111111" font-family="Noto Sans KR, sans-serif" font-size="28">46. 우유병에 물을 가득 채운 후 컵에 옮겨 담았더니 우유병에 물이 남았습니다. 우유병과 컵 중에서 들이가 더 적은 것을 선택해 보세요.</text>
  <text id="slot.q2.text" x="14" y="22" fill="#111111" font-family="Noto Sans KR, sans-serif" font-size="28"></text>
  <rect id="slot.bottle.body.rect" x="268" y="78" width="38" height="92" fill="#ffffff" stroke="#111111" stroke-width="1.5" />
  <rect id="slot.bottle.neck.rect" x="279" y="58" width="16" height="26" fill="#ffffff" stroke="#111111" stroke-width="1.5" />
  <rect id="slot.bottle.fill.rect" x="270" y="118" width="34" height="48" fill="#ffffff" stroke="#111111" stroke-width="1.5" />
  <rect id="slot.cup.body.rect" x="600" y="112" width="44" height="84" fill="#ffffff" stroke="#111111" stroke-width="1.5" />
  <path id="slot.cup.handle.path" d="M 644.0 126.0 C 666.0 126.0, 666.0 170.0, 644.0 170.0" stroke="#111111" stroke-width="2" fill="none" />
  <rect id="slot.cup.fill.rect" x="606" y="112" width="32" height="18" fill="#ffffff" stroke="#111111" stroke-width="1.5" />
  <circle id="slot.cap1.circle" cx="285" cy="50" r="8" stroke="#111111" stroke-width="2" fill="#ffffff" />
  <circle id="slot.cap2.circle" cx="285" cy="50" r="5" stroke="#111111" stroke-width="2" fill="#ffffff" />
  <circle id="slot.cap3.circle" cx="285" cy="50" r="3" stroke="#111111" stroke-width="2" fill="#ffffff" />
  <circle id="slot.cap4.circle" cx="285" cy="50" r="2" stroke="#111111" stroke-width="2" fill="#ffffff" />
  <circle id="slot.cap5.circle" cx="285" cy="50" r="1.5" stroke="#111111" stroke-width="2" fill="#ffffff" />
  <circle id="slot.cap6.circle" cx="285" cy="50" r="1" stroke="#111111" stroke-width="2" fill="#ffffff" />
  <text id="slot.bottle.label.text" x="262" y="278" fill="#111111" font-family="Noto Sans KR, sans-serif" font-size="28">우유병</text>
  <text id="slot.arrow.text" x="476" y="152" fill="#111111" font-family="Noto Sans KR, sans-serif" font-size="40">→</text>
  <text id="slot.choice.text" x="758" y="317" fill="#111111" font-family="Noto Sans KR, sans-serif" font-size="28">( 우유병, 컵 )</text>
</svg>
