<?xml version="1.0" encoding="UTF-8"?>
<svg xmlns="http://www.w3.org/2000/svg" width="960" height="520" viewBox="0 0 960 520">
  <metadata><problem_id>S3_초등_3_008791</problem_id></metadata>
  <rect x="0" y="0" width="960" height="520" fill="#FFFFFF" />
  <text id="slot.q_num.text" x="12" y="34" fill="#111111" font-family="Noto Sans KR, sans-serif" font-size="28">16.</text>
  <text id="slot.q_text.text" x="58" y="34" fill="#111111" font-family="Noto Sans KR, sans-serif" font-size="28">왼쪽 그릇에 물을 가득 채우려면 ㉠ 컵과 ㉡ 컵에 물을 가득 채워 각각 다음과 같이 부어야 합니다. 들이가 더 많은 컵의 기호를 선택하세요.</text>
  <text id="slot.count.a.text.text" x="498" y="193" fill="#111111" font-family="Noto Sans KR, sans-serif" font-size="28">6번</text>
  <text id="slot.count.b.text.text" x="753" y="195" fill="#111111" font-family="Noto Sans KR, sans-serif" font-size="28">9번</text>
  <polygon id="slot.bowl.body.polygon" points="160,100 240,100 260,150 140,150" stroke="#111111" stroke-width="2" fill="none" />
  <polygon id="slot.bowl.rim.polygon" points="148,100 252,100 240,104 160,104" stroke="#111111" stroke-width="2" fill="none" />
  <polygon id="slot.cup.a.top.polygon" points="480,90 528,90 522,98 486,98" stroke="#111111" stroke-width="2" fill="none" />
  <polygon id="slot.cup.a.body.polygon" points="486,98 522,98 516,140 492,140" stroke="#111111" stroke-width="2" fill="none" />
  <rect id="slot.count.a.rect" x="463" y="158" width="92" height="52" fill="#ffffff" stroke="#111111" stroke-width="1.5" />
  <polygon id="slot.cup.b.top.polygon" points="730,110 768,110 764,116 734,116" stroke="#111111" stroke-width="2" fill="none" />
  <polygon id="slot.cup.b.body.polygon" points="734,116 764,116 760,150 738,150" stroke="#111111" stroke-width="2" fill="none" />
  <rect id="slot.count.b.rect" x="718" y="160" width="92" height="52" fill="#ffffff" stroke="#111111" stroke-width="1.5" />
  <text id="slot.cup.a.label.text" x="500" y="121" fill="#111111" font-family="Noto Sans KR, sans-serif" font-size="28">가</text>
  <text id="slot.cup.b.label.text" x="749" y="136" fill="#111111" font-family="Noto Sans KR, sans-serif" font-size="28">나</text>
  <polygon id="slot.answer.cup.top.polygon" points="70,260 118,260 112,268 76,268" stroke="#111111" stroke-width="2" fill="none" />
  <polygon id="slot.answer.cup.body.polygon" points="76,268 112,268 106,310 82,310" stroke="#111111" stroke-width="2" fill="none" />
  <rect id="slot.answer.count.rect" x="58" y="320" width="92" height="52" fill="#ffffff" stroke="#111111" stroke-width="1.5" />
</svg>
