<?xml version="1.0" encoding="UTF-8"?>
<svg xmlns="http://www.w3.org/2000/svg" width="690" height="390" viewBox="0 0 690 390">
  <metadata><problem_id>S3_초등_3_009064</problem_id></metadata>
  <rect x="0" y="0" width="690" height="390" fill="#FFFFFF" />
  <rect id="slot.shape.a.rect" x="116" y="54" width="70" height="48" fill="#ffffff" stroke="#111111" stroke-width="1.5" />
  <rect id="slot.shape.b.rect" x="231" y="54" width="68" height="48" fill="#ffffff" stroke="#111111" stroke-width="1.5" />
  <rect id="slot.shape.c.rect" x="318" y="54" width="38" height="48" fill="#ffffff" stroke="#111111" stroke-width="1.5" />
  <rect id="slot.shape.d.rect" x="390" y="54" width="92" height="48" fill="#ffffff" stroke="#111111" stroke-width="1.5" />
  <rect id="slot.shape.e.rect" x="528" y="54" width="70" height="48" fill="#ffffff" stroke="#111111" stroke-width="1.5" />
  <text id="slot.title.text" x="18" y="22" fill="#111111" font-family="Noto Sans KR, sans-serif" font-size="28">4. 직사각형을 모두 선택하세요.</text>
  <text id="slot.label.a.text" x="139" y="84" fill="#111111" font-family="Noto Sans KR, sans-serif" font-size="28">가</text>
  <text id="slot.label.b.text" x="254" y="84" fill="#111111" font-family="Noto Sans KR, sans-serif" font-size="28">나</text>
  <text id="slot.label.c.text" x="331" y="84" fill="#111111" font-family="Noto Sans KR, sans-serif" font-size="28">다</text>
  <text id="slot.label.d.text" x="426" y="84" fill="#111111" font-family="Noto Sans KR, sans-serif" font-size="28">라</text>
  <text id="slot.label.e.text" x="550" y="84" fill="#111111" font-family="Noto Sans KR, sans-serif" font-size="28">마</text>
  <text id="slot.list.text" x="202" y="129" fill="#111111" font-family="Noto Sans KR, sans-serif" font-size="28">( 가 , 나 , 다 , 라 , 마 )</text>
  <rect id="slot.ex_shape.a.rect" x="104" y="250" width="69" height="48" fill="#ffffff" stroke="#111111" stroke-width="1.5" />
  <rect id="slot.ex_shape.b.rect" x="229" y="250" width="69" height="48" fill="#ffffff" stroke="#111111" stroke-width="1.5" />
  <rect id="slot.ex_shape.c.rect" x="314" y="250" width="38" height="48" fill="#ffffff" stroke="#111111" stroke-width="1.5" />
  <rect id="slot.ex_shape.d.rect" x="395" y="250" width="95" height="48" fill="#ffffff" stroke="#111111" stroke-width="1.5" />
  <rect id="slot.ex_shape.e.rect" x="545" y="250" width="69" height="48" fill="#ffffff" stroke="#111111" stroke-width="1.5" />
  <line id="slot.corner.a1.line" x1="104" y1="250" x2="114" y2="250" stroke="#111111" stroke-width="2" />
  <line id="slot.corner.a2.line" x1="104" y1="250" x2="104" y2="260" stroke="#111111" stroke-width="2" />
  <line id="slot.corner.b1.line" x1="229" y1="250" x2="239" y2="250" stroke="#111111" stroke-width="2" />
  <line id="slot.corner.b2.line" x1="229" y1="250" x2="229" y2="260" stroke="#111111" stroke-width="2" />
  <line id="slot.corner.c1.line" x1="314" y1="250" x2="324" y2="250" stroke="#111111" stroke-width="2" />
  <line id="slot.corner.c2.line" x1="314" y1="250" x2="314" y2="260" stroke="#111111" stroke-width="2" />
  <line id="slot.corner.d1.line" x1="395" y1="250" x2="405" y2="250" stroke="#111111" stroke-width="2" />
  <line id="slot.corner.d2.line" x1="395" y1="250" x2="395" y2="260" stroke="#111111" stroke-width="2" />
  <line id="slot.corner.e1.line" x1="545" y1="250" x2="555" y2="250" stroke="#111111" stroke-width="2" />
  <line id="slot.corner.e2.line" x1="545" y1="250" x2="545" y2="260" stroke="#111111" stroke-width="2" />
  <text id="slot.ex_label.a.text" x="130" y="280" fill="#111111" font-family="Noto Sans KR, sans-serif" font-size="28">가</text>
  <text id="slot.ex_label.b.text" x="254" y="280" fill="#111111" font-family="Noto Sans KR, sans-serif" font-size="28">나</text>
  <text id="slot.ex_label.c.text" x="331" y="280" fill="#111111" font-family="Noto Sans KR, sans-serif" font-size="28">다</text>
  <text id="slot.ex_label.d.text" x="428" y="280" fill="#111111" font-family="Noto Sans KR, sans-serif" font-size="28">라</text>
  <text id="slot.ex_label.e.text" x="568" y="280" fill="#111111" font-family="Noto Sans KR, sans-serif" font-size="28">마</text>
</svg>
