<?xml version="1.0" encoding="UTF-8"?>
<svg xmlns="http://www.w3.org/2000/svg" width="704" height="482" viewBox="0 0 704 482">
  <metadata><problem_id>S3_초등_3_009043</problem_id></metadata>
  <rect x="0" y="0" width="704" height="482" fill="#FFFFFF" />
  <line id="slot.grid.main.v1.line" x1="244" y1="48" x2="244" y2="208" stroke="#9AA0A6" stroke-width="1.2" stroke-dasharray="5 3" />
  <line id="slot.grid.main.v2.line" x1="272" y1="48" x2="272" y2="208" stroke="#9AA0A6" stroke-width="1.2" stroke-dasharray="5 3" />
  <line id="slot.grid.main.v3.line" x1="300" y1="48" x2="300" y2="208" stroke="#9AA0A6" stroke-width="1.2" stroke-dasharray="5 3" />
  <line id="slot.grid.main.v4.line" x1="328" y1="48" x2="328" y2="208" stroke="#9AA0A6" stroke-width="1.2" stroke-dasharray="5 3" />
  <line id="slot.grid.main.v5.line" x1="356" y1="48" x2="356" y2="208" stroke="#9AA0A6" stroke-width="1.2" stroke-dasharray="5 3" />
  <line id="slot.grid.main.v6.line" x1="384" y1="48" x2="384" y2="208" stroke="#9AA0A6" stroke-width="1.2" stroke-dasharray="5 3" />
  <line id="slot.grid.main.v7.line" x1="412" y1="48" x2="412" y2="208" stroke="#9AA0A6" stroke-width="1.2" stroke-dasharray="5 3" />
  <line id="slot.grid.main.v8.line" x1="440" y1="48" x2="440" y2="208" stroke="#9AA0A6" stroke-width="1.2" stroke-dasharray="5 3" />
  <line id="slot.grid.main.v9.line" x1="468" y1="48" x2="468" y2="208" stroke="#9AA0A6" stroke-width="1.2" stroke-dasharray="5 3" />
  <line id="slot.grid.main.v10.line" x1="496" y1="48" x2="496" y2="208" stroke="#9AA0A6" stroke-width="1.2" stroke-dasharray="5 3" />
  <line id="slot.grid.main.h1.line" x1="244" y1="48" x2="496" y2="48" stroke="#9AA0A6" stroke-width="1.2" stroke-dasharray="5 3" />
  <line id="slot.grid.main.h2.line" x1="244" y1="76" x2="496" y2="76" stroke="#9AA0A6" stroke-width="1.2" stroke-dasharray="5 3" />
  <line id="slot.grid.main.h3.line" x1="244" y1="104" x2="496" y2="104" stroke="#9AA0A6" stroke-width="1.2" stroke-dasharray="5 3" />
  <line id="slot.grid.main.h4.line" x1="244" y1="132" x2="496" y2="132" stroke="#9AA0A6" stroke-width="1.2" stroke-dasharray="5 3" />
  <line id="slot.grid.main.h5.line" x1="244" y1="160" x2="496" y2="160" stroke="#9AA0A6" stroke-width="1.2" stroke-dasharray="5 3" />
  <line id="slot.grid.main.h6.line" x1="244" y1="188" x2="496" y2="188" stroke="#9AA0A6" stroke-width="1.2" stroke-dasharray="5 3" />
  <line id="slot.grid.small.v1.line" x1="34" y1="364" x2="34" y2="472" stroke="#9AA0A6" stroke-width="1.2" stroke-dasharray="5 3" />
  <line id="slot.grid.small.v2.line" x1="62" y1="364" x2="62" y2="472" stroke="#9AA0A6" stroke-width="1.2" stroke-dasharray="5 3" />
  <line id="slot.grid.small.v3.line" x1="90" y1="364" x2="90" y2="472" stroke="#9AA0A6" stroke-width="1.2" stroke-dasharray="5 3" />
  <line id="slot.grid.small.v4.line" x1="118" y1="364" x2="118" y2="472" stroke="#9AA0A6" stroke-width="1.2" stroke-dasharray="5 3" />
  <line id="slot.grid.small.v5.line" x1="146" y1="364" x2="146" y2="472" stroke="#9AA0A6" stroke-width="1.2" stroke-dasharray="5 3" />
  <line id="slot.grid.small.v6.line" x1="174" y1="364" x2="174" y2="472" stroke="#9AA0A6" stroke-width="1.2" stroke-dasharray="5 3" />
  <line id="slot.grid.small.v7.line" x1="202" y1="364" x2="202" y2="472" stroke="#9AA0A6" stroke-width="1.2" stroke-dasharray="5 3" />
  <line id="slot.grid.small.v8.line" x1="230" y1="364" x2="230" y2="472" stroke="#9AA0A6" stroke-width="1.2" stroke-dasharray="5 3" />
  <line id="slot.grid.small.v9.line" x1="258" y1="364" x2="258" y2="472" stroke="#9AA0A6" stroke-width="1.2" stroke-dasharray="5 3" />
  <line id="slot.grid.small.h1.line" x1="20" y1="364" x2="272" y2="364" stroke="#9AA0A6" stroke-width="1.2" stroke-dasharray="5 3" />
  <line id="slot.grid.small.h2.line" x1="20" y1="392" x2="272" y2="392" stroke="#9AA0A6" stroke-width="1.2" stroke-dasharray="5 3" />
  <line id="slot.grid.small.h3.line" x1="20" y1="420" x2="272" y2="420" stroke="#9AA0A6" stroke-width="1.2" stroke-dasharray="5 3" />
  <line id="slot.grid.small.h4.line" x1="20" y1="448" x2="272" y2="448" stroke="#9AA0A6" stroke-width="1.2" stroke-dasharray="5 3" />
  <text id="slot.chk.text" x="6" y="28" fill="#111111" font-family="Noto Sans KR, sans-serif" font-size="24">□</text>
  <text id="slot.no.text" x="28" y="28" fill="#111111" font-family="Noto Sans KR, sans-serif" font-size="24">81.</text>
  <text id="slot.title.text" x="66" y="28" fill="#111111" font-family="Noto Sans KR, sans-serif" font-size="24">직각삼각형을 찾아 선택하세요.</text>
  <rect id="slot.shape.a.rect" x="268" y="60" width="48" height="104" fill="none" stroke="#222222" stroke-width="2" />
  <polygon id="slot.shape.b.polygon" points="324,68 392,172 324,172" stroke="#222222" stroke-width="2" fill="none" />
  <rect id="slot.shape.c.rect" x="404" y="96" width="64" height="72" fill="none" stroke="#222222" stroke-width="2" />
  <polygon id="slot.shape.d.polygon" points="480,68 512,172 448,172" stroke="#222222" stroke-width="2" fill="none" />
  <rect id="slot.right_angle.b.rect" x="323" y="160" width="10" height="10" fill="none" stroke="#222222" stroke-width="1.5" />
  <text id="slot.label.a.text" x="284" y="128" fill="#111111" font-family="Noto Sans KR, sans-serif" font-size="28">가</text>
  <text id="slot.label.b.text" x="344" y="134" fill="#111111" font-family="Noto Sans KR, sans-serif" font-size="28">나</text>
  <text id="slot.label.c.text" x="424" y="138" fill="#111111" font-family="Noto Sans KR, sans-serif" font-size="28">다</text>
  <text id="slot.label.d.text" x="476" y="136" fill="#111111" font-family="Noto Sans KR, sans-serif" font-size="28">라</text>
  <text id="slot.choices.text" x="324" y="246" fill="#111111" font-family="Noto Sans KR, sans-serif" font-size="28">( 가 , 나 , 다 , 라 )</text>
  <rect id="slot.small.a.rect" x="44" y="376" width="32" height="64" fill="none" stroke="#222222" stroke-width="2" />
  <polygon id="slot.small.b.polygon" points="100,372 148,444 100,444" stroke="#222222" stroke-width="2" fill="none" />
  <rect id="slot.small.c.rect" x="160" y="388" width="48" height="56" fill="none" stroke="#222222" stroke-width="2" />
  <polygon id="slot.small.d.polygon" points="230,372 252,444 204,444" stroke="#222222" stroke-width="2" fill="none" />
  <rect id="slot.small.ra.rect" x="99" y="436" width="8" height="8" fill="none" stroke="#222222" stroke-width="1.5" />
  <text id="slot.small.la.text" x="56" y="416" fill="#111111" font-family="Noto Sans KR, sans-serif" font-size="20">가</text>
  <text id="slot.small.lb.text" x="108" y="420" fill="#111111" font-family="Noto Sans KR, sans-serif" font-size="20">나</text>
  <text id="slot.small.lc.text" x="174" y="424" fill="#111111" font-family="Noto Sans KR, sans-serif" font-size="20">다</text>
  <text id="slot.small.ld.text" x="224" y="422" fill="#111111" font-family="Noto Sans KR, sans-serif" font-size="20">라</text>
</svg>
