<?xml version="1.0" encoding="UTF-8"?>
<svg xmlns="http://www.w3.org/2000/svg" width="720" height="590" viewBox="0 0 720 590">
  <metadata><problem_id>S3_초등_3_008631</problem_id></metadata>
  <rect x="0" y="0" width="720" height="590" fill="#FFFFFF" />
  <rect id="slot.checkbox.rect" x="14" y="18" width="12" height="12" fill="none" stroke="#333333" stroke-width="0.8" />
  <rect id="slot.inline_blank.rect" x="247" y="10" width="27" height="27" fill="none" stroke="#111111" stroke-width="1" />
  <text id="slot.problem_no.text" x="36" y="29" max_width="592" fill="#111111" font-family="Noto Sans KR, sans-serif" font-size="20">2.</text>
  <text id="slot.question.prefix.text" x="62" y="29" max_width="592" fill="#111111" font-family="Noto Sans KR, sans-serif" font-size="25">수 모형을 보고</text>
  <text id="slot.question.suffix.text" x="288" y="29" max_width="592" fill="#111111" font-family="Noto Sans KR, sans-serif" font-size="25">안에 알맞은 수를 고르세요.</text>
  <rect id="slot.top.box.rect" x="366" y="54" width="246" height="126" fill="none" stroke="#1d6fa3" stroke-width="1.5" />
  <rect id="slot.figure.top.rod.1.front.rect" x="389" y="70.6" width="10.8" height="80" fill="#5cc6ee" stroke="#1d6fa3" stroke-width="1.2" />
  <polygon id="slot.figure.top.rod.1.top.polygon" points="389,70.6 392.6,67 403.40000000000003,67 399.8,70.6" stroke="#1d6fa3" stroke-width="1" fill="#94dcf6" />
  <polygon id="slot.figure.top.rod.1.side.polygon" points="399.8,70.6 403.40000000000003,67 403.40000000000003,147 399.8,150.6" stroke="#1d6fa3" stroke-width="1" fill="#35abd8" />
  <rect id="slot.figure.top.rod.2.front.rect" x="415" y="70.6" width="10.8" height="80" fill="#5cc6ee" stroke="#1d6fa3" stroke-width="1.2" />
  <polygon id="slot.figure.top.rod.2.top.polygon" points="415,70.6 418.6,67 429.40000000000003,67 425.8,70.6" stroke="#1d6fa3" stroke-width="1" fill="#94dcf6" />
  <polygon id="slot.figure.top.rod.2.side.polygon" points="425.8,70.6 429.40000000000003,67 429.40000000000003,147 425.8,150.6" stroke="#1d6fa3" stroke-width="1" fill="#35abd8" />
  <rect id="slot.figure.top.rod.3.front.rect" x="441" y="70.6" width="10.8" height="80" fill="#5cc6ee" stroke="#1d6fa3" stroke-width="1.2" />
  <polygon id="slot.figure.top.rod.3.top.polygon" points="441,70.6 444.6,67 455.40000000000003,67 451.8,70.6" stroke="#1d6fa3" stroke-width="1" fill="#94dcf6" />
  <polygon id="slot.figure.top.rod.3.side.polygon" points="451.8,70.6 455.40000000000003,67 455.40000000000003,147 451.8,150.6" stroke="#1d6fa3" stroke-width="1" fill="#35abd8" />
  <rect id="slot.figure.top.rod.4.front.rect" x="467" y="70.6" width="10.8" height="80" fill="#5cc6ee" stroke="#1d6fa3" stroke-width="1.2" />
  <polygon id="slot.figure.top.rod.4.top.polygon" points="467,70.6 470.6,67 481.40000000000003,67 477.8,70.6" stroke="#1d6fa3" stroke-width="1" fill="#94dcf6" />
  <polygon id="slot.figure.top.rod.4.side.polygon" points="477.8,70.6 481.40000000000003,67 481.40000000000003,147 477.8,150.6" stroke="#1d6fa3" stroke-width="1" fill="#35abd8" />
  <rect id="slot.figure.top.rod.5.front.rect" x="493" y="70.6" width="10.8" height="80" fill="#5cc6ee" stroke="#1d6fa3" stroke-width="1.2" />
  <polygon id="slot.figure.top.rod.5.top.polygon" points="493,70.6 496.6,67 507.40000000000003,67 503.8,70.6" stroke="#1d6fa3" stroke-width="1" fill="#94dcf6" />
  <polygon id="slot.figure.top.rod.5.side.polygon" points="503.8,70.6 507.40000000000003,67 507.40000000000003,147 503.8,150.6" stroke="#1d6fa3" stroke-width="1" fill="#35abd8" />
  <rect id="slot.figure.top.rod.6.front.rect" x="519" y="70.6" width="10.8" height="80" fill="#5cc6ee" stroke="#1d6fa3" stroke-width="1.2" />
  <polygon id="slot.figure.top.rod.6.top.polygon" points="519,70.6 522.6,67 533.4,67 529.8,70.6" stroke="#1d6fa3" stroke-width="1" fill="#94dcf6" />
  <polygon id="slot.figure.top.rod.6.side.polygon" points="529.8,70.6 533.4,67 533.4,147 529.8,150.6" stroke="#1d6fa3" stroke-width="1" fill="#35abd8" />
  <rect id="slot.figure.top.cube.1.front.rect" x="544" y="71.95" width="11" height="11" fill="#5cc6ee" stroke="#1d6fa3" stroke-width="1" />
  <polygon id="slot.figure.top.cube.1.top.polygon" points="544,71.95 548.95,67 559.95,67 555,71.95" stroke="#1d6fa3" stroke-width="0.9" fill="#94dcf6" />
  <polygon id="slot.figure.top.cube.1.side.polygon" points="555,71.95 559.95,67 559.95,78 555,82.95" stroke="#1d6fa3" stroke-width="0.9" fill="#35abd8" />
  <rect id="slot.figure.top.cube.2.front.rect" x="544" y="91.95" width="11" height="11" fill="#5cc6ee" stroke="#1d6fa3" stroke-width="1" />
  <polygon id="slot.figure.top.cube.2.top.polygon" points="544,91.95 548.95,87 559.95,87 555,91.95" stroke="#1d6fa3" stroke-width="0.9" fill="#94dcf6" />
  <polygon id="slot.figure.top.cube.2.side.polygon" points="555,91.95 559.95,87 559.95,98 555,102.95" stroke="#1d6fa3" stroke-width="0.9" fill="#35abd8" />
  <rect id="slot.figure.top.cube.3.front.rect" x="544" y="111.95" width="11" height="11" fill="#5cc6ee" stroke="#1d6fa3" stroke-width="1" />
  <polygon id="slot.figure.top.cube.3.top.polygon" points="544,111.95 548.95,107 559.95,107 555,111.95" stroke="#1d6fa3" stroke-width="0.9" fill="#94dcf6" />
  <polygon id="slot.figure.top.cube.3.side.polygon" points="555,111.95 559.95,107 559.95,118 555,122.95" stroke="#1d6fa3" stroke-width="0.9" fill="#35abd8" />
  <rect id="slot.figure.top.cube.4.front.rect" x="544" y="131.95" width="11" height="11" fill="#5cc6ee" stroke="#1d6fa3" stroke-width="1" />
  <polygon id="slot.figure.top.cube.4.top.polygon" points="544,131.95 548.95,127 559.95,127 555,131.95" stroke="#1d6fa3" stroke-width="0.9" fill="#94dcf6" />
  <polygon id="slot.figure.top.cube.4.side.polygon" points="555,131.95 559.95,127 559.95,138 555,142.95" stroke="#1d6fa3" stroke-width="0.9" fill="#35abd8" />
  <rect id="slot.figure.top.cube.5.front.rect" x="544" y="151.95" width="11" height="11" fill="#5cc6ee" stroke="#1d6fa3" stroke-width="1" />
  <polygon id="slot.figure.top.cube.5.top.polygon" points="544,151.95 548.95,147 559.95,147 555,151.95" stroke="#1d6fa3" stroke-width="0.9" fill="#94dcf6" />
  <polygon id="slot.figure.top.cube.5.side.polygon" points="555,151.95 559.95,147 559.95,158 555,162.95" stroke="#1d6fa3" stroke-width="0.9" fill="#35abd8" />
  <rect id="slot.figure.top.cube.6.front.rect" x="569" y="87.95" width="11" height="11" fill="#5cc6ee" stroke="#1d6fa3" stroke-width="1" />
  <polygon id="slot.figure.top.cube.6.top.polygon" points="569,87.95 573.95,83 584.95,83 580,87.95" stroke="#1d6fa3" stroke-width="0.9" fill="#94dcf6" />
  <polygon id="slot.figure.top.cube.6.side.polygon" points="580,87.95 584.95,83 584.95,94 580,98.95" stroke="#1d6fa3" stroke-width="0.9" fill="#35abd8" />
  <rect id="slot.figure.top.cube.7.front.rect" x="569" y="107.95" width="11" height="11" fill="#5cc6ee" stroke="#1d6fa3" stroke-width="1" />
  <polygon id="slot.figure.top.cube.7.top.polygon" points="569,107.95 573.95,103 584.95,103 580,107.95" stroke="#1d6fa3" stroke-width="0.9" fill="#94dcf6" />
  <polygon id="slot.figure.top.cube.7.side.polygon" points="580,107.95 584.95,103 584.95,114 580,118.95" stroke="#1d6fa3" stroke-width="0.9" fill="#35abd8" />
  <rect id="slot.figure.top.cube.8.front.rect" x="569" y="127.95" width="11" height="11" fill="#5cc6ee" stroke="#1d6fa3" stroke-width="1" />
  <polygon id="slot.figure.top.cube.8.top.polygon" points="569,127.95 573.95,123 584.95,123 580,127.95" stroke="#1d6fa3" stroke-width="0.9" fill="#94dcf6" />
  <polygon id="slot.figure.top.cube.8.side.polygon" points="580,127.95 584.95,123 584.95,134 580,138.95" stroke="#1d6fa3" stroke-width="0.9" fill="#35abd8" />
  <rect id="slot.figure.top.cube.9.front.rect" x="569" y="147.95" width="11" height="11" fill="#5cc6ee" stroke="#1d6fa3" stroke-width="1" />
  <polygon id="slot.figure.top.cube.9.top.polygon" points="569,147.95 573.95,143 584.95,143 580,147.95" stroke="#1d6fa3" stroke-width="0.9" fill="#94dcf6" />
  <polygon id="slot.figure.top.cube.9.side.polygon" points="580,147.95 584.95,143 584.95,154 580,158.95" stroke="#1d6fa3" stroke-width="0.9" fill="#35abd8" />
  <polygon id="slot.arrow.head.polygon" points="483,204 509,204 496,219" stroke="#8a8a8a" stroke-width="1" fill="#8a8a8a" />
  <rect id="slot.figure.group1.box.rect" x="315" y="225" width="98" height="126" fill="none" stroke="#1d6fa3" stroke-width="1.5" />
  <rect id="slot.figure.group1.rod.1.front.rect" x="333" y="240.825" width="11.475000000000001" height="85" fill="#5cc6ee" stroke="#1d6fa3" stroke-width="1.2" />
  <polygon id="slot.figure.group1.rod.1.top.polygon" points="333,240.825 336.825,237 348.3,237 344.475,240.825" stroke="#1d6fa3" stroke-width="1" fill="#94dcf6" />
  <polygon id="slot.figure.group1.rod.1.side.polygon" points="344.475,240.825 348.3,237 348.3,322 344.475,325.825" stroke="#1d6fa3" stroke-width="1" fill="#35abd8" />
  <rect id="slot.figure.group1.rod.2.front.rect" x="358" y="240.825" width="11.475000000000001" height="85" fill="#5cc6ee" stroke="#1d6fa3" stroke-width="1.2" />
  <polygon id="slot.figure.group1.rod.2.top.polygon" points="358,240.825 361.825,237 373.3,237 369.475,240.825" stroke="#1d6fa3" stroke-width="1" fill="#94dcf6" />
  <polygon id="slot.figure.group1.rod.2.side.polygon" points="369.475,240.825 373.3,237 373.3,322 369.475,325.825" stroke="#1d6fa3" stroke-width="1" fill="#35abd8" />
  <rect id="slot.figure.group1.cube.1.front.rect" x="389" y="241.95" width="11" height="11" fill="#5cc6ee" stroke="#1d6fa3" stroke-width="1" />
  <polygon id="slot.figure.group1.cube.1.top.polygon" points="389,241.95 393.95,237 404.95,237 400,241.95" stroke="#1d6fa3" stroke-width="0.9" fill="#94dcf6" />
  <polygon id="slot.figure.group1.cube.1.side.polygon" points="400,241.95 404.95,237 404.95,248 400,252.95" stroke="#1d6fa3" stroke-width="0.9" fill="#35abd8" />
  <rect id="slot.figure.group1.cube.2.front.rect" x="389" y="262.95" width="11" height="11" fill="#5cc6ee" stroke="#1d6fa3" stroke-width="1" />
  <polygon id="slot.figure.group1.cube.2.top.polygon" points="389,262.95 393.95,258 404.95,258 400,262.95" stroke="#1d6fa3" stroke-width="0.9" fill="#94dcf6" />
  <polygon id="slot.figure.group1.cube.2.side.polygon" points="400,262.95 404.95,258 404.95,269 400,273.95" stroke="#1d6fa3" stroke-width="0.9" fill="#35abd8" />
  <rect id="slot.figure.group1.cube.3.front.rect" x="389" y="283.95" width="11" height="11" fill="#5cc6ee" stroke="#1d6fa3" stroke-width="1" />
  <polygon id="slot.figure.group1.cube.3.top.polygon" points="389,283.95 393.95,279 404.95,279 400,283.95" stroke="#1d6fa3" stroke-width="0.9" fill="#94dcf6" />
  <polygon id="slot.figure.group1.cube.3.side.polygon" points="400,283.95 404.95,279 404.95,290 400,294.95" stroke="#1d6fa3" stroke-width="0.9" fill="#35abd8" />
  <rect id="slot.figure.group2.box.rect" x="435" y="225" width="98" height="126" fill="none" stroke="#1d6fa3" stroke-width="1.5" />
  <rect id="slot.figure.group2.rod.1.front.rect" x="453" y="240.825" width="11.475000000000001" height="85" fill="#5cc6ee" stroke="#1d6fa3" stroke-width="1.2" />
  <polygon id="slot.figure.group2.rod.1.top.polygon" points="453,240.825 456.825,237 468.3,237 464.475,240.825" stroke="#1d6fa3" stroke-width="1" fill="#94dcf6" />
  <polygon id="slot.figure.group2.rod.1.side.polygon" points="464.475,240.825 468.3,237 468.3,322 464.475,325.825" stroke="#1d6fa3" stroke-width="1" fill="#35abd8" />
  <rect id="slot.figure.group2.rod.2.front.rect" x="478" y="240.825" width="11.475000000000001" height="85" fill="#5cc6ee" stroke="#1d6fa3" stroke-width="1.2" />
  <polygon id="slot.figure.group2.rod.2.top.polygon" points="478,240.825 481.825,237 493.3,237 489.475,240.825" stroke="#1d6fa3" stroke-width="1" fill="#94dcf6" />
  <polygon id="slot.figure.group2.rod.2.side.polygon" points="489.475,240.825 493.3,237 493.3,322 489.475,325.825" stroke="#1d6fa3" stroke-width="1" fill="#35abd8" />
  <rect id="slot.figure.group2.cube.1.front.rect" x="509" y="241.95" width="11" height="11" fill="#5cc6ee" stroke="#1d6fa3" stroke-width="1" />
  <polygon id="slot.figure.group2.cube.1.top.polygon" points="509,241.95 513.95,237 524.95,237 520,241.95" stroke="#1d6fa3" stroke-width="0.9" fill="#94dcf6" />
  <polygon id="slot.figure.group2.cube.1.side.polygon" points="520,241.95 524.95,237 524.95,248 520,252.95" stroke="#1d6fa3" stroke-width="0.9" fill="#35abd8" />
  <rect id="slot.figure.group2.cube.2.front.rect" x="509" y="262.95" width="11" height="11" fill="#5cc6ee" stroke="#1d6fa3" stroke-width="1" />
  <polygon id="slot.figure.group2.cube.2.top.polygon" points="509,262.95 513.95,258 524.95,258 520,262.95" stroke="#1d6fa3" stroke-width="0.9" fill="#94dcf6" />
  <polygon id="slot.figure.group2.cube.2.side.polygon" points="520,262.95 524.95,258 524.95,269 520,273.95" stroke="#1d6fa3" stroke-width="0.9" fill="#35abd8" />
  <rect id="slot.figure.group2.cube.3.front.rect" x="509" y="283.95" width="11" height="11" fill="#5cc6ee" stroke="#1d6fa3" stroke-width="1" />
  <polygon id="slot.figure.group2.cube.3.top.polygon" points="509,283.95 513.95,279 524.95,279 520,283.95" stroke="#1d6fa3" stroke-width="0.9" fill="#94dcf6" />
  <polygon id="slot.figure.group2.cube.3.side.polygon" points="520,283.95 524.95,279 524.95,290 520,294.95" stroke="#1d6fa3" stroke-width="0.9" fill="#35abd8" />
  <rect id="slot.figure.group3.box.rect" x="555" y="225" width="98" height="126" fill="none" stroke="#1d6fa3" stroke-width="1.5" />
  <rect id="slot.figure.group3.rod.1.front.rect" x="573" y="240.825" width="11.475000000000001" height="85" fill="#5cc6ee" stroke="#1d6fa3" stroke-width="1.2" />
  <polygon id="slot.figure.group3.rod.1.top.polygon" points="573,240.825 576.825,237 588.3000000000001,237 584.475,240.825" stroke="#1d6fa3" stroke-width="1" fill="#94dcf6" />
  <polygon id="slot.figure.group3.rod.1.side.polygon" points="584.475,240.825 588.3000000000001,237 588.3000000000001,322 584.475,325.825" stroke="#1d6fa3" stroke-width="1" fill="#35abd8" />
  <rect id="slot.figure.group3.rod.2.front.rect" x="598" y="240.825" width="11.475000000000001" height="85" fill="#5cc6ee" stroke="#1d6fa3" stroke-width="1.2" />
  <polygon id="slot.figure.group3.rod.2.top.polygon" points="598,240.825 601.825,237 613.3000000000001,237 609.475,240.825" stroke="#1d6fa3" stroke-width="1" fill="#94dcf6" />
  <polygon id="slot.figure.group3.rod.2.side.polygon" points="609.475,240.825 613.3000000000001,237 613.3000000000001,322 609.475,325.825" stroke="#1d6fa3" stroke-width="1" fill="#35abd8" />
  <rect id="slot.figure.group3.cube.1.front.rect" x="629" y="241.95" width="11" height="11" fill="#5cc6ee" stroke="#1d6fa3" stroke-width="1" />
  <polygon id="slot.figure.group3.cube.1.top.polygon" points="629,241.95 633.95,237 644.95,237 640,241.95" stroke="#1d6fa3" stroke-width="0.9" fill="#94dcf6" />
  <polygon id="slot.figure.group3.cube.1.side.polygon" points="640,241.95 644.95,237 644.95,248 640,252.95" stroke="#1d6fa3" stroke-width="0.9" fill="#35abd8" />
  <rect id="slot.figure.group3.cube.2.front.rect" x="629" y="262.95" width="11" height="11" fill="#5cc6ee" stroke="#1d6fa3" stroke-width="1" />
  <polygon id="slot.figure.group3.cube.2.top.polygon" points="629,262.95 633.95,258 644.95,258 640,262.95" stroke="#1d6fa3" stroke-width="0.9" fill="#94dcf6" />
  <polygon id="slot.figure.group3.cube.2.side.polygon" points="640,262.95 644.95,258 644.95,269 640,273.95" stroke="#1d6fa3" stroke-width="0.9" fill="#35abd8" />
  <rect id="slot.figure.group3.cube.3.front.rect" x="629" y="283.95" width="11" height="11" fill="#5cc6ee" stroke="#1d6fa3" stroke-width="1" />
  <polygon id="slot.figure.group3.cube.3.top.polygon" points="629,283.95 633.95,279 644.95,279 640,283.95" stroke="#1d6fa3" stroke-width="0.9" fill="#94dcf6" />
  <polygon id="slot.figure.group3.cube.3.side.polygon" points="640,283.95 644.95,279 644.95,290 640,294.95" stroke="#1d6fa3" stroke-width="0.9" fill="#35abd8" />
  <rect id="slot.blank.rect" x="529" y="368" width="27" height="27" fill="none" stroke="#111111" stroke-width="1.2" />
  <line id="slot.figure.top.rod.1.cell.1.line" x1="389" y1="78.6" x2="399.8" y2="78.6" stroke="#1d6fa3" stroke-width="0.7" />
  <line id="slot.figure.top.rod.1.cell.2.line" x1="389" y1="86.6" x2="399.8" y2="86.6" stroke="#1d6fa3" stroke-width="0.7" />
  <line id="slot.figure.top.rod.1.cell.3.line" x1="389" y1="94.6" x2="399.8" y2="94.6" stroke="#1d6fa3" stroke-width="0.7" />
  <line id="slot.figure.top.rod.1.cell.4.line" x1="389" y1="102.6" x2="399.8" y2="102.6" stroke="#1d6fa3" stroke-width="0.7" />
  <line id="slot.figure.top.rod.1.cell.5.line" x1="389" y1="110.6" x2="399.8" y2="110.6" stroke="#1d6fa3" stroke-width="0.7" />
  <line id="slot.figure.top.rod.1.cell.6.line" x1="389" y1="118.6" x2="399.8" y2="118.6" stroke="#1d6fa3" stroke-width="0.7" />
  <line id="slot.figure.top.rod.1.cell.7.line" x1="389" y1="126.6" x2="399.8" y2="126.6" stroke="#1d6fa3" stroke-width="0.7" />
  <line id="slot.figure.top.rod.1.cell.8.line" x1="389" y1="134.6" x2="399.8" y2="134.6" stroke="#1d6fa3" stroke-width="0.7" />
  <line id="slot.figure.top.rod.1.cell.9.line" x1="389" y1="142.6" x2="399.8" y2="142.6" stroke="#1d6fa3" stroke-width="0.7" />
  <line id="slot.figure.top.rod.2.cell.1.line" x1="415" y1="78.6" x2="425.8" y2="78.6" stroke="#1d6fa3" stroke-width="0.7" />
  <line id="slot.figure.top.rod.2.cell.2.line" x1="415" y1="86.6" x2="425.8" y2="86.6" stroke="#1d6fa3" stroke-width="0.7" />
  <line id="slot.figure.top.rod.2.cell.3.line" x1="415" y1="94.6" x2="425.8" y2="94.6" stroke="#1d6fa3" stroke-width="0.7" />
  <line id="slot.figure.top.rod.2.cell.4.line" x1="415" y1="102.6" x2="425.8" y2="102.6" stroke="#1d6fa3" stroke-width="0.7" />
  <line id="slot.figure.top.rod.2.cell.5.line" x1="415" y1="110.6" x2="425.8" y2="110.6" stroke="#1d6fa3" stroke-width="0.7" />
  <line id="slot.figure.top.rod.2.cell.6.line" x1="415" y1="118.6" x2="425.8" y2="118.6" stroke="#1d6fa3" stroke-width="0.7" />
  <line id="slot.figure.top.rod.2.cell.7.line" x1="415" y1="126.6" x2="425.8" y2="126.6" stroke="#1d6fa3" stroke-width="0.7" />
  <line id="slot.figure.top.rod.2.cell.8.line" x1="415" y1="134.6" x2="425.8" y2="134.6" stroke="#1d6fa3" stroke-width="0.7" />
  <line id="slot.figure.top.rod.2.cell.9.line" x1="415" y1="142.6" x2="425.8" y2="142.6" stroke="#1d6fa3" stroke-width="0.7" />
  <line id="slot.figure.top.rod.3.cell.1.line" x1="441" y1="78.6" x2="451.8" y2="78.6" stroke="#1d6fa3" stroke-width="0.7" />
  <line id="slot.figure.top.rod.3.cell.2.line" x1="441" y1="86.6" x2="451.8" y2="86.6" stroke="#1d6fa3" stroke-width="0.7" />
  <line id="slot.figure.top.rod.3.cell.3.line" x1="441" y1="94.6" x2="451.8" y2="94.6" stroke="#1d6fa3" stroke-width="0.7" />
  <line id="slot.figure.top.rod.3.cell.4.line" x1="441" y1="102.6" x2="451.8" y2="102.6" stroke="#1d6fa3" stroke-width="0.7" />
  <line id="slot.figure.top.rod.3.cell.5.line" x1="441" y1="110.6" x2="451.8" y2="110.6" stroke="#1d6fa3" stroke-width="0.7" />
  <line id="slot.figure.top.rod.3.cell.6.line" x1="441" y1="118.6" x2="451.8" y2="118.6" stroke="#1d6fa3" stroke-width="0.7" />
  <line id="slot.figure.top.rod.3.cell.7.line" x1="441" y1="126.6" x2="451.8" y2="126.6" stroke="#1d6fa3" stroke-width="0.7" />
  <line id="slot.figure.top.rod.3.cell.8.line" x1="441" y1="134.6" x2="451.8" y2="134.6" stroke="#1d6fa3" stroke-width="0.7" />
  <line id="slot.figure.top.rod.3.cell.9.line" x1="441" y1="142.6" x2="451.8" y2="142.6" stroke="#1d6fa3" stroke-width="0.7" />
  <line id="slot.figure.top.rod.4.cell.1.line" x1="467" y1="78.6" x2="477.8" y2="78.6" stroke="#1d6fa3" stroke-width="0.7" />
  <line id="slot.figure.top.rod.4.cell.2.line" x1="467" y1="86.6" x2="477.8" y2="86.6" stroke="#1d6fa3" stroke-width="0.7" />
  <line id="slot.figure.top.rod.4.cell.3.line" x1="467" y1="94.6" x2="477.8" y2="94.6" stroke="#1d6fa3" stroke-width="0.7" />
  <line id="slot.figure.top.rod.4.cell.4.line" x1="467" y1="102.6" x2="477.8" y2="102.6" stroke="#1d6fa3" stroke-width="0.7" />
  <line id="slot.figure.top.rod.4.cell.5.line" x1="467" y1="110.6" x2="477.8" y2="110.6" stroke="#1d6fa3" stroke-width="0.7" />
  <line id="slot.figure.top.rod.4.cell.6.line" x1="467" y1="118.6" x2="477.8" y2="118.6" stroke="#1d6fa3" stroke-width="0.7" />
  <line id="slot.figure.top.rod.4.cell.7.line" x1="467" y1="126.6" x2="477.8" y2="126.6" stroke="#1d6fa3" stroke-width="0.7" />
  <line id="slot.figure.top.rod.4.cell.8.line" x1="467" y1="134.6" x2="477.8" y2="134.6" stroke="#1d6fa3" stroke-width="0.7" />
  <line id="slot.figure.top.rod.4.cell.9.line" x1="467" y1="142.6" x2="477.8" y2="142.6" stroke="#1d6fa3" stroke-width="0.7" />
  <line id="slot.figure.top.rod.5.cell.1.line" x1="493" y1="78.6" x2="503.8" y2="78.6" stroke="#1d6fa3" stroke-width="0.7" />
  <line id="slot.figure.top.rod.5.cell.2.line" x1="493" y1="86.6" x2="503.8" y2="86.6" stroke="#1d6fa3" stroke-width="0.7" />
  <line id="slot.figure.top.rod.5.cell.3.line" x1="493" y1="94.6" x2="503.8" y2="94.6" stroke="#1d6fa3" stroke-width="0.7" />
  <line id="slot.figure.top.rod.5.cell.4.line" x1="493" y1="102.6" x2="503.8" y2="102.6" stroke="#1d6fa3" stroke-width="0.7" />
  <line id="slot.figure.top.rod.5.cell.5.line" x1="493" y1="110.6" x2="503.8" y2="110.6" stroke="#1d6fa3" stroke-width="0.7" />
  <line id="slot.figure.top.rod.5.cell.6.line" x1="493" y1="118.6" x2="503.8" y2="118.6" stroke="#1d6fa3" stroke-width="0.7" />
  <line id="slot.figure.top.rod.5.cell.7.line" x1="493" y1="126.6" x2="503.8" y2="126.6" stroke="#1d6fa3" stroke-width="0.7" />
  <line id="slot.figure.top.rod.5.cell.8.line" x1="493" y1="134.6" x2="503.8" y2="134.6" stroke="#1d6fa3" stroke-width="0.7" />
  <line id="slot.figure.top.rod.5.cell.9.line" x1="493" y1="142.6" x2="503.8" y2="142.6" stroke="#1d6fa3" stroke-width="0.7" />
  <line id="slot.figure.top.rod.6.cell.1.line" x1="519" y1="78.6" x2="529.8" y2="78.6" stroke="#1d6fa3" stroke-width="0.7" />
  <line id="slot.figure.top.rod.6.cell.2.line" x1="519" y1="86.6" x2="529.8" y2="86.6" stroke="#1d6fa3" stroke-width="0.7" />
  <line id="slot.figure.top.rod.6.cell.3.line" x1="519" y1="94.6" x2="529.8" y2="94.6" stroke="#1d6fa3" stroke-width="0.7" />
  <line id="slot.figure.top.rod.6.cell.4.line" x1="519" y1="102.6" x2="529.8" y2="102.6" stroke="#1d6fa3" stroke-width="0.7" />
  <line id="slot.figure.top.rod.6.cell.5.line" x1="519" y1="110.6" x2="529.8" y2="110.6" stroke="#1d6fa3" stroke-width="0.7" />
  <line id="slot.figure.top.rod.6.cell.6.line" x1="519" y1="118.6" x2="529.8" y2="118.6" stroke="#1d6fa3" stroke-width="0.7" />
  <line id="slot.figure.top.rod.6.cell.7.line" x1="519" y1="126.6" x2="529.8" y2="126.6" stroke="#1d6fa3" stroke-width="0.7" />
  <line id="slot.figure.top.rod.6.cell.8.line" x1="519" y1="134.6" x2="529.8" y2="134.6" stroke="#1d6fa3" stroke-width="0.7" />
  <line id="slot.figure.top.rod.6.cell.9.line" x1="519" y1="142.6" x2="529.8" y2="142.6" stroke="#1d6fa3" stroke-width="0.7" />
  <line id="slot.arrow.stem.line" x1="496" y1="188" x2="496" y2="213" stroke="#8a8a8a" stroke-width="10" />
  <line id="slot.figure.group1.rod.1.cell.1.line" x1="333" y1="249.325" x2="344.475" y2="249.325" stroke="#1d6fa3" stroke-width="0.7" />
  <line id="slot.figure.group1.rod.1.cell.2.line" x1="333" y1="257.825" x2="344.475" y2="257.825" stroke="#1d6fa3" stroke-width="0.7" />
  <line id="slot.figure.group1.rod.1.cell.3.line" x1="333" y1="266.325" x2="344.475" y2="266.325" stroke="#1d6fa3" stroke-width="0.7" />
  <line id="slot.figure.group1.rod.1.cell.4.line" x1="333" y1="274.825" x2="344.475" y2="274.825" stroke="#1d6fa3" stroke-width="0.7" />
  <line id="slot.figure.group1.rod.1.cell.5.line" x1="333" y1="283.325" x2="344.475" y2="283.325" stroke="#1d6fa3" stroke-width="0.7" />
  <line id="slot.figure.group1.rod.1.cell.6.line" x1="333" y1="291.825" x2="344.475" y2="291.825" stroke="#1d6fa3" stroke-width="0.7" />
  <line id="slot.figure.group1.rod.1.cell.7.line" x1="333" y1="300.325" x2="344.475" y2="300.325" stroke="#1d6fa3" stroke-width="0.7" />
  <line id="slot.figure.group1.rod.1.cell.8.line" x1="333" y1="308.825" x2="344.475" y2="308.825" stroke="#1d6fa3" stroke-width="0.7" />
  <line id="slot.figure.group1.rod.1.cell.9.line" x1="333" y1="317.325" x2="344.475" y2="317.325" stroke="#1d6fa3" stroke-width="0.7" />
  <line id="slot.figure.group1.rod.2.cell.1.line" x1="358" y1="249.325" x2="369.475" y2="249.325" stroke="#1d6fa3" stroke-width="0.7" />
  <line id="slot.figure.group1.rod.2.cell.2.line" x1="358" y1="257.825" x2="369.475" y2="257.825" stroke="#1d6fa3" stroke-width="0.7" />
  <line id="slot.figure.group1.rod.2.cell.3.line" x1="358" y1="266.325" x2="369.475" y2="266.325" stroke="#1d6fa3" stroke-width="0.7" />
  <line id="slot.figure.group1.rod.2.cell.4.line" x1="358" y1="274.825" x2="369.475" y2="274.825" stroke="#1d6fa3" stroke-width="0.7" />
  <line id="slot.figure.group1.rod.2.cell.5.line" x1="358" y1="283.325" x2="369.475" y2="283.325" stroke="#1d6fa3" stroke-width="0.7" />
  <line id="slot.figure.group1.rod.2.cell.6.line" x1="358" y1="291.825" x2="369.475" y2="291.825" stroke="#1d6fa3" stroke-width="0.7" />
  <line id="slot.figure.group1.rod.2.cell.7.line" x1="358" y1="300.325" x2="369.475" y2="300.325" stroke="#1d6fa3" stroke-width="0.7" />
  <line id="slot.figure.group1.rod.2.cell.8.line" x1="358" y1="308.825" x2="369.475" y2="308.825" stroke="#1d6fa3" stroke-width="0.7" />
  <line id="slot.figure.group1.rod.2.cell.9.line" x1="358" y1="317.325" x2="369.475" y2="317.325" stroke="#1d6fa3" stroke-width="0.7" />
  <line id="slot.figure.group2.rod.1.cell.1.line" x1="453" y1="249.325" x2="464.475" y2="249.325" stroke="#1d6fa3" stroke-width="0.7" />
  <line id="slot.figure.group2.rod.1.cell.2.line" x1="453" y1="257.825" x2="464.475" y2="257.825" stroke="#1d6fa3" stroke-width="0.7" />
  <line id="slot.figure.group2.rod.1.cell.3.line" x1="453" y1="266.325" x2="464.475" y2="266.325" stroke="#1d6fa3" stroke-width="0.7" />
  <line id="slot.figure.group2.rod.1.cell.4.line" x1="453" y1="274.825" x2="464.475" y2="274.825" stroke="#1d6fa3" stroke-width="0.7" />
  <line id="slot.figure.group2.rod.1.cell.5.line" x1="453" y1="283.325" x2="464.475" y2="283.325" stroke="#1d6fa3" stroke-width="0.7" />
  <line id="slot.figure.group2.rod.1.cell.6.line" x1="453" y1="291.825" x2="464.475" y2="291.825" stroke="#1d6fa3" stroke-width="0.7" />
  <line id="slot.figure.group2.rod.1.cell.7.line" x1="453" y1="300.325" x2="464.475" y2="300.325" stroke="#1d6fa3" stroke-width="0.7" />
  <line id="slot.figure.group2.rod.1.cell.8.line" x1="453" y1="308.825" x2="464.475" y2="308.825" stroke="#1d6fa3" stroke-width="0.7" />
  <line id="slot.figure.group2.rod.1.cell.9.line" x1="453" y1="317.325" x2="464.475" y2="317.325" stroke="#1d6fa3" stroke-width="0.7" />
  <line id="slot.figure.group2.rod.2.cell.1.line" x1="478" y1="249.325" x2="489.475" y2="249.325" stroke="#1d6fa3" stroke-width="0.7" />
  <line id="slot.figure.group2.rod.2.cell.2.line" x1="478" y1="257.825" x2="489.475" y2="257.825" stroke="#1d6fa3" stroke-width="0.7" />
  <line id="slot.figure.group2.rod.2.cell.3.line" x1="478" y1="266.325" x2="489.475" y2="266.325" stroke="#1d6fa3" stroke-width="0.7" />
  <line id="slot.figure.group2.rod.2.cell.4.line" x1="478" y1="274.825" x2="489.475" y2="274.825" stroke="#1d6fa3" stroke-width="0.7" />
  <line id="slot.figure.group2.rod.2.cell.5.line" x1="478" y1="283.325" x2="489.475" y2="283.325" stroke="#1d6fa3" stroke-width="0.7" />
  <line id="slot.figure.group2.rod.2.cell.6.line" x1="478" y1="291.825" x2="489.475" y2="291.825" stroke="#1d6fa3" stroke-width="0.7" />
  <line id="slot.figure.group2.rod.2.cell.7.line" x1="478" y1="300.325" x2="489.475" y2="300.325" stroke="#1d6fa3" stroke-width="0.7" />
  <line id="slot.figure.group2.rod.2.cell.8.line" x1="478" y1="308.825" x2="489.475" y2="308.825" stroke="#1d6fa3" stroke-width="0.7" />
  <line id="slot.figure.group2.rod.2.cell.9.line" x1="478" y1="317.325" x2="489.475" y2="317.325" stroke="#1d6fa3" stroke-width="0.7" />
  <line id="slot.figure.group3.rod.1.cell.1.line" x1="573" y1="249.325" x2="584.475" y2="249.325" stroke="#1d6fa3" stroke-width="0.7" />
  <line id="slot.figure.group3.rod.1.cell.2.line" x1="573" y1="257.825" x2="584.475" y2="257.825" stroke="#1d6fa3" stroke-width="0.7" />
  <line id="slot.figure.group3.rod.1.cell.3.line" x1="573" y1="266.325" x2="584.475" y2="266.325" stroke="#1d6fa3" stroke-width="0.7" />
  <line id="slot.figure.group3.rod.1.cell.4.line" x1="573" y1="274.825" x2="584.475" y2="274.825" stroke="#1d6fa3" stroke-width="0.7" />
  <line id="slot.figure.group3.rod.1.cell.5.line" x1="573" y1="283.325" x2="584.475" y2="283.325" stroke="#1d6fa3" stroke-width="0.7" />
  <line id="slot.figure.group3.rod.1.cell.6.line" x1="573" y1="291.825" x2="584.475" y2="291.825" stroke="#1d6fa3" stroke-width="0.7" />
  <line id="slot.figure.group3.rod.1.cell.7.line" x1="573" y1="300.325" x2="584.475" y2="300.325" stroke="#1d6fa3" stroke-width="0.7" />
  <line id="slot.figure.group3.rod.1.cell.8.line" x1="573" y1="308.825" x2="584.475" y2="308.825" stroke="#1d6fa3" stroke-width="0.7" />
  <line id="slot.figure.group3.rod.1.cell.9.line" x1="573" y1="317.325" x2="584.475" y2="317.325" stroke="#1d6fa3" stroke-width="0.7" />
  <line id="slot.figure.group3.rod.2.cell.1.line" x1="598" y1="249.325" x2="609.475" y2="249.325" stroke="#1d6fa3" stroke-width="0.7" />
  <line id="slot.figure.group3.rod.2.cell.2.line" x1="598" y1="257.825" x2="609.475" y2="257.825" stroke="#1d6fa3" stroke-width="0.7" />
  <line id="slot.figure.group3.rod.2.cell.3.line" x1="598" y1="266.325" x2="609.475" y2="266.325" stroke="#1d6fa3" stroke-width="0.7" />
  <line id="slot.figure.group3.rod.2.cell.4.line" x1="598" y1="274.825" x2="609.475" y2="274.825" stroke="#1d6fa3" stroke-width="0.7" />
  <line id="slot.figure.group3.rod.2.cell.5.line" x1="598" y1="283.325" x2="609.475" y2="283.325" stroke="#1d6fa3" stroke-width="0.7" />
  <line id="slot.figure.group3.rod.2.cell.6.line" x1="598" y1="291.825" x2="609.475" y2="291.825" stroke="#1d6fa3" stroke-width="0.7" />
  <line id="slot.figure.group3.rod.2.cell.7.line" x1="598" y1="300.325" x2="609.475" y2="300.325" stroke="#1d6fa3" stroke-width="0.7" />
  <line id="slot.figure.group3.rod.2.cell.8.line" x1="598" y1="308.825" x2="609.475" y2="308.825" stroke="#1d6fa3" stroke-width="0.7" />
  <line id="slot.figure.group3.rod.2.cell.9.line" x1="598" y1="317.325" x2="609.475" y2="317.325" stroke="#1d6fa3" stroke-width="0.7" />
  <text id="slot.equation.text" x="417" y="392" max_width="592" fill="#111111" font-family="Noto Sans KR, sans-serif" font-size="27">69 ÷ 3 =</text>
  <text id="slot.choice.1.marker.text" x="36" y="431" max_width="592" fill="#0070c0" font-family="Noto Sans KR, sans-serif" font-size="21">①</text>
  <text id="slot.choice.1.value.text" x="60" y="431" max_width="592" fill="#111111" font-family="Noto Sans KR, sans-serif" font-size="24">21</text>
  <text id="slot.choice.2.marker.text" x="332" y="431" max_width="592" fill="#0070c0" font-family="Noto Sans KR, sans-serif" font-size="21">②</text>
  <text id="slot.choice.2.value.text" x="356" y="431" max_width="592" fill="#111111" font-family="Noto Sans KR, sans-serif" font-size="24">22</text>
  <text id="slot.choice.3.marker.text" x="628" y="431" max_width="592" fill="#0070c0" font-family="Noto Sans KR, sans-serif" font-size="21">③</text>
  <text id="slot.choice.3.value.text" x="652" y="431" max_width="592" fill="#111111" font-family="Noto Sans KR, sans-serif" font-size="24">23</text>
  <text id="slot.choice.4.marker.text" x="36" y="476" max_width="592" fill="#0070c0" font-family="Noto Sans KR, sans-serif" font-size="21">④</text>
  <text id="slot.choice.4.value.text" x="60" y="476" max_width="592" fill="#111111" font-family="Noto Sans KR, sans-serif" font-size="24">24</text>
  <text id="slot.choice.5.marker.text" x="332" y="476" max_width="592" fill="#0070c0" font-family="Noto Sans KR, sans-serif" font-size="21">⑤</text>
  <text id="slot.choice.5.value.text" x="356" y="476" max_width="592" fill="#111111" font-family="Noto Sans KR, sans-serif" font-size="24">25</text>
  <text id="slot.answer.text" x="15" y="522" max_width="592" fill="#111111" font-family="Noto Sans KR, sans-serif" font-size="18">(정답) ③</text>
  <text id="slot.explanation.text" x="15" y="570" max_width="592" fill="#111111" font-family="Noto Sans KR, sans-serif" font-size="18">(해설)69 ÷ 3 = 23입니다.</text>
</svg>
