<?xml version="1.0" encoding="UTF-8"?>
<svg xmlns="http://www.w3.org/2000/svg" width="960" height="484" viewBox="0 0 960 484">
  <metadata><problem_id>S3_초등_3_008862</problem_id></metadata>
  <rect x="0" y="0" width="960" height="484" fill="#FFFFFF" />
  <rect id="slot.box.rect" x="244" y="47" width="501" height="271" fill="#ffffff" stroke="#111111" stroke-width="1.5" />
  <polygon id="slot.obj.milkcarton.polygon" points="354,198 366,183 380,183 388,194 388,224 353,224" stroke="#111111" stroke-width="2" fill="none" />
  <path id="slot.obj.juicebottle.path" d="M 493.0 129.0 C 496.0 119.0, 512.0 119.0, 515.0 129.0 L 515.0 223.0 C 515.0 232.0, 493.0 232.0, 493.0 223.0 Z" stroke="#111111" stroke-width="2" fill="none" />
  <circle id="slot.obj.drum.circle" cx="626" cy="187" r="34" stroke="#111111" stroke-width="2" fill="#BDBDBD" />
  <line id="slot.obj.milkcarton.line1.line" x1="354" y1="198" x2="388" y2="198" stroke="#111111" stroke-width="2" />
  <line id="slot.obj.milkcarton.line2.line" x1="366" y1="183" x2="366" y2="224" stroke="#111111" stroke-width="2" />
  <text id="slot.q1.text" x="6" y="26" fill="#111111" font-family="Noto Sans KR, sans-serif" font-size="28">□ 8. &lt;보기&gt;에서 물건을 선택하여 문장을 완성해 보세요.</text>
  <text id="slot.box.title.text" x="259" y="90" fill="#111111" font-family="Noto Sans KR, sans-serif" font-size="28">&lt;보기&gt;</text>
  <text id="slot.label.milkcarton.text" x="337" y="293" fill="#111111" font-family="Noto Sans KR, sans-serif" font-size="28">우유갑</text>
  <text id="slot.label.juicebottle.text" x="474" y="293" fill="#111111" font-family="Noto Sans KR, sans-serif" font-size="28">주스병</text>
  <text id="slot.label.drum.text" x="612" y="293" fill="#111111" font-family="Noto Sans KR, sans-serif" font-size="28">드럼통</text>
  <text id="slot.q2.text" x="6" y="372" fill="#111111" font-family="Noto Sans KR, sans-serif" font-size="28">(2) ( 우유갑, 주스병, 드럼통 )의 들이는 약 100L입니다.</text>
  <text id="slot.q3.text" x="6" y="458" fill="#111111" font-family="Noto Sans KR, sans-serif" font-size="28">(2) 드럼통</text>
</svg>
