<?xml version="1.0" encoding="UTF-8"?>
<svg xmlns="http://www.w3.org/2000/svg" width="840" height="360" viewBox="0 0 840 360">
  <metadata><problem_id>S3_초등_3_008859</problem_id></metadata>
  <rect x="0" y="0" width="840" height="360" fill="#FFFFFF" />
  <path id="slot.figure.left.pot.path" d="M 242.0 122.0 C 232.0 114.0 228.0 100.0 232.0 92.0 L 244.0 96.0 C 240.0 100.0 241.0 110.0 249.0 115.0 L 253.0 107.0 L 264.0 112.0 L 259.0 122.0 C 253.0 134.0 241.0 133.0 242.0 122.0 Z" stroke="#111111" stroke-width="2" fill="none" />
  <path id="slot.figure.left.pour.path" d="M 256.0 103.0 C 274.0 111.0 284.0 124.0 291.0 135.0" stroke="#111111" stroke-width="2" fill="none" />
  <rect id="slot.figure.left.container.rect" x="274" y="124" width="30" height="40" fill="#ffffff" stroke="#111111" stroke-width="1.5" />
  <rect id="slot.figure.left.water1.rect" x="275.5" y="145" width="27" height="18" fill="#ffffff" stroke="#111111" stroke-width="1.5" />
  <path id="slot.figure.left.water2.path" d="M 248.0 108.0 C 256.0 114.0 267.0 117.0 276.0 120.0 C 287.0 123.0 292.0 129.0 295.0 136.0" stroke="#111111" stroke-width="2" fill="none" />
  <path id="slot.figure.right.pot.path" d="M 445.0 144.0 L 454.0 144.0 L 454.0 127.0 C 454.0 120.0 459.0 116.0 466.0 116.0 L 496.0 116.0 C 503.0 116.0 508.0 120.0 508.0 127.0 L 508.0 143.0 L 517.0 143.0 L 517.0 149.0 L 506.0 149.0 C 506.0 163.0 497.0 173.0 482.0 173.0 C 467.0 173.0 457.0 163.0 457.0 149.0 L 445.0 149.0 Z" stroke="#111111" stroke-width="2" fill="none" />
  <rect id="slot.figure.right.container.rect" x="533" y="118" width="30" height="62" fill="#ffffff" stroke="#111111" stroke-width="1.5" />
  <rect id="slot.choice.rect" x="654" y="195" width="156" height="36" fill="#ffffff" stroke="#111111" stroke-width="1.5" />
  <text id="slot.qnum.text" x="8" y="22" fill="#111111" font-family="Noto Sans KR, sans-serif" font-size="28">6.</text>
  <text id="slot.q1.text" x="40" y="22" fill="#111111" font-family="Noto Sans KR, sans-serif" font-size="28">주전자에 물을 가득 채운 후 그릇에 부었더니 그림과 같았습니다.</text>
  <text id="slot.q2.text" x="40" y="58" fill="#111111" font-family="Noto Sans KR, sans-serif" font-size="28">주전자와 그릇 중에서 어느 것이 들이가 더 많을까요?</text>
  <text id="slot.figure.arrow.text" x="358" y="146" fill="#111111" font-family="Noto Sans KR, sans-serif" font-size="34">→</text>
</svg>
