<?xml version="1.0" encoding="UTF-8"?>
<svg xmlns="http://www.w3.org/2000/svg" width="940" height="516" viewBox="0 0 940 516">
  <metadata><problem_id>S3_초등_3_008818</problem_id></metadata>
  <rect x="0" y="0" width="940" height="516" fill="#FFFFFF" />
  <rect id="slot.pt.pet_water_1.rect" x="424" y="235" width="72" height="12" fill="#ffffff" stroke="#111111" stroke-width="1.5" />
  <rect id="slot.pt.pet_water_2.rect" x="424" y="247" width="72" height="12" fill="#ffffff" stroke="#111111" stroke-width="1.5" />
  <rect id="slot.pt.pet_water_3.rect" x="424" y="259" width="72" height="12" fill="#ffffff" stroke="#111111" stroke-width="1.5" />
  <rect id="slot.pt.pet_water_4.rect" x="424" y="271" width="72" height="12" fill="#ffffff" stroke="#111111" stroke-width="1.5" />
  <rect id="slot.pt.pet_water_5.rect" x="424" y="283" width="72" height="12" fill="#ffffff" stroke="#111111" stroke-width="1.5" />
  <rect id="slot.pt.pet_water_6.rect" x="424" y="295" width="72" height="12" fill="#ffffff" stroke="#111111" stroke-width="1.5" />
  <text id="slot.q1.text" x="16" y="28" fill="#111111" font-family="Noto Sans KR, sans-serif" font-size="28">52.</text>
  <text id="slot.q2.text" x="54" y="29" fill="#111111" font-family="Noto Sans KR, sans-serif" font-size="28">물병에 물을 가득 채운 후 페트병에 옮겨 담았습니다. 그림과 같이 물을</text>
  <text id="slot.q3.text" x="18" y="64" fill="#111111" font-family="Noto Sans KR, sans-serif" font-size="28">채웠을 때에 물병과 페트병 중 들이가 더 많은 것은 어느 것인지 선택해 보</text>
  <text id="slot.q4.text" x="16" y="101" fill="#111111" font-family="Noto Sans KR, sans-serif" font-size="28">세요.</text>
  <path id="slot.pt.water_bottle.path" d="M 382.0 127.0 C 369.0 126.0 359.0 136.0 355.0 149.0 C 349.0 167.0 356.0 183.0 371.0 190.0 C 383.0 196.0 395.0 194.0 404.0 189.0 L 434.0 202.0 C 442.0 206.0 448.0 206.0 454.0 200.0 L 459.0 192.0 L 456.0 185.0 L 437.0 182.0 C 438.0 169.0 431.0 158.0 422.0 151.0 C 411.0 142.0 397.0 128.0 382.0 127.0 Z" stroke="#111111" stroke-width="2" fill="none" />
  <path id="slot.pt.pet_bottle.path" d="M 444.0 199.0 C 438.0 204.0 433.0 212.0 432.0 221.0 L 432.0 228.0 C 424.0 232.0 420.0 240.0 420.0 249.0 L 420.0 305.0 C 420.0 321.0 431.0 331.0 445.0 334.0 L 473.0 334.0 C 487.0 331.0 498.0 321.0 498.0 305.0 L 498.0 249.0 C 498.0 239.0 494.0 232.0 486.0 228.0 L 486.0 221.0 C 485.0 212.0 479.0 204.0 473.0 199.0 Z" stroke="#111111" stroke-width="2" fill="none" />
  <text id="slot.lb.water_bottle.text" x="399" y="186" fill="#111111" font-family="Noto Sans KR, sans-serif" font-size="28">물병</text>
  <text id="slot.lb.pet_bottle.text" x="509" y="338" fill="#111111" font-family="Noto Sans KR, sans-serif" font-size="28">페트병</text>
  <text id="slot.lb.choice.text" x="731" y="351" fill="#111111" font-family="Noto Sans KR, sans-serif" font-size="28">( 물병 , 페트병 )</text>
</svg>
