<?xml version="1.0" encoding="UTF-8"?>
<svg xmlns="http://www.w3.org/2000/svg" width="940" height="560" viewBox="0 0 940 560">
  <metadata><problem_id>S3_초등_3_008653</problem_id></metadata>
  <rect x="0" y="0" width="940" height="560" fill="#FFFFFF" />
  <text id="slot.q1.text" x="10" y="28" fill="#111111" font-family="Noto Sans KR, sans-serif" font-size="28">
    <tspan x="10" dy="0">□ 29.  가와 나 는 규칙에 따라 원을 그린 것입니다. 알맞은 것을</tspan>
    <tspan x="10" dy="1.2em">선택해 보세요.</tspan>
  </text>
  <text id="slot.q2.text" x="10" y="61" fill="#111111" font-family="Noto Sans KR, sans-serif" font-size="28">무엇을 그린 규칙의 같은 점과 점을 설명해 보세요.</text>
  <text id="slot.q3.text" x="10" y="94" fill="#111111" font-family="Noto Sans KR, sans-serif" font-size="28"></text>
  <rect id="slot.left.frame.rect" x="226" y="114" width="180" height="180" fill="#ffffff" stroke="#111111" stroke-width="1.5" />
  <circle id="slot.left.c1.circle" cx="286" cy="202" r="92" stroke="#111111" stroke-width="2" fill="none" />
  <circle id="slot.left.c2.circle" cx="260" cy="184" r="46" stroke="#111111" stroke-width="2" fill="none" />
  <circle id="slot.left.c3.circle" cx="246" cy="197" r="26" stroke="#111111" stroke-width="2" fill="none" />
  <line id="slot.left.grid.v1.line" x1="226" y1="114" x2="226" y2="294" stroke="#111111" stroke-width="2" />
  <line id="slot.left.grid.v2.line" x1="246" y1="114" x2="246" y2="294" stroke="#111111" stroke-width="2" />
  <line id="slot.left.grid.v3.line" x1="266" y1="114" x2="266" y2="294" stroke="#111111" stroke-width="2" />
  <line id="slot.left.grid.v4.line" x1="286" y1="114" x2="286" y2="294" stroke="#111111" stroke-width="2" />
  <line id="slot.left.grid.v5.line" x1="306" y1="114" x2="306" y2="294" stroke="#111111" stroke-width="2" />
  <line id="slot.left.grid.v6.line" x1="326" y1="114" x2="326" y2="294" stroke="#111111" stroke-width="2" />
  <line id="slot.left.grid.v7.line" x1="346" y1="114" x2="346" y2="294" stroke="#111111" stroke-width="2" />
  <line id="slot.left.grid.v8.line" x1="366" y1="114" x2="366" y2="294" stroke="#111111" stroke-width="2" />
  <line id="slot.left.grid.v9.line" x1="386" y1="114" x2="386" y2="294" stroke="#111111" stroke-width="2" />
  <line id="slot.left.grid.h1.line" x1="226" y1="114" x2="406" y2="114" stroke="#111111" stroke-width="2" />
  <line id="slot.left.grid.h2.line" x1="226" y1="134" x2="406" y2="134" stroke="#111111" stroke-width="2" />
  <line id="slot.left.grid.h3.line" x1="226" y1="154" x2="406" y2="154" stroke="#111111" stroke-width="2" />
  <line id="slot.left.grid.h4.line" x1="226" y1="174" x2="406" y2="174" stroke="#111111" stroke-width="2" />
  <line id="slot.left.grid.h5.line" x1="226" y1="194" x2="406" y2="194" stroke="#111111" stroke-width="2" />
  <line id="slot.left.grid.h6.line" x1="226" y1="214" x2="406" y2="214" stroke="#111111" stroke-width="2" />
  <line id="slot.left.grid.h7.line" x1="226" y1="234" x2="406" y2="234" stroke="#111111" stroke-width="2" />
  <line id="slot.left.grid.h8.line" x1="226" y1="254" x2="406" y2="254" stroke="#111111" stroke-width="2" />
  <line id="slot.left.grid.h9.line" x1="226" y1="274" x2="406" y2="274" stroke="#111111" stroke-width="2" />
  <line id="slot.left.grid.h10.line" x1="226" y1="294" x2="406" y2="294" stroke="#111111" stroke-width="2" />
  <text id="slot.left.label.text" x="194" y="132" fill="#111111" font-family="Noto Sans KR, sans-serif" font-size="28">가</text>
  <rect id="slot.right.frame.rect" x="508" y="114" width="180" height="180" fill="#ffffff" stroke="#111111" stroke-width="1.5" />
  <circle id="slot.right.c1.circle" cx="598" cy="202" r="92" stroke="#111111" stroke-width="2" fill="none" />
  <circle id="slot.right.c2.circle" cx="598" cy="202" r="54" stroke="#111111" stroke-width="2" fill="none" />
  <circle id="slot.right.c3.circle" cx="598" cy="202" r="26" stroke="#111111" stroke-width="2" fill="none" />
  <line id="slot.right.grid.v1.line" x1="508" y1="114" x2="508" y2="294" stroke="#111111" stroke-width="2" />
  <line id="slot.right.grid.v2.line" x1="528" y1="114" x2="528" y2="294" stroke="#111111" stroke-width="2" />
  <line id="slot.right.grid.v3.line" x1="548" y1="114" x2="548" y2="294" stroke="#111111" stroke-width="2" />
  <line id="slot.right.grid.v4.line" x1="568" y1="114" x2="568" y2="294" stroke="#111111" stroke-width="2" />
  <line id="slot.right.grid.v5.line" x1="588" y1="114" x2="588" y2="294" stroke="#111111" stroke-width="2" />
  <line id="slot.right.grid.v6.line" x1="608" y1="114" x2="608" y2="294" stroke="#111111" stroke-width="2" />
  <line id="slot.right.grid.v7.line" x1="628" y1="114" x2="628" y2="294" stroke="#111111" stroke-width="2" />
  <line id="slot.right.grid.v8.line" x1="648" y1="114" x2="648" y2="294" stroke="#111111" stroke-width="2" />
  <line id="slot.right.grid.v9.line" x1="668" y1="114" x2="668" y2="294" stroke="#111111" stroke-width="2" />
  <line id="slot.right.grid.h1.line" x1="508" y1="114" x2="688" y2="114" stroke="#111111" stroke-width="2" />
  <line id="slot.right.grid.h2.line" x1="508" y1="134" x2="688" y2="134" stroke="#111111" stroke-width="2" />
  <line id="slot.right.grid.h3.line" x1="508" y1="154" x2="688" y2="154" stroke="#111111" stroke-width="2" />
  <line id="slot.right.grid.h4.line" x1="508" y1="174" x2="688" y2="174" stroke="#111111" stroke-width="2" />
  <line id="slot.right.grid.h5.line" x1="508" y1="194" x2="688" y2="194" stroke="#111111" stroke-width="2" />
  <line id="slot.right.grid.h6.line" x1="508" y1="214" x2="688" y2="214" stroke="#111111" stroke-width="2" />
  <line id="slot.right.grid.h7.line" x1="508" y1="234" x2="688" y2="234" stroke="#111111" stroke-width="2" />
  <line id="slot.right.grid.h8.line" x1="508" y1="254" x2="688" y2="254" stroke="#111111" stroke-width="2" />
  <line id="slot.right.grid.h9.line" x1="508" y1="274" x2="688" y2="274" stroke="#111111" stroke-width="2" />
  <line id="slot.right.grid.h10.line" x1="508" y1="294" x2="688" y2="294" stroke="#111111" stroke-width="2" />
  <text id="slot.right.label.text" x="480" y="132" fill="#111111" font-family="Noto Sans KR, sans-serif" font-size="28">나</text>
  <text id="slot.a1.text" x="10" y="347" fill="#111111" font-family="Noto Sans KR, sans-serif" font-size="28">
    <tspan x="10" dy="0">(1) 같은 점: 원의 ( 중심, 반지름 )을 모두 다르게 하여</tspan>
    <tspan x="10" dy="1.2em">그렸습니다.</tspan>
  </text>
  <text id="slot.a2.text" x="10" y="392" fill="#111111" font-family="Noto Sans KR, sans-serif" font-size="28">(1) 같은 점: 원의 반지름을 모두 다르게 하여 그렸습니다.</text>
  <text id="slot.a3.text" x="10" y="438" fill="#111111" font-family="Noto Sans KR, sans-serif" font-size="28">(1) 반지름</text>
</svg>
