<?xml version="1.0" encoding="UTF-8"?>
<svg xmlns="http://www.w3.org/2000/svg" width="720" height="560" viewBox="0 0 720 560">
  <metadata><problem_id>S3_초등_3_008631</problem_id></metadata>
  <rect x="0" y="0" width="720" height="560" fill="#FFFFFF" />
  <text id="slot.q1.text" x="20" y="28" max_width="592" fill="#111111" font-family="Noto Sans KR, sans-serif" font-size="28">□</text>
  <text id="slot.q2.text" x="50" y="28" max_width="592" fill="#111111" font-family="Noto Sans KR, sans-serif" font-size="28">2. 수 모형을 보고 □ 안에 알맞은 수를 고르세요.</text>
  <rect id="slot.big_box.rect" x="360" y="52" width="246" height="96" fill="none" stroke="#4A78B8" stroke-width="1.5" />
  <rect id="slot.big_rod1.rect" x="380" y="66" width="10" height="72" fill="none" stroke="#6BBCE8" stroke-width="1.5" />
  <rect id="slot.big_rod2.rect" x="404" y="66" width="10" height="72" fill="none" stroke="#6BBCE8" stroke-width="1.5" />
  <rect id="slot.big_rod3.rect" x="428" y="66" width="10" height="72" fill="none" stroke="#6BBCE8" stroke-width="1.5" />
  <rect id="slot.big_rod4.rect" x="452" y="66" width="10" height="72" fill="none" stroke="#6BBCE8" stroke-width="1.5" />
  <rect id="slot.big_rod5.rect" x="476" y="66" width="10" height="72" fill="none" stroke="#6BBCE8" stroke-width="1.5" />
  <rect id="slot.big_rod6.rect" x="500" y="66" width="10" height="72" fill="none" stroke="#6BBCE8" stroke-width="1.5" />
  <rect id="slot.big_cube1.rect" x="526" y="70" width="10" height="10" fill="none" stroke="#6BBCE8" stroke-width="1.5" />
  <rect id="slot.big_cube2.rect" x="546" y="70" width="10" height="10" fill="none" stroke="#6BBCE8" stroke-width="1.5" />
  <rect id="slot.big_cube3.rect" x="526" y="90" width="10" height="10" fill="none" stroke="#6BBCE8" stroke-width="1.5" />
  <rect id="slot.big_cube4.rect" x="546" y="90" width="10" height="10" fill="none" stroke="#6BBCE8" stroke-width="1.5" />
  <rect id="slot.big_cube5.rect" x="526" y="110" width="10" height="10" fill="none" stroke="#6BBCE8" stroke-width="1.5" />
  <rect id="slot.big_cube6.rect" x="546" y="110" width="10" height="10" fill="none" stroke="#6BBCE8" stroke-width="1.5" />
  <rect id="slot.big_cube7.rect" x="526" y="130" width="10" height="10" fill="none" stroke="#6BBCE8" stroke-width="1.5" />
  <rect id="slot.big_cube8.rect" x="546" y="130" width="10" height="10" fill="none" stroke="#6BBCE8" stroke-width="1.5" />
  <rect id="slot.small_box1.rect" x="300" y="206" width="84" height="128" fill="none" stroke="#4A78B8" stroke-width="1.5" />
  <rect id="slot.small_box2.rect" x="404" y="206" width="84" height="128" fill="none" stroke="#4A78B8" stroke-width="1.5" />
  <rect id="slot.small_box3.rect" x="508" y="206" width="84" height="128" fill="none" stroke="#4A78B8" stroke-width="1.5" />
  <rect id="slot.s1_rod1.rect" x="312" y="220" width="10" height="82" fill="none" stroke="#6BBCE8" stroke-width="1.5" />
  <rect id="slot.s1_rod2.rect" x="332" y="220" width="10" height="82" fill="none" stroke="#6BBCE8" stroke-width="1.5" />
  <rect id="slot.s1_cube1.rect" x="348" y="250" width="10" height="10" fill="none" stroke="#6BBCE8" stroke-width="1.5" />
  <rect id="slot.s1_cube2.rect" x="348" y="270" width="10" height="10" fill="none" stroke="#6BBCE8" stroke-width="1.5" />
  <rect id="slot.s1_cube3.rect" x="348" y="290" width="10" height="10" fill="none" stroke="#6BBCE8" stroke-width="1.5" />
  <rect id="slot.s2_rod1.rect" x="416" y="220" width="10" height="82" fill="none" stroke="#6BBCE8" stroke-width="1.5" />
  <rect id="slot.s2_rod2.rect" x="436" y="220" width="10" height="82" fill="none" stroke="#6BBCE8" stroke-width="1.5" />
  <rect id="slot.s2_cube1.rect" x="452" y="250" width="10" height="10" fill="none" stroke="#6BBCE8" stroke-width="1.5" />
  <rect id="slot.s2_cube2.rect" x="452" y="270" width="10" height="10" fill="none" stroke="#6BBCE8" stroke-width="1.5" />
  <rect id="slot.s2_cube3.rect" x="452" y="290" width="10" height="10" fill="none" stroke="#6BBCE8" stroke-width="1.5" />
  <rect id="slot.s3_rod1.rect" x="520" y="220" width="10" height="82" fill="none" stroke="#6BBCE8" stroke-width="1.5" />
  <rect id="slot.s3_rod2.rect" x="540" y="220" width="10" height="82" fill="none" stroke="#6BBCE8" stroke-width="1.5" />
  <rect id="slot.s3_cube1.rect" x="556" y="250" width="10" height="10" fill="none" stroke="#6BBCE8" stroke-width="1.5" />
  <rect id="slot.s3_cube2.rect" x="556" y="270" width="10" height="10" fill="none" stroke="#6BBCE8" stroke-width="1.5" />
  <rect id="slot.s3_cube3.rect" x="556" y="290" width="10" height="10" fill="none" stroke="#6BBCE8" stroke-width="1.5" />
  <rect id="slot.blank.rect" x="530" y="338" width="26" height="26" fill="none" stroke="#222222" stroke-width="1.5" />
  <line id="slot.arrow.line" x1="483" y1="150" x2="483" y2="185" stroke="#888888" stroke-width="2" />
  <text id="slot.equation.text" x="380" y="362" max_width="592" fill="#111111" font-family="Noto Sans KR, sans-serif" font-size="28">69 ÷ 3 =</text>
  <circle id="slot.opt1_num.circle" cx="44" cy="423" r="7" stroke="#111111" stroke-width="2" fill="none" />
  <circle id="slot.opt2_num.circle" cx="320" cy="423" r="7" stroke="#111111" stroke-width="2" fill="none" />
  <circle id="slot.opt3_num.circle" cx="584" cy="423" r="7" stroke="#111111" stroke-width="2" fill="none" />
  <circle id="slot.opt4_num.circle" cx="44" cy="462" r="7" stroke="#111111" stroke-width="2" fill="none" />
  <circle id="slot.opt5_num.circle" cx="320" cy="462" r="7" stroke="#111111" stroke-width="2" fill="none" />
  <text id="slot.opt1_text.text" x="58" y="430" max_width="592" fill="#111111" font-family="Noto Sans KR, sans-serif" font-size="28">21</text>
  <text id="slot.opt2_text.text" x="334" y="430" max_width="592" fill="#111111" font-family="Noto Sans KR, sans-serif" font-size="28">22</text>
  <text id="slot.opt3_text.text" x="598" y="430" max_width="592" fill="#111111" font-family="Noto Sans KR, sans-serif" font-size="28">23</text>
  <text id="slot.opt4_text.text" x="58" y="469" max_width="592" fill="#111111" font-family="Noto Sans KR, sans-serif" font-size="28">24</text>
  <text id="slot.opt5_text.text" x="334" y="469" max_width="592" fill="#111111" font-family="Noto Sans KR, sans-serif" font-size="28">25</text>
</svg>
