<?xml version="1.0" encoding="UTF-8"?>
<svg xmlns="http://www.w3.org/2000/svg" width="940" height="620" viewBox="0 0 940 620">
  <metadata><problem_id>S3_초등_3_008636</problem_id></metadata>
  <rect x="0" y="0" width="940" height="620" fill="#FFFFFF" />
  <text id="slot.q1.text" x="10" y="26" max_width="812" fill="#111111" font-family="Noto Sans KR, sans-serif" font-size="28">□ 8. 누름 못과 띠 종이로 원을 그렸습니다. 누름 못이 꽂힌 점에서 원 위에 찍힌 2개의 점까지의</text>
  <text id="slot.q2.text" x="40" y="62" max_width="812" fill="#111111" font-family="Noto Sans KR, sans-serif" font-size="28">길이를 각각 재어 알맞은 말을 선택하세요.</text>
  <circle id="slot.left.circle.circle" cx="327" cy="177" r="90" stroke="#111111" stroke-width="2" fill="none" />
  <rect id="slot.left.paper.rect" x="262" y="176" width="135" height="27" fill="none" stroke="#111111" stroke-width="1.5" />
  <circle id="slot.left.paper.dot1.circle" cx="300" cy="188" r="2.5" stroke="#111111" stroke-width="2" fill="#7a7a7a" />
  <circle id="slot.left.paper.dot2.circle" cx="325" cy="188" r="2.5" stroke="#111111" stroke-width="2" fill="#7a7a7a" />
  <circle id="slot.left.paper.dot3.circle" cx="349" cy="188" r="2.5" stroke="#111111" stroke-width="2" fill="#7a7a7a" />
  <circle id="slot.left.paper.dot4.circle" cx="371" cy="188" r="2.5" stroke="#111111" stroke-width="2" fill="#7a7a7a" />
  <circle id="slot.left.pin.circle" cx="292" cy="182" r="3" stroke="#111111" stroke-width="2" fill="#8d8d8d" />
  <polygon id="slot.left.pencil.body.polygon" points="374,181 404,131 411,135 381,185" stroke="#111111" stroke-width="2" fill="none" />
  <polygon id="slot.left.pencil.tip.polygon" points="404,131 410,122 413,126 411,135" stroke="#111111" stroke-width="2" fill="none" />
  <circle id="slot.right.circle.circle" cx="645" cy="178" r="90" stroke="#111111" stroke-width="2" fill="none" />
  <circle id="slot.right.center.circle" cx="628" cy="186" r="4" stroke="#111111" stroke-width="2" fill="#c9c9c9" />
  <circle id="slot.right.pt1.circle" cx="707" cy="96" r="3" stroke="#111111" stroke-width="2" fill="#ff00aa" />
  <circle id="slot.right.pt2.circle" cx="559" cy="214" r="3" stroke="#111111" stroke-width="2" fill="#ff00aa" />
  <line id="slot.left.pencil.line1.line" x1="376" y1="183" x2="406" y2="133" stroke="#111111" stroke-width="2" />
  <line id="slot.left.pencil.line2.line" x1="379" y1="185" x2="409" y2="135" stroke="#111111" stroke-width="2" />
  <line id="slot.right.radius1.line" x1="628" y1="186" x2="707" y2="96" stroke="#111111" stroke-width="2" />
  <line id="slot.right.radius2.line" x1="628" y1="186" x2="559" y2="214" stroke="#111111" stroke-width="2" />
  <text id="slot.arrow.text" x="457" y="202" max_width="812" fill="#111111" font-family="Noto Sans KR, sans-serif" font-size="44">→</text>
  <text id="slot.choice.text" x="70" y="337" max_width="812" fill="#111111" font-family="Noto Sans KR, sans-serif" font-size="28">
    <tspan x="70" dy="0">누름 못이 꽂힌 점에서 원 위의 한 점까지의 길이는 모두 ( 같습니다 ,</tspan>
    <tspan x="70" dy="1.2em">다릅니다 ).</tspan>
  </text>
  <text id="slot.ans.text" x="70" y="410" max_width="812" fill="#111111" font-family="Noto Sans KR, sans-serif" font-size="22">(정답)같습니다</text>
  <text id="slot.exp.text" x="70" y="450" max_width="812" fill="#111111" font-family="Noto Sans KR, sans-serif" font-size="20">(해설)누름 못이 꽂힌 점에서 원 위의 한 점까지의 길이는 누름 못과 연필심 사이의 거리로 모두 같습니다.</text>
</svg>
