<?xml version="1.0" encoding="UTF-8"?>
<svg xmlns="http://www.w3.org/2000/svg" width="860.0" height="247.0" viewBox="0 0 860.0 247.0">
  <rect x="0" y="0" width="860.0" height="247.0" fill="#F6F6F6" />
  <text id="inst" x="89" y="67" font-family="Malgun Gothic" font-size="47px" fill="#222222" font-weight="normal" text-anchor="start">□ 안에 알맞은 수를 써넣으세요.</text>
  <line id="line" x1="208" y1="168" x2="818" y2="168" stroke="#3A3539" stroke-width="3" />
  <line id="tick_l" x1="208" y1="153" x2="208" y2="183" stroke="#3A3539" stroke-width="3" />
  <line id="tick_m" x1="396" y1="153" x2="396" y2="183" stroke="#3A3539" stroke-width="3" />
  <line id="tick_r" x1="818" y1="153" x2="818" y2="183" stroke="#3A3539" stroke-width="3" />
  <text id="seg_1_text" x="302" y="226" font-family="Cambria" font-size="40px" fill="#222222" font-weight="normal" text-anchor="middle">261</text>
  <text id="seg_2_text" x="607" y="226" font-family="Cambria" font-size="40px" fill="#222222" font-weight="normal" text-anchor="middle">588</text>
  <rect id="total_blank" x="455" y="84" width="96" height="46"  rx="6" stroke="#69BEEA" stroke-width="3" fill="none" />
  <line id="seg_total_top_seg_0" x1="208" y1="168" x2="216.47222222222226" y2="166.7399691358025" stroke="#69BEEA" stroke-width="2" />
  <line id="seg_total_top_seg_3" x1="233.41666666666669" y1="164.32638888888889" x2="241.88888888888889" y2="163.17283950617283" stroke="#69BEEA" stroke-width="2" />
  <line id="seg_total_top_seg_6" x1="258.8333333333333" y1="160.9722222222222" x2="267.30555555555554" y2="159.92515432098767" stroke="#69BEEA" stroke-width="2" />
  <line id="seg_total_top_seg_9" x1="284.25" y1="157.9375" x2="292.7222222222223" y2="156.9969135802469" stroke="#69BEEA" stroke-width="2" />
  <line id="seg_total_top_seg_12" x1="309.6666666666667" y1="155.22222222222223" x2="318.1388888888889" y2="154.3881172839506" stroke="#69BEEA" stroke-width="2" />
  <line id="seg_total_top_seg_15" x1="335.0833333333333" y1="152.82638888888889" x2="343.55555555555554" y2="152.0987654320988" stroke="#69BEEA" stroke-width="2" />
  <line id="seg_total_top_seg_18" x1="360.5" y1="150.75" x2="368.9722222222223" y2="150.1288580246914" stroke="#69BEEA" stroke-width="2" />
  <line id="seg_total_top_seg_21" x1="385.91666666666663" y1="148.99305555555554" x2="394.3888888888889" y2="148.4783950617284" stroke="#69BEEA" stroke-width="2" />
  <line id="seg_total_top_seg_24" x1="411.33333333333337" y1="147.55555555555557" x2="419.80555555555554" y2="147.14737654320987" stroke="#69BEEA" stroke-width="2" />
  <line id="seg_total_top_seg_27" x1="436.75" y1="146.4375" x2="445.2222222222223" y2="146.13580246913583" stroke="#69BEEA" stroke-width="2" />
  <line id="seg_total_top_seg_30" x1="462.16666666666663" y1="145.63888888888886" x2="470.6388888888889" y2="145.44367283950618" stroke="#69BEEA" stroke-width="2" />
  <line id="seg_total_top_seg_33" x1="487.58333333333337" y1="145.15972222222223" x2="496.05555555555554" y2="145.070987654321" stroke="#69BEEA" stroke-width="2" />
  <line id="seg_total_top_seg_36" x1="513" y1="145" x2="521.4722222222223" y2="145.01774691358025" stroke="#69BEEA" stroke-width="2" />
  <line id="seg_total_top_seg_39" x1="538.4166666666666" y1="145.15972222222223" x2="546.8888888888889" y2="145.28395061728395" stroke="#69BEEA" stroke-width="2" />
  <line id="seg_total_top_seg_42" x1="563.8333333333334" y1="145.63888888888889" x2="572.3055555555555" y2="145.8695987654321" stroke="#69BEEA" stroke-width="2" />
  <line id="seg_total_top_seg_45" x1="589.25" y1="146.4375" x2="597.7222222222222" y2="146.7746913580247" stroke="#69BEEA" stroke-width="2" />
  <line id="seg_total_top_seg_48" x1="614.6666666666667" y1="147.55555555555554" x2="623.1388888888889" y2="147.99922839506172" stroke="#69BEEA" stroke-width="2" />
  <line id="seg_total_top_seg_51" x1="640.0833333333334" y1="148.99305555555554" x2="648.5555555555555" y2="149.54320987654322" stroke="#69BEEA" stroke-width="2" />
  <line id="seg_total_top_seg_54" x1="665.5" y1="150.75" x2="673.9722222222222" y2="151.40663580246914" stroke="#69BEEA" stroke-width="2" />
  <line id="seg_total_top_seg_57" x1="690.9166666666666" y1="152.82638888888889" x2="699.3888888888889" y2="153.58950617283952" stroke="#69BEEA" stroke-width="2" />
  <line id="seg_total_top_seg_60" x1="716.3333333333334" y1="155.22222222222223" x2="724.8055555555557" y2="156.09182098765433" stroke="#69BEEA" stroke-width="2" />
  <line id="seg_total_top_seg_63" x1="741.75" y1="157.9375" x2="750.2222222222222" y2="158.91358024691357" stroke="#69BEEA" stroke-width="2" />
  <line id="seg_total_top_seg_66" x1="767.1666666666666" y1="160.97222222222223" x2="775.6388888888888" y2="162.05478395061726" stroke="#69BEEA" stroke-width="2" />
  <line id="seg_total_top_seg_69" x1="792.5833333333334" y1="164.3263888888889" x2="801.0555555555555" y2="165.51543209876542" stroke="#69BEEA" stroke-width="2" />
  <line id="seg_left_bottom_seg_0" x1="208" y1="168" x2="213.52941176470586" y2="169.94117647058823" stroke="#69BEEA" stroke-width="2" />
  <line id="seg_left_bottom_seg_3" x1="224.58823529411762" y1="173.47058823529412" x2="230.1176470588235" y2="175.05882352941177" stroke="#69BEEA" stroke-width="2" />
  <line id="seg_left_bottom_seg_6" x1="241.1764705882353" y1="177.88235294117646" x2="246.70588235294122" y2="179.11764705882356" stroke="#69BEEA" stroke-width="2" />
  <line id="seg_left_bottom_seg_9" x1="257.764705882353" y1="181.23529411764707" x2="263.29411764705884" y2="182.1176470588235" stroke="#69BEEA" stroke-width="2" />
  <line id="seg_left_bottom_seg_12" x1="274.35294117647055" y1="183.52941176470586" x2="279.88235294117646" y2="184.05882352941177" stroke="#69BEEA" stroke-width="2" />
  <line id="seg_left_bottom_seg_15" x1="290.94117647058823" y1="184.76470588235293" x2="296.47058823529414" y2="184.94117647058823" stroke="#69BEEA" stroke-width="2" />
  <line id="seg_left_bottom_seg_18" x1="307.52941176470586" y1="184.94117647058823" x2="313.05882352941177" y2="184.76470588235293" stroke="#69BEEA" stroke-width="2" />
  <line id="seg_left_bottom_seg_21" x1="324.11764705882354" y1="184.05882352941177" x2="329.6470588235294" y2="183.5294117647059" stroke="#69BEEA" stroke-width="2" />
  <line id="seg_left_bottom_seg_24" x1="340.7058823529412" y1="182.11764705882354" x2="346.2352941176471" y2="181.23529411764707" stroke="#69BEEA" stroke-width="2" />
  <line id="seg_left_bottom_seg_27" x1="357.29411764705884" y1="179.11764705882354" x2="362.8235294117647" y2="177.88235294117646" stroke="#69BEEA" stroke-width="2" />
  <line id="seg_left_bottom_seg_30" x1="373.88235294117646" y1="175.05882352941177" x2="379.4117647058823" y2="173.4705882352941" stroke="#69BEEA" stroke-width="2" />
  <line id="seg_left_bottom_seg_33" x1="390.47058823529414" y1="169.94117647058823" x2="396" y2="168" stroke="#69BEEA" stroke-width="2" />
  <line id="seg_right_bottom_seg_0" x1="396" y1="168" x2="404.1153846153845" y2="169.35798816568047" stroke="#69BEEA" stroke-width="2" />
  <line id="seg_right_bottom_seg_3" x1="420.3461538461538" y1="171.91420118343197" x2="428.46153846153857" y2="173.112426035503" stroke="#69BEEA" stroke-width="2" />
  <line id="seg_right_bottom_seg_6" x1="444.6923076923076" y1="175.3491124260355" x2="452.8076923076924" y2="176.38757396449705" stroke="#69BEEA" stroke-width="2" />
  <line id="seg_right_bottom_seg_9" x1="469.03846153846155" y1="178.30473372781063" x2="477.15384615384625" y2="179.18343195266274" stroke="#69BEEA" stroke-width="2" />
  <line id="seg_right_bottom_seg_12" x1="493.3846153846153" y1="180.7810650887574" x2="501.5" y2="181.5" stroke="#69BEEA" stroke-width="2" />
  <line id="seg_right_bottom_seg_15" x1="517.7307692307692" y1="182.77810650887577" x2="525.8461538461538" y2="183.33727810650885" stroke="#69BEEA" stroke-width="2" />
  <line id="seg_right_bottom_seg_18" x1="542.076923076923" y1="184.2958579881657" x2="550.1923076923076" y2="184.69526627218931" stroke="#69BEEA" stroke-width="2" />
  <line id="seg_right_bottom_seg_21" x1="566.4230769230769" y1="185.33431952662724" x2="574.5384615384614" y2="185.5739644970414" stroke="#69BEEA" stroke-width="2" />
  <line id="seg_right_bottom_seg_24" x1="590.7692307692308" y1="185.89349112426038" x2="598.8846153846154" y2="185.9733727810651" stroke="#69BEEA" stroke-width="2" />
  <line id="seg_right_bottom_seg_27" x1="615.1153846153846" y1="185.97337278106508" x2="623.2307692307693" y2="185.89349112426035" stroke="#69BEEA" stroke-width="2" />
  <line id="seg_right_bottom_seg_30" x1="639.4615384615383" y1="185.57396449704143" x2="647.5769230769231" y2="185.3343195266272" stroke="#69BEEA" stroke-width="2" />
  <line id="seg_right_bottom_seg_33" x1="663.8076923076923" y1="184.69526627218934" x2="671.9230769230769" y2="184.29585798816566" stroke="#69BEEA" stroke-width="2" />
  <line id="seg_right_bottom_seg_36" x1="688.1538461538462" y1="183.33727810650885" x2="696.2692307692307" y2="182.77810650887574" stroke="#69BEEA" stroke-width="2" />
  <line id="seg_right_bottom_seg_39" x1="712.5" y1="181.5" x2="720.6153846153845" y2="180.78106508875737" stroke="#69BEEA" stroke-width="2" />
  <line id="seg_right_bottom_seg_42" x1="736.8461538461538" y1="179.18343195266272" x2="744.9615384615385" y2="178.30473372781066" stroke="#69BEEA" stroke-width="2" />
  <line id="seg_right_bottom_seg_45" x1="761.1923076923077" y1="176.38757396449705" x2="769.3076923076924" y2="175.3491124260355" stroke="#69BEEA" stroke-width="2" />
  <line id="seg_right_bottom_seg_48" x1="785.5384615384617" y1="173.11242603550295" x2="793.6538461538461" y2="171.91420118343194" stroke="#69BEEA" stroke-width="2" />
  <line id="seg_right_bottom_seg_51" x1="809.8846153846155" y1="169.35798816568047" x2="818" y2="168" stroke="#69BEEA" stroke-width="2" />
</svg>