<?xml version="1.0" encoding="UTF-8"?>
<svg xmlns="http://www.w3.org/2000/svg" width="1464" height="382" viewBox="0 0 1464 382">
  <rect x="0" y="0" width="1464" height="382" fill="#F6F6F6" />
  <text id="instruction" x="20" y="76" font-family="Malgun Gothic" font-size="64" fill="#222222" font-weight="normal" text-anchor="start">ㄱ에서 ㄹ까지의 거리를 구해 보세요.</text>
  <line id="base_line" x1="312" y1="249" x2="1400" y2="249" stroke="#2E2A2D" stroke-width="5" />
  <line id="tick_가" x1="312" y1="218" x2="312" y2="279" stroke="#2E2A2D" stroke-width="4" />
  <circle id="label_circle_가" cx="312" cy="316" r="22" stroke="#3A3336" stroke-width="3" fill="none" />
  <text id="label_가" x="312" y="327" font-family="Malgun Gothic" font-size="34" fill="#222222" font-weight="normal" text-anchor="middle">가</text>
  <line id="tick_ㄴ" x1="548" y1="218" x2="548" y2="279" stroke="#2E2A2D" stroke-width="4" />
  <circle id="label_circle_ㄴ" cx="548" cy="316" r="22" stroke="#3A3336" stroke-width="3" fill="none" />
  <text id="label_ㄴ" x="548" y="327" font-family="Malgun Gothic" font-size="34" fill="#222222" font-weight="normal" text-anchor="middle">ㄴ</text>
  <line id="tick_ㄷ" x1="978" y1="218" x2="978" y2="279" stroke="#2E2A2D" stroke-width="4" />
  <circle id="label_circle_ㄷ" cx="978" cy="316" r="22" stroke="#3A3336" stroke-width="3" fill="none" />
  <text id="label_ㄷ" x="978" y="327" font-family="Malgun Gothic" font-size="34" fill="#222222" font-weight="normal" text-anchor="middle">ㄷ</text>
  <line id="tick_큰" x1="1400" y1="218" x2="1400" y2="279" stroke="#2E2A2D" stroke-width="4" />
  <circle id="label_circle_큰" cx="1400" cy="316" r="22" stroke="#3A3336" stroke-width="3" fill="none" />
  <text id="label_큰" x="1400" y="327" font-family="Malgun Gothic" font-size="34" fill="#222222" font-weight="normal" text-anchor="middle">큰</text>
  <line id="dist_ga_n_seg_0" x1="312.0" y1="244.0" x2="320.42857142857144" y2="239.04081632653063" stroke="#0FA9F4" stroke-width="3" />
  <line id="dist_ga_n_seg_2" x1="328.85714285714283" y1="234.44897959183675" x2="337.2857142857143" y2="230.22448979591834" stroke="#0FA9F4" stroke-width="3" />
  <line id="dist_ga_n_seg_4" x1="345.7142857142858" y1="226.36734693877554" x2="354.1428571428571" y2="222.87755102040813" stroke="#0FA9F4" stroke-width="3" />
  <line id="dist_ga_n_seg_6" x1="362.57142857142856" y1="219.75510204081633" x2="371.0" y2="217.0" stroke="#0FA9F4" stroke-width="3" />
  <line id="dist_ga_n_seg_8" x1="379.42857142857144" y1="214.6122448979592" x2="387.85714285714295" y2="212.5918367346939" stroke="#0FA9F4" stroke-width="3" />
  <line id="dist_ga_n_seg_10" x1="396.2857142857142" y1="210.93877551020407" x2="404.7142857142857" y2="209.65306122448982" stroke="#0FA9F4" stroke-width="3" />
  <line id="dist_ga_n_seg_12" x1="413.1428571428571" y1="208.73469387755097" x2="421.57142857142856" y2="208.18367346938774" stroke="#0FA9F4" stroke-width="3" />
  <line id="dist_ga_n_seg_14" x1="430.0" y1="208.0" x2="438.42857142857144" y2="208.18367346938774" stroke="#0FA9F4" stroke-width="3" />
  <line id="dist_ga_n_seg_16" x1="446.8571428571429" y1="208.73469387755102" x2="455.2857142857143" y2="209.6530612244898" stroke="#0FA9F4" stroke-width="3" />
  <line id="dist_ga_n_seg_18" x1="463.7142857142857" y1="210.9387755102041" x2="472.14285714285717" y2="212.59183673469389" stroke="#0FA9F4" stroke-width="3" />
  <line id="dist_ga_n_seg_20" x1="480.57142857142856" y1="214.6122448979592" x2="489.0" y2="217.0" stroke="#0FA9F4" stroke-width="3" />
  <line id="dist_ga_n_seg_22" x1="497.42857142857144" y1="219.75510204081633" x2="505.8571428571428" y2="222.87755102040813" stroke="#0FA9F4" stroke-width="3" />
  <line id="dist_ga_n_seg_24" x1="514.2857142857143" y1="226.36734693877554" x2="522.7142857142857" y2="230.22448979591834" stroke="#0FA9F4" stroke-width="3" />
  <line id="dist_ga_n_seg_26" x1="531.1428571428571" y1="234.44897959183672" x2="539.5714285714286" y2="239.04081632653063" stroke="#0FA9F4" stroke-width="3" />
  <line id="dist_n_big_seg_0" x1="548.0" y1="236.0" x2="578.4285714285716" y2="229.9387755102041" stroke="#0FA9F4" stroke-width="3" />
  <line id="dist_n_big_seg_2" x1="608.8571428571429" y1="224.3265306122449" x2="639.2857142857143" y2="219.16326530612247" stroke="#0FA9F4" stroke-width="3" />
  <line id="dist_n_big_seg_4" x1="669.7142857142858" y1="214.44897959183677" x2="700.1428571428571" y2="210.1836734693877" stroke="#0FA9F4" stroke-width="3" />
  <line id="dist_n_big_seg_6" x1="730.5714285714284" y1="206.3673469387755" x2="761.0" y2="203.0" stroke="#0FA9F4" stroke-width="3" />
  <line id="dist_n_big_seg_8" x1="791.4285714285713" y1="200.08163265306123" x2="821.8571428571429" y2="197.61224489795921" stroke="#0FA9F4" stroke-width="3" />
  <line id="dist_n_big_seg_10" x1="852.2857142857141" y1="195.59183673469386" x2="882.7142857142858" y2="194.02040816326533" stroke="#0FA9F4" stroke-width="3" />
  <line id="dist_n_big_seg_12" x1="913.142857142857" y1="192.89795918367344" x2="943.5714285714284" y2="192.22448979591834" stroke="#0FA9F4" stroke-width="3" />
  <line id="dist_n_big_seg_14" x1="974.0" y1="192.0" x2="1004.4285714285713" y2="192.22448979591837" stroke="#0FA9F4" stroke-width="3" />
  <line id="dist_n_big_seg_16" x1="1034.857142857143" y1="192.8979591836735" x2="1065.2857142857142" y2="194.0204081632653" stroke="#0FA9F4" stroke-width="3" />
  <line id="dist_n_big_seg_18" x1="1095.7142857142858" y1="195.59183673469389" x2="1126.142857142857" y2="197.61224489795921" stroke="#0FA9F4" stroke-width="3" />
  <line id="dist_n_big_seg_20" x1="1156.5714285714287" y1="200.08163265306123" x2="1187.0" y2="203.0" stroke="#0FA9F4" stroke-width="3" />
  <line id="dist_n_big_seg_22" x1="1217.4285714285716" y1="206.3673469387755" x2="1247.8571428571427" y2="210.18367346938774" stroke="#0FA9F4" stroke-width="3" />
  <line id="dist_n_big_seg_24" x1="1278.2857142857142" y1="214.44897959183672" x2="1308.7142857142858" y2="219.16326530612244" stroke="#0FA9F4" stroke-width="3" />
  <line id="dist_n_big_seg_26" x1="1339.142857142857" y1="224.32653061224488" x2="1369.5714285714287" y2="229.9387755102041" stroke="#0FA9F4" stroke-width="3" />
  <line id="dist_n_d_seg_0" x1="548.0" y1="307.0" x2="563.3571428571429" y2="311.8214285714286" stroke="#0FA9F4" stroke-width="3" />
  <line id="dist_n_d_seg_2" x1="578.7142857142857" y1="316.2857142857143" x2="594.0714285714286" y2="320.39285714285717" stroke="#0FA9F4" stroke-width="3" />
  <line id="dist_n_d_seg_4" x1="609.4285714285716" y1="324.14285714285717" x2="624.7857142857142" y2="327.5357142857142" stroke="#0FA9F4" stroke-width="3" />
  <line id="dist_n_d_seg_6" x1="640.1428571428572" y1="330.57142857142856" x2="655.5" y2="333.25" stroke="#0FA9F4" stroke-width="3" />
  <line id="dist_n_d_seg_8" x1="670.8571428571429" y1="335.57142857142856" x2="686.2142857142858" y2="337.53571428571433" stroke="#0FA9F4" stroke-width="3" />
  <line id="dist_n_d_seg_10" x1="701.5714285714284" y1="339.1428571428571" x2="716.9285714285716" y2="340.3928571428572" stroke="#0FA9F4" stroke-width="3" />
  <line id="dist_n_d_seg_12" x1="732.2857142857142" y1="341.2857142857142" x2="747.6428571428571" y2="341.82142857142856" stroke="#0FA9F4" stroke-width="3" />
  <line id="dist_n_d_seg_14" x1="763.0" y1="342.0" x2="778.3571428571429" y2="341.82142857142856" stroke="#0FA9F4" stroke-width="3" />
  <line id="dist_n_d_seg_16" x1="793.7142857142858" y1="341.2857142857143" x2="809.0714285714286" y2="340.39285714285717" stroke="#0FA9F4" stroke-width="3" />
  <line id="dist_n_d_seg_18" x1="824.4285714285714" y1="339.1428571428571" x2="839.7857142857142" y2="337.5357142857143" stroke="#0FA9F4" stroke-width="3" />
  <line id="dist_n_d_seg_20" x1="855.1428571428571" y1="335.57142857142856" x2="870.5" y2="333.25" stroke="#0FA9F4" stroke-width="3" />
  <line id="dist_n_d_seg_22" x1="885.8571428571429" y1="330.57142857142856" x2="901.2142857142857" y2="327.5357142857143" stroke="#0FA9F4" stroke-width="3" />
  <line id="dist_n_d_seg_24" x1="916.5714285714286" y1="324.14285714285717" x2="931.9285714285713" y2="320.3928571428571" stroke="#0FA9F4" stroke-width="3" />
  <line id="dist_n_d_seg_26" x1="947.2857142857143" y1="316.2857142857143" x2="962.6428571428571" y2="311.8214285714286" stroke="#0FA9F4" stroke-width="3" />
  <text id="dist_ga_n_text" x="430.0" y="198" font-family="Cambria" font-size="58" fill="#222222" font-weight="normal" text-anchor="middle">176 cm</text>
  <text id="dist_n_big_text" x="974.0" y="192" font-family="Cambria" font-size="58" fill="#222222" font-weight="normal" text-anchor="middle">646 cm</text>
  <text id="dist_n_d_text" x="763.0" y="334" font-family="Cambria" font-size="58" fill="#222222" font-weight="normal" text-anchor="middle">325 cm</text>
</svg>