<?xml version="1.0" encoding="UTF-8"?>
<svg xmlns="http://www.w3.org/2000/svg" width="1464" height="382" viewBox="0 0 1464 382">
  <rect x="0" y="0" width="1464" height="382" fill="#F6F6F6" />
  <text id="instruction" x="20" y="76" font-family="Malgun Gothic" font-size="64" fill="#222222" font-weight="normal" text-anchor="start">??? ???? ??? ?? ???.</text>
  <line id="base_line" x1="312" y1="249" x2="1400" y2="249" stroke="#2E2A2D" stroke-width="5" />
  <line id="tick_가" x1="312" y1="218" x2="312" y2="279" stroke="#2E2A2D" stroke-width="4" />
  <circle id="label_circle_가" cx="312" cy="316" r="22" stroke="#3A3336" stroke-width="3" fill="none" />
  <text id="label_가" x="312" y="327" font-family="Malgun Gothic" font-size="34" fill="#222222" font-weight="normal" text-anchor="middle">가</text>
  <line id="tick_ㄴ" x1="548" y1="218" x2="548" y2="279" stroke="#2E2A2D" stroke-width="4" />
  <circle id="label_circle_ㄴ" cx="548" cy="316" r="22" stroke="#3A3336" stroke-width="3" fill="none" />
  <text id="label_ㄴ" x="548" y="327" font-family="Malgun Gothic" font-size="34" fill="#222222" font-weight="normal" text-anchor="middle">ㄴ</text>
  <line id="tick_ㄷ" x1="978" y1="218" x2="978" y2="279" stroke="#2E2A2D" stroke-width="4" />
  <circle id="label_circle_ㄷ" cx="978" cy="316" r="22" stroke="#3A3336" stroke-width="3" fill="none" />
  <text id="label_ㄷ" x="978" y="327" font-family="Malgun Gothic" font-size="34" fill="#222222" font-weight="normal" text-anchor="middle">ㄷ</text>
  <line id="tick_큰" x1="1400" y1="218" x2="1400" y2="279" stroke="#2E2A2D" stroke-width="4" />
  <circle id="label_circle_큰" cx="1400" cy="316" r="22" stroke="#3A3336" stroke-width="3" fill="none" />
  <text id="label_큰" x="1400" y="327" font-family="Malgun Gothic" font-size="34" fill="#222222" font-weight="normal" text-anchor="middle">큰</text>
  <line id="dist_ga_n" x1="312" y1="244" x2="548" y2="244" stroke="#0FA9F4" stroke-width="3" stroke-dasharray="4 8" />
  <text id="dist_ga_n_text" x="430.0" y="198" font-family="Cambria" font-size="58" fill="#222222" font-weight="normal" text-anchor="middle">176 cm</text>
  <line id="dist_n_big" x1="548" y1="236" x2="1400" y2="236" stroke="#0FA9F4" stroke-width="3" stroke-dasharray="4 8" />
  <text id="dist_n_big_text" x="974.0" y="192" font-family="Cambria" font-size="58" fill="#222222" font-weight="normal" text-anchor="middle">646 cm</text>
  <line id="dist_n_d" x1="548" y1="307" x2="978" y2="307" stroke="#0FA9F4" stroke-width="3" stroke-dasharray="4 8" />
  <text id="dist_n_d_text" x="763.0" y="334" font-family="Cambria" font-size="58" fill="#222222" font-weight="normal" text-anchor="middle">325 cm</text>
  <rect id="answer_blank" x="1230" y="24" width="170" height="56" rx="10" stroke="#69BEEA" stroke-width="4" fill="none" />
</svg>