<?xml version="1.0" encoding="UTF-8"?>
<svg xmlns="http://www.w3.org/2000/svg" xmlns:xlink="http://www.w3.org/1999/xlink" width="900" height="520" viewBox="0 0 900 520">
  <metadata><problem_id>nested_semicircle_triangles_20260711</problem_id></metadata>
  <rect x="0" y="0" width="900" height="520" fill="#FFFFFF" />
  <polygon id="slot.outer_triangle.polygon" points="215,422 450,187 685,422" stroke="#222222" stroke-width="2" fill="#dddddd" />
  <polygon id="slot.middle_triangle.polygon" points="285,422 450,257 615,422" stroke="#222222" stroke-width="2" fill="#eeeeee" />
  <polygon id="slot.inner_triangle.polygon" points="335,422 450,307 565,422" stroke="#222222" stroke-width="2" fill="#ffffff" />
  <path id="slot.outer_semicircle.path" d="M 215 422 A 235 235 0 0 1 685 422" stroke="#222222" stroke-width="2" fill="none" />
  <path id="slot.middle_semicircle.path" d="M 285 422 A 165 165 0 0 1 615 422" stroke="#222222" stroke-width="2" fill="none" />
  <path id="slot.inner_semicircle.path" d="M 335 422 A 115 115 0 0 1 565 422" stroke="#222222" stroke-width="2" fill="none" />
  <line id="slot.left_dashed_line.line" x1="450" y1="422" x2="368" y2="340" stroke="#222222" stroke-width="2" stroke-dasharray="8 7" />
  <line id="slot.right_dashed_line.line" x1="450" y1="422" x2="532" y2="340" stroke="#222222" stroke-width="2" stroke-dasharray="8 7" />
  <circle id="slot.center_point.circle" cx="450" cy="422" r="7" stroke="none" stroke-width="2" fill="#222222" />
  <rect id="slot.answer.blank" x="64" y="421" width="120" height="32" fill="#ffffff" stroke="#111111" stroke-width="1.5" />
  <text id="slot.question.text" x="48" y="60" fill="#111111" font-family="Noto Sans KR, sans-serif" font-size="28" max_width="804" data-slot-kind="text_box" data-box-x="48" data-box-y="32" data-box-width="804" data-box-height="54" data-line-height="1.35" data-semantic-role="question" text-anchor="start">그림을 보고 물음에 답하세요.</text>
  <text id="slot.instruction.text" x="48" y="112" fill="#111111" font-family="Noto Sans KR, sans-serif" font-size="20" max_width="804" data-slot-kind="text_box" data-box-x="48" data-box-y="92" data-box-width="804" data-box-height="42" data-line-height="1.35" data-semantic-role="instruction" text-anchor="start">겹쳐진 반원과 삼각형의 관계를 살펴보세요.</text>
</svg>
