<?xml version="1.0" encoding="UTF-8"?>
<svg xmlns="http://www.w3.org/2000/svg" width="1016" height="286" viewBox="0 0 1016 286">
  <rect x="0" y="0" width="1016" height="286" fill="#FFFFFF" />
  <text id="slot.title.text" x="8" y="46" max_width="888" fill="#222222" font-family="Noto Sans KR, sans-serif" font-size="35">빈 곳에 두 수의 차를 써넣으시오.</text>
  <text id="slot.label.left.text" x="8" y="142" max_width="888" fill="#222222" font-family="Noto Sans KR, sans-serif" font-size="35">(1)</text>
  <text id="slot.label.right.text" x="578" y="142" max_width="888" fill="#222222" font-family="Noto Sans KR, sans-serif" font-size="35">(2)</text>
  <path id="slot.left.oval.path" d="M 94 190 A 180 75 0 1 0 454 190 A 180 75 0 1 0 94 190" stroke="#b9db79" stroke-width="3" fill="none" />
  <line id="slot.left.divide.h.line" x1="96" y1="190" x2="452" y2="190" stroke="#b9db79" stroke-width="3" />
  <line id="slot.left.divide.v.line" x1="274" y1="115" x2="274" y2="190" stroke="#b9db79" stroke-width="3" />
  <text id="slot.left.num.a.text" x="154" y="173" max_width="888" fill="#222222" font-family="Noto Sans KR, sans-serif" font-size="35">350</text>
  <text id="slot.left.num.b.text" x="301" y="173" max_width="888" fill="#222222" font-family="Noto Sans KR, sans-serif" font-size="35">186</text>
  <path id="slot.right.oval.path" d="M 656 190 A 180 75 0 1 0 1014 190 A 180 75 0 1 0 656 190" stroke="#87b5eb" stroke-width="3" fill="none" />
  <line id="slot.right.divide.h.line" x1="658" y1="190" x2="1012" y2="190" stroke="#87b5eb" stroke-width="3" />
  <line id="slot.right.divide.v.line" x1="835" y1="115" x2="835" y2="190" stroke="#87b5eb" stroke-width="3" />
  <text id="slot.right.num.a.text" x="727" y="173" max_width="888" fill="#222222" font-family="Noto Sans KR, sans-serif" font-size="35">426</text>
  <text id="slot.right.num.b.text" x="850" y="173" max_width="888" fill="#222222" font-family="Noto Sans KR, sans-serif" font-size="35">702</text>
</svg>
