<?xml version="1.0" encoding="UTF-8"?>
<svg xmlns="http://www.w3.org/2000/svg" width="958" height="600" viewBox="0 0 958 600">
  <rect x="0" y="0" width="958" height="600" fill="#FFFFFF" />
  <rect id="slot.title.blank.rect" x="8" y="20" width="44" height="44" fill="none" stroke="#444444" stroke-width="2" />
  <text id="slot.title.text.text" x="66" y="56" max_width="830" fill="#222222" font-family="Noto Sans KR, sans-serif" font-size="35">안에 알맞은 수를 써넣으시오.</text>
  <text id="slot.p1.label.text" x="8" y="142" max_width="830" fill="#222222" font-family="Noto Sans KR, sans-serif" font-size="50">(1)</text>
  <text id="slot.p1.expr.text" x="84" y="150" max_width="830" fill="#222222" font-family="Noto Sans KR, sans-serif" font-size="58">827  +  493</text>
  <text id="slot.p2.label.text" x="578" y="142" max_width="830" fill="#222222" font-family="Noto Sans KR, sans-serif" font-size="50">(2)</text>
  <text id="slot.p2.expr.text" x="654" y="150" max_width="830" fill="#222222" font-family="Noto Sans KR, sans-serif" font-size="58">574  +  539</text>
  <rect id="slot.p1.box.top.rect" x="212" y="215" width="100" height="61" fill="none" stroke="#8f8f93" stroke-width="2" />
  <rect id="slot.p1.box.mid.rect" x="121.18395382401641" y="346.3355183134775" width="116" height="61" fill="none" stroke="#8f8f93" stroke-width="2" />
  <rect id="slot.p1.box.bot.rect" x="217.26418470393435" y="444.41516410715997" width="118" height="61" fill="none" stroke="#8f8f93" stroke-width="2" />
  <rect id="slot.p2.box.top.rect" x="753.19537" y="215" width="116" height="61" fill="none" stroke="#8f8f93" stroke-width="1.99999" />
  <rect id="slot.p2.box.mid.rect" x="842.3606" y="358.21503" width="100" height="61" fill="none" stroke="#8f8f93" stroke-width="2" />
  <rect id="slot.p2.box.bot.rect" x="753.2976798579416" y="462.3590801710588" width="116" height="61" fill="none" stroke="#8f8f93" stroke-width="2" />
  <text id="slot.p1.num.7.text" x="357.63213751604906" y="263.58433556128017" max_width="830" fill="#222222" font-family="Noto Sans KR, sans-serif" font-size="60">7</text>
  <line id="slot.p1.gray.branch.left.line" x1="310" y1="168" x2="258" y2="214" stroke="#7a7a7f" stroke-width="2" />
  <line id="slot.p1.gray.branch.right.line" x1="310" y1="168" x2="375" y2="214" stroke="#7a7a7f" stroke-width="2" />
  <path id="slot.p1.pink.path" d="M 124 168 L 124 332 L 258 332 L 258 276" stroke="#f0a4c4" stroke-width="2.6" fill="none" />
  <line id="slot.p2.underline.57.line" x1="654" y1="168" x2="711.67401" y2="168" stroke="#7a7a7f" stroke-width="2" />
  <line id="slot.p2.underline.4.line" x1="721.16687" y1="168.7762" x2="749.36218" y2="168.7762" stroke="#7a7a7f" stroke-width="2" />
  <line id="slot.p2.underline.53.line" x1="817.53558" y1="168" x2="872.83569" y2="168" stroke="#7a7a7f" stroke-width="2" />
  <line id="slot.p2.underline.9.line" x1="878.74518" y1="168" x2="910" y2="168" stroke="#7a7a7f" stroke-width="2" />
  <path id="slot.p2.pink.path" d="m 684.10582,169.11231 v 30.09966 h 164.38603 v -30.09966" stroke="#f0a4c4" stroke-width="2" fill="none" />
  <line id="slot.p1.gray.branch.right.line-5.line" x1="735.0108" y1="169.72194" x2="735.74225" y2="301.84332" stroke="#7a7a7f" stroke-width="2" />
  <line id="slot.p1.gray.branch.right.line-5-9.line" x1="178.88991" y1="405.60895" x2="179.63182" y2="429.83395" stroke="#7a7a7f" stroke-width="2" />
  <line id="slot.p1.gray.branch.right.line-5-7.line" x1="732.88464" y1="301.12717" x2="894.04327" y2="301.32996" stroke="#7a7a7f" stroke-width="2" />
  <line id="slot.p1.gray.branch.right.line-5-1.line" x1="892.81628" y1="169.24292" x2="893.54773" y2="301.36429" stroke="#7a7a7f" stroke-width="2" />
  <line id="slot.p1.gray.branch.right.line-5-1-2.line" x1="809.86115" y1="275.01392" x2="810.59076" y2="435.85724" stroke="#7a7a7f" stroke-width="2" />
  <line id="slot.p1.gray.branch.right.line-5-1-2-1.line" x1="893.46411" y1="436.87463" x2="813.17529" y2="436.29388" stroke="#7a7a7f" stroke-width="2" />
  <line id="slot.p1.gray.branch.right.line-5-1-2-1-7.line" x1="895.49561" y1="419.78729" x2="895.30176" y2="437.14624" stroke="#7a7a7f" stroke-width="2" />
  <line id="slot.p1.gray.branch.right.line-5-7-5.line" x1="174.96066" y1="429.5463" x2="372.6019" y2="429.36746" stroke="#7a7a7f" stroke-width="2" />
  <line id="slot.p1.gray.branch.right.line-5-1-2-4.line" x1="895.52472" y1="419.62793" x2="896.26599" y2="437.64667" stroke="#7a7a7f" stroke-width="2" />
  <line id="slot.p1.gray.branch.right.line-5-1-2-9.line" x1="371.82681" y1="269.7771" x2="372.55649" y2="429.84418" stroke="#7a7a7f" stroke-width="2" />
</svg>
