<?xml version="1.0" encoding="UTF-8"?>
<svg xmlns="http://www.w3.org/2000/svg" width="650" height="337" viewBox="0 0 650 337">
  <rect x="0" y="0" width="650" height="337" fill="#FFFFFF" />
  <text id="slot.title.text" x="18" y="50" max_width="522" fill="#222222" font-family="Noto Sans KR, sans-serif" font-size="31">빈칸에 알맞은 수를 써넣으시오.</text>
  <rect id="slot.left.bg.rect" x="90" y="206" width="151" height="103" fill="#e6e6eb" stroke="#e6e6eb" stroke-width="1" rx="18" ry="18" />
  <text id="slot.left.num.text" x="166.5" y="250" max_width="522" fill="#333333" font-family="Noto Sans KR, sans-serif" font-size="40" text-anchor="middle">5</text>
  <line id="slot.left.bar.line" x1="149.5" y1="257" x2="183.5" y2="257" stroke="#333333" stroke-width="2.4" />
  <text id="slot.left.den.text" x="166.5" y="300" max_width="522" fill="#333333" font-family="Noto Sans KR, sans-serif" font-size="40" text-anchor="middle">6</text>
  <rect id="slot.op.bg.rect" x="251" y="92" width="177" height="109" fill="#e9e9ee" stroke="#e9e9ee" stroke-width="1" rx="54.5" ry="54.5" />
  <text id="slot.op.divide.text" x="322" y="158" max_width="522" fill="#333333" font-family="Noto Sans KR, sans-serif" font-size="45" text-anchor="middle">÷</text>
  <text id="slot.op.num.text" x="368" y="128" max_width="522" fill="#333333" font-family="Noto Sans KR, sans-serif" font-size="40" text-anchor="middle">3</text>
  <line id="slot.op.bar.line" x1="351" y1="140" x2="385" y2="140" stroke="#333333" stroke-width="2.4" />
  <text id="slot.op.den.text" x="368" y="181" max_width="522" fill="#333333" font-family="Noto Sans KR, sans-serif" font-size="40" text-anchor="middle">7</text>
  <path id="slot.link.left_to_mid.path" d="M 165.5 206 C 202 156, 232 146.5, 251 146.5" stroke="#cfcfd4" stroke-width="8" fill="none" />
  <path id="slot.link.mid_to_right.path" d="M 428 146.5 C 476 146.5, 506 166, 525 207" stroke="#cfcfd4" stroke-width="8" fill="none" />
  <path id="slot.link.mid_to_right.head.path" d="M 511 198 L 525 207 L 511 216 Z" stroke="none" stroke-width="2" fill="#cfcfd4" />
  <rect id="slot.answer.blank.rect" x="452" y="207" width="146" height="100" fill="#ffffff" stroke="#dddddf" stroke-width="7" rx="17" ry="17" />
</svg>
