<?xml version="1.0" encoding="UTF-8"?>
<svg xmlns="http://www.w3.org/2000/svg" width="1498" height="644" viewBox="0 0 1498 644">
  <rect x="0" y="0" width="1498" height="644" fill="#F6F6F6" />
  <text id="inst" x="28" y="106.44896" font-family="Malgun Gothic" font-size="72px" fill="#222222" font-weight="normal" text-anchor="start">빈칸에 알맞은 수를 써넣으세요.</text>
  <line id="arrow" x1="317.18445" y1="228.24083" x2="910.18445" y2="228.24083" stroke="#CCCED2" stroke-width="22" />
  <line id="arrow_head1" x1="910.18445" y1="228.24083" x2="880.18445" y2="198.24083" stroke="#CCCED2" stroke-width="22" />
  <line id="arrow_head2" x1="910.18445" y1="228.24083" x2="880.18445" y2="258.24084" stroke="#CCCED2" stroke-width="22" />
  <circle id="plus_circle" cx="614.18445" cy="228.24083" r="48" stroke="#B9D8DA" stroke-width="10" fill="#F6F6F6" />
  <line id="plus_h" x1="589.18445" y1="228.24083" x2="639.18445" y2="228.24083" stroke="#3A3338" stroke-width="4" />
  <line id="plus_v" x1="614.18445" y1="203.24083" x2="614.18445" y2="253.24083" stroke="#3A3338" stroke-width="4" />
  <rect id="table" x="319.18445" y="298.24084" width="888" height="279"  stroke="#B9D8DA" stroke-width="9" fill="none" />
  <line id="v1" x1="616.18445" y1="298.24084" x2="616.18445" y2="577.24084" stroke="#B9D8DA" stroke-width="4" />
  <line id="v2" x1="909.18445" y1="298.24084" x2="909.18445" y2="577.24084" stroke="#B9D8DA" stroke-width="4" />
  <line id="h1" x1="319.18445" y1="437.24084" x2="1207.1844" y2="437.24084" stroke="#B9D8DA" stroke-width="4" />
  <text id="r1c1" x="468.18445" y="392.24084" font-family="Cambria" font-size="68px" fill="#222222" font-weight="normal" text-anchor="middle">467</text>
  <text id="r1c2" x="761.18445" y="392.24084" font-family="Cambria" font-size="68px" fill="#222222" font-weight="normal" text-anchor="middle">359</text>
  <text id="r2c1" x="468.18445" y="528.24084" font-family="Cambria" font-size="68px" fill="#222222" font-weight="normal" text-anchor="middle">735</text>
  <text id="r2c2" x="761.18445" y="528.24084" font-family="Cambria" font-size="68px" fill="#222222" font-weight="normal" text-anchor="middle">418</text>
  <rect id="r1_blank" x="939.18445" y="329.24084" width="238" height="78"  rx="10" stroke="#69BEEA" stroke-width="4" fill="none" />
  <rect id="r2_blank" x="939.18445" y="465.24084" width="238" height="78"  rx="10" stroke="#69BEEA" stroke-width="4" fill="none" />
</svg>