<?xml version="1.0" encoding="UTF-8"?>
<svg xmlns="http://www.w3.org/2000/svg" width="981" height="818" viewBox="0 0 981 818">
  <rect x="0" y="0" width="981" height="818" fill="#F6F6F6" />
  <text id="num" x="40" y="74" font-family="Malgun Gothic" font-size="60" fill="#6F3FA2" font-weight="normal" text-anchor="start">8</text>
  <text id="inst" x="118" y="69" font-family="Malgun Gothic" font-size="36" fill="#222222" font-weight="normal" text-anchor="start">□ 안에 알맞은 수를 써넣고, 그 수를 이용하여 숨어 있는 글자를 찾아 보세요.</text>
  <rect id="board" x="145" y="112" width="775" height="625" rx="40" stroke="#B58D61" stroke-width="10" fill="#EFDDBB" />
  <text id="eq1_top" x="492" y="259" font-family="Cambria" font-size="62" fill="#222222" font-weight="normal" text-anchor="end">127</text>
  <text id="eq1_mid" x="492" y="335" font-family="Cambria" font-size="62" fill="#222222" font-weight="normal" text-anchor="end">+621</text>
  <line id="eq1_line" x1="290" y1="378" x2="505" y2="378" stroke="#333333" stroke-width="2" />
  <text id="eq2_top" x="765" y="259" font-family="Cambria" font-size="62" fill="#222222" font-weight="normal" text-anchor="end">231</text>
  <text id="eq2_mid" x="765" y="335" font-family="Cambria" font-size="62" fill="#222222" font-weight="normal" text-anchor="end">+764</text>
  <line id="eq2_line" x1="563" y1="378" x2="778" y2="378" stroke="#333333" stroke-width="2" />
  <rect id="map_box" x="255" y="454" width="560" height="148" rx="34" stroke="#000000" stroke-width="0" fill="#F9F9F9" />
  <text id="map_line_1" x="535" y="522" font-family="Malgun Gothic" font-size="34" fill="#333333" font-weight="normal" text-anchor="middle">1=나   2=이   3=요   4=구   5=꿍</text>
  <text id="map_line_2" x="535" y="580" font-family="Malgun Gothic" font-size="34" fill="#333333" font-weight="normal" text-anchor="middle">6=월   7=친   8=와   9=짝   0=너</text>
  <text id="final_l" x="572" y="783" font-family="Cambria" font-size="58" fill="#222222" font-weight="normal" text-anchor="middle">(</text>
  <text id="final_r" x="946" y="783" font-family="Cambria" font-size="58" fill="#222222" font-weight="normal" text-anchor="middle">)</text>
  <rect id="eq1_blank_0" x="342" y="386" width="46" height="46" rx="6" stroke="#69BEEA" stroke-width="3" fill="none" />
  <rect id="eq1_blank_1" x="396" y="386" width="46" height="46" rx="6" stroke="#69BEEA" stroke-width="3" fill="none" />
  <rect id="eq1_blank_2" x="450" y="386" width="46" height="46" rx="6" stroke="#69BEEA" stroke-width="3" fill="none" />
  <rect id="eq2_blank_0" x="616" y="386" width="46" height="46" rx="6" stroke="#69BEEA" stroke-width="3" fill="none" />
  <rect id="eq2_blank_1" x="670" y="386" width="46" height="46" rx="6" stroke="#69BEEA" stroke-width="3" fill="none" />
  <rect id="eq2_blank_2" x="724" y="386" width="46" height="46" rx="6" stroke="#69BEEA" stroke-width="3" fill="none" />
</svg>