<?xml version="1.0" encoding="UTF-8"?>
<svg xmlns="http://www.w3.org/2000/svg" width="560" height="320" viewBox="0 0 560 320">
  <rect x="0" y="0" width="560" height="320" fill="#FFFFFF" />
  <text id="slot.q1.text" x="18" y="34" max_width="432" fill="#111111" font-family="Noto Sans KR, sans-serif" font-size="28">㉠과 ㉡의 길이는 각각 몇 cm입니까?</text>
  <line id="slot.line_main.line" x1="30" y1="125" x2="530" y2="125" stroke="#222222" stroke-width="1.4" />
  <line id="slot.tick1.line" x1="30" y1="116" x2="30" y2="135" stroke="#222222" stroke-width="1.4" />
  <line id="slot.tick2.line" x1="320" y1="116" x2="320" y2="135" stroke="#222222" stroke-width="1.4" />
  <line id="slot.tick3.line" x1="420" y1="116" x2="420" y2="135" stroke="#222222" stroke-width="1.4" />
  <line id="slot.tick4.line" x1="530" y1="116" x2="530" y2="135" stroke="#222222" stroke-width="1.4" />
  <path id="slot.arc_top_821.path" d="M 30 125 Q 225 30 420 125" stroke="#666666" stroke-width="1.2" fill="none" stroke-dasharray="5 3" />
  <text id="slot.text_821.text" x="190" y="70" max_width="432" fill="#111111" font-family="Noto Sans KR, sans-serif" font-size="26">821 cm</text>
  <path id="slot.arc_top_448.path" d="M 320 125 Q 425 30 530 125" stroke="#666666" stroke-width="1.2" fill="none" stroke-dasharray="5 3" />
  <text id="slot.text_448.text" x="390" y="70" max_width="432" fill="#111111" font-family="Noto Sans KR, sans-serif" font-size="26">448 cm</text>
  <path id="slot.arc_bot_g.path" d="M 30 125 Q 175 250 320 125" stroke="#666666" stroke-width="1.2" fill="none" stroke-dasharray="5 3" />
  <circle id="slot.circle_g.circle" cx="175" cy="187.5" r="16" stroke="#666666" stroke-width="1.1" fill="#ffffff" />
  <text id="slot.text_g.text" x="168" y="196" max_width="432" fill="#111111" font-family="Noto Sans KR, sans-serif" font-size="24">ㄱ</text>
  <path id="slot.arc_bot_n.path" d="M 320 125 Q 370 200 420 125" stroke="#666666" stroke-width="1.2" fill="none" stroke-dasharray="5 3" />
  <circle id="slot.circle_n.circle" cx="370" cy="162.5" r="16" stroke="#666666" stroke-width="1.1" fill="#ffffff" />
  <text id="slot.text_n.text" x="363" y="171" max_width="432" fill="#111111" font-family="Noto Sans KR, sans-serif" font-size="24">ㄴ</text>
  <path id="slot.arc_bot_236.path" d="M 420 125 Q 475 200 530 125" stroke="#666666" stroke-width="1.2" fill="none" stroke-dasharray="5 3" />
  <text id="slot.text_236.text" x="440" y="180" max_width="432" fill="#111111" font-family="Noto Sans KR, sans-serif" font-size="26">236 cm</text>
</svg>
