<?xml version="1.0" encoding="UTF-8"?>
<svg xmlns="http://www.w3.org/2000/svg" width="557" height="520" viewBox="0 0 557 520">
  <rect x="0" y="0" width="557" height="520" fill="#FFFFFF" />
  <text id="slot.title.l1.text" x="10" y="50" max_width="429" fill="#222222" font-family="Noto Sans KR, sans-serif" font-size="28">732★567을 보기와 같은 방법으로 계산하려</text>
  <text id="slot.title.l2.text" x="10" y="100" max_width="429" fill="#222222" font-family="Noto Sans KR, sans-serif" font-size="28">고 합니다. ㉠에 알맞은 수를 구하시오.</text>
  <rect id="slot.left.panel.rect" x="63" y="145" width="227" height="358" fill="none" stroke="#8a8d93" stroke-width="2" rx="8" ry="8" />
  <rect id="slot.badge.bg.rect" x="80" y="128" width="52" height="30" fill="#8a8d93" stroke="#8a8d93" stroke-width="1" rx="10" ry="10" />
  <text id="slot.badge.text.text" x="85.4" y="150.6" max_width="429" fill="#1f2328" font-family="Noto Sans KR, sans-serif" font-size="22">보기</text>
  <rect id="slot.left.top.rect" x="82" y="171" width="160" height="64" fill="#d1d3d8" stroke="#8a8d93" stroke-width="2" rx="32" ry="32" />
  <text id="slot.left.top.left.text" x="112" y="214" max_width="429" fill="#1f2328" font-family="Noto Sans KR, sans-serif" font-size="28">가</text>
  <polygon id="slot.left.top.star.polygon" points="163,188 167,198 178,198 169,205 173,216 163,209 153,216 157,205 148,198 159,198" stroke="#7d8087" stroke-width="1" fill="#7d8087" />
  <text id="slot.left.top.right.text" x="186" y="214" max_width="429" fill="#1f2328" font-family="Noto Sans KR, sans-serif" font-size="28">나</text>
  <line id="slot.left.arrow1.line" x1="163" y1="236" x2="163" y2="292" stroke="#55585f" stroke-width="2" />
  <text id="slot.left.rule1.text" x="188" y="272" max_width="429" fill="#1f2328" font-family="Noto Sans KR, sans-serif" font-size="28">가-나</text>
  <polygon id="slot.left.diamond.polygon" points="163,296 242,331 163,366 84,331" stroke="#8a8d93" stroke-width="2" fill="#d8dae0" />
  <text id="slot.left.diamond.text.text" x="149" y="340" max_width="429" fill="#1f2328" font-family="Noto Sans KR, sans-serif" font-size="28">다</text>
  <line id="slot.left.arrow2.line" x1="163" y1="366" x2="163" y2="419" stroke="#55585f" stroke-width="2" />
  <text id="slot.left.rule2.text" x="181" y="395" max_width="429" fill="#1f2328" font-family="Noto Sans KR, sans-serif" font-size="28">다+348</text>
  <rect id="slot.left.bottom.rect" x="82" y="423" width="160" height="64" fill="#d1d3d8" stroke="#8a8d93" stroke-width="2" rx="32" ry="32" />
  <text id="slot.left.bottom.text.text" x="150" y="466" max_width="429" fill="#1f2328" font-family="Noto Sans KR, sans-serif" font-size="28">라</text>
  <rect id="slot.right.top.rect" x="326" y="171" width="158" height="64" fill="#d1d3d8" stroke="#8a8d93" stroke-width="2" rx="32" ry="32" />
  <text id="slot.right.top.left.text" x="344" y="214" max_width="429" fill="#1f2328" font-family="Noto Sans KR, sans-serif" font-size="28">732</text>
  <polygon id="slot.right.top.star.polygon" points="405,188 409,198 420,198 411,205 415,216 405,209 395,216 399,205 390,198 401,198" stroke="#7d8087" stroke-width="1" fill="#7d8087" />
  <text id="slot.right.top.right.text" x="425" y="214" max_width="429" fill="#1f2328" font-family="Noto Sans KR, sans-serif" font-size="28">567</text>
  <line id="slot.right.arrow1.line" x1="405" y1="236" x2="405" y2="292" stroke="#55585f" stroke-width="2" />
  <polygon id="slot.right.diamond.polygon" points="405,296 484,331 405,366 326,331" stroke="#8a8d93" stroke-width="2" fill="#d8dae0" />
  <text id="slot.right.diamond.text.text" x="391" y="340" max_width="429" fill="#1f2328" font-family="Noto Sans KR, sans-serif" font-size="28">다</text>
  <line id="slot.right.arrow2.line" x1="405" y1="366" x2="405" y2="419" stroke="#55585f" stroke-width="2" />
  <rect id="slot.right.bottom.rect" x="326" y="423" width="158" height="64" fill="#d1d3d8" stroke="#8a8d93" stroke-width="2" rx="32" ry="32" />
  <text id="slot.right.bottom.text.text" x="392" y="466" max_width="429" fill="#1f2328" font-family="Noto Sans KR, sans-serif" font-size="28">㉠</text>
</svg>
