<?xml version="1.0" encoding="UTF-8"?>
<svg xmlns="http://www.w3.org/2000/svg" width="952" height="344" viewBox="0 0 952 344">
  <metadata><problem_id>S3_초등_3_008720</problem_id></metadata>
  <rect x="0" y="0" width="952" height="344" fill="#FFFFFF" />
  <rect id="slot.pin_base.rect" x="275" y="175" width="10" height="5" fill="#A8B0B6" stroke="#7E8790" stroke-width="0.8" />
  <text id="slot.q1.text" x="16" y="34" fill="#111111" font-family="Noto Sans KR, sans-serif" font-size="28">누름 못과 띠 종이를 사용하여 원을 그리려고 합니다. 원을 가장 작게 그</text>
  <text id="slot.q2.text" x="16" y="72" fill="#111111" font-family="Noto Sans KR, sans-serif" font-size="28">리려고 할 때 연필을 꽂아야 하는 구멍의 기호를 선택해 보세요.</text>
  <text id="slot.lb2_text.copy5.text" x="320" y="270" fill="#111111" font-family="Noto Sans KR, sans-serif" font-size="30">ㄱ</text>
  <text id="slot.lb2_text.text" x="380" y="270" fill="#111111" font-family="Noto Sans KR, sans-serif" font-size="30">ㄴ</text>
  <text id="slot.lb3_text.text" x="440" y="270" fill="#111111" font-family="Noto Sans KR, sans-serif" font-size="30">ㄷ</text>
  <text id="slot.lb4_text.text" x="495" y="270" fill="#111111" font-family="Noto Sans KR, sans-serif" font-size="30">ㄹ</text>
  <text id="slot.lb5_text.text" x="555" y="270" fill="#111111" font-family="Noto Sans KR, sans-serif" font-size="30">ㅁ</text>
  <rect id="slot.bar.rect" x="212" y="164" width="425" height="40" fill="#CFEFEF" stroke="#7AD7D7" stroke-width="1.2" />
  <circle id="slot.pin.circle" cx="267" cy="185" r="10" stroke="#111111" stroke-width="2" fill="#A8B0B6" />
  <line id="slot.arrow1.line" x1="335" y1="190" x2="335" y2="235" stroke="#FF4FA0" stroke-width="1.4" />
  <line id="slot.arrow2.line" x1="390" y1="190" x2="390" y2="235" stroke="#FF4FA0" stroke-width="1.4" />
  <line id="slot.arrow3.line" x1="450" y1="190" x2="450" y2="235" stroke="#FF4FA0" stroke-width="1.4" />
  <line id="slot.arrow4.line" x1="510" y1="190" x2="510" y2="235" stroke="#FF4FA0" stroke-width="1.4" />
  <line id="slot.arrow5.line" x1="570" y1="190" x2="570" y2="235" stroke="#FF4FA0" stroke-width="1.4" />
  <circle id="slot.hole1.circle" cx="335" cy="185" r="5" stroke="#6E6E6E" stroke-width="1" fill="#FFFFFF" />
  <circle id="slot.hole2.circle" cx="390" cy="185" r="5" stroke="#6E6E6E" stroke-width="1" fill="#FFFFFF" />
  <circle id="slot.hole3.circle" cx="450" cy="185" r="5" stroke="#6E6E6E" stroke-width="1" fill="#FFFFFF" />
  <circle id="slot.hole4.circle" cx="510" cy="185" r="5" stroke="#6E6E6E" stroke-width="1" fill="#FFFFFF" />
  <circle id="slot.hole5.circle" cx="570" cy="185" r="5" stroke="#6E6E6E" stroke-width="1" fill="#FFFFFF" />
</svg>
