<?xml version="1.0" encoding="UTF-8"?>
<svg xmlns="http://www.w3.org/2000/svg" width="900" height="760" viewBox="0 0 900 760">
  <metadata><problem_id>S3_초등_3_008727</problem_id></metadata>
  <rect x="0" y="0" width="900" height="760" fill="#FFFFFF" />
  <path id="slot.inserted.arc.1.path" d="M 60 465 A 90 85 0 0 1 230 465" stroke="#111827" stroke-width="1.5" fill="none" transform="rotate(180 145 436.47)" />
  <path id="slot.inserted.arc.1.copy4.path" d="M 60 520 A 90 85 0 0 1 230 520" stroke="#111827" stroke-width="1.5" fill="none" />
  <path id="slot.inserted.quarterArc.1.path" d="M 460 230 A 80 70 0 0 1 535 160" stroke="#111827" stroke-width="1.5" fill="none" transform="rotate(-90 497.5 195)" />
  <path id="slot.inserted.quarterArc.1.copy5.path" d="M 370 315 A 80 70 0 0 1 445 245" stroke="#111827" stroke-width="1.5" fill="none" transform="rotate(90 407.5 280)" />
  <path id="slot.inserted.arc.1.copy6.path" d="M 380 455 A 45 60 0 0 1 465 455" stroke="#111827" stroke-width="1.5" fill="none" transform="rotate(360 425 430)" />
  <path id="slot.inserted.arc.1.copy6.copy7.path" d="M 320 245 A 115 70 0 0 1 540 245" stroke="#111827" stroke-width="1.5" fill="none" transform="rotate(315 430 214.9)" />
  <path id="slot.inserted.arc.1.copy6.copy7.copy8.path" d="M 355 270 A 115 50 0 0 1 575 270" stroke="#111827" stroke-width="1.5" fill="none" transform="rotate(495 465 252.29)" />
  <path id="slot.inserted.arc.1.copy6.copy9.path" d="M 969 955 A 35 35 0 0 1 1044 955" stroke="#111827" stroke-width="1.5" fill="none" transform="rotate(180 754 701.47)" />
  <circle id="slot.opt1.shape.2.circle" cx="170" cy="217" r="52" stroke="#111111" stroke-width="2" fill="none" />
  <circle id="slot.opt1.shape.3.circle" cx="221" cy="217" r="52" stroke="#111111" stroke-width="2" fill="none" />
  <circle id="slot.opt3.shape.2.circle" cx="770" cy="171" r="30" stroke="#111111" stroke-width="2" fill="none" />
  <circle id="slot.opt3.shape.3.circle" cx="771" cy="264" r="30" stroke="#111111" stroke-width="2" fill="none" />
  <circle id="slot.opt3.shape.4.circle" cx="722" cy="217" r="30" stroke="#111111" stroke-width="2" fill="none" />
  <circle id="slot.opt3.shape.5.circle" cx="815" cy="217" r="30" stroke="#111111" stroke-width="2" fill="none" />
  <circle id="slot.opt3.shape.6.circle" cx="770" cy="217" r="16" stroke="#111111" stroke-width="2" fill="none" />
  <circle id="slot.opt4.shape.2.circle" cx="146" cy="464" r="40" stroke="#111111" stroke-width="2" fill="none" />
  <text id="slot.qtext.text" x="30" y="60" fill="#111111" font-family="Noto Sans KR, sans-serif" font-size="30">원의 중심의 개수가 가장 많은 모양을 고르세요.</text>
  <circle id="slot.opt1.shape.1.circle" cx="118" cy="217" r="52" stroke="#111111" stroke-width="2" fill="none" />
  <rect id="slot.opt2.shape.1.rect" x="370" y="157" width="160" height="160" fill="none" stroke="#111111" stroke-width="1.5" />
  <circle id="slot.opt3.shape.1.circle" cx="770" cy="217" r="40" stroke="#111111" stroke-width="2" fill="none" />
  <rect id="slot.opt4.shape.1.rect" x="60" y="407" width="170" height="110" fill="none" stroke="#111111" stroke-width="1.5" />
  <circle id="slot.opt5.shape.1.circle" cx="460" cy="450" r="78" stroke="#111111" stroke-width="2" fill="none" />
  <text id="slot.opt1.label.text" x="34" y="143" fill="#111111" font-family="Noto Sans KR, sans-serif" font-size="28">①</text>
  <text id="slot.opt2.label.text" x="344" y="143" fill="#111111" font-family="Noto Sans KR, sans-serif" font-size="28">②</text>
  <text id="slot.opt3.label.text" x="654" y="143" fill="#111111" font-family="Noto Sans KR, sans-serif" font-size="28">③</text>
  <text id="slot.opt4.label.text" x="34" y="366" fill="#111111" font-family="Noto Sans KR, sans-serif" font-size="28">④</text>
  <text id="slot.opt5.label.text" x="344" y="365" fill="#111111" font-family="Noto Sans KR, sans-serif" font-size="28">⑤</text>
</svg>
