<?xml version="1.0" encoding="UTF-8"?>
<svg xmlns="http://www.w3.org/2000/svg" xmlns:xlink="http://www.w3.org/1999/xlink" width="619" height="300" viewBox="0 0 619 300">
  <metadata><problem_id>P3_1_01_00040_02164</problem_id></metadata>
  <rect x="0" y="0" width="619" height="300" fill="#FFFFFF" />
  <rect id="slot.example_box.rect" x="22" y="32" width="120" height="121" fill="#ffffff" stroke="#888888" stroke-width="1.2" data-semantic-role="example_container" />
  <path id="slot.example_circle.path" d="M 32 96 C 32 68.38576251, 54.385762510000006 46, 82 46 C 109.61423749 46, 132 68.38576251, 132 96 C 132 123.61423749, 109.61423749 146, 82 146 C 54.385762510000006 146, 32 123.61423749, 32 96 Z" stroke="#efc66a" stroke-width="1.1" fill="#fff5d9" data-semantic-role="addition_rule_diagram" />
  <path id="slot.example_horizontal_line.path" d="M 32 96 L 132 96" stroke="#efc66a" stroke-width="1.1" fill="none" data-semantic-role="partition_line" />
  <path id="slot.example_vertical_line.path" d="M 82 46 L 82 96" stroke="#efc66a" stroke-width="1.1" fill="none" data-semantic-role="partition_line" />
  <path id="slot.item_1_circle.path" d="M 35 210 C 35 182.9380472598, 56.9380472598 161, 84 161 C 111.0619527402 161, 133 182.9380472598, 133 210 C 133 237.0619527402, 111.0619527402 259, 84 259 C 56.9380472598 259, 35 237.0619527402, 35 210 Z" stroke="#efc66a" stroke-width="1.1" fill="#ffffff" data-semantic-role="answer_diagram" />
  <path id="slot.item_1_horizontal_line.path" d="M 35 210 L 133 210" stroke="#efc66a" stroke-width="1.1" fill="none" data-semantic-role="partition_line" />
  <path id="slot.item_1_vertical_line.path" d="M 84 161 L 84 210" stroke="#efc66a" stroke-width="1.1" fill="none" data-semantic-role="partition_line" />
  <path id="slot.item_2_circle.path" d="M 189 210 C 189 182.9380472598, 210.9380472598 161, 238 161 C 265.0619527402 161, 287 182.9380472598, 287 210 C 287 237.0619527402, 265.0619527402 259, 238 259 C 210.9380472598 259, 189 237.0619527402, 189 210 Z" stroke="#efc66a" stroke-width="1.1" fill="#ffffff" data-semantic-role="answer_diagram" />
  <path id="slot.item_2_horizontal_line.path" d="M 189 210 L 287 210" stroke="#efc66a" stroke-width="1.1" fill="none" data-semantic-role="partition_line" />
  <path id="slot.item_2_vertical_line.path" d="M 238 161 L 238 210" stroke="#efc66a" stroke-width="1.1" fill="none" data-semantic-role="partition_line" />
  <text id="slot.instruction.text" x="20" y="17" fill="#222222" font-family="Noto Sans KR, sans-serif" font-size="15" max_width="410" data-slot-kind="text_box" data-box-x="20" data-box-y="2" data-box-width="410" data-box-height="26" data-line-height="1.15" data-semantic-role="instruction" text-anchor="start">다음 &lt;보기&gt;와 같이 빈 곳에 알맞은 수를 써넣으시오.</text>
  <text id="slot.example_label.text" x="82" y="35" fill="#333333" font-family="Noto Sans KR, sans-serif" font-size="14" text-anchor="middle" data-semantic-role="example_label">&lt;보기&gt;</text>
  <text id="slot.example_left_value.text" x="58" y="82" fill="#222222" font-family="Noto Sans KR, sans-serif" font-size="15" text-anchor="middle" data-semantic-role="given_value">259</text>
  <text id="slot.example_right_value.text" x="106" y="82" fill="#222222" font-family="Noto Sans KR, sans-serif" font-size="15" text-anchor="middle" data-semantic-role="given_value">287</text>
  <text id="slot.example_sum.text" x="82" y="126" fill="#222222" font-family="Noto Sans KR, sans-serif" font-size="15" text-anchor="middle" data-semantic-role="example_result">546</text>
  <text id="slot.item_1_label.text" x="20" y="171" fill="#222222" font-family="Noto Sans KR, sans-serif" font-size="14" text-anchor="start" data-semantic-role="item_label">(1)</text>
  <text id="slot.item_1_left_value.text" x="60" y="196" fill="#222222" font-family="Noto Sans KR, sans-serif" font-size="15" text-anchor="middle" data-semantic-role="given_value">236</text>
  <text id="slot.item_1_right_value.text" x="108" y="196" fill="#222222" font-family="Noto Sans KR, sans-serif" font-size="15" text-anchor="middle" data-semantic-role="given_value">465</text>
  <text id="slot.item_2_label.text" x="168" y="171" fill="#222222" font-family="Noto Sans KR, sans-serif" font-size="14" text-anchor="start" data-semantic-role="item_label">(2)</text>
  <text id="slot.item_2_left_value.text" x="214" y="196" fill="#222222" font-family="Noto Sans KR, sans-serif" font-size="15" text-anchor="middle" data-semantic-role="given_value">756</text>
  <text id="slot.item_2_right_value.text" x="262" y="196" fill="#222222" font-family="Noto Sans KR, sans-serif" font-size="15" text-anchor="middle" data-semantic-role="given_value">549</text>
</svg>
