<?xml version="1.0" encoding="UTF-8"?>
<svg xmlns="http://www.w3.org/2000/svg" xmlns:xlink="http://www.w3.org/1999/xlink" width="365" height="125" viewBox="0 0 365 125">
  <metadata><problem_id>P3_1_01_00040_02159</problem_id></metadata>
  <rect x="0" y="0" width="365" height="125" fill="#FFFFFF" />
  <path id="slot.start_oval.path" d="M 22 96.072 C 22 81.072 78 81.072 78 96.072 C 78 111.072 22 111.072 22 96.072 Z" stroke="#ead5e9" stroke-width="1.2" fill="#fff7ff" data-semantic-role="given_value" />
  <rect id="slot.operation_1_box.rect" x="80" y="45.072" width="64" height="28" fill="#e9f8dd" stroke="#a9ce93" stroke-width="1.2" data-semantic-role="operation" />
  <path id="slot.answer_1_oval.path" d="M 146 96.072 C 146 81.072 202 81.072 202 96.072 C 202 111.072 146 111.072 146 96.072 Z" stroke="#ead5e9" stroke-width="1.2" fill="#ffffff" data-semantic-role="answer_blank" />
  <rect id="slot.operation_2_box.rect" x="204" y="45.072" width="64" height="28" fill="#e9f8dd" stroke="#a9ce93" stroke-width="1.2" data-semantic-role="operation" />
  <path id="slot.answer_2_oval.path" d="M 270 96.072 C 270 81.072 326 81.072 326 96.072 C 326 111.072 270 111.072 270 96.072 Z" stroke="#ead5e9" stroke-width="1.2" fill="#ffffff" data-semantic-role="answer_blank" />
  <text id="slot.instruction.text" x="18" y="16" fill="#111111" font-family="Noto Sans KR, sans-serif" font-size="15" max_width="250" data-slot-kind="text_box" data-box-x="18" data-box-y="1" data-box-width="250" data-box-height="26" data-line-height="1.15" data-semantic-role="instruction" text-anchor="start">빈 곳에 알맞은 수를 써넣으시오.</text>
  <text id="slot.start_value.text" x="50" y="102.072" fill="#111111" font-family="Noto Sans KR, sans-serif" font-size="15" text-anchor="middle" data-semantic-role="given_value">156</text>
  <text id="slot.operation_1.text" x="112" y="64.072" fill="#111111" font-family="Noto Sans KR, sans-serif" font-size="15" text-anchor="middle" data-semantic-role="operation">+278</text>
  <text id="slot.operation_2.text" x="236" y="64.072" fill="#111111" font-family="Noto Sans KR, sans-serif" font-size="15" text-anchor="middle" data-semantic-role="operation">+697</text>
</svg>
