<?xml version="1.0" encoding="UTF-8"?>
<svg xmlns="http://www.w3.org/2000/svg" xmlns:xlink="http://www.w3.org/1999/xlink" width="365" height="125" viewBox="0 0 365 125">
  <metadata><problem_id>P3_1_01_00040_02159</problem_id></metadata>
  <rect x="0" y="0" width="365" height="125" fill="#FFFFFF" />
  <path id="slot.start_oval.path" d="M 21.127 97.381 C 21.127 82.381 77.127 82.381 77.127 97.381 C 77.127 112.381 21.127 112.381 21.127 97.381 Z" stroke="#ead5e9" stroke-width="1.2" fill="#fff7ff" data-semantic-role="given_value" />
  <rect id="slot.operation_1_box.rect" x="84.366" y="43.327" width="64" height="28" fill="#e9f8dd" stroke="#a9ce93" stroke-width="1.2" data-semantic-role="operation" />
  <path id="slot.answer_1_oval.path" d="M 146 96.072 C 146 81.072 202 81.072 202 96.072 C 202 111.072 146 111.072 146 96.072 Z" stroke="#ead5e9" stroke-width="1.2" fill="#ffffff" data-semantic-role="answer_blank" />
  <rect id="slot.operation_2_box.rect" x="207" y="45.072" width="64" height="28" fill="#e9f8dd" stroke="#a9ce93" stroke-width="1.2" data-semantic-role="operation" />
  <path id="slot.answer_2_oval.path" d="M 270 96.072 C 270 81.072 326 81.072 326 96.072 C 326 111.072 270 111.072 270 96.072 Z" stroke="#ead5e9" stroke-width="1.2" fill="#ffffff" data-semantic-role="answer_blank" />
  <path id="konva_1784508924476_arrow_10107.path" d="M 60.695 79.141 L 80.447 59.852 M 80.447 59.852 L 76.581 70.484 M 80.447 59.852 L 69.723 63.461" stroke="#111827" stroke-width="1.2" fill="none" />
  <path id="konva_1784508924476_paste_46500_0.path" d="M 169.752 78.521 L 189.504 59.232 M 189.504 59.232 L 185.638 69.864 M 189.504 59.232 L 178.78 62.841" stroke="#111827" stroke-width="1.2" fill="none" />
  <path id="konva_1784508924476_paste_46916_0.path" d="M 293.37 76.136 L 313.122 56.847 M 313.122 56.847 L 309.256 67.479 M 313.122 56.847 L 302.398 60.456" stroke="#111827" stroke-width="1.2" fill="none" />
  <path id="konva_1784508924476_paste_96959_0.path" d="M 183.891 80.136 L 203.643 60.847 M 203.643 60.847 L 199.777 71.479 M 203.643 60.847 L 192.919 64.456" stroke="#111827" stroke-width="1.2" fill="none" />
  <text id="slot.instruction.text" x="16.254" y="22.545" fill="#111111" font-family="Noto Sans KR, sans-serif" font-size="15" max_width="222.057" data-slot-kind="text_box" data-box-x="16.254" data-box-y="7.545" data-box-width="222.057" data-box-height="26" data-line-height="1.15" data-semantic-role="instruction" text-anchor="start">빈 곳에 알맞은 수를 써넣으시오.</text>
  <text id="slot.start_value.text" x="50" y="102.072" fill="#111111" font-family="Noto Sans KR, sans-serif" font-size="15" text-anchor="middle" data-semantic-role="given_value">156</text>
  <text id="slot.operation_1.text" x="112" y="64.072" fill="#111111" font-family="Noto Sans KR, sans-serif" font-size="15" text-anchor="middle" data-semantic-role="operation">+278</text>
  <text id="slot.operation_2.text" x="236" y="64.072" fill="#111111" font-family="Noto Sans KR, sans-serif" font-size="15" text-anchor="middle" data-semantic-role="operation">+697</text>
</svg>
