<?xml version="1.0" encoding="UTF-8"?>
<svg xmlns="http://www.w3.org/2000/svg" width="940" height="520" viewBox="0 0 940 520">
  <metadata><problem_id>S3_초등_3_008723</problem_id></metadata>
  <rect x="0" y="0" width="940" height="520" fill="#FFFFFF" />
  <path id="slot.inserted.arc.1.path" d="M 395.54449462890625 237.96018981933594 A 95 125 0 0 1 575.5444946289062 237.96018981933594" stroke="#111827" stroke-width="1.5" fill="none" transform="rotate(90 485.12 190.03)" />
  <path id="slot.inserted.arc.1.copy4.path" d="M 255 280 A 95 130 0 0 1 435 280" stroke="#111827" stroke-width="1.5" fill="none" />
  <path id="slot.inserted.arc.1.copy5.path" d="M 435 375 A 95 130 0 0 1 615 375" stroke="#111827" stroke-width="1.5" fill="none" transform="rotate(180 524.12 327.2)" />
  <path id="slot.inserted.arc.1.copy6.path" d="M 301.27430725097656 410.06634521484375 A 95 130 0 0 1 481.27430725097656 410.06634521484375" stroke="#111827" stroke-width="1.5" fill="none" transform="rotate(270 391.9 369.16)" />
  <line id="slot.graphpaper.v0.line" x1="255" y1="100" x2="255" y2="460" stroke="#2563eb" stroke-width="1" />
  <line id="slot.graphpaper.v1.line" x1="300" y1="100" x2="300" y2="460" stroke="#2563eb" stroke-width="1" />
  <line id="slot.graphpaper.v2.line" x1="345" y1="100" x2="345" y2="460" stroke="#2563eb" stroke-width="1" />
  <line id="slot.graphpaper.v3.line" x1="390" y1="100" x2="390" y2="460" stroke="#2563eb" stroke-width="1" />
  <line id="slot.graphpaper.v4.line" x1="435" y1="100" x2="435" y2="460" stroke="#2563eb" stroke-width="1" />
  <line id="slot.graphpaper.v5.line" x1="480" y1="100" x2="480" y2="460" stroke="#2563eb" stroke-width="1" />
  <line id="slot.graphpaper.v6.line" x1="525" y1="100" x2="525" y2="460" stroke="#2563eb" stroke-width="1" />
  <line id="slot.graphpaper.v7.line" x1="570" y1="100" x2="570" y2="460" stroke="#2563eb" stroke-width="1" />
  <line id="slot.graphpaper.v8.line" x1="615" y1="100" x2="615" y2="460" stroke="#2563eb" stroke-width="1" />
  <line id="slot.graphpaper.h0.line" x1="255" y1="100" x2="615" y2="100" stroke="#2563eb" stroke-width="1" />
  <line id="slot.graphpaper.h1.line" x1="255" y1="145" x2="615" y2="145" stroke="#2563eb" stroke-width="1" />
  <line id="slot.graphpaper.h2.line" x1="255" y1="190" x2="615" y2="190" stroke="#2563eb" stroke-width="1" />
  <line id="slot.graphpaper.h3.line" x1="255" y1="235" x2="615" y2="235" stroke="#2563eb" stroke-width="1" />
  <line id="slot.graphpaper.h4.line" x1="255" y1="280" x2="615" y2="280" stroke="#2563eb" stroke-width="1" />
  <line id="slot.graphpaper.h5.line" x1="255" y1="325" x2="615" y2="325" stroke="#2563eb" stroke-width="1" />
  <line id="slot.graphpaper.h6.line" x1="255" y1="370" x2="615" y2="370" stroke="#2563eb" stroke-width="1" />
  <line id="slot.graphpaper.h7.line" x1="255" y1="415" x2="615" y2="415" stroke="#2563eb" stroke-width="1" />
  <line id="slot.graphpaper.h8.line" x1="255" y1="460" x2="615" y2="460" stroke="#2563eb" stroke-width="1" />
  <text id="slot.q1.text" x="10" y="34" fill="#111111" font-family="Noto Sans KR, sans-serif" font-size="28">세인이가 그림과 같은 모양을 그렸습니다. 이 모양을 그릴 때 컴퍼스의</text>
  <text id="slot.q2.text" x="10" y="68" fill="#111111" font-family="Noto Sans KR, sans-serif" font-size="28">    침을 꽂지 않은 곳을 찾아 기호를 선택하세요.</text>
  <circle id="slot.circle.outer.circle" cx="435" cy="280" r="180" stroke="#555555" stroke-width="2" fill="none" />
  <circle id="slot.pt.a.circle" cx="345" cy="189" r="4" stroke="#111111" stroke-width="2" fill="#d81b60" />
  <circle id="slot.pt.b.circle" cx="437" cy="190" r="4" stroke="#111111" stroke-width="2" fill="#d81b60" />
  <circle id="slot.pt.c.circle" cx="346" cy="279" r="4" stroke="#111111" stroke-width="2" fill="#d81b60" />
  <circle id="slot.pt.d.circle" cx="526" cy="280" r="4" stroke="#111111" stroke-width="2" fill="#d81b60" />
  <circle id="slot.pt.e.circle" cx="435" cy="280" r="4" stroke="#111111" stroke-width="2" fill="#d81b60" />
  <circle id="slot.pt.f.circle" cx="436" cy="370" r="4" stroke="#111111" stroke-width="2" fill="#d81b60" />
  <text id="slot.lb.a.text" x="350" y="175" fill="#111111" font-family="Noto Sans KR, sans-serif" font-size="30">ㄱ</text>
  <text id="slot.lb.b.text" x="445" y="175" fill="#111111" font-family="Noto Sans KR, sans-serif" font-size="30">ㄴ</text>
  <text id="slot.lb.c.text" x="355" y="269" fill="#111111" font-family="Noto Sans KR, sans-serif" font-size="30">ㄷ</text>
  <text id="slot.lb.d.text" x="445" y="269" fill="#111111" font-family="Noto Sans KR, sans-serif" font-size="30">ㄹ</text>
  <text id="slot.lb.e.text" x="530" y="269" fill="#111111" font-family="Noto Sans KR, sans-serif" font-size="30">ㅁ</text>
  <text id="slot.lb.f.text" x="400" y="360" fill="#111111" font-family="Noto Sans KR, sans-serif" font-size="30">ㅂ</text>
</svg>
