<?xml version="1.0" encoding="UTF-8"?>
<svg xmlns="http://www.w3.org/2000/svg" xmlns:xlink="http://www.w3.org/1999/xlink" width="940" height="470" viewBox="0 0 940 470">
  <metadata><problem_id>S3_초등_3_008681</problem_id></metadata>
  <rect x="0" y="0" width="940" height="470" fill="#FFFFFF" />
  <circle id="slot.choice.1.rule.mark.circle" cx="276.049" cy="223.721" r="1.2" stroke="#111111" stroke-width="2" fill="#444444" />
  <circle id="slot.choice.2.rule.mark.circle" cx="494.049" cy="223.721" r="1.2" stroke="#111111" stroke-width="2" fill="#444444" />
  <circle id="slot.choice.3.rule.mark.circle" cx="778.049" cy="223.721" r="1.2" stroke="#111111" stroke-width="2" fill="#444444" />
  <rect id="slot.choice.1.rule.base.rect" x="226.049" y="221.721" width="88" height="30" fill="#d9f2ff" stroke="#66bdf0" stroke-width="1.6" />
  <rect id="slot.choice.1.compass.head.rect" x="250.849" y="119.721" width="6.4" height="16" fill="#a7acb3" stroke="#626871" stroke-width="1" rx="2" ry="2" />
  <path id="slot.choice.1.compass.left_outer.path" d="M 252.249 142.721 L 230.449 220.721" stroke="#7e8b97" stroke-width="3.2" fill="none" />
  <path id="slot.choice.1.compass.left_inner.path" d="M 253.449 142.721 L 231.649 220.721" stroke="#c8cfd6" stroke-width="1.2" fill="none" />
  <path id="slot.choice.1.compass.right_outer.path" d="M 255.849 142.721 L 277.649 220.721" stroke="#7e8b97" stroke-width="3.2" fill="none" />
  <path id="slot.choice.1.compass.right_inner.path" d="M 254.649 142.721 L 276.449 220.721" stroke="#c8cfd6" stroke-width="1.2" fill="none" />
  <rect id="slot.choice.2.rule.base.rect" x="466.049" y="221.721" width="88" height="30" fill="#d9f2ff" stroke="#66bdf0" stroke-width="1.6" />
  <rect id="slot.choice.2.compass.head.rect" x="490.849" y="119.721" width="6.4" height="16" fill="#a7acb3" stroke="#626871" stroke-width="1" rx="2" ry="2" />
  <path id="slot.choice.2.compass.left_outer.path" d="M 492.249 142.721 L 470.449 220.721" stroke="#7e8b97" stroke-width="3.2" fill="none" />
  <path id="slot.choice.2.compass.left_inner.path" d="M 493.449 142.721 L 471.649 220.721" stroke="#c8cfd6" stroke-width="1.2" fill="none" />
  <path id="slot.choice.2.compass.right_outer.path" d="M 495.849 142.721 L 495.649 220.721" stroke="#7e8b97" stroke-width="3.2" fill="none" />
  <path id="slot.choice.2.compass.right_inner.path" d="M 494.649 142.721 L 494.449 220.721" stroke="#c8cfd6" stroke-width="1.2" fill="none" />
  <rect id="slot.choice.3.rule.base.rect" x="706.049" y="221.721" width="88" height="30" fill="#d9f2ff" stroke="#66bdf0" stroke-width="1.6" />
  <rect id="slot.choice.3.compass.head.rect" x="730.849" y="119.721" width="6.4" height="16" fill="#a7acb3" stroke="#626871" stroke-width="1" rx="2" ry="2" />
  <path id="slot.choice.3.compass.left_outer.path" d="M 732.249 142.721 L 710.449 220.721" stroke="#7e8b97" stroke-width="3.2" fill="none" />
  <path id="slot.choice.3.compass.left_inner.path" d="M 733.449 142.721 L 711.649 220.721" stroke="#c8cfd6" stroke-width="1.2" fill="none" />
  <path id="slot.choice.3.compass.right_outer.path" d="M 735.849 142.721 L 779.649 220.721" stroke="#7e8b97" stroke-width="3.2" fill="none" />
  <path id="slot.choice.3.compass.right_inner.path" d="M 734.649 142.721 L 778.449 220.721" stroke="#c8cfd6" stroke-width="1.2" fill="none" />
  <line id="slot.choice.1.rule.top.line" x1="226.049" y1="223.721" x2="314.049" y2="223.721" stroke="#66bdf0" stroke-width="1.2" />
  <line id="slot.choice.1.rule.bottom.line" x1="226.049" y1="245.721" x2="314.049" y2="245.721" stroke="#66bdf0" stroke-width="1.2" />
  <line id="slot.choice.1.rule.major.0.line" x1="232.049" y1="223.721" x2="232.049" y2="233.721" stroke="#66bdf0" stroke-width="1.1" />
  <line id="slot.choice.1.rule.minor.0.1.line" x1="236.449" y1="223.721" x2="236.449" y2="229.221" stroke="#66bdf0" stroke-width="0.9" />
  <line id="slot.choice.1.rule.minor.0.2.line" x1="240.849" y1="223.721" x2="240.849" y2="230.721" stroke="#66bdf0" stroke-width="0.9" />
  <line id="slot.choice.1.rule.minor.0.3.line" x1="245.249" y1="223.721" x2="245.249" y2="229.221" stroke="#66bdf0" stroke-width="0.9" />
  <line id="slot.choice.1.rule.minor.0.4.line" x1="249.649" y1="223.721" x2="249.649" y2="229.221" stroke="#66bdf0" stroke-width="0.9" />
  <line id="slot.choice.1.rule.major.1.line" x1="254.049" y1="223.721" x2="254.049" y2="233.721" stroke="#66bdf0" stroke-width="1.1" />
  <line id="slot.choice.1.rule.minor.1.1.line" x1="258.449" y1="223.721" x2="258.449" y2="229.221" stroke="#66bdf0" stroke-width="0.9" />
  <line id="slot.choice.1.rule.minor.1.2.line" x1="262.849" y1="223.721" x2="262.849" y2="230.721" stroke="#66bdf0" stroke-width="0.9" />
  <line id="slot.choice.1.rule.minor.1.3.line" x1="267.249" y1="223.721" x2="267.249" y2="229.221" stroke="#66bdf0" stroke-width="0.9" />
  <line id="slot.choice.1.rule.minor.1.4.line" x1="271.649" y1="223.721" x2="271.649" y2="229.221" stroke="#66bdf0" stroke-width="0.9" />
  <line id="slot.choice.1.rule.major.2.line" x1="276.049" y1="223.721" x2="276.049" y2="233.721" stroke="#66bdf0" stroke-width="1.1" />
  <line id="slot.choice.1.rule.minor.2.1.line" x1="280.449" y1="223.721" x2="280.449" y2="229.221" stroke="#66bdf0" stroke-width="0.9" />
  <line id="slot.choice.1.rule.minor.2.2.line" x1="284.849" y1="223.721" x2="284.849" y2="230.721" stroke="#66bdf0" stroke-width="0.9" />
  <line id="slot.choice.1.rule.minor.2.3.line" x1="289.249" y1="223.721" x2="289.249" y2="229.221" stroke="#66bdf0" stroke-width="0.9" />
  <line id="slot.choice.1.rule.minor.2.4.line" x1="293.649" y1="223.721" x2="293.649" y2="229.221" stroke="#66bdf0" stroke-width="0.9" />
  <line id="slot.choice.1.rule.major.3.line" x1="298.049" y1="223.721" x2="298.049" y2="233.721" stroke="#66bdf0" stroke-width="1.1" />
  <line id="slot.choice.2.rule.top.line" x1="466.049" y1="223.721" x2="554.049" y2="223.721" stroke="#66bdf0" stroke-width="1.2" />
  <line id="slot.choice.2.rule.bottom.line" x1="466.049" y1="245.721" x2="554.049" y2="245.721" stroke="#66bdf0" stroke-width="1.2" />
  <line id="slot.choice.2.rule.major.0.line" x1="472.049" y1="223.721" x2="472.049" y2="233.721" stroke="#66bdf0" stroke-width="1.1" />
  <line id="slot.choice.2.rule.minor.0.1.line" x1="476.449" y1="223.721" x2="476.449" y2="229.221" stroke="#66bdf0" stroke-width="0.9" />
  <line id="slot.choice.2.rule.minor.0.2.line" x1="480.849" y1="223.721" x2="480.849" y2="230.721" stroke="#66bdf0" stroke-width="0.9" />
  <line id="slot.choice.2.rule.minor.0.3.line" x1="485.249" y1="223.721" x2="485.249" y2="229.221" stroke="#66bdf0" stroke-width="0.9" />
  <line id="slot.choice.2.rule.minor.0.4.line" x1="489.649" y1="223.721" x2="489.649" y2="229.221" stroke="#66bdf0" stroke-width="0.9" />
  <line id="slot.choice.2.rule.major.1.line" x1="494.049" y1="223.721" x2="494.049" y2="233.721" stroke="#66bdf0" stroke-width="1.1" />
  <line id="slot.choice.2.rule.minor.1.1.line" x1="498.449" y1="223.721" x2="498.449" y2="229.221" stroke="#66bdf0" stroke-width="0.9" />
  <line id="slot.choice.2.rule.minor.1.2.line" x1="502.849" y1="223.721" x2="502.849" y2="230.721" stroke="#66bdf0" stroke-width="0.9" />
  <line id="slot.choice.2.rule.minor.1.3.line" x1="507.249" y1="223.721" x2="507.249" y2="229.221" stroke="#66bdf0" stroke-width="0.9" />
  <line id="slot.choice.2.rule.minor.1.4.line" x1="511.649" y1="223.721" x2="511.649" y2="229.221" stroke="#66bdf0" stroke-width="0.9" />
  <line id="slot.choice.2.rule.major.2.line" x1="516.049" y1="223.721" x2="516.049" y2="233.721" stroke="#66bdf0" stroke-width="1.1" />
  <line id="slot.choice.2.rule.minor.2.1.line" x1="520.449" y1="223.721" x2="520.449" y2="229.221" stroke="#66bdf0" stroke-width="0.9" />
  <line id="slot.choice.2.rule.minor.2.2.line" x1="524.849" y1="223.721" x2="524.849" y2="230.721" stroke="#66bdf0" stroke-width="0.9" />
  <line id="slot.choice.2.rule.minor.2.3.line" x1="529.249" y1="223.721" x2="529.249" y2="229.221" stroke="#66bdf0" stroke-width="0.9" />
  <line id="slot.choice.2.rule.minor.2.4.line" x1="533.649" y1="223.721" x2="533.649" y2="229.221" stroke="#66bdf0" stroke-width="0.9" />
  <line id="slot.choice.2.rule.major.3.line" x1="538.049" y1="223.721" x2="538.049" y2="233.721" stroke="#66bdf0" stroke-width="1.1" />
  <line id="slot.choice.3.rule.top.line" x1="706.049" y1="223.721" x2="794.049" y2="223.721" stroke="#66bdf0" stroke-width="1.2" />
  <line id="slot.choice.3.rule.bottom.line" x1="706.049" y1="245.721" x2="794.049" y2="245.721" stroke="#66bdf0" stroke-width="1.2" />
  <line id="slot.choice.3.rule.major.0.line" x1="712.049" y1="223.721" x2="712.049" y2="233.721" stroke="#66bdf0" stroke-width="1.1" />
  <line id="slot.choice.3.rule.minor.0.1.line" x1="716.449" y1="223.721" x2="716.449" y2="229.221" stroke="#66bdf0" stroke-width="0.9" />
  <line id="slot.choice.3.rule.minor.0.2.line" x1="720.849" y1="223.721" x2="720.849" y2="230.721" stroke="#66bdf0" stroke-width="0.9" />
  <line id="slot.choice.3.rule.minor.0.3.line" x1="725.249" y1="223.721" x2="725.249" y2="229.221" stroke="#66bdf0" stroke-width="0.9" />
  <line id="slot.choice.3.rule.minor.0.4.line" x1="729.649" y1="223.721" x2="729.649" y2="229.221" stroke="#66bdf0" stroke-width="0.9" />
  <line id="slot.choice.3.rule.major.1.line" x1="734.049" y1="223.721" x2="734.049" y2="233.721" stroke="#66bdf0" stroke-width="1.1" />
  <line id="slot.choice.3.rule.minor.1.1.line" x1="738.449" y1="223.721" x2="738.449" y2="229.221" stroke="#66bdf0" stroke-width="0.9" />
  <line id="slot.choice.3.rule.minor.1.2.line" x1="742.849" y1="223.721" x2="742.849" y2="230.721" stroke="#66bdf0" stroke-width="0.9" />
  <line id="slot.choice.3.rule.minor.1.3.line" x1="747.249" y1="223.721" x2="747.249" y2="229.221" stroke="#66bdf0" stroke-width="0.9" />
  <line id="slot.choice.3.rule.minor.1.4.line" x1="751.649" y1="223.721" x2="751.649" y2="229.221" stroke="#66bdf0" stroke-width="0.9" />
  <line id="slot.choice.3.rule.major.2.line" x1="756.049" y1="223.721" x2="756.049" y2="233.721" stroke="#66bdf0" stroke-width="1.1" />
  <line id="slot.choice.3.rule.minor.2.1.line" x1="760.449" y1="223.721" x2="760.449" y2="229.221" stroke="#66bdf0" stroke-width="0.9" />
  <line id="slot.choice.3.rule.minor.2.2.line" x1="764.849" y1="223.721" x2="764.849" y2="230.721" stroke="#66bdf0" stroke-width="0.9" />
  <line id="slot.choice.3.rule.minor.2.3.line" x1="769.249" y1="223.721" x2="769.249" y2="229.221" stroke="#66bdf0" stroke-width="0.9" />
  <line id="slot.choice.3.rule.minor.2.4.line" x1="773.649" y1="223.721" x2="773.649" y2="229.221" stroke="#66bdf0" stroke-width="0.9" />
  <line id="slot.choice.3.rule.major.3.line" x1="778.049" y1="223.721" x2="778.049" y2="233.721" stroke="#66bdf0" stroke-width="1.1" />
  <circle id="slot.choice.1.compass.joint.circle" cx="254.049" cy="139.721" r="3.2" stroke="#111111" stroke-width="2" fill="#8a8f98" />
  <circle id="slot.choice.1.compass.left_tip.circle" cx="232.049" cy="223.721" r="1.6" stroke="#111111" stroke-width="2" fill="#666666" />
  <circle id="slot.choice.1.compass.right_tip.circle" cx="276.049" cy="223.721" r="1.6" stroke="#111111" stroke-width="2" fill="#666666" />
  <circle id="slot.choice.2.compass.joint.circle" cx="494.049" cy="139.721" r="3.2" stroke="#111111" stroke-width="2" fill="#8a8f98" />
  <circle id="slot.choice.2.compass.left_tip.circle" cx="472.049" cy="223.721" r="1.6" stroke="#111111" stroke-width="2" fill="#666666" />
  <circle id="slot.choice.2.compass.right_tip.circle" cx="494.049" cy="223.721" r="1.6" stroke="#111111" stroke-width="2" fill="#666666" />
  <circle id="slot.choice.3.compass.joint.circle" cx="734.049" cy="139.721" r="3.2" stroke="#111111" stroke-width="2" fill="#8a8f98" />
  <circle id="slot.choice.3.compass.left_tip.circle" cx="712.049" cy="223.721" r="1.6" stroke="#111111" stroke-width="2" fill="#666666" />
  <circle id="slot.choice.3.compass.right_tip.circle" cx="778.049" cy="223.721" r="1.6" stroke="#111111" stroke-width="2" fill="#666666" />
  <text id="slot.q_text.text" x="40.049" y="64.721" fill="#111111" font-family="Noto Sans KR, sans-serif" font-size="30">반지름이 3 cm인 원을 그리도록 컴퍼스를 벌린 것을 찾아 선택해 보세요.</text>
  <text id="slot.q_text.copy1.text" x="155.049" y="187.721" fill="#111111" font-family="Noto Sans KR, sans-serif" font-size="30">1.</text>
  <text id="slot.q_text.copy1.copy2.text" x="390.049" y="182.721" fill="#111111" font-family="Noto Sans KR, sans-serif" font-size="30">2.</text>
  <text id="slot.q_text.copy1.copy3.text" x="655.049" y="192.721" fill="#111111" font-family="Noto Sans KR, sans-serif" font-size="30">3.</text>
  <text id="slot.choice.1.rule.num.0.text" x="229.549" y="244.721" fill="#111111" font-family="Noto Sans KR, sans-serif" font-size="20">0</text>
  <text id="slot.choice.1.rule.num.1.text" x="251.549" y="244.721" fill="#111111" font-family="Noto Sans KR, sans-serif" font-size="20">1</text>
  <text id="slot.choice.1.rule.num.2.text" x="273.549" y="244.721" fill="#111111" font-family="Noto Sans KR, sans-serif" font-size="20">2</text>
  <text id="slot.choice.1.rule.num.3.text" x="295.549" y="244.721" fill="#111111" font-family="Noto Sans KR, sans-serif" font-size="20">3</text>
  <text id="slot.choice.2.rule.num.0.text" x="469.549" y="244.721" fill="#111111" font-family="Noto Sans KR, sans-serif" font-size="20">0</text>
  <text id="slot.choice.2.rule.num.1.text" x="491.549" y="244.721" fill="#111111" font-family="Noto Sans KR, sans-serif" font-size="20">1</text>
  <text id="slot.choice.2.rule.num.2.text" x="513.549" y="244.721" fill="#111111" font-family="Noto Sans KR, sans-serif" font-size="20">2</text>
  <text id="slot.choice.2.rule.num.3.text" x="535.549" y="244.721" fill="#111111" font-family="Noto Sans KR, sans-serif" font-size="20">3</text>
  <text id="slot.choice.3.rule.num.0.text" x="709.549" y="244.721" fill="#111111" font-family="Noto Sans KR, sans-serif" font-size="20">0</text>
  <text id="slot.choice.3.rule.num.1.text" x="731.549" y="244.721" fill="#111111" font-family="Noto Sans KR, sans-serif" font-size="20">1</text>
  <text id="slot.choice.3.rule.num.2.text" x="753.549" y="244.721" fill="#111111" font-family="Noto Sans KR, sans-serif" font-size="20">2</text>
  <text id="slot.choice.3.rule.num.3.text" x="775.549" y="244.721" fill="#111111" font-family="Noto Sans KR, sans-serif" font-size="20">3</text>
</svg>
