<?xml version="1.0" encoding="UTF-8"?>
<svg xmlns="http://www.w3.org/2000/svg" xmlns:xlink="http://www.w3.org/1999/xlink" width="920" height="380" viewBox="0 0 920 380">
  <metadata><problem_id>S3_초등_3_008663</problem_id></metadata>
  <rect x="0" y="0" width="920" height="380" fill="#FFFFFF" />
  <rect id="slot.choice1.ruler.body.rect" x="227.672" y="273.23" width="93" height="32" fill="#DDF6FF" stroke="#19B5F2" stroke-width="1.2" />
  <rect id="slot.choice1.compass.head.rect" x="241.072" y="157.59" width="9.200000000000001" height="16.560000000000002" fill="#8B9195" stroke="#42474B" stroke-width="1" rx="1.84" ry="1.84" />
  <rect id="slot.choice1.compass.knob.rect" x="243.832" y="145.63" width="3.68" height="11.040000000000001" fill="#7F8589" stroke="#42474B" stroke-width="0.8" />
  <rect id="slot.choice1.compass.clamp.rect" x="252.232" y="236.43" width="12.88" height="7.36" fill="#6D7378" stroke="#42474B" stroke-width="0.8" />
  <rect id="slot.choice1.compass.pencil.body.rect" x="255.912" y="194.11" width="5.5200000000000005" height="69" fill="#A9B84B" stroke="#879036" stroke-width="0.9" />
  <polygon id="slot.choice1.compass.pencil.tip.polygon" points="222.4,173.95999999999998 231.6,173.95999999999998 227,185.92" stroke="#9E7130" stroke-width="0.8" fill="#E8B55D" />
  <rect id="slot.choice2.ruler.body.rect" x="447.672" y="273.23" width="93" height="32" fill="#DDF6FF" stroke="#19B5F2" stroke-width="1.2" />
  <rect id="slot.choice2.compass.head.rect" x="476.072" y="157.59" width="9.200000000000001" height="16.560000000000002" fill="#8B9195" stroke="#42474B" stroke-width="1" rx="1.84" ry="1.84" />
  <rect id="slot.choice2.compass.knob.rect" x="478.832" y="145.63" width="3.68" height="11.040000000000001" fill="#7F8589" stroke="#42474B" stroke-width="0.8" />
  <rect id="slot.choice2.compass.clamp.rect" x="503.232" y="236.43" width="12.88" height="7.36" fill="#6D7378" stroke="#42474B" stroke-width="0.8" />
  <rect id="slot.choice2.compass.pencil.body.rect" x="506.912" y="194.11" width="5.5200000000000005" height="69" fill="#A9B84B" stroke="#879036" stroke-width="0.9" />
  <polygon id="slot.choice2.compass.pencil.tip.polygon" points="473.4,173.95999999999998 482.6,173.95999999999998 478,185.92" stroke="#9E7130" stroke-width="0.8" fill="#E8B55D" />
  <rect id="slot.choice3.ruler.body.rect" x="669.672" y="273.23" width="93" height="32" fill="#DDF6FF" stroke="#19B5F2" stroke-width="1.2" />
  <rect id="slot.choice3.compass.head.rect" x="713.072" y="157.59" width="9.200000000000001" height="16.560000000000002" fill="#8B9195" stroke="#42474B" stroke-width="1" rx="1.84" ry="1.84" />
  <rect id="slot.choice3.compass.knob.rect" x="715.832" y="145.63" width="3.68" height="11.040000000000001" fill="#7F8589" stroke="#42474B" stroke-width="0.8" />
  <rect id="slot.choice3.compass.clamp.rect" x="756.232" y="236.43" width="12.88" height="7.36" fill="#6D7378" stroke="#42474B" stroke-width="0.8" />
  <rect id="slot.choice3.compass.pencil.body.rect" x="759.912" y="194.11" width="5.5200000000000005" height="69" fill="#A9B84B" stroke="#879036" stroke-width="0.9" />
  <polygon id="slot.choice3.compass.pencil.tip.polygon" points="726.4,173.95999999999998 735.6,173.95999999999998 731,185.92" stroke="#9E7130" stroke-width="0.8" fill="#E8B55D" />
  <line id="slot.choice1.ruler.top.line" x1="227.672" y1="281.23" x2="320.672" y2="281.23" stroke="#19B5F2" stroke-width="1.1" />
  <line id="slot.choice1.ruler.tick.00.line" x1="227.672" y1="281.23" x2="227.672" y2="293.23" stroke="#19B5F2" stroke-width="1" />
  <line id="slot.choice1.ruler.tick.01.line" x1="230.772" y1="281.23" x2="230.772" y2="287.23" stroke="#19B5F2" stroke-width="0.7" />
  <line id="slot.choice1.ruler.tick.02.line" x1="233.872" y1="281.23" x2="233.872" y2="287.23" stroke="#19B5F2" stroke-width="0.7" />
  <line id="slot.choice1.ruler.tick.03.line" x1="236.972" y1="281.23" x2="236.972" y2="287.23" stroke="#19B5F2" stroke-width="0.7" />
  <line id="slot.choice1.ruler.tick.04.line" x1="240.072" y1="281.23" x2="240.072" y2="287.23" stroke="#19B5F2" stroke-width="0.7" />
  <line id="slot.choice1.ruler.tick.05.line" x1="243.172" y1="281.23" x2="243.172" y2="290.23" stroke="#19B5F2" stroke-width="0.85" />
  <line id="slot.choice1.ruler.tick.06.line" x1="246.272" y1="281.23" x2="246.272" y2="287.23" stroke="#19B5F2" stroke-width="0.7" />
  <line id="slot.choice1.ruler.tick.07.line" x1="249.372" y1="281.23" x2="249.372" y2="287.23" stroke="#19B5F2" stroke-width="0.7" />
  <line id="slot.choice1.ruler.tick.08.line" x1="252.472" y1="281.23" x2="252.472" y2="287.23" stroke="#19B5F2" stroke-width="0.7" />
  <line id="slot.choice1.ruler.tick.09.line" x1="255.572" y1="281.23" x2="255.572" y2="287.23" stroke="#19B5F2" stroke-width="0.7" />
  <line id="slot.choice1.ruler.tick.10.line" x1="258.672" y1="281.23" x2="258.672" y2="293.23" stroke="#19B5F2" stroke-width="1" />
  <line id="slot.choice1.ruler.tick.11.line" x1="261.772" y1="281.23" x2="261.772" y2="287.23" stroke="#19B5F2" stroke-width="0.7" />
  <line id="slot.choice1.ruler.tick.12.line" x1="264.872" y1="281.23" x2="264.872" y2="287.23" stroke="#19B5F2" stroke-width="0.7" />
  <line id="slot.choice1.ruler.tick.13.line" x1="267.972" y1="281.23" x2="267.972" y2="287.23" stroke="#19B5F2" stroke-width="0.7" />
  <line id="slot.choice1.ruler.tick.14.line" x1="271.072" y1="281.23" x2="271.072" y2="287.23" stroke="#19B5F2" stroke-width="0.7" />
  <line id="slot.choice1.ruler.tick.15.line" x1="274.172" y1="281.23" x2="274.172" y2="290.23" stroke="#19B5F2" stroke-width="0.85" />
  <line id="slot.choice1.ruler.tick.16.line" x1="277.272" y1="281.23" x2="277.272" y2="287.23" stroke="#19B5F2" stroke-width="0.7" />
  <line id="slot.choice1.ruler.tick.17.line" x1="280.372" y1="281.23" x2="280.372" y2="287.23" stroke="#19B5F2" stroke-width="0.7" />
  <line id="slot.choice1.ruler.tick.18.line" x1="283.472" y1="281.23" x2="283.472" y2="287.23" stroke="#19B5F2" stroke-width="0.7" />
  <line id="slot.choice1.ruler.tick.19.line" x1="286.572" y1="281.23" x2="286.572" y2="287.23" stroke="#19B5F2" stroke-width="0.7" />
  <line id="slot.choice1.ruler.tick.20.line" x1="289.672" y1="281.23" x2="289.672" y2="293.23" stroke="#19B5F2" stroke-width="1" />
  <line id="slot.choice1.ruler.tick.21.line" x1="292.772" y1="281.23" x2="292.772" y2="287.23" stroke="#19B5F2" stroke-width="0.7" />
  <line id="slot.choice1.ruler.tick.22.line" x1="295.872" y1="281.23" x2="295.872" y2="287.23" stroke="#19B5F2" stroke-width="0.7" />
  <line id="slot.choice1.ruler.tick.23.line" x1="298.972" y1="281.23" x2="298.972" y2="287.23" stroke="#19B5F2" stroke-width="0.7" />
  <line id="slot.choice1.ruler.tick.24.line" x1="302.072" y1="281.23" x2="302.072" y2="287.23" stroke="#19B5F2" stroke-width="0.7" />
  <line id="slot.choice1.ruler.tick.25.line" x1="305.172" y1="281.23" x2="305.172" y2="290.23" stroke="#19B5F2" stroke-width="0.85" />
  <line id="slot.choice1.ruler.tick.26.line" x1="308.272" y1="281.23" x2="308.272" y2="287.23" stroke="#19B5F2" stroke-width="0.7" />
  <line id="slot.choice1.ruler.tick.27.line" x1="311.372" y1="281.23" x2="311.372" y2="287.23" stroke="#19B5F2" stroke-width="0.7" />
  <line id="slot.choice1.ruler.tick.28.line" x1="314.472" y1="281.23" x2="314.472" y2="287.23" stroke="#19B5F2" stroke-width="0.7" />
  <line id="slot.choice1.ruler.tick.29.line" x1="317.572" y1="281.23" x2="317.572" y2="287.23" stroke="#19B5F2" stroke-width="0.7" />
  <line id="slot.choice1.ruler.tick.30.line" x1="320.672" y1="281.23" x2="320.672" y2="293.23" stroke="#19B5F2" stroke-width="1" />
  <line id="slot.choice1.compass.leg.left.outer.line" x1="241.992" y1="180.59" x2="227.672" y2="265.87" stroke="#42474B" stroke-width="1.2" />
  <line id="slot.choice1.compass.leg.left.inner.line" x1="246.592" y1="180.59" x2="232.272" y2="265.87" stroke="#C7DCE3" stroke-width="3" />
  <line id="slot.choice1.compass.leg.right.outer.line" x1="249.352" y1="180.59" x2="258.672" y2="261.27" stroke="#42474B" stroke-width="1.2" />
  <line id="slot.choice1.compass.leg.right.inner.line" x1="244.752" y1="180.59" x2="253.152" y2="249.31" stroke="#C7DCE3" stroke-width="3" />
  <line id="slot.choice1.compass.bar.left.line" x1="234.152" y1="232.519" x2="254.382" y2="235.298" stroke="#6D7378" stroke-width="1.2" />
  <line id="slot.choice1.compass.needle.tip.line" x1="227.672" y1="258.51" x2="227.672" y2="273.23" stroke="#42474B" stroke-width="1.2" />
  <line id="slot.choice2.ruler.top.line" x1="447.672" y1="281.23" x2="540.672" y2="281.23" stroke="#19B5F2" stroke-width="1.1" />
  <line id="slot.choice2.ruler.tick.00.line" x1="447.672" y1="281.23" x2="447.672" y2="293.23" stroke="#19B5F2" stroke-width="1" />
  <line id="slot.choice2.ruler.tick.01.line" x1="450.772" y1="281.23" x2="450.772" y2="287.23" stroke="#19B5F2" stroke-width="0.7" />
  <line id="slot.choice2.ruler.tick.02.line" x1="453.872" y1="281.23" x2="453.872" y2="287.23" stroke="#19B5F2" stroke-width="0.7" />
  <line id="slot.choice2.ruler.tick.03.line" x1="456.972" y1="281.23" x2="456.972" y2="287.23" stroke="#19B5F2" stroke-width="0.7" />
  <line id="slot.choice2.ruler.tick.04.line" x1="460.072" y1="281.23" x2="460.072" y2="287.23" stroke="#19B5F2" stroke-width="0.7" />
  <line id="slot.choice2.ruler.tick.05.line" x1="463.172" y1="281.23" x2="463.172" y2="290.23" stroke="#19B5F2" stroke-width="0.85" />
  <line id="slot.choice2.ruler.tick.06.line" x1="466.272" y1="281.23" x2="466.272" y2="287.23" stroke="#19B5F2" stroke-width="0.7" />
  <line id="slot.choice2.ruler.tick.07.line" x1="469.372" y1="281.23" x2="469.372" y2="287.23" stroke="#19B5F2" stroke-width="0.7" />
  <line id="slot.choice2.ruler.tick.08.line" x1="472.472" y1="281.23" x2="472.472" y2="287.23" stroke="#19B5F2" stroke-width="0.7" />
  <line id="slot.choice2.ruler.tick.09.line" x1="475.572" y1="281.23" x2="475.572" y2="287.23" stroke="#19B5F2" stroke-width="0.7" />
  <line id="slot.choice2.ruler.tick.10.line" x1="478.672" y1="281.23" x2="478.672" y2="293.23" stroke="#19B5F2" stroke-width="1" />
  <line id="slot.choice2.ruler.tick.11.line" x1="481.772" y1="281.23" x2="481.772" y2="287.23" stroke="#19B5F2" stroke-width="0.7" />
  <line id="slot.choice2.ruler.tick.12.line" x1="484.872" y1="281.23" x2="484.872" y2="287.23" stroke="#19B5F2" stroke-width="0.7" />
  <line id="slot.choice2.ruler.tick.13.line" x1="487.972" y1="281.23" x2="487.972" y2="287.23" stroke="#19B5F2" stroke-width="0.7" />
  <line id="slot.choice2.ruler.tick.14.line" x1="491.072" y1="281.23" x2="491.072" y2="287.23" stroke="#19B5F2" stroke-width="0.7" />
  <line id="slot.choice2.ruler.tick.15.line" x1="494.172" y1="281.23" x2="494.172" y2="290.23" stroke="#19B5F2" stroke-width="0.85" />
  <line id="slot.choice2.ruler.tick.16.line" x1="497.272" y1="281.23" x2="497.272" y2="287.23" stroke="#19B5F2" stroke-width="0.7" />
  <line id="slot.choice2.ruler.tick.17.line" x1="500.372" y1="281.23" x2="500.372" y2="287.23" stroke="#19B5F2" stroke-width="0.7" />
  <line id="slot.choice2.ruler.tick.18.line" x1="503.472" y1="281.23" x2="503.472" y2="287.23" stroke="#19B5F2" stroke-width="0.7" />
  <line id="slot.choice2.ruler.tick.19.line" x1="506.572" y1="281.23" x2="506.572" y2="287.23" stroke="#19B5F2" stroke-width="0.7" />
  <line id="slot.choice2.ruler.tick.20.line" x1="509.672" y1="281.23" x2="509.672" y2="293.23" stroke="#19B5F2" stroke-width="1" />
  <line id="slot.choice2.ruler.tick.21.line" x1="512.772" y1="281.23" x2="512.772" y2="287.23" stroke="#19B5F2" stroke-width="0.7" />
  <line id="slot.choice2.ruler.tick.22.line" x1="515.872" y1="281.23" x2="515.872" y2="287.23" stroke="#19B5F2" stroke-width="0.7" />
  <line id="slot.choice2.ruler.tick.23.line" x1="518.972" y1="281.23" x2="518.972" y2="287.23" stroke="#19B5F2" stroke-width="0.7" />
  <line id="slot.choice2.ruler.tick.24.line" x1="522.072" y1="281.23" x2="522.072" y2="287.23" stroke="#19B5F2" stroke-width="0.7" />
  <line id="slot.choice2.ruler.tick.25.line" x1="525.172" y1="281.23" x2="525.172" y2="290.23" stroke="#19B5F2" stroke-width="0.85" />
  <line id="slot.choice2.ruler.tick.26.line" x1="528.272" y1="281.23" x2="528.272" y2="287.23" stroke="#19B5F2" stroke-width="0.7" />
  <line id="slot.choice2.ruler.tick.27.line" x1="531.372" y1="281.23" x2="531.372" y2="287.23" stroke="#19B5F2" stroke-width="0.7" />
  <line id="slot.choice2.ruler.tick.28.line" x1="534.472" y1="281.23" x2="534.472" y2="287.23" stroke="#19B5F2" stroke-width="0.7" />
  <line id="slot.choice2.ruler.tick.29.line" x1="537.572" y1="281.23" x2="537.572" y2="287.23" stroke="#19B5F2" stroke-width="0.7" />
  <line id="slot.choice2.ruler.tick.30.line" x1="540.672" y1="281.23" x2="540.672" y2="293.23" stroke="#19B5F2" stroke-width="1" />
  <line id="slot.choice2.compass.leg.left.outer.line" x1="476.992" y1="180.59" x2="447.672" y2="265.87" stroke="#42474B" stroke-width="1.2" />
  <line id="slot.choice2.compass.leg.left.inner.line" x1="481.592" y1="180.59" x2="452.272" y2="265.87" stroke="#C7DCE3" stroke-width="3" />
  <line id="slot.choice2.compass.leg.right.outer.line" x1="484.352" y1="180.59" x2="509.672" y2="261.27" stroke="#42474B" stroke-width="1.2" />
  <line id="slot.choice2.compass.leg.right.inner.line" x1="479.752" y1="180.59" x2="504.152" y2="249.31" stroke="#C7DCE3" stroke-width="3" />
  <line id="slot.choice2.compass.bar.left.line" x1="459.552" y1="232.519" x2="500.102" y2="235.298" stroke="#6D7378" stroke-width="1.2" />
  <line id="slot.choice2.compass.needle.tip.line" x1="447.672" y1="258.51" x2="447.672" y2="273.23" stroke="#42474B" stroke-width="1.2" />
  <line id="slot.choice3.ruler.top.line" x1="669.672" y1="281.23" x2="762.672" y2="281.23" stroke="#19B5F2" stroke-width="1.1" />
  <line id="slot.choice3.ruler.tick.00.line" x1="669.672" y1="281.23" x2="669.672" y2="293.23" stroke="#19B5F2" stroke-width="1" />
  <line id="slot.choice3.ruler.tick.01.line" x1="672.772" y1="281.23" x2="672.772" y2="287.23" stroke="#19B5F2" stroke-width="0.7" />
  <line id="slot.choice3.ruler.tick.02.line" x1="675.872" y1="281.23" x2="675.872" y2="287.23" stroke="#19B5F2" stroke-width="0.7" />
  <line id="slot.choice3.ruler.tick.03.line" x1="678.972" y1="281.23" x2="678.972" y2="287.23" stroke="#19B5F2" stroke-width="0.7" />
  <line id="slot.choice3.ruler.tick.04.line" x1="682.072" y1="281.23" x2="682.072" y2="287.23" stroke="#19B5F2" stroke-width="0.7" />
  <line id="slot.choice3.ruler.tick.05.line" x1="685.172" y1="281.23" x2="685.172" y2="290.23" stroke="#19B5F2" stroke-width="0.85" />
  <line id="slot.choice3.ruler.tick.06.line" x1="688.272" y1="281.23" x2="688.272" y2="287.23" stroke="#19B5F2" stroke-width="0.7" />
  <line id="slot.choice3.ruler.tick.07.line" x1="691.372" y1="281.23" x2="691.372" y2="287.23" stroke="#19B5F2" stroke-width="0.7" />
  <line id="slot.choice3.ruler.tick.08.line" x1="694.472" y1="281.23" x2="694.472" y2="287.23" stroke="#19B5F2" stroke-width="0.7" />
  <line id="slot.choice3.ruler.tick.09.line" x1="697.572" y1="281.23" x2="697.572" y2="287.23" stroke="#19B5F2" stroke-width="0.7" />
  <line id="slot.choice3.ruler.tick.10.line" x1="700.672" y1="281.23" x2="700.672" y2="293.23" stroke="#19B5F2" stroke-width="1" />
  <line id="slot.choice3.ruler.tick.11.line" x1="703.772" y1="281.23" x2="703.772" y2="287.23" stroke="#19B5F2" stroke-width="0.7" />
  <line id="slot.choice3.ruler.tick.12.line" x1="706.872" y1="281.23" x2="706.872" y2="287.23" stroke="#19B5F2" stroke-width="0.7" />
  <line id="slot.choice3.ruler.tick.13.line" x1="709.972" y1="281.23" x2="709.972" y2="287.23" stroke="#19B5F2" stroke-width="0.7" />
  <line id="slot.choice3.ruler.tick.14.line" x1="713.072" y1="281.23" x2="713.072" y2="287.23" stroke="#19B5F2" stroke-width="0.7" />
  <line id="slot.choice3.ruler.tick.15.line" x1="716.172" y1="281.23" x2="716.172" y2="290.23" stroke="#19B5F2" stroke-width="0.85" />
  <line id="slot.choice3.ruler.tick.16.line" x1="719.272" y1="281.23" x2="719.272" y2="287.23" stroke="#19B5F2" stroke-width="0.7" />
  <line id="slot.choice3.ruler.tick.17.line" x1="722.372" y1="281.23" x2="722.372" y2="287.23" stroke="#19B5F2" stroke-width="0.7" />
  <line id="slot.choice3.ruler.tick.18.line" x1="725.472" y1="281.23" x2="725.472" y2="287.23" stroke="#19B5F2" stroke-width="0.7" />
  <line id="slot.choice3.ruler.tick.19.line" x1="728.572" y1="281.23" x2="728.572" y2="287.23" stroke="#19B5F2" stroke-width="0.7" />
  <line id="slot.choice3.ruler.tick.20.line" x1="731.672" y1="281.23" x2="731.672" y2="293.23" stroke="#19B5F2" stroke-width="1" />
  <line id="slot.choice3.ruler.tick.21.line" x1="734.772" y1="281.23" x2="734.772" y2="287.23" stroke="#19B5F2" stroke-width="0.7" />
  <line id="slot.choice3.ruler.tick.22.line" x1="737.872" y1="281.23" x2="737.872" y2="287.23" stroke="#19B5F2" stroke-width="0.7" />
  <line id="slot.choice3.ruler.tick.23.line" x1="740.972" y1="281.23" x2="740.972" y2="287.23" stroke="#19B5F2" stroke-width="0.7" />
  <line id="slot.choice3.ruler.tick.24.line" x1="744.072" y1="281.23" x2="744.072" y2="287.23" stroke="#19B5F2" stroke-width="0.7" />
  <line id="slot.choice3.ruler.tick.25.line" x1="747.172" y1="281.23" x2="747.172" y2="290.23" stroke="#19B5F2" stroke-width="0.85" />
  <line id="slot.choice3.ruler.tick.26.line" x1="750.272" y1="281.23" x2="750.272" y2="287.23" stroke="#19B5F2" stroke-width="0.7" />
  <line id="slot.choice3.ruler.tick.27.line" x1="753.372" y1="281.23" x2="753.372" y2="287.23" stroke="#19B5F2" stroke-width="0.7" />
  <line id="slot.choice3.ruler.tick.28.line" x1="756.472" y1="281.23" x2="756.472" y2="287.23" stroke="#19B5F2" stroke-width="0.7" />
  <line id="slot.choice3.ruler.tick.29.line" x1="759.572" y1="281.23" x2="759.572" y2="287.23" stroke="#19B5F2" stroke-width="0.7" />
  <line id="slot.choice3.ruler.tick.30.line" x1="762.672" y1="281.23" x2="762.672" y2="293.23" stroke="#19B5F2" stroke-width="1" />
  <line id="slot.choice3.compass.leg.left.outer.line" x1="713.992" y1="180.59" x2="669.672" y2="265.87" stroke="#42474B" stroke-width="1.2" />
  <line id="slot.choice3.compass.leg.left.inner.line" x1="718.592" y1="180.59" x2="674.272" y2="265.87" stroke="#C7DCE3" stroke-width="3" />
  <line id="slot.choice3.compass.leg.right.outer.line" x1="721.352" y1="180.59" x2="762.672" y2="261.27" stroke="#42474B" stroke-width="1.2" />
  <line id="slot.choice3.compass.leg.right.inner.line" x1="716.752" y1="180.59" x2="757.152" y2="249.31" stroke="#C7DCE3" stroke-width="3" />
  <line id="slot.choice3.compass.bar.left.line" x1="686.952" y1="232.519" x2="747.822" y2="235.298" stroke="#6D7378" stroke-width="1.2" />
  <line id="slot.choice3.compass.needle.tip.line" x1="669.672" y1="258.51" x2="669.672" y2="273.23" stroke="#42474B" stroke-width="1.2" />
  <circle id="slot.choice1.compass.hinge.circle" cx="245.672" cy="173.23" r="5.5200000000000005" stroke="#42474B" stroke-width="1" fill="#AEB4B7" />
  <circle id="slot.choice2.compass.hinge.circle" cx="480.672" cy="173.23" r="5.5200000000000005" stroke="#42474B" stroke-width="1" fill="#AEB4B7" />
  <circle id="slot.choice3.compass.hinge.circle" cx="717.672" cy="173.23" r="5.5200000000000005" stroke="#42474B" stroke-width="1" fill="#AEB4B7" />
  <text id="slot.q.text1.text" x="38.77" y="51.115" fill="#111111" font-family="Noto Sans KR, sans-serif" font-size="25">다음 중 반지름이 3 cm인 원을 그릴 수 있도록 컴퍼스를 바르게 벌린 것</text>
  <text id="slot.q.text2.text" x="37.508" y="90.131" fill="#111111" font-family="Noto Sans KR, sans-serif" font-size="25">을 선택하세요.</text>
  <text id="slot.q.text2.copy1.text" x="186.672" y="198.23" fill="#111111" font-family="Noto Sans KR, sans-serif" font-size="25">㉠</text>
  <text id="slot.q.text2.copy2.text" x="421.672" y="198.23" fill="#111111" font-family="Noto Sans KR, sans-serif" font-size="25">㉡</text>
  <text id="slot.q.text2.copy3.text" x="651.672" y="198.23" fill="#111111" font-family="Noto Sans KR, sans-serif" font-size="25">㉢</text>
  <text id="slot.choice1.ruler.label.0.text" x="227.672" y="297.23" fill="#333333" font-family="Noto Sans KR, sans-serif" font-size="15" text-anchor="middle">0</text>
  <text id="slot.choice1.ruler.label.1.text" x="258.672" y="297.23" fill="#333333" font-family="Noto Sans KR, sans-serif" font-size="15" text-anchor="middle">1</text>
  <text id="slot.choice1.ruler.label.2.text" x="289.672" y="297.23" fill="#333333" font-family="Noto Sans KR, sans-serif" font-size="15" text-anchor="middle">2</text>
  <text id="slot.choice1.ruler.label.3.text" x="320.672" y="297.23" fill="#333333" font-family="Noto Sans KR, sans-serif" font-size="15" text-anchor="middle">3</text>
  <text id="slot.choice2.ruler.label.0.text" x="447.672" y="297.23" fill="#333333" font-family="Noto Sans KR, sans-serif" font-size="15" text-anchor="middle">0</text>
  <text id="slot.choice2.ruler.label.1.text" x="478.672" y="297.23" fill="#333333" font-family="Noto Sans KR, sans-serif" font-size="15" text-anchor="middle">1</text>
  <text id="slot.choice2.ruler.label.2.text" x="509.672" y="297.23" fill="#333333" font-family="Noto Sans KR, sans-serif" font-size="15" text-anchor="middle">2</text>
  <text id="slot.choice2.ruler.label.3.text" x="540.672" y="297.23" fill="#333333" font-family="Noto Sans KR, sans-serif" font-size="15" text-anchor="middle">3</text>
  <text id="slot.choice3.ruler.label.0.text" x="669.672" y="297.23" fill="#333333" font-family="Noto Sans KR, sans-serif" font-size="15" text-anchor="middle">0</text>
  <text id="slot.choice3.ruler.label.1.text" x="700.672" y="297.23" fill="#333333" font-family="Noto Sans KR, sans-serif" font-size="15" text-anchor="middle">1</text>
  <text id="slot.choice3.ruler.label.2.text" x="731.672" y="297.23" fill="#333333" font-family="Noto Sans KR, sans-serif" font-size="15" text-anchor="middle">2</text>
  <text id="slot.choice3.ruler.label.3.text" x="762.672" y="297.23" fill="#333333" font-family="Noto Sans KR, sans-serif" font-size="15" text-anchor="middle">3</text>
</svg>
