<?xml version="1.0" encoding="UTF-8"?>
<svg xmlns="http://www.w3.org/2000/svg" width="1280" height="720" viewBox="0 0 1280 720">
  <rect x="0" y="0" width="1280" height="720" fill="#F7F7F7" />
  <text id="instruction" x="72" y="80" font-family="Malgun Gothic" font-size="42px" fill="#000000" font-weight="normal" text-anchor="start">2. 지우개의 길이는 몇 mm입니까?</text>
  <text id="sub_instruction" x="72" y="128" font-family="Malgun Gothic" font-size="30px" fill="#000000" font-weight="normal" text-anchor="start">(* 눈금을 잘 보아야 해요)</text>
  <rect id="ruler_body" x="220" y="330" width="820" height="170"  rx="0" stroke="#C9A000" stroke-width="6" fill="none" />
  <rect id="eraser_body" x="493.3333333333333" y="170" width="437.3333333333333" height="135"  rx="20" stroke="#4F6FB3" stroke-width="2" fill="#D9E5CF" />
  <text id="eraser_label" x="712" y="251.5" font-family="Malgun Gothic" font-size="42px" fill="#000000" font-weight="bold" text-anchor="middle">지우개</text>
  <line id="dash_left" x1="493.3333333333333" y1="150" x2="493.3333333333333" y2="334" stroke="#000000" stroke-width="3" stroke-dasharray="10 8" />
  <line id="dash_right" x1="930.6666666666666" y1="150" x2="930.6666666666666" y2="334" stroke="#000000" stroke-width="3" stroke-dasharray="10 8" />
  <text id="answer_left_paren" x="530" y="640" font-family="Arial" font-size="54px" fill="#000000" font-weight="normal" text-anchor="middle">(</text>
  <text id="answer_right_paren" x="782.72516" y="640" font-family="Arial" font-size="54px" fill="#000000" font-weight="normal" text-anchor="middle">)</text>
  <line id="tick_00" x1="220" y1="330" x2="220" y2="394" stroke="#C9A000" stroke-width="6" />
  <line id="tick_01" x1="274.66666666666674" y1="330" x2="274.66666666666674" y2="364" stroke="#C9A000" stroke-width="5" />
  <line id="tick_02" x1="329.3333333333333" y1="330" x2="329.3333333333333" y2="364" stroke="#C9A000" stroke-width="5" />
  <line id="tick_03" x1="384" y1="330" x2="384" y2="364" stroke="#C9A000" stroke-width="5" />
  <line id="tick_04" x1="438.66666666666663" y1="330" x2="438.66666666666663" y2="364" stroke="#C9A000" stroke-width="5" />
  <line id="tick_05" x1="493.3333333333333" y1="330" x2="493.3333333333333" y2="394" stroke="#C9A000" stroke-width="6" />
  <line id="tick_06" x1="548" y1="330" x2="548" y2="364" stroke="#C9A000" stroke-width="5" />
  <line id="tick_07" x1="602.6666666666666" y1="330" x2="602.6666666666666" y2="364" stroke="#C9A000" stroke-width="5" />
  <line id="tick_08" x1="657.3333333333333" y1="330" x2="657.3333333333333" y2="364" stroke="#C9A000" stroke-width="5" />
  <line id="tick_09" x1="712" y1="330" x2="712" y2="364" stroke="#C9A000" stroke-width="5" />
  <line id="tick_10" x1="766.6666666666666" y1="330" x2="766.6666666666666" y2="394" stroke="#C9A000" stroke-width="6" />
  <line id="tick_11" x1="821.3333333333334" y1="330" x2="821.3333333333334" y2="364" stroke="#C9A000" stroke-width="5" />
  <line id="tick_12" x1="876" y1="330" x2="876" y2="364" stroke="#C9A000" stroke-width="5" />
  <line id="tick_13" x1="930.6666666666666" y1="330" x2="930.6666666666666" y2="364" stroke="#C9A000" stroke-width="5" />
  <line id="tick_14" x1="985.3333333333333" y1="330" x2="985.3333333333333" y2="364" stroke="#C9A000" stroke-width="5" />
  <line id="tick_15" x1="1040" y1="330" x2="1040" y2="394" stroke="#C9A000" stroke-width="6" />
  <text id="major_number_2" x="233.03053" y="459.9953" font-family="Arial" font-size="40px" fill="#000000" font-weight="normal" text-anchor="middle">2</text>
  <text id="major_number_3" x="493.3333333333333" y="462" font-family="Arial" font-size="40px" fill="#000000" font-weight="normal" text-anchor="middle">3</text>
  <text id="major_number_4" x="766.6666666666666" y="462" font-family="Arial" font-size="40px" fill="#000000" font-weight="normal" text-anchor="middle">4</text>
  <text id="major_number_5" x="1027.9718" y="462" font-family="Arial" font-size="40px" fill="#000000" font-weight="normal" text-anchor="middle">5</text>
</svg>