<?xml version="1.0" encoding="UTF-8"?>
<svg xmlns="http://www.w3.org/2000/svg" width="1498" height="644" viewBox="0 0 1498 644">
  <rect x="0" y="0" width="1498" height="644" fill="#F6F6F6" />
  <text id="inst" x="28" y="98" font-family="Malgun Gothic" font-size="72" fill="#222222" font-weight="normal" text-anchor="start">빈칸에 알맞은 수를 써넣으세요.</text>
  <line id="arrow" x1="310" y1="235" x2="903" y2="235" stroke="#ccced2" stroke-width="22" />
  <line id="arrow_head1" x1="903" y1="235" x2="873" y2="205" stroke="#ccced2" stroke-width="22" />
  <line id="arrow_head2" x1="903" y1="235" x2="873" y2="265" stroke="#ccced2" stroke-width="22" />
  <circle id="plus_circle" cx="607" cy="235" r="48" stroke="#b9d8da" stroke-width="10" fill="#f6f6f6" />
  <line id="plus_h" x1="582" y1="235" x2="632" y2="235" stroke="#3a3338" stroke-width="4" />
  <line id="plus_v" x1="607" y1="210" x2="607" y2="260" stroke="#3a3338" stroke-width="4" />
  <rect id="table" x="312" y="305" width="888" height="279" rx="0" stroke="#b9d8da" stroke-width="9" fill="none" />
  <line id="v1" x1="609" y1="305" x2="609" y2="584" stroke="#b9d8da" stroke-width="4" />
  <line id="v2" x1="902" y1="305" x2="902" y2="584" stroke="#b9d8da" stroke-width="4" />
  <line id="h1" x1="312" y1="444" x2="1200" y2="444" stroke="#b9d8da" stroke-width="4" />
  <text id="r1c1" x="461" y="399" font-family="Cambria" font-size="68" fill="#222222" font-weight="normal" text-anchor="middle">467</text>
  <text id="r1c2" x="754" y="399" font-family="Cambria" font-size="68" fill="#222222" font-weight="normal" text-anchor="middle">359</text>
  <text id="r2c1" x="461" y="535" font-family="Cambria" font-size="68" fill="#222222" font-weight="normal" text-anchor="middle">735</text>
  <text id="r2c2" x="754" y="535" font-family="Cambria" font-size="68" fill="#222222" font-weight="normal" text-anchor="middle">418</text>
  <rect id="r1_blank" x="932" y="336" width="238" height="78" rx="10" stroke="#69beea" stroke-width="4" fill="none" />
  <rect id="r2_blank" x="932" y="472" width="238" height="78" rx="10" stroke="#69beea" stroke-width="4" fill="none" />
</svg>