<?xml version="1.0" encoding="UTF-8"?>
<svg xmlns="http://www.w3.org/2000/svg" width="805" height="591" viewBox="0 0 805 591">
  <rect x="0" y="0" width="805" height="591" fill="#F6F6F6" />
  <text id="q1" x="14" y="44" font-family="'Malgun Gothic'" font-size="38px" fill="#222222" font-weight="normal" text-anchor="start" style="font-size:26.6667px">준호네 학교 학생들이 좋아하는 과일을 조사하여 나타낸</text>
  <text id="q2" x="14" y="94" font-family="'Malgun Gothic'" font-size="38px" fill="#222222" font-weight="normal" text-anchor="start" style="font-size:26.6667px">원그래프입니다. 배를 좋아하는 학생이 60명이라면 전체</text>
  <text id="title" x="206.21266" y="217.51254" font-family="'Malgun Gothic'" font-size="46px" fill="#222222" font-weight="normal" text-anchor="start" style="font-size:33.3333px">좋아하는 과일별 학생 수</text>
  <polygon id="sector_1" points="400,392 400,276 408.0917509543185,276.2825701698604 416.14407971136757,277.1289040259778 424.1177561348601,278.53487831487854 431.9739332747719,280.493643271155 439.6743366257776,282.99565598883464 447.18145059679284,286.0287269134583 454.45870128316335,289.57807922836446 461.4706346510518,293.62642084585457 468.18308926592687,298.1540286525061 474.56336272363853,303.13884459819855 480.5803709732437,308.55658316071646 486.20479975537773,314.38084966237244 491.4092474183798,320.58326886222363 496.1683584163849,327.1336231973934 500.45894683899485,334 504.2601093707034,341.148946972467 507.55332712974734,348.54563516375424 510.3225558902378,356.1540286525061 512.5543042480156,363.93706011043855 514.2376993494162,371.8568113906361 515.3645398627197,379.8746982609522 515.9293359342151,387.9516583825099 516,392 " stroke="#222222" stroke-width="1.6" fill="#EFEFEF" />
  <polygon id="sector_2" points="400,392 516,392 515.7174298301396,400.0917509543185 514.8710959740222,408.14407971136757 513.4651216851214,416.1177561348601 511.506356728845,423.97393327477187 509.00434401116536,431.6743366257776 505.9712730865417,439.18145059679284 502.42192077163554,446.45870128316335 498.37357915414543,453.47063465105174 493.8459713474939,460.18308926592687 488.86115540180145,466.56336272363853 483.44341683928354,472.5803709732437 477.61915033762756,478.20479975537773 471.41673113777637,483.4092474183797 464.8663768026066,488.1683584163848 458,492.4589468389949 450.85105302753294,496.2601093707034 443.4543648362458,499.55332712974734 435.8459713474939,502.3225558902378 428.06293988956145,504.55430424801557 420.1431886093639,506.2376993494161 412.1253017390478,507.3645398627197 404.0483416174901,507.9293359342151 395.9516583825099,507.9293359342151 387.8746982609522,507.3645398627197 379.85681139063604,506.2376993494161 371.93706011043855,504.55430424801557 364.1540286525061,502.3225558902378 " stroke="#222222" stroke-width="1.6" fill="#E8E8E8" />
  <polygon id="sector_3" points="400,392 364.1540286525061,502.3225558902378 356.5456351637542,499.55332712974734 349.148946972467,496.2601093707034 342,492.45894683899485 335.1336231973934,488.1683584163849 328.58326886222363,483.4092474183798 322.38084966237244,478.20479975537773 316.55658316071646,472.5803709732437 311.13884459819855,466.5633627236386 306.1540286525061,460.1830892659269 301.62642084585457,453.4706346510518 297.57807922836446,446.45870128316335 294.0287269134583,439.18145059679284 290.99565598883464,431.6743366257775 289.6774441097622,427.8459713474939 " stroke="#222222" stroke-width="1.6" fill="#DDDDDD" />
  <polygon id="sector_4" points="400,392 289.6774441097622,427.8459713474939 287.44569575198443,420.06293988956145 285.7623006505839,412.1431886093639 284.6354601372803,404.1253017390478 284.0706640657849,396.0483416174901 284.0706640657849,387.95165838250983 284.6354601372803,379.87469826095224 285.7623006505838,371.85681139063615 287.44569575198443,363.93706011043855 289.6774441097622,356.1540286525061 292.44667287025266,348.54563516375424 295.7398906292966,341.148946972467 299.54105316100515,334 303.8316415836152,327.1336231973934 308.5907525816203,320.58326886222363 313.7952002446222,314.3808496623725 319.4196290267563,308.5565831607165 325.4366372763614,303.1388445981986 331.8169107340731,298.1540286525061 " stroke="#222222" stroke-width="1.6" fill="#C9C9C9" />
  <polygon id="sector_5" points="400,392 331.8169107340731,298.1540286525061 338.5293653489482,293.62642084585457 345.54129871683665,289.57807922836446 352.81854940320716,286.0287269134583 360.3256633742225,282.99565598883464 368.02606672522813,280.493643271155 375.88224386513986,278.53487831487854 383.8559202886324,277.1289040259778 391.90824904568143,276.2825701698604 400,276 " stroke="#222222" stroke-width="1.6" fill="#B3B3B3" />
  <line id="outline_1" x1="400" y1="276" x2="410.11006615872833" y2="276.4414150213575" stroke="#222222" stroke-width="1.6" />
  <line id="outline_2" x1="410.11006615872833" y1="276.4414150213575" x2="420.1431886093639" y2="277.7623006505839" stroke="#222222" stroke-width="1.6" />
  <line id="outline_3" x1="420.1431886093639" y1="277.7623006505839" x2="430.0230092318924" y2="279.95260415046806" stroke="#222222" stroke-width="1.6" />
  <line id="outline_4" x1="430.0230092318924" y1="279.95260415046806" x2="439.6743366257776" y2="282.99565598883464" stroke="#222222" stroke-width="1.6" />
  <line id="outline_5" x1="439.6743366257776" y1="282.99565598883464" x2="449.0237183619211" y2="286.8682967037486" stroke="#222222" stroke-width="1.6" />
  <line id="outline_6" x1="449.0237183619211" y1="286.8682967037486" x2="458" y2="291.5410531610051" stroke="#222222" stroke-width="1.6" />
  <line id="outline_7" x1="458" y1="291.5410531610051" x2="466.53486661672133" y2="296.97836286247696" stroke="#222222" stroke-width="1.6" />
  <line id="outline_8" x1="466.53486661672133" y1="296.97836286247696" x2="474.56336272363853" y2="303.13884459819855" stroke="#222222" stroke-width="1.6" />
  <line id="outline_9" x1="474.56336272363853" y1="303.13884459819855" x2="482.0243866176395" y2="309.9756133823605" stroke="#222222" stroke-width="1.6" />
  <line id="outline_10" x1="482.0243866176395" y1="309.9756133823605" x2="488.86115540180145" y2="317.43663727636147" stroke="#222222" stroke-width="1.6" />
  <line id="outline_11" x1="488.86115540180145" y1="317.43663727636147" x2="495.02163713752304" y2="325.46513338327867" stroke="#222222" stroke-width="1.6" />
  <line id="outline_12" x1="495.02163713752304" y1="325.46513338327867" x2="500.45894683899485" y2="334" stroke="#222222" stroke-width="1.6" />
  <line id="outline_13" x1="500.45894683899485" y1="334" x2="505.1317032962514" y2="342.9762816380789" stroke="#222222" stroke-width="1.6" />
  <line id="outline_14" x1="505.1317032962514" y1="342.9762816380789" x2="509.00434401116536" y2="352.3256633742224" stroke="#222222" stroke-width="1.6" />
  <line id="outline_15" x1="509.00434401116536" y1="352.3256633742224" x2="512.0473958495319" y2="361.9769907681076" stroke="#222222" stroke-width="1.6" />
  <line id="outline_16" x1="512.0473958495319" y1="361.9769907681076" x2="514.2376993494162" y2="371.8568113906361" stroke="#222222" stroke-width="1.6" />
  <line id="outline_17" x1="514.2376993494162" y1="371.8568113906361" x2="515.5585849786424" y2="381.88993384127167" stroke="#222222" stroke-width="1.6" />
  <line id="outline_18" x1="515.5585849786424" y1="381.88993384127167" x2="516" y2="392" stroke="#222222" stroke-width="1.6" />
  <line id="outline_19" x1="516" y1="392" x2="515.5585849786424" y2="402.11006615872833" stroke="#222222" stroke-width="1.6" />
  <line id="outline_20" x1="515.5585849786424" y1="402.11006615872833" x2="514.2376993494162" y2="412.1431886093639" stroke="#222222" stroke-width="1.6" />
  <line id="outline_21" x1="514.2376993494162" y1="412.1431886093639" x2="512.0473958495319" y2="422.02300923189244" stroke="#222222" stroke-width="1.6" />
  <line id="outline_22" x1="512.0473958495319" y1="422.02300923189244" x2="509.00434401116536" y2="431.6743366257776" stroke="#222222" stroke-width="1.6" />
  <line id="outline_23" x1="509.00434401116536" y1="431.6743366257776" x2="505.13170329625143" y2="441.0237183619211" stroke="#222222" stroke-width="1.6" />
  <line id="outline_24" x1="505.13170329625143" y1="441.0237183619211" x2="500.4589468389949" y2="450" stroke="#222222" stroke-width="1.6" />
  <line id="outline_25" x1="500.4589468389949" y1="450" x2="495.02163713752304" y2="458.5348666167214" stroke="#222222" stroke-width="1.6" />
  <line id="outline_26" x1="495.02163713752304" y1="458.5348666167214" x2="488.86115540180145" y2="466.56336272363853" stroke="#222222" stroke-width="1.6" />
  <line id="outline_27" x1="488.86115540180145" y1="466.56336272363853" x2="482.0243866176395" y2="474.0243866176395" stroke="#222222" stroke-width="1.6" />
  <line id="outline_28" x1="482.0243866176395" y1="474.0243866176395" x2="474.5633627236386" y2="480.86115540180145" stroke="#222222" stroke-width="1.6" />
  <line id="outline_29" x1="474.5633627236386" y1="480.86115540180145" x2="466.53486661672133" y2="487.02163713752304" stroke="#222222" stroke-width="1.6" />
  <line id="outline_30" x1="466.53486661672133" y1="487.02163713752304" x2="458" y2="492.4589468389949" stroke="#222222" stroke-width="1.6" />
  <line id="outline_31" x1="458" y1="492.4589468389949" x2="449.02371836192117" y2="497.1317032962514" stroke="#222222" stroke-width="1.6" />
  <line id="outline_32" x1="449.02371836192117" y1="497.1317032962514" x2="439.6743366257776" y2="501.00434401116536" stroke="#222222" stroke-width="1.6" />
  <line id="outline_33" x1="439.6743366257776" y1="501.00434401116536" x2="430.02300923189244" y2="504.0473958495319" stroke="#222222" stroke-width="1.6" />
  <line id="outline_34" x1="430.02300923189244" y1="504.0473958495319" x2="420.1431886093639" y2="506.2376993494161" stroke="#222222" stroke-width="1.6" />
  <line id="outline_35" x1="420.1431886093639" y1="506.2376993494161" x2="410.11006615872833" y2="507.5585849786425" stroke="#222222" stroke-width="1.6" />
  <line id="outline_36" x1="410.11006615872833" y1="507.5585849786425" x2="400" y2="508" stroke="#222222" stroke-width="1.6" />
  <line id="outline_37" x1="400" y1="508" x2="389.88993384127167" y2="507.5585849786425" stroke="#222222" stroke-width="1.6" />
  <line id="outline_38" x1="389.88993384127167" y1="507.5585849786425" x2="379.85681139063604" y2="506.2376993494161" stroke="#222222" stroke-width="1.6" />
  <line id="outline_39" x1="379.85681139063604" y1="506.2376993494161" x2="369.9769907681076" y2="504.04739584953194" stroke="#222222" stroke-width="1.6" />
  <line id="outline_40" x1="369.9769907681076" y1="504.04739584953194" x2="360.3256633742224" y2="501.00434401116536" stroke="#222222" stroke-width="1.6" />
  <line id="outline_41" x1="360.3256633742224" y1="501.00434401116536" x2="350.9762816380789" y2="497.13170329625143" stroke="#222222" stroke-width="1.6" />
  <line id="outline_42" x1="350.9762816380789" y1="497.13170329625143" x2="342" y2="492.45894683899485" stroke="#222222" stroke-width="1.6" />
  <line id="outline_43" x1="342" y1="492.45894683899485" x2="333.4651333832786" y2="487.02163713752304" stroke="#222222" stroke-width="1.6" />
  <line id="outline_44" x1="333.4651333832786" y1="487.02163713752304" x2="325.43663727636147" y2="480.86115540180145" stroke="#222222" stroke-width="1.6" />
  <line id="outline_45" x1="325.43663727636147" y1="480.86115540180145" x2="317.9756133823605" y2="474.02438661763955" stroke="#222222" stroke-width="1.6" />
  <line id="outline_46" x1="317.9756133823605" y1="474.02438661763955" x2="311.13884459819855" y2="466.5633627236386" stroke="#222222" stroke-width="1.6" />
  <line id="outline_47" x1="311.13884459819855" y1="466.5633627236386" x2="304.97836286247696" y2="458.5348666167214" stroke="#222222" stroke-width="1.6" />
  <line id="outline_48" x1="304.97836286247696" y1="458.5348666167214" x2="299.54105316100515" y2="450" stroke="#222222" stroke-width="1.6" />
  <line id="outline_49" x1="299.54105316100515" y1="450" x2="294.86829670374857" y2="441.0237183619211" stroke="#222222" stroke-width="1.6" />
  <line id="outline_50" x1="294.86829670374857" y1="441.0237183619211" x2="290.99565598883464" y2="431.6743366257775" stroke="#222222" stroke-width="1.6" />
  <line id="outline_51" x1="290.99565598883464" y1="431.6743366257775" x2="287.95260415046806" y2="422.0230092318924" stroke="#222222" stroke-width="1.6" />
  <line id="outline_52" x1="287.95260415046806" y1="422.0230092318924" x2="285.7623006505839" y2="412.1431886093639" stroke="#222222" stroke-width="1.6" />
  <line id="outline_53" x1="285.7623006505839" y1="412.1431886093639" x2="284.4414150213575" y2="402.11006615872833" stroke="#222222" stroke-width="1.6" />
  <line id="outline_54" x1="284.4414150213575" y1="402.11006615872833" x2="284" y2="392" stroke="#222222" stroke-width="1.6" />
  <line id="outline_55" x1="284" y1="392" x2="284.4414150213575" y2="381.88993384127167" stroke="#222222" stroke-width="1.6" />
  <line id="outline_56" x1="284.4414150213575" y1="381.88993384127167" x2="285.7623006505838" y2="371.85681139063615" stroke="#222222" stroke-width="1.6" />
  <line id="outline_57" x1="285.7623006505838" y1="371.85681139063615" x2="287.95260415046806" y2="361.97699076810767" stroke="#222222" stroke-width="1.6" />
  <line id="outline_58" x1="287.95260415046806" y1="361.97699076810767" x2="290.99565598883464" y2="352.3256633742224" stroke="#222222" stroke-width="1.6" />
  <line id="outline_59" x1="290.99565598883464" y1="352.3256633742224" x2="294.8682967037486" y2="342.97628163807883" stroke="#222222" stroke-width="1.6" />
  <line id="outline_60" x1="294.8682967037486" y1="342.97628163807883" x2="299.54105316100515" y2="334" stroke="#222222" stroke-width="1.6" />
  <line id="outline_61" x1="299.54105316100515" y1="334" x2="304.97836286247696" y2="325.46513338327867" stroke="#222222" stroke-width="1.6" />
  <line id="outline_62" x1="304.97836286247696" y1="325.46513338327867" x2="311.13884459819855" y2="317.43663727636147" stroke="#222222" stroke-width="1.6" />
  <line id="outline_63" x1="311.13884459819855" y1="317.43663727636147" x2="317.97561338236045" y2="309.9756133823605" stroke="#222222" stroke-width="1.6" />
  <line id="outline_64" x1="317.97561338236045" y1="309.9756133823605" x2="325.4366372763614" y2="303.1388445981986" stroke="#222222" stroke-width="1.6" />
  <line id="outline_65" x1="325.4366372763614" y1="303.1388445981986" x2="333.4651333832786" y2="296.97836286247696" stroke="#222222" stroke-width="1.6" />
  <line id="outline_66" x1="333.4651333832786" y1="296.97836286247696" x2="342" y2="291.54105316100515" stroke="#222222" stroke-width="1.6" />
  <line id="outline_67" x1="342" y1="291.54105316100515" x2="350.9762816380789" y2="286.86829670374857" stroke="#222222" stroke-width="1.6" />
  <line id="outline_68" x1="350.9762816380789" y1="286.86829670374857" x2="360.3256633742225" y2="282.99565598883464" stroke="#222222" stroke-width="1.6" />
  <line id="outline_69" x1="360.3256633742225" y1="282.99565598883464" x2="369.9769907681076" y2="279.95260415046806" stroke="#222222" stroke-width="1.6" />
  <line id="outline_70" x1="369.9769907681076" y1="279.95260415046806" x2="379.8568113906361" y2="277.7623006505839" stroke="#222222" stroke-width="1.6" />
  <line id="outline_71" x1="379.8568113906361" y1="277.7623006505839" x2="389.8899338412716" y2="276.4414150213575" stroke="#222222" stroke-width="1.6" />
  <line id="outline_72" x1="389.8899338412716" y1="276.4414150213575" x2="400" y2="276" stroke="#222222" stroke-width="1.6" />
  <line id="radial_1" x1="400" y1="392" x2="400" y2="276" stroke="#222222" stroke-width="1.6" />
  <line id="radial_2" x1="400" y1="392" x2="516" y2="392" stroke="#222222" stroke-width="1.6" />
  <line id="radial_3" x1="400" y1="392" x2="364.1540286525061" y2="502.3225558902378" stroke="#222222" stroke-width="1.6" />
  <line id="radial_4" x1="400" y1="392" x2="289.6774441097622" y2="427.8459713474939" stroke="#222222" stroke-width="1.6" />
  <line id="radial_5" x1="400" y1="392" x2="331.8169107340731" y2="298.1540286525061" stroke="#222222" stroke-width="1.6" />
  <line id="tick_00" x1="400" y1="277" x2="400" y2="290" stroke="#222222" stroke-width="1.6" />
  <line id="tick_05" x1="435.536954353119" y1="282.62850062605736" x2="431.5197334262446" y2="294.99223533789433" stroke="#222222" stroke-width="1.6" />
  <line id="tick_10" x1="467.5953040136344" y1="298.963045646881" x2="459.9540957338323" y2="309.48026657375533" stroke="#222222" stroke-width="1.6" />
  <line id="tick_15" x1="493.036954353119" y1="324.4046959863656" x2="482.51973342624467" y2="332.0459042661677" stroke="#222222" stroke-width="1.6" />
  <line id="tick_20" x1="509.37149937394264" y1="356.463045646881" x2="497.00776466210567" y2="360.48026657375533" stroke="#222222" stroke-width="1.6" />
  <line id="tick_25" x1="515" y1="392" x2="502" y2="392" stroke="#222222" stroke-width="1.6" />
  <line id="tick_30" x1="509.3714993739427" y1="427.536954353119" x2="497.00776466210567" y2="423.5197334262446" stroke="#222222" stroke-width="1.6" />
  <line id="tick_35" x1="493.036954353119" y1="459.5953040136344" x2="482.51973342624467" y2="451.9540957338322" stroke="#222222" stroke-width="1.6" />
  <line id="tick_40" x1="467.5953040136344" y1="485.036954353119" x2="459.9540957338323" y2="474.5197334262446" stroke="#222222" stroke-width="1.6" />
  <line id="tick_45" x1="435.536954353119" y1="501.37149937394264" x2="431.51973342624467" y2="489.00776466210567" stroke="#222222" stroke-width="1.6" />
  <line id="tick_50" x1="400" y1="507" x2="400" y2="494" stroke="#222222" stroke-width="1.6" />
  <line id="tick_55" x1="364.4630456468811" y1="501.3714993739427" x2="368.4802665737554" y2="489.00776466210567" stroke="#222222" stroke-width="1.6" />
  <line id="tick_60" x1="332.4046959863656" y1="485.036954353119" x2="340.0459042661678" y2="474.51973342624467" stroke="#222222" stroke-width="1.6" />
  <line id="tick_65" x1="306.963045646881" y1="459.5953040136344" x2="317.4802665737554" y2="451.9540957338323" stroke="#222222" stroke-width="1.6" />
  <line id="tick_70" x1="290.62850062605736" y1="427.536954353119" x2="302.99223533789433" y2="423.51973342624467" stroke="#222222" stroke-width="1.6" />
  <line id="tick_75" x1="285" y1="392" x2="298" y2="392" stroke="#222222" stroke-width="1.6" />
  <line id="tick_80" x1="290.6285006260573" y1="356.4630456468811" x2="302.99223533789433" y2="360.4802665737554" stroke="#222222" stroke-width="1.6" />
  <line id="tick_85" x1="306.963045646881" y1="324.4046959863656" x2="317.48026657375533" y2="332.0459042661678" stroke="#222222" stroke-width="1.6" />
  <line id="tick_90" x1="332.4046959863656" y1="298.963045646881" x2="340.0459042661677" y2="309.4802665737554" stroke="#222222" stroke-width="1.6" />
  <line id="tick_95" x1="364.463045646881" y1="282.62850062605736" x2="368.48026657375533" y2="294.99223533789433" stroke="#222222" stroke-width="1.6" />
  <text id="scale_0" x="400" y="262" font-family="'Malgun Gothic'" font-size="40px" fill="#222222" font-weight="normal" text-anchor="middle" style="font-size:26.6667px">0</text>
  <text id="scale_25" x="534" y="397" font-family="'Malgun Gothic'" font-size="40px" fill="#222222" font-weight="normal" text-anchor="middle" style="font-size:26.6667px">25</text>
  <text id="scale_50" x="400" y="533" font-family="'Malgun Gothic'" font-size="40px" fill="#222222" font-weight="normal" text-anchor="middle" style="font-size:26.6667px">50</text>
  <text id="scale_75" x="266" y="397" font-family="'Malgun Gothic'" font-size="40px" fill="#222222" font-weight="normal" text-anchor="middle" style="font-size:26.6667px">75</text>
  <text id="fruit_1" x="449.21463" y="348.78537" font-family="'Malgun Gothic'" font-size="34px" fill="#222222" font-weight="normal" text-anchor="middle" style="font-size:26.6667px">사과</text>
  <text id="fruit_2" x="440.90985" y="454.30759" font-family="'Malgun Gothic'" font-size="34px" fill="#222222" font-weight="normal" text-anchor="middle" style="font-size:26.6667px">귤</text>
  <text id="fruit_3" x="350.78537" y="447.21463" font-family="'Malgun Gothic'" font-size="34px" fill="#222222" font-weight="normal" text-anchor="middle" style="font-size:26.6667px">배</text>
  <text id="fruit_4" x="335.96893" y="386.2236" font-family="'Malgun Gothic'" font-size="34px" fill="#222222" font-weight="normal" text-anchor="middle" style="font-size:26.6667px">복숭아</text>
  <text id="fruit_5" x="370.92374" y="322.07529" font-family="'Malgun Gothic'" font-size="34px" fill="#222222" font-weight="normal" text-anchor="middle" style="font-size:26.6667px">기타</text>
  <text id="q2-8" x="13.605451" y="142.32672" font-family="'Malgun Gothic'" font-size="38px" fill="#222222" font-weight="normal" text-anchor="start" style="font-size:26.6667px">전체 학생 수는 몇 명입니까?</text>
</svg>