<?xml version="1.0" encoding="UTF-8"?>
<svg xmlns="http://www.w3.org/2000/svg" width="730" height="435" viewBox="0 0 730 435">
  <rect x="0" y="0" width="730" height="435" fill="#FFFFFF" />
  <rect id="slot.bg.rect" x="0" y="0" width="730" height="435" fill="#F4F4F4" stroke="none" stroke-width="0" />
  <rect id="slot.frame.rect" x="190" y="58" width="408" height="202" fill="none" stroke="#8A8A8A" stroke-width="1.5" rx="12" ry="12" />
  <polygon id="slot.na.polygon" points="454,94 536,96 506,162 474,160" stroke="#303030" stroke-width="2.2" fill="none" />
  <polygon id="slot.da.polygon" points="250,210 280,180 326,180 356,210 326,242 280,242" stroke="#303030" stroke-width="2.2" fill="none" />
  <polygon id="slot.ra.polygon" points="398,192 514,184 560,250" stroke="#303030" stroke-width="2.2" fill="none" />
  <line id="slot.ga_edge_1.line" x1="236" y1="166" x2="292" y2="84" stroke="#303030" stroke-width="2.2" />
  <line id="slot.ga_edge_2.line" x1="236" y1="166" x2="342" y2="170" stroke="#303030" stroke-width="2.2" />
  <text id="slot.i1.text" x="4" y="34" max_width="602" fill="#222222" font-family="Malgun Gothic" font-size="17" text-anchor="middle">각이 많은 도형부터 차례로 기호를 쓰려고 합니다. 풀이 과정을 쓰고 답을 구하세요.</text>
  <text id="slot.ga_t.text" x="293" y="128" max_width="602" fill="#222222" font-family="Malgun Gothic" font-size="30" text-anchor="middle">가</text>
  <text id="slot.na_t.text" x="492" y="132" max_width="602" fill="#222222" font-family="Malgun Gothic" font-size="30" text-anchor="middle">나</text>
  <text id="slot.ra_t.text" x="492" y="222" max_width="602" fill="#222222" font-family="Malgun Gothic" font-size="30" text-anchor="middle">라</text>
  <text id="slot.da_t.text" x="304" y="224" max_width="602" fill="#222222" font-family="Malgun Gothic" font-size="30" text-anchor="middle">다</text>
  <text id="slot.solution_label.text" x="40" y="314" max_width="602" fill="#222222" font-family="Malgun Gothic" font-size="17" text-anchor="middle">풀이:</text>
  <text id="slot.sol_line1.text" x="112" y="324" max_width="602" fill="#222222" font-family="Malgun Gothic" font-size="16" text-anchor="middle">각 개수:</text>
  <text id="slot.sol_line2.text" x="112" y="356" max_width="602" fill="#222222" font-family="Malgun Gothic" font-size="16" text-anchor="middle">많은 순서:</text>
  <text id="slot.answer_label.text" x="40" y="404" max_width="602" fill="#222222" font-family="Malgun Gothic" font-size="17" text-anchor="middle">답:</text>
</svg>
