<?xml version="1.0" encoding="UTF-8"?>
<svg xmlns="http://www.w3.org/2000/svg" width="640" height="420" viewBox="187.36 189.49 421.47 339.95">
  <rect x="187.36" y="189.49" width="421.47" height="339.95" fill="#ffffff"/>
  <line x1="257.35687" y1="459.43866" x2="377.25528" y2="259.48947" stroke="#222" stroke-width="3"/>
  <line x1="377.25528" y1="259.48947" x2="538.82654" y2="459.43866" stroke="#222" stroke-width="3"/>
  <line x1="257.35687" y1="459.43866" x2="538.82654" y2="459.43866" stroke="#888" stroke-width="1.5" stroke-dasharray="5 5"/>
  <path d="M 356.68442 293.79457 L 358.45378 294.79533 L 360.27170 295.70491 L 362.13348 296.52096 L 364.03432 297.24137 L 365.96930 297.86429 L 367.93342 298.38809 L 369.92162 298.81144 L 371.92877 299.13324 L 373.94966 299.35265 L 375.97910 299.46911 L 378.01183 299.48231 L 380.04260 299.39224 L 382.06618 299.19911 L 384.07734 298.90342 L 386.07087 298.50595 L 388.04164 298.00771 L 389.98455 297.40999 L 391.89458 296.71434 L 393.76681 295.92255 L 395.59640 295.03667 L 397.37862 294.05898 L 399.10886 292.99202 L 400.78267 291.83853 L 402.39572 290.60150" fill="none" stroke="#d33" stroke-width="3"/>
  <circle cx="257.35687" cy="459.43866" r="4.5" fill="#222"/>
  <circle cx="377.25528" cy="259.48947" r="4.5" fill="#222"/>
  <circle cx="538.82654" cy="459.43866" r="4.5" fill="#222"/>
  <text x="239.36" y="485.44" font-size="28" font-family="Malgun Gothic" fill="#222">&#12593;</text>
  <text x="369.26" y="245.49" font-size="28" font-family="Malgun Gothic" fill="#222">&#12609;</text>
  <text x="546.83" y="485.44" font-size="28" font-family="Malgun Gothic" fill="#222">&#12596;</text>
  <text x="385.26" y="317.49" font-size="24" font-family="Malgun Gothic" fill="#d33">&#8736;&#12593;&#12609;&#12596; = 69.89&#176;</text>
</svg>
