<?xml version="1.0" encoding="UTF-8"?>
<svg xmlns="http://www.w3.org/2000/svg" width="768.0" height="667" viewBox="0 0 768.0 667">
  <rect x="0" y="0" width="768.0" height="667" fill="#f4f4f4" />
  <text id="instruction_1" x="24" y="58" font-family="Malgun Gothic" font-size="34px" fill="#222222" font-weight="normal" text-anchor="start"><tspan x="24" dy="0">선분 ㄱㄴ을 한 변으로 하는 직각삼각형을</tspan><tspan x="24" dy="42.5">그리려고 합니다. 이어야 하는 점을 찾아 쓰고,</tspan><tspan x="24" dy="42.5">직각삼각형을 완성해 보세요.</tspan></text>
  <rect id="grid_box" x="58" y="180" width="640" height="320"  stroke="#9CA3AF" stroke-width="2" fill="none" />
  <line id="grid_v_00" x1="58" y1="180" x2="58" y2="500" stroke="#9CA3AF" stroke-width="1" stroke-dasharray="5 7" />
  <line id="grid_v_01" x1="98" y1="180" x2="98" y2="500" stroke="#9CA3AF" stroke-width="1" stroke-dasharray="5 7" />
  <line id="grid_v_02" x1="138" y1="180" x2="138" y2="500" stroke="#9CA3AF" stroke-width="1" stroke-dasharray="5 7" />
  <line id="grid_v_03" x1="178" y1="180" x2="178" y2="500" stroke="#9CA3AF" stroke-width="1" stroke-dasharray="5 7" />
  <line id="grid_v_04" x1="218" y1="180" x2="218" y2="500" stroke="#9CA3AF" stroke-width="1" stroke-dasharray="5 7" />
  <line id="grid_v_05" x1="258" y1="180" x2="258" y2="500" stroke="#9CA3AF" stroke-width="1" stroke-dasharray="5 7" />
  <line id="grid_v_06" x1="298" y1="180" x2="298" y2="500" stroke="#9CA3AF" stroke-width="1" stroke-dasharray="5 7" />
  <line id="grid_v_07" x1="338" y1="180" x2="338" y2="500" stroke="#9CA3AF" stroke-width="1" stroke-dasharray="5 7" />
  <line id="grid_v_08" x1="378" y1="180" x2="378" y2="500" stroke="#9CA3AF" stroke-width="1" stroke-dasharray="5 7" />
  <line id="grid_v_09" x1="418" y1="180" x2="418" y2="500" stroke="#9CA3AF" stroke-width="1" stroke-dasharray="5 7" />
  <line id="grid_v_10" x1="458" y1="180" x2="458" y2="500" stroke="#9CA3AF" stroke-width="1" stroke-dasharray="5 7" />
  <line id="grid_v_11" x1="498" y1="180" x2="498" y2="500" stroke="#9CA3AF" stroke-width="1" stroke-dasharray="5 7" />
  <line id="grid_v_12" x1="538" y1="180" x2="538" y2="500" stroke="#9CA3AF" stroke-width="1" stroke-dasharray="5 7" />
  <line id="grid_v_13" x1="578" y1="180" x2="578" y2="500" stroke="#9CA3AF" stroke-width="1" stroke-dasharray="5 7" />
  <line id="grid_v_14" x1="618" y1="180" x2="618" y2="500" stroke="#9CA3AF" stroke-width="1" stroke-dasharray="5 7" />
  <line id="grid_v_15" x1="658" y1="180" x2="658" y2="500" stroke="#9CA3AF" stroke-width="1" stroke-dasharray="5 7" />
  <line id="grid_v_16" x1="698" y1="180" x2="698" y2="500" stroke="#9CA3AF" stroke-width="1" stroke-dasharray="5 7" />
  <line id="grid_h_00" x1="58" y1="180" x2="698" y2="180" stroke="#9CA3AF" stroke-width="1" stroke-dasharray="5 7" />
  <line id="grid_h_01" x1="58" y1="220" x2="698" y2="220" stroke="#9CA3AF" stroke-width="1" stroke-dasharray="5 7" />
  <line id="grid_h_02" x1="58" y1="260" x2="698" y2="260" stroke="#9CA3AF" stroke-width="1" stroke-dasharray="5 7" />
  <line id="grid_h_03" x1="58" y1="300" x2="698" y2="300" stroke="#9CA3AF" stroke-width="1" stroke-dasharray="5 7" />
  <line id="grid_h_04" x1="58" y1="340" x2="698" y2="340" stroke="#9CA3AF" stroke-width="1" stroke-dasharray="5 7" />
  <line id="grid_h_05" x1="58" y1="380" x2="698" y2="380" stroke="#9CA3AF" stroke-width="1" stroke-dasharray="5 7" />
  <line id="grid_h_06" x1="58" y1="420" x2="698" y2="420" stroke="#9CA3AF" stroke-width="1" stroke-dasharray="5 7" />
  <line id="grid_h_07" x1="58" y1="460" x2="698" y2="460" stroke="#9CA3AF" stroke-width="1" stroke-dasharray="5 7" />
  <line id="grid_h_08" x1="58" y1="500" x2="698" y2="500" stroke="#9CA3AF" stroke-width="1" stroke-dasharray="5 7" />
  <circle id="dot_base_start" cx="257" cy="459" r="5" stroke="none" stroke-width="0" fill="#222222" />
  <text id="label_base_start" x="265" y="451" font-family="Malgun Gothic" font-size="34px" fill="#222222" font-weight="normal" text-anchor="start">ㄱ</text>
  <circle id="dot_base_end" cx="539" cy="459" r="5" stroke="none" stroke-width="0" fill="#222222" />
  <text id="label_base_end" x="547" y="451" font-family="Malgun Gothic" font-size="34px" fill="#222222" font-weight="normal" text-anchor="start">ㄴ</text>
  <circle id="dot_choice_1" cx="178" cy="300" r="5" stroke="none" stroke-width="0" fill="#222222" />
  <text id="label_choice_1" x="186" y="292" font-family="Malgun Gothic" font-size="34px" fill="#222222" font-weight="normal" text-anchor="start">ㄷ</text>
  <circle id="dot_choice_2" cx="298" cy="259" r="5" stroke="none" stroke-width="0" fill="#222222" />
  <text id="label_choice_2" x="306" y="251" font-family="Malgun Gothic" font-size="34px" fill="#222222" font-weight="normal" text-anchor="start">ㄹ</text>
  <circle id="dot_choice_3" cx="377" cy="259" r="5" stroke="none" stroke-width="0" fill="#222222" />
  <text id="label_choice_3" x="385" y="251" font-family="Malgun Gothic" font-size="34px" fill="#222222" font-weight="normal" text-anchor="start">ㅁ</text>
  <circle id="dot_choice_4" cx="539" cy="259" r="5" stroke="none" stroke-width="0" fill="#222222" />
  <text id="label_choice_4" x="547" y="251" font-family="Malgun Gothic" font-size="34px" fill="#222222" font-weight="normal" text-anchor="start">ㅂ</text>
  <circle id="dot_choice_5" cx="579" cy="339" r="5" stroke="none" stroke-width="0" fill="#222222" />
  <text id="label_choice_5" x="587" y="331" font-family="Malgun Gothic" font-size="34px" fill="#222222" font-weight="normal" text-anchor="start">ㅅ</text>
  <line id="base_segment" x1="257" y1="459" x2="539" y2="459" stroke="#222222" stroke-width="4" />
  <rect id="answer_point" x="640" y="611" width="60" height="42"  stroke="none" fill="none" />
</svg>