<?xml version="1.0" encoding="UTF-8"?>
<svg xmlns="http://www.w3.org/2000/svg" width="1466" height="1363" viewBox="0 0 1466 1363">
  <rect x="0" y="0" width="1466" height="1363" fill="#FFFFFF" />
  <text id="slot.problem_text.text" x="40" y="80" max_width="1338" fill="#111111" font-family="Noto Sans KR, sans-serif" font-size="48" text-anchor="start">x의 값을 구하시오.</text>
  <text id="slot.choice_1.text" x="860" y="320" max_width="1338" fill="#111111" font-family="Noto Sans KR, sans-serif" font-size="48" text-anchor="start">1. 56 / 2. 68 / 3. 74 / 4. 84</text>
  <circle id="slot.pt_a.circle" cx="385.7" cy="1101.6" r="4.2" stroke="#111111" stroke-width="1.2" fill="#111111" />
  <circle id="slot.pt_b.circle" cx="476.8" cy="537.7" r="4.2" stroke="#111111" stroke-width="1.2" fill="#111111" />
  <circle id="slot.pt_c.circle" cx="221" cy="688.8" r="4.2" stroke="#111111" stroke-width="1.2" fill="#111111" />
  <circle id="slot.pt_d.circle" cx="709.4" cy="696.6" r="4.2" stroke="#111111" stroke-width="1.2" fill="#111111" />
  <circle id="slot.pt_e.circle" cx="806.3" cy="938.8" r="4.2" stroke="#111111" stroke-width="1.2" fill="#111111" />
  <circle id="slot.pt_f.circle" cx="304.3" cy="421.4" r="4.2" stroke="#111111" stroke-width="1.2" fill="#111111" />
  <circle id="slot.pt_g.circle" cx="612.5" cy="940.8" r="4.2" stroke="#111111" stroke-width="1.2" fill="#111111" />
  <circle id="slot.pt_h.circle" cx="319.8" cy="936.9" r="4.2" stroke="#111111" stroke-width="1.2" fill="#111111" />
  <circle id="slot.pt_i.circle" cx="64" cy="785.7" r="4.2" stroke="#111111" stroke-width="1.2" fill="#111111" />
  <circle id="slot.pt_j.circle" cx="773.3" cy="529.9" r="4.2" stroke="#111111" stroke-width="1.2" fill="#111111" />
  <line id="slot.line_ac.line" x1="221" y1="688.8" x2="385.7" y2="1101.6" stroke="#0B72B9" stroke-width="4" />
  <line id="slot.line_ac_head_l.line" x1="385.7" y1="1101.6" x2="370.3" y2="1081.9" stroke="#0B72B9" stroke-width="4" />
  <line id="slot.line_ac_head_r.line" x1="385.7" y1="1101.6" x2="383.3" y2="1076.7" stroke="#0B72B9" stroke-width="4" />
  <line id="slot.line_he.line" x1="319.8" y1="936.9" x2="806.3" y2="938.8" stroke="#0B72B9" stroke-width="4" />
  <line id="slot.line_he_head_l.line" x1="806.3" y1="938.8" x2="782.3" y2="945.7" stroke="#0B72B9" stroke-width="4" />
  <line id="slot.line_he_head_r.line" x1="806.3" y1="938.8" x2="782.3" y2="931.7" stroke="#0B72B9" stroke-width="4" />
  <line id="slot.line_bi.line" x1="476.8" y1="537.7" x2="64" y2="785.7" stroke="#0B72B9" stroke-width="4" />
  <line id="slot.line_bi_head_l.line" x1="64" y1="785.7" x2="81" y2="767.4" stroke="#0B72B9" stroke-width="4" />
  <line id="slot.line_bi_head_r.line" x1="64" y1="785.7" x2="88.2" y2="779.4" stroke="#0B72B9" stroke-width="4" />
  <line id="slot.line_df.line" x1="709.4" y1="696.6" x2="304.3" y2="421.4" stroke="#0B72B9" stroke-width="4" />
  <line id="slot.line_df_head_l.line" x1="304.3" y1="421.4" x2="328.1" y2="429.1" stroke="#0B72B9" stroke-width="4" />
  <line id="slot.line_df_head_r.line" x1="304.3" y1="421.4" x2="320.2" y2="440.6" stroke="#0B72B9" stroke-width="4" />
  <line id="slot.line_gj.line" x1="612.5" y1="940.8" x2="773.3" y2="529.9" stroke="#0B72B9" stroke-width="4" />
  <line id="slot.line_gj_head_l.line" x1="773.3" y1="529.9" x2="771.1" y2="554.8" stroke="#0B72B9" stroke-width="4" />
  <line id="slot.line_gj_head_r.line" x1="773.3" y1="529.9" x2="758.1" y2="549.7" stroke="#0B72B9" stroke-width="4" />
  <line id="slot.line_ah.line" x1="385.7" y1="1101.6" x2="319.8" y2="936.9" stroke="#0B72B9" stroke-width="4" />
  <line id="slot.line_bd.line" x1="476.8" y1="537.7" x2="709.4" y2="696.6" stroke="#0B72B9" stroke-width="4" />
  <line id="slot.line_bf.line" x1="476.8" y1="537.7" x2="304.3" y2="421.4" stroke="#0B72B9" stroke-width="4" />
  <line id="slot.line_cb.line" x1="221" y1="688.8" x2="476.8" y2="537.7" stroke="#0B72B9" stroke-width="4" />
  <line id="slot.line_ch.line" x1="221" y1="688.8" x2="319.8" y2="936.9" stroke="#0B72B9" stroke-width="4" />
  <line id="slot.line_ci.line" x1="221" y1="688.8" x2="64" y2="785.7" stroke="#0B72B9" stroke-width="4" />
  <line id="slot.line_dg.line" x1="709.4" y1="696.6" x2="612.5" y2="940.8" stroke="#0B72B9" stroke-width="4" />
  <line id="slot.line_dj.line" x1="709.4" y1="696.6" x2="773.3" y2="529.9" stroke="#0B72B9" stroke-width="4" />
  <line id="slot.line_ge.line" x1="612.5" y1="940.8" x2="806.3" y2="938.8" stroke="#0B72B9" stroke-width="4" />
  <line id="slot.line_hg.line" x1="319.8" y1="936.9" x2="612.5" y2="940.8" stroke="#0B72B9" stroke-width="4" />
  <text id="slot.angle_x.text" x="155" y="760" max_width="1338" fill="#111111" font-family="Noto Sans KR, sans-serif" font-size="48" text-anchor="start">X°</text>
  <text id="slot.angle_xm6.text" x="250" y="975" max_width="1338" fill="#111111" font-family="Noto Sans KR, sans-serif" font-size="48" text-anchor="start">(X-6)°</text>
  <text id="slot.angle_xp10.text" x="655" y="1000" max_width="1338" fill="#111111" font-family="Noto Sans KR, sans-serif" font-size="48" text-anchor="start">(X+10)°</text>
  <text id="slot.angle_56.text" x="760" y="620" max_width="1338" fill="#111111" font-family="Noto Sans KR, sans-serif" font-size="48" text-anchor="start">56°</text>
  <text id="slot.angle_xp4.text" x="340" y="505" max_width="1338" fill="#111111" font-family="Noto Sans KR, sans-serif" font-size="48" text-anchor="start">(X+4)°</text>
</svg>
