<?xml version="1.0" encoding="UTF-8"?>
<svg xmlns="http://www.w3.org/2000/svg" width="661" height="697" viewBox="0 0 661 697">
  <rect x="0" y="0" width="661" height="697" fill="#FFFFFF" />
  <rect id="slot.box.third.rect" x="31" y="492" width="191" height="188" fill="none" stroke="#333333" stroke-width="1.2" />
  <rect id="slot.square.first.rect" x="104" y="339" width="48" height="48" fill="none" stroke="#A8A8A8" stroke-width="6" />
  <rect id="slot.square.second.1.rect" x="403" y="341" width="48" height="48" fill="none" stroke="#A8A8A8" stroke-width="6" />
  <rect id="slot.square.second.2.rect" x="455" y="341" width="48" height="48" fill="none" stroke="#A8A8A8" stroke-width="6" />
  <rect id="slot.square.second.3.rect" x="507" y="341" width="48" height="48" fill="none" stroke="#A8A8A8" stroke-width="6" />
  <rect id="slot.square.second.4.rect" x="455" y="289" width="48" height="48" fill="none" stroke="#A8A8A8" stroke-width="6" />
  <rect id="slot.square.fourth.1.rect" x="295" y="632" width="48" height="48" fill="none" stroke="#A8A8A8" stroke-width="6" />
  <rect id="slot.square.fourth.2.rect" x="347" y="632" width="48" height="48" fill="none" stroke="#A8A8A8" stroke-width="6" />
  <rect id="slot.square.fourth.3.rect" x="399" y="632" width="48" height="48" fill="none" stroke="#A8A8A8" stroke-width="6" />
  <rect id="slot.square.fourth.4.rect" x="451" y="632" width="48" height="48" fill="none" stroke="#A8A8A8" stroke-width="6" />
  <rect id="slot.square.fourth.5.rect" x="503" y="632" width="48" height="48" fill="none" stroke="#A8A8A8" stroke-width="6" />
  <rect id="slot.square.fourth.6.rect" x="555" y="632" width="48" height="48" fill="none" stroke="#A8A8A8" stroke-width="6" />
  <rect id="slot.square.fourth.7.rect" x="607" y="632" width="48" height="48" fill="none" stroke="#A8A8A8" stroke-width="6" />
  <rect id="slot.square.fourth.8.rect" x="347" y="580" width="48" height="48" fill="none" stroke="#A8A8A8" stroke-width="6" />
  <rect id="slot.square.fourth.9.rect" x="399" y="580" width="48" height="48" fill="none" stroke="#A8A8A8" stroke-width="6" />
  <rect id="slot.square.fourth.10.rect" x="451" y="580" width="48" height="48" fill="none" stroke="#A8A8A8" stroke-width="6" />
  <rect id="slot.square.fourth.11.rect" x="503" y="580" width="48" height="48" fill="none" stroke="#A8A8A8" stroke-width="6" />
  <rect id="slot.square.fourth.12.rect" x="555" y="580" width="48" height="48" fill="none" stroke="#A8A8A8" stroke-width="6" />
  <rect id="slot.square.fourth.13.rect" x="399" y="528" width="48" height="48" fill="none" stroke="#A8A8A8" stroke-width="6" />
  <rect id="slot.square.fourth.14.rect" x="451" y="528" width="48" height="48" fill="none" stroke="#A8A8A8" stroke-width="6" />
  <rect id="slot.square.fourth.15.rect" x="503" y="528" width="48" height="48" fill="none" stroke="#A8A8A8" stroke-width="6" />
  <rect id="slot.square.fourth.16.rect" x="451" y="476" width="48" height="48" fill="none" stroke="#A8A8A8" stroke-width="6" />
  <text id="slot.q1.text" x="18" y="40" max_width="533" fill="#111111" font-family="Noto Sans KR, sans-serif" font-size="35">크기가 같은 정사각형 모양 조각을 다음과 같</text>
  <text id="slot.q2.text" x="18" y="100" max_width="533" fill="#111111" font-family="Noto Sans KR, sans-serif" font-size="35">은 규칙으로 늘어놓았습니다. 셋째에 놓이는</text>
  <text id="slot.q3.text" x="18" y="160" max_width="533" fill="#111111" font-family="Noto Sans KR, sans-serif" font-size="35">모양에서 찾을 수 있는 크고 작은 직사각형은</text>
  <text id="slot.q4.text" x="18" y="220" max_width="533" fill="#111111" font-family="Noto Sans KR, sans-serif" font-size="35">모두 몇 개입니까?</text>
  <text id="slot.label.first.text" x="107" y="270" max_width="533" fill="#111111" font-family="Noto Sans KR, sans-serif" font-size="35">첫째</text>
  <text id="slot.label.second.text" x="449" y="270" max_width="533" fill="#111111" font-family="Noto Sans KR, sans-serif" font-size="35">둘째</text>
  <text id="slot.label.third.text" x="107" y="460" max_width="533" fill="#111111" font-family="Noto Sans KR, sans-serif" font-size="35">셋째</text>
  <text id="slot.label.fourth.text" x="449" y="460" max_width="533" fill="#111111" font-family="Noto Sans KR, sans-serif" font-size="35">넷째</text>
</svg>
