<?xml version="1.0" encoding="UTF-8"?>
<svg xmlns="http://www.w3.org/2000/svg" width="920" height="544" viewBox="0 0 920 544">
  <rect x="0" y="0" width="920" height="544" fill="#FFFFFF" />
  <rect id="slot.grid.border.rect" x="223" y="200" width="472" height="328" fill="none" stroke="#9AA0A6" stroke-width="1.2" />
  <circle id="slot.pt.1.circle" cx="459" cy="254" r="5" stroke="#111111" stroke-width="2" fill="#222222" />
  <circle id="slot.pt.2.circle" cx="282" cy="364" r="5" stroke="#111111" stroke-width="2" fill="#222222" />
  <circle id="slot.pt.3.circle" cx="459" cy="473" r="5" stroke="#111111" stroke-width="2" fill="#222222" />
  <circle id="slot.pt.4.circle" cx="518" cy="473" r="5" stroke="#111111" stroke-width="2" fill="#222222" />
  <line id="slot.grid.v1.line" x1="282" y1="200" x2="282" y2="528" stroke="#9AA0A6" stroke-width="1.2" stroke-dasharray="5 3" />
  <line id="slot.grid.v2.line" x1="341" y1="200" x2="341" y2="528" stroke="#9AA0A6" stroke-width="1.2" stroke-dasharray="5 3" />
  <line id="slot.grid.v3.line" x1="400" y1="200" x2="400" y2="528" stroke="#9AA0A6" stroke-width="1.2" stroke-dasharray="5 3" />
  <line id="slot.grid.v4.line" x1="459" y1="200" x2="459" y2="528" stroke="#9AA0A6" stroke-width="1.2" stroke-dasharray="5 3" />
  <line id="slot.grid.v5.line" x1="518" y1="200" x2="518" y2="528" stroke="#9AA0A6" stroke-width="1.2" stroke-dasharray="5 3" />
  <line id="slot.grid.v6.line" x1="577" y1="200" x2="577" y2="528" stroke="#9AA0A6" stroke-width="1.2" stroke-dasharray="5 3" />
  <line id="slot.grid.v7.line" x1="636" y1="200" x2="636" y2="528" stroke="#9AA0A6" stroke-width="1.2" stroke-dasharray="5 3" />
  <line id="slot.grid.v8.line" x1="695" y1="200" x2="695" y2="528" stroke="#9AA0A6" stroke-width="1.2" stroke-dasharray="5 3" />
  <line id="slot.grid.h1.line" x1="223" y1="254.7" x2="695" y2="254.7" stroke="#9AA0A6" stroke-width="1.2" stroke-dasharray="5 3" />
  <line id="slot.grid.h2.line" x1="223" y1="309.3" x2="695" y2="309.3" stroke="#9AA0A6" stroke-width="1.2" stroke-dasharray="5 3" />
  <line id="slot.grid.h3.line" x1="223" y1="364" x2="695" y2="364" stroke="#9AA0A6" stroke-width="1.2" stroke-dasharray="5 3" />
  <line id="slot.grid.h4.line" x1="223" y1="418.7" x2="695" y2="418.7" stroke="#9AA0A6" stroke-width="1.2" stroke-dasharray="5 3" />
  <line id="slot.grid.h5.line" x1="223" y1="473.3" x2="695" y2="473.3" stroke="#9AA0A6" stroke-width="1.2" stroke-dasharray="5 3" />
  <line id="slot.grid.h6.line" x1="223" y1="528" x2="695" y2="528" stroke="#9AA0A6" stroke-width="1.2" stroke-dasharray="5 3" />
  <text id="slot.q1.text" x="12" y="40" max_width="792" fill="#111111" font-family="Noto Sans KR, sans-serif" font-size="35">4개의 점 중에서 3개의 점을 반직선으로 이여</text>
  <text id="slot.q2.text" x="12" y="100" max_width="792" fill="#111111" font-family="Noto Sans KR, sans-serif" font-size="35">서 그릴 수 있는 각은 모두 몇 개입니까?</text>
  <text id="slot.lb.1.text" x="446" y="230" max_width="792" fill="#111111" font-family="Noto Sans KR, sans-serif" font-size="35">ㄱ</text>
  <text id="slot.lb.2.text" x="230" y="360" max_width="792" fill="#111111" font-family="Noto Sans KR, sans-serif" font-size="35">ㄴ</text>
  <text id="slot.lb.3.text" x="445" y="505" max_width="792" fill="#111111" font-family="Noto Sans KR, sans-serif" font-size="35">ㄷ</text>
  <text id="slot.lb.4.text" x="515" y="505" max_width="792" fill="#111111" font-family="Noto Sans KR, sans-serif" font-size="35">ㄹ</text>
</svg>
