<?xml version="1.0" encoding="UTF-8"?>
<svg xmlns="http://www.w3.org/2000/svg" width="887" height="598" viewBox="0 0 887 598">
  <rect x="0" y="0" width="887" height="598" fill="#FFFFFF" />
  <text id="slot.q1.text" x="18" y="50" max_width="759" fill="#111111" font-family="Noto Sans KR, sans-serif" font-size="28">가로, 세로로 이웃한 두 점 사이의 거리가 모두 같은 점 종이에서</text>
  <text id="slot.q2_label.text" x="18" y="96" max_width="759" fill="#111111" font-family="Noto Sans KR, sans-serif" font-size="28">보기의 선분과 길이가 같은 선분은 모두 몇 개 그릴 수 있습니까?</text>
  <rect id="slot.panel.left.rect" x="90" y="272" width="320" height="244" fill="none" stroke="#7E7E7E" stroke-width="2" rx="12" ry="12" />
  <rect id="slot.panel.left.labelbg.rect" x="116" y="260" width="80" height="40" fill="#9A9A9A" stroke="#7E7E7E" stroke-width="0" rx="14" ry="14" />
  <circle id="slot.left.pt1.circle" cx="140" cy="405" r="6" stroke="#111111" stroke-width="2" fill="#222222" />
  <circle id="slot.left.pt2.circle" cx="214" cy="405" r="6" stroke="#111111" stroke-width="2" fill="#222222" />
  <circle id="slot.left.pt3.circle" cx="286" cy="405" r="6" stroke="#111111" stroke-width="2" fill="#222222" />
  <circle id="slot.left.pt4.circle" cx="356" cy="405" r="6" stroke="#111111" stroke-width="2" fill="#222222" />
  <circle id="slot.left.pt5.circle" cx="140" cy="475" r="6" stroke="#111111" stroke-width="2" fill="#222222" />
  <circle id="slot.left.pt6.circle" cx="214" cy="475" r="6" stroke="#111111" stroke-width="2" fill="#222222" />
  <circle id="slot.left.pt7.circle" cx="286" cy="475" r="6" stroke="#111111" stroke-width="2" fill="#222222" />
  <circle id="slot.left.pt8.circle" cx="356" cy="475" r="6" stroke="#111111" stroke-width="2" fill="#222222" />
  <line id="slot.left.line1.line" x1="140" y1="475" x2="356" y2="405" stroke="#222222" stroke-width="3" />
  <text id="slot.panel.left.label.text" x="130" y="289" max_width="759" fill="#111111" font-family="Noto Sans KR, sans-serif" font-size="28">보기</text>
  <rect id="slot.panel.right.rect" x="500" y="260" width="300" height="310" fill="none" stroke="#7E7E7E" stroke-width="2" rx="12" ry="12" />
  <circle id="slot.right.pt1.circle" cx="550" cy="317" r="6" stroke="#111111" stroke-width="2" fill="#222222" />
  <circle id="slot.right.pt2.circle" cx="620" cy="317" r="6" stroke="#111111" stroke-width="2" fill="#222222" />
  <circle id="slot.right.pt3.circle" cx="690" cy="317" r="6" stroke="#111111" stroke-width="2" fill="#222222" />
  <circle id="slot.right.pt4.circle" cx="760" cy="317" r="6" stroke="#111111" stroke-width="2" fill="#222222" />
  <circle id="slot.right.pt5.circle" cx="550" cy="389" r="6" stroke="#111111" stroke-width="2" fill="#222222" />
  <circle id="slot.right.pt6.circle" cx="620" cy="389" r="6" stroke="#111111" stroke-width="2" fill="#222222" />
  <circle id="slot.right.pt7.circle" cx="690" cy="389" r="6" stroke="#111111" stroke-width="2" fill="#222222" />
  <circle id="slot.right.pt8.circle" cx="760" cy="389" r="6" stroke="#111111" stroke-width="2" fill="#222222" />
  <circle id="slot.right.pt9.circle" cx="550" cy="459" r="6" stroke="#111111" stroke-width="2" fill="#222222" />
  <circle id="slot.right.pt10.circle" cx="620" cy="459" r="6" stroke="#111111" stroke-width="2" fill="#222222" />
  <circle id="slot.right.pt11.circle" cx="690" cy="459" r="6" stroke="#111111" stroke-width="2" fill="#222222" />
  <circle id="slot.right.pt12.circle" cx="760" cy="459" r="6" stroke="#111111" stroke-width="2" fill="#222222" />
  <circle id="slot.right.pt13.circle" cx="550" cy="530" r="6" stroke="#111111" stroke-width="2" fill="#222222" />
  <circle id="slot.right.pt14.circle" cx="620" cy="530" r="6" stroke="#111111" stroke-width="2" fill="#222222" />
  <circle id="slot.right.pt15.circle" cx="690" cy="530" r="6" stroke="#111111" stroke-width="2" fill="#222222" />
  <circle id="slot.right.pt16.circle" cx="760" cy="530" r="6" stroke="#111111" stroke-width="2" fill="#222222" />
</svg>
