<?xml version="1.0" encoding="UTF-8"?>
<svg xmlns="http://www.w3.org/2000/svg" width="400" height="260" viewBox="0 0 400 260">
  <rect x="0" y="0" width="400" height="260" fill="#FFFFFF" />
  <rect id="slot.bg.rect" x="0" y="0" width="400" height="260" fill="#F4F4F4" stroke="none" stroke-width="0" />
  <rect id="slot.frame.rect" x="6" y="52" width="384" height="194" fill="none" stroke="#8A8A8A" stroke-width="1.4" rx="10" ry="10" />
  <rect id="slot.na.rect" x="162" y="66" width="64" height="64" fill="none" stroke="#4A4A4A" stroke-width="2" />
  <polygon id="slot.ga.polygon" points="26,69 106,67 84,108 36,120" stroke="#4A4A4A" stroke-width="2" fill="none" />
  <rect id="slot.da.rect" x="284" y="77" width="80" height="52" fill="none" stroke="#4A4A4A" stroke-width="2" />
  <polygon id="slot.ra.polygon" points="56,134 100,170 56,206 12,170" stroke="#4A4A4A" stroke-width="2" fill="none" />
  <polygon id="slot.ba.polygon" points="328,150 371,174 328,198 285,174" stroke="#4A4A4A" stroke-width="2" fill="none" />
  <rect id="slot.ma.rect" x="136" y="154" width="116" height="42" fill="none" stroke="#4A4A4A" stroke-width="2" />
  <rect id="slot.answer_value.rect" x="304" y="212" width="48" height="28" fill="none" stroke="none" stroke-width="0" data-semantic-role="answer_anchor" />
  <text id="slot.i1.text" x="4" y="34" max_width="272" fill="#222222" font-family="Malgun Gothic" font-size="17" text-anchor="middle">직사각형은 정사각형보다 몇 개 더 많은지 구하세요.</text>
  <text id="slot.ga_t.text" x="58" y="96" max_width="272" fill="#222222" font-family="Malgun Gothic" font-size="32" text-anchor="middle">가</text>
  <text id="slot.na_t.text" x="194" y="106" max_width="272" fill="#222222" font-family="Malgun Gothic" font-size="32" text-anchor="middle">나</text>
  <text id="slot.da_t.text" x="324" y="106" max_width="272" fill="#222222" font-family="Malgun Gothic" font-size="32" text-anchor="middle">다</text>
  <text id="slot.ra_t.text" x="56" y="184" max_width="272" fill="#222222" font-family="Malgun Gothic" font-size="32" text-anchor="middle">라</text>
  <text id="slot.ma_t.text" x="194" y="184" max_width="272" fill="#222222" font-family="Malgun Gothic" font-size="32" text-anchor="middle">마</text>
  <text id="slot.ba_t.text" x="328" y="186" max_width="272" fill="#222222" font-family="Malgun Gothic" font-size="32" text-anchor="middle">바</text>
</svg>
