<?xml version="1.0" encoding="UTF-8"?>
<svg xmlns="http://www.w3.org/2000/svg" width="886" height="658" viewBox="0 0 886 658">
  <rect x="0" y="0" width="886" height="658" fill="#FFFFFF" />
  <rect id="slot.block1.rect" x="17" y="583" width="56" height="56" fill="#D9D9DD" stroke="#222222" stroke-width="2" />
  <rect id="slot.block2a.rect" x="164" y="583" width="56" height="56" fill="#D9D9DD" stroke="#222222" stroke-width="2" />
  <rect id="slot.block2b.rect" x="220" y="583" width="56" height="56" fill="#D9D9DD" stroke="#222222" stroke-width="2" />
  <rect id="slot.block3a.rect" x="321" y="583" width="56" height="56" fill="#D9D9DD" stroke="#222222" stroke-width="2" />
  <rect id="slot.block3b.rect" x="377" y="583" width="56" height="56" fill="#D9D9DD" stroke="#222222" stroke-width="2" />
  <rect id="slot.block3c.rect" x="433" y="583" width="56" height="56" fill="#D9D9DD" stroke="#222222" stroke-width="2" />
  <rect id="slot.block3d.rect" x="349" y="527" width="56" height="56" fill="#D9D9DD" stroke="#222222" stroke-width="2" />
  <rect id="slot.block3e.rect" x="405" y="527" width="56" height="56" fill="#D9D9DD" stroke="#222222" stroke-width="2" />
  <rect id="slot.block4a.rect" x="566" y="583" width="56" height="56" fill="#D9D9DD" stroke="#222222" stroke-width="2" />
  <rect id="slot.block4b.rect" x="622" y="583" width="56" height="56" fill="#D9D9DD" stroke="#222222" stroke-width="2" />
  <rect id="slot.block4c.rect" x="678" y="583" width="56" height="56" fill="#D9D9DD" stroke="#222222" stroke-width="2" />
  <rect id="slot.block4d.rect" x="734" y="583" width="56" height="56" fill="#D9D9DD" stroke="#222222" stroke-width="2" />
  <rect id="slot.block4e.rect" x="594" y="527" width="56" height="56" fill="#D9D9DD" stroke="#222222" stroke-width="2" />
  <rect id="slot.block4f.rect" x="650" y="527" width="56" height="56" fill="#D9D9DD" stroke="#222222" stroke-width="2" />
  <rect id="slot.block4g.rect" x="706" y="527" width="56" height="56" fill="#D9D9DD" stroke="#222222" stroke-width="2" />
  <rect id="slot.block4h.rect" x="622" y="471" width="56" height="56" fill="#D9D9DD" stroke="#222222" stroke-width="2" />
  <rect id="slot.block4i.rect" x="678" y="471" width="56" height="56" fill="#D9D9DD" stroke="#222222" stroke-width="2" />
  <rect id="slot.block4j.rect" x="650" y="415" width="56" height="56" fill="#D9D9DD" stroke="#222222" stroke-width="2" />
  <text id="slot.q1.text" x="12" y="46" max_width="758" fill="#111111" font-family="Noto Sans KR, sans-serif" font-size="35">한 변이 3 cm인 정사각형 모양을 그림과 같이</text>
  <text id="slot.q2.text" x="12" y="99" max_width="758" fill="#111111" font-family="Noto Sans KR, sans-serif" font-size="35">이어 붙여서 하나의 도형을 만들었습니다. 7째</text>
  <text id="slot.q3.text" x="12" y="152" max_width="758" fill="#111111" font-family="Noto Sans KR, sans-serif" font-size="35">에 놓이는 도형의 둘레는 몇 cm입니까? (단,</text>
  <text id="slot.q4.text" x="12" y="205" max_width="758" fill="#111111" font-family="Noto Sans KR, sans-serif" font-size="35">둘레는 전체 도형의 바깥쪽 길이의 합입니다.)</text>
  <text id="slot.label1.text" x="12" y="375" max_width="758" fill="#111111" font-family="Noto Sans KR, sans-serif" font-size="35">첫째</text>
  <text id="slot.label2.text" x="164" y="375" max_width="758" fill="#111111" font-family="Noto Sans KR, sans-serif" font-size="35">둘째</text>
  <text id="slot.label3.text" x="360" y="375" max_width="758" fill="#111111" font-family="Noto Sans KR, sans-serif" font-size="35">셋째</text>
  <text id="slot.label4.text" x="633" y="375" max_width="758" fill="#111111" font-family="Noto Sans KR, sans-serif" font-size="35">넷째</text>
  <text id="slot.dot1.text" x="810" y="535" max_width="758" fill="#111111" font-family="Noto Sans KR, sans-serif" font-size="35">.....</text>
</svg>
