<?xml version="1.0" encoding="UTF-8"?>
<svg xmlns="http://www.w3.org/2000/svg" width="1280" height="720" viewBox="0 0 1280 720">
  <rect x="0" y="0" width="1280" height="720" fill="#FFFFFF" />
  <rect id="slot.model_box.rect" x="170" y="196" width="675" height="453" fill="none" stroke="#9C9CA1" stroke-width="3" data-semantic-role="container" />
  <rect id="slot.top_0_hundred.rect" x="200" y="218" width="140" height="140" fill="#F2CF43" stroke="#D3AE1D" stroke-width="2" data-semantic-role="hundred_block" />
  <path id="slot.top_0_hundred_grid.path" d="M 214 218 V 358 M 228 218 V 358 M 242 218 V 358 M 256 218 V 358 M 270 218 V 358 M 284 218 V 358 M 298 218 V 358 M 312 218 V 358 M 326 218 V 358 M 200 232 H 340 M 200 246 H 340 M 200 260 H 340 M 200 274 H 340 M 200 288 H 340 M 200 302 H 340 M 200 316 H 340 M 200 330 H 340 M 200 344 H 340" stroke="#D3AE1D" stroke-width="1" fill="none" data-semantic-role="grid_lines" />
  <rect id="slot.top_ten_0_ten.rect" x="420" y="254" width="140" height="20" fill="#6CB5D9" stroke="#4B8FAF" stroke-width="2" data-semantic-role="ten_block" />
  <path id="slot.top_ten_0_ten_grid.path" d="M 434 254 V 274 M 448 254 V 274 M 462 254 V 274 M 476 254 V 274 M 490 254 V 274 M 504 254 V 274 M 518 254 V 274 M 532 254 V 274 M 546 254 V 274" stroke="#4B8FAF" stroke-width="1" fill="none" data-semantic-role="grid_lines" />
  <rect id="slot.top_ten_1_ten.rect" x="420" y="278" width="140" height="20" fill="#6CB5D9" stroke="#4B8FAF" stroke-width="2" data-semantic-role="ten_block" />
  <path id="slot.top_ten_1_ten_grid.path" d="M 434 278 V 298 M 448 278 V 298 M 462 278 V 298 M 476 278 V 298 M 490 278 V 298 M 504 278 V 298 M 518 278 V 298 M 532 278 V 298 M 546 278 V 298" stroke="#4B8FAF" stroke-width="1" fill="none" data-semantic-role="grid_lines" />
  <rect id="slot.top_ten_2_ten.rect" x="420" y="302" width="140" height="20" fill="#6CB5D9" stroke="#4B8FAF" stroke-width="2" data-semantic-role="ten_block" />
  <path id="slot.top_ten_2_ten_grid.path" d="M 434 302 V 322 M 448 302 V 322 M 462 302 V 322 M 476 302 V 322 M 490 302 V 322 M 504 302 V 322 M 518 302 V 322 M 532 302 V 322 M 546 302 V 322" stroke="#4B8FAF" stroke-width="1" fill="none" data-semantic-role="grid_lines" />
  <rect id="slot.top_one_0_one.rect" x="615" y="278" width="20" height="20" fill="#E87979" stroke="#C95E5E" stroke-width="2" data-semantic-role="one_block" />
  <rect id="slot.top_one_1_one.rect" x="645" y="278" width="20" height="20" fill="#E87979" stroke="#C95E5E" stroke-width="2" data-semantic-role="one_block" />
  <rect id="slot.top_one_2_one.rect" x="675" y="278" width="20" height="20" fill="#E87979" stroke="#C95E5E" stroke-width="2" data-semantic-role="one_block" />
  <rect id="slot.top_one_3_one.rect" x="705" y="278" width="20" height="20" fill="#E87979" stroke="#C95E5E" stroke-width="2" data-semantic-role="one_block" />
  <rect id="slot.top_one_4_one.rect" x="735" y="278" width="20" height="20" fill="#E87979" stroke="#C95E5E" stroke-width="2" data-semantic-role="one_block" />
  <rect id="slot.top_one_5_one.rect" x="765" y="278" width="20" height="20" fill="#E87979" stroke="#C95E5E" stroke-width="2" data-semantic-role="one_block" />
  <rect id="slot.top_one_6_one.rect" x="795" y="278" width="20" height="20" fill="#E87979" stroke="#C95E5E" stroke-width="2" data-semantic-role="one_block" />
  <rect id="slot.bottom_0_hundred.rect" x="200" y="446" width="140" height="140" fill="#F2CF43" stroke="#D3AE1D" stroke-width="2" data-semantic-role="hundred_block" />
  <path id="slot.bottom_0_hundred_grid.path" d="M 214 446 V 586 M 228 446 V 586 M 242 446 V 586 M 256 446 V 586 M 270 446 V 586 M 284 446 V 586 M 298 446 V 586 M 312 446 V 586 M 326 446 V 586 M 200 460 H 340 M 200 474 H 340 M 200 488 H 340 M 200 502 H 340 M 200 516 H 340 M 200 530 H 340 M 200 544 H 340 M 200 558 H 340 M 200 572 H 340" stroke="#D3AE1D" stroke-width="1" fill="none" data-semantic-role="grid_lines" />
  <rect id="slot.bottom_1_hundred.rect" x="218" y="481" width="140" height="140" fill="#F2CF43" stroke="#D3AE1D" stroke-width="2" data-semantic-role="hundred_block" />
  <path id="slot.bottom_1_hundred_grid.path" d="M 232 481 V 621 M 246 481 V 621 M 260 481 V 621 M 274 481 V 621 M 288 481 V 621 M 302 481 V 621 M 316 481 V 621 M 330 481 V 621 M 344 481 V 621 M 218 495 H 358 M 218 509 H 358 M 218 523 H 358 M 218 537 H 358 M 218 551 H 358 M 218 565 H 358 M 218 579 H 358 M 218 593 H 358 M 218 607 H 358" stroke="#D3AE1D" stroke-width="1" fill="none" data-semantic-role="grid_lines" />
  <rect id="slot.bottom_ten_0_ten.rect" x="420" y="439" width="140" height="20" fill="#6CB5D9" stroke="#4B8FAF" stroke-width="2" data-semantic-role="ten_block" />
  <path id="slot.bottom_ten_0_ten_grid.path" d="M 434 439 V 459 M 448 439 V 459 M 462 439 V 459 M 476 439 V 459 M 490 439 V 459 M 504 439 V 459 M 518 439 V 459 M 532 439 V 459 M 546 439 V 459" stroke="#4B8FAF" stroke-width="1" fill="none" data-semantic-role="grid_lines" />
  <rect id="slot.bottom_ten_1_ten.rect" x="420" y="463" width="140" height="20" fill="#6CB5D9" stroke="#4B8FAF" stroke-width="2" data-semantic-role="ten_block" />
  <path id="slot.bottom_ten_1_ten_grid.path" d="M 434 463 V 483 M 448 463 V 483 M 462 463 V 483 M 476 463 V 483 M 490 463 V 483 M 504 463 V 483 M 518 463 V 483 M 532 463 V 483 M 546 463 V 483" stroke="#4B8FAF" stroke-width="1" fill="none" data-semantic-role="grid_lines" />
  <rect id="slot.bottom_ten_2_ten.rect" x="420" y="487" width="140" height="20" fill="#6CB5D9" stroke="#4B8FAF" stroke-width="2" data-semantic-role="ten_block" />
  <path id="slot.bottom_ten_2_ten_grid.path" d="M 434 487 V 507 M 448 487 V 507 M 462 487 V 507 M 476 487 V 507 M 490 487 V 507 M 504 487 V 507 M 518 487 V 507 M 532 487 V 507 M 546 487 V 507" stroke="#4B8FAF" stroke-width="1" fill="none" data-semantic-role="grid_lines" />
  <rect id="slot.bottom_ten_3_ten.rect" x="420" y="511" width="140" height="20" fill="#6CB5D9" stroke="#4B8FAF" stroke-width="2" data-semantic-role="ten_block" />
  <path id="slot.bottom_ten_3_ten_grid.path" d="M 434 511 V 531 M 448 511 V 531 M 462 511 V 531 M 476 511 V 531 M 490 511 V 531 M 504 511 V 531 M 518 511 V 531 M 532 511 V 531 M 546 511 V 531" stroke="#4B8FAF" stroke-width="1" fill="none" data-semantic-role="grid_lines" />
  <rect id="slot.bottom_ten_4_ten.rect" x="420" y="535" width="140" height="20" fill="#6CB5D9" stroke="#4B8FAF" stroke-width="2" data-semantic-role="ten_block" />
  <path id="slot.bottom_ten_4_ten_grid.path" d="M 434 535 V 555 M 448 535 V 555 M 462 535 V 555 M 476 535 V 555 M 490 535 V 555 M 504 535 V 555 M 518 535 V 555 M 532 535 V 555 M 546 535 V 555" stroke="#4B8FAF" stroke-width="1" fill="none" data-semantic-role="grid_lines" />
  <rect id="slot.bottom_ten_5_ten.rect" x="420" y="559" width="140" height="20" fill="#6CB5D9" stroke="#4B8FAF" stroke-width="2" data-semantic-role="ten_block" />
  <path id="slot.bottom_ten_5_ten_grid.path" d="M 434 559 V 579 M 448 559 V 579 M 462 559 V 579 M 476 559 V 579 M 490 559 V 579 M 504 559 V 579 M 518 559 V 579 M 532 559 V 579 M 546 559 V 579" stroke="#4B8FAF" stroke-width="1" fill="none" data-semantic-role="grid_lines" />
  <rect id="slot.bottom_ten_6_ten.rect" x="420" y="583" width="140" height="20" fill="#6CB5D9" stroke="#4B8FAF" stroke-width="2" data-semantic-role="ten_block" />
  <path id="slot.bottom_ten_6_ten_grid.path" d="M 434 583 V 603 M 448 583 V 603 M 462 583 V 603 M 476 583 V 603 M 490 583 V 603 M 504 583 V 603 M 518 583 V 603 M 532 583 V 603 M 546 583 V 603" stroke="#4B8FAF" stroke-width="1" fill="none" data-semantic-role="grid_lines" />
  <rect id="slot.bottom_ten_7_ten.rect" x="420" y="607" width="140" height="20" fill="#6CB5D9" stroke="#4B8FAF" stroke-width="2" data-semantic-role="ten_block" />
  <path id="slot.bottom_ten_7_ten_grid.path" d="M 434 607 V 627 M 448 607 V 627 M 462 607 V 627 M 476 607 V 627 M 490 607 V 627 M 504 607 V 627 M 518 607 V 627 M 532 607 V 627 M 546 607 V 627" stroke="#4B8FAF" stroke-width="1" fill="none" data-semantic-role="grid_lines" />
  <rect id="slot.bottom_one_0_one.rect" x="615" y="523" width="20" height="20" fill="#E87979" stroke="#C95E5E" stroke-width="2" data-semantic-role="one_block" />
  <rect id="slot.bottom_one_1_one.rect" x="645" y="523" width="20" height="20" fill="#E87979" stroke="#C95E5E" stroke-width="2" data-semantic-role="one_block" />
  <rect id="slot.bottom_one_2_one.rect" x="675" y="523" width="20" height="20" fill="#E87979" stroke="#C95E5E" stroke-width="2" data-semantic-role="one_block" />
  <rect id="slot.bottom_one_3_one.rect" x="705" y="523" width="20" height="20" fill="#E87979" stroke="#C95E5E" stroke-width="2" data-semantic-role="one_block" />
  <rect id="slot.bottom_one_4_one.rect" x="735" y="523" width="20" height="20" fill="#E87979" stroke="#C95E5E" stroke-width="2" data-semantic-role="one_block" />
  <rect id="slot.bottom_one_5_one.rect" x="765" y="523" width="20" height="20" fill="#E87979" stroke="#C95E5E" stroke-width="2" data-semantic-role="one_block" />
  <rect id="slot.answer_blank.rect" x="1120" y="576" width="135" height="78" fill="none" stroke="#69BEEA" stroke-width="4" rx="10" data-semantic-role="answer_blank" />
  <line id="slot.model_divider.line" x1="170" y1="398" x2="845" y2="398" stroke="#9C9CA1" stroke-width="3" data-semantic-role="row_divider" />
  <text id="slot.instruction.text" x="42" y="72" max_width="1152" fill="#222222" font-family="Malgun Gothic" font-size="50" text-anchor="start" data-semantic-role="instruction">수 모형으로 137+286을 구해 보세요.</text>
  <text id="slot.equation_text.text" x="980" y="615" max_width="1152" fill="#222222" font-family="Malgun Gothic" font-size="56" text-anchor="middle" data-semantic-role="equation">137+286=</text>
</svg>
