<?xml version="1.0" encoding="UTF-8"?>
<svg xmlns="http://www.w3.org/2000/svg" width="640" height="190" viewBox="0 0 640 190">
  <rect x="0" y="0" width="640" height="190" fill="#FFFFFF" />
  <rect id="slot.bg.rect" x="0" y="0" width="640" height="190" fill="#F4F4F4" stroke="none" stroke-width="0" />
  <rect id="slot.answer_text.rect" x="430" y="8" width="206" height="28" fill="none" stroke="none" stroke-width="0" data-semantic-role="answer_anchor" />
  <rect id="slot.frame.rect" x="212" y="66" width="430" height="90" fill="none" stroke="#8A8A8A" stroke-width="1.4" rx="12" ry="12" />
  <rect id="slot.dot_l.rect" x="250" y="110" width="6" height="6" fill="#222222" stroke="#222222" stroke-width="1" rx="3" ry="3" />
  <rect id="slot.dot_r.rect" x="564" y="126" width="6" height="6" fill="#222222" stroke="#222222" stroke-width="1" rx="3" ry="3" />
  <line id="slot.w20.line" x1="284.14814814814815" y1="91.7037037037037" x2="285.6171875" y2="91.59375" stroke="#222222" stroke-width="2.2" />
  <line id="slot.w21.line" x1="285.6171875" y1="91.59375" x2="287.0810185185185" y2="91.60185185185185" stroke="#222222" stroke-width="2.2" />
  <line id="slot.w22.line" x1="287.0810185185185" y1="91.60185185185185" x2="288.54137731481484" y2="91.7349537037037" stroke="#222222" stroke-width="2.2" />
  <line id="slot.w19.line" x1="282.6721643518518" y1="91.92476851851853" x2="284.14814814814815" y2="91.7037037037037" stroke="#222222" stroke-width="2.2" />
  <line id="slot.w23.line" x1="288.54137731481484" y1="91.7349537037037" x2="290" y2="92" stroke="#222222" stroke-width="2.2" />
  <line id="slot.w18.line" x1="281.1875" y1="92.25" x2="282.6721643518518" y2="91.92476851851853" stroke="#222222" stroke-width="2.2" />
  <line id="slot.w24.line" x1="290" y1="92" x2="291.44531249999994" y2="92.4079861111111" stroke="#222222" stroke-width="2.2" />
  <line id="slot.w17.line" x1="279.69241898148147" y1="92.6724537037037" x2="281.1875" y2="92.25" stroke="#222222" stroke-width="2.2" />
  <line id="slot.w25.line" x1="291.44531249999994" y1="92.4079861111111" x2="292.8680555555556" y2="92.95833333333334" stroke="#222222" stroke-width="2.2" />
  <line id="slot.w16.line" x1="278.18518518518516" y1="93.18518518518519" x2="279.69241898148147" y2="92.6724537037037" stroke="#222222" stroke-width="2.2" />
  <line id="slot.w103.line" x1="406.5" y1="92.8888888888889" x2="408" y2="92.88888888888889" stroke="#222222" stroke-width="2.2" />
  <line id="slot.w104.line" x1="408" y1="92.88888888888889" x2="409.5" y2="93" stroke="#222222" stroke-width="2.2" />
  <line id="slot.w102.line" x1="405" y1="93" x2="406.5" y2="92.8888888888889" stroke="#222222" stroke-width="2.2" />
  <line id="slot.w26.line" x1="292.8680555555556" y1="92.95833333333334" x2="294.2734375" y2="93.640625" stroke="#222222" stroke-width="2.2" />
  <line id="slot.w101.line" x1="403.5" y1="93.22222222222221" x2="405" y2="93" stroke="#222222" stroke-width="2.2" />
  <line id="slot.w105.line" x1="409.5" y1="93" x2="411" y2="93.22222222222223" stroke="#222222" stroke-width="2.2" />
  <line id="slot.w15.line" x1="276.6640625" y1="93.78125" x2="278.18518518518516" y2="93.18518518518519" stroke="#222222" stroke-width="2.2" />
  <line id="slot.w100.line" x1="402" y1="93.55555555555556" x2="403.5" y2="93.22222222222221" stroke="#222222" stroke-width="2.2" />
  <line id="slot.w106.line" x1="411" y1="93.22222222222223" x2="412.5" y2="93.55555555555554" stroke="#222222" stroke-width="2.2" />
  <line id="slot.w107.line" x1="412.5" y1="93.55555555555554" x2="414" y2="94" stroke="#222222" stroke-width="2.2" />
  <line id="slot.w99.line" x1="400.5" y1="94" x2="402" y2="93.55555555555556" stroke="#222222" stroke-width="2.2" />
  <line id="slot.w27.line" x1="294.2734375" y1="93.640625" x2="295.66666666666663" y2="94.44444444444444" stroke="#222222" stroke-width="2.2" />
  <line id="slot.w14.line" x1="275.12731481481484" y1="94.4537037037037" x2="276.6640625" y2="93.78125" stroke="#222222" stroke-width="2.2" />
  <line id="slot.w98.line" x1="399" y1="94.55555555555556" x2="400.5" y2="94" stroke="#222222" stroke-width="2.2" />
  <line id="slot.w108.line" x1="414" y1="94" x2="415.5" y2="94.57465277777777" stroke="#222222" stroke-width="2.2" />
  <line id="slot.w28.line" x1="295.66666666666663" y1="94.44444444444444" x2="297.0529513888889" y2="95.35937500000001" stroke="#222222" stroke-width="2.2" />
  <line id="slot.w13.line" x1="273.5732060185185" y1="95.19560185185185" x2="275.12731481481484" y2="94.4537037037037" stroke="#222222" stroke-width="2.2" />
  <line id="slot.w97.line" x1="397.5" y1="95.22222222222223" x2="399" y2="94.55555555555556" stroke="#222222" stroke-width="2.2" />
  <line id="slot.w109.line" x1="415.5" y1="94.57465277777777" x2="417" y2="95.29166666666667" stroke="#222222" stroke-width="2.2" />
  <line id="slot.w12.line" x1="272" y1="96" x2="273.5732060185185" y2="95.19560185185185" stroke="#222222" stroke-width="2.2" />
  <line id="slot.w96.line" x1="396" y1="96" x2="397.5" y2="95.22222222222223" stroke="#222222" stroke-width="2.2" />
  <line id="slot.w110.line" x1="417" y1="95.29166666666667" x2="418.5" y2="96.140625" stroke="#222222" stroke-width="2.2" />
  <line id="slot.w29.line" x1="297.0529513888889" y1="95.35937500000001" x2="298.4375" y2="96.375" stroke="#222222" stroke-width="2.2" />
  <line id="slot.w11.line" x1="270.3396990740741" y1="96.96412037037038" x2="272" y2="96" stroke="#222222" stroke-width="2.2" />
  <line id="slot.w95.line" x1="394.49363425925924" y1="96.93981481481481" x2="396" y2="96" stroke="#222222" stroke-width="2.2" />
  <line id="slot.w111.line" x1="418.5" y1="96.140625" x2="420" y2="97.11111111111111" stroke="#222222" stroke-width="2.2" />
  <line id="slot.w30.line" x1="298.4375" y1="96.375" x2="299.8255208333333" y2="97.48090277777777" stroke="#222222" stroke-width="2.2" />
  <line id="slot.w94.line" x1="392.9768518518519" y1="98.07407407407408" x2="394.49363425925924" y2="96.93981481481481" stroke="#222222" stroke-width="2.2" />
  <line id="slot.w10.line" x1="268.55092592592587" y1="98.15740740740739" x2="270.3396990740741" y2="96.96412037037038" stroke="#222222" stroke-width="2.2" />
  <line id="slot.w112.line" x1="420" y1="97.11111111111111" x2="421.5" y2="98.19270833333334" stroke="#222222" stroke-width="2.2" />
  <line id="slot.w175.line" x1="513.8255208333334" y1="97.35763888888889" x2="515.2222222222222" y2="97.33333333333334" stroke="#222222" stroke-width="2.2" />
  <line id="slot.w176.line" x1="515.2222222222222" y1="97.33333333333334" x2="516.6328125" y2="97.40625" stroke="#222222" stroke-width="2.2" />
  <line id="slot.w174.line" x1="512.4375" y1="97.5" x2="513.8255208333334" y2="97.35763888888889" stroke="#222222" stroke-width="2.2" />
  <line id="slot.w177.line" x1="516.6328125" y1="97.40625" x2="518.0625" y2="97.55555555555554" stroke="#222222" stroke-width="2.2" />
  <line id="slot.w31.line" x1="299.8255208333333" y1="97.48090277777777" x2="301.22222222222223" y2="98.66666666666667" stroke="#222222" stroke-width="2.2" />
  <line id="slot.w173.line" x1="511.0529513888889" y1="97.78125000000001" x2="512.4375" y2="97.5" stroke="#222222" stroke-width="2.2" />
  <line id="slot.w178.line" x1="518.0625" y1="97.55555555555554" x2="519.5164930555555" y2="97.76041666666667" stroke="#222222" stroke-width="2.2" />
  <line id="slot.w179.line" x1="519.5164930555555" y1="97.76041666666667" x2="521" y2="98" stroke="#222222" stroke-width="2.2" />
  <line id="slot.w172.line" x1="509.66666666666663" y1="98.22222222222221" x2="511.0529513888889" y2="97.78125000000001" stroke="#222222" stroke-width="2.2" />
  <line id="slot.w180.line" x1="521" y1="98" x2="522.4910300925926" y2="98.3113425925926" stroke="#222222" stroke-width="2.2" />
  <line id="slot.w93.line" x1="391.453125" y1="99.375" x2="392.9768518518519" y2="98.07407407407408" stroke="#222222" stroke-width="2.2" />
  <line id="slot.w9.line" x1="266.671875" y1="99.53125" x2="268.55092592592587" y2="98.15740740740739" stroke="#222222" stroke-width="2.2" />
  <line id="slot.w113.line" x1="421.5" y1="98.19270833333334" x2="423" y2="99.375" stroke="#222222" stroke-width="2.2" />
  <line id="slot.w171.line" x1="508.2734375" y1="98.84375" x2="509.66666666666663" y2="98.22222222222221" stroke="#222222" stroke-width="2.2" />
  <line id="slot.w181.line" x1="522.4910300925926" y1="98.3113425925926" x2="523.9699074074074" y2="98.74074074074075" stroke="#222222" stroke-width="2.2" />
  <line id="slot.w32.line" x1="301.22222222222223" y1="98.66666666666667" x2="302.6328125" y2="99.921875" stroke="#222222" stroke-width="2.2" />
  <line id="slot.w182.line" x1="523.9699074074074" y1="98.74074074074075" x2="525.4453125" y2="99.28125" stroke="#222222" stroke-width="2.2" />
  <line id="slot.w170.line" x1="506.8680555555556" y1="99.66666666666667" x2="508.2734375" y2="98.84375" stroke="#222222" stroke-width="2.2" />
  <line id="slot.w183.line" x1="525.4453125" y1="99.28125" x2="526.925925925926" y2="99.92592592592592" stroke="#222222" stroke-width="2.2" />
  <line id="slot.w92.line" x1="389.9259259259259" y1="100.81481481481481" x2="391.453125" y2="99.375" stroke="#222222" stroke-width="2.2" />
  <line id="slot.w114.line" x1="423" y1="99.375" x2="424.5" y2="100.64756944444444" stroke="#222222" stroke-width="2.2" />
  <line id="slot.w8.line" x1="264.74074074074076" y1="101.03703703703705" x2="266.671875" y2="99.53125" stroke="#222222" stroke-width="2.2" />
  <line id="slot.w169.line" x1="505.44531249999994" y1="100.71180555555554" x2="506.8680555555556" y2="99.66666666666667" stroke="#222222" stroke-width="2.2" />
  <line id="slot.w33.line" x1="302.6328125" y1="99.921875" x2="304.06249999999994" y2="101.2361111111111" stroke="#222222" stroke-width="2.2" />
  <line id="slot.w184.line" x1="526.925925925926" y1="99.92592592592592" x2="528.4204282407408" y2="100.66782407407408" stroke="#222222" stroke-width="2.2" />
  <line id="slot.w115.line" x1="424.5" y1="100.64756944444444" x2="426" y2="102" stroke="#222222" stroke-width="2.2" />
  <line id="slot.w185.line" x1="528.4204282407408" y1="100.66782407407408" x2="529.9375" y2="101.5" stroke="#222222" stroke-width="2.2" />
  <line id="slot.w168.line" x1="504" y1="102" x2="505.44531249999994" y2="100.71180555555554" stroke="#222222" stroke-width="2.2" />
  <line id="slot.w91.line" x1="388.39872685185185" y1="102.36574074074073" x2="389.9259259259259" y2="100.81481481481481" stroke="#222222" stroke-width="2.2" />
  <line id="slot.w7.line" x1="262.79571759259255" y1="102.6261574074074" x2="264.74074074074076" y2="101.03703703703705" stroke="#222222" stroke-width="2.2" />
  <line id="slot.w34.line" x1="304.06249999999994" y1="101.2361111111111" x2="305.5164930555556" y2="102.59895833333334" stroke="#222222" stroke-width="2.2" />
  <line id="slot.w186.line" x1="529.9375" y1="101.5" x2="531.4858217592594" y2="102.41550925925925" stroke="#222222" stroke-width="2.2" />
  <line id="slot.w116.line" x1="426" y1="102" x2="427.5" y2="103.421875" stroke="#222222" stroke-width="2.2" />
  <line id="slot.w167.line" x1="502.5350115740741" y1="103.65335648148148" x2="504" y2="102" stroke="#222222" stroke-width="2.2" />
  <line id="slot.w90.line" x1="386.875" y1="104" x2="388.39872685185185" y2="102.36574074074073" stroke="#222222" stroke-width="2.2" />
  <line id="slot.w187.line" x1="531.4858217592594" y1="102.41550925925925" x2="533.0740740740741" y2="103.4074074074074" stroke="#222222" stroke-width="2.2" />
  <line id="slot.w35.line" x1="305.5164930555556" y1="102.59895833333334" x2="307" y2="104" stroke="#222222" stroke-width="2.2" />
  <line id="slot.w6.line" x1="260.875" y1="104.25" x2="262.79571759259255" y2="102.6261574074074" stroke="#222222" stroke-width="2.2" />
  <line id="slot.w188.line" x1="533.0740740740741" y1="103.4074074074074" x2="534.7109375" y2="104.46875" stroke="#222222" stroke-width="2.2" />
  <line id="slot.w117.line" x1="427.5" y1="103.421875" x2="429" y2="104.90277777777777" stroke="#222222" stroke-width="2.2" />
  <line id="slot.w166.line" x1="501.0578703703704" y1="105.72685185185185" x2="502.5350115740741" y2="103.65335648148148" stroke="#222222" stroke-width="2.2" />
  <line id="slot.w36.line" x1="307" y1="104" x2="308.51649305555554" y2="105.52141203703704" stroke="#222222" stroke-width="2.2" />
  <line id="slot.w89.line" x1="385.35821759259255" y1="105.68981481481482" x2="386.875" y2="104" stroke="#222222" stroke-width="2.2" />
  <line id="slot.w5.line" x1="259.0167824074074" y1="105.85995370370371" x2="260.875" y2="104.25" stroke="#222222" stroke-width="2.2" />
  <line id="slot.w189.line" x1="534.7109375" y1="104.46875" x2="536.4050925925926" y2="105.5925925925926" stroke="#222222" stroke-width="2.2" />
  <line id="slot.w118.line" x1="429" y1="104.90277777777777" x2="430.5" y2="106.43229166666667" stroke="#222222" stroke-width="2.2" />
  <line id="slot.w37.line" x1="308.51649305555554" y1="105.52141203703704" x2="310.0625" y2="107.22685185185185" stroke="#222222" stroke-width="2.2" />
  <line id="slot.w190.line" x1="536.4050925925926" y1="105.5925925925926" x2="538.1652199074074" y2="106.77199074074075" stroke="#222222" stroke-width="2.2" />
  <line id="slot.w88.line" x1="383.8518518518519" y1="107.4074074074074" x2="385.35821759259255" y2="105.68981481481482" stroke="#222222" stroke-width="2.2" />
  <line id="slot.w165.line" x1="499.5703125" y1="108.140625" x2="501.0578703703704" y2="105.72685185185185" stroke="#222222" stroke-width="2.2" />
  <line id="slot.w4.line" x1="257.2592592592593" y1="107.4074074074074" x2="259.0167824074074" y2="105.85995370370371" stroke="#222222" stroke-width="2.2" />
  <line id="slot.w119.line" x1="430.5" y1="106.43229166666667" x2="432" y2="108" stroke="#222222" stroke-width="2.2" />
  <line id="slot.w191.line" x1="538.1652199074074" y1="106.77199074074075" x2="540" y2="108" stroke="#222222" stroke-width="2.2" />
  <line id="slot.w38.line" x1="310.0625" y1="107.22685185185185" x2="311.6328125" y2="109.078125" stroke="#222222" stroke-width="2.2" />
  <line id="slot.w3.line" x1="255.640625" y1="108.84375" x2="257.2592592592593" y2="107.4074074074074" stroke="#222222" stroke-width="2.2" />
  <line id="slot.w87.line" x1="382.359375" y1="109.125" x2="383.8518518518519" y2="107.4074074074074" stroke="#222222" stroke-width="2.2" />
  <line id="slot.w120.line" x1="432" y1="108" x2="433.5" y2="109.69444444444444" stroke="#222222" stroke-width="2.2" />
  <line id="slot.w192.line" x1="540" y1="108" x2="542.0043402777778" y2="109.38020833333333" stroke="#222222" stroke-width="2.2" />
  <line id="slot.w164.line" x1="498.0740740740741" y1="110.81481481481481" x2="499.5703125" y2="108.140625" stroke="#222222" stroke-width="2.2" />
  <line id="slot.w2.line" x1="254.19907407407408" y1="110.12037037037037" x2="255.640625" y2="108.84375" stroke="#222222" stroke-width="2.2" />
  <line id="slot.w39.line" x1="311.6328125" y1="109.078125" x2="313.22222222222223" y2="111.03703703703704" stroke="#222222" stroke-width="2.2" />
  <line id="slot.w86.line" x1="380.88425925925924" y1="110.81481481481481" x2="382.359375" y2="109.125" stroke="#222222" stroke-width="2.2" />
  <line id="slot.w193.line" x1="542.0043402777778" y1="109.38020833333333" x2="544.2291666666666" y2="110.98611111111111" stroke="#222222" stroke-width="2.2" />
  <line id="slot.w121.line" x1="433.5" y1="109.69444444444444" x2="435" y2="111.58333333333334" stroke="#222222" stroke-width="2.2" />
  <line id="slot.w1.line" x1="252.97280092592595" y1="111.1886574074074" x2="254.19907407407408" y2="110.12037037037037" stroke="#222222" stroke-width="2.2" />
  <line id="slot.w85.line" x1="379.4299768518519" y1="112.44907407407408" x2="380.88425925925924" y2="110.81481481481481" stroke="#222222" stroke-width="2.2" />
  <line id="slot.w163.line" x1="496.57089120370375" y1="113.66956018518518" x2="498.0740740740741" y2="110.81481481481481" stroke="#222222" stroke-width="2.2" />
  <line id="slot.w194.line" x1="544.2291666666666" y1="110.98611111111111" x2="546.6171875" y2="112.765625" stroke="#222222" stroke-width="2.2" />
  <line id="slot.w40.line" x1="313.22222222222223" y1="111.03703703703704" x2="314.8255208333333" y2="113.0653935185185" stroke="#222222" stroke-width="2.2" />
  <line id="slot.w0.line" x1="252" y1="112" x2="252.97280092592595" y2="111.1886574074074" stroke="#222222" stroke-width="2.2" />
  <line id="slot.w122.line" x1="435" y1="111.58333333333334" x2="436.5" y2="113.625" stroke="#222222" stroke-width="2.2" />
  <line id="slot.w84.line" x1="378" y1="114" x2="379.4299768518519" y2="112.44907407407408" stroke="#222222" stroke-width="2.2" />
  <line id="slot.w195.line" x1="546.6171875" y1="112.765625" x2="549.1111111111111" y2="114.66666666666667" stroke="#222222" stroke-width="2.2" />
  <line id="slot.w41.line" x1="314.8255208333333" y1="113.0653935185185" x2="316.4375" y2="115.125" stroke="#222222" stroke-width="2.2" />
  <line id="slot.w123.line" x1="436.5" y1="113.625" x2="438" y2="115.77777777777777" stroke="#222222" stroke-width="2.2" />
  <line id="slot.w162.line" x1="495.0625" y1="116.625" x2="496.57089120370375" y2="113.66956018518518" stroke="#222222" stroke-width="2.2" />
  <line id="slot.w83.line" x1="376.60300925925924" y1="115.54456018518519" x2="378" y2="114" stroke="#222222" stroke-width="2.2" />
  <line id="slot.w196.line" x1="549.1111111111111" y1="114.66666666666667" x2="551.6536458333333" y2="116.63715277777779" stroke="#222222" stroke-width="2.2" />
  <line id="slot.w42.line" x1="316.4375" y1="115.125" x2="318.0529513888889" y2="117.17766203703704" stroke="#222222" stroke-width="2.2" />
  <line id="slot.w82.line" x1="375.24074074074076" y1="117.16203703703702" x2="376.60300925925924" y2="115.54456018518519" stroke="#222222" stroke-width="2.2" />
  <line id="slot.w124.line" x1="438" y1="115.77777777777777" x2="439.5" y2="118" stroke="#222222" stroke-width="2.2" />
  <line id="slot.w161.line" x1="493.5506365740741" y1="119.60127314814815" x2="495.0625" y2="116.625" stroke="#222222" stroke-width="2.2" />
  <line id="slot.w197.line" x1="551.6536458333333" y1="116.63715277777779" x2="554.1875" y2="118.625" stroke="#222222" stroke-width="2.2" />
  <line id="slot.w81.line" x1="373.90625" y1="118.828125" x2="375.24074074074076" y2="117.16203703703702" stroke="#222222" stroke-width="2.2" />
  <line id="slot.w43.line" x1="318.0529513888889" y1="117.17766203703704" x2="319.66666666666663" y2="119.18518518518519" stroke="#222222" stroke-width="2.2" />
  <line id="slot.w125.line" x1="439.5" y1="118" x2="441" y2="120.25" stroke="#222222" stroke-width="2.2" />
  <line id="slot.w198.line" x1="554.1875" y1="118.625" x2="556.6553819444445" y2="120.578125" stroke="#222222" stroke-width="2.2" />
  <line id="slot.w80.line" x1="372.5925925925926" y1="120.51851851851853" x2="373.90625" y2="118.828125" stroke="#222222" stroke-width="2.2" />
  <line id="slot.w44.line" x1="319.66666666666663" y1="119.18518518518519" x2="321.2734375" y2="121.109375" stroke="#222222" stroke-width="2.2" />
  <line id="slot.w160.line" x1="492.037037037037" y1="122.5185185185185" x2="493.5506365740741" y2="119.60127314814815" stroke="#222222" stroke-width="2.2" />
  <line id="slot.w126.line" x1="441" y1="120.25" x2="442.5" y2="122.48611111111111" stroke="#222222" stroke-width="2.2" />
  <line id="slot.w79.line" x1="371.29282407407413" y1="122.20891203703704" x2="372.5925925925926" y2="120.51851851851853" stroke="#222222" stroke-width="2.2" />
  <line id="slot.w199.line" x1="556.6553819444445" y1="120.578125" x2="559" y2="122.44444444444444" stroke="#222222" stroke-width="2.2" />
  <line id="slot.w45.line" x1="321.2734375" y1="121.109375" x2="322.86805555555554" y2="122.91203703703702" stroke="#222222" stroke-width="2.2" />
  <line id="slot.w78.line" x1="370" y1="123.875" x2="371.29282407407413" y2="122.20891203703704" stroke="#222222" stroke-width="2.2" />
  <line id="slot.w200.line" x1="559" y1="122.44444444444444" x2="561.1640625" y2="124.171875" stroke="#222222" stroke-width="2.2" />
  <line id="slot.w127.line" x1="442.5" y1="122.48611111111111" x2="444" y2="124.66666666666667" stroke="#222222" stroke-width="2.2" />
  <line id="slot.w159.line" x1="490.5234375" y1="125.296875" x2="492.037037037037" y2="122.5185185185185" stroke="#222222" stroke-width="2.2" />
  <line id="slot.w46.line" x1="322.86805555555554" y1="122.91203703703702" x2="324.4453125" y2="124.55497685185185" stroke="#222222" stroke-width="2.2" />
  <line id="slot.w77.line" x1="368.7071759259259" y1="125.49247685185186" x2="370" y2="123.875" stroke="#222222" stroke-width="2.2" />
  <line id="slot.w201.line" x1="561.1640625" y1="124.171875" x2="563.0902777777778" y2="125.70833333333333" stroke="#222222" stroke-width="2.2" />
  <line id="slot.w47.line" x1="324.4453125" y1="124.55497685185185" x2="326" y2="126" stroke="#222222" stroke-width="2.2" />
  <line id="slot.w128.line" x1="444" y1="124.66666666666667" x2="445.5" y2="126.75" stroke="#222222" stroke-width="2.2" />
  <line id="slot.w158.line" x1="489.0115740740741" y1="127.85648148148147" x2="490.5234375" y2="125.296875" stroke="#222222" stroke-width="2.2" />
  <line id="slot.w76.line" x1="367.40740740740745" y1="127.03703703703704" x2="368.7071759259259" y2="125.49247685185186" stroke="#222222" stroke-width="2.2" />
  <line id="slot.w202.line" x1="563.0902777777778" y1="125.70833333333333" x2="564.7213541666666" y2="127.0017361111111" stroke="#222222" stroke-width="2.2" />
  <line id="slot.w48.line" x1="326" y1="126" x2="327.5350115740741" y2="127.29803240740739" stroke="#222222" stroke-width="2.2" />
  <line id="slot.w129.line" x1="445.5" y1="126.75" x2="447" y2="128.69444444444443" stroke="#222222" stroke-width="2.2" />
  <line id="slot.w203.line" x1="564.7213541666666" y1="127.0017361111111" x2="566" y2="128" stroke="#222222" stroke-width="2.2" />
  <line id="slot.w75.line" x1="366.09375" y1="128.484375" x2="367.40740740740745" y2="127.03703703703704" stroke="#222222" stroke-width="2.2" />
  <line id="slot.w49.line" x1="327.5350115740741" y1="127.29803240740739" x2="329.0578703703704" y2="128.52314814814815" stroke="#222222" stroke-width="2.2" />
  <line id="slot.w157.line" x1="487.5031828703704" y1="130.11747685185188" x2="489.0115740740741" y2="127.85648148148147" stroke="#222222" stroke-width="2.2" />
  <line id="slot.w74.line" x1="364.75925925925924" y1="129.8101851851852" x2="366.09375" y2="128.484375" stroke="#222222" stroke-width="2.2" />
  <line id="slot.w50.line" x1="329.0578703703704" y1="128.52314814814815" x2="330.5703125" y2="129.671875" stroke="#222222" stroke-width="2.2" />
  <line id="slot.w130.line" x1="447" y1="128.69444444444443" x2="448.5" y2="130.45833333333334" stroke="#222222" stroke-width="2.2" />
  <line id="slot.w51.line" x1="330.5703125" y1="129.671875" x2="332.07407407407413" y2="130.74074074074076" stroke="#222222" stroke-width="2.2" />
  <line id="slot.w73.line" x1="363.39699074074076" y1="130.99016203703704" x2="364.75925925925924" y2="129.8101851851852" stroke="#222222" stroke-width="2.2" />
  <line id="slot.w156.line" x1="486" y1="132" x2="487.5031828703704" y2="130.11747685185188" stroke="#222222" stroke-width="2.2" />
  <line id="slot.w131.line" x1="448.5" y1="130.45833333333334" x2="450" y2="132" stroke="#222222" stroke-width="2.2" />
  <line id="slot.w52.line" x1="332.07407407407413" y1="130.74074074074076" x2="333.5708912037037" y2="131.72627314814815" stroke="#222222" stroke-width="2.2" />
  <line id="slot.w72.line" x1="362" y1="132" x2="363.39699074074076" y2="130.99016203703704" stroke="#222222" stroke-width="2.2" />
  <line id="slot.w53.line" x1="333.5708912037037" y1="131.72627314814815" x2="335.0625" y2="132.625" stroke="#222222" stroke-width="2.2" />
  <line id="slot.w71.line" x1="360.57002314814815" y1="132.86805555555554" x2="362" y2="132" stroke="#222222" stroke-width="2.2" />
  <line id="slot.w132.line" x1="450" y1="132" x2="451.5" y2="133.38715277777777" stroke="#222222" stroke-width="2.2" />
  <line id="slot.w155.line" x1="484.5" y1="133.59722222222223" x2="486" y2="132" stroke="#222222" stroke-width="2.2" />
  <line id="slot.w54.line" x1="335.0625" y1="132.625" x2="336.5506365740741" y2="133.43344907407408" stroke="#222222" stroke-width="2.2" />
  <line id="slot.w70.line" x1="359.11574074074076" y1="133.63888888888889" x2="360.57002314814815" y2="132.86805555555554" stroke="#222222" stroke-width="2.2" />
  <line id="slot.w133.line" x1="451.5" y1="133.38715277777777" x2="453" y2="134.70833333333334" stroke="#222222" stroke-width="2.2" />
  <line id="slot.w55.line" x1="336.5506365740741" y1="133.43344907407408" x2="338.037037037037" y2="134.14814814814812" stroke="#222222" stroke-width="2.2" />
  <line id="slot.w154.line" x1="483" y1="135.05555555555554" x2="484.5" y2="133.59722222222223" stroke="#222222" stroke-width="2.2" />
  <line id="slot.w69.line" x1="357.640625" y1="134.3125" x2="359.11574074074076" y2="133.63888888888889" stroke="#222222" stroke-width="2.2" />
  <line id="slot.w56.line" x1="338.037037037037" y1="134.14814814814812" x2="339.5234375" y2="134.765625" stroke="#222222" stroke-width="2.2" />
  <line id="slot.w68.line" x1="356.14814814814815" y1="134.88888888888889" x2="357.640625" y2="134.3125" stroke="#222222" stroke-width="2.2" />
  <line id="slot.w134.line" x1="453" y1="134.70833333333334" x2="454.5" y2="135.953125" stroke="#222222" stroke-width="2.2" />
  <line id="slot.w57.line" x1="339.5234375" y1="134.765625" x2="341.0115740740741" y2="135.28240740740742" stroke="#222222" stroke-width="2.2" />
  <line id="slot.w67.line" x1="354.6417824074074" y1="135.36805555555554" x2="356.14814814814815" y2="134.88888888888889" stroke="#222222" stroke-width="2.2" />
  <line id="slot.w153.line" x1="481.5" y1="136.375" x2="483" y2="135.05555555555554" stroke="#222222" stroke-width="2.2" />
  <line id="slot.w58.line" x1="341.0115740740741" y1="135.28240740740742" x2="342.5031828703704" y2="135.69502314814815" stroke="#222222" stroke-width="2.2" />
  <line id="slot.w66.line" x1="353.125" y1="135.75" x2="354.6417824074074" y2="135.36805555555554" stroke="#222222" stroke-width="2.2" />
  <line id="slot.w59.line" x1="342.5031828703704" y1="135.69502314814815" x2="344" y2="136" stroke="#222222" stroke-width="2.2" />
  <line id="slot.w65.line" x1="351.6012731481481" y1="136.03472222222223" x2="353.125" y2="135.75" stroke="#222222" stroke-width="2.2" />
  <line id="slot.w135.line" x1="454.5" y1="135.953125" x2="456" y2="137.1111111111111" stroke="#222222" stroke-width="2.2" />
  <line id="slot.w60.line" x1="344" y1="136" x2="345.50636574074076" y2="136.20138888888889" stroke="#222222" stroke-width="2.2" />
  <line id="slot.w64.line" x1="350.0740740740741" y1="136.22222222222223" x2="351.6012731481481" y2="136.03472222222223" stroke="#222222" stroke-width="2.2" />
  <line id="slot.w61.line" x1="345.50636574074076" y1="136.20138888888889" x2="347.02314814814815" y2="136.30555555555554" stroke="#222222" stroke-width="2.2" />
  <line id="slot.w63.line" x1="348.546875" y1="136.3125" x2="350.0740740740741" y2="136.22222222222223" stroke="#222222" stroke-width="2.2" />
  <line id="slot.w62.line" x1="347.02314814814815" y1="136.30555555555554" x2="348.546875" y2="136.3125" stroke="#222222" stroke-width="2.2" />
  <line id="slot.w152.line" x1="480" y1="137.55555555555554" x2="481.5" y2="136.375" stroke="#222222" stroke-width="2.2" />
  <line id="slot.w136.line" x1="456" y1="137.1111111111111" x2="457.5" y2="138.171875" stroke="#222222" stroke-width="2.2" />
  <line id="slot.w151.line" x1="478.5" y1="138.59722222222223" x2="480" y2="137.55555555555554" stroke="#222222" stroke-width="2.2" />
  <line id="slot.w137.line" x1="457.5" y1="138.171875" x2="459" y2="139.125" stroke="#222222" stroke-width="2.2" />
  <line id="slot.w150.line" x1="477" y1="139.5" x2="478.5" y2="138.59722222222223" stroke="#222222" stroke-width="2.2" />
  <line id="slot.w138.line" x1="459" y1="139.125" x2="460.5" y2="139.96006944444443" stroke="#222222" stroke-width="2.2" />
  <line id="slot.w149.line" x1="475.5" y1="140.26388888888889" x2="477" y2="139.5" stroke="#222222" stroke-width="2.2" />
  <line id="slot.w139.line" x1="460.5" y1="139.96006944444443" x2="462" y2="140.66666666666669" stroke="#222222" stroke-width="2.2" />
  <line id="slot.w148.line" x1="474" y1="140.88888888888889" x2="475.5" y2="140.26388888888889" stroke="#222222" stroke-width="2.2" />
  <line id="slot.w140.line" x1="462" y1="140.66666666666669" x2="463.5" y2="141.234375" stroke="#222222" stroke-width="2.2" />
  <line id="slot.w147.line" x1="472.5" y1="141.375" x2="474" y2="140.88888888888889" stroke="#222222" stroke-width="2.2" />
  <line id="slot.w141.line" x1="463.5" y1="141.234375" x2="465" y2="141.65277777777777" stroke="#222222" stroke-width="2.2" />
  <line id="slot.w146.line" x1="471" y1="141.72222222222223" x2="472.5" y2="141.375" stroke="#222222" stroke-width="2.2" />
  <line id="slot.w142.line" x1="465" y1="141.65277777777777" x2="466.5" y2="141.91145833333334" stroke="#222222" stroke-width="2.2" />
  <line id="slot.w145.line" x1="469.5" y1="141.93055555555554" x2="471" y2="141.72222222222223" stroke="#222222" stroke-width="2.2" />
  <line id="slot.w143.line" x1="466.5" y1="141.91145833333334" x2="468" y2="142" stroke="#222222" stroke-width="2.2" />
  <line id="slot.w144.line" x1="468" y1="142" x2="469.5" y2="141.93055555555554" stroke="#222222" stroke-width="2.2" />
  <text id="slot.i1.text" x="4" y="34" max_width="512" fill="#222222" font-family="Malgun Gothic" font-size="17" text-anchor="middle">다음 도형이 선분이 아닌 이유를 쓰세요.</text>
</svg>
